<svg width="200" height="50" viewBox="0 0 210 50" xmlns="http://www.w3.org/2000/svg">
    <!-- 184 stargazers -->
    <!-- created at Mon Mar 30 2026 14:09:46 GMT+0000 (Coordinated Universal Time) -->
    <defs>
        <linearGradient id="stroke" x1="0%" y1="0%" x2="100%" y2="0%">
            <stop stop-color="#3023AE" offset="0%"/>
            <stop stop-color="#C86DD7" offset="100%"/>
        </linearGradient>
    </defs>
    <path stroke="url(#stroke)"
        stroke-width="3"
        stroke-linejoin="round"
        stroke-linecap="round"
        d="M5.00 46.0001 C 5.91 44.81, 8.72 40.28, 10.00 39.49 S 13.55 39.44, 15.00 39.82 S 18.51 42.29, 20.00 42.14 S 23.50 38.93, 25.00 38.85 S 28.78 40.75, 30.00 41.62 S 33.63 45.40, 35.00 46.00 S 38.50 46.00, 40.00 46.00 S 43.50 46.00, 45.00 46.00 S 49.25 47.30, 50.00 46.00 S 54.27 30.01, 55.00 28.70 S 58.51 28.27, 60.00 28.09 S 63.57 27.05, 65.00 27.50 S 68.51 31.09, 70.00 31.23 S 73.57 28.91, 75.00 28.45 S 78.85 27.01, 80.00 27.96 S 83.53 37.05, 85.00 36.75 S 88.88 26.88, 90.00 25.88 S 93.83 26.91, 95.00 27.84 S 98.63 34.46, 100.00 33.84 S 103.70 24.08, 105.00 23.33 S 108.63 27.47, 110.00 28.08 S 113.55 27.33, 115.00 27.72 S 118.54 31.11, 120.00 30.79 S 123.54 25.86, 125.00 25.51 S 128.91 29.41, 130.00 28.37 S 133.58 15.50, 135.00 16.00 S 139.10 30.68, 140.00 31.88 S 143.55 29.83, 145.00 29.44 S 148.52 28.92, 150.00 29.18 S 153.50 31.29, 155.00 31.21 S 158.71 27.91, 160.00 28.68 S 163.55 37.59, 165.00 37.22 S 168.61 26.64, 170.00 26.09 S 173.61 32.67, 175.00 33.24 S 178.58 29.67, 180.00 30.16 S 183.88 37.74, 185.00 36.74 S 188.92 22.24, 190.00 21.19 S 194.18 25.77, 195.00 27.02 S 198.55 36.79, 200.00 36.40 S 204.43 25.67, 205.00 24.28"
        fill="none">
        <animate attributeName="stroke-dashoffset"
            from="325.28604100057197" to="0" dur="2.2s"/>
        <animate attributeName="stroke-dasharray"
            from="325.28604100057197" to="325.28604100057197"/>
    </path>
    <circle r="4" cx="5" cy="46" fill="#3023AE"/>
    <circle r="4" cx="205" cy="24.28064566972546" fill="#C86DD7" opacity="0">
        <animate attributeName="opacity"
            from="0" to="1" dur="0.1s" begin="2.2s" fill="freeze"/>
    </circle>
</svg>