<svg width="200" height="50" viewBox="0 0 210 50" xmlns="http://www.w3.org/2000/svg">
    <!-- 190 stargazers -->
    <!-- created at Fri May 15 2026 11:44:35 GMT+0000 (Coordinated Universal Time) -->
    <defs>
        <linearGradient id="stroke" x1="0%" y1="0%" x2="100%" y2="0%">
            <stop stop-color="#3023AE" offset="0%"/>
            <stop stop-color="#C86DD7" offset="100%"/>
        </linearGradient>
    </defs>
    <path stroke="url(#stroke)"
        stroke-width="3"
        stroke-linejoin="round"
        stroke-linecap="round"
        d="M5.00 46.0001 C 5.87 44.78, 8.75 39.84, 10.00 39.01 S 13.56 38.95, 15.00 39.36 S 18.51 42.01, 20.00 41.86 S 23.50 38.40, 25.00 38.32 S 28.81 40.38, 30.00 41.29 S 33.64 45.36, 35.00 46.00 S 38.50 46.00, 40.00 46.00 S 43.83 46.94, 45.00 46.00 S 49.36 39.35, 50.00 37.99 S 54.13 26.03, 55.00 24.81 S 58.64 23.44, 60.00 24.06 S 63.59 28.86, 65.00 29.37 S 68.58 28.16, 70.00 27.68 S 73.86 25.02, 75.00 26.00 S 78.54 36.64, 80.00 36.31 S 83.83 24.71, 85.00 23.77 S 88.55 27.96, 90.00 28.36 S 93.79 27.38, 95.00 26.49 S 98.61 20.43, 100.00 21.00 S 103.70 29.85, 105.00 30.60 S 108.70 27.50, 110.00 26.74 S 113.56 24.37, 115.00 24.79 S 118.87 30.65, 120.00 29.66 S 123.63 16.60, 125.00 16.00 S 129.08 24.08, 130.00 25.26 S 133.51 28.60, 135.00 28.77 S 138.64 25.79, 140.00 26.42 S 143.60 32.87, 145.00 33.42 S 148.50 30.41, 150.00 30.35 S 153.56 33.46, 155.00 33.03 S 158.58 27.87, 160.00 27.39 S 163.66 28.98, 165.00 29.65 S 168.90 33.49, 170.00 32.47 S 173.72 21.13, 175.00 20.35 S 178.70 25.61, 180.00 26.35 S 183.92 25.07, 185.00 26.10 S 188.54 35.60, 190.00 35.93 S 194.09 29.53, 195.00 28.34 S 198.78 22.06, 200.00 22.93 S 204.45 34.17, 205.00 35.57"
        fill="none">
        <animate attributeName="stroke-dashoffset"
            from="317.0715649517623" to="0" dur="2.2s"/>
        <animate attributeName="stroke-dasharray"
            from="317.0715649517623" to="317.0715649517623"/>
    </path>
    <circle r="4" cx="5" cy="46" fill="#3023AE"/>
    <circle r="4" cx="205" cy="35.56559635651438" fill="#C86DD7" opacity="0">
        <animate attributeName="opacity"
            from="0" to="1" dur="0.1s" begin="2.2s" fill="freeze"/>
    </circle>
</svg>