<svg width="200" height="50" viewBox="0 0 210 50" xmlns="http://www.w3.org/2000/svg">
    <!-- 178 stargazers -->
    <!-- created at Sun Mar 15 2026 11:07:23 GMT+0000 (Coordinated Universal Time) -->
    <defs>
        <linearGradient id="stroke" x1="0%" y1="0%" x2="100%" y2="0%">
            <stop stop-color="#3023AE" offset="0%"/>
            <stop stop-color="#C86DD7" offset="100%"/>
        </linearGradient>
    </defs>
    <path stroke="url(#stroke)"
        stroke-width="3"
        stroke-linejoin="round"
        stroke-linecap="round"
        d="M5.00 46.0001 C 5.85 44.77, 8.76 39.63, 10.00 38.78 S 13.56 38.72, 15.00 39.14 S 18.51 41.88, 20.00 41.72 S 23.50 38.15, 25.00 38.07 S 28.82 40.21, 30.00 41.14 S 33.65 45.34, 35.00 46.00 S 38.50 46.00, 40.00 46.00 S 43.50 46.00, 45.00 46.00 S 49.25 47.30, 50.00 46.00 S 54.33 30.17, 55.00 28.83 S 58.58 26.60, 60.00 26.12 S 63.53 25.15, 65.00 25.47 S 68.54 27.96, 70.00 28.29 S 73.50 27.72, 75.00 27.78 S 78.53 28.37, 80.00 28.67 S 83.51 29.90, 85.00 29.76 S 88.82 28.70, 90.00 27.77 S 93.78 21.04, 95.00 21.91 S 98.51 35.15, 100.00 34.99 S 103.96 21.92, 105.00 20.84 S 108.86 23.54, 110.00 24.51 S 113.50 29.31, 115.00 29.44 S 118.50 25.42, 120.00 25.33 S 123.57 28.35, 125.00 28.81 S 128.83 29.44, 130.00 28.50 S 134.06 22.00, 135.00 20.83 S 138.76 15.16, 140.00 16.00 S 144.12 26.40, 145.00 27.62 S 148.56 30.24, 150.00 29.83 S 153.55 24.44, 155.00 24.82 S 158.52 32.16, 160.00 32.41 S 163.59 25.98, 165.00 26.50 S 168.56 36.53, 170.00 36.12 S 173.63 24.21, 175.00 23.60 S 178.64 31.02, 180.00 31.65 S 183.60 27.65, 185.00 28.20 S 188.94 36.66, 190.00 35.60 S 193.99 19.24, 195.00 18.14 S 199.49 23.28, 200.00 24.69 S 204.66 44.54, 205.00 46.00"
        fill="none">
        <animate attributeName="stroke-dashoffset"
            from="336.8251137781596" to="0" dur="2.2s"/>
        <animate attributeName="stroke-dasharray"
            from="336.8251137781596" to="336.8251137781596"/>
    </path>
    <circle r="4" cx="5" cy="46" fill="#3023AE"/>
    <circle r="4" cx="205" cy="46" fill="#C86DD7" opacity="0">
        <animate attributeName="opacity"
            from="0" to="1" dur="0.1s" begin="2.2s" fill="freeze"/>
    </circle>
</svg>