<svg width="200" height="50" viewBox="0 0 210 50" xmlns="http://www.w3.org/2000/svg">
    <!-- 191 stargazers -->
    <!-- created at Sun May 03 2026 05:23:53 GMT+0000 (Coordinated Universal Time) -->
    <defs>
        <linearGradient id="stroke" x1="0%" y1="0%" x2="100%" y2="0%">
            <stop stop-color="#3023AE" offset="0%"/>
            <stop stop-color="#C86DD7" offset="100%"/>
        </linearGradient>
    </defs>
    <path stroke="url(#stroke)"
        stroke-width="3"
        stroke-linejoin="round"
        stroke-linecap="round"
        d="M5.00 46.0001 C 5.81 44.74, 8.80 39.07, 10.00 38.17 S 13.57 38.11, 15.00 38.56 S 18.51 41.53, 20.00 41.36 S 23.50 37.49, 25.00 37.40 S 28.86 39.75, 30.00 40.73 S 33.67 45.30, 35.00 46.00 S 38.50 46.00, 40.00 46.00 S 43.50 46.00, 45.00 46.00 S 49.45 47.40, 50.00 46.00 S 54.43 21.89, 55.00 20.50 S 58.76 20.58, 60.00 21.43 S 63.68 26.66, 65.00 27.37 S 68.50 26.75, 70.00 26.80 S 73.53 27.40, 75.00 27.70 S 78.68 29.54, 80.00 28.84 S 83.69 23.12, 85.00 22.38 S 88.90 22.15, 90.00 23.18 S 93.60 32.24, 95.00 31.69 S 98.86 20.26, 100.00 19.29 S 103.77 22.31, 105.00 23.17 S 108.65 25.65, 110.00 26.31 S 113.63 28.66, 115.00 28.04 S 118.94 22.84, 120.00 21.78 S 123.70 18.79, 125.00 18.04 S 128.54 15.65, 130.00 16.00 S 134.33 19.13, 135.00 20.47 S 138.57 35.73, 140.00 36.19 S 144.08 24.90, 145.00 23.71 S 149.39 22.00, 150.00 23.37 S 153.50 46.10, 155.00 46.00 S 159.17 23.94, 160.00 22.69 S 163.53 30.77, 165.00 31.05 S 168.50 24.63, 170.00 24.56 S 173.57 31.09, 175.00 30.64 S 178.77 22.25, 180.00 21.39 S 183.53 23.41, 185.00 23.71 S 188.72 22.65, 190.00 23.43 S 193.50 29.93, 195.00 29.85 S 198.78 23.77, 200.00 22.89 S 203.50 22.70, 205.00 22.62"
        fill="none">
        <animate attributeName="stroke-dashoffset"
            from="345.5351809908909" to="0" dur="2.2s"/>
        <animate attributeName="stroke-dasharray"
            from="345.5351809908909" to="345.5351809908909"/>
    </path>
    <circle r="4" cx="5" cy="46" fill="#3023AE"/>
    <circle r="4" cx="205" cy="22.620626903273322" fill="#C86DD7" opacity="0">
        <animate attributeName="opacity"
            from="0" to="1" dur="0.1s" begin="2.2s" fill="freeze"/>
    </circle>
</svg>