<svg width="200" height="50" viewBox="0 0 210 50" xmlns="http://www.w3.org/2000/svg">
    <!-- 180 stargazers -->
    <!-- created at Wed Mar 18 2026 11:09:31 GMT+0000 (Coordinated Universal Time) -->
    <defs>
        <linearGradient id="stroke" x1="0%" y1="0%" x2="100%" y2="0%">
            <stop stop-color="#3023AE" offset="0%"/>
            <stop stop-color="#C86DD7" offset="100%"/>
        </linearGradient>
    </defs>
    <path stroke="url(#stroke)"
        stroke-width="3"
        stroke-linejoin="round"
        stroke-linecap="round"
        d="M5.00 46.0001 C 5.82 44.74, 8.79 39.19, 10.00 38.30 S 13.57 38.24, 15.00 38.69 S 18.51 41.61, 20.00 41.44 S 23.50 37.63, 25.00 37.54 S 28.85 39.85, 30.00 40.82 S 33.67 45.31, 35.00 46.00 S 38.50 46.00, 40.00 46.00 S 43.50 46.00, 45.00 46.00 S 49.28 47.32, 50.00 46.00 S 54.38 29.06, 55.00 27.69 S 58.54 24.13, 60.00 23.78 S 63.58 24.76, 65.00 25.23 S 68.50 27.12, 70.00 27.12 S 73.51 25.39, 75.00 25.23 S 78.79 25.15, 80.00 26.04 S 83.54 32.95, 85.00 32.59 S 88.99 24.67, 90.00 23.56 S 94.13 20.41, 95.00 21.64 S 98.54 38.05, 100.00 37.70 S 104.15 20.41, 105.00 19.17 S 108.89 22.08, 110.00 23.09 S 113.51 28.21, 115.00 28.34 S 118.50 24.06, 120.00 23.96 S 123.58 27.19, 125.00 27.67 S 129.02 28.48, 130.00 27.35 S 133.95 17.08, 135.00 16.00 S 138.83 16.12, 140.00 17.07 S 144.16 22.85, 145.00 24.09 S 148.56 32.34, 150.00 31.93 S 153.50 21.32, 155.00 21.26 S 158.76 30.67, 160.00 31.51 S 163.50 28.06, 165.00 28.00 S 168.58 31.57, 170.00 31.10 S 173.50 24.70, 175.00 24.64 S 178.50 30.78, 180.00 30.70 S 183.50 24.14, 185.00 24.09 S 188.57 30.77, 190.00 30.31 S 193.77 21.76, 195.00 20.89 S 198.88 22.28, 200.00 23.28 S 204.08 28.56, 205.00 29.75"
        fill="none">
        <animate attributeName="stroke-dashoffset"
            from="325.4573208900638" to="0" dur="2.2s"/>
        <animate attributeName="stroke-dasharray"
            from="325.4573208900638" to="325.4573208900638"/>
    </path>
    <circle r="4" cx="5" cy="46" fill="#3023AE"/>
    <circle r="4" cx="205" cy="29.74672348683213" fill="#C86DD7" opacity="0">
        <animate attributeName="opacity"
            from="0" to="1" dur="0.1s" begin="2.2s" fill="freeze"/>
    </circle>
</svg>