<svg width="200" height="50" viewBox="0 0 210 50" xmlns="http://www.w3.org/2000/svg">
    <!-- 182 stargazers -->
    <!-- created at Sat Mar 21 2026 13:11:47 GMT+0000 (Coordinated Universal Time) -->
    <defs>
        <linearGradient id="stroke" x1="0%" y1="0%" x2="100%" y2="0%">
            <stop stop-color="#3023AE" offset="0%"/>
            <stop stop-color="#C86DD7" offset="100%"/>
        </linearGradient>
    </defs>
    <path stroke="url(#stroke)"
        stroke-width="3"
        stroke-linejoin="round"
        stroke-linecap="round"
        d="M5.00 46.0001 C 5.91 44.81, 8.72 40.28, 10.00 39.49 S 13.55 39.44, 15.00 39.82 S 18.51 42.29, 20.00 42.14 S 23.50 38.93, 25.00 38.85 S 28.78 40.75, 30.00 41.62 S 33.63 45.40, 35.00 46.00 S 38.50 46.00, 40.00 46.00 S 43.50 46.00, 45.00 46.00 S 49.19 47.26, 50.00 46.00 S 54.32 31.86, 55.00 30.53 S 58.51 26.54, 60.00 26.38 S 63.59 28.94, 65.00 29.45 S 68.51 30.19, 70.00 30.04 S 73.53 28.75, 75.00 28.45 S 78.85 27.01, 80.00 27.96 S 83.51 36.89, 85.00 36.75 S 89.01 28.16, 90.00 27.03 S 93.76 24.57, 95.00 25.41 S 98.51 33.98, 100.00 33.84 S 103.70 25.24, 105.00 24.49 S 108.65 27.42, 110.00 28.08 S 113.51 29.18, 115.00 29.31 S 118.54 29.33, 120.00 28.99 S 123.71 26.27, 125.00 27.03 S 128.99 35.96, 130.00 34.85 S 133.87 16.99, 135.00 16.00 S 138.92 24.99, 140.00 26.04 S 144.33 24.37, 145.00 25.72 S 148.50 46.09, 150.00 46.00 S 154.25 26.39, 155.00 25.09 S 159.05 27.52, 160.00 28.68 S 163.64 36.57, 165.00 37.22 S 168.90 34.42, 170.00 33.41 S 173.50 28.00, 175.00 27.95 S 178.50 33.14, 180.00 33.07 S 183.50 27.53, 185.00 27.48 S 188.64 33.38, 190.00 32.74 S 193.58 23.23, 195.00 22.76 S 198.60 28.83, 200.00 29.37 S 203.69 27.31, 205.00 26.57"
        fill="none">
        <animate attributeName="stroke-dashoffset"
            from="334.6402615570802" to="0" dur="2.2s"/>
        <animate attributeName="stroke-dasharray"
            from="334.6402615570802" to="334.6402615570802"/>
    </path>
    <circle r="4" cx="5" cy="46" fill="#3023AE"/>
    <circle r="4" cx="205" cy="26.573618916040065" fill="#C86DD7" opacity="0">
        <animate attributeName="opacity"
            from="0" to="1" dur="0.1s" begin="2.2s" fill="freeze"/>
    </circle>
</svg>