<svg width="200" height="50" viewBox="0 0 210 50" xmlns="http://www.w3.org/2000/svg">
    <!-- 182 stargazers -->
    <!-- created at Tue Mar 24 2026 13:37:51 GMT+0000 (Coordinated Universal Time) -->
    <defs>
        <linearGradient id="stroke" x1="0%" y1="0%" x2="100%" y2="0%">
            <stop stop-color="#3023AE" offset="0%"/>
            <stop stop-color="#C86DD7" offset="100%"/>
        </linearGradient>
    </defs>
    <path stroke="url(#stroke)"
        stroke-width="3"
        stroke-linejoin="round"
        stroke-linecap="round"
        d="M5.00 46.0001 C 5.89 44.79, 8.74 40.06, 10.00 39.25 S 13.55 39.19, 15.00 39.59 S 18.51 42.15, 20.00 42.00 S 23.50 38.66, 25.00 38.58 S 28.80 40.56, 30.00 41.45 S 33.63 45.38, 35.00 46.00 S 38.50 46.00, 40.00 46.00 S 43.50 46.00, 45.00 46.00 S 49.21 47.27, 50.00 46.00 S 54.34 31.29, 55.00 29.94 S 58.51 25.81, 60.00 25.64 S 63.60 28.30, 65.00 28.83 S 68.53 29.76, 70.00 29.44 S 73.53 27.00, 75.00 26.68 S 78.92 26.24, 80.00 27.28 S 83.51 36.54, 85.00 36.40 S 88.97 27.41, 90.00 26.32 S 93.77 24.99, 95.00 25.85 S 98.53 33.70, 100.00 33.39 S 103.80 24.58, 105.00 23.68 S 108.66 25.24, 110.00 25.91 S 113.62 28.09, 115.00 28.68 S 118.60 30.77, 120.00 30.21 S 123.52 24.49, 125.00 24.73 S 128.87 32.82, 130.00 31.83 S 133.75 16.82, 135.00 16.00 S 138.98 24.18, 140.00 25.28 S 143.85 25.82, 145.00 26.78 S 148.52 33.44, 150.00 33.66 S 153.69 29.02, 155.00 28.28 S 158.86 27.04, 160.00 28.02 S 163.65 36.22, 165.00 36.88 S 168.92 33.97, 170.00 32.93 S 173.71 28.03, 175.00 27.27 S 178.67 26.34, 180.00 27.02 S 183.53 32.10, 185.00 32.41 S 189.14 30.38, 190.00 29.15 S 194.23 16.86, 195.00 18.15 S 198.81 45.09, 200.00 46.00 S 204.64 27.30, 205.00 25.84"
        fill="none">
        <animate attributeName="stroke-dashoffset"
            from="339.03464181338643" to="0" dur="2.2s"/>
        <animate attributeName="stroke-dasharray"
            from="339.03464181338643" to="339.03464181338643"/>
    </path>
    <circle r="4" cx="5" cy="46" fill="#3023AE"/>
    <circle r="4" cx="205" cy="25.840291614843668" fill="#C86DD7" opacity="0">
        <animate attributeName="opacity"
            from="0" to="1" dur="0.1s" begin="2.2s" fill="freeze"/>
    </circle>
</svg>