<svg width="200" height="50" viewBox="0 0 210 50" xmlns="http://www.w3.org/2000/svg">
    <!-- 178 stargazers -->
    <!-- created at Wed Mar 04 2026 13:44:35 GMT+0000 (Coordinated Universal Time) -->
    <defs>
        <linearGradient id="stroke" x1="0%" y1="0%" x2="100%" y2="0%">
            <stop stop-color="#3023AE" offset="0%"/>
            <stop stop-color="#C86DD7" offset="100%"/>
        </linearGradient>
    </defs>
    <path stroke="url(#stroke)"
        stroke-width="3"
        stroke-linejoin="round"
        stroke-linecap="round"
        d="M5.00 46.0001 C 5.88 44.78, 8.75 39.91, 10.00 39.09 S 13.56 39.03, 15.00 39.43 S 18.50 41.85, 20.00 41.90 S 23.50 39.88, 25.00 39.80 S 28.51 41.15, 30.00 41.35 S 33.64 40.46, 35.00 41.09 S 38.65 45.34, 40.00 46.00 S 43.50 46.00, 45.00 46.00 S 49.14 47.23, 50.00 46.00 S 54.27 33.07, 55.00 31.76 S 58.84 28.90, 60.00 27.95 S 63.51 23.43, 65.00 23.59 S 68.81 28.13, 70.00 29.05 S 73.51 31.40, 75.00 31.25 S 78.54 28.41, 80.00 28.07 S 83.59 28.45, 85.00 28.97 S 88.78 32.62, 90.00 31.75 S 93.59 21.29, 95.00 21.81 S 98.78 34.58, 100.00 35.45 S 104.13 30.19, 105.00 28.97 S 108.50 21.52, 110.00 21.41 S 113.74 27.45, 115.00 28.27 S 118.51 27.74, 120.00 27.93 S 123.61 30.11, 125.00 29.54 S 128.52 23.59, 130.00 23.84 S 133.82 32.17, 135.00 31.24 S 138.76 16.84, 140.00 16.00 S 143.94 23.39, 145.00 24.45 S 149.06 24.85, 150.00 26.02 S 153.50 37.02, 155.00 36.93 S 158.92 26.46, 160.00 25.42 S 164.00 26.22, 165.00 27.33 S 168.66 35.86, 170.00 36.54 S 173.94 33.50, 175.00 32.44 S 178.50 26.62, 180.00 26.57 S 183.50 32.16, 185.00 32.08 S 188.50 26.13, 190.00 26.08 S 193.56 32.16, 195.00 31.74 S 198.74 23.99, 200.00 23.19 S 203.62 24.76, 205.00 25.36"
        fill="none">
        <animate attributeName="stroke-dashoffset"
            from="317.1531100295922" to="0" dur="2.2s"/>
        <animate attributeName="stroke-dasharray"
            from="317.1531100295922" to="317.1531100295922"/>
    </path>
    <circle r="4" cx="5" cy="46" fill="#3023AE"/>
    <circle r="4" cx="205" cy="25.358996844918504" fill="#C86DD7" opacity="0">
        <animate attributeName="opacity"
            from="0" to="1" dur="0.1s" begin="2.2s" fill="freeze"/>
    </circle>
</svg>