<svg width="200" height="50" viewBox="0 0 210 50" xmlns="http://www.w3.org/2000/svg">
    <!-- 185 stargazers -->
    <!-- created at Sat Apr 11 2026 17:11:43 GMT+0000 (Coordinated Universal Time) -->
    <defs>
        <linearGradient id="stroke" x1="0%" y1="0%" x2="100%" y2="0%">
            <stop stop-color="#3023AE" offset="0%"/>
            <stop stop-color="#C86DD7" offset="100%"/>
        </linearGradient>
    </defs>
    <path stroke="url(#stroke)"
        stroke-width="3"
        stroke-linejoin="round"
        stroke-linecap="round"
        d="M5.00 46.0001 C 5.83 44.75, 8.78 39.40, 10.00 38.54 S 13.56 38.47, 15.00 38.91 S 18.51 41.74, 20.00 41.57 S 23.50 37.89, 25.00 37.80 S 28.84 40.02, 30.00 40.97 S 33.66 45.33, 35.00 46.00 S 38.50 46.00, 40.00 46.00 S 43.50 46.00, 45.00 46.00 S 49.35 47.35, 50.00 46.00 S 54.37 26.54, 55.00 25.18 S 58.52 24.18, 60.00 24.45 S 63.57 26.55, 65.00 27.01 S 68.51 27.86, 70.00 27.69 S 73.54 26.21, 75.00 25.86 S 78.67 24.62, 80.00 25.30 S 83.65 31.64, 85.00 30.98 S 88.60 19.94, 90.00 20.48 S 93.62 34.28, 95.00 34.86 S 99.21 25.97, 100.00 24.69 S 103.63 18.10, 105.00 18.71 S 108.73 28.41, 110.00 29.21 S 113.50 25.12, 115.00 25.02 S 118.57 28.09, 120.00 28.55 S 124.07 29.40, 125.00 28.22 S 128.93 17.05, 130.00 16.00 S 133.78 17.53, 135.00 18.40 S 139.49 21.68, 140.00 23.09 S 143.50 46.11, 145.00 46.00 S 149.32 23.70, 150.00 22.36 S 154.12 25.20, 155.00 26.41 S 158.66 36.74, 160.00 36.06 S 163.50 21.35, 165.00 21.31 S 168.76 34.94, 170.00 35.78 S 173.64 28.69, 175.00 28.06 S 178.83 32.10, 180.00 31.16 S 183.90 20.99, 185.00 19.97 S 189.17 20.69, 190.00 21.94 S 193.53 34.81, 195.00 35.11 S 198.65 24.62, 200.00 23.96 S 204.07 29.06, 205.00 30.24"
        fill="none">
        <animate attributeName="stroke-dashoffset"
            from="379.4842386531059" to="0" dur="2.2s"/>
        <animate attributeName="stroke-dasharray"
            from="379.4842386531059" to="379.4842386531059"/>
    </path>
    <circle r="4" cx="5" cy="46" fill="#3023AE"/>
    <circle r="4" cx="205" cy="30.237629873711235" fill="#C86DD7" opacity="0">
        <animate attributeName="opacity"
            from="0" to="1" dur="0.1s" begin="2.2s" fill="freeze"/>
    </circle>
</svg>