<svg width="200" height="50" viewBox="0 0 210 50" xmlns="http://www.w3.org/2000/svg">
    <!-- 192 stargazers -->
    <!-- created at Thu Apr 30 2026 03:20:45 GMT+0000 (Coordinated Universal Time) -->
    <defs>
        <linearGradient id="stroke" x1="0%" y1="0%" x2="100%" y2="0%">
            <stop stop-color="#3023AE" offset="0%"/>
            <stop stop-color="#C86DD7" offset="100%"/>
        </linearGradient>
    </defs>
    <path stroke="url(#stroke)"
        stroke-width="3"
        stroke-linejoin="round"
        stroke-linecap="round"
        d="M5.00 46.0001 C 5.86 44.77, 8.76 39.70, 10.00 38.85 S 13.56 38.79, 15.00 39.21 S 18.51 41.92, 20.00 41.76 S 23.50 38.23, 25.00 38.15 S 28.82 40.26, 30.00 41.19 S 33.65 45.35, 35.00 46.00 S 38.50 46.00, 40.00 46.00 S 43.50 46.00, 45.00 46.00 S 49.41 47.38, 50.00 46.00 S 54.37 24.08, 55.00 22.72 S 58.73 23.65, 60.00 24.45 S 63.61 28.44, 65.00 29.00 S 68.51 28.63, 70.00 28.47 S 73.53 27.69, 75.00 27.96 S 78.54 30.67, 80.00 30.33 S 83.74 26.48, 85.00 25.67 S 88.79 23.02, 90.00 23.90 S 93.54 33.27, 95.00 32.94 S 98.73 22.41, 100.00 21.62 S 103.64 26.07, 105.00 26.71 S 108.56 25.89, 110.00 26.31 S 113.54 29.95, 115.00 29.60 S 118.72 24.68, 120.00 23.89 S 123.82 24.42, 125.00 23.49 S 128.56 15.59, 130.00 16.00 S 134.25 25.00, 135.00 26.30 S 138.55 33.71, 140.00 33.34 S 143.70 24.47, 145.00 23.71 S 149.08 26.34, 150.00 27.52 S 153.65 37.27, 155.00 36.62 S 158.62 23.28, 160.00 22.69 S 163.91 31.32, 165.00 32.35 S 168.50 32.22, 170.00 32.16 S 174.07 33.16, 175.00 31.98 S 178.73 20.22, 180.00 19.42 S 183.71 24.88, 185.00 25.65 S 188.69 24.67, 190.00 25.40 S 193.50 31.33, 195.00 31.26 S 198.75 25.73, 200.00 24.90 S 203.50 24.73, 205.00 24.66"
        fill="none">
        <animate attributeName="stroke-dashoffset"
            from="315.55753102006156" to="0" dur="2.2s"/>
        <animate attributeName="stroke-dasharray"
            from="315.55753102006156" to="315.55753102006156"/>
    </path>
    <circle r="4" cx="5" cy="46" fill="#3023AE"/>
    <circle r="4" cx="205" cy="24.657649957658077" fill="#C86DD7" opacity="0">
        <animate attributeName="opacity"
            from="0" to="1" dur="0.1s" begin="2.2s" fill="freeze"/>
    </circle>
</svg>