<svg width="200" height="50" viewBox="0 0 210 50" xmlns="http://www.w3.org/2000/svg">
    <!-- 186 stargazers -->
    <!-- created at Tue Apr 14 2026 18:05:22 GMT+0000 (Coordinated Universal Time) -->
    <defs>
        <linearGradient id="stroke" x1="0%" y1="0%" x2="100%" y2="0%">
            <stop stop-color="#3023AE" offset="0%"/>
            <stop stop-color="#C86DD7" offset="100%"/>
        </linearGradient>
    </defs>
    <path stroke="url(#stroke)"
        stroke-width="3"
        stroke-linejoin="round"
        stroke-linecap="round"
        d="M5.00 46.0001 C 5.90 44.80, 8.73 40.18, 10.00 39.38 S 13.55 39.32, 15.00 39.71 S 18.51 42.22, 20.00 42.08 S 23.50 38.81, 25.00 38.73 S 28.79 40.66, 30.00 41.55 S 33.63 45.39, 35.00 46.00 S 38.50 46.00, 40.00 46.00 S 43.50 46.00, 45.00 46.00 S 49.31 47.33, 50.00 46.00 S 54.30 28.05, 55.00 26.73 S 58.59 26.40, 60.00 26.89 S 63.50 30.15, 65.00 30.26 S 68.50 27.56, 70.00 27.60 S 73.50 30.53, 75.00 30.54 S 78.53 27.34, 80.00 27.65 S 83.67 33.39, 85.00 32.69 S 88.58 21.89, 90.00 22.37 S 93.58 35.64, 95.00 36.13 S 99.04 26.96, 100.00 25.81 S 103.67 23.42, 105.00 24.12 S 108.57 30.65, 110.00 31.11 S 113.54 27.76, 115.00 27.41 S 118.66 28.04, 120.00 28.70 S 124.07 33.53, 125.00 32.35 S 128.82 16.93, 130.00 16.00 S 134.01 23.29, 135.00 24.42 S 138.92 26.42, 140.00 27.46 S 143.52 33.88, 145.00 34.09 S 148.80 29.79, 150.00 28.89 S 154.24 25.29, 155.00 26.58 S 158.54 46.36, 160.00 46.00 S 164.08 25.30, 165.00 24.11 S 168.71 32.42, 170.00 33.19 S 173.58 29.60, 175.00 30.10 S 178.89 37.70, 180.00 36.70 S 183.93 22.13, 185.00 21.08 S 188.84 25.98, 190.00 26.93 S 193.53 28.97, 195.00 29.28 S 198.55 28.69, 200.00 29.08 S 203.71 31.27, 205.00 32.03"
        fill="none">
        <animate attributeName="stroke-dashoffset"
            from="344.02848723696513" to="0" dur="2.2s"/>
        <animate attributeName="stroke-dasharray"
            from="344.02848723696513" to="344.02848723696513"/>
    </path>
    <circle r="4" cx="5" cy="46" fill="#3023AE"/>
    <circle r="4" cx="205" cy="32.0281522032456" fill="#C86DD7" opacity="0">
        <animate attributeName="opacity"
            from="0" to="1" dur="0.1s" begin="2.2s" fill="freeze"/>
    </circle>
</svg>