<svg width="200" height="50" viewBox="0 0 210 50" xmlns="http://www.w3.org/2000/svg">
    <!-- 191 stargazers -->
    <!-- created at Wed May 06 2026 06:27:50 GMT+0000 (Coordinated Universal Time) -->
    <defs>
        <linearGradient id="stroke" x1="0%" y1="0%" x2="100%" y2="0%">
            <stop stop-color="#3023AE" offset="0%"/>
            <stop stop-color="#C86DD7" offset="100%"/>
        </linearGradient>
    </defs>
    <path stroke="url(#stroke)"
        stroke-width="3"
        stroke-linejoin="round"
        stroke-linecap="round"
        d="M5.00 46.0001 C 5.86 44.77, 8.76 39.73, 10.00 38.89 S 13.56 38.82, 15.00 39.24 S 18.51 41.94, 20.00 41.78 S 23.50 38.27, 25.00 38.18 S 28.82 40.29, 30.00 41.21 S 33.65 45.35, 35.00 46.00 S 38.50 46.00, 40.00 46.00 S 43.50 46.00, 45.00 46.00 S 49.41 47.38, 50.00 46.00 S 54.39 24.20, 55.00 22.83 S 58.73 22.87, 60.00 23.67 S 63.65 28.42, 65.00 29.07 S 68.54 28.88, 70.00 28.55 S 73.68 26.09, 75.00 26.80 S 78.54 34.25, 80.00 33.92 S 83.87 25.51, 85.00 24.53 S 88.86 24.29, 90.00 25.26 S 93.71 33.76, 95.00 33.00 S 98.73 20.20, 100.00 19.41 S 103.77 25.94, 105.00 26.79 S 108.56 25.98, 110.00 26.40 S 113.51 29.53, 115.00 29.68 S 119.03 28.54, 120.00 27.40 S 123.79 18.79, 125.00 17.91 S 128.75 19.31, 130.00 20.14 S 134.10 23.32, 135.00 24.52 S 138.58 32.92, 140.00 33.39 S 143.83 28.82, 145.00 27.89 S 148.87 24.44, 150.00 25.43 S 153.52 36.42, 155.00 36.66 S 158.62 27.64, 160.00 27.06 S 163.50 32.49, 165.00 32.41 S 168.50 26.58, 170.00 26.52 S 173.97 33.13, 175.00 32.04 S 179.13 14.78, 180.00 16.00 S 183.91 44.97, 185.00 46.00 S 189.27 26.80, 190.00 25.49 S 193.50 28.10, 195.00 28.02 S 198.50 25.06, 200.00 25.00 S 203.67 26.91, 205.00 27.60"
        fill="none">
        <animate attributeName="stroke-dashoffset"
            from="356.6033086700704" to="0" dur="2.2s"/>
        <animate attributeName="stroke-dasharray"
            from="356.6033086700704" to="356.6033086700704"/>
    </path>
    <circle r="4" cx="5" cy="46" fill="#3023AE"/>
    <circle r="4" cx="205" cy="27.601076187967028" fill="#C86DD7" opacity="0">
        <animate attributeName="opacity"
            from="0" to="1" dur="0.1s" begin="2.2s" fill="freeze"/>
    </circle>
</svg>