<svg width="200" height="50" viewBox="0 0 210 50" xmlns="http://www.w3.org/2000/svg">
    <!-- 182 stargazers -->
    <!-- created at Fri Mar 27 2026 14:08:52 GMT+0000 (Coordinated Universal Time) -->
    <defs>
        <linearGradient id="stroke" x1="0%" y1="0%" x2="100%" y2="0%">
            <stop stop-color="#3023AE" offset="0%"/>
            <stop stop-color="#C86DD7" offset="100%"/>
        </linearGradient>
    </defs>
    <path stroke="url(#stroke)"
        stroke-width="3"
        stroke-linejoin="round"
        stroke-linecap="round"
        d="M5.00 46.0001 C 5.89 44.79, 8.74 40.06, 10.00 39.25 S 13.55 39.19, 15.00 39.59 S 18.51 42.15, 20.00 42.00 S 23.50 38.66, 25.00 38.58 S 28.80 40.56, 30.00 41.45 S 33.63 45.38, 35.00 46.00 S 38.50 46.00, 40.00 46.00 S 43.50 46.00, 45.00 46.00 S 49.24 47.29, 50.00 46.00 S 54.32 30.30, 55.00 28.97 S 58.51 26.68, 60.00 26.51 S 63.62 27.21, 65.00 27.79 S 68.51 30.84, 70.00 30.67 S 73.58 27.16, 75.00 26.68 S 78.92 26.24, 80.00 27.28 S 83.51 36.54, 85.00 36.40 S 88.97 27.41, 90.00 26.32 S 93.77 24.99, 95.00 25.85 S 98.58 33.87, 100.00 33.39 S 103.71 23.24, 105.00 22.47 S 108.73 26.61, 110.00 27.40 S 113.51 28.54, 115.00 28.68 S 118.60 28.90, 120.00 28.35 S 123.58 24.24, 125.00 24.73 S 128.87 32.82, 130.00 31.83 S 133.64 16.64, 135.00 16.00 S 138.98 25.99, 140.00 27.09 S 143.75 25.96, 145.00 26.78 S 148.52 33.44, 150.00 33.66 S 153.81 29.20, 155.00 28.28 S 159.26 24.59, 160.00 25.90 S 163.55 46.37, 165.00 46.00 S 168.91 24.39, 170.00 23.36 S 173.73 35.84, 175.00 36.63 S 178.62 30.15, 180.00 29.56 S 183.68 33.11, 185.00 32.41 S 188.97 25.33, 190.00 24.24 S 194.37 20.52, 195.00 21.88 S 198.61 45.45, 200.00 46.00 S 204.64 27.30, 205.00 25.84"
        fill="none">
        <animate attributeName="stroke-dashoffset"
            from="372.5950670645464" to="0" dur="2.2s"/>
        <animate attributeName="stroke-dasharray"
            from="372.5950670645464" to="372.5950670645464"/>
    </path>
    <circle r="4" cx="5" cy="46" fill="#3023AE"/>
    <circle r="4" cx="205" cy="25.840291614842677" fill="#C86DD7" opacity="0">
        <animate attributeName="opacity"
            from="0" to="1" dur="0.1s" begin="2.2s" fill="freeze"/>
    </circle>
</svg>