<svg width="200" height="50" viewBox="0 0 210 50" xmlns="http://www.w3.org/2000/svg">
    <!-- 188 stargazers -->
    <!-- created at Fri Apr 17 2026 21:25:50 GMT+0000 (Coordinated Universal Time) -->
    <defs>
        <linearGradient id="stroke" x1="0%" y1="0%" x2="100%" y2="0%">
            <stop stop-color="#3023AE" offset="0%"/>
            <stop stop-color="#C86DD7" offset="100%"/>
        </linearGradient>
    </defs>
    <path stroke="url(#stroke)"
        stroke-width="3"
        stroke-linejoin="round"
        stroke-linecap="round"
        d="M5.00 46.0001 C 5.88 44.79, 8.74 39.95, 10.00 39.13 S 13.56 39.07, 15.00 39.48 S 18.51 42.08, 20.00 41.93 S 23.50 38.54, 25.00 38.45 S 28.80 40.47, 30.00 41.38 S 33.64 45.37, 35.00 46.00 S 38.50 46.00, 40.00 46.00 S 43.50 46.00, 45.00 46.00 S 49.35 47.35, 50.00 46.00 S 54.30 26.51, 55.00 25.18 S 58.54 26.76, 60.00 27.10 S 63.53 27.17, 65.00 27.48 S 68.51 28.98, 70.00 29.16 S 73.51 28.81, 75.00 28.67 S 78.59 27.69, 80.00 28.19 S 83.75 33.02, 85.00 32.19 S 88.59 20.98, 90.00 21.48 S 93.51 35.59, 95.00 35.75 S 98.93 23.62, 100.00 22.57 S 103.72 25.19, 105.00 25.98 S 108.54 28.38, 110.00 28.73 S 113.61 28.94, 115.00 28.39 S 118.58 24.27, 120.00 24.76 S 123.87 32.83, 125.00 31.84 S 128.75 16.82, 130.00 16.00 S 133.98 24.17, 135.00 25.27 S 138.69 26.03, 140.00 26.76 S 143.60 30.32, 145.00 30.86 S 148.66 31.30, 150.00 30.62 S 153.73 25.06, 155.00 25.85 S 158.50 36.95, 160.00 36.86 S 163.61 25.84, 165.00 25.27 S 168.52 32.46, 170.00 32.71 S 173.50 27.00, 175.00 26.95 S 178.56 32.76, 180.00 32.35 S 183.72 24.93, 185.00 24.14 S 188.52 25.94, 190.00 26.21 S 193.68 25.25, 195.00 25.97 S 198.50 31.74, 200.00 31.67 S 204.06 26.66, 205.00 25.49"
        fill="none">
        <animate attributeName="stroke-dashoffset"
            from="319.5902468055838" to="0" dur="2.2s"/>
        <animate attributeName="stroke-dasharray"
            from="319.5902468055838" to="319.5902468055838"/>
    </path>
    <circle r="4" cx="5" cy="46" fill="#3023AE"/>
    <circle r="4" cx="205" cy="25.494933339143852" fill="#C86DD7" opacity="0">
        <animate attributeName="opacity"
            from="0" to="1" dur="0.1s" begin="2.2s" fill="freeze"/>
    </circle>
</svg>