<svg width="200" height="50" viewBox="0 0 210 50" xmlns="http://www.w3.org/2000/svg">
    <!-- 189 stargazers -->
    <!-- created at Mon Apr 20 2026 21:48:01 GMT+0000 (Coordinated Universal Time) -->
    <defs>
        <linearGradient id="stroke" x1="0%" y1="0%" x2="100%" y2="0%">
            <stop stop-color="#3023AE" offset="0%"/>
            <stop stop-color="#C86DD7" offset="100%"/>
        </linearGradient>
    </defs>
    <path stroke="url(#stroke)"
        stroke-width="3"
        stroke-linejoin="round"
        stroke-linecap="round"
        d="M5.00 46.0001 C 5.88 44.79, 8.74 39.95, 10.00 39.13 S 13.56 39.07, 15.00 39.48 S 18.51 42.08, 20.00 41.93 S 23.50 38.54, 25.00 38.45 S 28.80 40.47, 30.00 41.38 S 33.64 45.37, 35.00 46.00 S 38.50 46.00, 40.00 46.00 S 43.50 46.00, 45.00 46.00 S 49.35 47.35, 50.00 46.00 S 54.32 26.52, 55.00 25.18 S 58.54 25.84, 60.00 26.17 S 63.62 26.89, 65.00 27.48 S 68.50 30.41, 70.00 30.41 S 73.51 27.61, 75.00 27.47 S 78.64 28.87, 80.00 29.51 S 83.83 33.13, 85.00 32.19 S 88.59 20.98, 90.00 21.48 S 93.51 35.59, 95.00 35.75 S 98.93 23.62, 100.00 22.57 S 103.63 25.36, 105.00 25.98 S 108.62 26.49, 110.00 27.08 S 113.54 30.58, 115.00 30.25 S 118.50 24.85, 120.00 24.76 S 123.87 30.64, 125.00 29.65 S 128.63 16.60, 130.00 16.00 S 134.08 24.09, 135.00 25.27 S 138.57 28.33, 140.00 28.79 S 143.52 28.25, 145.00 28.52 S 148.50 30.71, 150.00 30.62 S 153.73 27.19, 155.00 27.98 S 158.55 37.25, 160.00 36.86 S 163.61 25.84, 165.00 25.27 S 168.52 32.46, 170.00 32.71 S 173.50 27.00, 175.00 26.95 S 178.95 33.43, 180.00 32.35 S 184.11 15.47, 185.00 16.68 S 188.90 44.98, 190.00 46.00 S 194.14 27.20, 195.00 25.97 S 198.56 32.08, 200.00 31.67 S 204.25 24.37, 205.00 23.07"
        fill="none">
        <animate attributeName="stroke-dashoffset"
            from="364.3241213206809" to="0" dur="2.2s"/>
        <animate attributeName="stroke-dasharray"
            from="364.3241213206809" to="364.3241213206809"/>
    </path>
    <circle r="4" cx="5" cy="46" fill="#3023AE"/>
    <circle r="4" cx="205" cy="23.074638531581222" fill="#C86DD7" opacity="0">
        <animate attributeName="opacity"
            from="0" to="1" dur="0.1s" begin="2.2s" fill="freeze"/>
    </circle>
</svg>