<svg width="200" height="50" viewBox="0 0 210 50" xmlns="http://www.w3.org/2000/svg">
    <!-- 191 stargazers -->
    <!-- created at Sun Apr 26 2026 23:23:50 GMT+0000 (Coordinated Universal Time) -->
    <defs>
        <linearGradient id="stroke" x1="0%" y1="0%" x2="100%" y2="0%">
            <stop stop-color="#3023AE" offset="0%"/>
            <stop stop-color="#C86DD7" offset="100%"/>
        </linearGradient>
    </defs>
    <path stroke="url(#stroke)"
        stroke-width="3"
        stroke-linejoin="round"
        stroke-linecap="round"
        d="M5.00 46.0001 C 5.90 44.80, 8.73 40.18, 10.00 39.38 S 13.55 39.32, 15.00 39.71 S 18.51 42.22, 20.00 42.08 S 23.50 38.81, 25.00 38.73 S 28.79 40.66, 30.00 41.55 S 33.63 45.39, 35.00 46.00 S 38.50 46.00, 40.00 46.00 S 43.50 46.00, 45.00 46.00 S 49.35 47.35, 50.00 46.00 S 54.35 26.53, 55.00 25.18 S 58.66 24.55, 60.00 25.23 S 63.70 29.51, 65.00 30.26 S 68.53 31.28, 70.00 30.97 S 73.50 28.07, 75.00 28.15 S 78.50 31.46, 80.00 31.50 S 83.77 29.26, 85.00 28.39 S 88.69 23.71, 90.00 24.43 S 93.50 33.89, 95.00 33.91 S 98.78 25.46, 100.00 24.58 S 103.65 26.06, 105.00 26.71 S 108.54 29.02, 110.00 29.36 S 113.60 29.56, 115.00 29.03 S 118.50 25.63, 120.00 25.53 S 123.91 29.42, 125.00 28.38 S 128.51 15.81, 130.00 16.00 S 134.19 28.43, 135.00 29.69 S 138.62 32.24, 140.00 31.64 S 143.55 25.77, 145.00 25.37 S 149.04 27.74, 150.00 28.89 S 153.64 36.68, 155.00 37.32 S 158.90 34.56, 160.00 33.54 S 163.69 28.87, 165.00 28.13 S 168.65 27.22, 170.00 27.88 S 173.64 33.65, 175.00 33.02 S 178.83 24.16, 180.00 23.22 S 184.10 23.74, 185.00 24.94 S 188.50 36.54, 190.00 36.46 S 193.62 25.01, 195.00 24.42 S 198.50 32.26, 200.00 32.19 S 204.22 25.19, 205.00 23.91"
        fill="none">
        <animate attributeName="stroke-dashoffset"
            from="313.73249185109427" to="0" dur="2.2s"/>
        <animate attributeName="stroke-dasharray"
            from="313.73249185109427" to="313.73249185109427"/>
    </path>
    <circle r="4" cx="5" cy="46" fill="#3023AE"/>
    <circle r="4" cx="205" cy="23.908568920524928" fill="#C86DD7" opacity="0">
        <animate attributeName="opacity"
            from="0" to="1" dur="0.1s" begin="2.2s" fill="freeze"/>
    </circle>
</svg>