<svg width="200" height="50" viewBox="0 0 210 50" xmlns="http://www.w3.org/2000/svg">
    <!-- 185 stargazers -->
    <!-- created at Wed Apr 08 2026 16:52:28 GMT+0000 (Coordinated Universal Time) -->
    <defs>
        <linearGradient id="stroke" x1="0%" y1="0%" x2="100%" y2="0%">
            <stop stop-color="#3023AE" offset="0%"/>
            <stop stop-color="#C86DD7" offset="100%"/>
        </linearGradient>
    </defs>
    <path stroke="url(#stroke)"
        stroke-width="3"
        stroke-linejoin="round"
        stroke-linecap="round"
        d="M5.00 46.0001 C 5.84 44.76, 8.77 39.50, 10.00 38.64 S 13.56 38.58, 15.00 39.01 S 18.51 41.80, 20.00 41.64 S 23.50 38.00, 25.00 37.91 S 28.83 40.10, 30.00 41.05 S 33.66 45.33, 35.00 46.00 S 38.50 46.00, 40.00 46.00 S 43.50 46.00, 45.00 46.00 S 49.34 47.35, 50.00 46.00 S 54.36 26.83, 55.00 25.47 S 58.52 24.48, 60.00 24.75 S 63.63 26.66, 65.00 27.28 S 68.54 29.63, 70.00 29.29 S 73.59 25.46, 75.00 24.94 S 78.73 24.80, 80.00 25.60 S 83.54 31.54, 85.00 31.20 S 88.50 23.35, 90.00 23.24 S 93.58 30.00, 95.00 30.47 S 99.07 27.73, 100.00 26.55 S 103.66 17.22, 105.00 17.90 S 108.70 30.91, 110.00 31.66 S 113.50 23.75, 115.00 23.66 S 118.55 30.70, 120.00 31.10 S 124.03 27.55, 125.00 26.41 S 128.89 20.26, 130.00 19.25 S 133.72 16.53, 135.00 17.32 S 139.18 24.12, 140.00 25.38 S 143.55 33.14, 145.00 32.75 S 148.72 23.47, 150.00 22.70 S 154.11 25.48, 155.00 26.69 S 158.67 35.50, 160.00 36.20 S 163.96 33.02, 165.00 31.95 S 168.50 25.91, 170.00 25.85 S 173.50 31.64, 175.00 31.56 S 178.59 25.83, 180.00 25.31 S 183.90 28.88, 185.00 27.85 S 189.28 14.69, 190.00 16.00 S 193.84 45.04, 195.00 46.00 S 199.30 25.60, 200.00 24.27 S 203.68 26.26, 205.00 26.97"
        fill="none">
        <animate attributeName="stroke-dashoffset"
            from="358.74514709822745" to="0" dur="2.2s"/>
        <animate attributeName="stroke-dasharray"
            from="358.74514709822745" to="358.74514709822745"/>
    </path>
    <circle r="4" cx="5" cy="46" fill="#3023AE"/>
    <circle r="4" cx="205" cy="26.967632717048584" fill="#C86DD7" opacity="0">
        <animate attributeName="opacity"
            from="0" to="1" dur="0.1s" begin="2.2s" fill="freeze"/>
    </circle>
</svg>