<svg width="200" height="50" viewBox="0 0 210 50" xmlns="http://www.w3.org/2000/svg">
    <!-- 178 stargazers -->
    <!-- created at Thu Mar 12 2026 10:09:44 GMT+0000 (Coordinated Universal Time) -->
    <defs>
        <linearGradient id="stroke" x1="0%" y1="0%" x2="100%" y2="0%">
            <stop stop-color="#3023AE" offset="0%"/>
            <stop stop-color="#C86DD7" offset="100%"/>
        </linearGradient>
    </defs>
    <path stroke="url(#stroke)"
        stroke-width="3"
        stroke-linejoin="round"
        stroke-linecap="round"
        d="M5.00 46.0001 C 5.88 44.78, 8.75 39.91, 10.00 39.09 S 13.56 39.03, 15.00 39.43 S 18.50 41.85, 20.00 41.90 S 23.54 40.16, 25.00 39.80 S 28.73 38.63, 30.00 39.42 S 33.75 45.18, 35.00 46.00 S 38.50 46.00, 40.00 46.00 S 43.50 46.00, 45.00 46.00 S 49.18 47.26, 50.00 46.00 S 54.33 31.96, 55.00 30.62 S 58.62 26.63, 60.00 26.04 S 63.56 25.91, 65.00 26.34 S 68.54 28.72, 70.00 29.05 S 73.50 28.50, 75.00 28.55 S 78.53 29.12, 80.00 29.40 S 83.54 30.11, 85.00 30.45 S 88.92 32.80, 90.00 31.75 S 93.59 20.22, 95.00 20.74 S 98.66 34.77, 100.00 35.45 S 104.13 27.07, 105.00 25.85 S 108.62 20.82, 110.00 21.41 S 113.65 29.49, 115.00 30.14 S 118.81 25.30, 120.00 26.21 S 123.54 38.12, 125.00 37.77 S 129.14 25.07, 130.00 23.84 S 133.82 24.39, 135.00 23.46 S 138.79 15.12, 140.00 16.00 S 144.05 29.60, 145.00 30.76 S 148.56 28.55, 150.00 28.13 S 153.53 27.57, 155.00 27.86 S 158.50 30.14, 160.00 30.06 S 164.20 26.06, 165.00 27.33 S 168.65 46.65, 170.00 46.00 S 174.12 23.72, 175.00 22.51 S 178.92 31.22, 180.00 32.26 S 183.50 32.14, 185.00 32.08 S 188.73 32.71, 190.00 31.91 S 194.08 27.02, 195.00 25.83 S 199.33 17.66, 200.00 19.01 S 204.73 44.53, 205.00 46.00"
        fill="none">
        <animate attributeName="stroke-dashoffset"
            from="360.8033372796021" to="0" dur="2.2s"/>
        <animate attributeName="stroke-dasharray"
            from="360.8033372796021" to="360.8033372796021"/>
    </path>
    <circle r="4" cx="5" cy="46" fill="#3023AE"/>
    <circle r="4" cx="205" cy="46" fill="#C86DD7" opacity="0">
        <animate attributeName="opacity"
            from="0" to="1" dur="0.1s" begin="2.2s" fill="freeze"/>
    </circle>
</svg>