<svg width="200" height="50" viewBox="0 0 210 50" xmlns="http://www.w3.org/2000/svg">
    <!-- 184 stargazers -->
    <!-- created at Thu Apr 02 2026 14:45:59 GMT+0000 (Coordinated Universal Time) -->
    <defs>
        <linearGradient id="stroke" x1="0%" y1="0%" x2="100%" y2="0%">
            <stop stop-color="#3023AE" offset="0%"/>
            <stop stop-color="#C86DD7" offset="100%"/>
        </linearGradient>
    </defs>
    <path stroke="url(#stroke)"
        stroke-width="3"
        stroke-linejoin="round"
        stroke-linecap="round"
        d="M5.00 46.0001 C 5.89 44.79, 8.74 40.06, 10.00 39.25 S 13.55 39.19, 15.00 39.59 S 18.51 42.15, 20.00 42.00 S 23.50 38.66, 25.00 38.58 S 28.80 40.56, 30.00 41.45 S 33.63 45.38, 35.00 46.00 S 38.50 46.00, 40.00 46.00 S 43.50 46.00, 45.00 46.00 S 49.30 47.32, 50.00 46.00 S 54.29 28.49, 55.00 27.17 S 58.50 27.32, 60.00 27.41 S 63.57 27.32, 65.00 27.79 S 68.50 30.67, 70.00 30.67 S 73.58 28.26, 75.00 27.78 S 78.86 26.30, 80.00 27.28 S 83.57 36.87, 85.00 36.40 S 88.82 24.92, 90.00 24.00 S 93.91 27.53, 95.00 28.55 S 98.85 34.35, 100.00 33.39 S 103.63 20.83, 105.00 20.23 S 108.85 28.05, 110.00 29.02 S 113.51 28.50, 115.00 28.68 S 118.60 30.77, 120.00 30.21 S 123.62 25.32, 125.00 24.73 S 128.87 26.95, 130.00 25.96 S 133.68 15.29, 135.00 16.00 S 139.08 30.17, 140.00 31.35 S 143.65 29.47, 145.00 28.81 S 148.64 25.85, 150.00 26.48 S 153.52 33.24, 155.00 33.47 S 158.58 27.54, 160.00 28.02 S 163.55 37.27, 165.00 36.88 S 168.61 25.91, 170.00 25.33 S 173.52 32.50, 175.00 32.75 S 178.50 27.07, 180.00 27.02 S 183.55 32.81, 185.00 32.41 S 188.72 25.03, 190.00 24.24 S 193.52 26.03, 195.00 26.30 S 198.68 25.35, 200.00 26.07 S 204.01 30.62, 205.00 31.74"
        fill="none">
        <animate attributeName="stroke-dashoffset"
            from="317.8462242168559" to="0" dur="2.2s"/>
        <animate attributeName="stroke-dasharray"
            from="317.8462242168559" to="317.8462242168559"/>
    </path>
    <circle r="4" cx="5" cy="46" fill="#3023AE"/>
    <circle r="4" cx="205" cy="31.744933494111677" fill="#C86DD7" opacity="0">
        <animate attributeName="opacity"
            from="0" to="1" dur="0.1s" begin="2.2s" fill="freeze"/>
    </circle>
</svg>