<svg width="200" height="50" viewBox="0 0 210 50" xmlns="http://www.w3.org/2000/svg">
    <!-- 190 stargazers -->
    <!-- created at Mon May 18 2026 11:46:01 GMT+0000 (Coordinated Universal Time) -->
    <defs>
        <linearGradient id="stroke" x1="0%" y1="0%" x2="100%" y2="0%">
            <stop stop-color="#3023AE" offset="0%"/>
            <stop stop-color="#C86DD7" offset="100%"/>
        </linearGradient>
    </defs>
    <path stroke="url(#stroke)"
        stroke-width="3"
        stroke-linejoin="round"
        stroke-linecap="round"
        d="M5.00 46.0001 C 5.91 44.81, 8.72 40.28, 10.00 39.49 S 13.55 39.44, 15.00 39.82 S 18.51 42.29, 20.00 42.14 S 23.50 38.93, 25.00 38.85 S 28.78 40.75, 30.00 41.62 S 33.63 45.40, 35.00 46.00 S 38.50 46.00, 40.00 46.00 S 43.89 47.01, 45.00 46.00 S 49.32 38.21, 50.00 36.87 S 53.97 27.36, 55.00 26.27 S 58.62 25.79, 60.00 26.38 S 63.52 30.29, 65.00 30.52 S 68.53 28.21, 70.00 27.91 S 73.68 27.74, 75.00 28.44 S 78.53 33.55, 80.00 33.25 S 83.54 26.70, 85.00 26.37 S 88.50 30.97, 90.00 31.01 S 93.78 27.46, 95.00 26.59 S 98.58 23.32, 100.00 23.80 S 103.70 29.21, 105.00 29.97 S 108.59 30.16, 110.00 29.64 S 113.50 26.35, 115.00 26.25 S 118.95 30.07, 120.00 28.99 S 123.58 15.52, 125.00 16.00 S 129.13 31.13, 130.00 32.35 S 133.73 30.76, 135.00 29.96 S 138.52 25.78, 140.00 26.03 S 144.02 30.52, 145.00 31.66 S 148.64 38.23, 150.00 37.59 S 153.60 27.45, 155.00 26.91 S 158.60 33.21, 160.00 33.75 S 163.58 30.31, 165.00 30.78 S 168.87 38.08, 170.00 37.09 S 173.91 23.14, 175.00 22.12 S 178.68 27.00, 180.00 27.71 S 183.88 26.48, 185.00 27.48 S 188.50 36.69, 190.00 36.62 S 193.93 28.07, 195.00 27.02 S 198.90 25.77, 200.00 26.79 S 204.30 34.96, 205.00 36.29"
        fill="none">
        <animate attributeName="stroke-dashoffset"
            from="314.25751879913736" to="0" dur="2.2s"/>
        <animate attributeName="stroke-dasharray"
            from="314.25751879913736" to="314.25751879913736"/>
    </path>
    <circle r="4" cx="5" cy="46" fill="#3023AE"/>
    <circle r="4" cx="205" cy="36.28609885391901" fill="#C86DD7" opacity="0">
        <animate attributeName="opacity"
            from="0" to="1" dur="0.1s" begin="2.2s" fill="freeze"/>
    </circle>
</svg>