<svg width="200" height="50" viewBox="0 0 210 50" xmlns="http://www.w3.org/2000/svg">
    <!-- 184 stargazers -->
    <!-- created at Sun Apr 05 2026 15:51:48 GMT+0000 (Coordinated Universal Time) -->
    <defs>
        <linearGradient id="stroke" x1="0%" y1="0%" x2="100%" y2="0%">
            <stop stop-color="#3023AE" offset="0%"/>
            <stop stop-color="#C86DD7" offset="100%"/>
        </linearGradient>
    </defs>
    <path stroke="url(#stroke)"
        stroke-width="3"
        stroke-linejoin="round"
        stroke-linecap="round"
        d="M5.00 46.0001 C 5.87 44.78, 8.75 39.81, 10.00 38.97 S 13.56 38.91, 15.00 39.32 S 18.51 41.99, 20.00 41.83 S 23.50 38.36, 25.00 38.28 S 28.81 40.35, 30.00 41.27 S 33.64 45.36, 35.00 46.00 S 38.50 46.00, 40.00 46.00 S 43.50 46.00, 45.00 46.00 S 49.32 47.34, 50.00 46.00 S 54.31 27.74, 55.00 26.40 S 58.50 26.56, 60.00 26.66 S 63.58 26.56, 65.00 27.04 S 68.50 30.04, 70.00 30.04 S 73.59 27.54, 75.00 27.04 S 78.65 25.87, 80.00 26.52 S 83.51 32.01, 85.00 31.87 S 88.61 26.08, 90.00 25.52 S 93.59 27.34, 95.00 27.84 S 98.87 30.03, 100.00 29.05 S 103.51 19.00, 105.00 19.17 S 108.98 29.10, 110.00 30.19 S 113.50 29.97, 115.00 29.88 S 118.71 30.34, 120.00 29.57 S 123.72 24.65, 125.00 23.87 S 128.82 24.40, 130.00 23.47 S 133.65 15.34, 135.00 16.00 S 139.15 27.16, 140.00 28.39 S 143.64 31.14, 145.00 30.51 S 148.54 23.39, 150.00 23.75 S 153.72 32.18, 155.00 32.96 S 158.50 29.85, 160.00 29.80 S 163.56 33.02, 165.00 32.58 S 168.50 26.82, 170.00 26.76 S 173.50 32.29, 175.00 32.21 S 178.50 26.30, 180.00 26.25 S 183.77 32.72, 185.00 31.85 S 188.50 19.26, 190.00 19.21 S 193.72 30.73, 195.00 31.50 S 198.50 25.31, 200.00 25.26 S 204.03 30.02, 205.00 31.16"
        fill="none">
        <animate attributeName="stroke-dashoffset"
            from="308.94182014847536" to="0" dur="2.2s"/>
        <animate attributeName="stroke-dasharray"
            from="308.94182014847536" to="308.94182014847536"/>
    </path>
    <circle r="4" cx="5" cy="46" fill="#3023AE"/>
    <circle r="4" cx="205" cy="31.16285636728312" fill="#C86DD7" opacity="0">
        <animate attributeName="opacity"
            from="0" to="1" dur="0.1s" begin="2.2s" fill="freeze"/>
    </circle>
</svg>