<svg width="200" height="50" viewBox="0 0 210 50" xmlns="http://www.w3.org/2000/svg">
    <!-- 190 stargazers -->
    <!-- created at Thu Apr 23 2026 22:01:22 GMT+0000 (Coordinated Universal Time) -->
    <defs>
        <linearGradient id="stroke" x1="0%" y1="0%" x2="100%" y2="0%">
            <stop stop-color="#3023AE" offset="0%"/>
            <stop stop-color="#C86DD7" offset="100%"/>
        </linearGradient>
    </defs>
    <path stroke="url(#stroke)"
        stroke-width="3"
        stroke-linejoin="round"
        stroke-linecap="round"
        d="M5.00 46.0001 C 5.90 44.80, 8.73 40.18, 10.00 39.38 S 13.55 39.32, 15.00 39.71 S 18.51 42.22, 20.00 42.08 S 23.50 38.81, 25.00 38.73 S 28.79 40.66, 30.00 41.55 S 33.63 45.39, 35.00 46.00 S 38.50 46.00, 40.00 46.00 S 43.50 46.00, 45.00 46.00 S 49.35 47.35, 50.00 46.00 S 54.33 26.52, 55.00 25.18 S 58.61 25.49, 60.00 26.05 S 63.65 28.51, 65.00 29.17 S 68.51 31.13, 70.00 30.97 S 73.50 28.07, 75.00 28.15 S 78.52 31.27, 80.00 31.50 S 83.84 30.64, 85.00 29.70 S 88.74 22.57, 90.00 23.38 S 93.50 36.12, 95.00 36.13 S 98.91 24.45, 100.00 23.43 S 103.71 25.94, 105.00 26.71 S 108.54 29.02, 110.00 29.36 S 113.60 29.56, 115.00 29.03 S 118.50 25.63, 120.00 25.53 S 123.91 29.42, 125.00 28.38 S 128.58 15.51, 130.00 16.00 S 134.10 30.67, 135.00 31.87 S 138.64 30.06, 140.00 29.42 S 143.63 26.55, 145.00 27.17 S 148.52 33.68, 150.00 33.90 S 153.50 28.69, 155.00 28.63 S 158.50 33.62, 160.00 33.54 S 163.50 28.18, 165.00 28.13 S 168.50 33.26, 170.00 33.19 S 173.58 28.11, 175.00 27.64 S 178.84 30.85, 180.00 29.89 S 184.21 18.08, 185.00 19.36 S 188.66 45.32, 190.00 46.00 S 194.12 25.63, 195.00 24.42 S 198.50 32.26, 200.00 32.19 S 204.22 25.19, 205.00 23.91"
        fill="none">
        <animate attributeName="stroke-dashoffset"
            from="348.15665563772615" to="0" dur="2.2s"/>
        <animate attributeName="stroke-dasharray"
            from="348.15665563772615" to="348.15665563772615"/>
    </path>
    <circle r="4" cx="5" cy="46" fill="#3023AE"/>
    <circle r="4" cx="205" cy="23.908568920523923" fill="#C86DD7" opacity="0">
        <animate attributeName="opacity"
            from="0" to="1" dur="0.1s" begin="2.2s" fill="freeze"/>
    </circle>
</svg>