<svg width="200" height="50" viewBox="0 0 210 50" xmlns="http://www.w3.org/2000/svg">
    <!-- 178 stargazers -->
    <!-- created at Mon Mar 09 2026 09:57:46 GMT+0000 (Coordinated Universal Time) -->
    <defs>
        <linearGradient id="stroke" x1="0%" y1="0%" x2="100%" y2="0%">
            <stop stop-color="#3023AE" offset="0%"/>
            <stop stop-color="#C86DD7" offset="100%"/>
        </linearGradient>
    </defs>
    <path stroke="url(#stroke)"
        stroke-width="3"
        stroke-linejoin="round"
        stroke-linecap="round"
        d="M5.00 46.0001 C 5.92 44.82, 8.72 40.38, 10.00 39.60 S 13.55 39.54, 15.00 39.92 S 18.50 42.15, 20.00 42.20 S 23.54 40.59, 25.00 40.26 S 28.70 39.16, 30.00 39.91 S 33.72 45.22, 35.00 46.00 S 38.50 46.00, 40.00 46.00 S 43.50 46.00, 45.00 46.00 S 49.14 47.23, 50.00 46.00 S 54.26 33.07, 55.00 31.76 S 58.65 29.04, 60.00 28.38 S 63.53 26.63, 65.00 26.91 S 68.56 29.88, 70.00 30.30 S 73.50 29.80, 75.00 29.85 S 78.52 30.37, 80.00 30.63 S 83.53 31.29, 85.00 31.61 S 88.88 33.81, 90.00 32.81 S 93.73 21.81, 95.00 22.61 S 98.64 38.45, 100.00 39.10 S 104.24 28.63, 105.00 27.34 S 108.71 21.36, 110.00 22.13 S 113.88 32.29, 115.00 33.28 S 118.55 31.40, 120.00 31.04 S 123.69 31.49, 125.00 30.76 S 128.54 25.83, 130.00 25.48 S 133.91 29.40, 135.00 28.36 S 138.59 15.50, 140.00 16.00 S 144.11 30.69, 145.00 31.89 S 148.50 29.52, 150.00 29.45 S 153.52 31.19, 155.00 31.45 S 158.65 31.89, 160.00 31.24 S 164.16 25.44, 165.00 26.68 S 168.52 45.77, 170.00 46.00 S 174.19 29.51, 175.00 28.24 S 178.65 29.76, 180.00 30.42 S 183.50 33.18, 185.00 33.12 S 188.57 30.49, 190.00 30.03 S 193.89 30.84, 195.00 29.83 S 198.75 20.18, 200.00 21.01 S 204.54 35.02, 205.00 36.45"
        fill="none">
        <animate attributeName="stroke-dashoffset"
            from="333.69986943903615" to="0" dur="2.2s"/>
        <animate attributeName="stroke-dasharray"
            from="333.69986943903615" to="333.69986943903615"/>
    </path>
    <circle r="4" cx="5" cy="46" fill="#3023AE"/>
    <circle r="4" cx="205" cy="36.44507219977824" fill="#C86DD7" opacity="0">
        <animate attributeName="opacity"
            from="0" to="1" dur="0.1s" begin="2.2s" fill="freeze"/>
    </circle>
</svg>