<svg width="200" height="50" viewBox="0 0 210 50" xmlns="http://www.w3.org/2000/svg">
    <!-- 144 stargazers -->
    <!-- created at Sun Apr 19 2026 03:06:50 GMT+0000 (Coordinated Universal Time) -->
    <defs>
        <linearGradient id="stroke" x1="0%" y1="0%" x2="100%" y2="0%">
            <stop stop-color="#3023AE" offset="0%"/>
            <stop stop-color="#C86DD7" offset="100%"/>
        </linearGradient>
    </defs>
    <path stroke="url(#stroke)"
        stroke-width="3"
        stroke-linejoin="round"
        stroke-linecap="round"
        d="M5.00 46.0001 C 5.95 44.84, 9.22 41.19, 10.00 39.91 S 13.68 30.35, 15.00 29.64 S 18.77 33.73, 20.00 34.58 S 23.50 36.57, 25.00 36.54 S 28.69 35.13, 30.00 34.41 S 33.74 31.85, 35.00 31.03 S 38.52 27.63, 40.00 27.86 S 43.72 31.83, 45.00 32.60 S 48.62 34.52, 50.00 33.92 S 53.56 28.69, 55.00 28.27 S 58.54 30.68, 60.00 31.01 S 63.72 31.30, 65.00 30.52 S 68.64 25.52, 70.00 24.89 S 73.62 25.30, 75.00 25.88 S 78.66 28.44, 80.00 29.12 S 83.51 31.13, 85.00 31.00 S 88.68 28.96, 90.00 28.26 S 93.64 25.06, 95.00 25.69 S 98.92 33.91, 100.00 32.87 S 103.86 16.97, 105.00 16.00 S 108.53 24.04, 110.00 24.35 S 113.56 18.50, 115.00 18.07 S 118.51 21.51, 120.00 21.35 S 123.93 15.96, 125.00 17.01 S 129.13 30.03, 130.00 31.25 S 133.50 31.07, 135.00 31.00 S 138.61 31.30, 140.00 30.75 S 144.18 25.77, 145.00 27.02 S 148.56 45.57, 150.00 46.00 S 154.01 31.16, 155.00 30.03 S 159.20 33.27, 160.00 34.54 S 164.01 44.87, 165.00 46.00 S 169.04 47.15, 170.00 46.00 S 173.50 34.06, 175.00 34.06 S 179.04 44.85, 180.00 46.00 S 183.50 46.00, 185.00 46.00 S 189.26 47.31, 190.00 46.00 S 193.50 28.24, 195.00 28.24 S 199.26 44.69, 200.00 46.00 S 203.50 46.00, 205.00 46.00"
        fill="none">
        <animate attributeName="stroke-dashoffset"
            from="347.3280704043442" to="0" dur="2.2s"/>
        <animate attributeName="stroke-dasharray"
            from="347.3280704043442" to="347.3280704043442"/>
    </path>
    <circle r="4" cx="5" cy="46" fill="#3023AE"/>
    <circle r="4" cx="205" cy="46" fill="#C86DD7" opacity="0">
        <animate attributeName="opacity"
            from="0" to="1" dur="0.1s" begin="2.2s" fill="freeze"/>
    </circle>
</svg>