<svg width="200" height="50" viewBox="0 0 210 50" xmlns="http://www.w3.org/2000/svg">
    <!-- 144 stargazers -->
    <!-- created at Thu Mar 19 2026 03:42:49 GMT+0000 (Coordinated Universal Time) -->
    <defs>
        <linearGradient id="stroke" x1="0%" y1="0%" x2="100%" y2="0%">
            <stop stop-color="#3023AE" offset="0%"/>
            <stop stop-color="#C86DD7" offset="100%"/>
        </linearGradient>
    </defs>
    <path stroke="url(#stroke)"
        stroke-width="3"
        stroke-linejoin="round"
        stroke-linecap="round"
        d="M5.00 46.0001 C 5.96 44.84, 9.21 41.23, 10.00 39.95 S 13.61 30.32, 15.00 29.75 S 18.68 35.14, 20.00 35.85 S 23.51 35.35, 25.00 35.15 S 28.61 35.04, 30.00 34.48 S 33.55 31.52, 35.00 31.12 S 38.55 32.15, 40.00 31.75 S 43.54 28.06, 45.00 28.39 S 48.52 33.77, 50.00 34.00 S 53.64 30.55, 55.00 29.92 S 58.50 29.24, 60.00 29.35 S 63.51 30.78, 65.00 30.62 S 68.81 29.18, 70.00 28.27 S 73.71 22.16, 75.00 22.92 S 78.84 33.19, 80.00 34.14 S 83.93 32.15, 85.00 31.10 S 88.57 24.86, 90.00 24.40 S 93.69 27.22, 95.00 27.95 S 98.76 30.87, 100.00 30.02 S 103.57 21.52, 105.00 21.06 S 108.51 26.91, 110.00 26.76 S 113.98 21.14, 115.00 20.04 S 118.85 15.04, 120.00 16.00 S 123.50 28.26, 125.00 28.36 S 128.78 15.82, 130.00 16.68 S 133.98 34.36, 135.00 35.46 S 138.65 28.09, 140.00 27.44 S 143.56 30.18, 145.00 30.60 S 149.18 29.10, 150.00 30.36 S 153.50 46.07, 155.00 46.00 S 159.02 31.03, 160.00 29.89 S 164.21 33.18, 165.00 34.45 S 169.02 44.87, 170.00 46.00 S 174.04 47.15, 175.00 46.00 S 178.50 33.98, 180.00 33.98 S 184.04 44.85, 185.00 46.00 S 188.50 46.00, 190.00 46.00 S 194.27 47.31, 195.00 46.00 S 198.50 28.15, 200.00 28.15 S 204.60 44.56, 205.00 46.00"
        fill="none">
        <animate attributeName="stroke-dashoffset"
            from="365.25531932176364" to="0" dur="2.2s"/>
        <animate attributeName="stroke-dasharray"
            from="365.25531932176364" to="365.25531932176364"/>
    </path>
    <circle r="4" cx="5" cy="46" fill="#3023AE"/>
    <circle r="4" cx="205" cy="46" fill="#C86DD7" opacity="0">
        <animate attributeName="opacity"
            from="0" to="1" dur="0.1s" begin="2.2s" fill="freeze"/>
    </circle>
</svg>