<svg width="200" height="50" viewBox="0 0 210 50" xmlns="http://www.w3.org/2000/svg">
    <!-- 144 stargazers -->
    <!-- created at Sat Mar 28 2026 12:21:34 GMT+0000 (Coordinated Universal Time) -->
    <defs>
        <linearGradient id="stroke" x1="0%" y1="0%" x2="100%" y2="0%">
            <stop stop-color="#3023AE" offset="0%"/>
            <stop stop-color="#C86DD7" offset="100%"/>
        </linearGradient>
    </defs>
    <path stroke="url(#stroke)"
        stroke-width="3"
        stroke-linejoin="round"
        stroke-linecap="round"
        d="M5.00 46.0001 C 5.92 44.82, 9.25 40.88, 10.00 39.58 S 13.62 29.36, 15.00 28.76 S 18.70 34.49, 20.00 35.24 S 23.52 34.70, 25.00 34.49 S 28.62 34.37, 30.00 33.78 S 33.62 30.82, 35.00 30.22 S 38.52 29.67, 40.00 29.45 S 43.60 28.17, 45.00 28.71 S 48.50 33.23, 50.00 33.27 S 53.65 29.60, 55.00 28.94 S 58.50 28.23, 60.00 28.34 S 63.51 29.85, 65.00 29.68 S 68.84 28.14, 70.00 27.19 S 73.73 20.73, 75.00 21.52 S 78.87 32.44, 80.00 33.42 S 83.96 31.27, 85.00 30.20 S 88.69 23.83, 90.00 23.09 S 93.89 23.59, 95.00 24.60 S 98.76 33.01, 100.00 32.16 S 103.88 18.72, 105.00 17.72 S 108.50 23.07, 110.00 23.18 S 113.78 19.34, 115.00 18.46 S 118.71 15.23, 120.00 16.00 S 123.57 23.96, 125.00 24.40 S 128.70 18.32, 130.00 19.07 S 133.98 29.08, 135.00 30.19 S 138.50 30.00, 140.00 29.92 S 143.50 29.74, 145.00 29.67 S 148.63 28.81, 150.00 29.41 S 153.63 33.48, 155.00 34.09 S 158.50 33.97, 160.00 33.92 S 164.04 32.59, 165.00 33.75 S 168.50 46.05, 170.00 46.00 S 173.50 33.41, 175.00 33.41 S 179.07 44.83, 180.00 46.00 S 183.50 46.00, 185.00 46.00 S 189.10 47.20, 190.00 46.00 S 194.10 33.97, 195.00 32.77 S 199.10 31.41, 200.00 32.61 S 204.48 44.59, 205.00 46.00"
        fill="none">
        <animate attributeName="stroke-dashoffset"
            from="318.7767737816433" to="0" dur="2.2s"/>
        <animate attributeName="stroke-dasharray"
            from="318.7767737816433" to="318.7767737816433"/>
    </path>
    <circle r="4" cx="5" cy="46" fill="#3023AE"/>
    <circle r="4" cx="205" cy="46" fill="#C86DD7" opacity="0">
        <animate attributeName="opacity"
            from="0" to="1" dur="0.1s" begin="2.2s" fill="freeze"/>
    </circle>
</svg>