<svg width="200" height="50" viewBox="0 0 210 50" xmlns="http://www.w3.org/2000/svg">
    <!-- 144 stargazers -->
    <!-- created at Wed Mar 04 2026 20:50:49 GMT+0000 (Coordinated Universal Time) -->
    <defs>
        <linearGradient id="stroke" x1="0%" y1="0%" x2="100%" y2="0%">
            <stop stop-color="#3023AE" offset="0%"/>
            <stop stop-color="#C86DD7" offset="100%"/>
        </linearGradient>
    </defs>
    <path stroke="url(#stroke)"
        stroke-width="3"
        stroke-linejoin="round"
        stroke-linecap="round"
        d="M5.00 46.0001 C 5.94 44.83, 9.23 41.10, 10.00 39.81 S 13.62 29.95, 15.00 29.37 S 18.69 34.89, 20.00 35.62 S 23.51 35.10, 25.00 34.89 S 28.61 34.78, 30.00 34.21 S 33.51 30.96, 35.00 30.78 S 38.61 33.52, 40.00 32.96 S 43.50 26.62, 45.00 26.73 S 48.63 33.10, 50.00 33.72 S 53.74 32.09, 55.00 31.28 S 58.51 27.49, 60.00 27.33 S 63.54 29.90, 65.00 30.26 S 68.82 30.70, 70.00 29.77 S 73.51 22.18, 75.00 22.38 S 78.85 30.18, 80.00 31.14 S 83.57 31.21, 85.00 30.75 S 88.57 28.42, 90.00 27.96 S 93.57 27.97, 95.00 27.53 S 98.52 24.62, 100.00 24.88 S 103.65 29.95, 105.00 29.29 S 109.03 21.09, 110.00 19.95 S 113.51 17.45, 115.00 17.60 S 118.66 20.25, 120.00 20.93 S 123.65 23.36, 125.00 22.70 S 128.83 15.06, 130.00 16.00 S 134.15 29.51, 135.00 30.74 S 138.61 31.05, 140.00 30.49 S 143.50 26.77, 145.00 26.70 S 149.31 28.67, 150.00 30.00 S 153.50 46.07, 155.00 46.00 S 159.03 30.66, 160.00 29.52 S 164.22 32.90, 165.00 34.18 S 169.03 44.85, 170.00 46.00 S 174.05 47.16, 175.00 46.00 S 178.50 33.70, 180.00 33.70 S 184.05 44.84, 185.00 46.00 S 188.50 46.00, 190.00 46.00 S 194.08 47.19, 195.00 46.00 S 199.09 34.27, 200.00 33.08 S 203.50 32.98, 205.00 32.93"
        fill="none">
        <animate attributeName="stroke-dashoffset"
            from="324.1029897327315" to="0" dur="2.2s"/>
        <animate attributeName="stroke-dasharray"
            from="324.1029897327315" to="324.1029897327315"/>
    </path>
    <circle r="4" cx="5" cy="46" fill="#3023AE"/>
    <circle r="4" cx="205" cy="32.93053312109764" fill="#C86DD7" opacity="0">
        <animate attributeName="opacity"
            from="0" to="1" dur="0.1s" begin="2.2s" fill="freeze"/>
    </circle>
</svg>