<svg width="200" height="50" viewBox="0 0 210 50" xmlns="http://www.w3.org/2000/svg">
    <!-- 145 stargazers -->
    <!-- created at Mon May 11 2026 12:10:45 GMT+0000 (Coordinated Universal Time) -->
    <defs>
        <linearGradient id="stroke" x1="0%" y1="0%" x2="100%" y2="0%">
            <stop stop-color="#3023AE" offset="0%"/>
            <stop stop-color="#C86DD7" offset="100%"/>
        </linearGradient>
    </defs>
    <path stroke="url(#stroke)"
        stroke-width="3"
        stroke-linejoin="round"
        stroke-linecap="round"
        d="M5.00 46.0001 C 5.93 44.83, 9.26 41.01, 10.00 39.70 S 13.62 28.97, 15.00 28.38 S 18.82 34.51, 20.00 35.43 S 23.52 36.42, 25.00 36.21 S 28.70 34.75, 30.00 34.00 S 33.76 31.35, 35.00 30.51 S 38.52 26.99, 40.00 27.23 S 43.73 31.34, 45.00 32.13 S 48.63 34.11, 50.00 33.50 S 53.74 28.47, 55.00 27.65 S 58.77 26.14, 60.00 27.00 S 63.63 35.27, 65.00 34.67 S 68.81 23.55, 70.00 22.64 S 73.60 26.46, 75.00 27.00 S 78.73 25.67, 80.00 26.47 S 83.56 33.75, 85.00 33.33 S 88.85 24.47, 90.00 23.51 S 94.08 23.80, 95.00 24.98 S 98.85 37.36, 100.00 36.39 S 104.24 17.84, 105.00 16.55 S 108.54 19.13, 110.00 19.49 S 113.57 18.50, 115.00 18.96 S 118.56 23.14, 120.00 22.71 S 123.83 15.06, 125.00 16.00 S 128.99 29.62, 130.00 30.73 S 133.50 27.06, 135.00 26.98 S 138.56 29.79, 140.00 30.22 S 143.62 29.37, 145.00 29.96 S 148.62 33.89, 150.00 34.48 S 153.50 34.36, 155.00 34.31 S 159.02 33.00, 160.00 34.14 S 163.50 46.05, 165.00 46.00 S 168.50 33.80, 170.00 33.80 S 174.05 44.84, 175.00 46.00 S 178.50 46.00, 180.00 46.00 S 184.08 47.18, 185.00 46.00 S 189.09 34.35, 190.00 33.16 S 194.08 31.82, 195.00 33.00 S 198.50 46.05, 200.00 46.00 S 204.47 34.10, 205.00 32.70"
        fill="none">
        <animate attributeName="stroke-dashoffset"
            from="345.629239493837" to="0" dur="2.2s"/>
        <animate attributeName="stroke-dasharray"
            from="345.629239493837" to="345.629239493837"/>
    </path>
    <circle r="4" cx="5" cy="46" fill="#3023AE"/>
    <circle r="4" cx="205" cy="32.69869305229046" fill="#C86DD7" opacity="0">
        <animate attributeName="opacity"
            from="0" to="1" dur="0.1s" begin="2.2s" fill="freeze"/>
    </circle>
</svg>