<svg width="200" height="50" viewBox="0 0 210 50" xmlns="http://www.w3.org/2000/svg">
    <!-- 144 stargazers -->
    <!-- created at Sun Mar 22 2026 09:43:55 GMT+0000 (Coordinated Universal Time) -->
    <defs>
        <linearGradient id="stroke" x1="0%" y1="0%" x2="100%" y2="0%">
            <stop stop-color="#3023AE" offset="0%"/>
            <stop stop-color="#C86DD7" offset="100%"/>
        </linearGradient>
    </defs>
    <path stroke="url(#stroke)"
        stroke-width="3"
        stroke-linejoin="round"
        stroke-linecap="round"
        d="M5.00 46.0001 C 5.92 44.82, 9.25 40.88, 10.00 39.58 S 13.62 29.36, 15.00 28.76 S 18.70 34.49, 20.00 35.24 S 23.52 34.70, 25.00 34.49 S 28.62 34.37, 30.00 33.78 S 33.56 30.64, 35.00 30.22 S 38.56 31.31, 40.00 30.89 S 43.54 26.97, 45.00 27.32 S 48.52 33.03, 50.00 33.27 S 53.65 29.60, 55.00 28.94 S 58.50 28.23, 60.00 28.34 S 63.51 29.85, 65.00 29.68 S 68.84 28.14, 70.00 27.19 S 73.73 20.73, 75.00 21.52 S 78.87 32.44, 80.00 33.42 S 83.96 31.27, 85.00 30.20 S 88.69 23.83, 90.00 23.09 S 93.89 23.59, 95.00 24.60 S 98.66 32.83, 100.00 32.16 S 103.75 20.37, 105.00 19.55 S 108.56 26.02, 110.00 25.59 S 113.92 17.60, 115.00 16.56 S 118.82 15.07, 120.00 16.00 S 123.51 24.26, 125.00 24.40 S 128.70 16.16, 130.00 16.91 S 134.09 29.00, 135.00 30.19 S 138.50 30.00, 140.00 29.92 S 143.50 29.74, 145.00 29.67 S 148.63 28.81, 150.00 29.41 S 153.63 33.48, 155.00 34.09 S 158.50 33.97, 160.00 33.92 S 164.04 32.59, 165.00 33.75 S 169.05 44.84, 170.00 46.00 S 174.07 47.18, 175.00 46.00 S 178.50 33.25, 180.00 33.25 S 184.07 44.82, 185.00 46.00 S 188.50 46.00, 190.00 46.00 S 194.30 47.33, 195.00 46.00 S 198.50 27.06, 200.00 27.06 S 204.62 44.55, 205.00 46.00"
        fill="none">
        <animate attributeName="stroke-dashoffset"
            from="337.63469686853165" to="0" dur="2.2s"/>
        <animate attributeName="stroke-dasharray"
            from="337.63469686853165" to="337.63469686853165"/>
    </path>
    <circle r="4" cx="5" cy="46" fill="#3023AE"/>
    <circle r="4" cx="205" cy="46" fill="#C86DD7" opacity="0">
        <animate attributeName="opacity"
            from="0" to="1" dur="0.1s" begin="2.2s" fill="freeze"/>
    </circle>
</svg>