<svg width="200" height="50" viewBox="0 0 210 50" xmlns="http://www.w3.org/2000/svg">
    <!-- 144 stargazers -->
    <!-- created at Tue May 05 2026 07:11:44 GMT+0000 (Coordinated Universal Time) -->
    <defs>
        <linearGradient id="stroke" x1="0%" y1="0%" x2="100%" y2="0%">
            <stop stop-color="#3023AE" offset="0%"/>
            <stop stop-color="#C86DD7" offset="100%"/>
        </linearGradient>
    </defs>
    <path stroke="url(#stroke)"
        stroke-width="3"
        stroke-linejoin="round"
        stroke-linecap="round"
        d="M5.00 46.0001 C 5.93 44.83, 9.26 41.01, 10.00 39.70 S 13.62 28.97, 15.00 28.38 S 18.82 34.51, 20.00 35.43 S 23.52 36.42, 25.00 36.21 S 28.70 34.75, 30.00 34.00 S 33.76 31.35, 35.00 30.51 S 38.52 26.99, 40.00 27.23 S 43.73 31.34, 45.00 32.13 S 48.63 34.11, 50.00 33.50 S 53.74 28.47, 55.00 27.65 S 58.77 26.14, 60.00 27.00 S 63.63 35.27, 65.00 34.67 S 68.81 23.55, 70.00 22.64 S 73.71 26.23, 75.00 27.00 S 78.58 28.04, 80.00 28.53 S 83.57 30.92, 85.00 30.48 S 88.69 26.19, 90.00 25.47 S 93.77 24.13, 95.00 24.98 S 98.85 33.38, 100.00 32.41 S 104.08 17.73, 105.00 16.55 S 108.63 18.88, 110.00 19.49 S 113.51 20.82, 115.00 20.97 S 118.66 21.16, 120.00 20.49 S 123.95 14.93, 125.00 16.00 S 129.15 29.50, 130.00 30.73 S 133.61 31.04, 135.00 30.47 S 138.50 26.74, 140.00 26.67 S 144.31 28.63, 145.00 29.96 S 148.50 46.07, 150.00 46.00 S 154.03 30.61, 155.00 29.47 S 159.22 32.86, 160.00 34.14 S 164.03 44.85, 165.00 46.00 S 169.06 47.17, 170.00 46.00 S 173.50 33.64, 175.00 33.64 S 179.06 44.83, 180.00 46.00 S 184.08 47.18, 185.00 46.00 S 189.09 34.35, 190.00 33.16 S 194.08 31.82, 195.00 33.00 S 199.09 44.81, 200.00 46.00 S 203.50 46.00, 205.00 46.00"
        fill="none">
        <animate attributeName="stroke-dashoffset"
            from="343.99497933966205" to="0" dur="2.2s"/>
        <animate attributeName="stroke-dasharray"
            from="343.99497933966205" to="343.99497933966205"/>
    </path>
    <circle r="4" cx="5" cy="46" fill="#3023AE"/>
    <circle r="4" cx="205" cy="46" fill="#C86DD7" opacity="0">
        <animate attributeName="opacity"
            from="0" to="1" dur="0.1s" begin="2.2s" fill="freeze"/>
    </circle>
</svg>