<svg width="200" height="50" viewBox="0 0 210 50" xmlns="http://www.w3.org/2000/svg">
    <!-- 144 stargazers -->
    <!-- created at Wed Mar 25 2026 11:18:29 GMT+0000 (Coordinated Universal Time) -->
    <defs>
        <linearGradient id="stroke" x1="0%" y1="0%" x2="100%" y2="0%">
            <stop stop-color="#3023AE" offset="0%"/>
            <stop stop-color="#C86DD7" offset="100%"/>
        </linearGradient>
    </defs>
    <path stroke="url(#stroke)"
        stroke-width="3"
        stroke-linejoin="round"
        stroke-linecap="round"
        d="M5.00 46.0001 C 5.91 44.81, 9.26 40.77, 10.00 39.46 S 13.63 29.04, 15.00 28.43 S 18.70 34.28, 20.00 35.03 S 23.52 34.49, 25.00 34.27 S 28.62 34.15, 30.00 33.55 S 33.63 30.53, 35.00 29.92 S 38.52 29.36, 40.00 29.13 S 43.60 27.83, 45.00 28.38 S 48.50 32.99, 50.00 33.03 S 53.66 29.29, 55.00 28.62 S 58.50 27.89, 60.00 28.00 S 63.51 29.55, 65.00 29.37 S 68.85 27.79, 70.00 26.83 S 73.73 20.25, 75.00 21.05 S 78.88 32.19, 80.00 33.18 S 83.97 30.98, 85.00 29.89 S 88.70 23.40, 90.00 22.66 S 93.90 23.17, 95.00 24.19 S 98.67 32.58, 100.00 31.89 S 103.89 20.05, 105.00 19.04 S 108.56 23.18, 110.00 22.74 S 113.68 16.71, 115.00 16.00 S 118.83 16.47, 120.00 17.40 S 123.51 24.14, 125.00 23.98 S 128.71 15.60, 130.00 16.36 S 134.10 28.69, 135.00 29.88 S 138.50 29.70, 140.00 29.62 S 143.50 29.43, 145.00 29.36 S 148.63 28.48, 150.00 29.10 S 153.64 33.24, 155.00 33.87 S 158.50 33.74, 160.00 33.69 S 164.05 32.35, 165.00 33.52 S 169.06 44.83, 170.00 46.00 S 174.09 47.19, 175.00 46.00 S 178.50 33.00, 180.00 33.00 S 184.09 44.81, 185.00 46.00 S 188.50 46.00, 190.00 46.00 S 194.31 47.33, 195.00 46.00 S 198.50 26.70, 200.00 26.70 S 204.62 44.55, 205.00 46.00"
        fill="none">
        <animate attributeName="stroke-dashoffset"
            from="333.48698485779596" to="0" dur="2.2s"/>
        <animate attributeName="stroke-dasharray"
            from="333.48698485779596" to="333.48698485779596"/>
    </path>
    <circle r="4" cx="5" cy="46" fill="#3023AE"/>
    <circle r="4" cx="205" cy="46" fill="#C86DD7" opacity="0">
        <animate attributeName="opacity"
            from="0" to="1" dur="0.1s" begin="2.2s" fill="freeze"/>
    </circle>
</svg>