<svg width="200" height="50" viewBox="0 0 210 50" xmlns="http://www.w3.org/2000/svg">
    <!-- 599 stargazers -->
    <!-- created at Tue Mar 24 2026 11:24:31 GMT+0000 (Coordinated Universal Time) -->
    <defs>
        <linearGradient id="stroke" x1="0%" y1="0%" x2="100%" y2="0%">
            <stop stop-color="#3023AE" offset="0%"/>
            <stop stop-color="#C86DD7" offset="100%"/>
        </linearGradient>
    </defs>
    <path stroke="url(#stroke)"
        stroke-width="3"
        stroke-linejoin="round"
        stroke-linecap="round"
        d="M5.00 46.0001 C 5.30 44.53, 8.90 22.19, 10.00 21.18 S 14.25 35.51, 15.00 36.81 S 18.69 37.61, 20.00 38.35 S 23.50 42.39, 25.00 42.46 S 28.59 39.32, 30.00 38.80 S 33.52 38.98, 35.00 38.76 S 38.51 37.50, 40.00 37.34 S 43.50 37.73, 45.00 37.68 S 48.52 37.22, 50.00 36.95 S 53.50 35.76, 55.00 35.85 S 59.33 38.92, 60.00 37.58 S 63.51 16.15, 65.00 16.00 S 69.36 35.19, 70.00 36.55 S 73.52 37.04, 75.00 37.30 S 78.50 38.33, 80.00 38.26 S 83.50 36.88, 85.00 36.82 S 88.52 37.63, 90.00 37.86 S 93.51 38.22, 95.00 38.39 S 98.52 39.31, 100.00 39.04 S 103.51 36.77, 105.00 36.60 S 108.50 37.95, 110.00 37.89 S 113.50 36.13, 115.00 36.21 S 118.57 38.01, 120.00 38.46 S 123.50 39.23, 125.00 39.35 S 128.55 38.84, 130.00 39.23 S 133.51 41.87, 135.00 42.03 S 138.57 40.73, 140.00 40.29 S 143.63 39.50, 145.00 38.89 S 148.51 35.99, 150.00 35.79 S 153.50 37.44, 155.00 37.54 S 158.75 37.23, 160.00 36.40 S 163.50 30.95, 165.00 30.91 S 168.97 35.04, 170.00 36.13 S 173.68 40.82, 175.00 41.53 S 178.53 41.76, 180.00 41.47 S 183.58 40.01, 185.00 39.51 S 188.56 38.37, 190.00 37.95 S 193.51 36.39, 195.00 36.59 S 198.55 38.89, 200.00 39.27 S 203.50 39.21, 205.00 39.19"
        fill="none">
        <animate attributeName="stroke-dashoffset"
            from="284.244344363297" to="0" dur="2.2s"/>
        <animate attributeName="stroke-dasharray"
            from="284.244344363297" to="284.244344363297"/>
    </path>
    <circle r="4" cx="5" cy="46" fill="#3023AE"/>
    <circle r="4" cx="205" cy="39.18989989670334" fill="#C86DD7" opacity="0">
        <animate attributeName="opacity"
            from="0" to="1" dur="0.1s" begin="2.2s" fill="freeze"/>
    </circle>
</svg>