<svg width="200" height="50" viewBox="0 0 210 50" xmlns="http://www.w3.org/2000/svg">
    <!-- 598 stargazers -->
    <!-- created at Sun Mar 15 2026 11:15:16 GMT+0000 (Coordinated Universal Time) -->
    <defs>
        <linearGradient id="stroke" x1="0%" y1="0%" x2="100%" y2="0%">
            <stop stop-color="#3023AE" offset="0%"/>
            <stop stop-color="#C86DD7" offset="100%"/>
        </linearGradient>
    </defs>
    <path stroke="url(#stroke)"
        stroke-width="3"
        stroke-linejoin="round"
        stroke-linecap="round"
        d="M5.00 46.0001 C 5.29 44.53, 8.90 22.08, 10.00 21.06 S 14.25 35.47, 15.00 36.76 S 18.70 37.57, 20.00 38.31 S 23.50 42.37, 25.00 42.44 S 28.58 39.24, 30.00 38.76 S 33.52 39.36, 35.00 39.10 S 38.51 37.13, 40.00 36.97 S 43.51 37.85, 45.00 38.03 S 48.55 38.50, 50.00 38.12 S 53.53 35.73, 55.00 35.45 S 59.31 37.56, 60.00 36.23 S 63.50 16.03, 65.00 16.00 S 69.36 34.68, 70.00 36.04 S 73.53 36.94, 75.00 37.26 S 78.68 37.50, 80.00 38.22 S 83.62 43.33, 85.00 42.74 S 88.52 34.19, 90.00 33.96 S 93.56 40.76, 95.00 41.17 S 98.54 37.09, 100.00 36.75 S 103.50 38.92, 105.00 38.86 S 108.58 36.84, 110.00 36.36 S 113.53 35.18, 115.00 35.49 S 118.75 37.59, 120.00 38.42 S 123.50 42.03, 125.00 42.14 S 128.57 39.64, 130.00 39.20 S 133.76 38.24, 135.00 39.08 S 138.51 45.84, 140.00 46.00 S 144.07 41.34, 145.00 40.17 S 148.52 33.20, 150.00 33.43 S 153.51 41.58, 155.00 41.75 S 159.02 35.72, 160.00 34.59 S 163.67 29.54, 165.00 30.22 S 168.76 38.88, 170.00 39.73 S 173.73 36.21, 175.00 37.01 S 178.54 45.64, 180.00 46.00 S 183.75 40.30, 185.00 39.48 S 188.61 39.96, 190.00 39.40 S 193.50 35.45, 195.00 35.43 S 198.59 38.71, 200.00 39.24 S 203.50 39.18, 205.00 39.16"
        fill="none">
        <animate attributeName="stroke-dashoffset"
            from="326.4550341701094" to="0" dur="2.2s"/>
        <animate attributeName="stroke-dasharray"
            from="326.4550341701094" to="326.4550341701094"/>
    </path>
    <circle r="4" cx="5" cy="46" fill="#3023AE"/>
    <circle r="4" cx="205" cy="39.15785218979406" fill="#C86DD7" opacity="0">
        <animate attributeName="opacity"
            from="0" to="1" dur="0.1s" begin="2.2s" fill="freeze"/>
    </circle>
</svg>