<svg width="200" height="50" viewBox="0 0 210 50" xmlns="http://www.w3.org/2000/svg">
    <!-- 598 stargazers -->
    <!-- created at Wed Mar 18 2026 11:15:38 GMT+0000 (Coordinated Universal Time) -->
    <defs>
        <linearGradient id="stroke" x1="0%" y1="0%" x2="100%" y2="0%">
            <stop stop-color="#3023AE" offset="0%"/>
            <stop stop-color="#C86DD7" offset="100%"/>
        </linearGradient>
    </defs>
    <path stroke="url(#stroke)"
        stroke-width="3"
        stroke-linejoin="round"
        stroke-linecap="round"
        d="M5.00 46.0001 C 5.29 44.53, 8.90 22.08, 10.00 21.06 S 14.25 35.47, 15.00 36.76 S 18.70 37.57, 20.00 38.31 S 23.50 42.37, 25.00 42.44 S 28.58 39.24, 30.00 38.76 S 33.52 39.36, 35.00 39.10 S 38.52 37.19, 40.00 36.97 S 43.50 37.59, 45.00 37.64 S 48.52 37.51, 50.00 37.29 S 53.50 36.27, 55.00 36.18 S 59.33 37.99, 60.00 36.64 S 63.50 16.09, 65.00 16.00 S 69.36 34.68, 70.00 36.04 S 73.53 36.94, 75.00 37.26 S 78.68 37.50, 80.00 38.22 S 83.62 43.33, 85.00 42.74 S 88.55 34.34, 90.00 33.96 S 93.58 39.59, 95.00 40.08 S 98.51 37.62, 100.00 37.44 S 103.51 39.02, 105.00 38.86 S 108.58 36.84, 110.00 36.36 S 113.53 35.18, 115.00 35.49 S 118.75 37.59, 120.00 38.42 S 123.50 42.03, 125.00 42.14 S 128.57 39.64, 130.00 39.20 S 133.76 38.24, 135.00 39.08 S 138.51 45.84, 140.00 46.00 S 144.07 41.34, 145.00 40.17 S 148.50 33.46, 150.00 33.43 S 153.51 39.81, 155.00 39.99 S 158.89 35.60, 160.00 34.59 S 163.55 30.47, 165.00 30.84 S 168.87 36.14, 170.00 37.13 S 173.88 38.65, 175.00 39.64 S 178.50 46.02, 180.00 46.00 S 183.83 40.42, 185.00 39.48 S 188.61 38.47, 190.00 37.91 S 193.58 34.96, 195.00 35.43 S 198.59 40.69, 200.00 41.22 S 203.61 39.73, 205.00 39.16"
        fill="none">
        <animate attributeName="stroke-dashoffset"
            from="316.43343859946987" to="0" dur="2.2s"/>
        <animate attributeName="stroke-dasharray"
            from="316.43343859946987" to="316.43343859946987"/>
    </path>
    <circle r="4" cx="5" cy="46" fill="#3023AE"/>
    <circle r="4" cx="205" cy="39.15785218979434" fill="#C86DD7" opacity="0">
        <animate attributeName="opacity"
            from="0" to="1" dur="0.1s" begin="2.2s" fill="freeze"/>
    </circle>
</svg>