<svg width="200" height="50" viewBox="0 0 210 50" xmlns="http://www.w3.org/2000/svg">
    <!-- 599 stargazers -->
    <!-- created at Mon Mar 30 2026 11:50:34 GMT+0000 (Coordinated Universal Time) -->
    <defs>
        <linearGradient id="stroke" x1="0%" y1="0%" x2="100%" y2="0%">
            <stop stop-color="#3023AE" offset="0%"/>
            <stop stop-color="#C86DD7" offset="100%"/>
        </linearGradient>
    </defs>
    <path stroke="url(#stroke)"
        stroke-width="3"
        stroke-linejoin="round"
        stroke-linecap="round"
        d="M5.00 46.0001 C 5.30 44.53, 8.89 22.41, 10.00 21.40 S 14.24 35.60, 15.00 36.89 S 18.69 37.69, 20.00 38.42 S 23.50 42.42, 25.00 42.49 S 28.59 39.38, 30.00 38.86 S 33.52 39.04, 35.00 38.83 S 38.51 37.58, 40.00 37.42 S 43.50 37.81, 45.00 37.75 S 48.53 37.35, 50.00 37.03 S 53.51 35.43, 55.00 35.59 S 59.32 39.47, 60.00 38.13 S 63.50 16.08, 65.00 16.00 S 69.35 36.27, 70.00 37.62 S 73.51 36.65, 75.00 36.85 S 78.50 38.99, 80.00 39.00 S 83.52 37.16, 85.00 36.91 S 88.52 37.06, 90.00 37.29 S 93.52 38.19, 95.00 38.46 S 98.51 39.27, 100.00 39.11 S 103.51 37.54, 105.00 37.37 S 108.56 38.39, 110.00 37.96 S 113.55 34.01, 115.00 34.41 S 118.73 39.93, 120.00 40.72 S 123.51 40.83, 125.00 40.62 S 128.52 39.08, 130.00 39.29 S 133.51 41.91, 135.00 42.06 S 138.84 41.29, 140.00 40.34 S 143.52 33.57, 145.00 33.80 S 148.53 41.58, 150.00 41.87 S 153.94 36.79, 155.00 35.73 S 158.50 31.80, 160.00 31.89 S 163.68 35.64, 165.00 36.35 S 168.92 36.21, 170.00 37.25 S 173.62 45.41, 175.00 46.00 S 178.74 42.32, 180.00 41.51 S 183.58 40.06, 185.00 39.57 S 188.61 38.58, 190.00 38.02 S 193.51 35.38, 195.00 35.58 S 198.69 38.59, 200.00 39.33 S 203.60 40.70, 205.00 41.23"
        fill="none">
        <animate attributeName="stroke-dashoffset"
            from="303.9759838229234" to="0" dur="2.2s"/>
        <animate attributeName="stroke-dasharray"
            from="303.9759838229234" to="303.9759838229234"/>
    </path>
    <circle r="4" cx="5" cy="46" fill="#3023AE"/>
    <circle r="4" cx="205" cy="41.228915176533825" fill="#C86DD7" opacity="0">
        <animate attributeName="opacity"
            from="0" to="1" dur="0.1s" begin="2.2s" fill="freeze"/>
    </circle>
</svg>