<svg width="200" height="50" viewBox="0 0 210 50" xmlns="http://www.w3.org/2000/svg">
    <!-- 599 stargazers -->
    <!-- created at Sun Apr 05 2026 10:53:30 GMT+0000 (Coordinated Universal Time) -->
    <defs>
        <linearGradient id="stroke" x1="0%" y1="0%" x2="100%" y2="0%">
            <stop stop-color="#3023AE" offset="0%"/>
            <stop stop-color="#C86DD7" offset="100%"/>
        </linearGradient>
    </defs>
    <path stroke="url(#stroke)"
        stroke-width="3"
        stroke-linejoin="round"
        stroke-linecap="round"
        d="M5.00 46.0001 C 5.30 44.53, 8.90 22.19, 10.00 21.18 S 14.25 35.51, 15.00 36.81 S 18.69 37.61, 20.00 38.35 S 23.50 42.39, 25.00 42.46 S 28.61 39.36, 30.00 38.80 S 33.51 38.57, 35.00 38.41 S 38.51 37.84, 40.00 37.68 S 43.50 37.41, 45.00 37.31 S 48.52 37.22, 50.00 36.95 S 53.50 35.40, 55.00 35.50 S 59.32 38.91, 60.00 37.58 S 63.52 16.22, 65.00 16.00 S 69.36 34.73, 70.00 36.08 S 73.59 36.79, 75.00 37.30 S 78.50 39.66, 80.00 39.68 S 83.54 37.78, 85.00 37.42 S 88.51 37.06, 90.00 37.20 S 93.51 38.24, 95.00 38.39 S 98.51 38.38, 100.00 38.22 S 103.51 37.46, 105.00 37.29 S 108.52 37.37, 110.00 37.11 S 113.59 35.03, 115.00 35.54 S 118.60 40.13, 120.00 40.67 S 123.50 39.38, 125.00 39.35 S 128.55 40.09, 130.00 40.47 S 133.50 42.05, 135.00 42.03 S 138.85 41.25, 140.00 40.29 S 143.52 33.45, 145.00 33.68 S 148.53 41.54, 150.00 41.83 S 154.01 36.76, 155.00 35.63 S 158.56 30.11, 160.00 30.52 S 163.75 37.63, 165.00 38.46 S 168.80 36.27, 170.00 37.17 S 173.54 45.65, 175.00 46.00 S 178.83 40.52, 180.00 39.59 S 183.61 38.60, 185.00 38.05 S 188.57 35.14, 190.00 35.61 S 193.59 40.78, 195.00 41.30 S 198.50 39.28, 200.00 39.27 S 203.60 40.65, 205.00 41.18"
        fill="none">
        <animate attributeName="stroke-dashoffset"
            from="306.5833693764359" to="0" dur="2.2s"/>
        <animate attributeName="stroke-dasharray"
            from="306.5833693764359" to="306.5833693764359"/>
    </path>
    <circle r="4" cx="5" cy="46" fill="#3023AE"/>
    <circle r="4" cx="205" cy="41.18453203639945" fill="#C86DD7" opacity="0">
        <animate attributeName="opacity"
            from="0" to="1" dur="0.1s" begin="2.2s" fill="freeze"/>
    </circle>
</svg>