<svg width="200" height="50" viewBox="0 0 210 50" xmlns="http://www.w3.org/2000/svg">
    <!-- 597 stargazers -->
    <!-- created at Mon Mar 09 2026 10:49:59 GMT+0000 (Coordinated Universal Time) -->
    <defs>
        <linearGradient id="stroke" x1="0%" y1="0%" x2="100%" y2="0%">
            <stop stop-color="#3023AE" offset="0%"/>
            <stop stop-color="#C86DD7" offset="100%"/>
        </linearGradient>
    </defs>
    <path stroke="url(#stroke)"
        stroke-width="3"
        stroke-linejoin="round"
        stroke-linecap="round"
        d="M5.00 46.0001 C 5.30 44.53, 8.90 22.19, 10.00 21.18 S 14.25 35.51, 15.00 36.81 S 18.69 37.61, 20.00 38.35 S 23.51 42.29, 25.00 42.46 S 28.61 40.05, 30.00 39.49 S 33.54 38.77, 35.00 38.41 S 38.50 37.00, 40.00 37.01 S 43.51 38.30, 45.00 38.47 S 48.54 38.49, 50.00 38.16 S 53.55 36.61, 55.00 36.22 S 59.34 36.84, 60.00 35.49 S 63.51 15.84, 65.00 16.00 S 69.36 35.19, 70.00 36.55 S 73.51 37.13, 75.00 37.30 S 78.68 36.92, 80.00 37.64 S 83.55 43.14, 85.00 42.76 S 88.59 35.48, 90.00 34.97 S 93.54 38.83, 95.00 39.19 S 98.51 37.65, 100.00 37.48 S 103.51 38.21, 105.00 38.05 S 108.50 36.32, 110.00 36.40 S 113.51 38.76, 115.00 38.60 S 118.59 34.83, 120.00 35.34 S 123.60 41.62, 125.00 42.16 S 128.52 39.49, 130.00 39.23 S 133.55 39.98, 135.00 40.38 S 138.50 41.99, 140.00 41.96 S 143.86 41.16, 145.00 40.19 S 148.52 33.26, 150.00 33.49 S 153.53 41.48, 155.00 41.77 S 158.95 36.55, 160.00 35.48 S 163.50 31.46, 165.00 31.56 S 168.69 35.40, 170.00 36.13 S 173.93 36.00, 175.00 37.05 S 178.62 45.40, 180.00 46.00 S 183.75 42.23, 185.00 41.41 S 188.59 39.93, 190.00 39.43 S 193.61 38.42, 195.00 37.85 S 198.58 34.88, 200.00 35.36 S 204.02 40.05, 205.00 41.18"
        fill="none">
        <animate attributeName="stroke-dashoffset"
            from="310.773891015517" to="0" dur="2.2s"/>
        <animate attributeName="stroke-dasharray"
            from="310.773891015517" to="310.773891015517"/>
    </path>
    <circle r="4" cx="5" cy="46" fill="#3023AE"/>
    <circle r="4" cx="205" cy="41.184532036399546" fill="#C86DD7" opacity="0">
        <animate attributeName="opacity"
            from="0" to="1" dur="0.1s" begin="2.2s" fill="freeze"/>
    </circle>
</svg>