<svg width="200" height="50" viewBox="0 0 210 50" xmlns="http://www.w3.org/2000/svg">
    <!-- 597 stargazers -->
    <!-- created at Mon Apr 20 2026 05:44:53 GMT+0000 (Coordinated Universal Time) -->
    <defs>
        <linearGradient id="stroke" x1="0%" y1="0%" x2="100%" y2="0%">
            <stop stop-color="#3023AE" offset="0%"/>
            <stop stop-color="#C86DD7" offset="100%"/>
        </linearGradient>
    </defs>
    <path stroke="url(#stroke)"
        stroke-width="3"
        stroke-linejoin="round"
        stroke-linecap="round"
        d="M5.00 46.0001 C 5.28 44.53, 8.93 20.51, 10.00 19.45 S 14.28 34.81, 15.00 36.13 S 18.68 37.06, 20.00 37.78 S 23.50 41.53, 25.00 41.61 S 28.61 38.84, 30.00 38.27 S 33.51 37.60, 35.00 37.48 S 38.51 37.57, 40.00 37.44 S 43.50 36.78, 45.00 36.66 S 48.56 37.13, 50.00 36.69 S 54.35 34.99, 55.00 33.64 S 58.50 15.89, 60.00 16.00 S 64.28 33.03, 65.00 34.35 S 68.56 34.00, 70.00 34.42 S 73.70 36.52, 75.00 37.26 S 78.51 40.29, 80.00 40.12 S 83.59 36.65, 85.00 36.15 S 88.51 36.42, 90.00 36.56 S 93.51 36.89, 95.00 37.05 S 98.51 37.82, 100.00 37.65 S 103.53 36.19, 105.00 35.90 S 108.51 35.51, 110.00 35.69 S 113.73 36.32, 115.00 37.12 S 118.50 41.86, 120.00 41.95 S 123.53 38.03, 125.00 37.75 S 128.54 39.74, 130.00 40.06 S 133.52 40.20, 135.00 39.96 S 138.65 39.13, 140.00 38.48 S 143.54 35.56, 145.00 35.20 S 148.59 36.49, 150.00 35.99 S 153.56 32.06, 155.00 31.63 S 158.66 32.28, 160.00 32.96 S 164.09 35.46, 165.00 36.65 S 168.63 45.38, 170.00 46.00 S 173.85 42.16, 175.00 41.19 S 178.66 38.25, 180.00 37.57 S 183.50 36.17, 185.00 36.14 S 188.55 36.96, 190.00 37.35 S 193.59 38.36, 195.00 38.86 S 198.78 40.02, 200.00 40.89 S 203.95 44.93, 205.00 46.00"
        fill="none">
        <animate attributeName="stroke-dashoffset"
            from="291.55492157422384" to="0" dur="2.2s"/>
        <animate attributeName="stroke-dasharray"
            from="291.55492157422384" to="291.55492157422384"/>
    </path>
    <circle r="4" cx="5" cy="46" fill="#3023AE"/>
    <circle r="4" cx="205" cy="46" fill="#C86DD7" opacity="0">
        <animate attributeName="opacity"
            from="0" to="1" dur="0.1s" begin="2.2s" fill="freeze"/>
    </circle>
</svg>