<svg width="200" height="50" viewBox="0 0 210 50" xmlns="http://www.w3.org/2000/svg">
    <!-- 599 stargazers -->
    <!-- created at Thu Apr 02 2026 10:28:51 GMT+0000 (Coordinated Universal Time) -->
    <defs>
        <linearGradient id="stroke" x1="0%" y1="0%" x2="100%" y2="0%">
            <stop stop-color="#3023AE" offset="0%"/>
            <stop stop-color="#C86DD7" offset="100%"/>
        </linearGradient>
    </defs>
    <path stroke="url(#stroke)"
        stroke-width="3"
        stroke-linejoin="round"
        stroke-linecap="round"
        d="M5.00 46.0001 C 5.30 44.53, 8.89 22.41, 10.00 21.40 S 14.24 35.60, 15.00 36.89 S 18.69 37.69, 20.00 38.42 S 23.50 42.42, 25.00 42.49 S 28.61 39.42, 30.00 38.86 S 33.51 38.64, 35.00 38.48 S 38.50 37.86, 40.00 37.75 S 43.50 37.86, 45.00 37.75 S 48.54 37.40, 50.00 37.03 S 53.52 35.01, 55.00 35.25 S 59.31 39.97, 60.00 38.64 S 63.54 16.36, 65.00 16.00 S 69.36 34.82, 70.00 36.18 S 73.63 36.77, 75.00 37.38 S 78.50 40.64, 80.00 40.57 S 83.58 37.38, 85.00 36.91 S 88.52 37.06, 90.00 37.29 S 93.51 38.31, 95.00 38.46 S 98.50 38.34, 100.00 38.29 S 103.50 38.17, 105.00 38.13 S 108.59 38.49, 110.00 37.96 S 113.55 34.01, 115.00 34.41 S 118.66 40.05, 120.00 40.72 S 123.50 39.44, 125.00 39.41 S 128.55 40.14, 130.00 40.52 S 133.50 42.09, 135.00 42.06 S 138.84 41.29, 140.00 40.34 S 143.52 33.57, 145.00 33.80 S 148.53 41.58, 150.00 41.87 S 154.00 36.85, 155.00 35.73 S 158.56 30.26, 160.00 30.66 S 163.75 37.70, 165.00 38.53 S 168.80 36.35, 170.00 37.25 S 173.54 45.65, 175.00 46.00 S 178.74 40.46, 180.00 39.65 S 183.65 40.23, 185.00 39.57 S 188.52 34.46, 190.00 34.72 S 193.64 40.71, 195.00 41.34 S 198.50 39.35, 200.00 39.33 S 203.60 40.70, 205.00 41.23"
        fill="none">
        <animate attributeName="stroke-dashoffset"
            from="312.7877191668389" to="0" dur="2.2s"/>
        <animate attributeName="stroke-dasharray"
            from="312.7877191668389" to="312.7877191668389"/>
    </path>
    <circle r="4" cx="5" cy="46" fill="#3023AE"/>
    <circle r="4" cx="205" cy="41.22891517653379" fill="#C86DD7" opacity="0">
        <animate attributeName="opacity"
            from="0" to="1" dur="0.1s" begin="2.2s" fill="freeze"/>
    </circle>
</svg>