<svg width="200" height="50" viewBox="0 0 210 50" xmlns="http://www.w3.org/2000/svg">
    <!-- 598 stargazers -->
    <!-- created at Thu Mar 12 2026 11:04:07 GMT+0000 (Coordinated Universal Time) -->
    <defs>
        <linearGradient id="stroke" x1="0%" y1="0%" x2="100%" y2="0%">
            <stop stop-color="#3023AE" offset="0%"/>
            <stop stop-color="#C86DD7" offset="100%"/>
        </linearGradient>
    </defs>
    <path stroke="url(#stroke)"
        stroke-width="3"
        stroke-linejoin="round"
        stroke-linecap="round"
        d="M5.00 46.0001 C 5.30 44.53, 8.90 22.19, 10.00 21.18 S 14.25 35.51, 15.00 36.81 S 18.69 37.61, 20.00 38.35 S 23.51 42.29, 25.00 42.46 S 28.61 40.05, 30.00 39.49 S 33.54 38.77, 35.00 38.41 S 38.50 37.00, 40.00 37.01 S 43.51 38.30, 45.00 38.47 S 48.55 38.54, 50.00 38.16 S 53.54 36.19, 55.00 35.85 S 59.33 37.22, 60.00 35.88 S 63.50 15.90, 65.00 16.00 S 69.35 35.19, 70.00 36.55 S 73.52 36.52, 75.00 36.77 S 78.71 37.49, 80.00 38.26 S 83.62 43.34, 85.00 42.76 S 88.52 34.25, 90.00 34.01 S 93.55 40.79, 95.00 41.19 S 98.54 37.13, 100.00 36.79 S 103.50 38.95, 105.00 38.89 S 108.53 36.69, 110.00 36.40 S 113.50 36.88, 115.00 36.94 S 118.67 36.07, 120.00 36.76 S 123.54 41.80, 125.00 42.16 S 128.52 39.49, 130.00 39.23 S 133.55 39.98, 135.00 40.38 S 138.50 41.99, 140.00 41.96 S 143.86 41.16, 145.00 40.19 S 148.52 33.26, 150.00 33.49 S 153.53 41.48, 155.00 41.77 S 159.01 36.61, 160.00 35.48 S 163.56 29.88, 165.00 30.30 S 168.76 37.51, 170.00 38.35 S 173.81 36.14, 175.00 37.05 S 178.62 45.40, 180.00 46.00 S 183.75 42.23, 185.00 41.41 S 188.59 39.93, 190.00 39.43 S 193.61 38.42, 195.00 37.85 S 198.51 35.16, 200.00 35.36 S 203.81 38.28, 205.00 39.19"
        fill="none">
        <animate attributeName="stroke-dashoffset"
            from="316.1738741803685" to="0" dur="2.2s"/>
        <animate attributeName="stroke-dasharray"
            from="316.1738741803685" to="316.1738741803685"/>
    </path>
    <circle r="4" cx="5" cy="46" fill="#3023AE"/>
    <circle r="4" cx="205" cy="39.1898998967032" fill="#C86DD7" opacity="0">
        <animate attributeName="opacity"
            from="0" to="1" dur="0.1s" begin="2.2s" fill="freeze"/>
    </circle>
</svg>