<svg width="200" height="50" viewBox="0 0 210 50" xmlns="http://www.w3.org/2000/svg">
    <!-- 599 stargazers -->
    <!-- created at Mon May 11 2026 08:48:12 GMT+0000 (Coordinated Universal Time) -->
    <defs>
        <linearGradient id="stroke" x1="0%" y1="0%" x2="100%" y2="0%">
            <stop stop-color="#3023AE" offset="0%"/>
            <stop stop-color="#C86DD7" offset="100%"/>
        </linearGradient>
    </defs>
    <path stroke="url(#stroke)"
        stroke-width="3"
        stroke-linejoin="round"
        stroke-linecap="round"
        d="M5.00 46.0001 C 5.29 44.53, 8.95 21.30, 10.00 20.22 S 14.30 34.40, 15.00 35.73 S 18.71 38.32, 20.00 39.09 S 23.50 41.82, 25.00 41.73 S 28.67 39.19, 30.00 38.49 S 33.50 36.39, 35.00 36.45 S 38.50 38.84, 40.00 38.91 S 43.53 37.22, 45.00 36.93 S 48.56 37.39, 50.00 36.96 S 54.35 35.36, 55.00 34.00 S 58.50 15.90, 60.00 16.00 S 64.36 33.33, 65.00 34.68 S 68.56 36.77, 70.00 37.18 S 73.69 36.79, 75.00 37.51 S 78.59 43.22, 80.00 42.70 S 83.63 34.41, 85.00 33.80 S 88.62 37.66, 90.00 38.25 S 93.51 38.24, 95.00 38.07 S 98.50 37.17, 100.00 37.11 S 103.57 38.15, 105.00 37.71 S 108.56 33.63, 110.00 34.04 S 113.67 39.86, 115.00 40.54 S 118.50 39.22, 120.00 39.19 S 123.55 39.94, 125.00 40.34 S 128.50 41.95, 130.00 41.92 S 133.86 41.11, 135.00 40.14 S 138.50 33.39, 140.00 33.36 S 143.51 39.78, 145.00 39.95 S 148.93 35.55, 150.00 34.50 S 153.52 29.87, 155.00 30.09 S 159.20 34.72, 160.00 35.99 S 163.68 45.29, 165.00 46.00 S 168.83 42.34, 170.00 41.40 S 173.77 38.78, 175.00 37.92 S 178.58 33.95, 180.00 34.42 S 183.64 40.57, 185.00 41.21 S 188.50 39.16, 190.00 39.15 S 193.50 41.12, 195.00 41.09 S 198.65 38.32, 200.00 38.98 S 204.13 44.78, 205.00 46.00"
        fill="none">
        <animate attributeName="stroke-dashoffset"
            from="316.6422727900033" to="0" dur="2.2s"/>
        <animate attributeName="stroke-dasharray"
            from="316.6422727900033" to="316.6422727900033"/>
    </path>
    <circle r="4" cx="5" cy="46" fill="#3023AE"/>
    <circle r="4" cx="205" cy="46" fill="#C86DD7" opacity="0">
        <animate attributeName="opacity"
            from="0" to="1" dur="0.1s" begin="2.2s" fill="freeze"/>
    </circle>
</svg>