<svg width="200" height="50" viewBox="0 0 210 50" xmlns="http://www.w3.org/2000/svg">
    <!-- 599 stargazers -->
    <!-- created at Sun Apr 26 2026 07:51:08 GMT+0000 (Coordinated Universal Time) -->
    <defs>
        <linearGradient id="stroke" x1="0%" y1="0%" x2="100%" y2="0%">
            <stop stop-color="#3023AE" offset="0%"/>
            <stop stop-color="#C86DD7" offset="100%"/>
        </linearGradient>
    </defs>
    <path stroke="url(#stroke)"
        stroke-width="3"
        stroke-linejoin="round"
        stroke-linecap="round"
        d="M5.00 46.0001 C 5.29 44.53, 8.93 21.27, 10.00 20.22 S 14.27 34.93, 15.00 36.24 S 18.69 37.55, 20.00 38.28 S 23.50 41.70, 25.00 41.73 S 28.64 39.12, 30.00 38.49 S 33.50 37.13, 35.00 37.07 S 38.50 38.04, 40.00 38.08 S 43.51 37.49, 45.00 37.32 S 48.58 37.44, 50.00 36.96 S 54.35 35.36, 55.00 34.00 S 58.58 15.51, 60.00 16.00 S 64.29 36.12, 65.00 37.45 S 68.50 34.75, 70.00 34.76 S 73.69 36.79, 75.00 37.51 S 78.52 40.54, 80.00 40.29 S 83.55 36.25, 85.00 35.85 S 88.50 37.40, 90.00 37.51 S 93.51 36.43, 95.00 36.61 S 98.50 38.81, 100.00 38.74 S 103.58 36.68, 105.00 36.19 S 108.53 34.99, 110.00 35.30 S 113.60 37.74, 115.00 38.28 S 118.50 39.07, 120.00 39.19 S 123.55 38.67, 125.00 39.06 S 128.51 41.76, 130.00 41.92 S 133.86 41.11, 135.00 40.14 S 138.52 33.13, 140.00 33.36 S 143.53 41.43, 145.00 41.72 S 149.02 36.49, 150.00 35.35 S 153.56 29.67, 155.00 30.09 S 158.76 37.40, 160.00 38.24 S 163.81 36.00, 165.00 36.92 S 168.54 45.64, 170.00 46.00 S 173.84 40.35, 175.00 39.40 S 178.61 38.38, 180.00 37.81 S 183.51 35.10, 185.00 35.30 S 188.60 38.62, 190.00 39.15 S 193.76 38.21, 195.00 39.06 S 198.50 46.02, 200.00 46.00 S 204.14 40.13, 205.00 38.90"
        fill="none">
        <animate attributeName="stroke-dashoffset"
            from="315.0844614819754" to="0" dur="2.2s"/>
        <animate attributeName="stroke-dasharray"
            from="315.0844614819754" to="315.0844614819754"/>
    </path>
    <circle r="4" cx="5" cy="46" fill="#3023AE"/>
    <circle r="4" cx="205" cy="38.898903786549404" fill="#C86DD7" opacity="0">
        <animate attributeName="opacity"
            from="0" to="1" dur="0.1s" begin="2.2s" fill="freeze"/>
    </circle>
</svg>