<svg width="200" height="50" viewBox="0 0 210 50" xmlns="http://www.w3.org/2000/svg">
    <!-- 596 stargazers -->
    <!-- created at Wed Mar 04 2026 14:05:10 GMT+0000 (Coordinated Universal Time) -->
    <defs>
        <linearGradient id="stroke" x1="0%" y1="0%" x2="100%" y2="0%">
            <stop stop-color="#3023AE" offset="0%"/>
            <stop stop-color="#C86DD7" offset="100%"/>
        </linearGradient>
    </defs>
    <path stroke="url(#stroke)"
        stroke-width="3"
        stroke-linejoin="round"
        stroke-linecap="round"
        d="M5.00 46.0001 C 5.29 44.53, 8.90 22.08, 10.00 21.06 S 14.25 35.47, 15.00 36.76 S 18.70 37.57, 20.00 38.31 S 23.51 42.27, 25.00 42.44 S 28.59 39.98, 30.00 39.46 S 33.54 39.09, 35.00 38.72 S 38.50 37.07, 40.00 36.97 S 43.51 37.85, 45.00 38.03 S 48.53 38.40, 50.00 38.12 S 53.55 36.56, 55.00 36.18 S 59.33 36.79, 60.00 35.45 S 63.50 15.91, 65.00 16.00 S 69.36 34.68, 70.00 36.04 S 73.52 37.03, 75.00 37.26 S 78.68 36.87, 80.00 37.60 S 83.51 42.90, 85.00 42.74 S 88.70 37.30, 90.00 36.55 S 93.52 36.71, 95.00 36.96 S 98.50 38.14, 100.00 38.18 S 103.52 37.52, 105.00 37.25 S 108.54 36.02, 110.00 36.36 S 113.52 39.82, 115.00 39.56 S 118.55 34.26, 120.00 34.64 S 123.64 41.52, 125.00 42.14 S 128.52 39.46, 130.00 39.20 S 133.55 39.96, 135.00 40.35 S 138.50 41.97, 140.00 41.94 S 143.86 41.14, 145.00 40.17 S 148.52 33.20, 150.00 33.43 S 153.60 41.20, 155.00 41.75 S 158.63 37.99, 160.00 37.37 S 163.76 38.09, 165.00 37.25 S 168.51 30.83, 170.00 30.63 S 173.98 34.85, 175.00 35.95 S 178.68 40.73, 180.00 41.45 S 183.53 41.69, 185.00 41.39 S 188.53 39.70, 190.00 39.40 S 193.61 39.88, 195.00 39.32 S 198.52 35.03, 200.00 35.31 S 204.03 40.02, 205.00 41.16"
        fill="none">
        <animate attributeName="stroke-dashoffset"
            from="306.3299218155246" to="0" dur="2.2s"/>
        <animate attributeName="stroke-dasharray"
            from="306.3299218155246" to="306.3299218155246"/>
    </path>
    <circle r="4" cx="5" cy="46" fill="#3023AE"/>
    <circle r="4" cx="205" cy="41.161870885522816" fill="#C86DD7" opacity="0">
        <animate attributeName="opacity"
            from="0" to="1" dur="0.1s" begin="2.2s" fill="freeze"/>
    </circle>
</svg>