<svg width="200" height="50" viewBox="0 0 210 50" xmlns="http://www.w3.org/2000/svg">
    <!-- 599 stargazers -->
    <!-- created at Thu Apr 23 2026 06:12:01 GMT+0000 (Coordinated Universal Time) -->
    <defs>
        <linearGradient id="stroke" x1="0%" y1="0%" x2="100%" y2="0%">
            <stop stop-color="#3023AE" offset="0%"/>
            <stop stop-color="#C86DD7" offset="100%"/>
        </linearGradient>
    </defs>
    <path stroke="url(#stroke)"
        stroke-width="3"
        stroke-linejoin="round"
        stroke-linecap="round"
        d="M5.00 46.0001 C 5.28 44.53, 8.94 20.78, 10.00 19.72 S 14.28 34.73, 15.00 36.05 S 18.69 37.39, 20.00 38.12 S 23.50 41.62, 25.00 41.65 S 28.65 38.99, 30.00 38.34 S 33.50 36.95, 35.00 36.89 S 38.50 37.88, 40.00 37.92 S 43.51 37.32, 45.00 37.15 S 48.58 37.27, 50.00 36.79 S 54.35 35.12, 55.00 33.77 S 58.52 15.77, 60.00 16.00 S 64.29 34.00, 65.00 35.32 S 68.53 34.24, 70.00 34.54 S 73.69 36.61, 75.00 37.35 S 78.51 40.34, 80.00 40.18 S 83.59 36.74, 85.00 36.25 S 88.50 36.62, 90.00 36.65 S 93.53 36.14, 95.00 36.43 S 98.50 38.67, 100.00 38.60 S 103.58 36.50, 105.00 36.00 S 108.53 34.78, 110.00 35.09 S 113.77 37.28, 115.00 38.13 S 118.51 42.18, 120.00 41.99 S 123.50 36.89, 125.00 36.87 S 128.57 41.39, 130.00 41.85 S 133.83 40.96, 135.00 40.02 S 138.50 33.88, 140.00 33.85 S 143.51 39.63, 145.00 39.83 S 148.87 36.13, 150.00 35.14 S 153.50 30.98, 155.00 31.08 S 158.69 35.05, 160.00 35.79 S 163.95 35.67, 165.00 36.74 S 168.55 45.63, 170.00 46.00 S 173.85 40.23, 175.00 39.27 S 178.62 38.23, 180.00 37.65 S 183.58 34.60, 185.00 35.09 S 188.60 40.52, 190.00 41.06 S 193.50 38.94, 195.00 38.93 S 198.50 40.96, 200.00 40.94 S 203.62 39.36, 205.00 38.76"
        fill="none">
        <animate attributeName="stroke-dashoffset"
            from="305.5702680704684" to="0" dur="2.2s"/>
        <animate attributeName="stroke-dasharray"
            from="305.5702680704684" to="305.5702680704684"/>
    </path>
    <circle r="4" cx="5" cy="46" fill="#3023AE"/>
    <circle r="4" cx="205" cy="38.75965335027147" fill="#C86DD7" opacity="0">
        <animate attributeName="opacity"
            from="0" to="1" dur="0.1s" begin="2.2s" fill="freeze"/>
    </circle>
</svg>