<svg width="200" height="50" viewBox="0 0 210 50" xmlns="http://www.w3.org/2000/svg">
    <!-- 599 stargazers -->
    <!-- created at Sat Apr 11 2026 11:14:01 GMT+0000 (Coordinated Universal Time) -->
    <defs>
        <linearGradient id="stroke" x1="0%" y1="0%" x2="100%" y2="0%">
            <stop stop-color="#3023AE" offset="0%"/>
            <stop stop-color="#C86DD7" offset="100%"/>
        </linearGradient>
    </defs>
    <path stroke="url(#stroke)"
        stroke-width="3"
        stroke-linejoin="round"
        stroke-linecap="round"
        d="M5.00 46.0001 C 5.25 44.52, 9.00 17.11, 10.00 16.00 S 14.35 33.54, 15.00 34.89 S 18.76 35.91, 20.00 36.75 S 23.50 41.69, 25.00 41.72 S 28.65 37.57, 30.00 36.91 S 33.50 36.90, 35.00 36.82 S 38.52 36.63, 40.00 36.37 S 43.51 35.19, 45.00 35.06 S 48.53 35.85, 50.00 35.53 S 54.30 34.22, 55.00 32.89 S 58.89 17.62, 60.00 16.62 S 64.25 22.53, 65.00 23.83 S 69.02 32.88, 70.00 34.02 S 73.62 34.89, 75.00 35.48 S 78.50 38.34, 80.00 38.36 S 83.56 36.06, 85.00 35.63 S 88.51 35.20, 90.00 35.37 S 93.50 36.88, 95.00 36.81 S 98.53 35.19, 100.00 34.88 S 103.59 34.14, 105.00 34.64 S 108.53 38.71, 110.00 38.41 S 113.56 32.15, 115.00 32.59 S 118.68 40.73, 120.00 41.44 S 123.53 38.27, 125.00 37.96 S 128.57 38.86, 130.00 39.32 S 133.50 41.23, 135.00 41.20 S 138.94 40.16, 140.00 39.09 S 143.50 31.15, 145.00 31.12 S 148.51 38.67, 150.00 38.87 S 153.98 33.57, 155.00 32.47 S 158.56 27.59, 160.00 28.02 S 163.96 34.39, 165.00 35.47 S 168.66 37.77, 170.00 38.45 S 173.50 40.62, 175.00 40.59 S 178.62 38.83, 180.00 38.25 S 183.65 37.04, 185.00 36.39 S 188.60 32.89, 190.00 33.44 S 193.63 39.71, 195.00 40.31 S 198.70 37.12, 200.00 37.86 S 204.21 44.72, 205.00 46.00"
        fill="none">
        <animate attributeName="stroke-dashoffset"
            from="313.6609267444339" to="0" dur="2.2s"/>
        <animate attributeName="stroke-dasharray"
            from="313.6609267444339" to="313.6609267444339"/>
    </path>
    <circle r="4" cx="5" cy="46" fill="#3023AE"/>
    <circle r="4" cx="205" cy="46" fill="#C86DD7" opacity="0">
        <animate attributeName="opacity"
            from="0" to="1" dur="0.1s" begin="2.2s" fill="freeze"/>
    </circle>
</svg>