<svg width="200" height="50" viewBox="0 0 210 50" xmlns="http://www.w3.org/2000/svg">
    <!-- 599 stargazers -->
    <!-- created at Fri Mar 27 2026 11:44:42 GMT+0000 (Coordinated Universal Time) -->
    <defs>
        <linearGradient id="stroke" x1="0%" y1="0%" x2="100%" y2="0%">
            <stop stop-color="#3023AE" offset="0%"/>
            <stop stop-color="#C86DD7" offset="100%"/>
        </linearGradient>
    </defs>
    <path stroke="url(#stroke)"
        stroke-width="3"
        stroke-linejoin="round"
        stroke-linecap="round"
        d="M5.00 46.0001 C 5.30 44.53, 8.89 22.30, 10.00 21.29 S 14.24 35.56, 15.00 36.85 S 18.69 37.65, 20.00 38.38 S 23.50 42.41, 25.00 42.47 S 28.59 39.35, 30.00 38.83 S 33.52 39.01, 35.00 38.79 S 38.51 37.54, 40.00 37.38 S 43.50 37.77, 45.00 37.71 S 48.53 37.31, 50.00 36.99 S 53.51 35.38, 55.00 35.54 S 59.32 39.43, 60.00 38.10 S 63.51 16.15, 65.00 16.00 S 69.36 35.71, 70.00 37.07 S 73.51 37.16, 75.00 37.34 S 78.50 38.36, 80.00 38.29 S 83.50 36.93, 85.00 36.87 S 88.51 37.77, 90.00 37.90 S 93.51 37.53, 95.00 37.70 S 98.50 39.13, 100.00 39.07 S 103.51 37.51, 105.00 37.33 S 108.52 38.18, 110.00 37.93 S 113.52 35.35, 115.00 35.58 S 118.60 38.97, 120.00 39.50 S 123.50 39.42, 125.00 39.38 S 128.55 38.88, 130.00 39.26 S 133.51 41.89, 135.00 42.04 S 138.81 41.22, 140.00 40.31 S 143.50 34.47, 145.00 34.44 S 148.57 39.68, 150.00 40.13 S 153.64 38.20, 155.00 37.57 S 158.75 36.36, 160.00 35.53 S 163.56 30.57, 165.00 30.98 S 168.97 37.30, 170.00 38.39 S 173.57 41.10, 175.00 41.55 S 178.53 41.78, 180.00 41.49 S 183.58 40.03, 185.00 39.54 S 188.61 38.54, 190.00 37.99 S 193.51 35.33, 195.00 35.53 S 198.70 38.56, 200.00 39.30 S 203.60 40.67, 205.00 41.21"
        fill="none">
        <animate attributeName="stroke-dashoffset"
            from="292.36498062212763" to="0" dur="2.2s"/>
        <animate attributeName="stroke-dasharray"
            from="292.36498062212763" to="292.36498062212763"/>
    </path>
    <circle r="4" cx="5" cy="46" fill="#3023AE"/>
    <circle r="4" cx="205" cy="41.2068777159684" fill="#C86DD7" opacity="0">
        <animate attributeName="opacity"
            from="0" to="1" dur="0.1s" begin="2.2s" fill="freeze"/>
    </circle>
</svg>