<svg width="200" height="50" viewBox="0 0 210 50" xmlns="http://www.w3.org/2000/svg">
    <!-- 599 stargazers -->
    <!-- created at Wed Apr 29 2026 07:57:11 GMT+0000 (Coordinated Universal Time) -->
    <defs>
        <linearGradient id="stroke" x1="0%" y1="0%" x2="100%" y2="0%">
            <stop stop-color="#3023AE" offset="0%"/>
            <stop stop-color="#C86DD7" offset="100%"/>
        </linearGradient>
    </defs>
    <path stroke="url(#stroke)"
        stroke-width="3"
        stroke-linejoin="round"
        stroke-linecap="round"
        d="M5.00 46.0001 C 5.29 44.53, 8.95 21.30, 10.00 20.22 S 14.30 34.40, 15.00 35.73 S 18.71 38.32, 20.00 39.09 S 23.50 41.82, 25.00 41.73 S 28.66 39.16, 30.00 38.49 S 33.50 36.75, 35.00 36.75 S 38.50 38.40, 40.00 38.48 S 43.52 37.55, 45.00 37.32 S 48.59 37.48, 50.00 36.96 S 54.35 35.03, 55.00 33.67 S 58.57 15.54, 60.00 16.00 S 64.31 35.60, 65.00 36.93 S 68.50 35.20, 70.00 35.20 S 73.80 36.03, 75.00 36.93 S 78.53 43.02, 80.00 42.70 S 83.59 35.29, 85.00 34.78 S 88.52 38.80, 90.00 39.07 S 93.50 36.66, 95.00 36.61 S 98.51 38.91, 100.00 38.74 S 103.55 35.92, 105.00 35.52 S 108.55 35.59, 110.00 35.99 S 113.57 37.83, 115.00 38.28 S 118.50 39.07, 120.00 39.19 S 123.55 38.67, 125.00 39.06 S 128.51 41.76, 130.00 41.92 S 133.86 41.11, 135.00 40.14 S 138.52 33.13, 140.00 33.36 S 143.53 41.43, 145.00 41.72 S 149.05 36.51, 150.00 35.35 S 153.56 29.07, 155.00 29.49 S 158.87 37.26, 160.00 38.24 S 163.81 37.22, 165.00 38.13 S 168.50 46.03, 170.00 46.00 S 173.75 38.75, 175.00 37.92 S 178.55 39.70, 180.00 39.32 S 183.50 35.32, 185.00 35.30 S 188.60 38.62, 190.00 39.15 S 193.76 38.21, 195.00 39.06 S 198.50 46.02, 200.00 46.00 S 204.14 40.13, 205.00 38.90"
        fill="none">
        <animate attributeName="stroke-dashoffset"
            from="322.25624103853045" to="0" dur="2.2s"/>
        <animate attributeName="stroke-dasharray"
            from="322.25624103853045" to="322.25624103853045"/>
    </path>
    <circle r="4" cx="5" cy="46" fill="#3023AE"/>
    <circle r="4" cx="205" cy="38.89890378654967" fill="#C86DD7" opacity="0">
        <animate attributeName="opacity"
            from="0" to="1" dur="0.1s" begin="2.2s" fill="freeze"/>
    </circle>
</svg>