<svg width="200" height="50" viewBox="0 0 210 50" xmlns="http://www.w3.org/2000/svg">
    <!-- 599 stargazers -->
    <!-- created at Tue Apr 14 2026 11:15:02 GMT+0000 (Coordinated Universal Time) -->
    <defs>
        <linearGradient id="stroke" x1="0%" y1="0%" x2="100%" y2="0%">
            <stop stop-color="#3023AE" offset="0%"/>
            <stop stop-color="#C86DD7" offset="100%"/>
        </linearGradient>
    </defs>
    <path stroke="url(#stroke)"
        stroke-width="3"
        stroke-linejoin="round"
        stroke-linecap="round"
        d="M5.00 46.0001 C 5.27 44.52, 8.95 19.27, 10.00 18.19 S 14.31 34.37, 15.00 35.70 S 18.70 36.69, 20.00 37.43 S 23.50 41.34, 25.00 41.42 S 28.60 38.48, 30.00 37.93 S 33.51 37.68, 35.00 37.49 S 38.51 36.86, 40.00 36.68 S 43.50 36.32, 45.00 36.26 S 48.54 36.65, 50.00 36.29 S 54.34 35.19, 55.00 33.85 S 58.60 16.53, 60.00 16.00 S 64.28 28.77, 65.00 30.09 S 68.76 33.56, 70.00 34.40 S 73.63 36.26, 75.00 36.88 S 78.51 39.09, 80.00 38.92 S 83.55 36.12, 85.00 35.72 S 88.52 35.89, 90.00 36.15 S 93.50 37.43, 95.00 37.48 S 98.53 36.75, 100.00 36.45 S 103.51 35.26, 105.00 35.47 S 108.51 38.05, 110.00 37.87 S 113.60 33.73, 115.00 34.28 S 118.62 41.19, 120.00 41.78 S 123.58 39.03, 125.00 38.55 S 128.80 37.52, 130.00 38.42 S 133.51 45.82, 135.00 46.00 S 139.12 40.81, 140.00 39.60 S 143.50 32.23, 145.00 32.20 S 148.51 39.21, 150.00 39.40 S 153.94 34.52, 155.00 33.46 S 158.56 28.94, 160.00 29.34 S 163.92 35.20, 165.00 36.24 S 168.64 38.36, 170.00 39.01 S 173.50 41.02, 175.00 40.99 S 178.60 39.36, 180.00 38.82 S 183.63 37.70, 185.00 37.09 S 188.52 34.14, 190.00 34.36 S 193.73 37.75, 195.00 38.55 S 198.80 39.77, 200.00 40.67 S 203.97 44.91, 205.00 46.00"
        fill="none">
        <animate attributeName="stroke-dashoffset"
            from="306.9107166639817" to="0" dur="2.2s"/>
        <animate attributeName="stroke-dasharray"
            from="306.9107166639817" to="306.9107166639817"/>
    </path>
    <circle r="4" cx="5" cy="46" fill="#3023AE"/>
    <circle r="4" cx="205" cy="46" fill="#C86DD7" opacity="0">
        <animate attributeName="opacity"
            from="0" to="1" dur="0.1s" begin="2.2s" fill="freeze"/>
    </circle>
</svg>