<svg width="200" height="50" viewBox="0 0 210 50" xmlns="http://www.w3.org/2000/svg">
    <!-- 599 stargazers -->
    <!-- created at Sat May 02 2026 08:30:38 GMT+0000 (Coordinated Universal Time) -->
    <defs>
        <linearGradient id="stroke" x1="0%" y1="0%" x2="100%" y2="0%">
            <stop stop-color="#3023AE" offset="0%"/>
            <stop stop-color="#C86DD7" offset="100%"/>
        </linearGradient>
    </defs>
    <path stroke="url(#stroke)"
        stroke-width="3"
        stroke-linejoin="round"
        stroke-linecap="round"
        d="M5.00 46.0001 C 5.29 44.53, 8.95 21.30, 10.00 20.22 S 14.30 34.40, 15.00 35.73 S 18.71 38.32, 20.00 39.09 S 23.50 41.82, 25.00 41.73 S 28.66 39.16, 30.00 38.49 S 33.50 36.75, 35.00 36.75 S 38.50 38.40, 40.00 38.48 S 43.52 37.55, 45.00 37.32 S 48.59 37.48, 50.00 36.96 S 54.35 35.03, 55.00 33.67 S 58.55 15.60, 60.00 16.00 S 64.32 35.10, 65.00 36.44 S 68.50 35.59, 70.00 35.66 S 73.77 36.06, 75.00 36.93 S 78.57 43.15, 80.00 42.70 S 83.52 34.04, 85.00 33.80 S 88.56 40.69, 90.00 41.10 S 93.61 37.17, 95.00 36.61 S 98.50 37.07, 100.00 37.11 S 103.52 37.19, 105.00 36.92 S 108.54 34.95, 110.00 35.30 S 113.60 38.77, 115.00 39.32 S 118.50 39.23, 120.00 39.19 S 123.55 38.67, 125.00 39.06 S 128.51 41.76, 130.00 41.92 S 133.86 41.11, 135.00 40.14 S 138.52 33.13, 140.00 33.36 S 143.50 41.67, 145.00 41.72 S 148.99 34.81, 150.00 33.70 S 153.58 30.24, 155.00 30.71 S 158.88 36.05, 160.00 37.04 S 163.62 38.98, 165.00 39.58 S 168.50 41.42, 170.00 41.40 S 173.59 39.91, 175.00 39.40 S 178.61 38.38, 180.00 37.81 S 183.51 35.10, 185.00 35.30 S 188.70 38.39, 190.00 39.15 S 193.76 40.25, 195.00 41.09 S 198.53 46.32, 200.00 46.00 S 204.14 40.13, 205.00 38.90"
        fill="none">
        <animate attributeName="stroke-dashoffset"
            from="312.66392064008846" to="0" dur="2.2s"/>
        <animate attributeName="stroke-dasharray"
            from="312.66392064008846" to="312.66392064008846"/>
    </path>
    <circle r="4" cx="5" cy="46" fill="#3023AE"/>
    <circle r="4" cx="205" cy="38.898903786549354" fill="#C86DD7" opacity="0">
        <animate attributeName="opacity"
            from="0" to="1" dur="0.1s" begin="2.2s" fill="freeze"/>
    </circle>
</svg>