<svg width="200" height="50" viewBox="0 0 210 50" xmlns="http://www.w3.org/2000/svg">
    <!-- 599 stargazers -->
    <!-- created at Wed Apr 08 2026 11:05:58 GMT+0000 (Coordinated Universal Time) -->
    <defs>
        <linearGradient id="stroke" x1="0%" y1="0%" x2="100%" y2="0%">
            <stop stop-color="#3023AE" offset="0%"/>
            <stop stop-color="#C86DD7" offset="100%"/>
        </linearGradient>
    </defs>
    <path stroke="url(#stroke)"
        stroke-width="3"
        stroke-linejoin="round"
        stroke-linecap="round"
        d="M5.00 46.0001 C 5.25 44.52, 9.00 17.11, 10.00 16.00 S 14.35 33.54, 15.00 34.89 S 18.76 35.91, 20.00 36.75 S 23.50 41.64, 25.00 41.72 S 28.67 38.00, 30.00 37.30 S 33.51 36.55, 35.00 36.41 S 38.51 36.51, 40.00 36.37 S 43.51 35.69, 45.00 35.49 S 48.53 35.38, 50.00 35.06 S 54.08 34.49, 55.00 33.31 S 59.20 23.52, 60.00 22.25 S 64.03 16.17, 65.00 17.31 S 69.28 32.70, 70.00 34.02 S 73.62 34.89, 75.00 35.48 S 78.50 38.34, 80.00 38.36 S 83.56 36.06, 85.00 35.63 S 88.51 35.20, 90.00 35.37 S 93.51 36.62, 95.00 36.81 S 98.53 36.92, 100.00 36.60 S 103.50 34.70, 105.00 34.64 S 108.53 36.50, 110.00 36.20 S 113.67 31.89, 115.00 32.59 S 118.68 40.73, 120.00 41.44 S 123.53 38.27, 125.00 37.96 S 128.57 38.86, 130.00 39.32 S 133.50 41.23, 135.00 41.20 S 138.94 40.16, 140.00 39.09 S 143.53 30.84, 145.00 31.12 S 148.50 40.90, 150.00 40.96 S 154.08 32.72, 155.00 31.53 S 158.60 27.47, 160.00 28.02 S 163.96 34.39, 165.00 35.47 S 168.97 37.37, 170.00 38.45 S 173.50 46.03, 175.00 46.00 S 178.92 39.29, 180.00 38.25 S 183.65 37.04, 185.00 36.39 S 188.52 33.21, 190.00 33.44 S 193.76 37.12, 195.00 37.96 S 198.54 39.92, 200.00 40.25 S 203.50 40.20, 205.00 40.18"
        fill="none">
        <animate attributeName="stroke-dashoffset"
            from="314.4786961064814" to="0" dur="2.2s"/>
        <animate attributeName="stroke-dasharray"
            from="314.4786961064814" to="314.4786961064814"/>
    </path>
    <circle r="4" cx="5" cy="46" fill="#3023AE"/>
    <circle r="4" cx="205" cy="40.18065063415567" fill="#C86DD7" opacity="0">
        <animate attributeName="opacity"
            from="0" to="1" dur="0.1s" begin="2.2s" fill="freeze"/>
    </circle>
</svg>