<svg width="200" height="50" viewBox="0 0 210 50" xmlns="http://www.w3.org/2000/svg">
    <!-- 599 stargazers -->
    <!-- created at Tue Apr 14 2026 17:54:42 GMT+0000 (Coordinated Universal Time) -->
    <defs>
        <linearGradient id="stroke" x1="0%" y1="0%" x2="100%" y2="0%">
            <stop stop-color="#3023AE" offset="0%"/>
            <stop stop-color="#C86DD7" offset="100%"/>
        </linearGradient>
    </defs>
    <path stroke="url(#stroke)"
        stroke-width="3"
        stroke-linejoin="round"
        stroke-linecap="round"
        d="M5.00 46.0001 C 5.27 44.52, 8.95 19.57, 10.00 18.50 S 14.30 34.49, 15.00 35.82 S 18.69 36.79, 20.00 37.52 S 23.50 41.39, 25.00 41.47 S 28.60 38.56, 30.00 38.02 S 33.51 37.77, 35.00 37.59 S 38.51 36.96, 40.00 36.78 S 43.50 36.42, 45.00 36.37 S 48.54 36.75, 50.00 36.40 S 54.34 35.33, 55.00 33.98 S 58.57 16.44, 60.00 16.00 S 64.29 29.61, 65.00 30.93 S 68.72 33.75, 70.00 34.52 S 73.63 36.37, 75.00 36.98 S 78.51 39.17, 80.00 38.99 S 83.55 36.23, 85.00 35.83 S 88.52 36.00, 90.00 36.26 S 93.50 37.52, 95.00 37.57 S 98.53 36.85, 100.00 36.56 S 103.51 35.37, 105.00 35.58 S 108.51 38.14, 110.00 37.96 S 113.60 33.86, 115.00 34.41 S 118.62 41.24, 120.00 41.82 S 123.58 39.10, 125.00 38.63 S 128.79 37.61, 130.00 38.50 S 133.51 45.83, 135.00 46.00 S 139.11 40.88, 140.00 39.67 S 143.50 32.38, 145.00 32.35 S 148.51 39.28, 150.00 39.47 S 153.94 34.65, 155.00 33.59 S 158.52 29.28, 160.00 29.52 S 164.02 34.07, 165.00 35.21 S 168.70 40.35, 170.00 41.11 S 173.54 41.37, 175.00 41.04 S 178.60 39.44, 180.00 38.90 S 183.63 37.80, 185.00 37.19 S 188.52 34.27, 190.00 34.48 S 193.73 37.83, 195.00 38.63 S 198.79 39.84, 200.00 40.73 S 203.97 44.91, 205.00 46.00"
        fill="none">
        <animate attributeName="stroke-dashoffset"
            from="306.9123550166505" to="0" dur="2.2s"/>
        <animate attributeName="stroke-dasharray"
            from="306.9123550166505" to="306.9123550166505"/>
    </path>
    <circle r="4" cx="5" cy="46" fill="#3023AE"/>
    <circle r="4" cx="205" cy="46" fill="#C86DD7" opacity="0">
        <animate attributeName="opacity"
            from="0" to="1" dur="0.1s" begin="2.2s" fill="freeze"/>
    </circle>
</svg>