<svg width="200" height="50" viewBox="0 0 210 50" xmlns="http://www.w3.org/2000/svg">
    <!-- 597 stargazers -->
    <!-- created at Fri Apr 17 2026 05:38:14 GMT+0000 (Coordinated Universal Time) -->
    <defs>
        <linearGradient id="stroke" x1="0%" y1="0%" x2="100%" y2="0%">
            <stop stop-color="#3023AE" offset="0%"/>
            <stop stop-color="#C86DD7" offset="100%"/>
        </linearGradient>
    </defs>
    <path stroke="url(#stroke)"
        stroke-width="3"
        stroke-linejoin="round"
        stroke-linecap="round"
        d="M5.00 46.0001 C 5.28 44.53, 8.93 20.51, 10.00 19.45 S 14.28 34.81, 15.00 36.13 S 18.68 37.06, 20.00 37.78 S 23.50 41.53, 25.00 41.61 S 28.60 38.79, 30.00 38.27 S 33.51 38.02, 35.00 37.84 S 38.51 37.24, 40.00 37.06 S 43.50 36.72, 45.00 36.66 S 48.55 37.08, 50.00 36.69 S 54.35 35.34, 55.00 33.99 S 58.50 16.01, 60.00 16.00 S 64.30 32.61, 65.00 33.94 S 68.55 34.48, 70.00 34.88 S 73.67 35.96, 75.00 36.65 S 78.50 40.20, 80.00 40.12 S 83.59 36.65, 85.00 36.15 S 88.52 36.31, 90.00 36.56 S 93.50 37.79, 95.00 37.83 S 98.53 37.13, 100.00 36.85 S 103.50 35.96, 105.00 35.90 S 108.50 36.40, 110.00 36.46 S 113.69 35.55, 115.00 36.27 S 118.55 41.57, 120.00 41.95 S 123.57 39.32, 125.00 38.86 S 128.56 38.32, 130.00 38.73 S 133.50 41.77, 135.00 41.73 S 138.79 39.38, 140.00 38.48 S 143.52 34.55, 145.00 34.34 S 148.52 36.82, 150.00 37.05 S 153.81 36.75, 155.00 35.84 S 158.50 29.25, 160.00 29.37 S 164.03 35.50, 165.00 36.65 S 168.63 40.64, 170.00 41.26 S 173.53 41.51, 175.00 41.19 S 178.59 39.64, 180.00 39.12 S 183.62 38.05, 185.00 37.46 S 188.51 34.63, 190.00 34.84 S 193.72 38.08, 195.00 38.86 S 198.78 40.02, 200.00 40.89 S 203.95 44.93, 205.00 46.00"
        fill="none">
        <animate attributeName="stroke-dashoffset"
            from="292.85348700992364" to="0" dur="2.2s"/>
        <animate attributeName="stroke-dasharray"
            from="292.85348700992364" to="292.85348700992364"/>
    </path>
    <circle r="4" cx="5" cy="46" fill="#3023AE"/>
    <circle r="4" cx="205" cy="46" fill="#C86DD7" opacity="0">
        <animate attributeName="opacity"
            from="0" to="1" dur="0.1s" begin="2.2s" fill="freeze"/>
    </circle>
</svg>