<svg width="200" height="50" viewBox="0 0 210 50" xmlns="http://www.w3.org/2000/svg">
    <!-- 599 stargazers -->
    <!-- created at Thu May 14 2026 09:00:00 GMT+0000 (Coordinated Universal Time) -->
    <defs>
        <linearGradient id="stroke" x1="0%" y1="0%" x2="100%" y2="0%">
            <stop stop-color="#3023AE" offset="0%"/>
            <stop stop-color="#C86DD7" offset="100%"/>
        </linearGradient>
    </defs>
    <path stroke="url(#stroke)"
        stroke-width="3"
        stroke-linejoin="round"
        stroke-linecap="round"
        d="M5.00 46.0001 C 5.29 44.53, 8.95 21.42, 10.00 20.35 S 14.29 34.45, 15.00 35.78 S 18.68 38.40, 20.00 39.12 S 23.50 41.29, 25.00 41.25 S 28.65 39.52, 30.00 38.87 S 33.50 36.48, 35.00 36.49 S 38.50 38.88, 40.00 38.95 S 43.53 37.26, 45.00 36.98 S 48.56 37.43, 50.00 37.01 S 54.36 35.41, 55.00 34.06 S 58.51 15.84, 60.00 16.00 S 64.36 33.79, 65.00 35.15 S 68.54 36.87, 70.00 37.22 S 73.61 36.98, 75.00 37.55 S 78.57 41.82, 80.00 41.36 S 83.60 34.87, 85.00 34.34 S 88.64 36.92, 90.00 37.55 S 93.50 39.00, 95.00 38.94 S 98.55 37.55, 100.00 37.16 S 103.54 36.60, 105.00 36.24 S 108.71 33.94, 110.00 34.70 S 113.63 41.54, 115.00 42.16 S 118.57 39.66, 120.00 39.22 S 123.76 38.26, 125.00 39.10 S 128.50 46.04, 130.00 46.00 S 134.03 40.00, 135.00 38.85 S 138.54 34.49, 140.00 34.14 S 143.52 36.74, 145.00 36.47 S 148.56 32.73, 150.00 32.32 S 153.65 32.93, 155.00 33.58 S 159.06 35.92, 160.00 37.09 S 163.54 45.65, 165.00 46.00 S 168.83 40.46, 170.00 39.52 S 173.61 38.52, 175.00 37.96 S 178.57 35.01, 180.00 35.48 S 183.53 40.92, 185.00 41.24 S 188.65 37.00, 190.00 37.64 S 193.51 45.80, 195.00 46.00 S 198.50 39.01, 200.00 39.01 S 204.13 44.78, 205.00 46.00"
        fill="none">
        <animate attributeName="stroke-dashoffset"
            from="318.8102408553877" to="0" dur="2.2s"/>
        <animate attributeName="stroke-dasharray"
            from="318.8102408553877" to="318.8102408553877"/>
    </path>
    <circle r="4" cx="5" cy="46" fill="#3023AE"/>
    <circle r="4" cx="205" cy="46" fill="#C86DD7" opacity="0">
        <animate attributeName="opacity"
            from="0" to="1" dur="0.1s" begin="2.2s" fill="freeze"/>
    </circle>
</svg>