<svg width="200" height="50" viewBox="0 0 210 50" xmlns="http://www.w3.org/2000/svg">
    <!-- 600 stargazers -->
    <!-- created at Sun May 17 2026 09:39:27 GMT+0000 (Coordinated Universal Time) -->
    <defs>
        <linearGradient id="stroke" x1="0%" y1="0%" x2="100%" y2="0%">
            <stop stop-color="#3023AE" offset="0%"/>
            <stop stop-color="#C86DD7" offset="100%"/>
        </linearGradient>
    </defs>
    <path stroke="url(#stroke)"
        stroke-width="3"
        stroke-linejoin="round"
        stroke-linecap="round"
        d="M5.00 46.0001 C 5.29 44.53, 8.95 21.54, 10.00 20.47 S 14.29 34.50, 15.00 35.83 S 18.68 38.44, 20.00 39.16 S 23.50 41.31, 25.00 41.27 S 28.64 39.55, 30.00 38.91 S 33.50 36.53, 35.00 36.54 S 38.50 38.91, 40.00 38.98 S 43.54 37.36, 45.00 37.02 S 48.55 37.02, 50.00 36.65 S 54.35 35.80, 55.00 34.45 S 58.51 15.83, 60.00 16.00 S 64.35 34.27, 65.00 35.62 S 68.55 36.36, 70.00 36.74 S 73.50 38.12, 75.00 38.22 S 78.51 37.52, 80.00 37.36 S 83.50 37.10, 85.00 37.13 S 88.51 37.44, 90.00 37.59 S 93.50 38.20, 95.00 38.14 S 98.51 37.37, 100.00 37.20 S 103.54 37.36, 105.00 37.01 S 108.67 34.07, 110.00 34.76 S 113.63 41.56, 115.00 42.18 S 118.57 39.69, 120.00 39.25 S 123.51 38.98, 125.00 39.13 S 128.51 40.13, 130.00 40.29 S 133.68 40.90, 135.00 40.19 S 138.59 35.47, 140.00 34.96 S 143.63 37.13, 145.00 36.52 S 148.50 30.52, 150.00 30.47 S 153.75 35.39, 155.00 36.22 S 158.93 36.08, 160.00 37.13 S 163.54 45.65, 165.00 46.00 S 168.83 40.49, 170.00 39.55 S 173.61 38.55, 175.00 37.99 S 178.51 35.34, 180.00 35.53 S 183.59 38.78, 185.00 39.29 S 188.75 38.37, 190.00 39.21 S 193.50 46.02, 195.00 46.00 S 198.66 39.71, 200.00 39.05 S 203.61 40.47, 205.00 41.03"
        fill="none">
        <animate attributeName="stroke-dashoffset"
            from="300.66335180235376" to="0" dur="2.2s"/>
        <animate attributeName="stroke-dasharray"
            from="300.66335180235376" to="300.66335180235376"/>
    </path>
    <circle r="4" cx="5" cy="46" fill="#3023AE"/>
    <circle r="4" cx="205" cy="41.0259154881535" fill="#C86DD7" opacity="0">
        <animate attributeName="opacity"
            from="0" to="1" dur="0.1s" begin="2.2s" fill="freeze"/>
    </circle>
</svg>