<svg width="200" height="50" viewBox="0 0 210 50" xmlns="http://www.w3.org/2000/svg">
    <!-- 441 stargazers -->
    <!-- created at Thu Mar 05 2026 20:34:51 GMT+0000 (Coordinated Universal Time) -->
    <defs>
        <linearGradient id="stroke" x1="0%" y1="0%" x2="100%" y2="0%">
            <stop stop-color="#3023AE" offset="0%"/>
            <stop stop-color="#C86DD7" offset="100%"/>
        </linearGradient>
    </defs>
    <path stroke="url(#stroke)"
        stroke-width="3"
        stroke-linejoin="round"
        stroke-linecap="round"
        d="M5.00 46.0001 C 6.46 45.67, 8.50 44.86, 10.00 44.86 S 13.51 45.83, 15.00 46.00 S 18.50 46.00, 20.00 46.00 S 23.50 46.00, 25.00 46.00 S 28.50 46.00, 30.00 46.00 S 33.50 46.00, 35.00 46.00 S 38.50 46.00, 40.00 46.00 S 43.50 46.00, 45.00 46.00 S 48.50 46.00, 50.00 46.00 S 53.50 46.00, 55.00 46.00 S 58.50 46.00, 60.00 46.00 S 63.50 46.00, 65.00 46.00 S 68.50 46.00, 70.00 46.00 S 73.50 46.00, 75.00 46.00 S 79.04 47.15, 80.00 46.00 S 83.77 34.95, 85.00 34.09 S 88.69 38.22, 90.00 38.95 S 93.53 39.95, 95.00 39.64 S 98.73 35.99, 100.00 36.80 S 103.56 45.58, 105.00 46.00 S 108.79 40.61, 110.00 39.72 S 113.61 39.17, 115.00 38.60 S 118.50 35.72, 120.00 35.68 S 123.65 37.68, 125.00 38.32 S 128.64 41.10, 130.00 40.48 S 133.56 34.19, 135.00 33.76 S 138.59 37.95, 140.00 37.43 S 143.82 31.03, 145.00 30.11 S 148.52 29.36, 150.00 29.59 S 153.71 32.42, 155.00 31.66 S 159.14 22.47, 160.00 23.70 S 163.87 45.02, 165.00 46.00 S 169.53 33.82, 170.00 32.40 S 173.59 16.51, 175.00 16.00 S 179.34 27.40, 180.00 28.75 S 183.61 35.70, 185.00 36.27 S 188.52 32.62, 190.00 32.86 S 193.74 37.05, 195.00 37.86 S 198.54 38.94, 200.00 39.27 S 203.52 39.86, 205.00 40.11"
        fill="none">
        <animate attributeName="stroke-dashoffset"
            from="294.0297446266688" to="0" dur="2.2s"/>
        <animate attributeName="stroke-dasharray"
            from="294.0297446266688" to="294.0297446266688"/>
    </path>
    <circle r="4" cx="5" cy="46" fill="#3023AE"/>
    <circle r="4" cx="205" cy="40.105571345148476" fill="#C86DD7" opacity="0">
        <animate attributeName="opacity"
            from="0" to="1" dur="0.1s" begin="2.2s" fill="freeze"/>
    </circle>
</svg>