<svg width="200" height="50" viewBox="0 0 210 50" xmlns="http://www.w3.org/2000/svg">
    <!-- 872 stargazers -->
    <!-- created at Sun Apr 12 2026 15:31:41 GMT+0000 (Coordinated Universal Time) -->
    <defs>
        <linearGradient id="stroke" x1="0%" y1="0%" x2="100%" y2="0%">
            <stop stop-color="#3023AE" offset="0%"/>
            <stop stop-color="#C86DD7" offset="100%"/>
        </linearGradient>
    </defs>
    <path stroke="url(#stroke)"
        stroke-width="3"
        stroke-linejoin="round"
        stroke-linecap="round"
        d="M5.00 46.0001 C 6.47 45.70, 8.50 45.00, 10.00 45.00 S 13.51 45.85, 15.00 46.00 S 18.50 46.00, 20.00 46.00 S 23.50 46.00, 25.00 46.00 S 28.50 46.00, 30.00 46.00 S 33.50 46.00, 35.00 46.00 S 38.50 46.00, 40.00 46.00 S 43.50 46.00, 45.00 46.00 S 48.50 46.00, 50.00 46.00 S 53.50 46.00, 55.00 46.00 S 58.65 46.65, 60.00 46.00 S 63.92 42.26, 65.00 41.22 S 68.52 36.55, 70.00 36.32 S 73.58 39.15, 75.00 39.64 S 78.51 39.62, 80.00 39.77 S 83.58 41.15, 85.00 40.65 S 88.51 36.49, 90.00 36.29 S 93.55 38.93, 95.00 39.30 S 98.55 39.20, 100.00 38.81 S 103.94 37.67, 105.00 36.60 S 108.53 29.10, 110.00 28.79 S 113.50 34.48, 115.00 34.47 S 118.51 28.57, 120.00 28.74 S 123.76 36.42, 125.00 35.57 S 128.50 21.86, 130.00 21.90 S 134.07 34.62, 135.00 35.79 S 138.63 33.85, 140.00 34.46 S 143.88 39.28, 145.00 40.28 S 148.60 43.93, 150.00 43.40 S 153.71 37.25, 155.00 36.49 S 158.55 37.92, 160.00 37.54 S 163.59 34.36, 165.00 33.87 S 169.03 35.16, 170.00 34.01 S 173.80 22.92, 175.00 22.02 S 178.71 27.21, 180.00 26.43 S 183.98 14.90, 185.00 16.00 S 189.11 36.10, 190.00 37.31 S 194.23 30.97, 195.00 29.68 S 198.58 21.14, 200.00 20.66 S 204.01 25.20, 205.00 26.33"
        fill="none">
        <animate attributeName="stroke-dashoffset"
            from="298.5108285283203" to="0" dur="2.2s"/>
        <animate attributeName="stroke-dasharray"
            from="298.5108285283203" to="298.5108285283203"/>
    </path>
    <circle r="4" cx="5" cy="46" fill="#3023AE"/>
    <circle r="4" cx="205" cy="26.326351516671785" fill="#C86DD7" opacity="0">
        <animate attributeName="opacity"
            from="0" to="1" dur="0.1s" begin="2.2s" fill="freeze"/>
    </circle>
</svg>