<svg width="200" height="50" viewBox="0 0 210 50" xmlns="http://www.w3.org/2000/svg">
    <!-- 462 stargazers -->
    <!-- created at Sun Mar 15 2026 10:21:14 GMT+0000 (Coordinated Universal Time) -->
    <defs>
        <linearGradient id="stroke" x1="0%" y1="0%" x2="100%" y2="0%">
            <stop stop-color="#3023AE" offset="0%"/>
            <stop stop-color="#C86DD7" offset="100%"/>
        </linearGradient>
    </defs>
    <path stroke="url(#stroke)"
        stroke-width="3"
        stroke-linejoin="round"
        stroke-linecap="round"
        d="M5.00 46.0001 C 6.46 45.66, 8.50 44.84, 10.00 44.84 S 13.51 45.83, 15.00 46.00 S 18.50 46.00, 20.00 46.00 S 23.50 46.00, 25.00 46.00 S 28.50 46.00, 30.00 46.00 S 33.50 46.00, 35.00 46.00 S 38.50 46.00, 40.00 46.00 S 43.50 46.00, 45.00 46.00 S 48.50 46.00, 50.00 46.00 S 53.50 46.00, 55.00 46.00 S 58.50 46.00, 60.00 46.00 S 63.50 46.00, 65.00 46.00 S 68.50 46.00, 70.00 46.00 S 74.03 47.14, 75.00 46.00 S 78.83 35.14, 80.00 34.20 S 83.66 37.25, 85.00 37.93 S 88.50 39.20, 90.00 39.25 S 93.50 38.18, 95.00 38.27 S 98.53 39.58, 100.00 39.88 S 103.65 40.96, 105.00 40.29 S 108.52 35.21, 110.00 34.95 S 113.69 37.75, 115.00 38.48 S 118.65 41.24, 120.00 40.58 S 123.64 34.31, 125.00 33.67 S 128.62 36.47, 130.00 35.88 S 133.72 30.13, 135.00 29.35 S 138.58 29.35, 140.00 29.84 S 143.64 33.44, 145.00 32.81 S 149.09 24.06, 150.00 25.25 S 153.53 45.71, 155.00 46.00 S 159.53 28.66, 160.00 27.24 S 163.90 14.98, 165.00 16.00 S 169.22 35.21, 170.00 36.49 S 173.54 32.04, 175.00 32.37 S 178.73 37.92, 180.00 38.72 S 183.60 38.08, 185.00 38.63 S 188.62 43.26, 190.00 42.66 S 193.86 35.27, 195.00 34.30 S 198.57 33.70, 200.00 34.16 S 203.76 36.69, 205.00 37.53"
        fill="none">
        <animate attributeName="stroke-dashoffset"
            from="295.6638815236154" to="0" dur="2.2s"/>
        <animate attributeName="stroke-dasharray"
            from="295.6638815236154" to="295.6638815236154"/>
    </path>
    <circle r="4" cx="5" cy="46" fill="#3023AE"/>
    <circle r="4" cx="205" cy="37.52882402497197" fill="#C86DD7" opacity="0">
        <animate attributeName="opacity"
            from="0" to="1" dur="0.1s" begin="2.2s" fill="freeze"/>
    </circle>
</svg>