<svg width="200" height="50" viewBox="0 0 210 50" xmlns="http://www.w3.org/2000/svg">
    <!-- 495 stargazers -->
    <!-- created at Mon Mar 23 2026 11:56:08 GMT+0000 (Coordinated Universal Time) -->
    <defs>
        <linearGradient id="stroke" x1="0%" y1="0%" x2="100%" y2="0%">
            <stop stop-color="#3023AE" offset="0%"/>
            <stop stop-color="#C86DD7" offset="100%"/>
        </linearGradient>
    </defs>
    <path stroke="url(#stroke)"
        stroke-width="3"
        stroke-linejoin="round"
        stroke-linecap="round"
        d="M5.00 46.0001 C 6.46 45.66, 8.50 44.85, 10.00 44.85 S 13.51 45.83, 15.00 46.00 S 18.50 46.00, 20.00 46.00 S 23.50 46.00, 25.00 46.00 S 28.50 46.00, 30.00 46.00 S 33.50 46.00, 35.00 46.00 S 38.50 46.00, 40.00 46.00 S 43.50 46.00, 45.00 46.00 S 48.50 46.00, 50.00 46.00 S 53.50 46.00, 55.00 46.00 S 58.50 46.00, 60.00 46.00 S 63.50 46.00, 65.00 46.00 S 69.00 47.12, 70.00 46.00 S 73.82 35.69, 75.00 34.77 S 78.66 37.48, 80.00 38.16 S 83.50 39.81, 85.00 39.86 S 88.50 38.45, 90.00 38.47 S 93.50 39.96, 95.00 40.03 S 98.67 39.64, 100.00 38.95 S 103.50 34.88, 105.00 34.91 S 108.57 38.68, 110.00 39.13 S 113.65 38.71, 115.00 38.05 S 118.78 35.10, 120.00 34.23 S 123.66 31.61, 125.00 30.94 S 128.56 28.78, 130.00 29.21 S 133.63 34.54, 135.00 33.93 S 139.04 23.59, 140.00 24.74 S 143.87 46.99, 145.00 46.00 S 149.24 17.30, 150.00 16.00 S 154.21 27.58, 155.00 28.86 S 158.91 31.22, 160.00 32.25 S 163.84 37.41, 165.00 38.36 S 168.53 40.22, 170.00 40.52 S 173.57 40.90, 175.00 40.45 S 178.65 38.07, 180.00 37.41 S 183.50 35.64, 185.00 35.61 S 188.64 37.83, 190.00 37.20 S 193.56 30.52, 195.00 30.94 S 198.50 40.21, 200.00 40.10 S 204.32 31.54, 205.00 30.20"
        fill="none">
        <animate attributeName="stroke-dashoffset"
            from="296.92398488234954" to="0" dur="2.2s"/>
        <animate attributeName="stroke-dasharray"
            from="296.92398488234954" to="296.92398488234954"/>
    </path>
    <circle r="4" cx="5" cy="46" fill="#3023AE"/>
    <circle r="4" cx="205" cy="30.200679335762793" fill="#C86DD7" opacity="0">
        <animate attributeName="opacity"
            from="0" to="1" dur="0.1s" begin="2.2s" fill="freeze"/>
    </circle>
</svg>