<svg width="200" height="50" viewBox="0 0 210 50" xmlns="http://www.w3.org/2000/svg">
    <!-- 718 stargazers -->
    <!-- created at Tue Mar 31 2026 12:00:13 GMT+0000 (Coordinated Universal Time) -->
    <defs>
        <linearGradient id="stroke" x1="0%" y1="0%" x2="100%" y2="0%">
            <stop stop-color="#3023AE" offset="0%"/>
            <stop stop-color="#C86DD7" offset="100%"/>
        </linearGradient>
    </defs>
    <path stroke="url(#stroke)"
        stroke-width="3"
        stroke-linejoin="round"
        stroke-linecap="round"
        d="M5.00 46.0001 C 6.47 45.71, 8.50 45.01, 10.00 45.01 S 13.51 45.85, 15.00 46.00 S 18.50 46.00, 20.00 46.00 S 23.50 46.00, 25.00 46.00 S 28.50 46.00, 30.00 46.00 S 33.50 46.00, 35.00 46.00 S 38.50 46.00, 40.00 46.00 S 43.50 46.00, 45.00 46.00 S 48.50 46.00, 50.00 46.00 S 53.50 46.00, 55.00 46.00 S 58.50 46.00, 60.00 46.00 S 63.76 46.85, 65.00 46.00 S 68.85 40.10, 70.00 39.13 S 73.52 37.30, 75.00 37.55 S 78.51 40.72, 80.00 40.87 S 83.50 38.53, 85.00 38.55 S 88.52 40.77, 90.00 41.00 S 93.67 40.79, 95.00 40.09 S 98.53 35.44, 100.00 35.76 S 103.50 42.18, 105.00 42.22 S 108.64 36.68, 110.00 36.04 S 113.76 38.34, 115.00 37.50 S 118.58 29.78, 120.00 29.31 S 123.51 34.35, 125.00 34.21 S 129.03 27.23, 130.00 28.37 S 133.56 45.58, 135.00 46.00 S 139.43 32.71, 140.00 31.33 S 143.57 21.10, 145.00 21.57 S 149.27 33.24, 150.00 34.55 S 153.69 38.91, 155.00 39.64 S 158.59 39.59, 160.00 40.11 S 163.58 43.82, 165.00 43.33 S 168.71 37.38, 170.00 36.61 S 173.52 37.57, 175.00 37.31 S 178.51 34.69, 180.00 34.87 S 183.52 38.78, 185.00 38.54 S 189.24 34.53, 190.00 33.24 S 193.89 22.51, 195.00 21.50 S 198.69 24.85, 200.00 24.13 S 204.21 17.28, 205.00 16.00"
        fill="none">
        <animate attributeName="stroke-dashoffset"
            from="289.48178766939407" to="0" dur="2.2s"/>
        <animate attributeName="stroke-dasharray"
            from="289.48178766939407" to="289.48178766939407"/>
    </path>
    <circle r="4" cx="5" cy="46" fill="#3023AE"/>
    <circle r="4" cx="205" cy="16" fill="#C86DD7" opacity="0">
        <animate attributeName="opacity"
            from="0" to="1" dur="0.1s" begin="2.2s" fill="freeze"/>
    </circle>
</svg>