<svg width="200" height="50" viewBox="0 0 210 50" xmlns="http://www.w3.org/2000/svg">
    <!-- 946 stargazers -->
    <!-- created at Mon Apr 20 2026 13:54:37 GMT+0000 (Coordinated Universal Time) -->
    <defs>
        <linearGradient id="stroke" x1="0%" y1="0%" x2="100%" y2="0%">
            <stop stop-color="#3023AE" offset="0%"/>
            <stop stop-color="#C86DD7" offset="100%"/>
        </linearGradient>
    </defs>
    <path stroke="url(#stroke)"
        stroke-width="3"
        stroke-linejoin="round"
        stroke-linecap="round"
        d="M5.00 46.0001 C 6.47 45.72, 8.50 45.04, 10.00 45.04 S 13.51 45.86, 15.00 46.00 S 18.50 46.00, 20.00 46.00 S 23.50 46.00, 25.00 46.00 S 28.50 46.00, 30.00 46.00 S 33.50 46.00, 35.00 46.00 S 38.50 46.00, 40.00 46.00 S 43.50 46.00, 45.00 46.00 S 48.50 46.00, 50.00 46.00 S 53.50 46.00, 55.00 46.00 S 58.86 46.98, 60.00 46.00 S 63.76 38.24, 65.00 37.39 S 68.52 38.86, 70.00 39.13 S 73.54 38.83, 75.00 39.17 S 78.52 41.67, 80.00 41.40 S 83.54 37.72, 85.00 37.39 S 88.52 38.92, 90.00 39.16 S 93.57 39.44, 95.00 39.00 S 98.87 37.08, 100.00 36.09 S 103.50 30.41, 105.00 30.35 S 108.50 35.74, 110.00 35.67 S 113.55 30.23, 115.00 29.86 S 118.66 33.81, 120.00 33.14 S 123.56 24.43, 125.00 24.86 S 129.15 34.92, 130.00 36.16 S 133.70 38.58, 135.00 39.33 S 138.50 41.81, 140.00 41.85 S 143.72 40.33, 145.00 39.55 S 148.63 36.41, 150.00 35.79 S 153.50 35.14, 155.00 35.05 S 158.98 36.29, 160.00 35.18 S 164.31 25.55, 165.00 24.22 S 168.98 14.90, 170.00 16.00 S 174.14 33.82, 175.00 35.05 S 178.87 31.29, 180.00 30.31 S 183.51 26.54, 185.00 26.35 S 188.56 28.57, 190.00 28.99 S 194.01 28.12, 195.00 29.24 S 198.99 41.46, 200.00 40.35 S 204.67 19.75, 205.00 18.28"
        fill="none">
        <animate attributeName="stroke-dashoffset"
            from="291.02108467376036" to="0" dur="2.2s"/>
        <animate attributeName="stroke-dasharray"
            from="291.02108467376036" to="291.02108467376036"/>
    </path>
    <circle r="4" cx="5" cy="46" fill="#3023AE"/>
    <circle r="4" cx="205" cy="18.283981619964134" fill="#C86DD7" opacity="0">
        <animate attributeName="opacity"
            from="0" to="1" dur="0.1s" begin="2.2s" fill="freeze"/>
    </circle>
</svg>