<svg width="200" height="50" viewBox="0 0 210 50" xmlns="http://www.w3.org/2000/svg">
    <!-- 7 stargazers -->
    <!-- created at Mon Apr 06 2026 04:05:09 GMT+0000 (Coordinated Universal Time) -->
    <defs>
        <linearGradient id="stroke" x1="0%" y1="0%" x2="100%" y2="0%">
            <stop stop-color="#3023AE" offset="0%"/>
            <stop stop-color="#C86DD7" offset="100%"/>
        </linearGradient>
    </defs>
    <path stroke="url(#stroke)"
        stroke-width="3"
        stroke-linejoin="round"
        stroke-linecap="round"
        d="M5.00 46.0001 C 5.66 44.65, 8.50 35.84, 10.00 35.84 S 13.95 44.93, 15.00 46.00 S 18.50 46.00, 20.00 46.00 S 23.50 46.00, 25.00 46.00 S 28.50 46.00, 30.00 46.00 S 34.17 47.25, 35.00 46.00 S 38.50 30.86, 40.00 30.86 S 44.17 44.75, 45.00 46.00 S 48.50 46.00, 50.00 46.00 S 54.26 47.31, 55.00 46.00 S 58.50 28.31, 60.00 28.31 S 64.26 44.69, 65.00 46.00 S 68.50 46.00, 70.00 46.00 S 73.50 46.00, 75.00 46.00 S 78.50 46.00, 80.00 46.00 S 84.35 47.35, 85.00 46.00 S 88.50 25.05, 90.00 25.05 S 94.35 44.65, 95.00 46.00 S 98.50 46.00, 100.00 46.00 S 103.50 46.00, 105.00 46.00 S 108.50 46.00, 110.00 46.00 S 113.50 46.00, 115.00 46.00 S 118.50 46.00, 120.00 46.00 S 123.50 46.00, 125.00 46.00 S 128.50 46.00, 130.00 46.00 S 133.50 46.00, 135.00 46.00 S 138.50 46.00, 140.00 46.00 S 143.50 46.00, 145.00 46.00 S 148.50 46.00, 150.00 46.00 S 153.50 46.00, 155.00 46.00 S 158.50 46.00, 160.00 46.00 S 163.50 46.00, 165.00 46.00 S 168.50 46.00, 170.00 46.00 S 174.50 47.42, 175.00 46.00 S 178.50 17.43, 180.00 17.43 S 183.50 46.11, 185.00 46.00 S 188.50 16.71, 190.00 16.71 S 193.50 46.11, 195.00 46.00 S 198.50 16.00, 200.00 16.00 S 204.75 44.52, 205.00 46.00"
        fill="none">
        <animate attributeName="stroke-dashoffset"
            from="446.94481897753974" to="0" dur="2.2s"/>
        <animate attributeName="stroke-dasharray"
            from="446.94481897753974" to="446.94481897753974"/>
    </path>
    <circle r="4" cx="5" cy="46" fill="#3023AE"/>
    <circle r="4" cx="205" cy="46" fill="#C86DD7" opacity="0">
        <animate attributeName="opacity"
            from="0" to="1" dur="0.1s" begin="2.2s" fill="freeze"/>
    </circle>
</svg>