<svg width="200" height="50" viewBox="0 0 210 50" xmlns="http://www.w3.org/2000/svg">
    <!-- 11 stargazers -->
    <!-- created at Sun May 10 2026 12:10:27 GMT+0000 (Coordinated Universal Time) -->
    <defs>
        <linearGradient id="stroke" x1="0%" y1="0%" x2="100%" y2="0%">
            <stop stop-color="#3023AE" offset="0%"/>
            <stop stop-color="#C86DD7" offset="100%"/>
        </linearGradient>
    </defs>
    <path stroke="url(#stroke)"
        stroke-width="3"
        stroke-linejoin="round"
        stroke-linecap="round"
        d="M5.00 46.0001 C 5.66 44.65, 8.50 35.70, 10.00 35.70 S 13.96 44.92, 15.00 46.00 S 19.09 47.19, 20.00 46.00 S 23.50 32.93, 25.00 32.93 S 29.09 44.81, 30.00 46.00 S 34.18 47.26, 35.00 46.00 S 39.21 31.93, 40.00 30.66 S 44.18 28.71, 45.00 29.97 S 49.13 47.22, 50.00 46.00 S 53.50 16.00, 55.00 16.00 S 59.53 44.58, 60.00 46.00 S 63.50 46.00, 65.00 46.00 S 68.50 46.00, 70.00 46.00 S 74.33 47.34, 75.00 46.00 S 78.50 25.81, 80.00 25.81 S 84.33 44.66, 85.00 46.00 S 88.50 46.00, 90.00 46.00 S 93.50 46.00, 95.00 46.00 S 99.40 47.37, 100.00 46.00 S 103.50 23.30, 105.00 23.30 S 109.40 44.63, 110.00 46.00 S 113.50 46.00, 115.00 46.00 S 118.50 46.00, 120.00 46.00 S 123.50 46.00, 125.00 46.00 S 128.50 46.00, 130.00 46.00 S 133.50 46.00, 135.00 46.00 S 138.50 46.00, 140.00 46.00 S 143.50 46.00, 145.00 46.00 S 148.50 46.00, 150.00 46.00 S 154.49 47.41, 155.00 46.00 S 158.50 18.58, 160.00 18.58 S 164.49 44.59, 165.00 46.00 S 169.50 47.42, 170.00 46.00 S 173.50 17.42, 175.00 17.42 S 179.50 44.58, 180.00 46.00 S 183.50 46.00, 185.00 46.00 S 188.50 46.00, 190.00 46.00 S 193.50 46.00, 195.00 46.00 S 198.50 46.00, 200.00 46.00 S 203.50 46.00, 205.00 46.00"
        fill="none">
        <animate attributeName="stroke-dashoffset"
            from="473.0744953140204" to="0" dur="2.2s"/>
        <animate attributeName="stroke-dasharray"
            from="473.0744953140204" to="473.0744953140204"/>
    </path>
    <circle r="4" cx="5" cy="46" fill="#3023AE"/>
    <circle r="4" cx="205" cy="46" fill="#C86DD7" opacity="0">
        <animate attributeName="opacity"
            from="0" to="1" dur="0.1s" begin="2.2s" fill="freeze"/>
    </circle>
</svg>