<svg width="200" height="50" viewBox="0 0 210 50" xmlns="http://www.w3.org/2000/svg">
    <!-- 200 stargazers -->
    <!-- created at Sat Apr 11 2026 12:49:13 GMT+0000 (Coordinated Universal Time) -->
    <defs>
        <linearGradient id="stroke" x1="0%" y1="0%" x2="100%" y2="0%">
            <stop stop-color="#3023AE" offset="0%"/>
            <stop stop-color="#C86DD7" offset="100%"/>
        </linearGradient>
    </defs>
    <path stroke="url(#stroke)"
        stroke-width="3"
        stroke-linejoin="round"
        stroke-linecap="round"
        d="M5.00 46.0001 C 5.72 44.68, 8.73 37.66, 10.00 36.86 S 13.50 39.74, 15.00 39.66 S 18.73 35.49, 20.00 36.30 S 23.50 45.98, 25.00 46.00 S 29.33 37.80, 30.00 36.46 S 34.02 27.02, 35.00 25.88 S 38.53 24.58, 40.00 24.89 S 43.51 27.81, 45.00 28.00 S 48.51 25.95, 50.00 26.12 S 53.54 28.80, 55.00 29.15 S 58.55 28.94, 60.00 28.56 S 63.88 27.53, 65.00 26.54 S 68.67 20.43, 70.00 19.73 S 73.59 21.85, 75.00 21.32 S 78.56 15.58, 80.00 16.00 S 83.72 23.45, 85.00 24.23 S 88.63 21.54, 90.00 22.15 S 93.50 28.67, 95.00 28.74 S 98.56 23.07, 100.00 22.65 S 103.55 25.44, 105.00 25.84 S 108.56 25.83, 110.00 25.43 S 113.52 22.80, 115.00 23.02 S 118.58 26.38, 120.00 26.87 S 123.53 26.23, 125.00 26.52 S 128.53 28.54, 130.00 28.83 S 133.77 27.69, 135.00 28.54 S 138.55 35.36, 140.00 35.75 S 143.99 32.38, 145.00 31.27 S 148.61 24.30, 150.00 24.85 S 153.70 34.52, 155.00 35.27 S 158.50 30.65, 160.00 30.60 S 163.77 35.81, 165.00 34.95 S 169.14 24.83, 170.00 23.60 S 173.99 19.52, 175.00 20.62 S 178.53 34.20, 180.00 34.50 S 184.04 23.87, 185.00 22.71 S 189.01 21.30, 190.00 22.42 S 193.74 33.25, 195.00 34.07 S 198.68 29.63, 200.00 28.93 S 203.50 28.79, 205.00 28.73"
        fill="none">
        <animate attributeName="stroke-dashoffset"
            from="308.86916776654704" to="0" dur="2.2s"/>
        <animate attributeName="stroke-dasharray"
            from="308.86916776654704" to="308.86916776654704"/>
    </path>
    <circle r="4" cx="5" cy="46" fill="#3023AE"/>
    <circle r="4" cx="205" cy="28.728726883805695" fill="#C86DD7" opacity="0">
        <animate attributeName="opacity"
            from="0" to="1" dur="0.1s" begin="2.2s" fill="freeze"/>
    </circle>
</svg>