<svg width="200" height="50" viewBox="0 0 210 50" xmlns="http://www.w3.org/2000/svg">
    <!-- 200 stargazers -->
    <!-- created at Mon Apr 20 2026 05:52:39 GMT+0000 (Coordinated Universal Time) -->
    <defs>
        <linearGradient id="stroke" x1="0%" y1="0%" x2="100%" y2="0%">
            <stop stop-color="#3023AE" offset="0%"/>
            <stop stop-color="#C86DD7" offset="100%"/>
        </linearGradient>
    </defs>
    <path stroke="url(#stroke)"
        stroke-width="3"
        stroke-linejoin="round"
        stroke-linecap="round"
        d="M5.00 46.0001 C 5.70 44.67, 8.75 37.34, 10.00 36.51 S 13.50 39.50, 15.00 39.42 S 18.75 35.11, 20.00 35.93 S 23.50 45.97, 25.00 46.00 S 29.37 37.46, 30.00 36.10 S 34.08 25.46, 35.00 24.27 S 38.62 22.62, 40.00 23.20 S 43.53 28.21, 45.00 28.52 S 48.50 25.37, 50.00 25.37 S 53.55 28.15, 55.00 28.52 S 58.61 28.47, 60.00 27.90 S 63.76 25.25, 65.00 24.41 S 68.67 21.82, 70.00 21.12 S 73.66 19.83, 75.00 19.14 S 78.55 15.61, 80.00 16.00 S 83.67 21.15, 85.00 21.85 S 88.61 20.68, 90.00 21.25 S 93.50 25.90, 95.00 25.98 S 98.51 21.91, 100.00 21.77 S 103.51 24.96, 105.00 25.08 S 108.61 22.05, 110.00 22.61 S 113.51 28.96, 115.00 29.13 S 118.70 24.56, 120.00 23.81 S 123.63 22.80, 125.00 23.40 S 128.82 27.26, 130.00 28.19 S 133.78 30.33, 135.00 31.21 S 138.50 35.44, 140.00 35.37 S 143.85 31.68, 145.00 30.72 S 148.61 26.42, 150.00 26.99 S 153.50 34.95, 155.00 34.86 S 158.66 27.10, 160.00 26.43 S 163.59 30.31, 165.00 29.79 S 168.62 23.34, 170.00 22.76 S 173.58 26.09, 175.00 25.60 S 178.58 18.85, 180.00 19.32 S 183.69 28.19, 185.00 28.91 S 189.24 23.52, 190.00 24.81 S 193.60 46.54, 195.00 46.00 S 198.50 20.94, 200.00 20.94 S 204.71 44.53, 205.00 46.00"
        fill="none">
        <animate attributeName="stroke-dashoffset"
            from="344.46445965124866" to="0" dur="2.2s"/>
        <animate attributeName="stroke-dasharray"
            from="344.46445965124866" to="344.46445965124866"/>
    </path>
    <circle r="4" cx="5" cy="46" fill="#3023AE"/>
    <circle r="4" cx="205" cy="46" fill="#C86DD7" opacity="0">
        <animate attributeName="opacity"
            from="0" to="1" dur="0.1s" begin="2.2s" fill="freeze"/>
    </circle>
</svg>