<svg width="200" height="50" viewBox="0 0 210 50" xmlns="http://www.w3.org/2000/svg">
    <!-- 202 stargazers -->
    <!-- created at Wed Apr 29 2026 06:48:29 GMT+0000 (Coordinated Universal Time) -->
    <defs>
        <linearGradient id="stroke" x1="0%" y1="0%" x2="100%" y2="0%">
            <stop stop-color="#3023AE" offset="0%"/>
            <stop stop-color="#C86DD7" offset="100%"/>
        </linearGradient>
    </defs>
    <path stroke="url(#stroke)"
        stroke-width="3"
        stroke-linejoin="round"
        stroke-linecap="round"
        d="M5.00 46.0001 C 5.72 44.69, 8.73 37.72, 10.00 36.92 S 13.50 39.78, 15.00 39.70 S 18.73 35.57, 20.00 36.37 S 23.51 46.19, 25.00 46.00 S 29.33 36.41, 30.00 35.07 S 34.03 27.17, 35.00 26.03 S 38.63 22.76, 40.00 23.37 S 43.50 30.40, 45.00 30.52 S 48.55 24.56, 50.00 24.18 S 53.71 27.16, 55.00 27.94 S 58.66 30.87, 60.00 30.19 S 63.61 23.48, 65.00 22.91 S 68.77 26.94, 70.00 26.09 S 73.81 16.91, 75.00 16.00 S 78.85 17.46, 80.00 18.43 S 83.68 23.68, 85.00 24.39 S 88.54 23.50, 90.00 23.86 S 93.51 27.00, 95.00 26.85 S 98.51 22.64, 100.00 22.82 S 103.55 28.49, 105.00 28.10 S 108.52 19.91, 110.00 20.17 S 113.76 29.02, 115.00 29.87 S 118.57 27.47, 120.00 27.02 S 123.66 25.99, 125.00 26.67 S 128.67 31.40, 130.00 32.09 S 133.50 31.92, 135.00 31.85 S 138.74 32.43, 140.00 31.61 S 143.60 24.78, 145.00 25.33 S 148.69 34.77, 150.00 35.50 S 153.50 30.98, 155.00 30.93 S 158.76 36.04, 160.00 35.19 S 164.13 25.29, 165.00 24.07 S 168.71 20.37, 170.00 21.15 S 173.66 29.39, 175.00 30.07 S 178.78 27.11, 180.00 26.23 S 183.83 21.94, 185.00 22.88 S 188.55 33.92, 190.00 34.30 S 193.50 25.53, 195.00 25.49 S 198.58 33.54, 200.00 34.02 S 203.96 29.93, 205.00 28.86"
        fill="none">
        <animate attributeName="stroke-dashoffset"
            from="321.64628890369215" to="0" dur="2.2s"/>
        <animate attributeName="stroke-dasharray"
            from="321.64628890369215" to="321.64628890369215"/>
    </path>
    <circle r="4" cx="5" cy="46" fill="#3023AE"/>
    <circle r="4" cx="205" cy="28.855514823214463" fill="#C86DD7" opacity="0">
        <animate attributeName="opacity"
            from="0" to="1" dur="0.1s" begin="2.2s" fill="freeze"/>
    </circle>
</svg>