<svg width="200" height="50" viewBox="0 0 210 50" xmlns="http://www.w3.org/2000/svg">
    <!-- 200 stargazers -->
    <!-- created at Tue Apr 14 2026 12:57:59 GMT+0000 (Coordinated Universal Time) -->
    <defs>
        <linearGradient id="stroke" x1="0%" y1="0%" x2="100%" y2="0%">
            <stop stop-color="#3023AE" offset="0%"/>
            <stop stop-color="#C86DD7" offset="100%"/>
        </linearGradient>
    </defs>
    <path stroke="url(#stroke)"
        stroke-width="3"
        stroke-linejoin="round"
        stroke-linecap="round"
        d="M5.00 46.0001 C 5.72 44.68, 8.73 37.66, 10.00 36.86 S 13.50 39.74, 15.00 39.66 S 18.73 35.49, 20.00 36.30 S 23.50 45.98, 25.00 46.00 S 29.33 37.80, 30.00 36.46 S 34.10 27.08, 35.00 25.88 S 38.63 22.58, 40.00 23.20 S 43.52 30.14, 45.00 30.41 S 48.50 25.01, 50.00 25.04 S 53.58 30.12, 55.00 30.62 S 58.68 29.27, 60.00 28.56 S 63.81 26.11, 65.00 25.20 S 68.60 21.39, 70.00 20.85 S 73.65 21.98, 75.00 21.32 S 78.51 15.79, 80.00 16.00 S 83.81 21.82, 85.00 22.73 S 88.61 23.14, 90.00 23.69 S 93.51 26.86, 95.00 26.70 S 98.55 23.06, 100.00 22.65 S 103.55 23.52, 105.00 23.92 S 108.58 24.95, 110.00 25.43 S 113.50 27.35, 115.00 27.23 S 118.50 24.72, 120.00 24.62 S 123.62 25.94, 125.00 26.52 S 128.67 28.14, 130.00 28.83 S 133.77 30.89, 135.00 31.74 S 138.50 35.82, 140.00 35.75 S 143.99 32.38, 145.00 31.27 S 148.61 24.30, 150.00 24.85 S 153.54 34.93, 155.00 35.27 S 158.98 26.04, 160.00 27.14 S 163.59 46.50, 165.00 46.00 S 169.45 25.00, 170.00 23.60 S 173.72 19.84, 175.00 20.62 S 178.67 29.05, 180.00 29.74 S 183.79 26.72, 185.00 25.83 S 188.84 21.47, 190.00 22.42 S 193.55 33.68, 195.00 34.07 S 198.50 25.13, 200.00 25.09 S 204.25 32.49, 205.00 33.79"
        fill="none">
        <animate attributeName="stroke-dashoffset"
            from="331.0350932407965" to="0" dur="2.2s"/>
        <animate attributeName="stroke-dasharray"
            from="331.0350932407965" to="331.0350932407965"/>
    </path>
    <circle r="4" cx="5" cy="46" fill="#3023AE"/>
    <circle r="4" cx="205" cy="33.787365659813716" fill="#C86DD7" opacity="0">
        <animate attributeName="opacity"
            from="0" to="1" dur="0.1s" begin="2.2s" fill="freeze"/>
    </circle>
</svg>