<svg width="200" height="50" viewBox="0 0 210 50" xmlns="http://www.w3.org/2000/svg">
    <!-- 205 stargazers -->
    <!-- created at Mon May 11 2026 07:08:58 GMT+0000 (Coordinated Universal Time) -->
    <defs>
        <linearGradient id="stroke" x1="0%" y1="0%" x2="100%" y2="0%">
            <stop stop-color="#3023AE" offset="0%"/>
            <stop stop-color="#C86DD7" offset="100%"/>
        </linearGradient>
    </defs>
    <path stroke="url(#stroke)"
        stroke-width="3"
        stroke-linejoin="round"
        stroke-linecap="round"
        d="M5.00 46.0001 C 5.72 44.69, 8.73 37.72, 10.00 36.92 S 13.50 39.78, 15.00 39.70 S 18.51 36.20, 20.00 36.37 S 23.51 41.04, 25.00 40.85 S 29.19 36.33, 30.00 35.07 S 33.98 26.32, 35.00 25.22 S 38.75 23.36, 40.00 24.19 S 43.51 32.02, 45.00 31.87 S 48.55 23.59, 50.00 23.21 S 53.68 28.56, 55.00 29.28 S 58.73 29.49, 60.00 28.69 S 63.61 23.47, 65.00 22.91 S 68.77 25.56, 70.00 24.71 S 73.79 16.89, 75.00 16.00 S 78.85 16.34, 80.00 17.30 S 83.94 23.33, 85.00 24.39 S 88.51 27.44, 90.00 27.29 S 93.51 23.47, 95.00 23.34 S 98.55 26.03, 100.00 26.41 S 103.56 26.39, 105.00 25.99 S 108.51 23.75, 110.00 23.63 S 113.51 25.00, 115.00 25.17 S 118.61 24.21, 120.00 24.77 S 123.79 28.37, 125.00 29.26 S 128.76 31.25, 130.00 32.09 S 133.50 36.06, 135.00 35.99 S 138.82 32.54, 140.00 31.61 S 143.50 28.17, 145.00 28.10 S 148.56 30.75, 150.00 31.16 S 153.76 31.77, 155.00 30.93 S 158.91 25.41, 160.00 24.38 S 163.97 20.40, 165.00 21.48 S 168.53 34.59, 170.00 34.88 S 174.03 24.61, 175.00 23.47 S 178.99 22.07, 180.00 23.18 S 183.55 34.07, 185.00 34.44 S 188.50 25.77, 190.00 25.73 S 193.58 33.68, 195.00 34.16 S 198.89 30.06, 200.00 29.05 S 203.83 25.95, 205.00 25.00"
        fill="none">
        <animate attributeName="stroke-dashoffset"
            from="299.69869298321146" to="0" dur="2.2s"/>
        <animate attributeName="stroke-dasharray"
            from="299.69869298321146" to="299.69869298321146"/>
    </path>
    <circle r="4" cx="5" cy="46" fill="#3023AE"/>
    <circle r="4" cx="205" cy="25.002379707081907" fill="#C86DD7" opacity="0">
        <animate attributeName="opacity"
            from="0" to="1" dur="0.1s" begin="2.2s" fill="freeze"/>
    </circle>
</svg>