<svg width="200" height="50" viewBox="0 0 210 50" xmlns="http://www.w3.org/2000/svg">
    <!-- 199 stargazers -->
    <!-- created at Sun Apr 05 2026 11:54:37 GMT+0000 (Coordinated Universal Time) -->
    <defs>
        <linearGradient id="stroke" x1="0%" y1="0%" x2="100%" y2="0%">
            <stop stop-color="#3023AE" offset="0%"/>
            <stop stop-color="#C86DD7" offset="100%"/>
        </linearGradient>
    </defs>
    <path stroke="url(#stroke)"
        stroke-width="3"
        stroke-linejoin="round"
        stroke-linecap="round"
        d="M5.00 46.0001 C 5.72 44.68, 8.73 37.66, 10.00 36.86 S 13.50 39.74, 15.00 39.66 S 18.73 35.49, 20.00 36.30 S 23.50 45.98, 25.00 46.00 S 29.31 37.79, 30.00 36.46 S 34.02 27.87, 35.00 26.74 S 38.50 24.87, 40.00 24.89 S 43.51 26.72, 45.00 26.90 S 48.54 25.79, 50.00 26.12 S 53.54 28.80, 55.00 29.15 S 58.55 28.94, 60.00 28.56 S 63.81 27.46, 65.00 26.54 S 68.60 21.40, 70.00 20.85 S 73.65 23.24, 75.00 22.59 S 78.51 16.19, 80.00 16.00 S 83.72 20.53, 85.00 21.32 S 88.80 21.26, 90.00 22.15 S 93.72 27.95, 95.00 28.74 S 98.84 29.31, 100.00 28.35 S 103.56 20.92, 105.00 20.50 S 108.55 25.06, 110.00 25.43 S 113.52 22.80, 115.00 23.02 S 118.72 26.09, 120.00 26.87 S 123.53 28.84, 125.00 29.13 S 128.50 28.92, 130.00 28.83 S 133.55 28.15, 135.00 28.54 S 138.55 31.11, 140.00 31.51 S 143.50 31.34, 145.00 31.27 S 148.50 31.11, 150.00 31.05 S 153.50 30.89, 155.00 30.82 S 158.50 30.66, 160.00 30.60 S 163.50 30.45, 165.00 30.38 S 168.78 31.03, 170.00 30.16 S 173.61 23.87, 175.00 23.30 S 178.55 25.72, 180.00 26.09 S 183.50 25.91, 185.00 25.83 S 188.59 26.10, 190.00 25.58 S 194.34 20.79, 195.00 22.14 S 198.55 45.61, 200.00 46.00 S 204.65 26.31, 205.00 24.85"
        fill="none">
        <animate attributeName="stroke-dashoffset"
            from="293.3655719299912" to="0" dur="2.2s"/>
        <animate attributeName="stroke-dasharray"
            from="293.3655719299912" to="293.3655719299912"/>
    </path>
    <circle r="4" cx="5" cy="46" fill="#3023AE"/>
    <circle r="4" cx="205" cy="24.847096828535776" fill="#C86DD7" opacity="0">
        <animate attributeName="opacity"
            from="0" to="1" dur="0.1s" begin="2.2s" fill="freeze"/>
    </circle>
</svg>