<svg width="200" height="50" viewBox="0 0 210 50" xmlns="http://www.w3.org/2000/svg">
    <!-- 196 stargazers -->
    <!-- created at Sun Mar 15 2026 12:09:52 GMT+0000 (Coordinated Universal Time) -->
    <defs>
        <linearGradient id="stroke" x1="0%" y1="0%" x2="100%" y2="0%">
            <stop stop-color="#3023AE" offset="0%"/>
            <stop stop-color="#C86DD7" offset="100%"/>
        </linearGradient>
    </defs>
    <path stroke="url(#stroke)"
        stroke-width="3"
        stroke-linejoin="round"
        stroke-linecap="round"
        d="M5.00 46.0001 C 5.72 44.68, 8.73 37.66, 10.00 36.86 S 13.50 39.74, 15.00 39.66 S 18.73 35.49, 20.00 36.30 S 23.50 45.98, 25.00 46.00 S 29.28 37.78, 30.00 36.46 S 33.81 28.55, 35.00 27.64 S 38.68 29.49, 40.00 28.77 S 43.50 22.23, 45.00 22.18 S 48.69 27.73, 50.00 28.47 S 53.50 27.79, 55.00 27.80 S 58.52 28.30, 60.00 28.56 S 63.67 30.26, 65.00 29.55 S 68.62 23.83, 70.00 23.25 S 73.79 26.24, 75.00 25.35 S 78.68 16.71, 80.00 16.00 S 83.72 19.20, 85.00 19.98 S 88.57 21.70, 90.00 22.15 S 93.72 22.38, 95.00 23.17 S 98.51 28.50, 100.00 28.35 S 103.50 22.26, 105.00 22.15 S 108.56 27.18, 110.00 27.60 S 113.66 25.69, 115.00 25.02 S 118.52 22.35, 120.00 22.58 S 123.73 25.73, 125.00 26.52 S 128.53 28.54, 130.00 28.83 S 133.50 28.63, 135.00 28.54 S 138.55 27.85, 140.00 28.25 S 143.78 30.40, 145.00 31.27 S 148.50 35.49, 150.00 35.43 S 153.85 31.78, 155.00 30.82 S 158.61 26.56, 160.00 27.14 S 163.50 35.03, 165.00 34.95 S 168.99 25.49, 170.00 26.61 S 173.59 46.51, 175.00 46.00 S 179.46 24.41, 180.00 23.01 S 184.00 18.85, 185.00 19.96 S 188.53 33.89, 190.00 34.21 S 193.67 22.84, 195.00 22.14 S 198.55 28.53, 200.00 28.93 S 203.84 25.80, 205.00 24.85"
        fill="none">
        <animate attributeName="stroke-dashoffset"
            from="329.95173934097096" to="0" dur="2.2s"/>
        <animate attributeName="stroke-dasharray"
            from="329.95173934097096" to="329.95173934097096"/>
    </path>
    <circle r="4" cx="5" cy="46" fill="#3023AE"/>
    <circle r="4" cx="205" cy="24.84709682853577" fill="#C86DD7" opacity="0">
        <animate attributeName="opacity"
            from="0" to="1" dur="0.1s" begin="2.2s" fill="freeze"/>
    </circle>
</svg>