<svg width="200" height="50" viewBox="0 0 210 50" xmlns="http://www.w3.org/2000/svg">
    <!-- 201 stargazers -->
    <!-- created at Thu Apr 23 2026 05:54:17 GMT+0000 (Coordinated Universal Time) -->
    <defs>
        <linearGradient id="stroke" x1="0%" y1="0%" x2="100%" y2="0%">
            <stop stop-color="#3023AE" offset="0%"/>
            <stop stop-color="#C86DD7" offset="100%"/>
        </linearGradient>
    </defs>
    <path stroke="url(#stroke)"
        stroke-width="3"
        stroke-linejoin="round"
        stroke-linecap="round"
        d="M5.00 46.0001 C 5.68 44.67, 8.76 37.09, 10.00 36.25 S 13.50 39.32, 15.00 39.23 S 18.76 34.81, 20.00 35.66 S 23.51 46.21, 25.00 46.00 S 29.37 35.62, 30.00 34.26 S 34.02 25.69, 35.00 24.55 S 38.58 22.08, 40.00 22.58 S 43.50 28.04, 45.00 28.04 S 48.52 22.33, 50.00 22.56 S 53.65 28.95, 55.00 29.60 S 58.78 28.27, 60.00 27.40 S 63.69 23.21, 65.00 22.47 S 68.74 22.56, 70.00 21.74 S 73.55 16.40, 75.00 16.00 S 78.54 18.63, 80.00 18.96 S 83.66 17.59, 85.00 18.26 S 88.67 23.29, 90.00 23.98 S 93.51 23.61, 95.00 23.46 S 98.51 23.10, 100.00 22.95 S 103.51 22.29, 105.00 22.46 S 108.59 23.56, 110.00 24.06 S 113.52 25.76, 115.00 25.99 S 118.57 26.07, 120.00 25.61 S 123.53 22.47, 125.00 22.78 S 128.83 26.76, 130.00 27.70 S 133.79 29.91, 135.00 30.80 S 138.61 35.63, 140.00 35.07 S 143.66 27.44, 145.00 26.77 S 148.57 29.62, 150.00 30.05 S 153.50 29.89, 155.00 29.81 S 158.62 30.16, 160.00 29.58 S 163.95 26.68, 165.00 25.60 S 168.57 18.83, 170.00 19.30 S 173.53 28.57, 175.00 28.89 S 178.63 22.09, 180.00 21.48 S 183.76 23.66, 185.00 24.50 S 188.87 27.23, 190.00 28.22 S 193.63 33.90, 195.00 33.28 S 198.50 23.75, 200.00 23.70 S 204.29 31.66, 205.00 32.98"
        fill="none">
        <animate attributeName="stroke-dashoffset"
            from="291.51891555486384" to="0" dur="2.2s"/>
        <animate attributeName="stroke-dasharray"
            from="291.51891555486384" to="291.51891555486384"/>
    </path>
    <circle r="4" cx="5" cy="46" fill="#3023AE"/>
    <circle r="4" cx="205" cy="32.977828699814935" fill="#C86DD7" opacity="0">
        <animate attributeName="opacity"
            from="0" to="1" dur="0.1s" begin="2.2s" fill="freeze"/>
    </circle>
</svg>