<svg width="200" height="50" viewBox="0 0 210 50" xmlns="http://www.w3.org/2000/svg">
    <!-- 199 stargazers -->
    <!-- created at Thu Apr 02 2026 11:25:22 GMT+0000 (Coordinated Universal Time) -->
    <defs>
        <linearGradient id="stroke" x1="0%" y1="0%" x2="100%" y2="0%">
            <stop stop-color="#3023AE" offset="0%"/>
            <stop stop-color="#C86DD7" offset="100%"/>
        </linearGradient>
    </defs>
    <path stroke="url(#stroke)"
        stroke-width="3"
        stroke-linejoin="round"
        stroke-linecap="round"
        d="M5.00 46.0001 C 5.72 44.68, 8.73 37.66, 10.00 36.86 S 13.50 39.74, 15.00 39.66 S 18.73 35.49, 20.00 36.30 S 23.50 45.98, 25.00 46.00 S 29.31 37.79, 30.00 36.46 S 34.02 27.87, 35.00 26.74 S 38.50 24.87, 40.00 24.89 S 43.51 26.72, 45.00 26.90 S 48.54 25.79, 50.00 26.12 S 53.54 28.80, 55.00 29.15 S 58.50 28.50, 60.00 28.56 S 63.88 30.55, 65.00 29.55 S 68.77 20.59, 70.00 19.73 S 73.59 23.11, 75.00 22.59 S 78.55 16.38, 80.00 16.00 S 83.90 18.96, 85.00 19.98 S 88.65 24.69, 90.00 25.35 S 93.56 24.43, 95.00 24.86 S 98.55 28.74, 100.00 28.35 S 103.56 22.57, 105.00 22.15 S 108.51 25.30, 110.00 25.43 S 113.61 22.46, 115.00 23.02 S 118.58 28.94, 120.00 29.44 S 123.57 26.99, 125.00 26.52 S 128.53 25.88, 130.00 26.18 S 133.68 27.83, 135.00 28.54 S 138.77 30.64, 140.00 31.51 S 143.50 35.66, 145.00 35.59 S 148.84 32.00, 150.00 31.05 S 153.61 26.84, 155.00 27.41 S 158.50 35.19, 160.00 35.11 S 163.50 26.92, 165.00 26.87 S 168.59 35.31, 170.00 34.80 S 174.03 24.45, 175.00 23.30 S 178.55 22.64, 180.00 23.01 S 183.73 25.03, 185.00 25.83 S 188.59 29.85, 190.00 29.33 S 193.64 21.51, 195.00 22.14 S 198.55 33.53, 200.00 33.93 S 204.28 26.16, 205.00 24.85"
        fill="none">
        <animate attributeName="stroke-dashoffset"
            from="300.5233966155446" to="0" dur="2.2s"/>
        <animate attributeName="stroke-dasharray"
            from="300.5233966155446" to="300.5233966155446"/>
    </path>
    <circle r="4" cx="5" cy="46" fill="#3023AE"/>
    <circle r="4" cx="205" cy="24.847096828539186" fill="#C86DD7" opacity="0">
        <animate attributeName="opacity"
            from="0" to="1" dur="0.1s" begin="2.2s" fill="freeze"/>
    </circle>
</svg>