<svg width="200" height="50" viewBox="0 0 210 50" xmlns="http://www.w3.org/2000/svg">
    <!-- 204 stargazers -->
    <!-- created at Fri May 08 2026 07:06:32 GMT+0000 (Coordinated Universal Time) -->
    <defs>
        <linearGradient id="stroke" x1="0%" y1="0%" x2="100%" y2="0%">
            <stop stop-color="#3023AE" offset="0%"/>
            <stop stop-color="#C86DD7" offset="100%"/>
        </linearGradient>
    </defs>
    <path stroke="url(#stroke)"
        stroke-width="3"
        stroke-linejoin="round"
        stroke-linecap="round"
        d="M5.00 46.0001 C 5.72 44.69, 8.73 37.72, 10.00 36.92 S 13.50 39.78, 15.00 39.70 S 18.73 35.57, 20.00 36.37 S 23.55 46.38, 25.00 46.00 S 29.33 35.12, 30.00 33.78 S 33.96 27.11, 35.00 26.03 S 38.70 22.61, 40.00 23.37 S 43.50 31.89, 45.00 31.87 S 48.55 23.59, 50.00 23.21 S 53.68 28.56, 55.00 29.28 S 58.67 29.38, 60.00 28.69 S 63.61 24.65, 65.00 24.10 S 68.83 25.65, 70.00 24.71 S 73.86 16.97, 75.00 16.00 S 78.94 15.16, 80.00 16.22 S 83.90 24.98, 85.00 26.00 S 88.51 25.37, 90.00 25.50 S 93.55 27.23, 95.00 26.85 S 98.51 22.95, 100.00 22.82 S 103.50 25.87, 105.00 25.99 S 108.51 23.75, 110.00 23.63 S 113.58 24.69, 115.00 25.17 S 118.52 26.79, 120.00 27.02 S 123.66 25.99, 125.00 26.67 S 128.90 31.06, 130.00 32.09 S 133.50 36.06, 135.00 35.99 S 138.82 32.54, 140.00 31.61 S 143.50 28.17, 145.00 28.10 S 148.56 30.75, 150.00 31.16 S 153.50 31.00, 155.00 30.93 S 158.91 31.74, 160.00 30.71 S 163.61 22.04, 165.00 21.48 S 168.53 26.46, 170.00 26.75 S 173.59 23.97, 175.00 23.47 S 178.99 22.07, 180.00 23.18 S 183.73 33.64, 185.00 34.44 S 188.67 30.14, 190.00 29.45 S 193.64 28.63, 195.00 29.25 S 198.62 34.60, 200.00 34.02 S 204.27 26.31, 205.00 25.00"
        fill="none">
        <animate attributeName="stroke-dashoffset"
            from="293.1796069084884" to="0" dur="2.2s"/>
        <animate attributeName="stroke-dasharray"
            from="293.1796069084884" to="293.1796069084884"/>
    </path>
    <circle r="4" cx="5" cy="46" fill="#3023AE"/>
    <circle r="4" cx="205" cy="25.002379707082444" fill="#C86DD7" opacity="0">
        <animate attributeName="opacity"
            from="0" to="1" dur="0.1s" begin="2.2s" fill="freeze"/>
    </circle>
</svg>