<svg width="200" height="50" viewBox="0 0 210 50" xmlns="http://www.w3.org/2000/svg">
    <!-- 204 stargazers -->
    <!-- created at Tue May 05 2026 07:04:28 GMT+0000 (Coordinated Universal Time) -->
    <defs>
        <linearGradient id="stroke" x1="0%" y1="0%" x2="100%" y2="0%">
            <stop stop-color="#3023AE" offset="0%"/>
            <stop stop-color="#C86DD7" offset="100%"/>
        </linearGradient>
    </defs>
    <path stroke="url(#stroke)"
        stroke-width="3"
        stroke-linejoin="round"
        stroke-linecap="round"
        d="M5.00 46.0001 C 5.72 44.69, 8.73 37.72, 10.00 36.92 S 13.50 39.78, 15.00 39.70 S 18.73 35.57, 20.00 36.37 S 23.55 46.38, 25.00 46.00 S 29.30 35.11, 30.00 33.78 S 33.96 27.96, 35.00 26.88 S 38.59 22.86, 40.00 23.37 S 43.50 30.55, 45.00 30.52 S 48.51 23.40, 50.00 23.21 S 53.68 28.56, 55.00 29.28 S 58.67 29.38, 60.00 28.69 S 63.55 24.47, 65.00 24.10 S 68.83 27.03, 70.00 26.09 S 73.93 17.05, 75.00 16.00 S 78.85 15.26, 80.00 16.22 S 83.90 23.37, 85.00 24.39 S 88.63 24.89, 90.00 25.50 S 93.62 29.46, 95.00 28.87 S 98.56 21.64, 100.00 21.22 S 103.54 25.64, 105.00 25.99 S 108.51 23.42, 110.00 23.63 S 113.51 27.20, 115.00 27.37 S 118.66 24.11, 120.00 24.77 S 123.62 31.75, 125.00 32.33 S 128.59 28.44, 130.00 28.96 S 133.50 36.08, 135.00 35.99 S 138.82 29.31, 140.00 28.38 S 143.78 27.23, 145.00 28.10 S 148.50 35.59, 150.00 35.50 S 153.65 28.19, 155.00 27.55 S 158.58 31.20, 160.00 30.71 S 163.61 24.62, 165.00 24.07 S 168.57 27.21, 170.00 26.75 S 173.57 20.37, 175.00 20.81 S 178.67 29.17, 180.00 29.86 S 183.63 25.37, 185.00 25.98 S 188.50 34.37, 190.00 34.30 S 193.50 25.53, 195.00 25.49 S 198.50 34.09, 200.00 34.02 S 204.27 26.31, 205.00 25.00"
        fill="none">
        <animate attributeName="stroke-dashoffset"
            from="321.3710395080334" to="0" dur="2.2s"/>
        <animate attributeName="stroke-dasharray"
            from="321.3710395080334" to="321.3710395080334"/>
    </path>
    <circle r="4" cx="5" cy="46" fill="#3023AE"/>
    <circle r="4" cx="205" cy="25.002379707082262" fill="#C86DD7" opacity="0">
        <animate attributeName="opacity"
            from="0" to="1" dur="0.1s" begin="2.2s" fill="freeze"/>
    </circle>
</svg>