<svg width="200" height="50" viewBox="0 0 210 50" xmlns="http://www.w3.org/2000/svg">
    <!-- 202 stargazers -->
    <!-- created at Sat May 02 2026 06:55:58 GMT+0000 (Coordinated Universal Time) -->
    <defs>
        <linearGradient id="stroke" x1="0%" y1="0%" x2="100%" y2="0%">
            <stop stop-color="#3023AE" offset="0%"/>
            <stop stop-color="#C86DD7" offset="100%"/>
        </linearGradient>
    </defs>
    <path stroke="url(#stroke)"
        stroke-width="3"
        stroke-linejoin="round"
        stroke-linecap="round"
        d="M5.00 46.0001 C 5.72 44.69, 8.73 37.72, 10.00 36.92 S 13.50 39.78, 15.00 39.70 S 18.73 35.57, 20.00 36.37 S 23.55 46.38, 25.00 46.00 S 29.30 35.11, 30.00 33.78 S 33.96 27.96, 35.00 26.88 S 38.59 22.86, 40.00 23.37 S 43.50 30.55, 45.00 30.52 S 48.51 23.40, 50.00 23.21 S 53.68 28.56, 55.00 29.28 S 58.67 29.38, 60.00 28.69 S 63.55 24.47, 65.00 24.10 S 68.83 27.03, 70.00 26.09 S 73.87 16.99, 75.00 16.00 S 78.85 16.34, 80.00 17.30 S 83.75 23.57, 85.00 24.39 S 88.63 23.25, 90.00 23.86 S 93.51 29.02, 95.00 28.87 S 98.65 23.47, 100.00 22.82 S 103.50 23.96, 105.00 24.08 S 108.58 23.16, 110.00 23.63 S 113.71 26.61, 115.00 27.37 S 118.50 29.66, 120.00 29.56 S 123.50 26.76, 125.00 26.67 S 128.90 27.94, 130.00 28.96 S 133.55 35.61, 135.00 35.99 S 138.97 32.71, 140.00 31.61 S 143.60 24.78, 145.00 25.33 S 148.54 35.18, 150.00 35.50 S 153.50 27.59, 155.00 27.55 S 158.50 35.27, 160.00 35.19 S 164.13 28.23, 165.00 27.01 S 168.50 21.22, 170.00 21.15 S 173.66 25.81, 175.00 26.49 S 178.59 26.74, 180.00 26.23 S 184.32 21.55, 185.00 22.88 S 188.50 46.09, 190.00 46.00 S 193.50 22.31, 195.00 22.31 S 198.74 45.18, 200.00 46.00 S 204.58 30.30, 205.00 28.86"
        fill="none">
        <animate attributeName="stroke-dashoffset"
            from="366.6472362346647" to="0" dur="2.2s"/>
        <animate attributeName="stroke-dasharray"
            from="366.6472362346647" to="366.6472362346647"/>
    </path>
    <circle r="4" cx="5" cy="46" fill="#3023AE"/>
    <circle r="4" cx="205" cy="28.85551482321406" fill="#C86DD7" opacity="0">
        <animate attributeName="opacity"
            from="0" to="1" dur="0.1s" begin="2.2s" fill="freeze"/>
    </circle>
</svg>