<svg width="200" height="50" viewBox="0 0 210 50" xmlns="http://www.w3.org/2000/svg">
    <!-- 200 stargazers -->
    <!-- created at Wed Apr 08 2026 11:58:54 GMT+0000 (Coordinated Universal Time) -->
    <defs>
        <linearGradient id="stroke" x1="0%" y1="0%" x2="100%" y2="0%">
            <stop stop-color="#3023AE" offset="0%"/>
            <stop stop-color="#C86DD7" offset="100%"/>
        </linearGradient>
    </defs>
    <path stroke="url(#stroke)"
        stroke-width="3"
        stroke-linejoin="round"
        stroke-linecap="round"
        d="M5.00 46.0001 C 5.70 44.67, 8.75 37.34, 10.00 36.51 S 13.50 39.50, 15.00 39.42 S 18.75 35.11, 20.00 35.93 S 23.50 45.97, 25.00 46.00 S 29.35 37.45, 30.00 36.10 S 33.99 26.24, 35.00 25.12 S 38.51 24.87, 40.00 25.03 S 43.50 26.13, 45.00 26.18 S 48.54 25.03, 50.00 25.37 S 53.55 28.15, 55.00 28.52 S 58.55 28.29, 60.00 27.90 S 63.89 26.82, 65.00 25.81 S 68.61 19.31, 70.00 18.74 S 73.55 22.10, 75.00 21.71 S 78.51 16.20, 80.00 16.00 S 83.67 19.69, 85.00 20.39 S 88.81 20.34, 90.00 21.25 S 93.50 28.01, 95.00 28.09 S 98.56 22.20, 100.00 21.77 S 103.56 24.67, 105.00 25.08 S 108.56 25.07, 110.00 24.65 S 113.52 21.92, 115.00 22.15 S 118.73 25.35, 120.00 26.15 S 123.50 28.60, 125.00 28.50 S 128.55 25.04, 130.00 25.43 S 133.69 30.48, 135.00 31.21 S 138.50 31.03, 140.00 30.96 S 143.61 31.27, 145.00 30.72 S 148.61 26.42, 150.00 26.99 S 153.56 34.43, 155.00 34.86 S 158.66 30.70, 160.00 30.02 S 163.61 30.36, 165.00 29.79 S 168.95 26.94, 170.00 25.87 S 173.57 19.20, 175.00 19.67 S 178.53 28.81, 180.00 29.13 S 183.50 21.90, 185.00 21.83 S 188.55 28.31, 190.00 28.70 S 193.65 23.91, 195.00 24.55 S 198.50 33.55, 200.00 33.47 S 204.30 25.37, 205.00 24.05"
        fill="none">
        <animate attributeName="stroke-dashoffset"
            from="293.3453798567044" to="0" dur="2.2s"/>
        <animate attributeName="stroke-dasharray"
            from="293.3453798567044" to="293.3453798567044"/>
    </path>
    <circle r="4" cx="5" cy="46" fill="#3023AE"/>
    <circle r="4" cx="205" cy="24.048594970258506" fill="#C86DD7" opacity="0">
        <animate attributeName="opacity"
            from="0" to="1" dur="0.1s" begin="2.2s" fill="freeze"/>
    </circle>
</svg>