<svg width="200" height="50" viewBox="0 0 210 50" xmlns="http://www.w3.org/2000/svg">
    <!-- 196 stargazers -->
    <!-- created at Wed Mar 18 2026 12:55:52 GMT+0000 (Coordinated Universal Time) -->
    <defs>
        <linearGradient id="stroke" x1="0%" y1="0%" x2="100%" y2="0%">
            <stop stop-color="#3023AE" offset="0%"/>
            <stop stop-color="#C86DD7" offset="100%"/>
        </linearGradient>
    </defs>
    <path stroke="url(#stroke)"
        stroke-width="3"
        stroke-linejoin="round"
        stroke-linecap="round"
        d="M5.00 46.0001 C 5.74 44.69, 8.72 37.95, 10.00 37.17 S 13.50 39.95, 15.00 39.87 S 18.72 35.84, 20.00 36.63 S 23.50 45.98, 25.00 46.00 S 29.26 38.09, 30.00 36.78 S 33.80 29.15, 35.00 28.26 S 38.67 30.05, 40.00 29.35 S 43.50 23.03, 45.00 22.99 S 48.62 28.48, 50.00 29.06 S 53.50 27.19, 55.00 27.21 S 58.64 28.52, 60.00 29.15 S 63.73 32.59, 65.00 31.79 S 68.62 23.42, 70.00 22.83 S 73.76 28.38, 75.00 27.53 S 78.82 16.93, 80.00 16.00 S 83.85 18.67, 85.00 19.64 S 88.71 23.69, 90.00 24.45 S 93.54 25.22, 95.00 25.58 S 98.51 27.07, 100.00 26.94 S 103.55 25.06, 105.00 24.67 S 108.69 23.49, 110.00 24.23 S 113.51 30.43, 115.00 30.30 S 118.57 23.82, 120.00 23.37 S 123.58 26.69, 125.00 27.18 S 128.53 26.56, 130.00 26.85 S 133.67 28.44, 135.00 29.13 S 138.55 31.62, 140.00 32.00 S 143.60 31.24, 145.00 31.77 S 148.59 36.31, 150.00 35.78 S 153.64 28.67, 155.00 28.04 S 158.79 30.24, 160.00 31.12 S 163.60 35.87, 165.00 35.33 S 168.50 27.31, 170.00 27.26 S 173.50 35.11, 175.00 35.04 S 179.14 27.99, 180.00 26.76 S 183.57 20.40, 185.00 20.85 S 188.67 29.20, 190.00 29.89 S 193.78 26.91, 195.00 26.03 S 198.84 21.72, 200.00 22.67 S 204.40 32.83, 205.00 34.20"
        fill="none">
        <animate attributeName="stroke-dashoffset"
            from="302.9765251924556" to="0" dur="2.2s"/>
        <animate attributeName="stroke-dasharray"
            from="302.9765251924556" to="302.9765251924556"/>
    </path>
    <circle r="4" cx="5" cy="46" fill="#3023AE"/>
    <circle r="4" cx="205" cy="34.20147431419476" fill="#C86DD7" opacity="0">
        <animate attributeName="opacity"
            from="0" to="1" dur="0.1s" begin="2.2s" fill="freeze"/>
    </circle>
</svg>