<svg width="200" height="50" viewBox="0 0 210 50" xmlns="http://www.w3.org/2000/svg">
    <!-- 195 stargazers -->
    <!-- created at Thu Mar 12 2026 11:44:29 GMT+0000 (Coordinated Universal Time) -->
    <defs>
        <linearGradient id="stroke" x1="0%" y1="0%" x2="100%" y2="0%">
            <stop stop-color="#3023AE" offset="0%"/>
            <stop stop-color="#C86DD7" offset="100%"/>
        </linearGradient>
    </defs>
    <path stroke="url(#stroke)"
        stroke-width="3"
        stroke-linejoin="round"
        stroke-linecap="round"
        d="M5.00 46.0001 C 5.72 44.68, 8.73 37.66, 10.00 36.86 S 13.50 39.74, 15.00 39.66 S 18.73 35.49, 20.00 36.30 S 23.50 45.98, 25.00 46.00 S 29.28 37.78, 30.00 36.46 S 33.75 28.46, 35.00 27.64 S 38.73 30.68, 40.00 29.88 S 43.51 21.56, 45.00 21.35 S 48.82 27.54, 50.00 28.47 S 53.50 29.14, 55.00 29.15 S 58.51 28.73, 60.00 28.56 S 63.67 28.69, 65.00 27.98 S 68.55 23.63, 70.00 23.25 S 73.79 26.24, 75.00 25.35 S 78.61 16.56, 80.00 16.00 S 83.72 20.53, 85.00 21.32 S 88.52 21.88, 90.00 22.15 S 93.61 22.60, 95.00 23.17 S 98.50 26.16, 100.00 26.27 S 103.51 24.05, 105.00 23.92 S 108.51 25.26, 110.00 25.43 S 113.56 25.43, 115.00 25.02 S 118.78 21.70, 120.00 22.58 S 123.51 32.04, 125.00 32.23 S 128.59 24.36, 130.00 23.84 S 133.63 27.93, 135.00 28.54 S 138.55 27.85, 140.00 28.25 S 143.78 30.40, 145.00 31.27 S 148.50 35.49, 150.00 35.43 S 153.85 31.78, 155.00 30.82 S 158.61 26.56, 160.00 27.14 S 163.56 34.52, 165.00 34.95 S 168.50 30.21, 170.00 30.16 S 173.78 35.52, 175.00 34.65 S 179.04 24.16, 180.00 23.01 S 184.00 21.59, 185.00 22.71 S 188.58 34.69, 190.00 34.21 S 193.50 19.36, 195.00 19.32 S 198.69 33.20, 200.00 33.93 S 204.28 26.16, 205.00 24.85"
        fill="none">
        <animate attributeName="stroke-dashoffset"
            from="319.21894808420774" to="0" dur="2.2s"/>
        <animate attributeName="stroke-dasharray"
            from="319.21894808420774" to="319.21894808420774"/>
    </path>
    <circle r="4" cx="5" cy="46" fill="#3023AE"/>
    <circle r="4" cx="205" cy="24.847096828537097" fill="#C86DD7" opacity="0">
        <animate attributeName="opacity"
            from="0" to="1" dur="0.1s" begin="2.2s" fill="freeze"/>
    </circle>
</svg>