<svg width="200" height="50" viewBox="0 0 210 50" xmlns="http://www.w3.org/2000/svg">
    <!-- 207 stargazers -->
    <!-- created at Sun May 17 2026 08:05:29 GMT+0000 (Coordinated Universal Time) -->
    <defs>
        <linearGradient id="stroke" x1="0%" y1="0%" x2="100%" y2="0%">
            <stop stop-color="#3023AE" offset="0%"/>
            <stop stop-color="#C86DD7" offset="100%"/>
        </linearGradient>
    </defs>
    <path stroke="url(#stroke)"
        stroke-width="3"
        stroke-linejoin="round"
        stroke-linecap="round"
        d="M5.00 46.0001 C 5.76 44.71, 8.71 38.24, 10.00 37.47 S 13.50 40.16, 15.00 40.08 S 18.51 36.79, 20.00 36.95 S 23.51 41.34, 25.00 41.16 S 29.16 36.97, 30.00 35.73 S 33.95 27.55, 35.00 26.48 S 38.66 24.85, 40.00 25.52 S 43.50 31.46, 45.00 31.46 S 48.51 25.68, 50.00 25.51 S 53.62 29.71, 55.00 30.29 S 58.77 30.60, 60.00 29.74 S 63.66 23.92, 65.00 23.25 S 68.79 25.67, 70.00 24.79 S 73.51 16.18, 75.00 16.00 S 78.85 22.61, 80.00 23.57 S 83.65 23.65, 85.00 24.30 S 88.50 28.36, 90.00 28.42 S 93.55 25.08, 95.00 24.71 S 98.50 25.74, 100.00 25.85 S 103.67 24.71, 105.00 25.41 S 108.51 30.99, 110.00 31.14 S 113.66 27.11, 115.00 26.44 S 118.60 25.52, 120.00 26.06 S 123.76 29.42, 125.00 30.27 S 128.54 32.58, 130.00 32.93 S 133.72 33.48, 135.00 32.71 S 138.59 26.38, 140.00 26.89 S 143.67 35.60, 145.00 36.29 S 148.50 32.10, 150.00 32.06 S 153.73 36.80, 155.00 35.99 S 159.09 26.88, 160.00 25.69 S 163.54 22.65, 165.00 22.97 S 168.64 27.28, 170.00 27.92 S 173.58 28.15, 175.00 27.67 S 178.80 23.66, 180.00 24.56 S 183.54 34.79, 185.00 35.14 S 188.50 27.00, 190.00 26.96 S 193.50 34.94, 195.00 34.87 S 198.86 27.48, 200.00 26.50 S 203.50 26.34, 205.00 26.28"
        fill="none">
        <animate attributeName="stroke-dashoffset"
            from="292.95281746873144" to="0" dur="2.2s"/>
        <animate attributeName="stroke-dasharray"
            from="292.95281746873144" to="292.95281746873144"/>
    </path>
    <circle r="4" cx="5" cy="46" fill="#3023AE"/>
    <circle r="4" cx="205" cy="26.276170176389993" fill="#C86DD7" opacity="0">
        <animate attributeName="opacity"
            from="0" to="1" dur="0.1s" begin="2.2s" fill="freeze"/>
    </circle>
</svg>