<svg width="200" height="50" viewBox="0 0 210 50" xmlns="http://www.w3.org/2000/svg">
    <!-- 196 stargazers -->
    <!-- created at Tue Mar 24 2026 13:09:57 GMT+0000 (Coordinated Universal Time) -->
    <defs>
        <linearGradient id="stroke" x1="0%" y1="0%" x2="100%" y2="0%">
            <stop stop-color="#3023AE" offset="0%"/>
            <stop stop-color="#C86DD7" offset="100%"/>
        </linearGradient>
    </defs>
    <path stroke="url(#stroke)"
        stroke-width="3"
        stroke-linejoin="round"
        stroke-linecap="round"
        d="M5.00 46.0001 C 5.71 44.68, 8.74 37.56, 10.00 36.75 S 13.50 39.67, 15.00 39.58 S 18.74 35.38, 20.00 36.19 S 23.50 45.98, 25.00 46.00 S 29.29 37.67, 30.00 36.35 S 33.93 28.48, 35.00 27.43 S 38.59 27.04, 40.00 26.51 S 43.50 23.79, 45.00 23.70 S 48.67 25.19, 50.00 25.89 S 53.54 28.60, 55.00 28.96 S 58.50 28.30, 60.00 28.36 S 63.75 30.19, 65.00 29.37 S 68.62 22.33, 70.00 21.75 S 73.66 25.79, 75.00 25.12 S 78.89 17.77, 80.00 16.76 S 83.85 15.04, 85.00 16.00 S 88.86 24.13, 90.00 25.11 S 93.51 24.77, 95.00 24.62 S 98.51 23.99, 100.00 24.14 S 103.51 25.75, 105.00 25.61 S 108.51 23.33, 110.00 23.21 S 113.72 24.00, 115.00 24.78 S 118.50 29.37, 120.00 29.25 S 123.58 24.45, 125.00 23.98 S 128.63 25.35, 130.00 25.95 S 133.68 27.63, 135.00 28.34 S 138.78 30.47, 140.00 31.34 S 143.50 35.54, 145.00 35.47 S 149.00 31.99, 150.00 30.88 S 154.17 23.04, 155.00 24.29 S 158.71 45.24, 160.00 46.00 S 164.21 31.47, 165.00 30.20 S 168.61 30.55, 170.00 29.98 S 173.78 27.00, 175.00 26.12 S 178.57 22.28, 180.00 22.74 S 183.58 29.83, 185.00 29.35 S 188.64 18.71, 190.00 19.34 S 193.54 33.60, 195.00 33.93 S 199.04 20.42, 200.00 21.58 S 204.70 44.53, 205.00 46.00"
        fill="none">
        <animate attributeName="stroke-dashoffset"
            from="339.8942769526625" to="0" dur="2.2s"/>
        <animate attributeName="stroke-dasharray"
            from="339.8942769526625" to="339.8942769526625"/>
    </path>
    <circle r="4" cx="5" cy="46" fill="#3023AE"/>
    <circle r="4" cx="205" cy="46" fill="#C86DD7" opacity="0">
        <animate attributeName="opacity"
            from="0" to="1" dur="0.1s" begin="2.2s" fill="freeze"/>
    </circle>
</svg>