<svg width="200" height="50" viewBox="0 0 210 50" xmlns="http://www.w3.org/2000/svg">
    <!-- 196 stargazers -->
    <!-- created at Fri Mar 27 2026 13:44:18 GMT+0000 (Coordinated Universal Time) -->
    <defs>
        <linearGradient id="stroke" x1="0%" y1="0%" x2="100%" y2="0%">
            <stop stop-color="#3023AE" offset="0%"/>
            <stop stop-color="#C86DD7" offset="100%"/>
        </linearGradient>
    </defs>
    <path stroke="url(#stroke)"
        stroke-width="3"
        stroke-linejoin="round"
        stroke-linecap="round"
        d="M5.00 46.0001 C 5.72 44.68, 8.73 37.66, 10.00 36.86 S 13.50 39.74, 15.00 39.66 S 18.73 35.49, 20.00 36.30 S 23.50 45.98, 25.00 46.00 S 29.31 37.79, 30.00 36.46 S 33.92 27.79, 35.00 26.74 S 38.53 27.01, 40.00 26.73 S 43.50 24.98, 45.00 24.89 S 48.62 25.53, 50.00 26.12 S 53.54 28.80, 55.00 29.15 S 58.50 28.50, 60.00 28.56 S 63.74 30.37, 65.00 29.55 S 68.69 22.76, 70.00 22.02 S 73.71 24.70, 75.00 23.93 S 78.81 16.91, 80.00 16.00 S 84.00 15.22, 85.00 16.34 S 88.76 26.30, 90.00 27.15 S 93.51 22.99, 95.00 23.17 S 98.50 28.24, 100.00 28.35 S 103.56 24.34, 105.00 23.92 S 108.51 25.26, 110.00 25.43 S 113.52 24.80, 115.00 25.02 S 118.52 26.65, 120.00 26.87 S 123.56 26.96, 125.00 26.52 S 128.53 23.54, 130.00 23.84 S 134.04 27.39, 135.00 28.54 S 138.55 35.36, 140.00 35.75 S 143.50 31.32, 145.00 31.27 S 148.76 36.26, 150.00 35.43 S 153.50 24.58, 155.00 24.53 S 158.71 34.35, 160.00 35.11 S 163.50 30.43, 165.00 30.38 S 168.78 35.67, 170.00 34.80 S 174.03 24.45, 175.00 23.30 S 178.73 22.21, 180.00 23.01 S 183.50 29.62, 185.00 29.53 S 188.50 22.48, 190.00 22.42 S 193.55 28.74, 195.00 29.13 S 199.24 23.80, 200.00 25.09 S 204.65 44.54, 205.00 46.00"
        fill="none">
        <animate attributeName="stroke-dashoffset"
            from="316.24943081143283" to="0" dur="2.2s"/>
        <animate attributeName="stroke-dasharray"
            from="316.24943081143283" to="316.24943081143283"/>
    </path>
    <circle r="4" cx="5" cy="46" fill="#3023AE"/>
    <circle r="4" cx="205" cy="46" fill="#C86DD7" opacity="0">
        <animate attributeName="opacity"
            from="0" to="1" dur="0.1s" begin="2.2s" fill="freeze"/>
    </circle>
</svg>