<svg width="200" height="50" viewBox="0 0 210 50" xmlns="http://www.w3.org/2000/svg">
    <!-- 193 stargazers -->
    <!-- created at Wed Mar 04 2026 15:51:02 GMT+0000 (Coordinated Universal Time) -->
    <defs>
        <linearGradient id="stroke" x1="0%" y1="0%" x2="100%" y2="0%">
            <stop stop-color="#3023AE" offset="0%"/>
            <stop stop-color="#C86DD7" offset="100%"/>
        </linearGradient>
    </defs>
    <path stroke="url(#stroke)"
        stroke-width="3"
        stroke-linejoin="round"
        stroke-linecap="round"
        d="M5.00 46.0001 C 5.73 44.69, 8.72 37.88, 10.00 37.09 S 13.50 39.90, 15.00 39.82 S 18.72 35.76, 20.00 36.54 S 23.50 45.98, 25.00 46.00 S 29.24 38.00, 30.00 36.70 S 33.80 29.92, 35.00 29.02 S 38.73 30.00, 40.00 29.20 S 43.54 22.44, 45.00 22.79 S 48.57 31.11, 50.00 31.56 S 53.55 26.26, 55.00 25.89 S 58.55 28.63, 60.00 29.00 S 63.55 28.81, 65.00 28.44 S 68.60 27.00, 70.00 26.45 S 73.67 25.18, 75.00 24.49 S 78.86 22.26, 80.00 21.29 S 83.56 15.57, 85.00 16.00 S 88.73 23.47, 90.00 24.26 S 93.63 21.59, 95.00 22.21 S 98.73 28.01, 100.00 28.80 S 103.74 29.25, 105.00 28.43 S 108.50 22.38, 110.00 22.28 S 113.56 27.29, 115.00 27.71 S 118.53 24.89, 120.00 25.16 S 123.50 29.67, 125.00 29.56 S 128.57 24.86, 130.00 24.40 S 133.80 25.45, 135.00 26.35 S 138.53 31.57, 140.00 31.88 S 143.60 27.89, 145.00 28.42 S 148.55 35.29, 150.00 35.69 S 153.64 31.84, 155.00 31.21 S 158.50 31.05, 160.00 30.99 S 163.61 30.21, 165.00 30.78 S 168.60 35.64, 170.00 35.09 S 173.50 26.89, 175.00 26.84 S 178.50 34.87, 180.00 34.80 S 184.15 27.58, 185.00 26.35 S 188.83 19.37, 190.00 20.31 S 193.53 34.06, 195.00 34.37 S 198.67 23.16, 200.00 22.47 S 204.10 27.97, 205.00 29.17"
        fill="none">
        <animate attributeName="stroke-dashoffset"
            from="311.10127656875665" to="0" dur="2.2s"/>
        <animate attributeName="stroke-dasharray"
            from="311.10127656875665" to="311.10127656875665"/>
    </path>
    <circle r="4" cx="5" cy="46" fill="#3023AE"/>
    <circle r="4" cx="205" cy="29.167470476355135" fill="#C86DD7" opacity="0">
        <animate attributeName="opacity"
            from="0" to="1" dur="0.1s" begin="2.2s" fill="freeze"/>
    </circle>
</svg>