<svg width="200" height="50" viewBox="0 0 210 50" xmlns="http://www.w3.org/2000/svg">
    <!-- 200 stargazers -->
    <!-- created at Fri Apr 17 2026 05:36:57 GMT+0000 (Coordinated Universal Time) -->
    <defs>
        <linearGradient id="stroke" x1="0%" y1="0%" x2="100%" y2="0%">
            <stop stop-color="#3023AE" offset="0%"/>
            <stop stop-color="#C86DD7" offset="100%"/>
        </linearGradient>
    </defs>
    <path stroke="url(#stroke)"
        stroke-width="3"
        stroke-linejoin="round"
        stroke-linecap="round"
        d="M5.00 46.0001 C 5.70 44.67, 8.75 37.34, 10.00 36.51 S 13.50 39.50, 15.00 39.42 S 18.75 35.11, 20.00 35.93 S 23.50 45.97, 25.00 46.00 S 29.37 37.46, 30.00 36.10 S 34.08 25.46, 35.00 24.27 S 38.62 22.62, 40.00 23.20 S 43.53 28.21, 45.00 28.52 S 48.52 25.14, 50.00 25.37 S 53.55 29.67, 55.00 30.04 S 58.77 28.75, 60.00 27.90 S 63.76 23.94, 65.00 23.10 S 68.61 21.67, 70.00 21.12 S 73.66 19.83, 75.00 19.14 S 78.55 15.61, 80.00 16.00 S 83.67 21.15, 85.00 21.85 S 88.61 20.68, 90.00 21.25 S 93.54 25.64, 95.00 25.98 S 98.56 23.99, 100.00 23.57 S 103.51 22.92, 105.00 23.09 S 108.58 24.16, 110.00 24.65 S 113.51 26.65, 115.00 26.52 S 118.57 24.26, 120.00 23.81 S 123.63 22.80, 125.00 23.40 S 128.82 27.26, 130.00 28.19 S 133.78 30.33, 135.00 31.21 S 138.50 35.44, 140.00 35.37 S 143.85 31.68, 145.00 30.72 S 148.61 26.42, 150.00 26.99 S 153.50 34.95, 155.00 34.86 S 158.50 26.47, 160.00 26.43 S 163.59 35.05, 165.00 34.54 S 169.04 23.92, 170.00 22.76 S 173.55 22.07, 175.00 22.45 S 178.74 24.52, 180.00 25.34 S 183.60 29.45, 185.00 28.91 S 188.64 20.89, 190.00 21.53 S 193.55 33.22, 195.00 33.62 S 198.50 24.34, 200.00 24.30 S 204.27 32.01, 205.00 33.33"
        fill="none">
        <animate attributeName="stroke-dashoffset"
            from="302.1386215536876" to="0" dur="2.2s"/>
        <animate attributeName="stroke-dasharray"
            from="302.1386215536876" to="302.1386215536876"/>
    </path>
    <circle r="4" cx="5" cy="46" fill="#3023AE"/>
    <circle r="4" cx="205" cy="33.326350396986456" fill="#C86DD7" opacity="0">
        <animate attributeName="opacity"
            from="0" to="1" dur="0.1s" begin="2.2s" fill="freeze"/>
    </circle>
</svg>