<svg width="200" height="50" viewBox="0 0 210 50" xmlns="http://www.w3.org/2000/svg">
    <!-- 195 stargazers -->
    <!-- created at Mon Mar 09 2026 10:29:23 GMT+0000 (Coordinated Universal Time) -->
    <defs>
        <linearGradient id="stroke" x1="0%" y1="0%" x2="100%" y2="0%">
            <stop stop-color="#3023AE" offset="0%"/>
            <stop stop-color="#C86DD7" offset="100%"/>
        </linearGradient>
    </defs>
    <path stroke="url(#stroke)"
        stroke-width="3"
        stroke-linejoin="round"
        stroke-linecap="round"
        d="M5.00 46.0001 C 5.71 44.68, 8.74 37.56, 10.00 36.75 S 13.50 39.67, 15.00 39.58 S 18.74 35.38, 20.00 36.19 S 23.50 45.98, 25.00 46.00 S 29.26 37.66, 30.00 36.35 S 33.82 29.30, 35.00 28.38 S 38.74 29.39, 40.00 28.57 S 43.51 21.76, 45.00 21.91 S 48.63 28.98, 50.00 29.58 S 53.51 26.51, 55.00 26.32 S 58.52 28.14, 60.00 28.36 S 63.68 28.49, 65.00 27.78 S 68.55 23.38, 70.00 22.99 S 73.55 25.50, 75.00 25.12 S 78.89 21.37, 80.00 20.36 S 83.52 15.77, 85.00 16.00 S 88.77 21.03, 90.00 21.88 S 93.73 22.11, 95.00 22.91 S 98.50 28.04, 100.00 28.15 S 103.66 24.33, 105.00 23.67 S 108.51 23.04, 110.00 23.21 S 113.51 24.61, 115.00 24.78 S 118.79 23.49, 120.00 24.37 S 123.52 31.84, 125.00 32.07 S 128.88 26.95, 130.00 25.95 S 133.53 22.89, 135.00 23.20 S 139.05 26.89, 140.00 28.05 S 143.79 34.59, 145.00 35.47 S 148.65 35.96, 150.00 35.31 S 154.01 31.77, 155.00 30.65 S 159.18 22.71, 160.00 23.97 S 163.71 45.23, 165.00 46.00 S 169.21 31.26, 170.00 29.98 S 173.50 29.83, 175.00 29.77 S 178.79 30.44, 180.00 29.56 S 183.62 23.03, 185.00 22.45 S 188.55 24.97, 190.00 25.35 S 193.58 24.62, 195.00 25.10 S 198.60 29.27, 200.00 28.73 S 204.16 22.54, 205.00 21.30"
        fill="none">
        <animate attributeName="stroke-dashoffset"
            from="308.3266810736121" to="0" dur="2.2s"/>
        <animate attributeName="stroke-dasharray"
            from="308.3266810736121" to="308.3266810736121"/>
    </path>
    <circle r="4" cx="5" cy="46" fill="#3023AE"/>
    <circle r="4" cx="205" cy="21.296600351365782" fill="#C86DD7" opacity="0">
        <animate attributeName="opacity"
            from="0" to="1" dur="0.1s" begin="2.2s" fill="freeze"/>
    </circle>
</svg>