<svg width="200" height="50" viewBox="0 0 210 50" xmlns="http://www.w3.org/2000/svg">
    <!-- 196 stargazers -->
    <!-- created at Sat Mar 21 2026 13:04:03 GMT+0000 (Coordinated Universal Time) -->
    <defs>
        <linearGradient id="stroke" x1="0%" y1="0%" x2="100%" y2="0%">
            <stop stop-color="#3023AE" offset="0%"/>
            <stop stop-color="#C86DD7" offset="100%"/>
        </linearGradient>
    </defs>
    <path stroke="url(#stroke)"
        stroke-width="3"
        stroke-linejoin="round"
        stroke-linecap="round"
        d="M5.00 46.0001 C 5.72 44.68, 8.73 37.66, 10.00 36.86 S 13.50 39.74, 15.00 39.66 S 18.73 35.49, 20.00 36.30 S 23.50 45.98, 25.00 46.00 S 29.28 37.78, 30.00 36.46 S 33.87 28.62, 35.00 27.64 S 38.64 28.35, 40.00 27.72 S 43.50 23.12, 45.00 23.05 S 48.65 26.61, 50.00 27.26 S 53.51 27.61, 55.00 27.80 S 58.52 28.30, 60.00 28.56 S 63.74 30.37, 65.00 29.55 S 68.55 22.41, 70.00 22.02 S 73.71 27.66, 75.00 26.89 S 78.97 17.09, 80.00 16.00 S 84.00 15.22, 85.00 16.34 S 88.86 26.18, 90.00 27.15 S 93.51 24.99, 95.00 24.86 S 98.55 26.66, 100.00 26.27 S 103.51 22.28, 105.00 22.15 S 108.56 25.01, 110.00 25.43 S 113.52 24.80, 115.00 25.02 S 118.50 26.99, 120.00 26.87 S 123.50 24.33, 125.00 24.22 S 128.80 25.28, 130.00 26.18 S 133.53 31.44, 135.00 31.74 S 138.60 27.71, 140.00 28.25 S 143.56 35.18, 145.00 35.59 S 148.84 32.00, 150.00 31.05 S 153.61 26.84, 155.00 27.41 S 158.56 34.68, 160.00 35.11 S 163.66 31.04, 165.00 30.38 S 168.50 30.23, 170.00 30.16 S 173.61 30.52, 175.00 29.95 S 178.78 26.97, 180.00 26.09 S 183.50 22.79, 185.00 22.71 S 188.74 24.77, 190.00 25.58 S 193.59 29.65, 195.00 29.13 S 198.64 21.22, 200.00 21.85 S 204.42 32.40, 205.00 33.79"
        fill="none">
        <animate attributeName="stroke-dashoffset"
            from="289.61384506992715" to="0" dur="2.2s"/>
        <animate attributeName="stroke-dasharray"
            from="289.61384506992715" to="289.61384506992715"/>
    </path>
    <circle r="4" cx="5" cy="46" fill="#3023AE"/>
    <circle r="4" cx="205" cy="33.78736565981355" fill="#C86DD7" opacity="0">
        <animate attributeName="opacity"
            from="0" to="1" dur="0.1s" begin="2.2s" fill="freeze"/>
    </circle>
</svg>