<svg width="200" height="50" viewBox="0 0 210 50" xmlns="http://www.w3.org/2000/svg">
    <!-- 198 stargazers -->
    <!-- created at Mon Mar 30 2026 14:00:55 GMT+0000 (Coordinated Universal Time) -->
    <defs>
        <linearGradient id="stroke" x1="0%" y1="0%" x2="100%" y2="0%">
            <stop stop-color="#3023AE" offset="0%"/>
            <stop stop-color="#C86DD7" offset="100%"/>
        </linearGradient>
    </defs>
    <path stroke="url(#stroke)"
        stroke-width="3"
        stroke-linejoin="round"
        stroke-linecap="round"
        d="M5.00 46.0001 C 5.71 44.68, 8.74 37.56, 10.00 36.75 S 13.50 39.67, 15.00 39.58 S 18.74 35.38, 20.00 36.19 S 23.50 45.98, 25.00 46.00 S 29.31 37.69, 30.00 36.35 S 33.98 27.62, 35.00 26.52 S 38.51 25.69, 40.00 25.56 S 43.50 25.59, 45.00 25.64 S 48.58 25.42, 50.00 25.89 S 53.54 28.60, 55.00 28.96 S 58.50 28.30, 60.00 28.36 S 63.82 30.29, 65.00 29.37 S 68.70 21.31, 70.00 20.57 S 73.60 24.21, 75.00 23.68 S 78.81 17.68, 80.00 16.76 S 83.85 15.04, 85.00 16.00 S 88.86 24.13, 90.00 25.11 S 93.56 24.19, 95.00 24.62 S 98.55 28.55, 100.00 28.15 S 103.50 21.99, 105.00 21.88 S 108.51 27.26, 110.00 27.39 S 113.53 22.48, 115.00 22.75 S 118.59 28.75, 120.00 29.25 S 123.69 27.04, 125.00 26.30 S 128.53 23.29, 130.00 23.59 S 133.81 27.42, 135.00 28.34 S 138.78 30.47, 140.00 31.34 S 143.50 35.54, 145.00 35.47 S 148.84 31.83, 150.00 30.88 S 153.61 26.63, 155.00 27.20 S 158.50 35.07, 160.00 34.99 S 163.99 25.54, 165.00 26.65 S 168.59 46.51, 170.00 46.00 S 174.46 24.45, 175.00 23.05 S 179.00 18.88, 180.00 20.00 S 183.53 33.91, 185.00 34.22 S 189.06 23.32, 190.00 22.15 S 194.02 20.73, 195.00 21.87 S 198.75 32.96, 200.00 33.79 S 203.97 29.62, 205.00 28.53"
        fill="none">
        <animate attributeName="stroke-dashoffset"
            from="339.60067907885815" to="0" dur="2.2s"/>
        <animate attributeName="stroke-dasharray"
            from="339.60067907885815" to="339.60067907885815"/>
    </path>
    <circle r="4" cx="5" cy="46" fill="#3023AE"/>
    <circle r="4" cx="205" cy="28.53205859008896" fill="#C86DD7" opacity="0">
        <animate attributeName="opacity"
            from="0" to="1" dur="0.1s" begin="2.2s" fill="freeze"/>
    </circle>
</svg>