<svg width="200" height="50" viewBox="0 0 210 50" xmlns="http://www.w3.org/2000/svg">
    <!-- 207 stargazers -->
    <!-- created at Thu May 14 2026 07:43:15 GMT+0000 (Coordinated Universal Time) -->
    <defs>
        <linearGradient id="stroke" x1="0%" y1="0%" x2="100%" y2="0%">
            <stop stop-color="#3023AE" offset="0%"/>
            <stop stop-color="#C86DD7" offset="100%"/>
        </linearGradient>
    </defs>
    <path stroke="url(#stroke)"
        stroke-width="3"
        stroke-linejoin="round"
        stroke-linecap="round"
        d="M5.00 46.0001 C 5.72 44.69, 8.73 37.72, 10.00 36.92 S 13.50 39.78, 15.00 39.70 S 18.51 36.20, 20.00 36.37 S 23.51 41.04, 25.00 40.85 S 29.19 36.33, 30.00 35.07 S 33.98 26.32, 35.00 25.22 S 38.75 23.36, 40.00 24.19 S 43.51 32.02, 45.00 31.87 S 48.55 23.59, 50.00 23.21 S 53.68 28.56, 55.00 29.28 S 58.80 29.59, 60.00 28.69 S 63.61 22.34, 65.00 21.78 S 68.70 25.46, 70.00 24.71 S 73.73 16.80, 75.00 16.00 S 78.77 17.58, 80.00 18.43 S 83.98 21.80, 85.00 22.90 S 88.50 29.20, 90.00 29.26 S 93.74 24.15, 95.00 23.34 S 98.55 22.44, 100.00 22.82 S 103.65 25.33, 105.00 25.99 S 108.51 27.86, 110.00 27.73 S 113.56 25.60, 115.00 25.17 S 118.61 24.21, 120.00 24.77 S 123.79 28.37, 125.00 29.26 S 128.76 31.25, 130.00 32.09 S 133.59 36.51, 135.00 35.99 S 138.64 29.01, 140.00 28.38 S 143.55 30.98, 145.00 31.38 S 148.50 31.22, 150.00 31.16 S 153.76 31.77, 155.00 30.93 S 158.91 25.41, 160.00 24.38 S 163.71 20.72, 165.00 21.48 S 168.66 29.61, 170.00 30.28 S 173.78 27.36, 175.00 26.49 S 178.83 22.24, 180.00 23.18 S 183.55 34.07, 185.00 34.44 S 188.50 25.77, 190.00 25.73 S 193.58 33.68, 195.00 34.16 S 199.18 30.31, 200.00 29.05 S 204.34 20.24, 205.00 18.89"
        fill="none">
        <animate attributeName="stroke-dashoffset"
            from="300.2909577215753" to="0" dur="2.2s"/>
        <animate attributeName="stroke-dasharray"
            from="300.2909577215753" to="300.2909577215753"/>
    </path>
    <circle r="4" cx="5" cy="46" fill="#3023AE"/>
    <circle r="4" cx="205" cy="18.892188765182322" fill="#C86DD7" opacity="0">
        <animate attributeName="opacity"
            from="0" to="1" dur="0.1s" begin="2.2s" fill="freeze"/>
    </circle>
</svg>