<svg width="200" height="50" viewBox="0 0 210 50" xmlns="http://www.w3.org/2000/svg">
    <!-- 201 stargazers -->
    <!-- created at Sun Apr 26 2026 06:13:52 GMT+0000 (Coordinated Universal Time) -->
    <defs>
        <linearGradient id="stroke" x1="0%" y1="0%" x2="100%" y2="0%">
            <stop stop-color="#3023AE" offset="0%"/>
            <stop stop-color="#C86DD7" offset="100%"/>
        </linearGradient>
    </defs>
    <path stroke="url(#stroke)"
        stroke-width="3"
        stroke-linejoin="round"
        stroke-linecap="round"
        d="M5.00 46.0001 C 5.70 44.68, 8.74 37.42, 10.00 36.60 S 13.50 39.57, 15.00 39.48 S 18.74 35.21, 20.00 36.03 S 23.51 46.20, 25.00 46.00 S 29.35 36.03, 30.00 34.68 S 34.04 26.49, 35.00 25.33 S 38.64 21.94, 40.00 22.58 S 43.51 29.85, 45.00 29.98 S 48.51 23.61, 50.00 23.42 S 53.64 28.05, 55.00 28.69 S 58.61 28.64, 60.00 28.08 S 63.68 25.34, 65.00 24.62 S 68.86 23.61, 70.00 22.63 S 73.55 16.39, 75.00 16.00 S 78.64 19.32, 80.00 19.95 S 83.57 20.19, 85.00 20.64 S 88.59 22.57, 90.00 23.08 S 93.50 24.17, 95.00 24.28 S 98.51 23.64, 100.00 23.79 S 103.51 25.43, 105.00 25.29 S 108.52 22.63, 110.00 22.84 S 113.51 26.54, 115.00 26.72 S 118.53 23.74, 120.00 24.03 S 123.62 28.07, 125.00 28.67 S 128.55 27.97, 130.00 28.36 S 133.55 30.95, 135.00 31.35 S 138.60 31.65, 140.00 31.11 S 143.61 26.91, 145.00 27.47 S 148.56 34.71, 150.00 35.14 S 153.66 31.07, 155.00 30.40 S 158.78 31.04, 160.00 30.18 S 163.93 24.36, 165.00 23.30 S 168.99 19.16, 170.00 20.27 S 173.53 34.03, 175.00 34.34 S 179.05 23.54, 180.00 22.37 S 184.02 20.94, 185.00 22.07 S 188.55 33.50, 190.00 33.89 S 193.50 24.81, 195.00 24.77 S 198.87 32.61, 200.00 33.60 S 203.50 33.49, 205.00 33.45"
        fill="none">
        <animate attributeName="stroke-dashoffset"
            from="302.32859126302753" to="0" dur="2.2s"/>
        <animate attributeName="stroke-dasharray"
            from="302.32859126302753" to="302.32859126302753"/>
    </path>
    <circle r="4" cx="5" cy="46" fill="#3023AE"/>
    <circle r="4" cx="205" cy="33.451521748981904" fill="#C86DD7" opacity="0">
        <animate attributeName="opacity"
            from="0" to="1" dur="0.1s" begin="2.2s" fill="freeze"/>
    </circle>
</svg>