<svg width="200" height="50" viewBox="0 0 210 50" xmlns="http://www.w3.org/2000/svg">
    <!-- 26422 stargazers -->
    <!-- created at Mon Apr 06 2026 08:15:34 GMT+0000 (Coordinated Universal Time) -->
    <defs>
        <linearGradient id="stroke" x1="0%" y1="0%" x2="100%" y2="0%">
            <stop stop-color="#3023AE" offset="0%"/>
            <stop stop-color="#C86DD7" offset="100%"/>
        </linearGradient>
    </defs>
    <path stroke="url(#stroke)"
        stroke-width="3"
        stroke-linejoin="round"
        stroke-linecap="round"
        d="M5.00 46.0001 C 5.46 44.57, 8.92 31.64, 10.00 30.60 S 13.69 35.61, 15.00 36.35 S 18.51 36.14, 20.00 36.26 S 23.79 38.08, 25.00 37.20 S 28.62 29.55, 30.00 28.97 S 33.51 33.21, 35.00 33.01 S 38.63 28.29, 40.00 27.68 S 43.61 28.06, 45.00 28.62 S 48.66 31.04, 50.00 31.71 S 53.50 33.57, 55.00 33.67 S 58.55 32.81, 60.00 32.41 S 64.13 32.19, 65.00 30.97 S 68.58 18.83, 70.00 18.34 S 74.02 26.42, 75.00 27.55 S 78.50 29.83, 80.00 29.83 S 83.50 27.51, 85.00 27.59 S 88.53 30.11, 90.00 30.39 S 93.55 29.94, 95.00 29.54 S 98.50 27.54, 100.00 27.62 S 103.51 30.27, 105.00 30.10 S 108.94 27.54, 110.00 26.48 S 113.51 19.96, 115.00 20.11 S 118.85 26.56, 120.00 27.52 S 123.56 28.90, 125.00 28.48 S 128.51 24.80, 130.00 24.65 S 133.62 28.06, 135.00 27.48 S 138.55 20.83, 140.00 20.44 S 143.80 23.85, 145.00 24.76 S 148.54 27.65, 150.00 28.00 S 153.50 27.19, 155.00 27.16 S 158.50 27.78, 160.00 27.82 S 163.51 27.61, 165.00 27.44 S 168.54 27.02, 170.00 26.68 S 173.97 26.18, 175.00 25.08 S 178.50 16.06, 180.00 16.00 S 183.77 23.79, 185.00 24.66 S 188.51 23.21, 190.00 23.04 S 193.50 23.41, 195.00 23.47 S 198.52 23.16, 200.00 23.41 S 203.59 24.70, 205.00 25.21"
        fill="none">
        <animate attributeName="stroke-dashoffset"
            from="272.5592091478546" to="0" dur="2.2s"/>
        <animate attributeName="stroke-dasharray"
            from="272.5592091478546" to="272.5592091478546"/>
    </path>
    <circle r="4" cx="5" cy="46" fill="#3023AE"/>
    <circle r="4" cx="205" cy="25.212815727116627" fill="#C86DD7" opacity="0">
        <animate attributeName="opacity"
            from="0" to="1" dur="0.1s" begin="2.2s" fill="freeze"/>
    </circle>
</svg>