<svg width="200" height="50" viewBox="0 0 210 50" xmlns="http://www.w3.org/2000/svg">
    <!-- 15676 stargazers -->
    <!-- created at Wed Apr 29 2026 21:57:40 GMT+0000 (Coordinated Universal Time) -->
    <defs>
        <linearGradient id="stroke" x1="0%" y1="0%" x2="100%" y2="0%">
            <stop stop-color="#3023AE" offset="0%"/>
            <stop stop-color="#C86DD7" offset="100%"/>
        </linearGradient>
    </defs>
    <path stroke="url(#stroke)"
        stroke-width="3"
        stroke-linejoin="round"
        stroke-linecap="round"
        d="M5.00 46.0001 C 5.47 44.58, 9.07 32.00, 10.00 30.82 S 13.83 32.51, 15.00 33.45 S 18.79 37.95, 20.00 38.83 S 23.51 40.93, 25.00 40.73 S 28.53 37.82, 30.00 37.53 S 33.93 39.80, 35.00 38.75 S 39.00 28.78, 40.00 27.66 S 43.59 27.98, 45.00 27.48 S 48.53 24.42, 50.00 24.13 S 53.52 25.78, 55.00 25.52 S 58.54 22.00, 60.00 22.35 S 63.75 27.14, 65.00 27.96 S 68.55 29.32, 70.00 28.93 S 73.63 25.90, 75.00 25.29 S 78.57 24.88, 80.00 24.43 S 83.51 21.96, 85.00 22.14 S 88.72 26.47, 90.00 25.69 S 93.50 16.09, 95.00 16.00 S 99.06 23.90, 100.00 25.07 S 103.51 28.27, 105.00 28.43 S 108.50 26.11, 110.00 26.13 S 113.52 28.28, 115.00 28.53 S 118.55 28.20, 120.00 27.81 S 123.52 26.01, 125.00 25.77 S 128.54 25.84, 130.00 26.19 S 133.50 28.22, 135.00 28.12 S 138.51 25.27, 140.00 25.48 S 143.52 29.27, 145.00 29.52 S 148.53 27.40, 150.00 27.12 S 153.52 27.38, 155.00 27.60 S 158.91 29.65, 160.00 28.62 S 164.06 19.28, 165.00 18.11 S 168.70 15.41, 170.00 16.16 S 173.85 22.91, 175.00 23.88 S 178.50 24.54, 180.00 24.59 S 183.53 24.51, 185.00 24.23 S 188.58 23.17, 190.00 22.68 S 193.55 21.19, 195.00 20.82 S 198.50 20.19, 200.00 20.08 S 203.50 20.10, 205.00 20.10"
        fill="none">
        <animate attributeName="stroke-dashoffset"
            from="262.51848844384335" to="0" dur="2.2s"/>
        <animate attributeName="stroke-dasharray"
            from="262.51848844384335" to="262.51848844384335"/>
    </path>
    <circle r="4" cx="5" cy="46" fill="#3023AE"/>
    <circle r="4" cx="205" cy="20.101145142230205" fill="#C86DD7" opacity="0">
        <animate attributeName="opacity"
            from="0" to="1" dur="0.1s" begin="2.2s" fill="freeze"/>
    </circle>
</svg>