<svg width="200" height="50" viewBox="0 0 210 50" xmlns="http://www.w3.org/2000/svg">
    <!-- 4598 stargazers -->
    <!-- created at Fri May 08 2026 05:59:56 GMT+0000 (Coordinated Universal Time) -->
    <defs>
        <linearGradient id="stroke" x1="0%" y1="0%" x2="100%" y2="0%">
            <stop stop-color="#3023AE" offset="0%"/>
            <stop stop-color="#C86DD7" offset="100%"/>
        </linearGradient>
    </defs>
    <path stroke="url(#stroke)"
        stroke-width="3"
        stroke-linejoin="round"
        stroke-linecap="round"
        d="M5.00 46.0001 C 6.39 45.43, 8.71 44.70, 10.00 43.94 S 13.67 40.82, 15.00 40.12 S 18.66 39.35, 20.00 38.68 S 23.59 35.70, 25.00 35.18 S 28.51 35.16, 30.00 34.99 S 33.55 34.41, 35.00 34.03 S 38.58 32.85, 40.00 32.37 S 43.51 30.86, 45.00 30.65 S 48.50 30.85, 50.00 30.95 S 53.52 31.56, 55.00 31.33 S 58.50 29.44, 60.00 29.36 S 63.52 31.00, 65.00 30.75 S 68.58 28.13, 70.00 27.63 S 73.51 27.41, 75.00 27.26 S 78.56 27.07, 80.00 26.66 S 83.52 24.67, 85.00 24.42 S 88.52 25.21, 90.00 24.97 S 93.53 23.10, 95.00 22.79 S 98.60 23.40, 100.00 22.86 S 103.58 19.36, 105.00 18.88 S 108.50 19.44, 110.00 19.42 S 113.55 18.36, 115.00 18.73 S 118.52 21.70, 120.00 21.96 S 123.65 21.12, 125.00 20.46 S 128.60 17.57, 130.00 17.02 S 133.50 16.42, 135.00 16.53 S 138.50 17.75, 140.00 17.77 S 143.50 16.59, 145.00 16.66 S 148.53 17.97, 150.00 18.27 S 153.53 18.39, 155.00 18.69 S 158.50 20.35, 160.00 20.31 S 163.61 19.01, 165.00 18.45 S 168.52 16.57, 170.00 16.31 S 173.67 15.99, 175.00 16.68 S 178.65 20.81, 180.00 21.47 S 183.53 21.87, 185.00 21.58 S 188.69 20.22, 190.00 19.49 S 193.50 15.97, 195.00 16.00 S 198.54 19.35, 200.00 19.68 S 203.56 18.67, 205.00 18.26"
        fill="none">
        <animate attributeName="stroke-dashoffset"
            from="217.5660142064687" to="0" dur="2.2s"/>
        <animate attributeName="stroke-dasharray"
            from="217.5660142064687" to="217.5660142064687"/>
    </path>
    <circle r="4" cx="5" cy="46" fill="#3023AE"/>
    <circle r="4" cx="205" cy="18.261561136769515" fill="#C86DD7" opacity="0">
        <animate attributeName="opacity"
            from="0" to="1" dur="0.1s" begin="2.2s" fill="freeze"/>
    </circle>
</svg>