<svg width="200" height="50" viewBox="0 0 210 50" xmlns="http://www.w3.org/2000/svg">
    <!-- 4578 stargazers -->
    <!-- created at Sat May 02 2026 05:58:22 GMT+0000 (Coordinated Universal Time) -->
    <defs>
        <linearGradient id="stroke" x1="0%" y1="0%" x2="100%" y2="0%">
            <stop stop-color="#3023AE" offset="0%"/>
            <stop stop-color="#C86DD7" offset="100%"/>
        </linearGradient>
    </defs>
    <path stroke="url(#stroke)"
        stroke-width="3"
        stroke-linejoin="round"
        stroke-linecap="round"
        d="M5.00 46.0001 C 6.39 45.43, 8.71 44.71, 10.00 43.95 S 13.67 40.83, 15.00 40.13 S 18.65 39.36, 20.00 38.70 S 23.58 35.76, 25.00 35.27 S 28.51 35.41, 30.00 35.23 S 33.55 34.43, 35.00 34.06 S 38.59 33.18, 40.00 32.68 S 43.52 30.75, 45.00 30.49 S 48.50 30.81, 50.00 30.91 S 53.51 31.40, 55.00 31.20 S 58.50 29.62, 60.00 29.56 S 63.52 31.05, 65.00 30.79 S 68.58 28.25, 70.00 27.76 S 73.51 27.44, 75.00 27.31 S 78.57 27.32, 80.00 26.88 S 83.51 24.43, 85.00 24.24 S 88.51 25.82, 90.00 25.63 S 93.56 23.44, 95.00 23.02 S 98.59 23.16, 100.00 22.66 S 103.57 19.94, 105.00 19.48 S 108.50 19.56, 110.00 19.49 S 113.53 18.76, 115.00 19.05 S 118.52 21.20, 120.00 21.45 S 123.60 21.24, 125.00 20.71 S 128.62 18.28, 130.00 17.70 S 133.50 16.47, 135.00 16.52 S 138.50 18.11, 140.00 18.04 S 143.50 15.91, 145.00 16.00 S 148.55 18.26, 150.00 18.65 S 153.54 18.32, 155.00 18.66 S 158.51 21.10, 160.00 20.97 S 163.57 18.21, 165.00 17.75 S 168.50 17.86, 170.00 17.81 S 173.52 17.20, 175.00 17.43 S 178.63 18.71, 180.00 19.33 S 183.51 21.75, 185.00 21.92 S 188.70 21.26, 190.00 20.50 S 193.52 16.33, 195.00 16.08 S 198.54 18.46, 200.00 18.79 S 203.51 18.47, 205.00 18.33"
        fill="none">
        <animate attributeName="stroke-dashoffset"
            from="216.63290663649016" to="0" dur="2.2s"/>
        <animate attributeName="stroke-dasharray"
            from="216.63290663649016" to="216.63290663649016"/>
    </path>
    <circle r="4" cx="5" cy="46" fill="#3023AE"/>
    <circle r="4" cx="205" cy="18.33427525377116" fill="#C86DD7" opacity="0">
        <animate attributeName="opacity"
            from="0" to="1" dur="0.1s" begin="2.2s" fill="freeze"/>
    </circle>
</svg>