<svg width="200" height="50" viewBox="0 0 210 50" xmlns="http://www.w3.org/2000/svg">
    <!-- 4442 stargazers -->
    <!-- created at Mon Mar 30 2026 08:55:40 GMT+0000 (Coordinated Universal Time) -->
    <defs>
        <linearGradient id="stroke" x1="0%" y1="0%" x2="100%" y2="0%">
            <stop stop-color="#3023AE" offset="0%"/>
            <stop stop-color="#C86DD7" offset="100%"/>
        </linearGradient>
    </defs>
    <path stroke="url(#stroke)"
        stroke-width="3"
        stroke-linejoin="round"
        stroke-linecap="round"
        d="M5.00 46.0001 C 6.40 45.47, 8.71 44.90, 10.00 44.13 S 13.69 40.75, 15.00 40.02 S 18.64 39.20, 20.00 38.56 S 23.59 35.82, 25.00 35.32 S 28.51 35.23, 30.00 35.03 S 33.53 34.30, 35.00 33.98 S 38.59 33.38, 40.00 32.86 S 43.53 30.62, 45.00 30.33 S 48.51 30.71, 50.00 30.85 S 53.52 31.49, 55.00 31.25 S 58.50 29.30, 60.00 29.24 S 63.51 31.00, 65.00 30.87 S 68.60 28.86, 70.00 28.32 S 73.50 27.09, 75.00 27.04 S 78.55 28.33, 80.00 27.95 S 83.60 24.93, 85.00 24.39 S 88.52 24.37, 90.00 24.11 S 93.51 22.54, 95.00 22.66 S 98.53 25.26, 100.00 24.94 S 103.70 21.26, 105.00 20.51 S 108.52 19.47, 110.00 19.23 S 113.51 19.04, 115.00 18.87 S 118.58 17.61, 120.00 18.09 S 123.52 21.97, 125.00 22.23 S 128.66 20.55, 130.00 19.87 S 133.60 17.67, 135.00 17.13 S 138.50 15.97, 140.00 16.00 S 143.50 17.26, 145.00 17.34 S 148.50 16.39, 150.00 16.50 S 153.52 17.81, 155.00 18.03 S 158.54 17.59, 160.00 17.95 S 163.51 20.64, 165.00 20.50 S 168.55 17.43, 170.00 17.04 S 173.50 17.85, 175.00 17.82 S 178.50 16.81, 180.00 16.85 S 183.64 17.46, 185.00 18.08 S 188.59 20.95, 190.00 21.45 S 193.60 22.15, 195.00 21.61 S 198.65 18.23, 200.00 17.59 S 203.52 17.07, 205.00 16.85"
        fill="none">
        <animate attributeName="stroke-dashoffset"
            from="218.279398824843" to="0" dur="2.2s"/>
        <animate attributeName="stroke-dasharray"
            from="218.279398824843" to="218.279398824843"/>
    </path>
    <circle r="4" cx="5" cy="46" fill="#3023AE"/>
    <circle r="4" cx="205" cy="16.85374551548049" fill="#C86DD7" opacity="0">
        <animate attributeName="opacity"
            from="0" to="1" dur="0.1s" begin="2.2s" fill="freeze"/>
    </circle>
</svg>