<svg width="200" height="50" viewBox="0 0 210 50" xmlns="http://www.w3.org/2000/svg">
    <!-- 4470 stargazers -->
    <!-- created at Sun Apr 05 2026 11:19:59 GMT+0000 (Coordinated Universal Time) -->
    <defs>
        <linearGradient id="stroke" x1="0%" y1="0%" x2="100%" y2="0%">
            <stop stop-color="#3023AE" offset="0%"/>
            <stop stop-color="#C86DD7" offset="100%"/>
        </linearGradient>
    </defs>
    <path stroke="url(#stroke)"
        stroke-width="3"
        stroke-linejoin="round"
        stroke-linecap="round"
        d="M5.00 46.0001 C 6.41 45.49, 8.70 44.95, 10.00 44.20 S 13.68 40.97, 15.00 40.26 S 18.63 39.39, 20.00 38.78 S 23.58 36.29, 25.00 35.81 S 28.51 35.59, 30.00 35.39 S 33.54 34.79, 35.00 34.45 S 38.58 33.58, 40.00 33.10 S 43.53 31.35, 45.00 31.08 S 48.51 31.09, 50.00 31.23 S 53.51 32.29, 55.00 32.08 S 58.50 29.91, 60.00 29.83 S 63.51 31.70, 65.00 31.56 S 68.62 29.44, 70.00 28.86 S 73.50 27.39, 75.00 27.39 S 78.55 29.22, 80.00 28.84 S 83.59 25.28, 85.00 24.78 S 88.52 25.52, 90.00 25.31 S 93.51 23.15, 95.00 23.34 S 98.55 27.00, 100.00 26.63 S 103.72 21.60, 105.00 20.81 S 108.52 20.68, 110.00 20.45 S 113.50 19.28, 115.00 19.22 S 118.58 19.54, 120.00 20.03 S 123.50 22.62, 125.00 22.68 S 128.67 21.14, 130.00 20.44 S 133.55 17.77, 135.00 17.40 S 138.53 17.60, 140.00 17.90 S 143.53 19.72, 145.00 19.44 S 148.50 15.89, 150.00 16.00 S 153.58 19.71, 155.00 20.19 S 158.51 19.23, 160.00 19.38 S 163.50 21.20, 165.00 21.15 S 168.59 19.57, 170.00 19.07 S 173.50 17.68, 175.00 17.59 S 178.56 18.06, 180.00 18.47 S 183.61 19.89, 185.00 20.44 S 188.51 22.27, 190.00 22.42 S 193.63 22.04, 195.00 21.43 S 198.60 18.50, 200.00 17.95 S 203.51 17.63, 205.00 17.50"
        fill="none">
        <animate attributeName="stroke-dashoffset"
            from="220.49875148580492" to="0" dur="2.2s"/>
        <animate attributeName="stroke-dasharray"
            from="220.49875148580492" to="220.49875148580492"/>
    </path>
    <circle r="4" cx="5" cy="46" fill="#3023AE"/>
    <circle r="4" cx="205" cy="17.498321340287546" fill="#C86DD7" opacity="0">
        <animate attributeName="opacity"
            from="0" to="1" dur="0.1s" begin="2.2s" fill="freeze"/>
    </circle>
</svg>