<svg width="200" height="50" viewBox="0 0 210 50" xmlns="http://www.w3.org/2000/svg">
    <!-- 4607 stargazers -->
    <!-- created at Mon May 11 2026 11:38:21 GMT+0000 (Coordinated Universal Time) -->
    <defs>
        <linearGradient id="stroke" x1="0%" y1="0%" x2="100%" y2="0%">
            <stop stop-color="#3023AE" offset="0%"/>
            <stop stop-color="#C86DD7" offset="100%"/>
        </linearGradient>
    </defs>
    <path stroke="url(#stroke)"
        stroke-width="3"
        stroke-linejoin="round"
        stroke-linecap="round"
        d="M5.00 46.0001 C 6.39 45.44, 8.70 44.72, 10.00 43.97 S 13.67 40.88, 15.00 40.18 S 18.65 39.42, 20.00 38.77 S 23.59 35.82, 25.00 35.30 S 28.51 35.30, 30.00 35.12 S 33.55 34.48, 35.00 34.10 S 38.57 32.91, 40.00 32.46 S 43.51 31.09, 45.00 30.89 S 48.50 31.06, 50.00 31.12 S 53.51 31.55, 55.00 31.33 S 58.50 29.78, 60.00 29.70 S 63.53 31.13, 65.00 30.84 S 68.58 28.17, 70.00 27.69 S 73.50 27.60, 75.00 27.48 S 78.56 27.30, 80.00 26.89 S 83.52 24.82, 85.00 24.60 S 88.52 25.61, 90.00 25.39 S 93.55 23.43, 95.00 23.06 S 98.61 23.43, 100.00 22.87 S 103.58 19.53, 105.00 19.04 S 108.50 19.37, 110.00 19.41 S 113.56 18.88, 115.00 19.29 S 118.51 22.07, 120.00 22.23 S 123.63 20.99, 125.00 20.39 S 128.59 18.38, 130.00 17.87 S 133.50 16.73, 135.00 16.78 S 138.50 18.31, 140.00 18.19 S 143.51 15.83, 145.00 16.00 S 148.56 18.89, 150.00 19.30 S 153.53 18.59, 155.00 18.90 S 158.50 21.52, 160.00 21.43 S 163.67 19.03, 165.00 18.33 S 168.50 16.18, 170.00 16.13 S 173.66 17.34, 175.00 18.02 S 178.60 20.69, 180.00 21.22 S 183.54 22.20, 185.00 21.86 S 188.65 19.54, 190.00 18.89 S 193.50 17.15, 195.00 17.07 S 198.58 17.90, 200.00 18.37 S 203.61 19.83, 205.00 20.39"
        fill="none">
        <animate attributeName="stroke-dashoffset"
            from="216.94556262106317" to="0" dur="2.2s"/>
        <animate attributeName="stroke-dasharray"
            from="216.94556262106317" to="216.94556262106317"/>
    </path>
    <circle r="4" cx="5" cy="46" fill="#3023AE"/>
    <circle r="4" cx="205" cy="20.38913184487914" fill="#C86DD7" opacity="0">
        <animate attributeName="opacity"
            from="0" to="1" dur="0.1s" begin="2.2s" fill="freeze"/>
    </circle>
</svg>