<svg width="200" height="50" viewBox="0 0 210 50" xmlns="http://www.w3.org/2000/svg">
    <!-- 4363 stargazers -->
    <!-- created at Thu Mar 12 2026 08:47:11 GMT+0000 (Coordinated Universal Time) -->
    <defs>
        <linearGradient id="stroke" x1="0%" y1="0%" x2="100%" y2="0%">
            <stop stop-color="#3023AE" offset="0%"/>
            <stop stop-color="#C86DD7" offset="100%"/>
        </linearGradient>
    </defs>
    <path stroke="url(#stroke)"
        stroke-width="3"
        stroke-linejoin="round"
        stroke-linecap="round"
        d="M5.00 46.0001 C 6.41 45.48, 8.71 44.91, 10.00 44.14 S 13.67 40.76, 15.00 40.06 S 18.64 39.49, 20.00 38.86 S 23.59 35.98, 25.00 35.46 S 28.51 35.37, 30.00 35.17 S 33.54 34.40, 35.00 34.05 S 38.57 33.24, 40.00 32.80 S 43.53 31.25, 45.00 30.97 S 48.51 30.82, 50.00 30.95 S 53.52 32.08, 55.00 31.85 S 58.52 29.68, 60.00 29.43 S 63.50 30.14, 65.00 30.15 S 68.57 29.94, 70.00 29.48 S 73.51 27.05, 75.00 26.91 S 78.52 28.76, 80.00 28.53 S 83.67 26.05, 85.00 25.36 S 88.50 23.29, 90.00 23.34 S 93.50 25.75, 95.00 25.72 S 98.57 23.61, 100.00 23.15 S 103.63 23.09, 105.00 22.47 S 108.57 19.11, 110.00 18.67 S 113.50 19.39, 115.00 19.38 S 118.53 18.33, 120.00 18.61 S 123.57 20.80, 125.00 21.27 S 128.58 22.35, 130.00 21.86 S 133.69 18.50, 135.00 17.77 S 138.50 16.23, 140.00 16.28 S 143.50 18.16, 145.00 18.11 S 148.50 16.07, 150.00 16.00 S 153.56 17.27, 155.00 17.67 S 158.52 18.53, 160.00 18.79 S 163.51 19.26, 165.00 19.45 S 168.51 20.21, 170.00 20.06 S 173.60 19.03, 175.00 18.48 S 178.53 16.41, 180.00 16.11 S 183.67 15.74, 185.00 16.43 S 188.68 20.59, 190.00 21.31 S 193.51 22.07, 195.00 21.91 S 198.65 20.93, 200.00 20.27 S 203.74 17.85, 205.00 17.04"
        fill="none">
        <animate attributeName="stroke-dashoffset"
            from="217.94988296130202" to="0" dur="2.2s"/>
        <animate attributeName="stroke-dasharray"
            from="217.94988296130202" to="217.94988296130202"/>
    </path>
    <circle r="4" cx="5" cy="46" fill="#3023AE"/>
    <circle r="4" cx="205" cy="17.037209491220107" fill="#C86DD7" opacity="0">
        <animate attributeName="opacity"
            from="0" to="1" dur="0.1s" begin="2.2s" fill="freeze"/>
    </circle>
</svg>