<svg width="200" height="50" viewBox="0 0 210 50" xmlns="http://www.w3.org/2000/svg">
    <!-- 4500 stargazers -->
    <!-- created at Tue Apr 14 2026 11:24:14 GMT+0000 (Coordinated Universal Time) -->
    <defs>
        <linearGradient id="stroke" x1="0%" y1="0%" x2="100%" y2="0%">
            <stop stop-color="#3023AE" offset="0%"/>
            <stop stop-color="#C86DD7" offset="100%"/>
        </linearGradient>
    </defs>
    <path stroke="url(#stroke)"
        stroke-width="3"
        stroke-linejoin="round"
        stroke-linecap="round"
        d="M5.00 46.0001 C 6.41 45.49, 8.70 44.94, 10.00 44.19 S 13.69 40.93, 15.00 40.20 S 18.63 39.23, 20.00 38.62 S 23.58 36.25, 25.00 35.77 S 28.52 35.46, 30.00 35.21 S 33.53 34.43, 35.00 34.12 S 38.58 33.60, 40.00 33.11 S 43.53 30.96, 45.00 30.66 S 48.51 30.88, 50.00 31.08 S 53.53 32.29, 55.00 32.02 S 58.50 29.22, 60.00 29.21 S 63.51 32.12, 65.00 31.97 S 68.66 28.87, 70.00 28.20 S 73.50 26.90, 75.00 26.96 S 78.54 28.94, 80.00 28.57 S 83.59 24.99, 85.00 24.49 S 88.51 25.19, 90.00 25.01 S 93.52 23.05, 95.00 23.27 S 98.60 27.06, 100.00 26.53 S 103.76 20.31, 105.00 19.47 S 108.50 19.80, 110.00 19.79 S 113.51 19.22, 115.00 19.35 S 118.56 20.22, 120.00 20.64 S 123.51 22.44, 125.00 22.24 S 128.73 20.05, 130.00 19.26 S 133.51 16.19, 135.00 16.00 S 138.52 17.75, 140.00 17.98 S 143.50 17.54, 145.00 17.53 S 148.53 17.58, 150.00 17.85 S 153.52 19.13, 155.00 19.38 S 158.51 19.38, 160.00 19.54 S 163.50 20.48, 165.00 20.42 S 168.59 19.65, 170.00 19.13 S 173.51 16.93, 175.00 16.75 S 178.65 17.29, 180.00 17.95 S 183.62 21.05, 185.00 21.64 S 188.54 22.51, 190.00 22.18 S 193.65 20.06, 195.00 19.40 S 198.50 17.27, 200.00 17.28 S 203.62 18.86, 205.00 19.46"
        fill="none">
        <animate attributeName="stroke-dashoffset"
            from="221.36509122345734" to="0" dur="2.2s"/>
        <animate attributeName="stroke-dasharray"
            from="221.36509122345734" to="221.36509122345734"/>
    </path>
    <circle r="4" cx="5" cy="46" fill="#3023AE"/>
    <circle r="4" cx="205" cy="19.458510596252207" fill="#C86DD7" opacity="0">
        <animate attributeName="opacity"
            from="0" to="1" dur="0.1s" begin="2.2s" fill="freeze"/>
    </circle>
</svg>