<svg width="200" height="50" viewBox="0 0 210 50" xmlns="http://www.w3.org/2000/svg">
    <!-- 4585 stargazers -->
    <!-- created at Tue May 05 2026 05:58:56 GMT+0000 (Coordinated Universal Time) -->
    <defs>
        <linearGradient id="stroke" x1="0%" y1="0%" x2="100%" y2="0%">
            <stop stop-color="#3023AE" offset="0%"/>
            <stop stop-color="#C86DD7" offset="100%"/>
        </linearGradient>
    </defs>
    <path stroke="url(#stroke)"
        stroke-width="3"
        stroke-linejoin="round"
        stroke-linecap="round"
        d="M5.00 46.0001 C 6.39 45.43, 8.71 44.70, 10.00 43.94 S 13.67 40.82, 15.00 40.12 S 18.66 39.35, 20.00 38.68 S 23.59 35.70, 25.00 35.18 S 28.51 35.13, 30.00 34.99 S 33.55 34.63, 35.00 34.25 S 38.59 32.88, 40.00 32.37 S 43.51 30.78, 45.00 30.58 S 48.50 30.94, 50.00 31.02 S 53.52 31.40, 55.00 31.16 S 58.50 29.48, 60.00 29.44 S 63.52 31.11, 65.00 30.84 S 68.59 28.14, 70.00 27.63 S 73.51 27.41, 75.00 27.26 S 78.56 27.07, 80.00 26.66 S 83.52 24.64, 85.00 24.42 S 88.52 25.50, 90.00 25.23 S 93.54 22.95, 95.00 22.63 S 98.58 23.50, 100.00 23.03 S 103.60 19.86, 105.00 19.34 S 108.50 19.33, 110.00 19.26 S 113.54 18.54, 115.00 18.89 S 118.52 21.45, 120.00 21.67 S 123.61 20.94, 125.00 20.37 S 128.62 18.14, 130.00 17.54 S 133.50 15.92, 135.00 16.01 S 138.50 18.05, 140.00 18.15 S 143.50 16.64, 145.00 16.66 S 148.52 18.01, 150.00 18.27 S 153.55 17.99, 155.00 18.37 S 158.50 20.97, 160.00 20.90 S 163.61 18.46, 165.00 17.90 S 168.50 16.95, 170.00 16.85 S 173.58 16.77, 175.00 17.24 S 178.66 19.47, 180.00 20.14 S 183.51 22.44, 185.00 22.29 S 188.73 19.89, 190.00 19.09 S 193.50 15.91, 195.00 16.00 S 198.55 19.31, 200.00 19.68 S 203.54 18.87, 205.00 18.53"
        fill="none">
        <animate attributeName="stroke-dashoffset"
            from="217.63345972243042" to="0" dur="2.2s"/>
        <animate attributeName="stroke-dasharray"
            from="217.63345972243042" to="217.63345972243042"/>
    </path>
    <circle r="4" cx="5" cy="46" fill="#3023AE"/>
    <circle r="4" cx="205" cy="18.53485291356609" fill="#C86DD7" opacity="0">
        <animate attributeName="opacity"
            from="0" to="1" dur="0.1s" begin="2.2s" fill="freeze"/>
    </circle>
</svg>