<svg width="200" height="50" viewBox="0 0 210 50" xmlns="http://www.w3.org/2000/svg">
    <!-- 4620 stargazers -->
    <!-- created at Thu May 14 2026 11:40:39 GMT+0000 (Coordinated Universal Time) -->
    <defs>
        <linearGradient id="stroke" x1="0%" y1="0%" x2="100%" y2="0%">
            <stop stop-color="#3023AE" offset="0%"/>
            <stop stop-color="#C86DD7" offset="100%"/>
        </linearGradient>
    </defs>
    <path stroke="url(#stroke)"
        stroke-width="3"
        stroke-linejoin="round"
        stroke-linecap="round"
        d="M5.00 46.0001 C 6.39 45.44, 8.70 44.74, 10.00 43.99 S 13.67 40.94, 15.00 40.25 S 18.65 39.51, 20.00 38.85 S 23.59 35.87, 25.00 35.37 S 28.51 35.49, 30.00 35.31 S 33.55 34.56, 35.00 34.17 S 38.56 33.05, 40.00 32.61 S 43.51 31.34, 45.00 31.13 S 48.50 31.16, 50.00 31.22 S 53.52 31.83, 55.00 31.59 S 58.50 29.67, 60.00 29.59 S 63.52 31.33, 65.00 31.10 S 68.58 28.55, 70.00 28.06 S 73.51 27.79, 75.00 27.62 S 78.56 27.29, 80.00 26.87 S 83.51 24.88, 85.00 24.69 S 88.51 25.79, 90.00 25.63 S 93.55 23.95, 95.00 23.57 S 98.63 23.59, 100.00 22.98 S 103.56 19.57, 105.00 19.14 S 108.50 19.90, 110.00 19.96 S 113.54 19.16, 115.00 19.52 S 118.51 22.26, 120.00 22.42 S 123.63 21.20, 125.00 20.60 S 128.58 18.52, 130.00 18.03 S 133.51 17.00, 135.00 17.12 S 138.51 19.06, 140.00 18.89 S 143.50 15.94, 145.00 16.00 S 148.60 18.77, 150.00 19.31 S 153.51 19.69, 155.00 19.85 S 158.50 20.44, 160.00 20.34 S 163.59 19.70, 165.00 19.20 S 168.51 17.00, 170.00 16.79 S 173.70 17.04, 175.00 17.79 S 178.59 22.06, 180.00 22.58 S 183.56 21.88, 185.00 21.46 S 188.64 20.35, 190.00 19.72 S 193.50 16.91, 195.00 16.81 S 198.59 18.56, 200.00 19.08 S 203.56 20.13, 205.00 20.55"
        fill="none">
        <animate attributeName="stroke-dashoffset"
            from="217.1760115651946" to="0" dur="2.2s"/>
        <animate attributeName="stroke-dasharray"
            from="217.1760115651946" to="217.1760115651946"/>
    </path>
    <circle r="4" cx="5" cy="46" fill="#3023AE"/>
    <circle r="4" cx="205" cy="20.546883270837537" fill="#C86DD7" opacity="0">
        <animate attributeName="opacity"
            from="0" to="1" dur="0.1s" begin="2.2s" fill="freeze"/>
    </circle>
</svg>