<svg width="200" height="50" viewBox="0 0 210 50" xmlns="http://www.w3.org/2000/svg">
    <!-- 4567 stargazers -->
    <!-- created at Wed Apr 29 2026 05:50:53 GMT+0000 (Coordinated Universal Time) -->
    <defs>
        <linearGradient id="stroke" x1="0%" y1="0%" x2="100%" y2="0%">
            <stop stop-color="#3023AE" offset="0%"/>
            <stop stop-color="#C86DD7" offset="100%"/>
        </linearGradient>
    </defs>
    <path stroke="url(#stroke)"
        stroke-width="3"
        stroke-linejoin="round"
        stroke-linecap="round"
        d="M5.00 46.0001 C 6.39 45.44, 8.70 44.73, 10.00 43.99 S 13.67 40.93, 15.00 40.24 S 18.65 39.40, 20.00 38.75 S 23.58 35.93, 25.00 35.46 S 28.51 35.59, 30.00 35.42 S 33.54 34.69, 35.00 34.34 S 38.60 33.58, 40.00 33.05 S 43.52 30.82, 45.00 30.57 S 48.51 31.25, 50.00 31.40 S 53.53 31.82, 55.00 31.54 S 58.50 29.58, 60.00 29.54 S 63.51 31.53, 65.00 31.32 S 68.60 28.69, 70.00 28.16 S 73.50 27.63, 75.00 27.56 S 78.57 28.17, 80.00 27.73 S 83.53 24.77, 85.00 24.48 S 88.51 25.91, 90.00 25.74 S 93.53 23.64, 95.00 23.34 S 98.60 24.29, 100.00 23.75 S 103.60 20.03, 105.00 19.50 S 108.50 19.96, 110.00 19.96 S 113.53 19.24, 115.00 19.52 S 118.53 21.60, 120.00 21.88 S 123.59 21.95, 125.00 21.44 S 128.66 18.96, 130.00 18.29 S 133.51 16.24, 135.00 16.45 S 138.50 19.74, 140.00 19.67 S 143.50 16.05, 145.00 16.00 S 148.57 18.88, 150.00 19.33 S 153.53 18.83, 155.00 19.14 S 158.51 21.59, 160.00 21.41 S 163.56 18.35, 165.00 17.93 S 168.50 18.54, 170.00 18.53 S 173.50 17.72, 175.00 17.82 S 178.65 18.54, 180.00 19.19 S 183.53 22.31, 185.00 22.63 S 188.61 21.93, 190.00 21.36 S 193.61 19.13, 195.00 18.55 S 198.50 17.11, 200.00 17.23 S 203.62 18.77, 205.00 19.36"
        fill="none">
        <animate attributeName="stroke-dashoffset"
            from="219.588374088521" to="0" dur="2.2s"/>
        <animate attributeName="stroke-dasharray"
            from="219.588374088521" to="219.588374088521"/>
    </path>
    <circle r="4" cx="5" cy="46" fill="#3023AE"/>
    <circle r="4" cx="205" cy="19.362165239126632" fill="#C86DD7" opacity="0">
        <animate attributeName="opacity"
            from="0" to="1" dur="0.1s" begin="2.2s" fill="freeze"/>
    </circle>
</svg>