<svg width="200" height="50" viewBox="0 0 210 50" xmlns="http://www.w3.org/2000/svg">
    <!-- 4478 stargazers -->
    <!-- created at Wed Apr 08 2026 11:21:22 GMT+0000 (Coordinated Universal Time) -->
    <defs>
        <linearGradient id="stroke" x1="0%" y1="0%" x2="100%" y2="0%">
            <stop stop-color="#3023AE" offset="0%"/>
            <stop stop-color="#C86DD7" offset="100%"/>
        </linearGradient>
    </defs>
    <path stroke="url(#stroke)"
        stroke-width="3"
        stroke-linejoin="round"
        stroke-linecap="round"
        d="M5.00 46.0001 C 6.41 45.48, 8.71 44.93, 10.00 44.17 S 13.69 40.88, 15.00 40.15 S 18.63 39.18, 20.00 38.56 S 23.58 36.17, 25.00 35.69 S 28.52 35.34, 30.00 35.12 S 33.54 34.58, 35.00 34.24 S 38.59 33.30, 40.00 32.79 S 43.52 30.94, 45.00 30.67 S 48.51 30.78, 50.00 30.96 S 53.51 32.11, 55.00 31.90 S 58.50 29.70, 60.00 29.61 S 63.51 31.47, 65.00 31.29 S 68.63 28.98, 70.00 28.38 S 73.50 26.86, 75.00 26.89 S 78.54 28.86, 80.00 28.53 S 83.59 25.14, 85.00 24.63 S 88.52 25.16, 90.00 24.92 S 93.51 22.85, 95.00 23.01 S 98.57 26.43, 100.00 25.98 S 103.72 20.58, 105.00 19.80 S 108.50 19.93, 110.00 19.82 S 113.50 19.01, 115.00 19.05 S 118.56 19.66, 120.00 20.08 S 123.50 22.06, 125.00 21.95 S 128.67 20.00, 130.00 19.31 S 133.51 16.99, 135.00 16.78 S 138.52 17.72, 140.00 17.94 S 143.53 18.54, 145.00 18.26 S 148.50 15.88, 150.00 16.00 S 153.58 18.57, 155.00 19.06 S 158.54 19.11, 160.00 19.44 S 163.51 21.47, 165.00 21.30 S 168.65 19.00, 170.00 18.34 S 173.51 16.60, 175.00 16.41 S 178.68 16.31, 180.00 17.03 S 183.66 21.17, 185.00 21.86 S 188.53 22.41, 190.00 22.13 S 193.69 20.73, 195.00 20.00 S 198.51 16.75, 200.00 16.55 S 203.62 18.10, 205.00 18.69"
        fill="none">
        <animate attributeName="stroke-dashoffset"
            from="221.40205748487048" to="0" dur="2.2s"/>
        <animate attributeName="stroke-dasharray"
            from="221.40205748487048" to="221.40205748487048"/>
    </path>
    <circle r="4" cx="5" cy="46" fill="#3023AE"/>
    <circle r="4" cx="205" cy="18.6928412460606" fill="#C86DD7" opacity="0">
        <animate attributeName="opacity"
            from="0" to="1" dur="0.1s" begin="2.2s" fill="freeze"/>
    </circle>
</svg>