<svg width="200" height="50" viewBox="0 0 210 50" xmlns="http://www.w3.org/2000/svg">
    <!-- 4408 stargazers -->
    <!-- created at Sat Mar 21 2026 08:52:34 GMT+0000 (Coordinated Universal Time) -->
    <defs>
        <linearGradient id="stroke" x1="0%" y1="0%" x2="100%" y2="0%">
            <stop stop-color="#3023AE" offset="0%"/>
            <stop stop-color="#C86DD7" offset="100%"/>
        </linearGradient>
    </defs>
    <path stroke="url(#stroke)"
        stroke-width="3"
        stroke-linejoin="round"
        stroke-linecap="round"
        d="M5.00 46.0001 C 6.41 45.50, 8.70 44.96, 10.00 44.22 S 13.67 41.00, 15.00 40.31 S 18.62 39.60, 20.00 39.00 S 23.58 36.45, 25.00 35.96 S 28.51 35.75, 30.00 35.55 S 33.54 34.96, 35.00 34.63 S 38.56 33.72, 40.00 33.28 S 43.52 31.88, 45.00 31.61 S 48.50 31.35, 50.00 31.44 S 53.51 32.41, 55.00 32.20 S 58.51 30.20, 60.00 30.05 S 63.50 31.26, 65.00 31.16 S 68.55 29.73, 70.00 29.34 S 73.50 28.55, 75.00 28.44 S 78.55 28.95, 80.00 28.55 S 83.59 26.17, 85.00 25.67 S 88.50 24.91, 90.00 25.00 S 93.51 26.46, 95.00 26.31 S 98.60 24.48, 100.00 23.94 S 103.59 22.99, 105.00 22.46 S 108.54 20.53, 110.00 20.21 S 113.50 20.34, 115.00 20.25 S 118.58 19.12, 120.00 19.60 S 123.52 23.33, 125.00 23.57 S 128.65 21.88, 130.00 21.22 S 133.61 19.25, 135.00 18.69 S 138.52 16.96, 140.00 17.18 S 143.51 20.34, 145.00 20.17 S 148.50 16.03, 150.00 16.00 S 153.59 19.47, 155.00 19.99 S 158.51 19.51, 160.00 19.72 S 163.50 21.38, 165.00 21.37 S 168.53 19.93, 170.00 19.64 S 173.54 19.75, 175.00 19.40 S 178.50 17.24, 180.00 17.26 S 183.69 18.82, 185.00 19.55 S 188.55 22.39, 190.00 22.77 S 193.55 22.57, 195.00 22.20 S 198.65 20.91, 200.00 20.26 S 203.70 18.13, 205.00 17.38"
        fill="none">
        <animate attributeName="stroke-dashoffset"
            from="217.84595505039104" to="0" dur="2.2s"/>
        <animate attributeName="stroke-dasharray"
            from="217.84595505039104" to="217.84595505039104"/>
    </path>
    <circle r="4" cx="5" cy="46" fill="#3023AE"/>
    <circle r="4" cx="205" cy="17.378394784175157" fill="#C86DD7" opacity="0">
        <animate attributeName="opacity"
            from="0" to="1" dur="0.1s" begin="2.2s" fill="freeze"/>
    </circle>
</svg>