<svg width="200" height="50" viewBox="0 0 210 50" xmlns="http://www.w3.org/2000/svg">
    <!-- 4518 stargazers -->
    <!-- created at Fri Apr 17 2026 05:44:57 GMT+0000 (Coordinated Universal Time) -->
    <defs>
        <linearGradient id="stroke" x1="0%" y1="0%" x2="100%" y2="0%">
            <stop stop-color="#3023AE" offset="0%"/>
            <stop stop-color="#C86DD7" offset="100%"/>
        </linearGradient>
    </defs>
    <path stroke="url(#stroke)"
        stroke-width="3"
        stroke-linejoin="round"
        stroke-linecap="round"
        d="M5.00 46.0001 C 6.41 45.48, 8.71 44.91, 10.00 44.15 S 13.70 40.81, 15.00 40.07 S 18.64 39.09, 20.00 38.46 S 23.58 35.96, 25.00 35.48 S 28.52 35.28, 30.00 35.05 S 33.54 34.20, 35.00 33.86 S 38.59 33.26, 40.00 32.75 S 43.53 30.55, 45.00 30.26 S 48.51 30.55, 50.00 30.75 S 53.52 31.89, 55.00 31.63 S 58.50 29.07, 60.00 28.99 S 63.50 31.18, 65.00 31.09 S 68.64 29.02, 70.00 28.39 S 73.51 26.59, 75.00 26.46 S 78.54 27.89, 80.00 27.55 S 83.55 24.56, 85.00 24.17 S 88.52 25.13, 90.00 24.89 S 93.50 22.45, 95.00 22.53 S 98.59 25.92, 100.00 25.41 S 103.72 19.67, 105.00 18.89 S 108.50 19.35, 110.00 19.37 S 113.50 18.94, 115.00 19.01 S 118.56 19.39, 120.00 19.81 S 123.53 22.19, 125.00 21.92 S 128.69 18.67, 130.00 17.94 S 133.50 16.39, 135.00 16.29 S 138.50 17.29, 140.00 17.27 S 143.50 16.12, 145.00 16.14 S 148.55 17.04, 150.00 17.44 S 153.53 18.63, 155.00 18.91 S 158.50 19.30, 160.00 19.30 S 163.50 18.96, 165.00 18.92 S 168.56 19.44, 170.00 19.02 S 173.52 16.23, 175.00 16.00 S 178.70 16.70, 180.00 17.45 S 183.59 21.30, 185.00 21.81 S 188.57 21.52, 190.00 21.07 S 193.63 19.31, 195.00 18.68 S 198.50 16.60, 200.00 16.52 S 203.58 17.71, 205.00 18.18"
        fill="none">
        <animate attributeName="stroke-dashoffset"
            from="219.94667975015363" to="0" dur="2.2s"/>
        <animate attributeName="stroke-dasharray"
            from="219.94667975015363" to="219.94667975015363"/>
    </path>
    <circle r="4" cx="5" cy="46" fill="#3023AE"/>
    <circle r="4" cx="205" cy="18.17766500046219" fill="#C86DD7" opacity="0">
        <animate attributeName="opacity"
            from="0" to="1" dur="0.1s" begin="2.2s" fill="freeze"/>
    </circle>
</svg>