<svg width="200" height="50" viewBox="0 0 210 50" xmlns="http://www.w3.org/2000/svg">
    <!-- 4402 stargazers -->
    <!-- created at Wed Mar 18 2026 08:49:42 GMT+0000 (Coordinated Universal Time) -->
    <defs>
        <linearGradient id="stroke" x1="0%" y1="0%" x2="100%" y2="0%">
            <stop stop-color="#3023AE" offset="0%"/>
            <stop stop-color="#C86DD7" offset="100%"/>
        </linearGradient>
    </defs>
    <path stroke="url(#stroke)"
        stroke-width="3"
        stroke-linejoin="round"
        stroke-linecap="round"
        d="M5.00 46.0001 C 6.41 45.50, 8.70 44.96, 10.00 44.22 S 13.67 40.99, 15.00 40.31 S 18.63 39.68, 20.00 39.08 S 23.59 36.40, 25.00 35.90 S 28.51 35.74, 30.00 35.55 S 33.54 34.95, 35.00 34.63 S 38.57 33.80, 40.00 33.35 S 43.53 31.82, 45.00 31.54 S 48.50 31.34, 50.00 31.44 S 53.51 32.39, 55.00 32.20 S 58.51 30.35, 60.00 30.20 S 63.50 31.26, 65.00 31.16 S 68.56 29.93, 70.00 29.50 S 73.51 28.32, 75.00 28.19 S 78.52 28.91, 80.00 28.64 S 83.61 26.96, 85.00 26.39 S 88.50 24.55, 90.00 24.53 S 93.50 26.25, 95.00 26.22 S 98.58 24.77, 100.00 24.28 S 103.63 23.31, 105.00 22.71 S 108.54 20.24, 110.00 19.90 S 113.50 20.34, 115.00 20.33 S 118.54 19.49, 120.00 19.84 S 123.53 22.51, 125.00 22.79 S 128.61 22.25, 130.00 21.70 S 133.63 19.39, 135.00 18.78 S 138.52 17.02, 140.00 17.27 S 143.51 20.66, 145.00 20.47 S 148.52 16.25, 150.00 16.00 S 153.67 18.08, 155.00 18.76 S 158.53 20.86, 160.00 21.15 S 163.51 20.89, 165.00 20.68 S 168.50 19.83, 170.00 19.76 S 173.54 20.58, 175.00 20.22 S 178.52 17.48, 180.00 17.26 S 183.68 18.00, 185.00 18.71 S 188.58 22.14, 190.00 22.63 S 193.53 22.49, 195.00 22.20 S 198.68 21.38, 200.00 20.67 S 203.82 17.69, 205.00 16.77"
        fill="none">
        <animate attributeName="stroke-dashoffset"
            from="217.90926595539585" to="0" dur="2.2s"/>
        <animate attributeName="stroke-dasharray"
            from="217.90926595539585" to="217.90926595539585"/>
    </path>
    <circle r="4" cx="5" cy="46" fill="#3023AE"/>
    <circle r="4" cx="205" cy="16.768057371525355" fill="#C86DD7" opacity="0">
        <animate attributeName="opacity"
            from="0" to="1" dur="0.1s" begin="2.2s" fill="freeze"/>
    </circle>
</svg>