<svg width="200" height="50" viewBox="0 0 210 50" xmlns="http://www.w3.org/2000/svg">
    <!-- 4453 stargazers -->
    <!-- created at Thu Apr 02 2026 11:12:50 GMT+0000 (Coordinated Universal Time) -->
    <defs>
        <linearGradient id="stroke" x1="0%" y1="0%" x2="100%" y2="0%">
            <stop stop-color="#3023AE" offset="0%"/>
            <stop stop-color="#C86DD7" offset="100%"/>
        </linearGradient>
    </defs>
    <path stroke="url(#stroke)"
        stroke-width="3"
        stroke-linejoin="round"
        stroke-linecap="round"
        d="M5.00 46.0001 C 6.41 45.48, 8.71 44.91, 10.00 44.14 S 13.69 40.79, 15.00 40.06 S 18.64 39.15, 20.00 38.53 S 23.58 35.95, 25.00 35.46 S 28.51 35.22, 30.00 35.02 S 33.54 34.47, 35.00 34.13 S 38.59 33.16, 40.00 32.65 S 43.52 30.81, 45.00 30.56 S 48.51 30.82, 50.00 30.95 S 53.52 31.65, 55.00 31.43 S 58.50 29.52, 60.00 29.43 S 63.51 30.94, 65.00 30.78 S 68.59 28.86, 70.00 28.35 S 73.50 27.19, 75.00 27.16 S 78.57 28.61, 80.00 28.16 S 83.59 24.48, 85.00 23.97 S 88.51 24.69, 90.00 24.50 S 93.51 22.55, 95.00 22.72 S 98.54 26.00, 100.00 25.66 S 103.70 21.09, 105.00 20.34 S 108.53 20.19, 110.00 19.90 S 113.51 18.56, 115.00 18.37 S 118.58 18.11, 120.00 18.61 S 123.52 21.66, 125.00 21.87 S 128.64 20.67, 130.00 20.04 S 133.60 17.74, 135.00 17.22 S 138.50 16.19, 140.00 16.28 S 143.50 17.86, 145.00 17.82 S 148.50 15.91, 150.00 16.00 S 153.54 18.06, 155.00 18.42 S 158.53 18.14, 160.00 18.45 S 163.50 20.62, 165.00 20.54 S 168.58 18.38, 170.00 17.91 S 173.50 17.27, 175.00 17.18 S 178.51 17.07, 180.00 17.27 S 183.63 17.90, 185.00 18.51 S 188.53 21.45, 190.00 21.75 S 193.58 21.06, 195.00 20.58 S 198.60 18.85, 200.00 18.30 S 203.58 17.11, 205.00 16.64"
        fill="none">
        <animate attributeName="stroke-dashoffset"
            from="217.86772230455605" to="0" dur="2.2s"/>
        <animate attributeName="stroke-dasharray"
            from="217.86772230455605" to="217.86772230455605"/>
    </path>
    <circle r="4" cx="5" cy="46" fill="#3023AE"/>
    <circle r="4" cx="205" cy="16.641344333983188" fill="#C86DD7" opacity="0">
        <animate attributeName="opacity"
            from="0" to="1" dur="0.1s" begin="2.2s" fill="freeze"/>
    </circle>
</svg>