<svg width="200" height="50" viewBox="0 0 210 50" xmlns="http://www.w3.org/2000/svg">
    <!-- 4487 stargazers -->
    <!-- created at Sat Apr 11 2026 11:23:43 GMT+0000 (Coordinated Universal Time) -->
    <defs>
        <linearGradient id="stroke" x1="0%" y1="0%" x2="100%" y2="0%">
            <stop stop-color="#3023AE" offset="0%"/>
            <stop stop-color="#C86DD7" offset="100%"/>
        </linearGradient>
    </defs>
    <path stroke="url(#stroke)"
        stroke-width="3"
        stroke-linejoin="round"
        stroke-linecap="round"
        d="M5.00 46.0001 C 6.41 45.49, 8.70 44.93, 10.00 44.17 S 13.69 40.89, 15.00 40.16 S 18.63 39.19, 20.00 38.58 S 23.58 36.19, 25.00 35.71 S 28.52 35.39, 30.00 35.15 S 33.53 34.36, 35.00 34.05 S 38.58 33.52, 40.00 33.03 S 43.53 30.94, 45.00 30.64 S 48.51 30.80, 50.00 30.99 S 53.52 32.16, 55.00 31.93 S 58.50 29.55, 60.00 29.49 S 63.51 31.70, 65.00 31.50 S 68.63 28.78, 70.00 28.17 S 73.50 27.09, 75.00 27.08 S 78.54 28.44, 80.00 28.11 S 83.58 25.31, 85.00 24.83 S 88.51 24.92, 90.00 24.72 S 93.51 23.30, 95.00 23.46 S 98.59 26.32, 100.00 25.82 S 103.75 20.75, 105.00 19.93 S 108.51 19.39, 110.00 19.23 S 113.53 18.58, 115.00 18.86 S 118.56 20.69, 120.00 21.11 S 123.54 22.14, 125.00 21.80 S 128.68 19.54, 130.00 18.82 S 133.50 16.44, 135.00 16.33 S 138.51 17.89, 140.00 18.09 S 143.51 17.78, 145.00 17.64 S 148.52 16.87, 150.00 17.10 S 153.54 18.86, 155.00 19.22 S 158.51 19.41, 160.00 19.60 S 163.51 20.63, 165.00 20.50 S 168.59 19.25, 170.00 18.74 S 173.51 17.10, 175.00 16.91 S 178.64 16.81, 180.00 17.43 S 183.62 20.89, 185.00 21.49 S 188.51 21.92, 190.00 21.75 S 193.70 21.07, 195.00 20.32 S 198.50 16.07, 200.00 16.00 S 203.81 18.94, 205.00 19.86"
        fill="none">
        <animate attributeName="stroke-dashoffset"
            from="219.69155562729537" to="0" dur="2.2s"/>
        <animate attributeName="stroke-dasharray"
            from="219.69155562729537" to="219.69155562729537"/>
    </path>
    <circle r="4" cx="5" cy="46" fill="#3023AE"/>
    <circle r="4" cx="205" cy="19.860139706154943" fill="#C86DD7" opacity="0">
        <animate attributeName="opacity"
            from="0" to="1" dur="0.1s" begin="2.2s" fill="freeze"/>
    </circle>
</svg>