<svg width="200" height="50" viewBox="0 0 210 50" xmlns="http://www.w3.org/2000/svg">
    <!-- 4422 stargazers -->
    <!-- created at Tue Mar 24 2026 08:53:59 GMT+0000 (Coordinated Universal Time) -->
    <defs>
        <linearGradient id="stroke" x1="0%" y1="0%" x2="100%" y2="0%">
            <stop stop-color="#3023AE" offset="0%"/>
            <stop stop-color="#C86DD7" offset="100%"/>
        </linearGradient>
    </defs>
    <path stroke="url(#stroke)"
        stroke-width="3"
        stroke-linejoin="round"
        stroke-linecap="round"
        d="M5.00 46.0001 C 6.41 45.48, 8.71 44.93, 10.00 44.17 S 13.68 40.87, 15.00 40.15 S 18.63 39.34, 20.00 38.72 S 23.59 36.19, 25.00 35.69 S 28.51 35.30, 30.00 35.12 S 33.54 34.86, 35.00 34.53 S 38.59 33.37, 40.00 32.86 S 43.52 31.18, 45.00 30.94 S 48.50 31.14, 50.00 31.26 S 53.52 31.98, 55.00 31.74 S 58.50 29.73, 60.00 29.61 S 63.50 31.05, 65.00 30.93 S 68.58 29.26, 70.00 28.79 S 73.50 27.68, 75.00 27.62 S 78.55 28.74, 80.00 28.34 S 83.60 25.41, 85.00 24.87 S 88.50 24.30, 90.00 24.42 S 93.50 25.78, 95.00 25.67 S 98.61 24.24, 100.00 23.68 S 103.61 22.21, 105.00 21.65 S 108.53 19.89, 110.00 19.57 S 113.50 19.55, 115.00 19.46 S 118.55 18.56, 120.00 18.95 S 123.53 21.84, 125.00 22.15 S 128.63 21.63, 130.00 21.03 S 133.63 18.38, 135.00 17.76 S 138.50 16.36, 140.00 16.48 S 143.50 18.62, 145.00 18.55 S 148.50 15.97, 150.00 16.00 S 153.57 18.28, 155.00 18.74 S 158.55 18.83, 160.00 19.21 S 163.52 21.64, 165.00 21.43 S 168.54 18.13, 170.00 17.78 S 173.52 19.24, 175.00 19.03 S 178.50 16.46, 180.00 16.35 S 183.79 17.44, 185.00 18.32 S 188.55 23.25, 190.00 23.63 S 193.64 21.60, 195.00 20.97 S 198.62 19.59, 200.00 19.01 S 203.64 17.34, 205.00 16.72"
        fill="none">
        <animate attributeName="stroke-dashoffset"
            from="219.2168061952465" to="0" dur="2.2s"/>
        <animate attributeName="stroke-dasharray"
            from="219.2168061952465" to="219.2168061952465"/>
    </path>
    <circle r="4" cx="5" cy="46" fill="#3023AE"/>
    <circle r="4" cx="205" cy="16.716334636954215" fill="#C86DD7" opacity="0">
        <animate attributeName="opacity"
            from="0" to="1" dur="0.1s" begin="2.2s" fill="freeze"/>
    </circle>
</svg>