<svg width="200" height="50" viewBox="0 0 210 50" xmlns="http://www.w3.org/2000/svg">
    <!-- 4553 stargazers -->
    <!-- created at Sun Apr 26 2026 05:50:29 GMT+0000 (Coordinated Universal Time) -->
    <defs>
        <linearGradient id="stroke" x1="0%" y1="0%" x2="100%" y2="0%">
            <stop stop-color="#3023AE" offset="0%"/>
            <stop stop-color="#C86DD7" offset="100%"/>
        </linearGradient>
    </defs>
    <path stroke="url(#stroke)"
        stroke-width="3"
        stroke-linejoin="round"
        stroke-linecap="round"
        d="M5.00 46.0001 C 6.39 45.45, 8.70 44.75, 10.00 44.01 S 13.67 41.01, 15.00 40.32 S 18.64 39.49, 20.00 38.85 S 23.57 36.14, 25.00 35.67 S 28.51 35.76, 30.00 35.57 S 33.54 34.78, 35.00 34.44 S 38.58 33.73, 40.00 33.24 S 43.52 31.25, 45.00 30.98 S 48.51 31.34, 50.00 31.46 S 53.52 32.08, 55.00 31.83 S 58.50 29.84, 60.00 29.78 S 63.51 31.62, 65.00 31.45 S 68.59 29.16, 70.00 28.65 S 73.50 27.94, 75.00 27.83 S 78.56 28.33, 80.00 27.90 S 83.52 25.11, 85.00 24.86 S 88.52 26.43, 90.00 26.20 S 93.51 23.47, 95.00 23.28 S 98.59 25.42, 100.00 24.92 S 103.62 20.33, 105.00 19.73 S 108.50 20.52, 110.00 20.57 S 113.51 19.91, 115.00 20.06 S 118.54 21.27, 120.00 21.60 S 123.56 22.77, 125.00 22.35 S 128.67 19.37, 130.00 18.69 S 133.51 17.06, 135.00 17.20 S 138.51 19.84, 140.00 19.67 S 143.50 15.96, 145.00 16.00 S 148.58 19.44, 150.00 19.92 S 153.53 19.00, 155.00 19.32 S 158.50 22.23, 160.00 22.11 S 163.55 18.93, 165.00 18.54 S 168.50 19.57, 170.00 19.47 S 173.50 18.01, 175.00 17.90 S 178.66 18.08, 180.00 18.76 S 183.58 22.48, 185.00 22.96 S 188.58 22.62, 190.00 22.12 S 193.63 20.06, 195.00 19.45 S 198.50 17.61, 200.00 17.64 S 203.60 19.06, 205.00 19.61"
        fill="none">
        <animate attributeName="stroke-dashoffset"
            from="221.20791928588017" to="0" dur="2.2s"/>
        <animate attributeName="stroke-dasharray"
            from="221.20791928588017" to="221.20791928588017"/>
    </path>
    <circle r="4" cx="5" cy="46" fill="#3023AE"/>
    <circle r="4" cx="205" cy="19.609646884315374" fill="#C86DD7" opacity="0">
        <animate attributeName="opacity"
            from="0" to="1" dur="0.1s" begin="2.2s" fill="freeze"/>
    </circle>
</svg>