<svg width="200" height="50" viewBox="0 0 210 50" xmlns="http://www.w3.org/2000/svg">
    <!-- 4349 stargazers -->
    <!-- created at Mon Mar 09 2026 08:45:50 GMT+0000 (Coordinated Universal Time) -->
    <defs>
        <linearGradient id="stroke" x1="0%" y1="0%" x2="100%" y2="0%">
            <stop stop-color="#3023AE" offset="0%"/>
            <stop stop-color="#C86DD7" offset="100%"/>
        </linearGradient>
    </defs>
    <path stroke="url(#stroke)"
        stroke-width="3"
        stroke-linejoin="round"
        stroke-linecap="round"
        d="M5.00 46.0001 C 6.40 45.47, 8.71 44.90, 10.00 44.13 S 13.68 40.72, 15.00 40.01 S 18.64 39.44, 20.00 38.81 S 23.59 35.90, 25.00 35.38 S 28.51 35.29, 30.00 35.09 S 33.53 34.28, 35.00 33.96 S 38.57 33.38, 40.00 32.92 S 43.53 31.04, 45.00 30.72 S 48.51 30.58, 50.00 30.76 S 53.52 32.15, 55.00 31.92 S 58.52 29.45, 60.00 29.22 S 63.50 30.36, 65.00 30.39 S 68.60 29.98, 70.00 29.45 S 73.51 26.78, 75.00 26.60 S 78.51 28.38, 80.00 28.21 S 83.65 26.11, 85.00 25.46 S 88.50 23.41, 90.00 23.42 S 93.50 25.59, 95.00 25.48 S 98.57 23.07, 100.00 22.62 S 103.60 22.92, 105.00 22.39 S 108.58 19.27, 110.00 18.79 S 113.50 18.96, 115.00 19.01 S 118.51 18.90, 120.00 19.11 S 123.53 20.11, 125.00 20.39 S 128.54 21.38, 130.00 21.05 S 133.65 18.78, 135.00 18.12 S 138.50 16.26, 140.00 16.15 S 143.50 17.34, 145.00 17.40 S 148.50 16.60, 150.00 16.56 S 153.53 16.86, 155.00 17.14 S 158.53 18.18, 160.00 18.47 S 163.54 18.78, 165.00 19.13 S 168.52 21.14, 170.00 20.89 S 173.65 18.09, 175.00 17.43 S 178.50 15.98, 180.00 16.00 S 183.57 17.10, 185.00 17.55 S 188.59 18.63, 190.00 19.16 S 193.50 21.16, 195.00 21.27 S 198.55 20.32, 200.00 19.93 S 203.55 19.00, 205.00 18.61"
        fill="none">
        <animate attributeName="stroke-dashoffset"
            from="214.91323908657867" to="0" dur="2.2s"/>
        <animate attributeName="stroke-dasharray"
            from="214.91323908657867" to="214.91323908657867"/>
    </path>
    <circle r="4" cx="5" cy="46" fill="#3023AE"/>
    <circle r="4" cx="205" cy="18.614732418969027" fill="#C86DD7" opacity="0">
        <animate attributeName="opacity"
            from="0" to="1" dur="0.1s" begin="2.2s" fill="freeze"/>
    </circle>
</svg>