<svg width="200" height="50" viewBox="0 0 210 50" xmlns="http://www.w3.org/2000/svg">
    <!-- 4534 stargazers -->
    <!-- created at Mon Apr 20 2026 05:45:45 GMT+0000 (Coordinated Universal Time) -->
    <defs>
        <linearGradient id="stroke" x1="0%" y1="0%" x2="100%" y2="0%">
            <stop stop-color="#3023AE" offset="0%"/>
            <stop stop-color="#C86DD7" offset="100%"/>
        </linearGradient>
    </defs>
    <path stroke="url(#stroke)"
        stroke-width="3"
        stroke-linejoin="round"
        stroke-linecap="round"
        d="M5.00 46.0001 C 6.41 45.49, 8.71 44.94, 10.00 44.18 S 13.69 40.82, 15.00 40.10 S 18.63 39.30, 20.00 38.69 S 23.58 36.10, 25.00 35.62 S 28.52 35.48, 30.00 35.26 S 33.54 34.43, 35.00 34.10 S 38.58 33.50, 40.00 33.01 S 43.53 30.92, 45.00 30.63 S 48.51 30.90, 50.00 31.05 S 53.52 31.89, 55.00 31.66 S 58.50 29.53, 60.00 29.47 S 63.51 31.43, 65.00 31.28 S 68.62 29.07, 70.00 28.48 S 73.51 27.16, 75.00 27.00 S 78.53 27.71, 80.00 27.39 S 83.52 25.09, 85.00 24.83 S 88.53 25.93, 90.00 25.64 S 93.50 22.93, 95.00 22.90 S 98.60 25.97, 100.00 25.43 S 103.71 19.80, 105.00 19.04 S 108.50 19.46, 110.00 19.57 S 113.51 19.58, 115.00 19.78 S 118.52 20.70, 120.00 20.94 S 123.54 21.75, 125.00 21.41 S 128.64 19.29, 130.00 18.66 S 133.50 16.81, 135.00 16.78 S 138.50 18.59, 140.00 18.47 S 143.50 16.09, 145.00 16.00 S 148.62 17.30, 150.00 17.89 S 153.53 20.00, 155.00 20.30 S 158.51 20.12, 160.00 19.93 S 163.50 19.10, 165.00 18.99 S 168.56 19.60, 170.00 19.19 S 173.51 16.29, 175.00 16.15 S 178.82 17.31, 180.00 18.24 S 183.56 23.62, 185.00 24.04 S 188.65 21.79, 190.00 21.14 S 193.64 19.85, 195.00 19.21 S 198.51 16.61, 200.00 16.48 S 203.59 17.80, 205.00 18.31"
        fill="none">
        <animate attributeName="stroke-dashoffset"
            from="221.26689542649657" to="0" dur="2.2s"/>
        <animate attributeName="stroke-dasharray"
            from="221.26689542649657" to="221.26689542649657"/>
    </path>
    <circle r="4" cx="5" cy="46" fill="#3023AE"/>
    <circle r="4" cx="205" cy="18.314908275727614" fill="#C86DD7" opacity="0">
        <animate attributeName="opacity"
            from="0" to="1" dur="0.1s" begin="2.2s" fill="freeze"/>
    </circle>
</svg>