<svg width="200" height="50" viewBox="0 0 210 50" xmlns="http://www.w3.org/2000/svg">
    <!-- 4633 stargazers -->
    <!-- created at Sun May 17 2026 11:42:18 GMT+0000 (Coordinated Universal Time) -->
    <defs>
        <linearGradient id="stroke" x1="0%" y1="0%" x2="100%" y2="0%">
            <stop stop-color="#3023AE" offset="0%"/>
            <stop stop-color="#C86DD7" offset="100%"/>
        </linearGradient>
    </defs>
    <path stroke="url(#stroke)"
        stroke-width="3"
        stroke-linejoin="round"
        stroke-linecap="round"
        d="M5.00 46.0001 C 6.39 45.43, 8.71 44.71, 10.00 43.95 S 13.67 40.84, 15.00 40.14 S 18.66 39.38, 20.00 38.71 S 23.60 35.68, 25.00 35.16 S 28.51 35.13, 30.00 34.96 S 33.56 34.48, 35.00 34.08 S 38.57 32.61, 40.00 32.15 S 43.51 31.01, 45.00 30.84 S 48.50 30.92, 50.00 31.01 S 53.52 31.65, 55.00 31.38 S 58.50 29.26, 60.00 29.19 S 63.52 31.12, 65.00 30.90 S 68.59 28.22, 70.00 27.70 S 73.52 27.47, 75.00 27.25 S 78.58 26.73, 80.00 26.24 S 83.50 23.89, 85.00 23.81 S 88.50 25.77, 90.00 25.66 S 93.59 23.56, 95.00 23.04 S 98.60 22.48, 100.00 21.95 S 103.55 19.66, 105.00 19.28 S 108.50 19.48, 110.00 19.36 S 113.55 18.12, 115.00 18.51 S 118.52 21.81, 120.00 22.05 S 123.69 20.82, 125.00 20.09 S 128.55 16.92, 130.00 16.54 S 133.50 17.44, 135.00 17.52 S 138.51 17.19, 140.00 17.05 S 143.52 16.31, 145.00 16.58 S 148.54 18.53, 150.00 18.89 S 153.51 18.85, 155.00 19.01 S 158.50 19.97, 160.00 19.95 S 163.60 19.44, 165.00 18.89 S 168.51 16.16, 170.00 16.00 S 173.74 16.99, 175.00 17.80 S 178.56 21.96, 180.00 22.39 S 183.58 21.33, 185.00 20.84 S 188.62 19.52, 190.00 18.94 S 193.52 16.83, 195.00 16.60 S 198.59 16.87, 200.00 17.38 S 203.69 19.45, 205.00 20.19"
        fill="none">
        <animate attributeName="stroke-dashoffset"
            from="217.26132454986544" to="0" dur="2.2s"/>
        <animate attributeName="stroke-dasharray"
            from="217.26132454986544" to="217.26132454986544"/>
    </path>
    <circle r="4" cx="5" cy="46" fill="#3023AE"/>
    <circle r="4" cx="205" cy="20.18753106785821" fill="#C86DD7" opacity="0">
        <animate attributeName="opacity"
            from="0" to="1" dur="0.1s" begin="2.2s" fill="freeze"/>
    </circle>
</svg>