<svg width="200" height="50" viewBox="0 0 210 50" xmlns="http://www.w3.org/2000/svg">
    <!-- 4324 stargazers -->
    <!-- created at Wed Mar 04 2026 14:22:28 GMT+0000 (Coordinated Universal Time) -->
    <defs>
        <linearGradient id="stroke" x1="0%" y1="0%" x2="100%" y2="0%">
            <stop stop-color="#3023AE" offset="0%"/>
            <stop stop-color="#C86DD7" offset="100%"/>
        </linearGradient>
    </defs>
    <path stroke="url(#stroke)"
        stroke-width="3"
        stroke-linejoin="round"
        stroke-linecap="round"
        d="M5.00 46.0001 C 6.41 45.49, 8.70 44.94, 10.00 44.19 S 13.67 40.90, 15.00 40.21 S 18.63 39.66, 20.00 39.04 S 23.58 36.22, 25.00 35.73 S 28.51 35.78, 30.00 35.59 S 33.54 34.77, 35.00 34.43 S 38.57 33.72, 40.00 33.28 S 43.53 31.65, 45.00 31.36 S 48.50 31.22, 50.00 31.34 S 53.52 32.36, 55.00 32.13 S 58.51 29.93, 60.00 29.78 S 63.50 31.01, 65.00 31.08 S 68.59 30.77, 70.00 30.26 S 73.53 27.79, 75.00 27.48 S 78.51 28.34, 80.00 28.17 S 83.59 26.83, 85.00 26.31 S 88.50 24.49, 90.00 24.48 S 93.51 26.40, 95.00 26.25 S 98.57 23.93, 100.00 23.48 S 103.60 23.62, 105.00 23.08 S 108.55 20.01, 110.00 19.61 S 113.50 20.27, 115.00 20.32 S 118.51 19.73, 120.00 19.91 S 123.55 21.14, 125.00 21.52 S 128.54 22.90, 130.00 22.58 S 133.75 20.15, 135.00 19.32 S 138.50 16.09, 140.00 16.00 S 143.54 18.39, 145.00 18.74 S 148.52 18.63, 150.00 18.41 S 153.51 17.11, 155.00 17.30 S 158.54 19.38, 160.00 19.71 S 163.51 19.37, 165.00 19.56 S 168.50 21.08, 170.00 20.97 S 173.56 19.26, 175.00 18.84 S 178.51 18.19, 180.00 18.01 S 183.51 17.49, 185.00 17.66 S 188.64 18.50, 190.00 19.14 S 193.59 21.88, 195.00 22.38 S 198.56 23.12, 200.00 22.71 S 203.74 20.33, 205.00 19.52"
        fill="none">
        <animate attributeName="stroke-dashoffset"
            from="215.53497379266292" to="0" dur="2.2s"/>
        <animate attributeName="stroke-dasharray"
            from="215.53497379266292" to="215.53497379266292"/>
    </path>
    <circle r="4" cx="5" cy="46" fill="#3023AE"/>
    <circle r="4" cx="205" cy="19.520607339781986" fill="#C86DD7" opacity="0">
        <animate attributeName="opacity"
            from="0" to="1" dur="0.1s" begin="2.2s" fill="freeze"/>
    </circle>
</svg>