<svg width="200" height="50" viewBox="0 0 210 50" xmlns="http://www.w3.org/2000/svg">
    <!-- 4548 stargazers -->
    <!-- created at Thu Apr 23 2026 05:46:30 GMT+0000 (Coordinated Universal Time) -->
    <defs>
        <linearGradient id="stroke" x1="0%" y1="0%" x2="100%" y2="0%">
            <stop stop-color="#3023AE" offset="0%"/>
            <stop stop-color="#C86DD7" offset="100%"/>
        </linearGradient>
    </defs>
    <path stroke="url(#stroke)"
        stroke-width="3"
        stroke-linejoin="round"
        stroke-linecap="round"
        d="M5.00 46.0001 C 6.41 45.50, 8.70 44.97, 10.00 44.21 S 13.68 40.92, 15.00 40.20 S 18.63 39.43, 20.00 38.81 S 23.58 36.15, 25.00 35.67 S 28.51 35.63, 30.00 35.44 S 33.54 34.78, 35.00 34.44 S 38.58 33.66, 40.00 33.17 S 43.53 31.23, 45.00 30.96 S 48.50 31.19, 50.00 31.31 S 53.52 31.99, 55.00 31.75 S 58.50 29.73, 60.00 29.69 S 63.51 31.61, 65.00 31.45 S 68.60 29.16, 70.00 28.63 S 73.51 27.77, 75.00 27.64 S 78.55 28.18, 80.00 27.80 S 83.53 25.32, 85.00 25.04 S 88.53 26.21, 90.00 25.91 S 93.50 23.05, 95.00 22.99 S 98.58 26.00, 100.00 25.51 S 103.66 20.26, 105.00 19.58 S 108.50 20.49, 110.00 20.50 S 113.51 19.52, 115.00 19.67 S 118.54 21.22, 120.00 21.55 S 123.54 22.30, 125.00 21.93 S 128.64 19.69, 130.00 19.05 S 133.50 17.21, 135.00 17.21 S 138.51 19.23, 140.00 19.05 S 143.50 16.00, 145.00 16.00 S 148.61 18.50, 150.00 19.07 S 153.53 19.81, 155.00 20.11 S 158.51 21.24, 160.00 21.05 S 163.51 19.00, 165.00 18.81 S 168.53 20.07, 170.00 19.77 S 173.50 16.86, 175.00 16.78 S 178.73 18.39, 180.00 19.19 S 183.58 22.63, 185.00 23.11 S 188.60 23.09, 190.00 22.54 S 193.66 19.83, 195.00 19.17 S 198.51 17.75, 200.00 17.60 S 203.51 17.99, 205.00 18.15"
        fill="none">
        <animate attributeName="stroke-dashoffset"
            from="220.06264306814026" to="0" dur="2.2s"/>
        <animate attributeName="stroke-dasharray"
            from="220.06264306814026" to="220.06264306814026"/>
    </path>
    <circle r="4" cx="5" cy="46" fill="#3023AE"/>
    <circle r="4" cx="205" cy="18.150169085916016" fill="#C86DD7" opacity="0">
        <animate attributeName="opacity"
            from="0" to="1" dur="0.1s" begin="2.2s" fill="freeze"/>
    </circle>
</svg>