<svg width="200" height="50" viewBox="0 0 210 50" xmlns="http://www.w3.org/2000/svg">
    <!-- 4453 stargazers -->
    <!-- created at Thu Apr 02 2026 08:55:54 GMT+0000 (Coordinated Universal Time) -->
    <defs>
        <linearGradient id="stroke" x1="0%" y1="0%" x2="100%" y2="0%">
            <stop stop-color="#3023AE" offset="0%"/>
            <stop stop-color="#C86DD7" offset="100%"/>
        </linearGradient>
    </defs>
    <path stroke="url(#stroke)"
        stroke-width="3"
        stroke-linejoin="round"
        stroke-linecap="round"
        d="M5.00 46.0001 C 6.41 45.48, 8.71 44.90, 10.00 44.14 S 13.69 40.77, 15.00 40.04 S 18.64 39.13, 20.00 38.50 S 23.58 35.92, 25.00 35.42 S 28.51 35.19, 30.00 34.99 S 33.54 34.44, 35.00 34.09 S 38.59 33.12, 40.00 32.61 S 43.52 30.77, 45.00 30.51 S 48.51 30.77, 50.00 30.90 S 53.52 31.61, 55.00 31.38 S 58.50 29.47, 60.00 29.37 S 63.51 30.89, 65.00 30.73 S 68.59 28.81, 70.00 28.29 S 73.50 27.13, 75.00 27.10 S 78.57 28.55, 80.00 28.10 S 83.60 24.42, 85.00 23.90 S 88.51 24.51, 90.00 24.35 S 93.51 22.66, 95.00 22.81 S 98.55 25.77, 100.00 25.39 S 103.69 20.99, 105.00 20.26 S 108.53 20.10, 110.00 19.81 S 113.51 18.48, 115.00 18.28 S 118.58 18.03, 120.00 18.52 S 123.52 21.58, 125.00 21.79 S 128.64 20.59, 130.00 19.95 S 133.60 17.65, 135.00 17.12 S 138.50 16.09, 140.00 16.18 S 143.50 17.75, 145.00 17.72 S 148.50 15.93, 150.00 16.00 S 153.54 17.86, 155.00 18.22 S 158.53 18.17, 160.00 18.48 S 163.50 20.43, 165.00 20.33 S 168.56 18.25, 170.00 17.81 S 173.51 17.45, 175.00 17.32 S 178.51 16.78, 180.00 16.94 S 183.64 17.78, 185.00 18.43 S 188.53 21.39, 190.00 21.67 S 193.58 20.84, 195.00 20.35 S 198.59 18.71, 200.00 18.21 S 203.56 17.22, 205.00 16.81"
        fill="none">
        <animate attributeName="stroke-dashoffset"
            from="217.18115060413234" to="0" dur="2.2s"/>
        <animate attributeName="stroke-dasharray"
            from="217.18115060413234" to="217.18115060413234"/>
    </path>
    <circle r="4" cx="5" cy="46" fill="#3023AE"/>
    <circle r="4" cx="205" cy="16.810950927467648" fill="#C86DD7" opacity="0">
        <animate attributeName="opacity"
            from="0" to="1" dur="0.1s" begin="2.2s" fill="freeze"/>
    </circle>
</svg>