<svg width="200" height="50" viewBox="0 0 210 50" xmlns="http://www.w3.org/2000/svg">
    <!-- 4385 stargazers -->
    <!-- created at Sun Mar 15 2026 08:48:10 GMT+0000 (Coordinated Universal Time) -->
    <defs>
        <linearGradient id="stroke" x1="0%" y1="0%" x2="100%" y2="0%">
            <stop stop-color="#3023AE" offset="0%"/>
            <stop stop-color="#C86DD7" offset="100%"/>
        </linearGradient>
    </defs>
    <path stroke="url(#stroke)"
        stroke-width="3"
        stroke-linejoin="round"
        stroke-linecap="round"
        d="M5.00 46.0001 C 6.41 45.48, 8.71 44.93, 10.00 44.17 S 13.67 40.85, 15.00 40.15 S 18.63 39.51, 20.00 38.89 S 23.58 36.11, 25.00 35.62 S 28.52 35.62, 30.00 35.41 S 33.54 34.51, 35.00 34.17 S 38.57 33.52, 40.00 33.08 S 43.53 31.35, 45.00 31.07 S 48.51 31.06, 50.00 31.18 S 53.51 32.08, 55.00 31.90 S 58.52 30.25, 60.00 30.00 S 63.50 30.32, 65.00 30.23 S 68.55 29.78, 70.00 29.39 S 73.50 27.65, 75.00 27.53 S 78.53 28.89, 80.00 28.62 S 83.65 26.34, 85.00 25.68 S 88.50 23.63, 90.00 23.70 S 93.50 26.18, 95.00 26.13 S 98.59 23.92, 100.00 23.42 S 103.63 23.19, 105.00 22.58 S 108.55 19.33, 110.00 18.94 S 113.50 19.79, 115.00 19.88 S 118.51 19.35, 120.00 19.55 S 123.53 20.99, 125.00 21.27 S 128.56 21.85, 130.00 21.42 S 133.63 18.92, 135.00 18.30 S 138.50 16.90, 140.00 16.93 S 143.51 18.59, 145.00 18.45 S 148.50 16.07, 150.00 16.00 S 153.60 17.47, 155.00 18.01 S 158.52 19.65, 160.00 19.89 S 163.50 19.54, 165.00 19.63 S 168.51 20.59, 170.00 20.47 S 173.61 19.35, 175.00 18.79 S 178.51 16.59, 180.00 16.47 S 183.66 17.28, 185.00 17.96 S 188.63 20.94, 190.00 21.56 S 193.54 22.79, 195.00 22.44 S 198.68 19.86, 200.00 19.14 S 203.62 17.57, 205.00 16.97"
        fill="none">
        <animate attributeName="stroke-dashoffset"
            from="215.95973012457094" to="0" dur="2.2s"/>
        <animate attributeName="stroke-dasharray"
            from="215.95973012457094" to="215.95973012457094"/>
    </path>
    <circle r="4" cx="5" cy="46" fill="#3023AE"/>
    <circle r="4" cx="205" cy="16.972092071410803" fill="#C86DD7" opacity="0">
        <animate attributeName="opacity"
            from="0" to="1" dur="0.1s" begin="2.2s" fill="freeze"/>
    </circle>
</svg>