<svg width="200" height="50" viewBox="0 0 210 50" xmlns="http://www.w3.org/2000/svg">
    <!-- 4434 stargazers -->
    <!-- created at Fri Mar 27 2026 08:55:00 GMT+0000 (Coordinated Universal Time) -->
    <defs>
        <linearGradient id="stroke" x1="0%" y1="0%" x2="100%" y2="0%">
            <stop stop-color="#3023AE" offset="0%"/>
            <stop stop-color="#C86DD7" offset="100%"/>
        </linearGradient>
    </defs>
    <path stroke="url(#stroke)"
        stroke-width="3"
        stroke-linejoin="round"
        stroke-linecap="round"
        d="M5.00 46.0001 C 6.41 45.48, 8.71 44.92, 10.00 44.16 S 13.68 40.83, 15.00 40.11 S 18.64 39.30, 20.00 38.68 S 23.59 36.06, 25.00 35.56 S 28.51 35.31, 30.00 35.13 S 33.54 34.64, 35.00 34.31 S 38.59 33.42, 40.00 32.92 S 43.52 31.04, 45.00 30.78 S 48.50 31.07, 50.00 31.16 S 53.52 31.63, 55.00 31.40 S 58.50 29.64, 60.00 29.58 S 63.51 31.17, 65.00 31.01 S 68.59 29.03, 70.00 28.52 S 73.50 27.48, 75.00 27.42 S 78.55 28.51, 80.00 28.14 S 83.60 25.43, 85.00 24.89 S 88.52 24.52, 90.00 24.29 S 93.51 23.17, 95.00 23.36 S 98.54 25.92, 100.00 25.56 S 103.69 21.65, 105.00 20.91 S 108.52 20.12, 110.00 19.90 S 113.52 19.61, 115.00 19.38 S 118.56 17.93, 120.00 18.36 S 123.52 22.13, 125.00 22.40 S 128.65 20.84, 130.00 20.19 S 133.59 18.09, 135.00 17.58 S 138.50 16.44, 140.00 16.56 S 143.50 18.46, 145.00 18.38 S 148.50 15.91, 150.00 16.00 S 153.54 18.64, 155.00 19.00 S 158.53 18.18, 160.00 18.50 S 163.51 21.30, 165.00 21.15 S 168.54 17.83, 170.00 17.50 S 173.51 18.99, 175.00 18.86 S 178.50 16.73, 180.00 16.62 S 183.70 17.40, 185.00 18.15 S 188.59 21.91, 190.00 22.43 S 193.59 22.35, 195.00 21.84 S 198.70 19.59, 200.00 18.84 S 203.69 16.76, 205.00 16.02"
        fill="none">
        <animate attributeName="stroke-dashoffset"
            from="220.23628011033466" to="0" dur="2.2s"/>
        <animate attributeName="stroke-dasharray"
            from="220.23628011033466" to="220.23628011033466"/>
    </path>
    <circle r="4" cx="5" cy="46" fill="#3023AE"/>
    <circle r="4" cx="205" cy="16.024642478094464" fill="#C86DD7" opacity="0">
        <animate attributeName="opacity"
            from="0" to="1" dur="0.1s" begin="2.2s" fill="freeze"/>
    </circle>
</svg>