<svg width="200" height="50" viewBox="0 0 210 50" xmlns="http://www.w3.org/2000/svg">
    <!-- 4606 stargazers -->
    <!-- created at Mon May 11 2026 06:02:37 GMT+0000 (Coordinated Universal Time) -->
    <defs>
        <linearGradient id="stroke" x1="0%" y1="0%" x2="100%" y2="0%">
            <stop stop-color="#3023AE" offset="0%"/>
            <stop stop-color="#C86DD7" offset="100%"/>
        </linearGradient>
    </defs>
    <path stroke="url(#stroke)"
        stroke-width="3"
        stroke-linejoin="round"
        stroke-linecap="round"
        d="M5.00 46.0001 C 6.39 45.43, 8.71 44.71, 10.00 43.96 S 13.67 40.85, 15.00 40.15 S 18.65 39.38, 20.00 38.72 S 23.59 35.75, 25.00 35.24 S 28.51 35.23, 30.00 35.05 S 33.55 34.42, 35.00 34.03 S 38.57 32.84, 40.00 32.38 S 43.51 31.00, 45.00 30.80 S 48.50 30.97, 50.00 31.03 S 53.52 31.46, 55.00 31.25 S 58.50 29.68, 60.00 29.61 S 63.53 31.02, 65.00 30.75 S 68.59 28.24, 70.00 27.74 S 73.51 27.35, 75.00 27.21 S 78.55 27.17, 80.00 26.77 S 83.52 24.69, 85.00 24.47 S 88.52 25.49, 90.00 25.26 S 93.54 23.28, 95.00 22.92 S 98.61 23.38, 100.00 22.82 S 103.59 19.38, 105.00 18.88 S 108.50 19.23, 110.00 19.25 S 113.56 18.62, 115.00 19.05 S 118.51 22.02, 120.00 22.19 S 123.63 20.74, 125.00 20.14 S 128.59 18.30, 130.00 17.79 S 133.50 16.48, 135.00 16.52 S 138.50 18.10, 140.00 18.03 S 143.51 15.85, 145.00 16.00 S 148.56 18.63, 150.00 19.04 S 153.53 18.55, 155.00 18.84 S 158.50 21.15, 160.00 21.05 S 163.64 18.80, 165.00 18.17 S 168.50 16.49, 170.00 16.37 S 173.65 16.75, 175.00 17.40 S 178.62 20.61, 180.00 21.21 S 183.54 22.04, 185.00 21.71 S 188.66 19.66, 190.00 18.99 S 193.50 16.71, 195.00 16.65 S 198.57 18.15, 200.00 18.60 S 203.54 19.45, 205.00 19.80"
        fill="none">
        <animate attributeName="stroke-dashoffset"
            from="216.6608211267076" to="0" dur="2.2s"/>
        <animate attributeName="stroke-dasharray"
            from="216.6608211267076" to="216.6608211267076"/>
    </path>
    <circle r="4" cx="5" cy="46" fill="#3023AE"/>
    <circle r="4" cx="205" cy="19.804674000512954" fill="#C86DD7" opacity="0">
        <animate attributeName="opacity"
            from="0" to="1" dur="0.1s" begin="2.2s" fill="freeze"/>
    </circle>
</svg>