<svg width="200" height="50" viewBox="0 0 210 50" xmlns="http://www.w3.org/2000/svg">
    <!-- 17981 stargazers -->
    <!-- created at Wed Mar 04 2026 18:29:42 GMT+0000 (Coordinated Universal Time) -->
    <defs>
        <linearGradient id="stroke" x1="0%" y1="0%" x2="100%" y2="0%">
            <stop stop-color="#3023AE" offset="0%"/>
            <stop stop-color="#C86DD7" offset="100%"/>
        </linearGradient>
    </defs>
    <path stroke="url(#stroke)"
        stroke-width="3"
        stroke-linejoin="round"
        stroke-linecap="round"
        d="M5.00 46.0001 C 6.40 45.46, 8.65 44.72, 10.00 44.06 S 14.02 42.23, 15.00 41.10 S 18.83 33.35, 20.00 32.42 S 23.52 33.35, 25.00 33.13 S 28.62 31.54, 30.00 30.95 S 33.55 29.22, 35.00 28.84 S 38.63 28.92, 40.00 28.32 S 43.60 24.95, 45.00 24.42 S 48.50 24.58, 50.00 24.57 S 53.51 24.48, 55.00 24.33 S 58.52 23.81, 60.00 23.59 S 63.72 23.58, 65.00 22.79 S 68.53 17.75, 70.00 17.44 S 73.53 20.36, 75.00 20.67 S 78.64 20.15, 80.00 19.52 S 83.50 16.11, 85.00 16.00 S 88.55 18.40, 90.00 18.80 S 93.51 18.62, 95.00 18.77 S 98.50 19.74, 100.00 19.81 S 103.52 19.01, 105.00 19.22 S 108.57 20.77, 110.00 21.23 S 113.53 22.12, 115.00 22.43 S 118.50 23.28, 120.00 23.31 S 123.69 23.35, 125.00 22.63 S 128.70 18.57, 130.00 17.82 S 133.58 16.32, 135.00 16.80 S 138.72 20.41, 140.00 21.20 S 143.51 23.08, 145.00 22.94 S 148.57 20.70, 150.00 20.23 S 153.52 19.42, 155.00 19.67 S 158.58 22.37, 160.00 21.88 S 163.52 16.50, 165.00 16.24 S 168.66 19.45, 170.00 20.12 S 173.50 21.20, 175.00 21.24 S 178.50 20.47, 180.00 20.41 S 183.53 20.57, 185.00 20.85 S 188.51 22.16, 190.00 22.37 S 193.50 22.34, 195.00 22.28 S 198.51 21.81, 200.00 21.95 S 203.55 22.83, 205.00 23.20"
        fill="none">
        <animate attributeName="stroke-dashoffset"
            from="226.01993150400716" to="0" dur="2.2s"/>
        <animate attributeName="stroke-dasharray"
            from="226.01993150400716" to="226.01993150400716"/>
    </path>
    <circle r="4" cx="5" cy="46" fill="#3023AE"/>
    <circle r="4" cx="205" cy="23.19859153535666" fill="#C86DD7" opacity="0">
        <animate attributeName="opacity"
            from="0" to="1" dur="0.1s" begin="2.2s" fill="freeze"/>
    </circle>
</svg>