<svg width="200" height="50" viewBox="0 0 210 50" xmlns="http://www.w3.org/2000/svg">
    <!-- 260 stargazers -->
    <!-- created at Sun Apr 19 2026 09:13:55 GMT+0000 (Coordinated Universal Time) -->
    <defs>
        <linearGradient id="stroke" x1="0%" y1="0%" x2="100%" y2="0%">
            <stop stop-color="#3023AE" offset="0%"/>
            <stop stop-color="#C86DD7" offset="100%"/>
        </linearGradient>
    </defs>
    <path stroke="url(#stroke)"
        stroke-width="3"
        stroke-linejoin="round"
        stroke-linecap="round"
        d="M5.00 46.0001 C 5.28 44.53, 9.42 21.41, 10.00 20.03 S 13.50 22.05, 15.00 22.06 S 18.50 20.02, 20.00 20.12 S 23.51 22.84, 25.00 22.70 S 28.58 18.71, 30.00 19.18 S 33.97 24.91, 35.00 26.00 S 38.76 30.59, 40.00 29.75 S 43.81 20.06, 45.00 19.15 S 48.69 21.32, 50.00 22.06 S 53.75 23.99, 55.00 24.81 S 58.67 27.97, 60.00 28.66 S 63.80 30.87, 65.00 29.98 S 68.51 21.03, 70.00 21.22 S 73.67 30.58, 75.00 31.28 S 78.88 27.48, 80.00 26.47 S 83.51 22.12, 85.00 22.29 S 88.80 26.74, 90.00 27.64 S 93.52 29.47, 95.00 29.72 S 98.82 30.27, 100.00 29.35 S 103.58 22.43, 105.00 21.95 S 109.12 24.74, 110.00 25.96 S 113.92 34.74, 115.00 35.78 S 119.32 36.92, 120.00 35.58 S 124.21 17.27, 125.00 16.00 S 128.83 18.62, 130.00 19.56 S 133.61 23.47, 135.00 24.04 S 138.54 23.34, 140.00 23.68 S 143.98 25.26, 145.00 26.36 S 149.32 33.15, 150.00 34.48 S 153.50 46.05, 155.00 46.00 S 158.50 34.14, 160.00 34.14 S 163.50 46.05, 165.00 46.00 S 168.50 33.80, 170.00 33.80 S 173.50 46.05, 175.00 46.00 S 179.38 34.84, 180.00 33.48 S 183.69 24.77, 185.00 24.04 S 188.88 26.84, 190.00 27.84 S 193.66 32.33, 195.00 33.00 S 199.09 31.66, 200.00 32.85 S 204.47 44.60, 205.00 46.00"
        fill="none">
        <animate attributeName="stroke-dashoffset"
            from="362.93513861073376" to="0" dur="2.2s"/>
        <animate attributeName="stroke-dasharray"
            from="362.93513861073376" to="362.93513861073376"/>
    </path>
    <circle r="4" cx="5" cy="46" fill="#3023AE"/>
    <circle r="4" cx="205" cy="46" fill="#C86DD7" opacity="0">
        <animate attributeName="opacity"
            from="0" to="1" dur="0.1s" begin="2.2s" fill="freeze"/>
    </circle>
</svg>