<svg width="200" height="50" viewBox="0 0 210 50" xmlns="http://www.w3.org/2000/svg">
    <!-- 260 stargazers -->
    <!-- created at Wed Mar 25 2026 13:35:11 GMT+0000 (Coordinated Universal Time) -->
    <defs>
        <linearGradient id="stroke" x1="0%" y1="0%" x2="100%" y2="0%">
            <stop stop-color="#3023AE" offset="0%"/>
            <stop stop-color="#C86DD7" offset="100%"/>
        </linearGradient>
    </defs>
    <path stroke="url(#stroke)"
        stroke-width="3"
        stroke-linejoin="round"
        stroke-linecap="round"
        d="M5.00 46.0001 C 5.27 44.52, 9.45 19.70, 10.00 18.30 S 13.50 20.46, 15.00 20.47 S 18.64 17.77, 20.00 18.40 S 23.54 25.47, 25.00 25.12 S 28.52 16.22, 30.00 16.00 S 34.00 22.51, 35.00 23.63 S 38.73 28.07, 40.00 27.28 S 43.63 17.97, 45.00 17.37 S 48.53 22.60, 50.00 22.91 S 53.75 18.68, 55.00 19.51 S 58.91 28.43, 60.00 29.46 S 63.76 29.75, 65.00 28.91 S 68.57 23.15, 70.00 22.70 S 73.78 24.86, 75.00 25.73 S 78.76 30.71, 80.00 29.87 S 83.82 19.90, 85.00 18.97 S 88.92 20.97, 90.00 22.02 S 94.12 27.43, 95.00 28.64 S 98.72 36.53, 100.00 35.75 S 103.84 23.54, 105.00 22.59 S 108.51 27.63, 110.00 27.49 S 114.29 20.31, 115.00 21.63 S 118.58 46.47, 120.00 46.00 S 124.46 19.69, 125.00 18.29 S 128.52 20.03, 130.00 20.26 S 133.51 19.95, 135.00 19.82 S 138.89 18.38, 140.00 19.39 S 143.68 28.19, 145.00 28.90 S 148.64 24.10, 150.00 24.73 S 154.36 32.18, 155.00 33.53 S 158.50 46.05, 160.00 46.00 S 163.50 33.17, 165.00 33.17 S 168.50 46.05, 170.00 46.00 S 173.50 32.82, 175.00 32.82 S 178.50 46.05, 180.00 46.00 S 184.12 33.69, 185.00 32.48 S 189.14 33.53, 190.00 32.31 S 193.50 18.33, 195.00 18.28 S 199.11 30.77, 200.00 31.98 S 203.50 31.86, 205.00 31.82"
        fill="none">
        <animate attributeName="stroke-dashoffset"
            from="424.7137667451554" to="0" dur="2.2s"/>
        <animate attributeName="stroke-dasharray"
            from="424.7137667451554" to="424.7137667451554"/>
    </path>
    <circle r="4" cx="5" cy="46" fill="#3023AE"/>
    <circle r="4" cx="205" cy="31.815881850522846" fill="#C86DD7" opacity="0">
        <animate attributeName="opacity"
            from="0" to="1" dur="0.1s" begin="2.2s" fill="freeze"/>
    </circle>
</svg>