<svg width="200" height="50" viewBox="0 0 210 50" xmlns="http://www.w3.org/2000/svg">
    <!-- 260 stargazers -->
    <!-- created at Sat Apr 25 2026 18:10:35 GMT+0000 (Coordinated Universal Time) -->
    <defs>
        <linearGradient id="stroke" x1="0%" y1="0%" x2="100%" y2="0%">
            <stop stop-color="#3023AE" offset="0%"/>
            <stop stop-color="#C86DD7" offset="100%"/>
        </linearGradient>
    </defs>
    <path stroke="url(#stroke)"
        stroke-width="3"
        stroke-linejoin="round"
        stroke-linecap="round"
        d="M5.00 46.0001 C 5.28 44.53, 9.42 21.41, 10.00 20.03 S 13.50 22.05, 15.00 22.06 S 18.50 20.02, 20.00 20.12 S 23.51 22.84, 25.00 22.70 S 28.58 18.71, 30.00 19.18 S 33.97 24.91, 35.00 26.00 S 38.76 30.59, 40.00 29.75 S 43.81 20.06, 45.00 19.15 S 48.69 21.32, 50.00 22.06 S 53.66 24.15, 55.00 24.81 S 58.79 26.12, 60.00 27.00 S 63.78 32.99, 65.00 32.12 S 68.57 20.33, 70.00 19.88 S 73.75 28.18, 75.00 29.00 S 78.56 26.91, 80.00 26.47 S 83.51 25.79, 85.00 25.96 S 88.60 27.11, 90.00 27.64 S 93.57 30.17, 95.00 29.72 S 98.58 24.99, 100.00 24.51 S 103.52 26.15, 105.00 26.36 S 108.91 24.93, 110.00 25.96 S 113.68 35.08, 115.00 35.78 S 119.32 32.61, 120.00 31.27 S 123.91 17.03, 125.00 16.00 S 128.68 21.14, 130.00 21.86 S 133.65 20.80, 135.00 21.45 S 138.65 26.01, 140.00 26.67 S 143.82 25.43, 145.00 26.36 S 149.32 33.15, 150.00 34.48 S 153.50 46.05, 155.00 46.00 S 159.04 35.29, 160.00 34.14 S 164.03 32.82, 165.00 33.97 S 169.04 44.85, 170.00 46.00 S 174.26 47.31, 175.00 46.00 S 179.38 29.66, 180.00 28.29 S 183.65 23.38, 185.00 24.04 S 188.59 32.65, 190.00 33.16 S 194.08 26.44, 195.00 27.62 S 199.28 44.68, 200.00 46.00 S 203.50 46.00, 205.00 46.00"
        fill="none">
        <animate attributeName="stroke-dashoffset"
            from="352.073179628017" to="0" dur="2.2s"/>
        <animate attributeName="stroke-dasharray"
            from="352.073179628017" to="352.073179628017"/>
    </path>
    <circle r="4" cx="5" cy="46" fill="#3023AE"/>
    <circle r="4" cx="205" cy="46" fill="#C86DD7" opacity="0">
        <animate attributeName="opacity"
            from="0" to="1" dur="0.1s" begin="2.2s" fill="freeze"/>
    </circle>
</svg>