<svg width="200" height="50" viewBox="0 0 210 50" xmlns="http://www.w3.org/2000/svg">
    <!-- 260 stargazers -->
    <!-- created at Sat Mar 28 2026 21:22:57 GMT+0000 (Coordinated Universal Time) -->
    <defs>
        <linearGradient id="stroke" x1="0%" y1="0%" x2="100%" y2="0%">
            <stop stop-color="#3023AE" offset="0%"/>
            <stop stop-color="#C86DD7" offset="100%"/>
        </linearGradient>
    </defs>
    <path stroke="url(#stroke)"
        stroke-width="3"
        stroke-linejoin="round"
        stroke-linecap="round"
        d="M5.00 46.0001 C 5.26 44.52, 9.46 19.05, 10.00 17.65 S 13.50 19.86, 15.00 19.87 S 18.60 17.21, 20.00 17.75 S 23.52 24.02, 25.00 23.76 S 28.52 16.25, 30.00 16.00 S 33.98 20.98, 35.00 22.09 S 38.63 27.44, 40.00 26.84 S 43.70 18.43, 45.00 17.69 S 48.54 20.73, 50.00 21.09 S 53.83 19.21, 55.00 20.14 S 58.85 28.11, 60.00 29.07 S 63.86 29.49, 65.00 28.51 S 68.51 20.66, 70.00 20.50 S 73.88 26.44, 75.00 27.45 S 78.89 30.50, 80.00 29.49 S 83.83 19.28, 85.00 18.34 S 88.93 20.40, 90.00 21.45 S 93.92 27.19, 95.00 28.23 S 98.59 31.68, 100.00 31.17 S 103.61 25.14, 105.00 24.57 S 108.58 27.55, 110.00 27.06 S 113.80 20.15, 115.00 21.06 S 118.51 34.77, 120.00 34.63 S 124.17 21.36, 125.00 20.11 S 128.51 19.79, 130.00 19.65 S 133.51 19.34, 135.00 19.20 S 138.68 18.05, 140.00 18.76 S 143.91 23.53, 145.00 24.56 S 148.87 27.24, 150.00 28.22 S 154.26 31.93, 155.00 33.24 S 158.50 46.06, 160.00 46.00 S 164.10 34.07, 165.00 32.87 S 169.09 31.50, 170.00 32.69 S 174.10 44.80, 175.00 46.00 S 179.12 47.22, 180.00 46.00 S 184.43 33.55, 185.00 32.16 S 188.73 22.52, 190.00 21.73 S 193.94 24.88, 195.00 25.94 S 198.69 30.92, 200.00 31.65 S 203.50 31.53, 205.00 31.48"
        fill="none">
        <animate attributeName="stroke-dashoffset"
            from="355.4571293070142" to="0" dur="2.2s"/>
        <animate attributeName="stroke-dasharray"
            from="355.4571293070142" to="355.4571293070142"/>
    </path>
    <circle r="4" cx="5" cy="46" fill="#3023AE"/>
    <circle r="4" cx="205" cy="31.48209222583406" fill="#C86DD7" opacity="0">
        <animate attributeName="opacity"
            from="0" to="1" dur="0.1s" begin="2.2s" fill="freeze"/>
    </circle>
</svg>