<svg width="200" height="50" viewBox="0 0 210 50" xmlns="http://www.w3.org/2000/svg">
    <!-- 260 stargazers -->
    <!-- created at Tue May 12 2026 08:57:40 GMT+0000 (Coordinated Universal Time) -->
    <defs>
        <linearGradient id="stroke" x1="0%" y1="0%" x2="100%" y2="0%">
            <stop stop-color="#3023AE" offset="0%"/>
            <stop stop-color="#C86DD7" offset="100%"/>
        </linearGradient>
    </defs>
    <path stroke="url(#stroke)"
        stroke-width="3"
        stroke-linejoin="round"
        stroke-linecap="round"
        d="M5.00 46.0001 C 5.26 44.52, 9.46 19.30, 10.00 17.90 S 13.50 20.09, 15.00 20.10 S 18.50 18.11, 20.00 18.00 S 23.50 19.28, 25.00 19.35 S 28.66 17.80, 30.00 18.47 S 33.94 23.30, 35.00 24.36 S 38.85 29.38, 40.00 28.42 S 43.85 16.96, 45.00 16.00 S 48.78 19.24, 50.00 20.10 S 53.78 22.21, 55.00 23.08 S 58.69 26.51, 60.00 27.24 S 63.83 29.61, 65.00 28.67 S 68.51 19.35, 70.00 19.20 S 73.59 27.10, 75.00 27.61 S 78.79 23.74, 80.00 22.86 S 83.57 19.89, 85.00 20.35 S 89.46 24.74, 90.00 26.13 S 93.69 46.73, 95.00 46.00 S 99.28 21.85, 100.00 20.53 S 103.51 27.42, 105.00 27.60 S 108.79 20.87, 110.00 21.76 S 113.58 35.42, 115.00 34.94 S 119.03 19.55, 120.00 18.40 S 123.51 23.20, 125.00 23.05 S 128.50 17.52, 130.00 17.40 S 133.63 21.63, 135.00 22.24 S 138.74 21.04, 140.00 21.85 S 144.43 27.26, 145.00 28.65 S 148.64 45.36, 150.00 46.00 S 153.50 33.35, 155.00 33.35 S 158.50 46.06, 160.00 46.00 S 163.50 32.99, 165.00 32.99 S 168.50 46.05, 170.00 46.00 S 174.11 33.84, 175.00 32.63 S 179.13 33.68, 180.00 32.45 S 183.50 18.61, 185.00 18.56 S 189.10 30.91, 190.00 32.11 S 194.12 30.72, 195.00 31.94 S 199.13 44.78, 200.00 46.00 S 203.50 46.00, 205.00 46.00"
        fill="none">
        <animate attributeName="stroke-dashoffset"
            from="424.4683916498856" to="0" dur="2.2s"/>
        <animate attributeName="stroke-dasharray"
            from="424.4683916498856" to="424.4683916498856"/>
    </path>
    <circle r="4" cx="5" cy="46" fill="#3023AE"/>
    <circle r="4" cx="205" cy="46" fill="#C86DD7" opacity="0">
        <animate attributeName="opacity"
            from="0" to="1" dur="0.1s" begin="2.2s" fill="freeze"/>
    </circle>
</svg>