<svg width="200" height="50" viewBox="0 0 210 50" xmlns="http://www.w3.org/2000/svg">
    <!-- 260 stargazers -->
    <!-- created at Sun Apr 05 2026 18:26:02 GMT+0000 (Coordinated Universal Time) -->
    <defs>
        <linearGradient id="stroke" x1="0%" y1="0%" x2="100%" y2="0%">
            <stop stop-color="#3023AE" offset="0%"/>
            <stop stop-color="#C86DD7" offset="100%"/>
        </linearGradient>
    </defs>
    <path stroke="url(#stroke)"
        stroke-width="3"
        stroke-linejoin="round"
        stroke-linecap="round"
        d="M5.00 46.0001 C 5.26 44.52, 9.47 18.43, 10.00 17.03 S 13.50 19.28, 15.00 19.30 S 18.54 16.80, 20.00 17.13 S 23.51 21.74, 25.00 21.58 S 28.50 16.08, 30.00 16.08 S 34.03 20.42, 35.00 21.56 S 38.69 28.59, 40.00 27.87 S 43.79 16.94, 45.00 16.05 S 48.65 19.88, 50.00 20.54 S 53.84 19.98, 55.00 20.93 S 58.78 27.82, 60.00 28.70 S 63.87 29.12, 65.00 28.13 S 68.51 20.11, 70.00 19.94 S 73.62 26.45, 75.00 27.04 S 78.69 24.94, 80.00 24.22 S 83.58 21.99, 85.00 21.52 S 88.73 20.11, 90.00 20.91 S 93.94 26.78, 95.00 27.84 S 98.73 31.64, 100.00 30.84 S 103.78 22.39, 105.00 21.51 S 108.64 23.00, 110.00 23.64 S 113.98 25.16, 115.00 26.25 S 118.90 35.40, 120.00 34.38 S 124.06 18.19, 125.00 17.02 S 128.51 22.07, 130.00 21.92 S 133.50 16.12, 135.00 16.00 S 138.64 20.46, 140.00 21.10 S 143.76 19.86, 145.00 20.70 S 149.45 26.44, 150.00 27.83 S 153.65 45.34, 155.00 46.00 S 158.50 32.77, 160.00 32.77 S 163.50 46.06, 165.00 46.00 S 168.50 32.40, 170.00 32.40 S 173.50 46.05, 175.00 46.00 S 179.13 33.26, 180.00 32.03 S 183.98 32.96, 185.00 31.85 S 188.73 22.00, 190.00 21.19 S 193.95 24.43, 195.00 25.50 S 199.34 29.98, 200.00 31.33 S 204.52 44.58, 205.00 46.00"
        fill="none">
        <animate attributeName="stroke-dashoffset"
            from="386.88494071284737" to="0" dur="2.2s"/>
        <animate attributeName="stroke-dasharray"
            from="386.88494071284737" to="386.88494071284737"/>
    </path>
    <circle r="4" cx="5" cy="46" fill="#3023AE"/>
    <circle r="4" cx="205" cy="46" fill="#C86DD7" opacity="0">
        <animate attributeName="opacity"
            from="0" to="1" dur="0.1s" begin="2.2s" fill="freeze"/>
    </circle>
</svg>