<svg width="200" height="50" viewBox="0 0 210 50" xmlns="http://www.w3.org/2000/svg">
    <!-- 260 stargazers -->
    <!-- created at Tue Mar 31 2026 22:32:27 GMT+0000 (Coordinated Universal Time) -->
    <defs>
        <linearGradient id="stroke" x1="0%" y1="0%" x2="100%" y2="0%">
            <stop stop-color="#3023AE" offset="0%"/>
            <stop stop-color="#C86DD7" offset="100%"/>
        </linearGradient>
    </defs>
    <path stroke="url(#stroke)"
        stroke-width="3"
        stroke-linejoin="round"
        stroke-linecap="round"
        d="M5.00 46.0001 C 5.26 44.52, 9.46 19.05, 10.00 17.65 S 13.50 19.86, 15.00 19.87 S 18.57 17.31, 20.00 17.75 S 23.52 23.18, 25.00 22.92 S 28.51 16.12, 30.00 16.00 S 34.05 20.92, 35.00 22.09 S 38.68 28.97, 40.00 28.26 S 43.78 17.57, 45.00 16.69 S 48.65 20.44, 50.00 21.09 S 53.83 20.53, 55.00 21.47 S 58.77 28.21, 60.00 29.07 S 63.86 29.49, 65.00 28.51 S 68.51 20.66, 70.00 20.50 S 73.88 26.44, 75.00 27.45 S 78.89 30.50, 80.00 29.49 S 83.83 19.28, 85.00 18.34 S 88.93 20.40, 90.00 21.45 S 93.92 27.19, 95.00 28.23 S 98.59 31.68, 100.00 31.17 S 103.61 25.14, 105.00 24.57 S 108.58 27.55, 110.00 27.06 S 113.80 20.15, 115.00 21.06 S 118.58 35.12, 120.00 34.63 S 124.05 18.80, 125.00 17.64 S 128.51 22.58, 130.00 22.44 S 133.50 16.77, 135.00 16.65 S 138.64 21.01, 140.00 21.64 S 144.03 20.10, 145.00 21.24 S 149.04 32.28, 150.00 33.43 S 153.50 33.30, 155.00 33.24 S 159.07 31.87, 160.00 33.05 S 163.50 46.05, 165.00 46.00 S 168.50 32.69, 170.00 32.69 S 174.10 44.80, 175.00 46.00 S 179.32 47.34, 180.00 46.00 S 184.43 27.81, 185.00 26.43 S 188.68 21.02, 190.00 21.73 S 193.94 30.76, 195.00 31.82 S 198.50 31.70, 200.00 31.65 S 203.50 31.53, 205.00 31.48"
        fill="none">
        <animate attributeName="stroke-dashoffset"
            from="372.12007342291633" to="0" dur="2.2s"/>
        <animate attributeName="stroke-dasharray"
            from="372.12007342291633" to="372.12007342291633"/>
    </path>
    <circle r="4" cx="5" cy="46" fill="#3023AE"/>
    <circle r="4" cx="205" cy="31.482092225834414" fill="#C86DD7" opacity="0">
        <animate attributeName="opacity"
            from="0" to="1" dur="0.1s" begin="2.2s" fill="freeze"/>
    </circle>
</svg>