<svg width="200" height="50" viewBox="0 0 210 50" xmlns="http://www.w3.org/2000/svg">
    <!-- 260 stargazers -->
    <!-- created at Sun Apr 12 2026 20:49:26 GMT+0000 (Coordinated Universal Time) -->
    <defs>
        <linearGradient id="stroke" x1="0%" y1="0%" x2="100%" y2="0%">
            <stop stop-color="#3023AE" offset="0%"/>
            <stop stop-color="#C86DD7" offset="100%"/>
        </linearGradient>
    </defs>
    <path stroke="url(#stroke)"
        stroke-width="3"
        stroke-linejoin="round"
        stroke-linecap="round"
        d="M5.00 46.0001 C 5.27 44.52, 9.45 19.63, 10.00 18.23 S 13.50 20.39, 15.00 20.41 S 18.51 18.12, 20.00 18.33 S 23.52 22.08, 25.00 21.83 S 28.56 16.21, 30.00 16.62 S 34.04 23.47, 35.00 24.62 S 38.79 29.51, 40.00 28.62 S 43.84 18.25, 45.00 17.30 S 48.72 19.63, 50.00 20.41 S 53.89 22.34, 55.00 23.35 S 58.69 28.69, 60.00 29.42 S 63.93 29.93, 65.00 28.87 S 68.51 19.31, 70.00 19.51 S 73.69 29.53, 75.00 30.26 S 78.92 26.16, 80.00 25.13 S 83.51 20.82, 85.00 20.66 S 88.83 23.12, 90.00 24.05 S 93.61 28.02, 95.00 28.60 S 98.72 28.98, 100.00 28.20 S 103.72 23.32, 105.00 22.53 S 109.06 20.87, 110.00 22.05 S 114.08 33.89, 115.00 35.07 S 119.30 36.19, 120.00 34.87 S 124.16 17.24, 125.00 16.00 S 128.51 20.01, 130.00 20.20 S 133.53 16.96, 135.00 17.25 S 139.02 21.00, 140.00 22.14 S 143.74 28.04, 145.00 28.85 S 149.24 27.29, 150.00 28.59 S 153.64 45.36, 155.00 46.00 S 158.50 33.32, 160.00 33.32 S 163.50 46.05, 165.00 46.00 S 168.50 32.96, 170.00 32.96 S 173.50 46.05, 175.00 46.00 S 179.11 33.82, 180.00 32.61 S 183.96 33.52, 185.00 32.44 S 188.72 23.01, 190.00 22.23 S 193.92 25.31, 195.00 26.35 S 199.32 30.61, 200.00 31.94 S 204.50 44.59, 205.00 46.00"
        fill="none">
        <animate attributeName="stroke-dashoffset"
            from="382.7388975688027" to="0" dur="2.2s"/>
        <animate attributeName="stroke-dasharray"
            from="382.7388975688027" to="382.7388975688027"/>
    </path>
    <circle r="4" cx="5" cy="46" fill="#3023AE"/>
    <circle r="4" cx="205" cy="46" fill="#C86DD7" opacity="0">
        <animate attributeName="opacity"
            from="0" to="1" dur="0.1s" begin="2.2s" fill="freeze"/>
    </circle>
</svg>