<svg width="200" height="50" viewBox="0 0 210 50" xmlns="http://www.w3.org/2000/svg">
    <!-- 260 stargazers -->
    <!-- created at Thu Apr 16 2026 07:10:51 GMT+0000 (Coordinated Universal Time) -->
    <defs>
        <linearGradient id="stroke" x1="0%" y1="0%" x2="100%" y2="0%">
            <stop stop-color="#3023AE" offset="0%"/>
            <stop stop-color="#C86DD7" offset="100%"/>
        </linearGradient>
    </defs>
    <path stroke="url(#stroke)"
        stroke-width="3"
        stroke-linejoin="round"
        stroke-linecap="round"
        d="M5.00 46.0001 C 5.27 44.52, 9.45 20.11, 10.00 18.72 S 13.50 20.84, 15.00 20.85 S 18.51 18.61, 20.00 18.81 S 23.52 22.50, 25.00 22.25 S 28.55 16.73, 30.00 17.13 S 34.03 23.85, 35.00 24.99 S 38.78 29.80, 40.00 28.93 S 43.83 18.74, 45.00 17.80 S 48.71 20.09, 50.00 20.86 S 53.88 22.75, 55.00 23.74 S 58.58 29.22, 60.00 29.71 S 63.93 28.23, 65.00 27.18 S 68.72 19.19, 70.00 19.98 S 73.59 32.87, 75.00 33.37 S 78.96 24.61, 80.00 23.53 S 83.51 22.81, 85.00 22.95 S 88.71 23.67, 90.00 24.43 S 93.61 28.33, 95.00 28.90 S 98.84 29.46, 100.00 28.51 S 103.59 21.24, 105.00 20.74 S 109.15 23.71, 110.00 24.95 S 113.95 34.20, 115.00 35.26 S 119.29 36.38, 120.00 35.06 S 124.30 17.85, 125.00 16.52 S 128.74 15.19, 130.00 16.00 S 133.75 22.11, 135.00 22.93 S 138.54 22.20, 140.00 22.55 S 144.01 24.24, 145.00 25.37 S 149.35 32.55, 150.00 33.90 S 153.50 46.05, 155.00 46.00 S 158.50 33.54, 160.00 33.54 S 163.50 46.05, 165.00 46.00 S 168.50 33.19, 170.00 33.19 S 173.50 46.05, 175.00 46.00 S 179.10 34.05, 180.00 32.85 S 184.12 33.89, 185.00 32.68 S 188.50 19.08, 190.00 19.03 S 194.09 31.16, 195.00 32.35 S 199.11 30.98, 200.00 32.19 S 204.49 44.59, 205.00 46.00"
        fill="none">
        <animate attributeName="stroke-dashoffset"
            from="388.0687851666258" to="0" dur="2.2s"/>
        <animate attributeName="stroke-dasharray"
            from="388.0687851666258" to="388.0687851666258"/>
    </path>
    <circle r="4" cx="5" cy="46" fill="#3023AE"/>
    <circle r="4" cx="205" cy="46" fill="#C86DD7" opacity="0">
        <animate attributeName="opacity"
            from="0" to="1" dur="0.1s" begin="2.2s" fill="freeze"/>
    </circle>
</svg>