<svg width="200" height="50" viewBox="0 0 210 50" xmlns="http://www.w3.org/2000/svg">
    <!-- 260 stargazers -->
    <!-- created at Sat May 09 2026 07:04:32 GMT+0000 (Coordinated Universal Time) -->
    <defs>
        <linearGradient id="stroke" x1="0%" y1="0%" x2="100%" y2="0%">
            <stop stop-color="#3023AE" offset="0%"/>
            <stop stop-color="#C86DD7" offset="100%"/>
        </linearGradient>
    </defs>
    <path stroke="url(#stroke)"
        stroke-width="3"
        stroke-linejoin="round"
        stroke-linecap="round"
        d="M5.00 46.0001 C 5.26 44.52, 9.46 19.30, 10.00 17.90 S 13.50 20.09, 15.00 20.10 S 18.50 18.11, 20.00 18.00 S 23.50 19.28, 25.00 19.35 S 28.66 17.80, 30.00 18.47 S 33.94 23.30, 35.00 24.36 S 38.85 29.38, 40.00 28.42 S 43.85 16.96, 45.00 16.00 S 48.86 19.13, 50.00 20.10 S 53.68 23.85, 55.00 24.56 S 58.61 24.88, 60.00 25.45 S 63.73 29.46, 65.00 28.67 S 68.51 19.35, 70.00 19.20 S 73.70 26.87, 75.00 27.61 S 78.89 25.88, 80.00 24.88 S 83.78 17.72, 85.00 18.58 S 89.09 30.76, 90.00 31.95 S 94.01 32.75, 95.00 31.62 S 98.61 21.09, 100.00 20.53 S 103.51 27.42, 105.00 27.60 S 108.79 20.87, 110.00 21.76 S 113.51 35.09, 115.00 34.94 S 119.15 22.04, 120.00 20.81 S 123.58 20.83, 125.00 20.34 S 128.53 17.11, 130.00 17.40 S 133.63 21.63, 135.00 22.24 S 138.74 21.04, 140.00 21.85 S 144.43 27.26, 145.00 28.65 S 148.64 45.36, 150.00 46.00 S 153.50 33.35, 155.00 33.35 S 158.50 46.06, 160.00 46.00 S 163.50 32.99, 165.00 32.99 S 168.50 46.05, 170.00 46.00 S 174.11 33.84, 175.00 32.63 S 178.96 33.53, 180.00 32.45 S 183.72 23.02, 185.00 22.24 S 188.92 25.31, 190.00 26.36 S 194.32 30.60, 195.00 31.94 S 199.13 44.78, 200.00 46.00 S 203.50 46.00, 205.00 46.00"
        fill="none">
        <animate attributeName="stroke-dashoffset"
            from="388.19736600252253" to="0" dur="2.2s"/>
        <animate attributeName="stroke-dasharray"
            from="388.19736600252253" to="388.19736600252253"/>
    </path>
    <circle r="4" cx="5" cy="46" fill="#3023AE"/>
    <circle r="4" cx="205" cy="46" fill="#C86DD7" opacity="0">
        <animate attributeName="opacity"
            from="0" to="1" dur="0.1s" begin="2.2s" fill="freeze"/>
    </circle>
</svg>