<svg width="200" height="50" viewBox="0 0 210 50" xmlns="http://www.w3.org/2000/svg">
    <!-- 259 stargazers -->
    <!-- created at Mon Mar 09 2026 09:43:47 GMT+0000 (Coordinated Universal Time) -->
    <defs>
        <linearGradient id="stroke" x1="0%" y1="0%" x2="100%" y2="0%">
            <stop stop-color="#3023AE" offset="0%"/>
            <stop stop-color="#C86DD7" offset="100%"/>
        </linearGradient>
    </defs>
    <path stroke="url(#stroke)"
        stroke-width="3"
        stroke-linejoin="round"
        stroke-linecap="round"
        d="M5.00 46.0001 C 5.28 44.53, 9.45 21.37, 10.00 19.98 S 13.51 20.96, 15.00 20.77 S 18.76 17.88, 20.00 18.72 S 23.54 27.90, 25.00 27.54 S 28.62 16.87, 30.00 16.29 S 34.02 22.24, 35.00 23.37 S 38.53 28.19, 40.00 27.87 S 43.68 21.92, 45.00 21.20 S 48.53 22.72, 50.00 22.43 S 54.05 18.04, 55.00 19.20 S 58.74 33.85, 60.00 34.67 S 64.08 26.92, 65.00 25.74 S 68.55 21.48, 70.00 21.88 S 73.72 27.67, 75.00 28.45 S 78.66 28.65, 80.00 27.96 S 83.77 24.20, 85.00 23.33 S 88.88 19.91, 90.00 20.91 S 93.99 31.16, 95.00 32.27 S 98.88 32.96, 100.00 31.96 S 103.75 24.16, 105.00 23.33 S 108.52 25.07, 110.00 25.30 S 113.94 23.83, 115.00 24.89 S 118.95 34.18, 120.00 35.24 S 124.29 36.37, 125.00 35.05 S 129.30 17.83, 130.00 16.51 S 133.74 15.19, 135.00 16.00 S 138.75 22.12, 140.00 22.95 S 143.73 21.78, 145.00 22.58 S 148.73 28.38, 150.00 29.18 S 154.23 27.64, 155.00 28.93 S 158.64 45.37, 160.00 46.00 S 163.50 33.58, 165.00 33.58 S 168.50 46.05, 170.00 46.00 S 173.50 33.24, 175.00 33.24 S 178.50 46.05, 180.00 46.00 S 184.10 34.10, 185.00 32.90 S 188.95 33.81, 190.00 32.74 S 193.50 22.80, 195.00 22.76 S 198.91 31.39, 200.00 32.42 S 203.50 32.31, 205.00 32.26"
        fill="none">
        <animate attributeName="stroke-dashoffset"
            from="383.47896932780947" to="0" dur="2.2s"/>
        <animate attributeName="stroke-dasharray"
            from="383.47896932780947" to="383.47896932780947"/>
    </path>
    <circle r="4" cx="5" cy="46" fill="#3023AE"/>
    <circle r="4" cx="205" cy="32.263474201617775" fill="#C86DD7" opacity="0">
        <animate attributeName="opacity"
            from="0" to="1" dur="0.1s" begin="2.2s" fill="freeze"/>
    </circle>
</svg>