<svg width="200" height="50" viewBox="0 0 210 50" xmlns="http://www.w3.org/2000/svg">
    <!-- 260 stargazers -->
    <!-- created at Sun Mar 22 2026 12:59:54 GMT+0000 (Coordinated Universal Time) -->
    <defs>
        <linearGradient id="stroke" x1="0%" y1="0%" x2="100%" y2="0%">
            <stop stop-color="#3023AE" offset="0%"/>
            <stop stop-color="#C86DD7" offset="100%"/>
        </linearGradient>
    </defs>
    <path stroke="url(#stroke)"
        stroke-width="3"
        stroke-linejoin="round"
        stroke-linecap="round"
        d="M5.00 46.0001 C 5.26 44.52, 9.47 19.48, 10.00 18.07 S 13.50 19.38, 15.00 19.33 S 18.67 17.05, 20.00 17.75 S 23.52 24.89, 25.00 24.63 S 28.55 16.37, 30.00 16.00 S 33.98 20.98, 35.00 22.09 S 38.68 27.55, 40.00 26.84 S 43.57 17.14, 45.00 16.69 S 48.51 23.57, 50.00 23.72 S 53.81 16.77, 55.00 17.68 S 58.98 30.24, 60.00 31.34 S 63.98 29.61, 65.00 28.51 S 68.51 20.66, 70.00 20.50 S 73.74 26.64, 75.00 27.45 S 78.68 27.65, 80.00 26.94 S 83.80 22.94, 85.00 22.04 S 88.58 19.00, 90.00 19.48 S 94.21 24.21, 95.00 25.48 S 98.58 36.00, 100.00 35.51 S 103.85 23.01, 105.00 22.04 S 108.51 27.20, 110.00 27.06 S 114.30 19.73, 115.00 21.06 S 118.58 46.48, 120.00 46.00 S 124.41 19.02, 125.00 17.64 S 128.52 22.20, 130.00 22.44 S 133.59 19.72, 135.00 19.20 S 138.68 18.05, 140.00 18.76 S 143.68 23.84, 145.00 24.56 S 148.87 23.24, 150.00 24.23 S 154.37 31.88, 155.00 33.24 S 158.50 46.06, 160.00 46.00 S 163.50 32.87, 165.00 32.87 S 168.50 46.05, 170.00 46.00 S 173.50 32.51, 175.00 32.51 S 178.50 46.05, 180.00 46.00 S 184.13 33.38, 185.00 32.16 S 188.98 33.08, 190.00 31.99 S 193.73 22.23, 195.00 21.43 S 198.94 24.64, 200.00 25.70 S 204.02 30.35, 205.00 31.48"
        fill="none">
        <animate attributeName="stroke-dashoffset"
            from="422.9420715654853" to="0" dur="2.2s"/>
        <animate attributeName="stroke-dasharray"
            from="422.9420715654853" to="422.9420715654853"/>
    </path>
    <circle r="4" cx="5" cy="46" fill="#3023AE"/>
    <circle r="4" cx="205" cy="31.482092225834016" fill="#C86DD7" opacity="0">
        <animate attributeName="opacity"
            from="0" to="1" dur="0.1s" begin="2.2s" fill="freeze"/>
    </circle>
</svg>