<svg width="200" height="50" viewBox="0 0 210 50" xmlns="http://www.w3.org/2000/svg">
    <!-- 260 stargazers -->
    <!-- created at Sat May 02 2026 01:06:21 GMT+0000 (Coordinated Universal Time) -->
    <defs>
        <linearGradient id="stroke" x1="0%" y1="0%" x2="100%" y2="0%">
            <stop stop-color="#3023AE" offset="0%"/>
            <stop stop-color="#C86DD7" offset="100%"/>
        </linearGradient>
    </defs>
    <path stroke="url(#stroke)"
        stroke-width="3"
        stroke-linejoin="round"
        stroke-linecap="round"
        d="M5.00 46.0001 C 5.26 44.52, 9.46 19.30, 10.00 17.90 S 13.50 20.09, 15.00 20.10 S 18.50 18.11, 20.00 18.00 S 23.50 19.28, 25.00 19.35 S 28.66 17.80, 30.00 18.47 S 33.94 23.30, 35.00 24.36 S 38.85 29.38, 40.00 28.42 S 43.78 16.87, 45.00 16.00 S 48.78 20.44, 50.00 21.31 S 53.61 22.50, 55.00 23.08 S 58.82 24.52, 60.00 25.45 S 63.81 31.90, 65.00 30.99 S 68.58 18.23, 70.00 17.75 S 73.78 26.74, 75.00 27.61 S 78.79 25.76, 80.00 24.88 S 83.60 19.81, 85.00 20.35 S 89.00 27.67, 90.00 28.79 S 93.72 32.40, 95.00 31.62 S 98.76 23.60, 100.00 22.75 S 103.52 24.53, 105.00 24.76 S 108.95 23.25, 110.00 24.32 S 113.71 35.71, 115.00 34.94 S 119.03 19.55, 120.00 18.40 S 123.51 23.20, 125.00 23.05 S 128.59 17.90, 130.00 17.40 S 133.81 18.53, 135.00 19.44 S 138.90 24.07, 140.00 25.09 S 143.85 27.68, 145.00 28.65 S 148.64 32.90, 150.00 33.54 S 154.06 32.18, 155.00 33.35 S 158.50 46.06, 160.00 46.00 S 163.50 32.99, 165.00 32.99 S 168.50 46.05, 170.00 46.00 S 174.11 33.84, 175.00 32.63 S 178.96 33.53, 180.00 32.45 S 183.72 23.02, 185.00 22.24 S 188.92 25.31, 190.00 26.36 S 194.32 30.60, 195.00 31.94 S 199.13 44.78, 200.00 46.00 S 203.50 46.00, 205.00 46.00"
        fill="none">
        <animate attributeName="stroke-dashoffset"
            from="363.3632047306875" to="0" dur="2.2s"/>
        <animate attributeName="stroke-dasharray"
            from="363.3632047306875" to="363.3632047306875"/>
    </path>
    <circle r="4" cx="5" cy="46" fill="#3023AE"/>
    <circle r="4" cx="205" cy="46" fill="#C86DD7" opacity="0">
        <animate attributeName="opacity"
            from="0" to="1" dur="0.1s" begin="2.2s" fill="freeze"/>
    </circle>
</svg>