<svg width="200" height="50" viewBox="0 0 210 50" xmlns="http://www.w3.org/2000/svg">
    <!-- 261 stargazers -->
    <!-- created at Mon May 18 2026 10:45:27 GMT+0000 (Coordinated Universal Time) -->
    <defs>
        <linearGradient id="stroke" x1="0%" y1="0%" x2="100%" y2="0%">
            <stop stop-color="#3023AE" offset="0%"/>
            <stop stop-color="#C86DD7" offset="100%"/>
        </linearGradient>
    </defs>
    <path stroke="url(#stroke)"
        stroke-width="3"
        stroke-linejoin="round"
        stroke-linecap="round"
        d="M5.00 46.0001 C 5.27 44.52, 9.45 19.71, 10.00 18.32 S 13.51 20.70, 15.00 20.85 S 18.50 19.50, 20.00 19.39 S 23.50 20.14, 25.00 20.12 S 28.65 18.61, 30.00 19.27 S 33.92 23.95, 35.00 24.99 S 38.84 29.87, 40.00 28.93 S 43.90 17.89, 45.00 16.87 S 48.85 18.78, 50.00 19.74 S 53.83 24.24, 55.00 25.18 S 58.53 27.49, 60.00 27.78 S 63.73 27.99, 65.00 27.18 S 68.51 21.32, 70.00 21.46 S 73.53 27.84, 75.00 28.15 S 78.77 24.40, 80.00 23.53 S 83.57 20.64, 85.00 21.10 S 89.17 25.46, 90.00 26.71 S 93.57 36.60, 95.00 36.13 S 98.83 24.36, 100.00 23.43 S 103.51 28.28, 105.00 28.14 S 108.78 21.59, 110.00 22.46 S 113.57 35.73, 115.00 35.26 S 119.14 20.43, 120.00 19.20 S 123.57 21.54, 125.00 21.09 S 128.52 15.73, 130.00 16.00 S 134.10 21.73, 135.00 22.93 S 138.73 28.63, 140.00 29.42 S 144.23 27.87, 145.00 29.15 S 148.64 45.38, 150.00 46.00 S 153.50 33.72, 155.00 33.72 S 158.50 46.05, 160.00 46.00 S 163.50 33.36, 165.00 33.36 S 168.50 46.05, 170.00 46.00 S 174.47 34.42, 175.00 33.02 S 178.50 19.74, 180.00 19.69 S 183.78 31.80, 185.00 32.68 S 189.10 25.73, 190.00 26.93 S 194.30 44.67, 195.00 46.00 S 199.13 47.22, 200.00 46.00 S 204.49 33.44, 205.00 32.03"
        fill="none">
        <animate attributeName="stroke-dashoffset"
            from="407.04944629607036" to="0" dur="2.2s"/>
        <animate attributeName="stroke-dasharray"
            from="407.04944629607036" to="407.04944629607036"/>
    </path>
    <circle r="4" cx="5" cy="46" fill="#3023AE"/>
    <circle r="4" cx="205" cy="32.028152203244844" fill="#C86DD7" opacity="0">
        <animate attributeName="opacity"
            from="0" to="1" dur="0.1s" begin="2.2s" fill="freeze"/>
    </circle>
</svg>