<svg width="200" height="50" viewBox="0 0 210 50" xmlns="http://www.w3.org/2000/svg">
    <!-- 260 stargazers -->
    <!-- created at Sun Mar 15 2026 14:17:52 GMT+0000 (Coordinated Universal Time) -->
    <defs>
        <linearGradient id="stroke" x1="0%" y1="0%" x2="100%" y2="0%">
            <stop stop-color="#3023AE" offset="0%"/>
            <stop stop-color="#C86DD7" offset="100%"/>
        </linearGradient>
    </defs>
    <path stroke="url(#stroke)"
        stroke-width="3"
        stroke-linejoin="round"
        stroke-linecap="round"
        d="M5.00 46.0001 C 5.30 44.53, 9.42 22.63, 10.00 21.24 S 13.51 22.17, 15.00 21.99 S 18.74 19.23, 20.00 20.04 S 23.54 28.78, 25.00 28.44 S 28.61 18.29, 30.00 17.74 S 33.99 23.36, 35.00 24.47 S 38.61 29.30, 40.00 28.75 S 43.61 21.07, 45.00 20.51 S 48.51 24.56, 50.00 24.72 S 53.83 20.64, 55.00 21.59 S 58.76 31.96, 60.00 32.80 S 63.93 29.45, 65.00 28.40 S 68.51 22.91, 70.00 23.05 S 73.70 28.55, 75.00 29.30 S 78.65 29.50, 80.00 28.84 S 83.75 25.27, 85.00 24.43 S 88.57 21.69, 90.00 22.13 S 94.42 26.15, 95.00 27.53 S 98.67 46.69, 100.00 46.00 S 104.24 23.66, 105.00 22.37 S 108.59 28.44, 110.00 28.95 S 113.76 25.07, 115.00 25.92 S 118.68 35.06, 120.00 35.77 S 124.32 32.60, 125.00 31.26 S 128.91 17.03, 130.00 16.00 S 133.83 20.93, 135.00 21.88 S 138.52 23.79, 140.00 24.07 S 143.54 23.37, 145.00 23.71 S 148.98 25.30, 150.00 26.40 S 154.32 33.18, 155.00 34.51 S 158.50 46.05, 160.00 46.00 S 163.50 34.18, 165.00 34.18 S 168.50 46.05, 170.00 46.00 S 173.50 33.86, 175.00 33.86 S 178.50 46.05, 180.00 46.00 S 184.07 34.72, 185.00 33.54 S 188.92 34.43, 190.00 33.38 S 193.69 24.62, 195.00 23.88 S 198.89 26.72, 200.00 27.73 S 203.96 31.85, 205.00 32.93"
        fill="none">
        <animate attributeName="stroke-dashoffset"
            from="391.81824961119185" to="0" dur="2.2s"/>
        <animate attributeName="stroke-dasharray"
            from="391.81824961119185" to="391.81824961119185"/>
    </path>
    <circle r="4" cx="5" cy="46" fill="#3023AE"/>
    <circle r="4" cx="205" cy="32.93053312109767" fill="#C86DD7" opacity="0">
        <animate attributeName="opacity"
            from="0" to="1" dur="0.1s" begin="2.2s" fill="freeze"/>
    </circle>
</svg>