<svg width="200" height="50" viewBox="0 0 210 50" xmlns="http://www.w3.org/2000/svg">
    <!-- 259 stargazers -->
    <!-- created at Thu Mar 12 2026 09:59:40 GMT+0000 (Coordinated Universal Time) -->
    <defs>
        <linearGradient id="stroke" x1="0%" y1="0%" x2="100%" y2="0%">
            <stop stop-color="#3023AE" offset="0%"/>
            <stop stop-color="#C86DD7" offset="100%"/>
        </linearGradient>
    </defs>
    <path stroke="url(#stroke)"
        stroke-width="3"
        stroke-linejoin="round"
        stroke-linecap="round"
        d="M5.00 46.0001 C 5.28 44.53, 9.45 21.12, 10.00 19.72 S 13.51 20.71, 15.00 20.52 S 18.76 17.60, 20.00 18.45 S 23.54 27.72, 25.00 27.36 S 28.62 16.58, 30.00 16.00 S 34.02 22.01, 35.00 23.15 S 38.53 28.01, 40.00 27.69 S 43.69 21.68, 45.00 20.95 S 48.53 22.49, 50.00 22.20 S 53.93 17.89, 55.00 18.94 S 58.85 31.03, 60.00 31.99 S 63.96 28.40, 65.00 27.32 S 68.51 21.50, 70.00 21.64 S 73.72 27.49, 75.00 28.27 S 78.67 28.47, 80.00 27.79 S 83.78 23.98, 85.00 23.11 S 88.57 20.20, 90.00 20.66 S 94.45 25.00, 95.00 26.40 S 98.68 46.72, 100.00 46.00 S 104.27 22.23, 105.00 20.92 S 108.60 27.37, 110.00 27.90 S 113.78 23.80, 115.00 24.68 S 118.70 34.40, 120.00 35.14 S 124.30 31.68, 125.00 30.36 S 129.06 17.38, 130.00 16.21 S 133.74 17.13, 135.00 17.95 S 138.63 22.12, 140.00 22.72 S 143.73 21.55, 145.00 22.35 S 148.74 28.20, 150.00 29.01 S 154.24 27.47, 155.00 28.76 S 158.64 45.36, 160.00 46.00 S 163.50 33.45, 165.00 33.45 S 168.50 46.05, 170.00 46.00 S 173.50 33.11, 175.00 33.11 S 178.50 46.05, 180.00 46.00 S 184.10 33.98, 185.00 32.77 S 188.95 33.68, 190.00 32.61 S 193.50 22.57, 195.00 22.53 S 198.92 31.25, 200.00 32.29 S 203.50 32.18, 205.00 32.13"
        fill="none">
        <animate attributeName="stroke-dashoffset"
            from="407.3355490039263" to="0" dur="2.2s"/>
        <animate attributeName="stroke-dasharray"
            from="407.3355490039263" to="407.3355490039263"/>
    </path>
    <circle r="4" cx="5" cy="46" fill="#3023AE"/>
    <circle r="4" cx="205" cy="32.127658783654084" fill="#C86DD7" opacity="0">
        <animate attributeName="opacity"
            from="0" to="1" dur="0.1s" begin="2.2s" fill="freeze"/>
    </circle>
</svg>