<svg width="200" height="50" viewBox="0 0 210 50" xmlns="http://www.w3.org/2000/svg">
    <!-- 259 stargazers -->
    <!-- created at Wed Mar 04 2026 22:34:18 GMT+0000 (Coordinated Universal Time) -->
    <defs>
        <linearGradient id="stroke" x1="0%" y1="0%" x2="100%" y2="0%">
            <stop stop-color="#3023AE" offset="0%"/>
            <stop stop-color="#C86DD7" offset="100%"/>
        </linearGradient>
    </defs>
    <path stroke="url(#stroke)"
        stroke-width="3"
        stroke-linejoin="round"
        stroke-linecap="round"
        d="M5.00 46.0001 C 5.28 44.53, 9.44 21.11, 10.00 19.72 S 13.52 21.30, 15.00 21.03 S 18.73 17.10, 20.00 17.90 S 23.53 27.64, 25.00 27.36 S 28.62 16.58, 30.00 16.00 S 34.02 22.01, 35.00 23.15 S 38.53 28.01, 40.00 27.69 S 43.62 21.54, 45.00 20.95 S 48.57 23.87, 50.00 23.42 S 54.00 16.71, 55.00 17.83 S 58.81 33.65, 60.00 34.56 S 64.08 26.72, 65.00 25.53 S 68.55 21.24, 70.00 21.64 S 73.72 27.49, 75.00 28.27 S 78.67 28.47, 80.00 27.79 S 83.78 23.98, 85.00 23.11 S 88.89 19.66, 90.00 20.66 S 94.00 31.02, 95.00 32.14 S 98.89 32.83, 100.00 31.82 S 103.76 23.94, 105.00 23.10 S 108.52 24.86, 110.00 25.10 S 113.94 23.62, 115.00 24.68 S 118.95 34.06, 120.00 35.14 S 124.30 36.26, 125.00 34.94 S 129.15 17.45, 130.00 16.21 S 133.74 19.58, 135.00 20.39 S 138.53 22.43, 140.00 22.72 S 143.50 22.46, 145.00 22.35 S 148.74 21.17, 150.00 21.98 S 154.42 27.37, 155.00 28.76 S 158.64 45.36, 160.00 46.00 S 163.50 33.45, 165.00 33.45 S 168.50 46.05, 170.00 46.00 S 173.50 33.11, 175.00 33.11 S 179.08 44.81, 180.00 46.00 S 184.10 47.20, 185.00 46.00 S 189.41 33.99, 190.00 32.61 S 193.71 23.30, 195.00 22.53 S 198.92 25.57, 200.00 26.61 S 203.99 31.02, 205.00 32.13"
        fill="none">
        <animate attributeName="stroke-dashoffset"
            from="386.4026274356521" to="0" dur="2.2s"/>
        <animate attributeName="stroke-dasharray"
            from="386.4026274356521" to="386.4026274356521"/>
    </path>
    <circle r="4" cx="5" cy="46" fill="#3023AE"/>
    <circle r="4" cx="205" cy="32.127658783654006" fill="#C86DD7" opacity="0">
        <animate attributeName="opacity"
            from="0" to="1" dur="0.1s" begin="2.2s" fill="freeze"/>
    </circle>
</svg>