<svg width="200" height="50" viewBox="0 0 210 50" xmlns="http://www.w3.org/2000/svg">
    <!-- 260 stargazers -->
    <!-- created at Thu Apr 09 2026 01:32:30 GMT+0000 (Coordinated Universal Time) -->
    <defs>
        <linearGradient id="stroke" x1="0%" y1="0%" x2="100%" y2="0%">
            <stop stop-color="#3023AE" offset="0%"/>
            <stop stop-color="#C86DD7" offset="100%"/>
        </linearGradient>
    </defs>
    <path stroke="url(#stroke)"
        stroke-width="3"
        stroke-linejoin="round"
        stroke-linecap="round"
        d="M5.00 46.0001 C 5.26 44.52, 9.46 19.05, 10.00 17.65 S 13.50 19.86, 15.00 19.87 S 18.54 17.42, 20.00 17.75 S 23.52 22.37, 25.00 22.11 S 28.51 15.85, 30.00 16.00 S 34.05 21.94, 35.00 23.10 S 38.74 29.07, 40.00 28.26 S 43.78 17.57, 45.00 16.69 S 48.65 20.44, 50.00 21.09 S 53.83 20.53, 55.00 21.47 S 58.77 28.21, 60.00 29.07 S 63.95 29.58, 65.00 28.51 S 68.51 18.75, 70.00 18.96 S 73.70 29.19, 75.00 29.93 S 78.93 25.74, 80.00 24.69 S 83.51 20.29, 85.00 20.13 S 88.83 22.65, 90.00 23.59 S 93.62 27.65, 95.00 28.23 S 98.59 28.35, 100.00 27.83 S 103.86 25.55, 105.00 24.57 S 108.95 18.13, 110.00 19.21 S 114.18 33.59, 115.00 34.85 S 119.25 35.93, 120.00 34.63 S 124.17 18.89, 125.00 17.64 S 128.52 19.42, 130.00 19.65 S 133.58 19.70, 135.00 19.20 S 138.90 15.14, 140.00 16.16 S 144.04 27.34, 145.00 28.50 S 149.26 26.92, 150.00 28.22 S 153.65 45.35, 155.00 46.00 S 158.50 33.05, 160.00 33.05 S 163.50 46.05, 165.00 46.00 S 168.50 32.69, 170.00 32.69 S 173.50 46.05, 175.00 46.00 S 179.12 33.55, 180.00 32.33 S 183.97 33.25, 185.00 32.16 S 188.73 22.52, 190.00 21.73 S 193.94 24.88, 195.00 25.94 S 199.33 30.31, 200.00 31.65 S 204.51 44.58, 205.00 46.00"
        fill="none">
        <animate attributeName="stroke-dashoffset"
            from="392.44130057130377" to="0" dur="2.2s"/>
        <animate attributeName="stroke-dasharray"
            from="392.44130057130377" to="392.44130057130377"/>
    </path>
    <circle r="4" cx="5" cy="46" fill="#3023AE"/>
    <circle r="4" cx="205" cy="46" fill="#C86DD7" opacity="0">
        <animate attributeName="opacity"
            from="0" to="1" dur="0.1s" begin="2.2s" fill="freeze"/>
    </circle>
</svg>