<svg width="200" height="50" viewBox="0 0 210 50" xmlns="http://www.w3.org/2000/svg">
    <!-- 260 stargazers -->
    <!-- created at Wed Apr 22 2026 14:09:43 GMT+0000 (Coordinated Universal Time) -->
    <defs>
        <linearGradient id="stroke" x1="0%" y1="0%" x2="100%" y2="0%">
            <stop stop-color="#3023AE" offset="0%"/>
            <stop stop-color="#C86DD7" offset="100%"/>
        </linearGradient>
    </defs>
    <path stroke="url(#stroke)"
        stroke-width="3"
        stroke-linejoin="round"
        stroke-linecap="round"
        d="M5.00 46.0001 C 5.27 44.52, 9.45 19.63, 10.00 18.23 S 13.50 20.39, 15.00 20.41 S 18.50 18.23, 20.00 18.33 S 23.51 21.24, 25.00 21.09 S 28.59 16.83, 30.00 17.32 S 34.01 23.49, 35.00 24.62 S 38.79 29.51, 40.00 28.62 S 43.84 18.25, 45.00 17.30 S 48.72 19.63, 50.00 20.41 S 53.77 22.48, 55.00 23.35 S 58.69 26.74, 60.00 27.46 S 63.91 29.90, 65.00 28.87 S 68.51 17.87, 70.00 18.08 S 73.90 29.24, 75.00 30.26 S 78.92 28.37, 80.00 27.33 S 83.51 20.80, 85.00 20.66 S 88.83 25.43, 90.00 26.37 S 93.51 28.73, 95.00 28.60 S 98.72 26.23, 100.00 25.45 S 103.51 22.66, 105.00 22.53 S 109.06 23.40, 110.00 24.57 S 113.70 34.33, 115.00 35.07 S 119.30 31.58, 120.00 30.25 S 124.06 17.17, 125.00 16.00 S 128.74 16.91, 130.00 17.73 S 133.63 21.92, 135.00 22.52 S 138.54 21.77, 140.00 22.14 S 144.02 23.87, 145.00 25.00 S 149.36 32.33, 150.00 33.69 S 153.50 46.06, 155.00 46.00 S 158.50 33.32, 160.00 33.32 S 163.50 46.05, 165.00 46.00 S 168.50 32.96, 170.00 32.96 S 173.50 46.05, 175.00 46.00 S 179.48 34.02, 180.00 32.61 S 183.50 18.94, 185.00 18.89 S 189.10 31.08, 190.00 32.27 S 193.50 32.16, 195.00 32.11 S 199.12 30.73, 200.00 31.94 S 204.50 44.59, 205.00 46.00"
        fill="none">
        <animate attributeName="stroke-dashoffset"
            from="380.87296276667183" to="0" dur="2.2s"/>
        <animate attributeName="stroke-dasharray"
            from="380.87296276667183" to="380.87296276667183"/>
    </path>
    <circle r="4" cx="5" cy="46" fill="#3023AE"/>
    <circle r="4" cx="205" cy="46" fill="#C86DD7" opacity="0">
        <animate attributeName="opacity"
            from="0" to="1" dur="0.1s" begin="2.2s" fill="freeze"/>
    </circle>
</svg>