<svg width="200" height="50" viewBox="0 0 210 50" xmlns="http://www.w3.org/2000/svg">
    <!-- 260 stargazers -->
    <!-- created at Wed Mar 18 2026 14:55:03 GMT+0000 (Coordinated Universal Time) -->
    <defs>
        <linearGradient id="stroke" x1="0%" y1="0%" x2="100%" y2="0%">
            <stop stop-color="#3023AE" offset="0%"/>
            <stop stop-color="#C86DD7" offset="100%"/>
        </linearGradient>
    </defs>
    <path stroke="url(#stroke)"
        stroke-width="3"
        stroke-linejoin="round"
        stroke-linecap="round"
        d="M5.00 46.0001 C 5.27 44.53, 9.47 20.53, 10.00 19.13 S 13.50 19.54, 15.00 19.43 S 18.75 17.58, 20.00 18.40 S 23.54 26.36, 25.00 26.01 S 28.58 16.48, 30.00 16.00 S 34.00 21.51, 35.00 22.64 S 38.62 27.87, 40.00 27.28 S 43.63 18.94, 45.00 18.34 S 48.51 22.74, 50.00 22.91 S 53.87 18.52, 55.00 19.51 S 58.79 30.78, 60.00 31.68 S 63.97 27.99, 65.00 26.90 S 68.51 20.95, 70.00 21.09 S 73.73 27.08, 75.00 27.87 S 78.67 28.08, 80.00 27.38 S 83.79 23.48, 85.00 22.60 S 88.58 19.62, 90.00 20.09 S 94.19 24.69, 95.00 25.95 S 98.58 36.23, 100.00 35.75 S 103.84 23.54, 105.00 22.59 S 108.52 27.25, 110.00 27.49 S 113.79 23.31, 115.00 24.20 S 118.58 35.39, 120.00 34.89 S 124.15 21.95, 125.00 20.71 S 128.51 20.39, 130.00 20.26 S 133.53 19.53, 135.00 19.82 S 138.53 21.90, 140.00 22.20 S 143.55 21.45, 145.00 21.81 S 149.03 23.59, 150.00 24.73 S 154.36 32.18, 155.00 33.53 S 158.50 46.05, 160.00 46.00 S 163.50 33.17, 165.00 33.17 S 168.50 46.05, 170.00 46.00 S 173.50 32.82, 175.00 32.82 S 178.50 46.05, 180.00 46.00 S 184.12 33.69, 185.00 32.48 S 188.96 33.39, 190.00 32.31 S 193.72 22.78, 195.00 22.00 S 198.93 25.12, 200.00 26.17 S 204.01 30.69, 205.00 31.82"
        fill="none">
        <animate attributeName="stroke-dashoffset"
            from="379.55723787332454" to="0" dur="2.2s"/>
        <animate attributeName="stroke-dasharray"
            from="379.55723787332454" to="379.55723787332454"/>
    </path>
    <circle r="4" cx="5" cy="46" fill="#3023AE"/>
    <circle r="4" cx="205" cy="31.81588185052307" fill="#C86DD7" opacity="0">
        <animate attributeName="opacity"
            from="0" to="1" dur="0.1s" begin="2.2s" fill="freeze"/>
    </circle>
</svg>