<svg width="200" height="50" viewBox="0 0 210 50" xmlns="http://www.w3.org/2000/svg">
    <!-- 260 stargazers -->
    <!-- created at Fri May 15 2026 09:18:11 GMT+0000 (Coordinated Universal Time) -->
    <defs>
        <linearGradient id="stroke" x1="0%" y1="0%" x2="100%" y2="0%">
            <stop stop-color="#3023AE" offset="0%"/>
            <stop stop-color="#C86DD7" offset="100%"/>
        </linearGradient>
    </defs>
    <path stroke="url(#stroke)"
        stroke-width="3"
        stroke-linejoin="round"
        stroke-linecap="round"
        d="M5.00 46.0001 C 5.26 44.52, 9.46 18.89, 10.00 17.49 S 13.51 19.94, 15.00 20.10 S 18.50 18.70, 20.00 18.59 S 23.50 19.37, 25.00 19.35 S 28.66 17.80, 30.00 18.47 S 33.94 23.30, 35.00 24.36 S 38.85 29.38, 40.00 28.42 S 43.91 17.03, 45.00 16.00 S 48.86 17.98, 50.00 18.95 S 53.85 23.60, 55.00 24.56 S 58.53 26.94, 60.00 27.24 S 63.74 27.44, 65.00 26.62 S 68.51 20.58, 70.00 20.73 S 73.53 27.30, 75.00 27.61 S 78.79 23.74, 80.00 22.86 S 83.57 19.89, 85.00 20.35 S 89.19 24.87, 90.00 26.13 S 93.58 36.31, 95.00 35.83 S 98.84 23.70, 100.00 22.75 S 103.51 27.75, 105.00 27.60 S 108.79 20.87, 110.00 21.76 S 113.58 35.42, 115.00 34.94 S 119.03 19.55, 120.00 18.40 S 123.51 23.20, 125.00 23.05 S 128.72 18.18, 130.00 17.40 S 134.02 15.77, 135.00 16.90 S 139.03 27.78, 140.00 28.92 S 144.24 27.36, 145.00 28.65 S 148.64 45.36, 150.00 46.00 S 153.50 33.35, 155.00 33.35 S 158.50 46.06, 160.00 46.00 S 163.50 32.99, 165.00 32.99 S 168.50 46.05, 170.00 46.00 S 174.41 34.01, 175.00 32.63 S 178.72 23.31, 180.00 22.54 S 183.92 25.56, 185.00 26.60 S 188.68 31.40, 190.00 32.11 S 194.12 30.72, 195.00 31.94 S 199.13 44.78, 200.00 46.00 S 203.50 46.00, 205.00 46.00"
        fill="none">
        <animate attributeName="stroke-dashoffset"
            from="390.6663616950535" to="0" dur="2.2s"/>
        <animate attributeName="stroke-dasharray"
            from="390.6663616950535" to="390.6663616950535"/>
    </path>
    <circle r="4" cx="5" cy="46" fill="#3023AE"/>
    <circle r="4" cx="205" cy="46" fill="#C86DD7" opacity="0">
        <animate attributeName="opacity"
            from="0" to="1" dur="0.1s" begin="2.2s" fill="freeze"/>
    </circle>
</svg>