<svg width="200" height="50" viewBox="0 0 210 50" xmlns="http://www.w3.org/2000/svg">
    <!-- 1156 stargazers -->
    <!-- created at Sat Apr 04 2026 14:27:20 GMT+0000 (Coordinated Universal Time) -->
    <defs>
        <linearGradient id="stroke" x1="0%" y1="0%" x2="100%" y2="0%">
            <stop stop-color="#3023AE" offset="0%"/>
            <stop stop-color="#C86DD7" offset="100%"/>
        </linearGradient>
    </defs>
    <path stroke="url(#stroke)"
        stroke-width="3"
        stroke-linejoin="round"
        stroke-linecap="round"
        d="M5.00 46.0001 C 5.45 44.57, 9.53 31.46, 10.00 30.04 S 13.78 16.87, 15.00 16.00 S 18.70 22.16, 20.00 22.91 S 23.51 21.99, 25.00 21.84 S 28.50 21.96, 30.00 21.91 S 33.58 21.04, 35.00 21.52 S 38.59 24.81, 40.00 25.32 S 43.61 24.57, 45.00 25.14 S 48.81 28.53, 50.00 29.44 S 53.59 32.25, 55.00 32.75 S 58.55 33.41, 60.00 33.03 S 63.51 30.26, 65.00 30.08 S 68.51 31.59, 70.00 31.78 S 73.50 31.49, 75.00 31.37 S 78.50 30.96, 80.00 30.97 S 83.55 31.07, 85.00 31.46 S 88.50 33.68, 90.00 33.64 S 93.51 31.03, 95.00 31.23 S 98.50 34.91, 100.00 34.97 S 103.52 31.91, 105.00 31.64 S 108.58 32.66, 110.00 33.14 S 113.51 34.89, 115.00 35.03 S 118.50 34.11, 120.00 34.05 S 123.50 34.68, 125.00 34.61 S 128.55 34.00, 130.00 33.61 S 133.51 32.09, 135.00 31.91 S 138.65 31.76, 140.00 32.42 S 143.60 37.34, 145.00 36.80 S 148.62 29.10, 150.00 28.52 S 153.70 31.84, 155.00 32.59 S 158.74 33.39, 160.00 34.21 S 163.57 38.64, 165.00 39.10 S 168.77 36.58, 170.00 37.43 S 173.86 45.02, 175.00 46.00 S 178.88 47.00, 180.00 46.00 S 183.89 38.09, 185.00 37.09 S 188.50 37.01, 190.00 36.98 S 193.59 36.35, 195.00 36.87 S 198.52 40.91, 200.00 40.67 S 203.99 36.31, 205.00 35.21"
        fill="none">
        <animate attributeName="stroke-dashoffset"
            from="261.7655895372012" to="0" dur="2.2s"/>
        <animate attributeName="stroke-dasharray"
            from="261.7655895372012" to="261.7655895372012"/>
    </path>
    <circle r="4" cx="5" cy="46" fill="#3023AE"/>
    <circle r="4" cx="205" cy="35.20719916601966" fill="#C86DD7" opacity="0">
        <animate attributeName="opacity"
            from="0" to="1" dur="0.1s" begin="2.2s" fill="freeze"/>
    </circle>
</svg>