<svg width="200" height="50" viewBox="0 0 210 50" xmlns="http://www.w3.org/2000/svg">
    <!-- 1152 stargazers -->
    <!-- created at Mon Mar 16 2026 00:44:47 GMT+0000 (Coordinated Universal Time) -->
    <defs>
        <linearGradient id="stroke" x1="0%" y1="0%" x2="100%" y2="0%">
            <stop stop-color="#3023AE" offset="0%"/>
            <stop stop-color="#C86DD7" offset="100%"/>
        </linearGradient>
    </defs>
    <path stroke="url(#stroke)"
        stroke-width="3"
        stroke-linejoin="round"
        stroke-linecap="round"
        d="M5.00 46.0001 C 5.45 44.57, 9.53 31.43, 10.00 30.00 S 13.81 16.91, 15.00 16.00 S 18.71 21.56, 20.00 22.31 S 23.50 21.96, 25.00 21.85 S 28.50 21.66, 30.00 21.57 S 33.61 20.74, 35.00 21.30 S 38.60 25.14, 40.00 25.68 S 43.55 24.77, 45.00 25.15 S 48.82 27.35, 50.00 28.28 S 53.64 32.36, 55.00 32.99 S 58.57 33.35, 60.00 32.91 S 63.54 30.29, 65.00 29.94 S 68.57 30.07, 70.00 30.51 S 73.50 33.00, 75.00 32.98 S 78.52 30.67, 80.00 30.42 S 83.53 31.03, 85.00 31.33 S 88.50 32.33, 90.00 32.45 S 93.50 32.05, 95.00 32.13 S 98.50 32.87, 100.00 32.95 S 103.52 32.46, 105.00 32.67 S 108.50 34.28, 110.00 34.40 S 113.50 33.52, 115.00 33.45 S 118.51 33.78, 120.00 33.94 S 123.50 34.58, 125.00 34.51 S 128.51 33.69, 130.00 33.50 S 133.61 33.84, 135.00 33.29 S 138.72 28.74, 140.00 29.53 S 143.65 38.77, 145.00 39.44 S 149.01 35.58, 150.00 34.45 S 153.51 28.29, 155.00 28.10 S 158.76 32.30, 160.00 33.16 S 163.62 34.41, 165.00 34.99 S 168.99 36.24, 170.00 37.35 S 173.87 45.02, 175.00 46.00 S 178.67 46.69, 180.00 46.00 S 183.80 41.70, 185.00 40.81 S 188.75 39.40, 190.00 38.57 S 193.53 33.81, 195.00 34.11 S 198.74 39.81, 200.00 40.62 S 203.50 40.57, 205.00 40.56"
        fill="none">
        <animate attributeName="stroke-dashoffset"
            from="262.7591248617086" to="0" dur="2.2s"/>
        <animate attributeName="stroke-dasharray"
            from="262.7591248617086" to="262.7591248617086"/>
    </path>
    <circle r="4" cx="5" cy="46" fill="#3023AE"/>
    <circle r="4" cx="205" cy="40.5558428961959" fill="#C86DD7" opacity="0">
        <animate attributeName="opacity"
            from="0" to="1" dur="0.1s" begin="2.2s" fill="freeze"/>
    </circle>
</svg>