<svg width="200" height="50" viewBox="0 0 210 50" xmlns="http://www.w3.org/2000/svg">
    <!-- 1158 stargazers -->
    <!-- created at Wed Apr 29 2026 18:46:54 GMT+0000 (Coordinated Universal Time) -->
    <defs>
        <linearGradient id="stroke" x1="0%" y1="0%" x2="100%" y2="0%">
            <stop stop-color="#3023AE" offset="0%"/>
            <stop stop-color="#C86DD7" offset="100%"/>
        </linearGradient>
    </defs>
    <path stroke="url(#stroke)"
        stroke-width="3"
        stroke-linejoin="round"
        stroke-linecap="round"
        d="M5.00 46.0001 C 5.45 44.57, 9.53 31.36, 10.00 29.94 S 13.79 16.89, 15.00 16.00 S 18.69 21.89, 20.00 22.62 S 23.50 21.60, 25.00 21.52 S 28.50 22.01, 30.00 22.03 S 33.60 21.12, 35.00 21.66 S 38.58 25.36, 40.00 25.85 S 43.58 24.67, 45.00 25.14 S 48.81 28.27, 50.00 29.18 S 53.57 32.31, 55.00 32.75 S 58.52 32.53, 60.00 32.28 S 63.56 31.54, 65.00 31.11 S 68.54 28.89, 70.00 29.25 S 73.55 33.19, 75.00 33.57 S 78.58 32.31, 80.00 31.83 S 83.52 29.89, 85.00 30.15 S 88.51 33.48, 90.00 33.64 S 93.50 31.13, 95.00 31.23 S 98.51 34.16, 100.00 34.30 S 103.50 32.28, 105.00 32.20 S 108.56 33.40, 110.00 33.80 S 113.50 34.99, 115.00 35.03 S 118.50 33.98, 120.00 34.05 S 123.50 35.52, 125.00 35.46 S 128.72 34.40, 130.00 33.61 S 133.58 28.86, 135.00 29.33 S 138.68 36.23, 140.00 36.94 S 143.92 35.77, 145.00 34.73 S 148.50 27.21, 150.00 27.31 S 153.82 34.46, 155.00 35.39 S 158.53 34.92, 160.00 35.24 S 163.98 36.45, 165.00 37.55 S 168.85 45.03, 170.00 46.00 S 173.78 46.88, 175.00 46.00 S 178.67 39.50, 180.00 38.82 S 183.63 41.47, 185.00 40.86 S 188.54 34.69, 190.00 34.35 S 193.54 38.19, 195.00 38.54 S 198.53 37.04, 200.00 36.76 S 203.50 36.69, 205.00 36.65"
        fill="none">
        <animate attributeName="stroke-dashoffset"
            from="268.51156625650384" to="0" dur="2.2s"/>
        <animate attributeName="stroke-dasharray"
            from="268.51156625650384" to="268.51156625650384"/>
    </path>
    <circle r="4" cx="5" cy="46" fill="#3023AE"/>
    <circle r="4" cx="205" cy="36.65316029978719" fill="#C86DD7" opacity="0">
        <animate attributeName="opacity"
            from="0" to="1" dur="0.1s" begin="2.2s" fill="freeze"/>
    </circle>
</svg>