<svg width="200" height="50" viewBox="0 0 210 50" xmlns="http://www.w3.org/2000/svg">
    <!-- 1161 stargazers -->
    <!-- created at Wed May 13 2026 10:40:26 GMT+0000 (Coordinated Universal Time) -->
    <defs>
        <linearGradient id="stroke" x1="0%" y1="0%" x2="100%" y2="0%">
            <stop stop-color="#3023AE" offset="0%"/>
            <stop stop-color="#C86DD7" offset="100%"/>
        </linearGradient>
    </defs>
    <path stroke="url(#stroke)"
        stroke-width="3"
        stroke-linejoin="round"
        stroke-linecap="round"
        d="M5.00 46.0001 C 5.44 44.57, 9.53 31.22, 10.00 29.80 S 13.79 16.89, 15.00 16.00 S 18.67 21.77, 20.00 22.47 S 23.50 21.36, 25.00 21.25 S 28.50 21.62, 30.00 21.74 S 33.62 21.43, 35.00 22.01 S 38.57 25.52, 40.00 25.99 S 43.56 24.87, 45.00 25.29 S 48.80 27.99, 50.00 28.89 S 53.53 32.43, 55.00 32.72 S 58.50 30.96, 60.00 30.88 S 63.52 32.43, 65.00 32.18 S 68.51 29.01, 70.00 29.21 S 73.53 33.23, 75.00 33.54 S 78.56 31.79, 80.00 31.36 S 83.54 30.21, 85.00 30.54 S 88.52 33.37, 90.00 33.62 S 93.51 32.39, 95.00 32.22 S 98.51 32.29, 100.00 32.46 S 103.51 33.18, 105.00 33.38 S 108.52 33.54, 110.00 33.78 S 113.50 34.97, 115.00 35.01 S 118.51 34.20, 120.00 34.02 S 123.51 33.98, 125.00 33.80 S 128.57 33.30, 130.00 32.83 S 133.68 29.83, 135.00 30.54 S 138.51 38.31, 140.00 38.14 S 143.77 30.23, 145.00 29.37 S 148.71 30.42, 150.00 31.19 S 153.74 34.56, 155.00 35.37 S 158.53 37.33, 160.00 37.65 S 163.85 36.57, 165.00 37.53 S 168.86 45.03, 170.00 46.00 S 173.87 46.99, 175.00 46.00 S 179.02 38.31, 180.00 37.18 S 183.59 33.96, 185.00 34.47 S 188.73 39.99, 190.00 40.78 S 193.68 41.44, 195.00 40.72 S 198.76 36.15, 200.00 35.31 S 203.56 34.31, 205.00 33.91"
        fill="none">
        <animate attributeName="stroke-dashoffset"
            from="265.2611849953635" to="0" dur="2.2s"/>
        <animate attributeName="stroke-dasharray"
            from="265.2611849953635" to="265.2611849953635"/>
    </path>
    <circle r="4" cx="5" cy="46" fill="#3023AE"/>
    <circle r="4" cx="205" cy="33.90684868456584" fill="#C86DD7" opacity="0">
        <animate attributeName="opacity"
            from="0" to="1" dur="0.1s" begin="2.2s" fill="freeze"/>
    </circle>
</svg>