<svg width="200" height="50" viewBox="0 0 210 50" xmlns="http://www.w3.org/2000/svg">
    <!-- 1161 stargazers -->
    <!-- created at Sat May 16 2026 10:43:45 GMT+0000 (Coordinated Universal Time) -->
    <defs>
        <linearGradient id="stroke" x1="0%" y1="0%" x2="100%" y2="0%">
            <stop stop-color="#3023AE" offset="0%"/>
            <stop stop-color="#C86DD7" offset="100%"/>
        </linearGradient>
    </defs>
    <path stroke="url(#stroke)"
        stroke-width="3"
        stroke-linejoin="round"
        stroke-linecap="round"
        d="M5.00 46.0001 C 5.44 44.57, 9.53 31.22, 10.00 29.80 S 13.79 16.89, 15.00 16.00 S 18.67 21.77, 20.00 22.47 S 23.51 21.38, 25.00 21.25 S 28.50 21.52, 30.00 21.61 S 33.64 21.23, 35.00 21.88 S 38.57 25.90, 40.00 26.36 S 43.55 24.69, 45.00 25.10 S 48.79 28.26, 50.00 29.14 S 53.52 32.12, 55.00 32.38 S 58.50 30.85, 60.00 30.88 S 63.52 32.82, 65.00 32.57 S 68.51 29.07, 70.00 29.21 S 73.53 33.23, 75.00 33.54 S 78.56 31.79, 80.00 31.36 S 83.54 30.21, 85.00 30.54 S 88.52 33.37, 90.00 33.62 S 93.51 32.39, 95.00 32.22 S 98.51 32.29, 100.00 32.46 S 103.51 33.18, 105.00 33.38 S 108.51 33.65, 110.00 33.78 S 113.50 34.21, 115.00 34.25 S 118.50 33.97, 120.00 34.02 S 123.53 34.87, 125.00 34.59 S 128.58 32.60, 130.00 32.12 S 133.71 30.42, 135.00 31.19 S 138.54 38.50, 140.00 38.14 S 143.72 29.54, 145.00 28.75 S 148.69 31.22, 150.00 31.95 S 153.78 33.48, 155.00 34.36 S 158.57 38.73, 160.00 39.18 S 163.76 36.68, 165.00 37.53 S 168.86 45.03, 170.00 46.00 S 173.87 46.99, 175.00 46.00 S 179.02 38.31, 180.00 37.18 S 183.59 33.96, 185.00 34.47 S 188.73 39.99, 190.00 40.78 S 193.68 41.44, 195.00 40.72 S 198.76 36.15, 200.00 35.31 S 203.56 34.31, 205.00 33.91"
        fill="none">
        <animate attributeName="stroke-dashoffset"
            from="267.2567017265711" to="0" dur="2.2s"/>
        <animate attributeName="stroke-dasharray"
            from="267.2567017265711" to="267.2567017265711"/>
    </path>
    <circle r="4" cx="5" cy="46" fill="#3023AE"/>
    <circle r="4" cx="205" cy="33.906848684565574" fill="#C86DD7" opacity="0">
        <animate attributeName="opacity"
            from="0" to="1" dur="0.1s" begin="2.2s" fill="freeze"/>
    </circle>
</svg>