<svg width="200" height="50" viewBox="0 0 210 50" xmlns="http://www.w3.org/2000/svg">
    <!-- 1153 stargazers -->
    <!-- created at Wed Mar 25 2026 11:38:56 GMT+0000 (Coordinated Universal Time) -->
    <defs>
        <linearGradient id="stroke" x1="0%" y1="0%" x2="100%" y2="0%">
            <stop stop-color="#3023AE" offset="0%"/>
            <stop stop-color="#C86DD7" offset="100%"/>
        </linearGradient>
    </defs>
    <path stroke="url(#stroke)"
        stroke-width="3"
        stroke-linejoin="round"
        stroke-linecap="round"
        d="M5.00 46.0001 C 5.45 44.57, 9.53 31.60, 10.00 30.18 S 13.78 16.87, 15.00 16.00 S 18.71 22.29, 20.00 23.06 S 23.51 22.17, 25.00 22.00 S 28.50 22.07, 30.00 21.96 S 33.58 20.82, 35.00 21.31 S 38.65 24.71, 40.00 25.37 S 43.58 25.68, 45.00 26.15 S 48.73 27.92, 50.00 28.71 S 53.64 31.80, 55.00 32.44 S 58.55 33.83, 60.00 33.44 S 63.53 30.08, 65.00 29.78 S 68.54 31.07, 70.00 31.43 S 73.50 32.30, 75.00 32.24 S 78.50 31.11, 80.00 31.00 S 83.52 31.25, 85.00 31.49 S 88.50 32.48, 90.00 32.60 S 93.51 32.12, 95.00 32.28 S 98.50 33.79, 100.00 33.70 S 103.50 31.65, 105.00 31.67 S 108.58 33.35, 110.00 33.83 S 113.51 34.90, 115.00 35.05 S 118.51 35.02, 120.00 34.84 S 123.50 33.92, 125.00 33.86 S 128.53 34.72, 130.00 34.44 S 133.58 32.43, 135.00 31.94 S 138.72 30.23, 140.00 31.01 S 143.50 38.12, 145.00 38.05 S 148.85 31.50, 150.00 30.54 S 153.64 28.97, 155.00 29.61 S 158.83 34.33, 160.00 35.26 S 163.53 37.24, 165.00 37.57 S 168.85 36.48, 170.00 37.45 S 173.86 45.03, 175.00 46.00 S 178.79 46.88, 180.00 46.00 S 183.67 39.43, 185.00 38.74 S 188.63 41.42, 190.00 40.80 S 193.54 34.58, 195.00 34.24 S 198.74 37.67, 200.00 38.47 S 203.62 40.02, 205.00 40.62"
        fill="none">
        <animate attributeName="stroke-dashoffset"
            from="260.68542613666574" to="0" dur="2.2s"/>
        <animate attributeName="stroke-dasharray"
            from="260.68542613666574" to="260.68542613666574"/>
    </path>
    <circle r="4" cx="5" cy="46" fill="#3023AE"/>
    <circle r="4" cx="205" cy="40.615343667478946" fill="#C86DD7" opacity="0">
        <animate attributeName="opacity"
            from="0" to="1" dur="0.1s" begin="2.2s" fill="freeze"/>
    </circle>
</svg>