<svg width="200" height="50" viewBox="0 0 210 50" xmlns="http://www.w3.org/2000/svg">
    <!-- 1156 stargazers -->
    <!-- created at Tue Apr 07 2026 14:40:11 GMT+0000 (Coordinated Universal Time) -->
    <defs>
        <linearGradient id="stroke" x1="0%" y1="0%" x2="100%" y2="0%">
            <stop stop-color="#3023AE" offset="0%"/>
            <stop stop-color="#C86DD7" offset="100%"/>
        </linearGradient>
    </defs>
    <path stroke="url(#stroke)"
        stroke-width="3"
        stroke-linejoin="round"
        stroke-linecap="round"
        d="M5.00 46.0001 C 5.45 44.57, 9.53 31.46, 10.00 30.04 S 13.78 16.87, 15.00 16.00 S 18.70 22.17, 20.00 22.91 S 23.51 21.86, 25.00 21.73 S 28.50 22.07, 30.00 22.03 S 33.58 21.05, 35.00 21.52 S 38.59 24.81, 40.00 25.32 S 43.61 24.57, 45.00 25.14 S 48.79 28.55, 50.00 29.44 S 53.61 31.85, 55.00 32.41 S 58.54 33.75, 60.00 33.41 S 63.53 30.37, 65.00 30.08 S 68.51 31.26, 70.00 31.40 S 73.50 30.91, 75.00 30.97 S 78.50 31.82, 80.00 31.83 S 83.52 30.74, 85.00 31.01 S 88.50 33.54, 90.00 33.64 S 93.50 31.63, 95.00 31.73 S 98.50 34.32, 100.00 34.30 S 103.50 31.71, 105.00 31.64 S 108.55 33.42, 110.00 33.80 S 113.51 34.12, 115.00 34.27 S 118.50 34.77, 120.00 34.82 S 123.51 34.79, 125.00 34.61 S 128.55 34.00, 130.00 33.61 S 133.51 32.09, 135.00 31.91 S 138.65 31.76, 140.00 32.42 S 143.60 37.34, 145.00 36.80 S 148.62 29.10, 150.00 28.52 S 153.65 31.94, 155.00 32.59 S 158.86 32.29, 160.00 33.27 S 163.62 40.54, 165.00 41.12 S 168.65 36.77, 170.00 37.43 S 173.86 45.02, 175.00 46.00 S 178.88 47.00, 180.00 46.00 S 183.96 38.17, 185.00 37.09 S 188.52 35.37, 190.00 35.58 S 193.66 37.86, 195.00 38.54 S 198.58 41.14, 200.00 40.67 S 203.99 36.31, 205.00 35.21"
        fill="none">
        <animate attributeName="stroke-dashoffset"
            from="264.07807051527067" to="0" dur="2.2s"/>
        <animate attributeName="stroke-dasharray"
            from="264.07807051527067" to="264.07807051527067"/>
    </path>
    <circle r="4" cx="5" cy="46" fill="#3023AE"/>
    <circle r="4" cx="205" cy="35.20719916601968" fill="#C86DD7" opacity="0">
        <animate attributeName="opacity"
            from="0" to="1" dur="0.1s" begin="2.2s" fill="freeze"/>
    </circle>
</svg>