<svg width="200" height="50" viewBox="0 0 210 50" xmlns="http://www.w3.org/2000/svg">
    <!-- 1158 stargazers -->
    <!-- created at Sun Apr 26 2026 17:36:03 GMT+0000 (Coordinated Universal Time) -->
    <defs>
        <linearGradient id="stroke" x1="0%" y1="0%" x2="100%" y2="0%">
            <stop stop-color="#3023AE" offset="0%"/>
            <stop stop-color="#C86DD7" offset="100%"/>
        </linearGradient>
    </defs>
    <path stroke="url(#stroke)"
        stroke-width="3"
        stroke-linejoin="round"
        stroke-linecap="round"
        d="M5.00 46.0001 C 5.45 44.57, 9.53 31.36, 10.00 29.94 S 13.78 16.88, 15.00 16.00 S 18.69 21.99, 20.00 22.72 S 23.50 21.64, 25.00 21.52 S 28.50 21.89, 30.00 21.91 S 33.60 21.11, 35.00 21.66 S 38.58 25.36, 40.00 25.85 S 43.58 24.67, 45.00 25.14 S 48.83 28.24, 50.00 29.18 S 53.55 32.71, 55.00 33.11 S 58.53 32.22, 60.00 31.93 S 63.54 31.45, 65.00 31.11 S 68.53 29.29, 70.00 29.59 S 73.54 32.77, 75.00 33.10 S 78.56 32.25, 80.00 31.83 S 83.54 29.81, 85.00 30.15 S 88.51 34.06, 90.00 34.22 S 93.50 31.22, 95.00 31.23 S 98.50 34.24, 100.00 34.30 S 103.50 31.61, 105.00 31.64 S 108.55 34.12, 110.00 34.50 S 113.50 34.22, 115.00 34.27 S 118.51 34.64, 120.00 34.82 S 123.53 35.75, 125.00 35.46 S 128.69 33.59, 130.00 32.86 S 133.61 29.37, 135.00 29.94 S 138.65 36.30, 140.00 36.94 S 143.89 35.74, 145.00 34.73 S 148.51 28.09, 150.00 27.90 S 153.79 32.56, 155.00 33.45 S 158.61 34.67, 160.00 35.24 S 163.98 36.45, 165.00 37.55 S 168.85 45.03, 170.00 46.00 S 173.78 46.88, 175.00 46.00 S 178.67 39.50, 180.00 38.82 S 183.63 41.47, 185.00 40.86 S 188.54 34.69, 190.00 34.35 S 193.61 37.97, 195.00 38.54 S 198.58 38.93, 200.00 38.46 S 203.74 36.02, 205.00 35.21"
        fill="none">
        <animate attributeName="stroke-dashoffset"
            from="266.4372704059442" to="0" dur="2.2s"/>
        <animate attributeName="stroke-dasharray"
            from="266.4372704059442" to="266.4372704059442"/>
    </path>
    <circle r="4" cx="5" cy="46" fill="#3023AE"/>
    <circle r="4" cx="205" cy="35.207199166019905" fill="#C86DD7" opacity="0">
        <animate attributeName="opacity"
            from="0" to="1" dur="0.1s" begin="2.2s" fill="freeze"/>
    </circle>
</svg>