<svg width="200" height="50" viewBox="0 0 210 50" xmlns="http://www.w3.org/2000/svg">
    <!-- 1160 stargazers -->
    <!-- created at Wed May 06 2026 08:45:22 GMT+0000 (Coordinated Universal Time) -->
    <defs>
        <linearGradient id="stroke" x1="0%" y1="0%" x2="100%" y2="0%">
            <stop stop-color="#3023AE" offset="0%"/>
            <stop stop-color="#C86DD7" offset="100%"/>
        </linearGradient>
    </defs>
    <path stroke="url(#stroke)"
        stroke-width="3"
        stroke-linejoin="round"
        stroke-linecap="round"
        d="M5.00 46.0001 C 5.44 44.57, 9.53 31.22, 10.00 29.80 S 13.78 16.88, 15.00 16.00 S 18.67 21.88, 20.00 22.57 S 23.50 21.23, 25.00 21.14 S 28.50 21.87, 30.00 21.98 S 33.60 21.34, 35.00 21.88 S 38.58 25.33, 40.00 25.81 S 43.57 24.84, 45.00 25.29 S 48.80 27.99, 50.00 28.89 S 53.53 32.43, 55.00 32.72 S 58.50 30.84, 60.00 30.88 S 63.54 33.31, 65.00 32.97 S 68.51 28.39, 70.00 28.55 S 73.56 33.62, 75.00 34.03 S 78.60 31.91, 80.00 31.36 S 83.54 29.79, 85.00 30.12 S 88.53 33.31, 90.00 33.62 S 93.50 32.22, 95.00 32.22 S 98.50 33.65, 100.00 33.64 S 103.51 32.05, 105.00 32.17 S 108.53 34.17, 110.00 34.48 S 113.50 34.20, 115.00 34.25 S 118.50 34.86, 120.00 34.80 S 123.53 34.09, 125.00 33.80 S 128.60 33.38, 130.00 32.83 S 133.68 29.20, 135.00 29.90 S 138.54 37.81, 140.00 38.14 S 143.92 33.21, 145.00 32.17 S 148.57 28.02, 150.00 28.48 S 153.89 34.36, 155.00 35.37 S 158.53 37.33, 160.00 37.65 S 163.85 36.57, 165.00 37.53 S 168.86 45.03, 170.00 46.00 S 173.87 46.99, 175.00 46.00 S 178.79 38.07, 180.00 37.18 S 183.52 38.95, 185.00 38.71 S 188.53 35.26, 190.00 35.56 S 193.50 40.75, 195.00 40.72 S 198.69 36.03, 200.00 35.31 S 203.50 35.22, 205.00 35.18"
        fill="none">
        <animate attributeName="stroke-dashoffset"
            from="269.87993527046166" to="0" dur="2.2s"/>
        <animate attributeName="stroke-dasharray"
            from="269.87993527046166" to="269.87993527046166"/>
    </path>
    <circle r="4" cx="5" cy="46" fill="#3023AE"/>
    <circle r="4" cx="205" cy="35.18355663859905" fill="#C86DD7" opacity="0">
        <animate attributeName="opacity"
            from="0" to="1" dur="0.1s" begin="2.2s" fill="freeze"/>
    </circle>
</svg>