<svg width="200" height="50" viewBox="0 0 210 50" xmlns="http://www.w3.org/2000/svg">
    <!-- 1156 stargazers -->
    <!-- created at Sat Apr 11 2026 06:43:35 GMT+0000 (Coordinated Universal Time) -->
    <defs>
        <linearGradient id="stroke" x1="0%" y1="0%" x2="100%" y2="0%">
            <stop stop-color="#3023AE" offset="0%"/>
            <stop stop-color="#C86DD7" offset="100%"/>
        </linearGradient>
    </defs>
    <path stroke="url(#stroke)"
        stroke-width="3"
        stroke-linejoin="round"
        stroke-linecap="round"
        d="M5.00 46.0001 C 5.45 44.57, 9.53 31.46, 10.00 30.04 S 13.78 16.88, 15.00 16.00 S 18.70 22.06, 20.00 22.82 S 23.51 21.99, 25.00 21.84 S 28.50 21.84, 30.00 21.79 S 33.60 20.98, 35.00 21.52 S 38.58 25.19, 40.00 25.67 S 43.58 24.46, 45.00 24.95 S 48.84 28.23, 50.00 29.18 S 53.62 32.52, 55.00 33.11 S 58.56 33.85, 60.00 33.41 S 63.54 30.43, 65.00 30.08 S 68.51 30.82, 70.00 31.02 S 73.50 31.31, 75.00 31.37 S 78.50 31.51, 80.00 31.39 S 83.58 30.09, 85.00 30.58 S 88.50 34.73, 90.00 34.82 S 93.50 31.31, 95.00 31.23 S 98.51 34.16, 100.00 34.30 S 103.51 32.37, 105.00 32.20 S 108.56 32.74, 110.00 33.14 S 113.51 34.89, 115.00 35.03 S 118.50 33.98, 120.00 34.05 S 123.53 35.74, 125.00 35.46 S 128.59 32.65, 130.00 32.15 S 133.53 31.64, 135.00 31.91 S 138.65 33.36, 140.00 34.02 S 143.69 37.52, 145.00 36.80 S 148.66 29.19, 150.00 28.52 S 153.65 31.13, 155.00 31.77 S 158.90 32.24, 160.00 33.27 S 163.70 40.37, 165.00 41.12 S 168.65 38.34, 170.00 39.00 S 173.77 45.14, 175.00 46.00 S 178.88 47.00, 180.00 46.00 S 184.02 38.23, 185.00 37.09 S 188.59 33.84, 190.00 34.35 S 193.73 39.93, 195.00 40.73 S 198.69 41.39, 200.00 40.67 S 203.99 36.31, 205.00 35.21"
        fill="none">
        <animate attributeName="stroke-dashoffset"
            from="266.60863831426025" to="0" dur="2.2s"/>
        <animate attributeName="stroke-dasharray"
            from="266.60863831426025" to="266.60863831426025"/>
    </path>
    <circle r="4" cx="5" cy="46" fill="#3023AE"/>
    <circle r="4" cx="205" cy="35.207199166019954" fill="#C86DD7" opacity="0">
        <animate attributeName="opacity"
            from="0" to="1" dur="0.1s" begin="2.2s" fill="freeze"/>
    </circle>
</svg>