<svg width="200" height="50" viewBox="0 0 210 50" xmlns="http://www.w3.org/2000/svg">
    <!-- 1158 stargazers -->
    <!-- created at Thu Apr 23 2026 17:29:08 GMT+0000 (Coordinated Universal Time) -->
    <defs>
        <linearGradient id="stroke" x1="0%" y1="0%" x2="100%" y2="0%">
            <stop stop-color="#3023AE" offset="0%"/>
            <stop stop-color="#C86DD7" offset="100%"/>
        </linearGradient>
    </defs>
    <path stroke="url(#stroke)"
        stroke-width="3"
        stroke-linejoin="round"
        stroke-linecap="round"
        d="M5.00 46.0001 C 5.45 44.57, 9.53 31.36, 10.00 29.94 S 13.78 16.88, 15.00 16.00 S 18.69 21.99, 20.00 22.72 S 23.50 21.64, 25.00 21.52 S 28.50 21.87, 30.00 21.91 S 33.60 21.26, 35.00 21.79 S 38.58 25.20, 40.00 25.67 S 43.58 24.64, 45.00 25.14 S 48.85 28.22, 50.00 29.18 S 53.55 33.07, 55.00 33.47 S 58.53 32.22, 60.00 31.93 S 63.54 31.81, 65.00 31.47 S 68.51 29.41, 70.00 29.59 S 73.52 32.38, 75.00 32.65 S 78.54 31.76, 80.00 31.39 S 83.56 29.75, 85.00 30.15 S 88.52 33.99, 90.00 34.22 S 93.50 31.81, 95.00 31.73 S 98.50 33.68, 100.00 33.67 S 103.52 31.41, 105.00 31.64 S 108.58 34.76, 110.00 35.24 S 113.53 35.31, 115.00 35.03 S 118.50 33.26, 120.00 33.32 S 123.50 35.53, 125.00 35.46 S 128.65 33.52, 130.00 32.86 S 133.61 30.00, 135.00 30.57 S 138.57 36.48, 140.00 36.94 S 143.82 34.75, 145.00 33.83 S 148.51 29.34, 150.00 29.15 S 153.66 31.91, 155.00 32.59 S 158.66 33.55, 160.00 34.21 S 164.03 36.40, 165.00 37.55 S 168.85 45.03, 170.00 46.00 S 173.66 46.68, 175.00 46.00 S 178.79 41.80, 180.00 40.92 S 183.75 39.55, 185.00 38.72 S 188.50 34.38, 190.00 34.35 S 193.73 37.74, 195.00 38.54 S 198.64 41.29, 200.00 40.67 S 204.11 35.14, 205.00 33.93"
        fill="none">
        <animate attributeName="stroke-dashoffset"
            from="262.6675894948501" to="0" dur="2.2s"/>
        <animate attributeName="stroke-dasharray"
            from="262.6675894948501" to="262.6675894948501"/>
    </path>
    <circle r="4" cx="5" cy="46" fill="#3023AE"/>
    <circle r="4" cx="205" cy="33.93328183380186" fill="#C86DD7" opacity="0">
        <animate attributeName="opacity"
            from="0" to="1" dur="0.1s" begin="2.2s" fill="freeze"/>
    </circle>
</svg>