<svg width="200" height="50" viewBox="0 0 210 50" xmlns="http://www.w3.org/2000/svg">
    <!-- 1152 stargazers -->
    <!-- created at Thu Mar 19 2026 03:45:12 GMT+0000 (Coordinated Universal Time) -->
    <defs>
        <linearGradient id="stroke" x1="0%" y1="0%" x2="100%" y2="0%">
            <stop stop-color="#3023AE" offset="0%"/>
            <stop stop-color="#C86DD7" offset="100%"/>
        </linearGradient>
    </defs>
    <path stroke="url(#stroke)"
        stroke-width="3"
        stroke-linejoin="round"
        stroke-linecap="round"
        d="M5.00 46.0001 C 5.45 44.57, 9.53 31.43, 10.00 30.00 S 13.81 16.91, 15.00 16.00 S 18.71 21.56, 20.00 22.31 S 23.50 21.96, 25.00 21.85 S 28.50 21.68, 30.00 21.57 S 33.62 20.58, 35.00 21.17 S 38.61 25.30, 40.00 25.86 S 43.54 24.80, 45.00 25.15 S 48.82 27.35, 50.00 28.28 S 53.62 32.40, 55.00 32.99 S 58.57 32.97, 60.00 32.53 S 63.52 30.18, 65.00 29.94 S 68.55 30.51, 70.00 30.88 S 73.50 32.60, 75.00 32.53 S 78.51 30.60, 80.00 30.42 S 83.55 30.96, 85.00 31.33 S 88.50 32.86, 90.00 32.98 S 93.50 32.13, 95.00 32.13 S 98.50 32.87, 100.00 32.95 S 103.50 32.76, 105.00 32.67 S 108.54 32.07, 110.00 32.40 S 113.54 34.59, 115.00 34.93 S 118.51 34.90, 120.00 34.72 S 123.50 33.78, 125.00 33.72 S 128.51 34.49, 130.00 34.31 S 133.61 33.09, 135.00 32.52 S 138.68 29.46, 140.00 30.17 S 143.58 37.48, 145.00 37.96 S 148.93 34.58, 150.00 33.53 S 153.52 27.86, 155.00 28.10 S 158.76 34.29, 160.00 35.14 S 163.54 34.67, 165.00 34.99 S 168.99 36.24, 170.00 37.35 S 173.87 45.02, 175.00 46.00 S 178.67 46.69, 180.00 46.00 S 183.80 41.70, 185.00 40.81 S 188.75 39.40, 190.00 38.57 S 193.50 34.13, 195.00 34.11 S 199.03 37.24, 200.00 38.39 S 204.18 44.75, 205.00 46.00"
        fill="none">
        <animate attributeName="stroke-dashoffset"
            from="263.0413535830136" to="0" dur="2.2s"/>
        <animate attributeName="stroke-dasharray"
            from="263.0413535830136" to="263.0413535830136"/>
    </path>
    <circle r="4" cx="5" cy="46" fill="#3023AE"/>
    <circle r="4" cx="205" cy="46" fill="#C86DD7" opacity="0">
        <animate attributeName="opacity"
            from="0" to="1" dur="0.1s" begin="2.2s" fill="freeze"/>
    </circle>
</svg>