<svg width="200" height="50" viewBox="0 0 210 50" xmlns="http://www.w3.org/2000/svg">
    <!-- 1161 stargazers -->
    <!-- created at Sat May 09 2026 16:42:53 GMT+0000 (Coordinated Universal Time) -->
    <defs>
        <linearGradient id="stroke" x1="0%" y1="0%" x2="100%" y2="0%">
            <stop stop-color="#3023AE" offset="0%"/>
            <stop stop-color="#C86DD7" offset="100%"/>
        </linearGradient>
    </defs>
    <path stroke="url(#stroke)"
        stroke-width="3"
        stroke-linejoin="round"
        stroke-linecap="round"
        d="M5.00 46.0001 C 5.44 44.57, 9.53 31.22, 10.00 29.80 S 13.79 16.89, 15.00 16.00 S 18.67 21.77, 20.00 22.47 S 23.50 21.34, 25.00 21.25 S 28.50 21.74, 30.00 21.86 S 33.60 21.46, 35.00 22.01 S 38.57 25.34, 40.00 25.81 S 43.57 24.84, 45.00 25.29 S 48.80 27.99, 50.00 28.89 S 53.53 32.43, 55.00 32.72 S 58.50 30.90, 60.00 30.88 S 63.53 32.86, 65.00 32.57 S 68.52 28.66, 70.00 28.88 S 73.54 33.67, 75.00 34.03 S 78.60 31.91, 80.00 31.36 S 83.54 29.79, 85.00 30.12 S 88.53 33.31, 90.00 33.62 S 93.50 32.22, 95.00 32.22 S 98.50 33.65, 100.00 33.64 S 103.50 32.15, 105.00 32.17 S 108.56 33.37, 110.00 33.78 S 113.51 34.85, 115.00 35.01 S 118.51 34.98, 120.00 34.80 S 123.53 34.09, 125.00 33.80 S 128.60 33.38, 130.00 32.83 S 133.68 29.20, 135.00 29.90 S 138.50 38.02, 140.00 38.14 S 143.85 31.67, 145.00 30.71 S 148.64 29.14, 150.00 29.78 S 153.82 34.44, 155.00 35.37 S 158.53 37.33, 160.00 37.65 S 163.85 36.57, 165.00 37.53 S 168.86 45.03, 170.00 46.00 S 173.87 46.99, 175.00 46.00 S 178.88 38.18, 180.00 37.18 S 183.50 37.10, 185.00 37.07 S 188.59 36.44, 190.00 36.96 S 193.52 40.96, 195.00 40.72 S 198.76 36.15, 200.00 35.31 S 203.56 34.31, 205.00 33.91"
        fill="none">
        <animate attributeName="stroke-dashoffset"
            from="265.37581789795587" to="0" dur="2.2s"/>
        <animate attributeName="stroke-dasharray"
            from="265.37581789795587" to="265.37581789795587"/>
    </path>
    <circle r="4" cx="5" cy="46" fill="#3023AE"/>
    <circle r="4" cx="205" cy="33.906848684565695" fill="#C86DD7" opacity="0">
        <animate attributeName="opacity"
            from="0" to="1" dur="0.1s" begin="2.2s" fill="freeze"/>
    </circle>
</svg>