<svg width="200" height="50" viewBox="0 0 210 50" xmlns="http://www.w3.org/2000/svg">
    <!-- 1156 stargazers -->
    <!-- created at Mon Apr 20 2026 16:59:02 GMT+0000 (Coordinated Universal Time) -->
    <defs>
        <linearGradient id="stroke" x1="0%" y1="0%" x2="100%" y2="0%">
            <stop stop-color="#3023AE" offset="0%"/>
            <stop stop-color="#C86DD7" offset="100%"/>
        </linearGradient>
    </defs>
    <path stroke="url(#stroke)"
        stroke-width="3"
        stroke-linejoin="round"
        stroke-linecap="round"
        d="M5.00 46.0001 C 5.45 44.57, 9.53 31.36, 10.00 29.94 S 13.78 16.88, 15.00 16.00 S 18.69 21.98, 20.00 22.72 S 23.51 21.76, 25.00 21.62 S 28.50 21.72, 30.00 21.79 S 33.59 21.57, 35.00 22.07 S 38.57 24.88, 40.00 25.32 S 43.60 24.60, 45.00 25.14 S 48.85 28.22, 50.00 29.18 S 53.55 33.07, 55.00 33.47 S 58.53 32.22, 60.00 31.93 S 63.54 31.81, 65.00 31.47 S 68.51 29.41, 70.00 29.59 S 73.52 32.38, 75.00 32.65 S 78.53 31.70, 80.00 31.39 S 83.58 30.09, 85.00 30.58 S 88.50 34.80, 90.00 34.82 S 93.51 30.92, 95.00 30.75 S 98.53 33.37, 100.00 33.67 S 103.51 32.66, 105.00 32.79 S 108.52 34.28, 110.00 34.50 S 113.50 34.34, 115.00 34.27 S 118.51 33.87, 120.00 34.05 S 123.53 35.74, 125.00 35.46 S 128.65 32.81, 130.00 32.15 S 133.65 29.92, 135.00 30.57 S 138.62 36.37, 140.00 36.94 S 143.85 35.70, 145.00 34.73 S 148.51 28.71, 150.00 28.52 S 153.65 32.81, 155.00 33.45 S 158.61 32.70, 160.00 33.27 S 164.07 36.37, 165.00 37.55 S 168.85 45.03, 170.00 46.00 S 173.66 46.68, 175.00 46.00 S 178.79 41.80, 180.00 40.92 S 183.75 39.55, 185.00 38.72 S 188.50 34.38, 190.00 34.35 S 194.02 37.41, 195.00 38.54 S 198.58 46.47, 200.00 46.00 S 204.37 36.57, 205.00 35.21"
        fill="none">
        <animate attributeName="stroke-dashoffset"
            from="271.10892339374976" to="0" dur="2.2s"/>
        <animate attributeName="stroke-dasharray"
            from="271.10892339374976" to="271.10892339374976"/>
    </path>
    <circle r="4" cx="5" cy="46" fill="#3023AE"/>
    <circle r="4" cx="205" cy="35.20719916601978" fill="#C86DD7" opacity="0">
        <animate attributeName="opacity"
            from="0" to="1" dur="0.1s" begin="2.2s" fill="freeze"/>
    </circle>
</svg>