<svg width="200" height="50" viewBox="0 0 210 50" xmlns="http://www.w3.org/2000/svg">
    <!-- 1152 stargazers -->
    <!-- created at Wed Mar 04 2026 16:40:32 GMT+0000 (Coordinated Universal Time) -->
    <defs>
        <linearGradient id="stroke" x1="0%" y1="0%" x2="100%" y2="0%">
            <stop stop-color="#3023AE" offset="0%"/>
            <stop stop-color="#C86DD7" offset="100%"/>
        </linearGradient>
    </defs>
    <path stroke="url(#stroke)"
        stroke-width="3"
        stroke-linejoin="round"
        stroke-linecap="round"
        d="M5.00 46.0001 C 5.46 44.57, 9.53 31.78, 10.00 30.35 S 13.82 16.92, 15.00 16.00 S 18.69 21.83, 20.00 22.56 S 23.50 21.69, 25.00 21.57 S 28.50 21.78, 30.00 21.75 S 33.60 20.83, 35.00 21.36 S 38.60 25.00, 40.00 25.54 S 43.55 24.79, 45.00 25.19 S 48.80 27.42, 50.00 28.31 S 53.68 31.95, 55.00 32.66 S 58.58 34.21, 60.00 33.73 S 63.54 29.67, 65.00 29.32 S 68.57 30.84, 70.00 31.30 S 73.51 32.68, 75.00 32.56 S 78.52 30.70, 80.00 30.45 S 83.53 30.61, 85.00 30.91 S 88.54 32.14, 90.00 32.48 S 93.50 33.28, 95.00 33.27 S 98.50 32.40, 100.00 32.40 S 103.50 33.22, 105.00 33.32 S 108.50 33.03, 110.00 33.06 S 113.52 33.23, 115.00 33.48 S 118.51 34.59, 120.00 34.75 S 123.50 34.47, 125.00 34.54 S 128.51 35.38, 130.00 35.20 S 133.66 33.99, 135.00 33.32 S 138.58 29.72, 140.00 30.21 S 143.67 36.04, 145.00 36.74 S 148.90 36.50, 150.00 35.48 S 153.54 27.85, 155.00 27.51 S 158.69 32.46, 160.00 33.18 S 163.82 32.08, 165.00 33.00 S 168.71 40.26, 170.00 41.02 S 173.66 38.19, 175.00 38.86 S 178.78 45.13, 180.00 46.00 S 183.89 47.01, 185.00 46.00 S 188.90 37.93, 190.00 36.92 S 193.50 36.84, 195.00 36.81 S 198.60 36.17, 200.00 36.70 S 203.81 39.65, 205.00 40.57"
        fill="none">
        <animate attributeName="stroke-dashoffset"
            from="262.3006247001961" to="0" dur="2.2s"/>
        <animate attributeName="stroke-dasharray"
            from="262.3006247001961" to="262.3006247001961"/>
    </path>
    <circle r="4" cx="5" cy="46" fill="#3023AE"/>
    <circle r="4" cx="205" cy="40.56790084478467" fill="#C86DD7" opacity="0">
        <animate attributeName="opacity"
            from="0" to="1" dur="0.1s" begin="2.2s" fill="freeze"/>
    </circle>
</svg>