<svg width="200" height="50" viewBox="0 0 210 50" xmlns="http://www.w3.org/2000/svg">
    <!-- 1156 stargazers -->
    <!-- created at Tue Apr 14 2026 08:59:47 GMT+0000 (Coordinated Universal Time) -->
    <defs>
        <linearGradient id="stroke" x1="0%" y1="0%" x2="100%" y2="0%">
            <stop stop-color="#3023AE" offset="0%"/>
            <stop stop-color="#C86DD7" offset="100%"/>
        </linearGradient>
    </defs>
    <path stroke="url(#stroke)"
        stroke-width="3"
        stroke-linejoin="round"
        stroke-linecap="round"
        d="M5.00 46.0001 C 5.45 44.57, 9.53 31.36, 10.00 29.94 S 13.77 16.86, 15.00 16.00 S 18.70 22.17, 20.00 22.91 S 23.51 21.90, 25.00 21.73 S 28.50 21.80, 30.00 21.79 S 33.59 21.13, 35.00 21.66 S 38.58 25.00, 40.00 25.50 S 43.59 24.62, 45.00 25.14 S 48.83 28.24, 50.00 29.18 S 53.58 32.61, 55.00 33.11 S 58.54 32.99, 60.00 32.65 S 63.53 31.05, 65.00 30.76 S 68.51 30.49, 70.00 30.65 S 73.50 31.67, 75.00 31.78 S 78.51 31.57, 80.00 31.39 S 83.56 30.17, 85.00 30.58 S 88.51 34.05, 90.00 34.22 S 93.50 31.72, 95.00 31.73 S 98.50 34.32, 100.00 34.30 S 103.50 31.71, 105.00 31.64 S 108.58 33.32, 110.00 33.80 S 113.50 35.10, 115.00 35.03 S 118.51 33.12, 120.00 33.32 S 123.52 36.65, 125.00 36.38 S 128.60 32.00, 130.00 31.47 S 133.55 32.27, 135.00 32.64 S 138.62 33.44, 140.00 34.02 S 143.72 37.58, 145.00 36.80 S 148.62 28.49, 150.00 27.90 S 153.68 31.88, 155.00 32.59 S 158.74 32.45, 160.00 33.27 S 163.82 38.18, 165.00 39.10 S 168.77 40.20, 170.00 41.05 S 173.50 46.02, 175.00 46.00 S 178.79 41.80, 180.00 40.92 S 183.75 39.55, 185.00 38.72 S 188.53 34.06, 190.00 34.35 S 193.73 39.93, 195.00 40.73 S 198.69 41.39, 200.00 40.67 S 203.99 36.31, 205.00 35.21"
        fill="none">
        <animate attributeName="stroke-dashoffset"
            from="262.7316050392835" to="0" dur="2.2s"/>
        <animate attributeName="stroke-dasharray"
            from="262.7316050392835" to="262.7316050392835"/>
    </path>
    <circle r="4" cx="5" cy="46" fill="#3023AE"/>
    <circle r="4" cx="205" cy="35.207199166019855" fill="#C86DD7" opacity="0">
        <animate attributeName="opacity"
            from="0" to="1" dur="0.1s" begin="2.2s" fill="freeze"/>
    </circle>
</svg>