<svg width="200" height="50" viewBox="0 0 210 50" xmlns="http://www.w3.org/2000/svg">
    <!-- 1152 stargazers -->
    <!-- created at Thu Mar 12 2026 19:17:32 GMT+0000 (Coordinated Universal Time) -->
    <defs>
        <linearGradient id="stroke" x1="0%" y1="0%" x2="100%" y2="0%">
            <stop stop-color="#3023AE" offset="0%"/>
            <stop stop-color="#C86DD7" offset="100%"/>
        </linearGradient>
    </defs>
    <path stroke="url(#stroke)"
        stroke-width="3"
        stroke-linejoin="round"
        stroke-linecap="round"
        d="M5.00 46.0001 C 5.45 44.57, 9.53 31.67, 10.00 30.25 S 13.82 16.93, 15.00 16.00 S 18.70 21.61, 20.00 22.36 S 23.50 21.90, 25.00 21.79 S 28.50 21.67, 30.00 21.63 S 33.60 20.95, 35.00 21.50 S 38.59 25.02, 40.00 25.54 S 43.55 24.79, 45.00 25.19 S 48.82 27.39, 50.00 28.31 S 53.64 32.39, 55.00 33.02 S 58.57 33.38, 60.00 32.94 S 63.53 30.27, 65.00 29.97 S 68.55 30.54, 70.00 30.92 S 73.50 32.56, 75.00 32.56 S 78.52 31.11, 80.00 30.87 S 83.52 30.67, 85.00 30.91 S 88.52 32.22, 90.00 32.48 S 93.50 32.71, 95.00 32.70 S 98.50 32.31, 100.00 32.40 S 103.51 33.12, 105.00 33.32 S 108.50 33.70, 110.00 33.72 S 113.51 33.33, 115.00 33.48 S 118.51 34.59, 120.00 34.75 S 123.51 34.72, 125.00 34.54 S 128.50 33.59, 130.00 33.53 S 133.64 34.76, 135.00 34.14 S 138.60 28.41, 140.00 28.94 S 143.74 37.16, 145.00 37.98 S 148.90 36.50, 150.00 35.48 S 153.57 29.24, 155.00 28.79 S 158.67 31.61, 160.00 32.30 S 163.66 33.29, 165.00 33.97 S 169.04 36.22, 170.00 37.37 S 173.86 45.02, 175.00 46.00 S 178.67 46.69, 180.00 46.00 S 183.80 41.71, 185.00 40.82 S 188.75 39.42, 190.00 38.58 S 193.53 33.83, 195.00 34.13 S 198.74 39.82, 200.00 40.63 S 203.50 40.59, 205.00 40.57"
        fill="none">
        <animate attributeName="stroke-dashoffset"
            from="260.05372091851297" to="0" dur="2.2s"/>
        <animate attributeName="stroke-dasharray"
            from="260.05372091851297" to="260.05372091851297"/>
    </path>
    <circle r="4" cx="5" cy="46" fill="#3023AE"/>
    <circle r="4" cx="205" cy="40.567900844784745" fill="#C86DD7" opacity="0">
        <animate attributeName="opacity"
            from="0" to="1" dur="0.1s" begin="2.2s" fill="freeze"/>
    </circle>
</svg>