<svg width="200" height="50" viewBox="0 0 210 50" xmlns="http://www.w3.org/2000/svg">
    <!-- 1152 stargazers -->
    <!-- created at Mon Mar 09 2026 16:05:52 GMT+0000 (Coordinated Universal Time) -->
    <defs>
        <linearGradient id="stroke" x1="0%" y1="0%" x2="100%" y2="0%">
            <stop stop-color="#3023AE" offset="0%"/>
            <stop stop-color="#C86DD7" offset="100%"/>
        </linearGradient>
    </defs>
    <path stroke="url(#stroke)"
        stroke-width="3"
        stroke-linejoin="round"
        stroke-linecap="round"
        d="M5.00 46.0001 C 5.45 44.57, 9.53 31.63, 10.00 30.21 S 13.82 16.92, 15.00 16.00 S 18.69 21.68, 20.00 22.41 S 23.51 21.77, 25.00 21.63 S 28.50 21.46, 30.00 21.45 S 33.60 21.04, 35.00 21.58 S 38.59 24.81, 40.00 25.32 S 43.56 24.72, 45.00 25.15 S 48.82 27.35, 50.00 28.28 S 53.64 32.36, 55.00 32.99 S 58.57 33.35, 60.00 32.91 S 63.53 30.24, 65.00 29.94 S 68.55 30.51, 70.00 30.88 S 73.50 32.53, 75.00 32.53 S 78.52 31.08, 80.00 30.84 S 83.52 30.64, 85.00 30.88 S 88.54 32.10, 90.00 32.45 S 93.50 33.34, 95.00 33.24 S 98.50 31.81, 100.00 31.82 S 103.53 33.02, 105.00 33.29 S 108.50 33.67, 110.00 33.70 S 113.51 33.30, 115.00 33.45 S 118.51 34.56, 120.00 34.72 S 123.50 34.45, 125.00 34.51 S 128.51 35.36, 130.00 35.18 S 133.73 34.09, 135.00 33.29 S 138.72 28.12, 140.00 28.91 S 143.64 38.81, 145.00 39.44 S 148.98 34.62, 150.00 33.53 S 153.50 28.80, 155.00 28.75 S 158.62 32.57, 160.00 33.16 S 163.62 32.39, 165.00 32.97 S 169.09 36.16, 170.00 37.35 S 173.87 45.02, 175.00 46.00 S 178.50 46.00, 180.00 46.00 S 183.89 47.01, 185.00 46.00 S 189.03 38.05, 190.00 36.90 S 193.59 33.58, 195.00 34.11 S 198.74 39.81, 200.00 40.62 S 203.50 40.57, 205.00 40.56"
        fill="none">
        <animate attributeName="stroke-dashoffset"
            from="264.84469922336615" to="0" dur="2.2s"/>
        <animate attributeName="stroke-dasharray"
            from="264.84469922336615" to="264.84469922336615"/>
    </path>
    <circle r="4" cx="5" cy="46" fill="#3023AE"/>
    <circle r="4" cx="205" cy="40.55584289619604" fill="#C86DD7" opacity="0">
        <animate attributeName="opacity"
            from="0" to="1" dur="0.1s" begin="2.2s" fill="freeze"/>
    </circle>
</svg>