<svg width="200" height="50" viewBox="0 0 210 50" xmlns="http://www.w3.org/2000/svg">
    <!-- 1159 stargazers -->
    <!-- created at Sun May 03 2026 07:14:56 GMT+0000 (Coordinated Universal Time) -->
    <defs>
        <linearGradient id="stroke" x1="0%" y1="0%" x2="100%" y2="0%">
            <stop stop-color="#3023AE" offset="0%"/>
            <stop stop-color="#C86DD7" offset="100%"/>
        </linearGradient>
    </defs>
    <path stroke="url(#stroke)"
        stroke-width="3"
        stroke-linejoin="round"
        stroke-linecap="round"
        d="M5.00 46.0001 C 5.44 44.57, 9.53 31.22, 10.00 29.80 S 13.78 16.88, 15.00 16.00 S 18.67 21.88, 20.00 22.57 S 23.50 21.19, 25.00 21.14 S 28.50 22.16, 30.00 22.23 S 33.60 21.07, 35.00 21.60 S 38.58 25.50, 40.00 25.99 S 43.56 24.68, 45.00 25.10 S 48.83 27.95, 50.00 28.89 S 53.54 32.74, 55.00 33.08 S 58.51 31.34, 60.00 31.21 S 63.54 32.52, 65.00 32.18 S 68.52 28.61, 70.00 28.88 S 73.56 33.61, 75.00 34.03 S 78.62 32.39, 80.00 31.80 S 83.54 29.36, 85.00 29.71 S 88.52 33.97, 90.00 34.19 S 93.50 31.28, 95.00 31.20 S 98.52 33.41, 100.00 33.64 S 103.50 32.74, 105.00 32.76 S 108.52 33.56, 110.00 33.78 S 113.51 34.09, 115.00 34.25 S 118.51 34.62, 120.00 34.80 S 123.53 35.73, 125.00 35.44 S 128.76 33.67, 130.00 32.83 S 133.76 27.87, 135.00 28.71 S 138.66 38.90, 140.00 39.58 S 144.05 34.96, 145.00 33.80 S 148.52 27.04, 150.00 27.27 S 153.89 34.36, 155.00 35.37 S 158.53 36.04, 160.00 36.35 S 163.92 36.49, 165.00 37.53 S 168.86 45.03, 170.00 46.00 S 173.78 46.88, 175.00 46.00 S 178.79 39.68, 180.00 38.80 S 183.63 39.32, 185.00 38.71 S 188.53 34.03, 190.00 34.33 S 193.51 40.57, 195.00 40.72 S 198.61 35.87, 200.00 35.31 S 203.55 36.25, 205.00 36.63"
        fill="none">
        <animate attributeName="stroke-dashoffset"
            from="277.13887430808126" to="0" dur="2.2s"/>
        <animate attributeName="stroke-dasharray"
            from="277.13887430808126" to="277.13887430808126"/>
    </path>
    <circle r="4" cx="5" cy="46" fill="#3023AE"/>
    <circle r="4" cx="205" cy="36.632685270431104" fill="#C86DD7" opacity="0">
        <animate attributeName="opacity"
            from="0" to="1" dur="0.1s" begin="2.2s" fill="freeze"/>
    </circle>
</svg>