<svg width="200" height="50" viewBox="0 0 210 50" xmlns="http://www.w3.org/2000/svg">
    <!-- 1156 stargazers -->
    <!-- created at Fri Apr 17 2026 13:26:11 GMT+0000 (Coordinated Universal Time) -->
    <defs>
        <linearGradient id="stroke" x1="0%" y1="0%" x2="100%" y2="0%">
            <stop stop-color="#3023AE" offset="0%"/>
            <stop stop-color="#C86DD7" offset="100%"/>
        </linearGradient>
    </defs>
    <path stroke="url(#stroke)"
        stroke-width="3"
        stroke-linejoin="round"
        stroke-linecap="round"
        d="M5.00 46.0001 C 5.45 44.57, 9.53 31.36, 10.00 29.94 S 13.77 16.86, 15.00 16.00 S 18.70 22.17, 20.00 22.91 S 23.51 21.92, 25.00 21.73 S 28.50 21.66, 30.00 21.67 S 33.59 21.28, 35.00 21.79 S 38.58 24.84, 40.00 25.32 S 43.61 24.57, 45.00 25.14 S 48.83 28.50, 50.00 29.44 S 53.54 32.74, 55.00 33.11 S 58.52 32.17, 60.00 31.93 S 63.51 31.66, 65.00 31.47 S 68.50 30.60, 70.00 30.65 S 73.50 31.74, 75.00 31.78 S 78.50 31.08, 80.00 30.97 S 83.57 30.55, 85.00 31.01 S 88.50 34.26, 90.00 34.22 S 93.50 30.73, 95.00 30.75 S 98.53 34.00, 100.00 34.30 S 103.50 32.86, 105.00 32.79 S 108.52 33.58, 110.00 33.80 S 113.50 34.24, 115.00 34.27 S 118.51 33.87, 120.00 34.05 S 123.53 35.74, 125.00 35.46 S 128.56 32.56, 130.00 32.15 S 133.53 32.36, 135.00 32.64 S 138.57 33.58, 140.00 34.02 S 143.72 36.49, 145.00 35.71 S 148.54 28.23, 150.00 27.90 S 153.68 32.74, 155.00 33.45 S 158.61 32.70, 160.00 33.27 S 164.07 36.37, 165.00 37.55 S 168.85 45.03, 170.00 46.00 S 173.66 46.68, 175.00 46.00 S 178.79 41.80, 180.00 40.92 S 183.75 39.55, 185.00 38.72 S 188.50 34.38, 190.00 34.35 S 194.02 37.41, 195.00 38.54 S 198.58 46.47, 200.00 46.00 S 204.37 36.57, 205.00 35.21"
        fill="none">
        <animate attributeName="stroke-dashoffset"
            from="267.3780332169801" to="0" dur="2.2s"/>
        <animate attributeName="stroke-dasharray"
            from="267.3780332169801" to="267.3780332169801"/>
    </path>
    <circle r="4" cx="5" cy="46" fill="#3023AE"/>
    <circle r="4" cx="205" cy="35.20719916601985" fill="#C86DD7" opacity="0">
        <animate attributeName="opacity"
            from="0" to="1" dur="0.1s" begin="2.2s" fill="freeze"/>
    </circle>
</svg>