<svg width="200" height="50" viewBox="0 0 210 50" xmlns="http://www.w3.org/2000/svg">
    <!-- 1152 stargazers -->
    <!-- created at Sun Mar 22 2026 08:24:53 GMT+0000 (Coordinated Universal Time) -->
    <defs>
        <linearGradient id="stroke" x1="0%" y1="0%" x2="100%" y2="0%">
            <stop stop-color="#3023AE" offset="0%"/>
            <stop stop-color="#C86DD7" offset="100%"/>
        </linearGradient>
    </defs>
    <path stroke="url(#stroke)"
        stroke-width="3"
        stroke-linejoin="round"
        stroke-linecap="round"
        d="M5.00 46.0001 C 5.45 44.57, 9.53 31.50, 10.00 30.07 S 13.80 16.90, 15.00 16.00 S 18.71 21.85, 20.00 22.61 S 23.51 22.09, 25.00 21.96 S 28.50 21.80, 30.00 21.68 S 33.60 20.60, 35.00 21.14 S 38.63 24.97, 40.00 25.58 S 43.56 25.20, 45.00 25.63 S 48.77 27.74, 50.00 28.60 S 53.63 32.09, 55.00 32.69 S 58.56 33.40, 60.00 32.97 S 63.52 29.92, 65.00 29.68 S 68.54 30.97, 70.00 31.33 S 73.50 32.21, 75.00 32.15 S 78.50 31.02, 80.00 30.90 S 83.52 31.16, 85.00 31.40 S 88.51 32.31, 90.00 32.51 S 93.50 32.66, 95.00 32.73 S 98.51 33.18, 100.00 33.01 S 103.50 31.46, 105.00 31.58 S 108.58 33.27, 110.00 33.75 S 113.51 34.83, 115.00 34.98 S 118.51 34.95, 120.00 34.77 S 123.50 33.84, 125.00 33.78 S 128.51 34.54, 130.00 34.36 S 133.61 33.15, 135.00 32.58 S 138.68 29.53, 140.00 30.24 S 143.52 37.75, 145.00 38.00 S 148.89 32.94, 150.00 31.92 S 153.57 28.36, 155.00 28.82 S 158.79 34.30, 160.00 35.19 S 163.54 35.87, 165.00 36.20 S 168.93 36.34, 170.00 37.39 S 173.86 45.02, 175.00 46.00 S 178.79 46.89, 180.00 46.00 S 183.67 39.39, 185.00 38.69 S 188.63 41.39, 190.00 40.77 S 193.54 34.50, 195.00 34.16 S 199.03 37.28, 200.00 38.42 S 204.17 44.75, 205.00 46.00"
        fill="none">
        <animate attributeName="stroke-dashoffset"
            from="264.6488293394407" to="0" dur="2.2s"/>
        <animate attributeName="stroke-dasharray"
            from="264.6488293394407" to="264.6488293394407"/>
    </path>
    <circle r="4" cx="5" cy="46" fill="#3023AE"/>
    <circle r="4" cx="205" cy="46" fill="#C86DD7" opacity="0">
        <animate attributeName="opacity"
            from="0" to="1" dur="0.1s" begin="2.2s" fill="freeze"/>
    </circle>
</svg>