<svg width="200" height="50" viewBox="0 0 210 50" xmlns="http://www.w3.org/2000/svg">
    <!-- 1156 stargazers -->
    <!-- created at Wed Apr 01 2026 02:18:35 GMT+0000 (Coordinated Universal Time) -->
    <defs>
        <linearGradient id="stroke" x1="0%" y1="0%" x2="100%" y2="0%">
            <stop stop-color="#3023AE" offset="0%"/>
            <stop stop-color="#C86DD7" offset="100%"/>
        </linearGradient>
    </defs>
    <path stroke="url(#stroke)"
        stroke-width="3"
        stroke-linejoin="round"
        stroke-linecap="round"
        d="M5.00 46.0001 C 5.45 44.57, 9.53 31.46, 10.00 30.04 S 13.77 16.86, 15.00 16.00 S 18.70 22.27, 20.00 23.01 S 23.51 21.88, 25.00 21.73 S 28.50 22.09, 30.00 22.03 S 33.58 20.92, 35.00 21.39 S 38.62 24.72, 40.00 25.32 S 43.58 25.24, 45.00 25.72 S 48.79 27.79, 50.00 28.68 S 53.61 32.55, 55.00 33.11 S 58.56 33.09, 60.00 32.65 S 63.51 30.21, 65.00 30.08 S 68.53 31.47, 70.00 31.78 S 73.51 32.39, 75.00 32.21 S 78.50 30.67, 80.00 30.56 S 83.55 31.09, 85.00 31.46 S 88.50 33.13, 90.00 33.10 S 93.53 30.96, 95.00 31.23 S 98.50 34.91, 100.00 34.97 S 103.52 31.91, 105.00 31.64 S 108.62 32.56, 110.00 33.14 S 113.52 35.60, 115.00 35.84 S 118.53 35.12, 120.00 34.82 S 123.51 34.01, 125.00 33.83 S 128.53 33.90, 130.00 33.61 S 133.53 32.20, 135.00 31.91 S 138.72 30.90, 140.00 31.68 S 143.57 38.48, 145.00 38.03 S 148.73 29.31, 150.00 28.52 S 153.76 30.93, 155.00 31.77 S 158.70 34.49, 160.00 35.24 S 163.53 37.23, 165.00 37.55 S 168.85 36.46, 170.00 37.43 S 173.86 45.02, 175.00 46.00 S 178.88 47.00, 180.00 46.00 S 183.67 37.78, 185.00 37.09 S 188.56 41.21, 190.00 40.79 S 193.50 34.23, 195.00 34.21 S 198.51 40.52, 200.00 40.67 S 203.99 36.31, 205.00 35.21"
        fill="none">
        <animate attributeName="stroke-dashoffset"
            from="269.8429697243932" to="0" dur="2.2s"/>
        <animate attributeName="stroke-dasharray"
            from="269.8429697243932" to="269.8429697243932"/>
    </path>
    <circle r="4" cx="5" cy="46" fill="#3023AE"/>
    <circle r="4" cx="205" cy="35.207199166019606" fill="#C86DD7" opacity="0">
        <animate attributeName="opacity"
            from="0" to="1" dur="0.1s" begin="2.2s" fill="freeze"/>
    </circle>
</svg>