<svg width="200" height="50" viewBox="0 0 210 50" xmlns="http://www.w3.org/2000/svg">
    <!-- 1154 stargazers -->
    <!-- created at Sun Mar 29 2026 00:18:40 GMT+0000 (Coordinated Universal Time) -->
    <defs>
        <linearGradient id="stroke" x1="0%" y1="0%" x2="100%" y2="0%">
            <stop stop-color="#3023AE" offset="0%"/>
            <stop stop-color="#C86DD7" offset="100%"/>
        </linearGradient>
    </defs>
    <path stroke="url(#stroke)"
        stroke-width="3"
        stroke-linejoin="round"
        stroke-linecap="round"
        d="M5.00 46.0001 C 5.45 44.57, 9.53 31.46, 10.00 30.04 S 13.77 16.86, 15.00 16.00 S 18.71 22.25, 20.00 23.01 S 23.51 22.13, 25.00 21.95 S 28.50 21.87, 30.00 21.79 S 33.59 20.89, 35.00 21.39 S 38.63 24.70, 40.00 25.32 S 43.58 25.44, 45.00 25.91 S 48.76 27.83, 50.00 28.68 S 53.62 32.15, 55.00 32.75 S 58.55 33.41, 60.00 33.03 S 63.52 30.32, 65.00 30.08 S 68.53 31.08, 70.00 31.40 S 73.51 32.33, 75.00 32.21 S 78.50 30.67, 80.00 30.56 S 83.55 31.09, 85.00 31.46 S 88.50 33.13, 90.00 33.10 S 93.53 30.96, 95.00 31.23 S 98.50 34.91, 100.00 34.97 S 103.52 31.91, 105.00 31.64 S 108.62 32.56, 110.00 33.14 S 113.52 35.60, 115.00 35.84 S 118.53 35.12, 120.00 34.82 S 123.51 34.01, 125.00 33.83 S 128.51 33.79, 130.00 33.61 S 133.55 33.02, 135.00 32.64 S 138.68 30.27, 140.00 30.98 S 143.52 38.30, 145.00 38.03 S 148.77 30.02, 150.00 29.15 S 153.72 30.22, 155.00 31.00 S 158.74 34.42, 160.00 35.24 S 163.53 37.23, 165.00 37.55 S 168.85 36.46, 170.00 37.43 S 173.86 45.02, 175.00 46.00 S 178.79 46.88, 180.00 46.00 S 183.67 39.42, 185.00 38.72 S 188.63 41.41, 190.00 40.79 S 193.54 34.55, 195.00 34.21 S 198.61 37.88, 200.00 38.46 S 203.50 38.39, 205.00 38.37"
        fill="none">
        <animate attributeName="stroke-dashoffset"
            from="262.9454430330406" to="0" dur="2.2s"/>
        <animate attributeName="stroke-dasharray"
            from="262.9454430330406" to="262.9454430330406"/>
    </path>
    <circle r="4" cx="5" cy="46" fill="#3023AE"/>
    <circle r="4" cx="205" cy="38.36833734229675" fill="#C86DD7" opacity="0">
        <animate attributeName="opacity"
            from="0" to="1" dur="0.1s" begin="2.2s" fill="freeze"/>
    </circle>
</svg>