<svg width="200" height="50" viewBox="0 0 210 50" xmlns="http://www.w3.org/2000/svg">
    <!-- 53130 stargazers -->
    <!-- created at Wed Mar 04 2026 15:53:02 GMT+0000 (Coordinated Universal Time) -->
    <defs>
        <linearGradient id="stroke" x1="0%" y1="0%" x2="100%" y2="0%">
            <stop stop-color="#3023AE" offset="0%"/>
            <stop stop-color="#C86DD7" offset="100%"/>
        </linearGradient>
    </defs>
    <path stroke="url(#stroke)"
        stroke-width="3"
        stroke-linejoin="round"
        stroke-linecap="round"
        d="M5.00 46.0001 C 6.46 45.64, 9.52 46.18, 10.00 44.76 S 14.43 17.73, 15.00 16.34 S 18.50 20.72, 20.00 20.67 S 23.62 15.41, 25.00 16.00 S 28.88 23.96, 30.00 24.96 S 33.50 25.05, 35.00 24.94 S 38.52 23.98, 40.00 24.21 S 43.59 26.98, 45.00 26.46 S 48.65 21.16, 50.00 20.51 S 53.58 21.20, 55.00 21.69 S 58.55 23.60, 60.00 23.97 S 63.50 24.20, 65.00 24.30 S 68.56 25.07, 70.00 24.63 S 73.53 21.56, 75.00 21.27 S 78.51 22.53, 80.00 22.66 S 83.53 21.81, 85.00 22.09 S 88.50 24.53, 90.00 24.56 S 93.52 22.52, 95.00 22.30 S 98.51 22.89, 100.00 23.08 S 103.52 23.37, 105.00 23.63 S 108.55 24.47, 110.00 24.84 S 113.51 26.05, 115.00 26.23 S 118.51 26.20, 120.00 26.06 S 123.50 25.42, 125.00 25.31 S 128.53 25.04, 130.00 25.32 S 133.55 26.87, 135.00 27.24 S 138.51 27.71, 140.00 27.89 S 143.54 28.81, 145.00 28.45 S 148.51 25.52, 150.00 25.39 S 153.50 27.49, 155.00 27.58 S 158.50 25.97, 160.00 26.00 S 163.50 27.82, 165.00 27.77 S 168.52 25.44, 170.00 25.66 S 173.61 28.66, 175.00 29.23 S 178.50 29.72, 180.00 29.79 S 183.50 29.75, 185.00 29.74 S 188.51 29.82, 190.00 29.69 S 193.50 28.82, 195.00 28.87 S 198.50 29.94, 200.00 30.06 S 203.50 29.77, 205.00 29.65"
        fill="none">
        <animate attributeName="stroke-dashoffset"
            from="245.91684310584498" to="0" dur="2.2s"/>
        <animate attributeName="stroke-dasharray"
            from="245.91684310584498" to="245.91684310584498"/>
    </path>
    <circle r="4" cx="5" cy="46" fill="#3023AE"/>
    <circle r="4" cx="205" cy="29.648293765040304" fill="#C86DD7" opacity="0">
        <animate attributeName="opacity"
            from="0" to="1" dur="0.1s" begin="2.2s" fill="freeze"/>
    </circle>
</svg>