<svg width="200" height="50" viewBox="0 0 210 50" xmlns="http://www.w3.org/2000/svg">
    <!-- 56 stargazers -->
    <!-- created at Mon Mar 09 2026 01:12:01 GMT+0000 (Coordinated Universal Time) -->
    <defs>
        <linearGradient id="stroke" x1="0%" y1="0%" x2="100%" y2="0%">
            <stop stop-color="#3023AE" offset="0%"/>
            <stop stop-color="#C86DD7" offset="100%"/>
        </linearGradient>
    </defs>
    <path stroke="url(#stroke)"
        stroke-width="3"
        stroke-linejoin="round"
        stroke-linecap="round"
        d="M5.00 46.0001 C 5.55 44.61, 8.69 34.10, 10.00 33.36 S 13.75 41.18, 15.00 40.34 S 19.43 28.04, 20.00 26.65 S 23.91 14.97, 25.00 16.00 S 29.39 34.80, 30.00 36.18 S 33.93 37.62, 35.00 38.67 S 38.50 46.11, 40.00 46.00 S 43.50 37.97, 45.00 37.97 S 48.83 45.06, 50.00 46.00 S 53.50 46.00, 55.00 46.00 S 59.40 47.37, 60.00 46.00 S 64.11 24.48, 65.00 23.27 S 69.08 31.29, 70.00 32.47 S 73.50 36.27, 75.00 36.16 S 78.93 30.64, 80.00 31.70 S 83.59 45.48, 85.00 46.00 S 88.50 35.36, 90.00 35.36 S 93.97 44.91, 95.00 46.00 S 98.50 46.00, 100.00 46.00 S 103.50 46.00, 105.00 46.00 S 108.50 46.00, 110.00 46.00 S 113.50 46.00, 115.00 46.00 S 118.50 46.00, 120.00 46.00 S 123.50 46.00, 125.00 46.00 S 128.50 46.00, 130.00 46.00 S 133.50 46.00, 135.00 46.00 S 138.50 46.00, 140.00 46.00 S 143.50 46.00, 145.00 46.00 S 148.50 46.00, 150.00 46.00 S 154.12 47.21, 155.00 46.00 S 158.50 32.26, 160.00 32.26 S 164.12 44.79, 165.00 46.00 S 169.14 47.23, 170.00 46.00 S 173.50 31.68, 175.00 31.68 S 179.14 44.77, 180.00 46.00 S 183.50 46.00, 185.00 46.00 S 188.50 46.00, 190.00 46.00 S 193.50 46.00, 195.00 46.00 S 198.50 46.00, 200.00 46.00 S 203.50 46.00, 205.00 46.00"
        fill="none">
        <animate attributeName="stroke-dashoffset"
            from="352.7390564641578" to="0" dur="2.2s"/>
        <animate attributeName="stroke-dasharray"
            from="352.7390564641578" to="352.7390564641578"/>
    </path>
    <circle r="4" cx="5" cy="46" fill="#3023AE"/>
    <circle r="4" cx="205" cy="46" fill="#C86DD7" opacity="0">
        <animate attributeName="opacity"
            from="0" to="1" dur="0.1s" begin="2.2s" fill="freeze"/>
    </circle>
</svg>