<svg width="200" height="50" viewBox="0 0 210 50" xmlns="http://www.w3.org/2000/svg">
    <!-- 67 stargazers -->
    <!-- created at Thu Mar 12 2026 09:59:20 GMT+0000 (Coordinated Universal Time) -->
    <defs>
        <linearGradient id="stroke" x1="0%" y1="0%" x2="100%" y2="0%">
            <stop stop-color="#3023AE" offset="0%"/>
            <stop stop-color="#C86DD7" offset="100%"/>
        </linearGradient>
    </defs>
    <path stroke="url(#stroke)"
        stroke-width="3"
        stroke-linejoin="round"
        stroke-linecap="round"
        d="M5.00 46.0001 C 5.74 44.69, 8.92 38.19, 10.00 37.15 S 13.56 35.88, 15.00 36.29 S 18.72 40.72, 20.00 39.94 S 23.98 31.21, 25.00 30.11 S 28.86 28.16, 30.00 29.14 S 34.23 37.45, 35.00 38.74 S 38.50 46.10, 40.00 46.00 S 44.03 39.18, 45.00 38.04 S 48.50 34.38, 50.00 34.29 S 53.84 38.35, 55.00 37.40 S 58.50 26.19, 60.00 26.10 S 63.58 36.31, 65.00 36.81 S 68.50 29.67, 70.00 29.58 S 73.51 36.39, 75.00 36.25 S 78.50 28.72, 80.00 28.64 S 83.76 34.87, 85.00 35.72 S 89.01 36.58, 90.00 35.46 S 93.86 25.40, 95.00 24.43 S 99.37 25.53, 100.00 26.90 S 104.30 44.67, 105.00 46.00 S 109.34 47.35, 110.00 46.00 S 113.50 25.68, 115.00 25.68 S 119.34 44.65, 120.00 46.00 S 124.26 47.30, 125.00 46.00 S 129.07 29.65, 130.00 28.48 S 133.64 34.03, 135.00 33.40 S 138.50 23.87, 140.00 23.81 S 143.58 32.49, 145.00 32.98 S 149.24 28.60, 150.00 27.31 S 153.66 15.32, 155.00 16.00 S 159.53 30.96, 160.00 32.39 S 164.11 44.79, 165.00 46.00 S 169.14 47.23, 170.00 46.00 S 173.50 31.82, 175.00 31.82 S 178.50 46.06, 180.00 46.00 S 183.50 31.45, 185.00 31.45 S 188.50 46.05, 190.00 46.00 S 193.50 31.09, 195.00 31.09 S 199.16 44.75, 200.00 46.00 S 203.50 46.00, 205.00 46.00"
        fill="none">
        <animate attributeName="stroke-dashoffset"
            from="441.23047032652863" to="0" dur="2.2s"/>
        <animate attributeName="stroke-dasharray"
            from="441.23047032652863" to="441.23047032652863"/>
    </path>
    <circle r="4" cx="5" cy="46" fill="#3023AE"/>
    <circle r="4" cx="205" cy="46" fill="#C86DD7" opacity="0">
        <animate attributeName="opacity"
            from="0" to="1" dur="0.1s" begin="2.2s" fill="freeze"/>
    </circle>
</svg>