<svg width="200" height="50" viewBox="0 0 210 50" xmlns="http://www.w3.org/2000/svg">
    <!-- 69 stargazers -->
    <!-- created at Wed Apr 22 2026 18:27:55 GMT+0000 (Coordinated Universal Time) -->
    <defs>
        <linearGradient id="stroke" x1="0%" y1="0%" x2="100%" y2="0%">
            <stop stop-color="#3023AE" offset="0%"/>
            <stop stop-color="#C86DD7" offset="100%"/>
        </linearGradient>
    </defs>
    <path stroke="url(#stroke)"
        stroke-width="3"
        stroke-linejoin="round"
        stroke-linecap="round"
        d="M5.00 46.0001 C 5.72 44.68, 8.94 37.93, 10.00 36.87 S 13.50 35.94, 15.00 35.99 S 18.66 37.82, 20.00 37.16 S 23.86 32.02, 25.00 31.05 S 28.80 27.72, 30.00 28.62 S 33.91 37.48, 35.00 38.52 S 38.80 37.25, 40.00 38.15 S 43.62 46.58, 45.00 46.00 S 49.26 35.23, 50.00 33.92 S 53.60 28.81, 55.00 28.27 S 58.84 29.15, 60.00 30.11 S 63.51 36.68, 65.00 36.52 S 68.83 30.01, 70.00 29.08 S 74.24 27.29, 75.00 28.58 S 78.54 45.65, 80.00 46.00 S 84.30 32.33, 85.00 31.01 S 88.79 28.07, 90.00 27.18 S 94.30 22.44, 95.00 23.76 S 98.97 44.91, 100.00 46.00 S 104.23 35.67, 105.00 34.38 S 109.02 28.10, 110.00 29.23 S 113.50 46.10, 115.00 46.00 S 119.07 29.75, 120.00 28.57 S 123.64 32.82, 125.00 33.45 S 128.70 33.98, 130.00 33.23 S 133.50 27.70, 135.00 27.63 S 139.02 33.93, 140.00 32.80 S 143.96 17.08, 145.00 16.00 S 149.53 20.98, 150.00 22.40 S 154.41 44.62, 155.00 46.00 S 159.14 47.23, 160.00 46.00 S 163.50 31.77, 165.00 31.77 S 168.50 46.06, 170.00 46.00 S 173.50 31.38, 175.00 31.38 S 178.50 46.06, 180.00 46.00 S 183.50 31.00, 185.00 31.00 S 188.50 46.06, 190.00 46.00 S 193.50 30.63, 195.00 30.63 S 198.50 46.05, 200.00 46.00 S 204.55 31.69, 205.00 30.26"
        fill="none">
        <animate attributeName="stroke-dashoffset"
            from="463.2721130394507" to="0" dur="2.2s"/>
        <animate attributeName="stroke-dasharray"
            from="463.2721130394507" to="463.2721130394507"/>
    </path>
    <circle r="4" cx="5" cy="46" fill="#3023AE"/>
    <circle r="4" cx="205" cy="30.2638337288286" fill="#C86DD7" opacity="0">
        <animate attributeName="opacity"
            from="0" to="1" dur="0.1s" begin="2.2s" fill="freeze"/>
    </circle>
</svg>