<svg width="200" height="50" viewBox="0 0 210 50" xmlns="http://www.w3.org/2000/svg">
    <!-- 68 stargazers -->
    <!-- created at Thu Apr 09 2026 11:49:55 GMT+0000 (Coordinated Universal Time) -->
    <defs>
        <linearGradient id="stroke" x1="0%" y1="0%" x2="100%" y2="0%">
            <stop stop-color="#3023AE" offset="0%"/>
            <stop stop-color="#C86DD7" offset="100%"/>
        </linearGradient>
    </defs>
    <path stroke="url(#stroke)"
        stroke-width="3"
        stroke-linejoin="round"
        stroke-linecap="round"
        d="M5.00 46.0001 C 5.73 44.69, 8.93 38.07, 10.00 37.01 S 13.50 36.10, 15.00 36.14 S 18.65 37.95, 20.00 37.30 S 23.85 32.24, 25.00 31.28 S 28.79 28.00, 30.00 28.88 S 34.24 37.34, 35.00 38.63 S 38.50 46.11, 40.00 46.00 S 44.03 39.07, 45.00 37.92 S 48.91 35.14, 50.00 34.11 S 53.60 29.07, 55.00 28.55 S 59.25 29.05, 60.00 30.35 S 63.59 46.51, 65.00 46.00 S 69.13 27.98, 70.00 26.76 S 73.89 30.99, 75.00 32.00 S 78.50 35.94, 80.00 35.83 S 83.66 31.90, 85.00 31.24 S 88.92 31.92, 90.00 30.87 S 94.17 20.27, 95.00 21.52 S 99.43 44.61, 100.00 46.00 S 104.22 47.28, 105.00 46.00 S 109.04 30.64, 110.00 29.49 S 114.22 32.81, 115.00 34.09 S 118.69 46.73, 120.00 46.00 S 124.07 29.70, 125.00 28.53 S 128.64 34.06, 130.00 33.42 S 133.50 23.91, 135.00 23.85 S 138.58 32.51, 140.00 33.00 S 144.24 28.61, 145.00 27.32 S 148.66 15.32, 150.00 16.00 S 154.53 30.96, 155.00 32.38 S 159.11 44.79, 160.00 46.00 S 164.14 47.23, 165.00 46.00 S 168.50 31.79, 170.00 31.79 S 173.50 46.06, 175.00 46.00 S 179.16 32.65, 180.00 31.41 S 184.15 29.99, 185.00 31.23 S 189.16 44.76, 190.00 46.00 S 194.18 47.26, 195.00 46.00 S 198.50 30.68, 200.00 30.68 S 204.53 44.57, 205.00 46.00"
        fill="none">
        <animate attributeName="stroke-dashoffset"
            from="435.86545349775" to="0" dur="2.2s"/>
        <animate attributeName="stroke-dasharray"
            from="435.86545349775" to="435.86545349775"/>
    </path>
    <circle r="4" cx="5" cy="46" fill="#3023AE"/>
    <circle r="4" cx="205" cy="46" fill="#C86DD7" opacity="0">
        <animate attributeName="opacity"
            from="0" to="1" dur="0.1s" begin="2.2s" fill="freeze"/>
    </circle>
</svg>