<svg width="200" height="50" viewBox="0 0 210 50" xmlns="http://www.w3.org/2000/svg">
    <!-- 69 stargazers -->
    <!-- created at Thu Apr 16 2026 17:48:05 GMT+0000 (Coordinated Universal Time) -->
    <defs>
        <linearGradient id="stroke" x1="0%" y1="0%" x2="100%" y2="0%">
            <stop stop-color="#3023AE" offset="0%"/>
            <stop stop-color="#C86DD7" offset="100%"/>
        </linearGradient>
    </defs>
    <path stroke="url(#stroke)"
        stroke-width="3"
        stroke-linejoin="round"
        stroke-linecap="round"
        d="M5.00 46.0001 C 5.73 44.69, 8.93 38.07, 10.00 37.01 S 13.50 36.10, 15.00 36.14 S 18.65 37.95, 20.00 37.30 S 23.85 32.24, 25.00 31.28 S 28.79 28.00, 30.00 28.88 S 34.24 37.34, 35.00 38.63 S 38.50 46.11, 40.00 46.00 S 44.03 39.07, 45.00 37.92 S 48.91 35.14, 50.00 34.11 S 53.60 29.07, 55.00 28.55 S 58.84 29.41, 60.00 30.35 S 63.51 36.82, 65.00 36.67 S 68.64 29.97, 70.00 29.34 S 73.74 31.18, 75.00 32.00 S 78.50 35.94, 80.00 35.83 S 83.66 31.90, 85.00 31.24 S 88.92 31.92, 90.00 30.87 S 94.17 20.27, 95.00 21.52 S 99.43 44.61, 100.00 46.00 S 104.34 47.34, 105.00 46.00 S 108.50 25.78, 110.00 25.78 S 113.83 45.06, 115.00 46.00 S 119.06 35.03, 120.00 33.87 S 123.69 34.38, 125.00 33.64 S 128.70 28.96, 130.00 28.22 S 133.65 27.26, 135.00 27.91 S 138.65 33.65, 140.00 33.00 S 144.24 24.41, 145.00 23.12 S 149.40 14.63, 150.00 16.00 S 154.53 44.58, 155.00 46.00 S 159.13 47.22, 160.00 46.00 S 163.50 31.99, 165.00 31.99 S 168.50 46.06, 170.00 46.00 S 173.50 31.60, 175.00 31.60 S 178.50 46.06, 180.00 46.00 S 183.50 31.23, 185.00 31.23 S 189.16 44.76, 190.00 46.00 S 194.18 47.26, 195.00 46.00 S 199.19 31.94, 200.00 30.68 S 203.50 30.56, 205.00 30.50"
        fill="none">
        <animate attributeName="stroke-dashoffset"
            from="423.03294306980365" to="0" dur="2.2s"/>
        <animate attributeName="stroke-dasharray"
            from="423.03294306980365" to="423.03294306980365"/>
    </path>
    <circle r="4" cx="5" cy="46" fill="#3023AE"/>
    <circle r="4" cx="205" cy="30.504540794588955" fill="#C86DD7" opacity="0">
        <animate attributeName="opacity"
            from="0" to="1" dur="0.1s" begin="2.2s" fill="freeze"/>
    </circle>
</svg>