<svg width="200" height="50" viewBox="0 0 210 50" xmlns="http://www.w3.org/2000/svg">
    <!-- 69 stargazers -->
    <!-- created at Thu May 14 2026 17:18:09 GMT+0000 (Coordinated Universal Time) -->
    <defs>
        <linearGradient id="stroke" x1="0%" y1="0%" x2="100%" y2="0%">
            <stop stop-color="#3023AE" offset="0%"/>
            <stop stop-color="#C86DD7" offset="100%"/>
        </linearGradient>
    </defs>
    <path stroke="url(#stroke)"
        stroke-width="3"
        stroke-linejoin="round"
        stroke-linecap="round"
        d="M5.00 46.0001 C 5.66 44.65, 9.00 36.91, 10.00 35.80 S 13.50 34.76, 15.00 34.81 S 18.78 36.99, 20.00 36.12 S 23.82 28.61, 25.00 27.69 S 28.94 27.20, 30.00 28.26 S 33.88 36.63, 35.00 37.63 S 38.85 36.26, 40.00 37.22 S 43.64 46.64, 45.00 46.00 S 49.43 33.89, 50.00 32.50 S 53.57 21.27, 55.00 21.73 S 58.90 34.72, 60.00 35.74 S 63.67 31.71, 65.00 31.01 S 68.63 31.17, 70.00 30.55 S 73.60 25.98, 75.00 26.53 S 78.81 33.54, 80.00 34.45 S 84.19 35.41, 85.00 34.15 S 88.70 19.59, 90.00 18.84 S 94.48 27.01, 95.00 28.42 S 98.50 46.12, 100.00 46.00 S 104.10 28.83, 105.00 27.63 S 109.28 31.43, 110.00 32.75 S 113.73 46.79, 115.00 46.00 S 119.32 27.86, 120.00 26.52 S 123.50 26.27, 125.00 26.16 S 128.68 25.10, 130.00 25.81 S 133.90 32.50, 135.00 31.48 S 139.19 17.73, 140.00 16.47 S 144.52 14.58, 145.00 16.00 S 149.53 44.58, 150.00 46.00 S 154.19 47.26, 155.00 46.00 S 158.50 30.31, 160.00 30.31 S 163.50 46.07, 165.00 46.00 S 169.22 31.15, 170.00 29.87 S 174.21 28.38, 175.00 29.65 S 179.22 44.72, 180.00 46.00 S 184.24 47.29, 185.00 46.00 S 189.25 30.31, 190.00 29.02 S 194.24 27.52, 195.00 28.81 S 199.25 44.70, 200.00 46.00 S 203.50 46.00, 205.00 46.00"
        fill="none">
        <animate attributeName="stroke-dashoffset"
            from="446.7196513270878" to="0" dur="2.2s"/>
        <animate attributeName="stroke-dasharray"
            from="446.7196513270878" to="446.7196513270878"/>
    </path>
    <circle r="4" cx="5" cy="46" fill="#3023AE"/>
    <circle r="4" cx="205" cy="46" fill="#C86DD7" opacity="0">
        <animate attributeName="opacity"
            from="0" to="1" dur="0.1s" begin="2.2s" fill="freeze"/>
    </circle>
</svg>