<svg width="200" height="50" viewBox="0 0 210 50" xmlns="http://www.w3.org/2000/svg">
    <!-- 68 stargazers -->
    <!-- created at Tue Mar 24 2026 19:58:35 GMT+0000 (Coordinated Universal Time) -->
    <defs>
        <linearGradient id="stroke" x1="0%" y1="0%" x2="100%" y2="0%">
            <stop stop-color="#3023AE" offset="0%"/>
            <stop stop-color="#C86DD7" offset="100%"/>
        </linearGradient>
    </defs>
    <path stroke="url(#stroke)"
        stroke-width="3"
        stroke-linejoin="round"
        stroke-linecap="round"
        d="M5.00 46.0001 C 5.68 44.66, 8.98 37.20, 10.00 36.10 S 13.57 34.69, 15.00 35.14 S 18.77 40.07, 20.00 39.22 S 24.04 29.39, 25.00 28.24 S 28.92 26.11, 30.00 27.15 S 34.30 36.56, 35.00 37.88 S 38.50 46.12, 40.00 46.00 S 44.09 38.30, 45.00 37.10 S 48.64 33.54, 50.00 32.90 S 53.76 33.25, 55.00 32.41 S 58.58 25.63, 60.00 26.10 S 63.52 35.49, 65.00 35.72 S 68.86 28.62, 70.00 27.65 S 73.78 26.24, 75.00 27.11 S 78.79 33.90, 80.00 34.79 S 83.50 34.59, 85.00 34.50 S 89.19 35.48, 90.00 34.22 S 93.69 19.77, 95.00 19.03 S 99.48 27.15, 100.00 28.56 S 103.64 45.38, 105.00 46.00 S 109.29 34.46, 110.00 33.14 S 114.08 26.27, 115.00 27.45 S 118.50 46.10, 120.00 46.00 S 124.12 27.97, 125.00 26.75 S 128.67 31.46, 130.00 32.15 S 133.74 32.72, 135.00 31.91 S 138.50 25.82, 140.00 25.75 S 143.90 32.47, 145.00 31.45 S 149.18 17.70, 150.00 16.45 S 154.52 14.58, 155.00 16.00 S 159.53 44.58, 160.00 46.00 S 164.19 47.26, 165.00 46.00 S 168.50 30.35, 170.00 30.35 S 174.19 44.74, 175.00 46.00 S 179.21 47.28, 180.00 46.00 S 184.22 31.01, 185.00 29.73 S 189.21 28.25, 190.00 29.53 S 194.22 44.72, 195.00 46.00 S 199.24 47.29, 200.00 46.00 S 204.58 30.37, 205.00 28.93"
        fill="none">
        <animate attributeName="stroke-dashoffset"
            from="433.37483278648807" to="0" dur="2.2s"/>
        <animate attributeName="stroke-dasharray"
            from="433.37483278648807" to="433.37483278648807"/>
    </path>
    <circle r="4" cx="5" cy="46" fill="#3023AE"/>
    <circle r="4" cx="205" cy="28.93268394060172" fill="#C86DD7" opacity="0">
        <animate attributeName="opacity"
            from="0" to="1" dur="0.1s" begin="2.2s" fill="freeze"/>
    </circle>
</svg>