<svg width="200" height="50" viewBox="0 0 210 50" xmlns="http://www.w3.org/2000/svg">
    <!-- 67 stargazers -->
    <!-- created at Mon Mar 09 2026 08:55:04 GMT+0000 (Coordinated Universal Time) -->
    <defs>
        <linearGradient id="stroke" x1="0%" y1="0%" x2="100%" y2="0%">
            <stop stop-color="#3023AE" offset="0%"/>
            <stop stop-color="#C86DD7" offset="100%"/>
        </linearGradient>
    </defs>
    <path stroke="url(#stroke)"
        stroke-width="3"
        stroke-linejoin="round"
        stroke-linecap="round"
        d="M5.00 46.0001 C 5.68 44.66, 8.98 37.20, 10.00 36.10 S 13.57 34.69, 15.00 35.14 S 18.77 40.07, 20.00 39.22 S 24.04 29.39, 25.00 28.24 S 28.92 26.11, 30.00 27.15 S 34.30 36.56, 35.00 37.88 S 38.50 46.12, 40.00 46.00 S 44.09 38.30, 45.00 37.10 S 48.50 33.01, 50.00 32.90 S 53.89 37.40, 55.00 36.39 S 58.50 23.85, 60.00 23.75 S 63.79 34.84, 65.00 35.72 S 68.67 31.70, 70.00 31.01 S 73.63 31.18, 75.00 30.58 S 78.60 26.04, 80.00 26.59 S 83.81 33.59, 85.00 34.50 S 89.07 35.39, 90.00 34.22 S 93.92 22.92, 95.00 21.88 S 99.43 23.26, 100.00 24.64 S 104.36 44.64, 105.00 46.00 S 109.29 47.32, 110.00 46.00 S 114.10 28.66, 115.00 27.45 S 119.29 31.32, 120.00 32.64 S 123.73 46.79, 125.00 46.00 S 129.13 27.63, 130.00 26.41 S 133.67 32.61, 135.00 31.91 S 139.13 19.97, 140.00 21.19 S 143.50 46.12, 145.00 46.00 S 149.53 21.83, 150.00 20.40 S 153.61 15.43, 155.00 16.00 S 159.53 23.05, 160.00 24.48 S 164.37 44.64, 165.00 46.00 S 169.20 47.27, 170.00 46.00 S 173.50 30.14, 175.00 30.14 S 178.50 46.06, 180.00 46.00 S 183.50 29.73, 185.00 29.73 S 188.50 46.06, 190.00 46.00 S 193.50 29.33, 195.00 29.33 S 199.23 44.71, 200.00 46.00 S 203.50 46.00, 205.00 46.00"
        fill="none">
        <animate attributeName="stroke-dashoffset"
            from="480.15780728151924" to="0" dur="2.2s"/>
        <animate attributeName="stroke-dasharray"
            from="480.15780728151924" to="480.15780728151924"/>
    </path>
    <circle r="4" cx="5" cy="46" fill="#3023AE"/>
    <circle r="4" cx="205" cy="46" fill="#C86DD7" opacity="0">
        <animate attributeName="opacity"
            from="0" to="1" dur="0.1s" begin="2.2s" fill="freeze"/>
    </circle>
</svg>