<svg width="200" height="50" viewBox="0 0 210 50" xmlns="http://www.w3.org/2000/svg">
    <!-- 69 stargazers -->
    <!-- created at Tue May 05 2026 01:12:28 GMT+0000 (Coordinated Universal Time) -->
    <defs>
        <linearGradient id="stroke" x1="0%" y1="0%" x2="100%" y2="0%">
            <stop stop-color="#3023AE" offset="0%"/>
            <stop stop-color="#C86DD7" offset="100%"/>
        </linearGradient>
    </defs>
    <path stroke="url(#stroke)"
        stroke-width="3"
        stroke-linejoin="round"
        stroke-linecap="round"
        d="M5.00 46.0001 C 5.72 44.68, 8.94 37.93, 10.00 36.87 S 13.50 35.94, 15.00 35.99 S 18.73 37.97, 20.00 37.16 S 23.77 30.48, 25.00 29.62 S 28.88 29.14, 30.00 30.13 S 33.83 37.58, 35.00 38.52 S 38.80 37.25, 40.00 38.15 S 43.62 46.58, 45.00 46.00 S 49.32 35.26, 50.00 33.92 S 53.51 26.32, 55.00 26.18 S 58.96 31.95, 60.00 33.02 S 63.60 37.07, 65.00 36.52 S 68.83 30.01, 70.00 29.08 S 73.75 27.76, 75.00 28.58 S 78.76 34.82, 80.00 35.67 S 84.13 36.62, 85.00 35.40 S 88.67 22.39, 90.00 21.71 S 94.43 28.89, 95.00 30.27 S 98.61 45.43, 100.00 46.00 S 104.23 35.67, 105.00 34.38 S 109.02 28.10, 110.00 29.23 S 113.50 46.10, 115.00 46.00 S 119.07 29.75, 120.00 28.57 S 123.64 34.09, 125.00 33.45 S 128.50 23.95, 130.00 23.88 S 133.58 32.52, 135.00 33.01 S 139.24 28.62, 140.00 27.33 S 143.66 15.32, 145.00 16.00 S 149.53 30.95, 150.00 32.38 S 153.50 46.06, 155.00 46.00 S 158.50 31.97, 160.00 31.97 S 164.13 44.78, 165.00 46.00 S 169.15 47.24, 170.00 46.00 S 174.16 32.62, 175.00 31.38 S 179.15 29.95, 180.00 31.19 S 184.16 44.76, 185.00 46.00 S 189.18 47.26, 190.00 46.00 S 194.19 31.89, 195.00 30.63 S 199.18 29.19, 200.00 30.44 S 204.54 44.57, 205.00 46.00"
        fill="none">
        <animate attributeName="stroke-dashoffset"
            from="421.00342917766955" to="0" dur="2.2s"/>
        <animate attributeName="stroke-dasharray"
            from="421.00342917766955" to="421.00342917766955"/>
    </path>
    <circle r="4" cx="5" cy="46" fill="#3023AE"/>
    <circle r="4" cx="205" cy="46" fill="#C86DD7" opacity="0">
        <animate attributeName="opacity"
            from="0" to="1" dur="0.1s" begin="2.2s" fill="freeze"/>
    </circle>
</svg>