<svg width="200" height="50" viewBox="0 0 210 50" xmlns="http://www.w3.org/2000/svg">
    <!-- 68 stargazers -->
    <!-- created at Wed Mar 18 2026 18:42:20 GMT+0000 (Coordinated Universal Time) -->
    <defs>
        <linearGradient id="stroke" x1="0%" y1="0%" x2="100%" y2="0%">
            <stop stop-color="#3023AE" offset="0%"/>
            <stop stop-color="#C86DD7" offset="100%"/>
        </linearGradient>
    </defs>
    <path stroke="url(#stroke)"
        stroke-width="3"
        stroke-linejoin="round"
        stroke-linecap="round"
        d="M5.00 46.0001 C 5.74 44.69, 8.92 38.19, 10.00 37.15 S 13.56 35.88, 15.00 36.29 S 18.72 40.72, 20.00 39.94 S 23.98 31.21, 25.00 30.11 S 28.86 28.16, 30.00 29.14 S 34.23 37.45, 35.00 38.74 S 38.50 46.10, 40.00 46.00 S 44.03 39.18, 45.00 38.04 S 48.50 34.38, 50.00 34.29 S 53.84 38.35, 55.00 37.40 S 58.50 26.19, 60.00 26.10 S 63.58 36.31, 65.00 36.81 S 68.64 30.21, 70.00 29.58 S 73.54 31.88, 75.00 32.21 S 78.58 31.33, 80.00 31.83 S 83.59 35.20, 85.00 35.72 S 89.12 36.68, 90.00 35.46 S 93.66 22.56, 95.00 21.88 S 99.43 29.02, 100.00 30.40 S 103.61 45.43, 105.00 46.00 S 109.23 35.78, 110.00 34.50 S 114.02 28.28, 115.00 29.41 S 118.63 45.39, 120.00 46.00 S 124.06 34.99, 125.00 33.83 S 128.69 34.35, 130.00 33.61 S 133.70 28.92, 135.00 28.18 S 138.65 27.23, 140.00 27.88 S 143.50 33.07, 145.00 32.98 S 149.24 28.60, 150.00 27.31 S 153.66 15.32, 155.00 16.00 S 159.53 30.96, 160.00 32.39 S 164.11 44.79, 165.00 46.00 S 169.14 47.23, 170.00 46.00 S 173.50 31.82, 175.00 31.82 S 178.50 46.06, 180.00 46.00 S 184.16 32.69, 185.00 31.45 S 189.15 30.03, 190.00 31.26 S 194.16 44.76, 195.00 46.00 S 199.18 47.25, 200.00 46.00 S 204.53 32.16, 205.00 30.73"
        fill="none">
        <animate attributeName="stroke-dashoffset"
            from="400.1245272436289" to="0" dur="2.2s"/>
        <animate attributeName="stroke-dasharray"
            from="400.1245272436289" to="400.1245272436289"/>
    </path>
    <circle r="4" cx="5" cy="46" fill="#3023AE"/>
    <circle r="4" cx="205" cy="30.73452843908609" fill="#C86DD7" opacity="0">
        <animate attributeName="opacity"
            from="0" to="1" dur="0.1s" begin="2.2s" fill="freeze"/>
    </circle>
</svg>