<svg width="200" height="50" viewBox="0 0 210 50" xmlns="http://www.w3.org/2000/svg">
    <!-- 69 stargazers -->
    <!-- created at Sun May 17 2026 18:00:34 GMT+0000 (Coordinated Universal Time) -->
    <defs>
        <linearGradient id="stroke" x1="0%" y1="0%" x2="100%" y2="0%">
            <stop stop-color="#3023AE" offset="0%"/>
            <stop stop-color="#C86DD7" offset="100%"/>
        </linearGradient>
    </defs>
    <path stroke="url(#stroke)"
        stroke-width="3"
        stroke-linejoin="round"
        stroke-linecap="round"
        d="M5.00 46.0001 C 5.63 44.64, 8.85 36.25, 10.00 35.29 S 13.52 37.44, 15.00 37.69 S 18.85 37.98, 20.00 37.02 S 23.78 30.23, 25.00 29.36 S 28.89 28.87, 30.00 29.88 S 33.84 37.45, 35.00 38.40 S 38.81 37.12, 40.00 38.02 S 43.62 46.59, 45.00 46.00 S 49.38 35.10, 50.00 33.73 S 53.56 23.52, 55.00 23.94 S 58.85 35.71, 60.00 36.68 S 63.64 33.02, 65.00 32.38 S 68.61 32.53, 70.00 31.96 S 73.59 27.80, 75.00 28.31 S 78.77 34.65, 80.00 35.50 S 84.14 36.46, 85.00 35.23 S 88.67 22.01, 90.00 21.32 S 94.44 28.63, 95.00 30.02 S 98.50 46.11, 100.00 46.00 S 104.04 30.46, 105.00 29.31 S 109.23 32.67, 110.00 33.95 S 113.69 46.74, 115.00 46.00 S 119.27 29.61, 120.00 28.30 S 123.50 28.07, 125.00 27.97 S 128.65 27.00, 130.00 27.65 S 134.02 33.94, 135.00 32.80 S 138.96 17.08, 140.00 16.00 S 144.53 20.97, 145.00 22.39 S 149.41 44.62, 150.00 46.00 S 154.14 47.23, 155.00 46.00 S 158.50 31.74, 160.00 31.74 S 163.50 46.06, 165.00 46.00 S 169.16 32.58, 170.00 31.34 S 174.15 29.90, 175.00 31.14 S 179.16 44.76, 180.00 46.00 S 184.18 47.26, 185.00 46.00 S 189.19 31.83, 190.00 30.57 S 194.18 29.12, 195.00 30.38 S 199.19 44.74, 200.00 46.00 S 203.50 46.00, 205.00 46.00"
        fill="none">
        <animate attributeName="stroke-dashoffset"
            from="421.86774010033065" to="0" dur="2.2s"/>
        <animate attributeName="stroke-dasharray"
            from="421.86774010033065" to="421.86774010033065"/>
    </path>
    <circle r="4" cx="5" cy="46" fill="#3023AE"/>
    <circle r="4" cx="205" cy="46" fill="#C86DD7" opacity="0">
        <animate attributeName="opacity"
            from="0" to="1" dur="0.1s" begin="2.2s" fill="freeze"/>
    </circle>
</svg>