<svg width="200" height="50" viewBox="0 0 210 50" xmlns="http://www.w3.org/2000/svg">
    <!-- 68 stargazers -->
    <!-- created at Fri Mar 27 2026 20:52:54 GMT+0000 (Coordinated Universal Time) -->
    <defs>
        <linearGradient id="stroke" x1="0%" y1="0%" x2="100%" y2="0%">
            <stop stop-color="#3023AE" offset="0%"/>
            <stop stop-color="#C86DD7" offset="100%"/>
        </linearGradient>
    </defs>
    <path stroke="url(#stroke)"
        stroke-width="3"
        stroke-linejoin="round"
        stroke-linecap="round"
        d="M5.00 46.0001 C 5.73 44.69, 8.93 38.07, 10.00 37.01 S 13.56 35.73, 15.00 36.14 S 18.73 40.64, 20.00 39.85 S 23.99 30.98, 25.00 29.87 S 28.87 27.90, 30.00 28.88 S 34.24 37.34, 35.00 38.63 S 38.50 46.11, 40.00 46.00 S 44.03 39.07, 45.00 37.92 S 48.62 34.70, 50.00 34.11 S 53.72 34.45, 55.00 33.66 S 58.56 27.50, 60.00 27.93 S 63.51 36.46, 65.00 36.67 S 68.82 30.26, 70.00 29.34 S 73.74 28.03, 75.00 28.85 S 78.75 34.99, 80.00 35.83 S 83.50 35.64, 85.00 35.56 S 89.13 36.53, 90.00 35.30 S 93.67 22.20, 95.00 21.52 S 99.43 28.78, 100.00 30.17 S 103.62 45.42, 105.00 46.00 S 109.23 35.62, 110.00 34.33 S 114.02 28.02, 115.00 29.16 S 118.50 46.10, 120.00 46.00 S 124.07 29.70, 125.00 28.53 S 128.50 33.52, 130.00 33.42 S 133.50 27.98, 135.00 27.91 S 138.65 32.34, 140.00 33.00 S 144.24 34.08, 145.00 32.79 S 148.96 17.08, 150.00 16.00 S 154.53 20.99, 155.00 22.41 S 159.41 44.62, 160.00 46.00 S 164.14 47.23, 165.00 46.00 S 168.50 31.79, 170.00 31.79 S 173.50 46.06, 175.00 46.00 S 178.50 31.41, 180.00 31.41 S 183.50 46.06, 185.00 46.00 S 188.50 31.04, 190.00 31.04 S 194.17 44.75, 195.00 46.00 S 199.19 47.26, 200.00 46.00 S 204.54 31.93, 205.00 30.50"
        fill="none">
        <animate attributeName="stroke-dashoffset"
            from="428.59514917646067" to="0" dur="2.2s"/>
        <animate attributeName="stroke-dasharray"
            from="428.59514917646067" to="428.59514917646067"/>
    </path>
    <circle r="4" cx="5" cy="46" fill="#3023AE"/>
    <circle r="4" cx="205" cy="30.504540794588674" fill="#C86DD7" opacity="0">
        <animate attributeName="opacity"
            from="0" to="1" dur="0.1s" begin="2.2s" fill="freeze"/>
    </circle>
</svg>