<svg width="200" height="50" viewBox="0 0 210 50" xmlns="http://www.w3.org/2000/svg">
    <!-- 68 stargazers -->
    <!-- created at Thu Apr 02 2026 23:18:52 GMT+0000 (Coordinated Universal Time) -->
    <defs>
        <linearGradient id="stroke" x1="0%" y1="0%" x2="100%" y2="0%">
            <stop stop-color="#3023AE" offset="0%"/>
            <stop stop-color="#C86DD7" offset="100%"/>
        </linearGradient>
    </defs>
    <path stroke="url(#stroke)"
        stroke-width="3"
        stroke-linejoin="round"
        stroke-linecap="round"
        d="M5.00 46.0001 C 5.73 44.69, 8.93 38.07, 10.00 37.01 S 13.56 35.73, 15.00 36.14 S 18.73 40.64, 20.00 39.85 S 23.99 30.98, 25.00 29.87 S 28.87 27.90, 30.00 28.88 S 34.24 37.34, 35.00 38.63 S 38.50 46.11, 40.00 46.00 S 44.03 39.07, 45.00 37.92 S 48.77 34.97, 50.00 34.11 S 53.72 31.67, 55.00 30.88 S 59.17 26.68, 60.00 27.93 S 63.51 46.17, 65.00 46.00 S 69.13 27.98, 70.00 26.76 S 73.89 30.99, 75.00 32.00 S 78.59 35.32, 80.00 35.83 S 83.85 36.52, 85.00 35.56 S 88.86 28.45, 90.00 27.47 S 93.55 26.65, 95.00 27.04 S 99.30 28.84, 100.00 30.17 S 103.50 46.10, 105.00 46.00 S 109.04 30.64, 110.00 29.49 S 114.22 32.81, 115.00 34.09 S 118.69 46.73, 120.00 46.00 S 124.07 29.70, 125.00 28.53 S 128.64 34.06, 130.00 33.42 S 134.07 22.67, 135.00 23.85 S 138.50 46.11, 140.00 46.00 S 144.53 24.54, 145.00 23.12 S 148.90 14.98, 150.00 16.00 S 154.53 30.96, 155.00 32.38 S 159.11 44.79, 160.00 46.00 S 164.14 47.23, 165.00 46.00 S 168.50 31.79, 170.00 31.79 S 173.50 46.06, 175.00 46.00 S 178.50 31.41, 180.00 31.41 S 183.50 46.06, 185.00 46.00 S 188.50 31.04, 190.00 31.04 S 193.50 46.05, 195.00 46.00 S 198.50 30.68, 200.00 30.68 S 204.53 44.57, 205.00 46.00"
        fill="none">
        <animate attributeName="stroke-dashoffset"
            from="476.3707022542764" to="0" dur="2.2s"/>
        <animate attributeName="stroke-dasharray"
            from="476.3707022542764" to="476.3707022542764"/>
    </path>
    <circle r="4" cx="5" cy="46" fill="#3023AE"/>
    <circle r="4" cx="205" cy="46" fill="#C86DD7" opacity="0">
        <animate attributeName="opacity"
            from="0" to="1" dur="0.1s" begin="2.2s" fill="freeze"/>
    </circle>
</svg>