<svg width="200" height="50" viewBox="0 0 210 50" xmlns="http://www.w3.org/2000/svg">
    <!-- 107 stargazers -->
    <!-- created at Thu Apr 23 2026 14:44:42 GMT+0000 (Coordinated Universal Time) -->
    <defs>
        <linearGradient id="stroke" x1="0%" y1="0%" x2="100%" y2="0%">
            <stop stop-color="#3023AE" offset="0%"/>
            <stop stop-color="#C86DD7" offset="100%"/>
        </linearGradient>
    </defs>
    <path stroke="url(#stroke)"
        stroke-width="3"
        stroke-linejoin="round"
        stroke-linecap="round"
        d="M5.00 46.0001 C 6.17 45.07, 8.50 42.01, 10.00 42.01 S 13.55 46.39, 15.00 46.00 S 18.50 39.31, 20.00 39.31 S 23.75 45.17, 25.00 46.00 S 28.69 46.74, 30.00 46.00 S 33.50 40.34, 35.00 40.34 S 38.50 46.08, 40.00 46.00 S 43.50 39.80, 45.00 39.80 S 49.21 47.27, 50.00 46.00 S 53.65 24.43, 55.00 23.77 S 59.38 39.72, 60.00 41.09 S 63.65 45.34, 65.00 46.00 S 68.50 46.00, 70.00 46.00 S 74.11 47.21, 75.00 46.00 S 79.53 33.89, 80.00 32.47 S 84.11 14.79, 85.00 16.00 S 89.53 44.58, 90.00 46.00 S 93.50 46.00, 95.00 46.00 S 99.47 47.40, 100.00 46.00 S 104.07 20.82, 105.00 19.64 S 109.33 31.98, 110.00 33.32 S 113.51 39.34, 115.00 39.53 S 118.56 35.02, 120.00 34.59 S 124.01 35.38, 125.00 36.51 S 128.91 44.97, 130.00 46.00 S 133.77 46.87, 135.00 46.00 S 138.50 38.94, 140.00 38.94 S 143.77 45.13, 145.00 46.00 S 149.08 47.18, 150.00 46.00 S 153.80 34.09, 155.00 33.19 S 159.08 37.31, 160.00 38.49 S 163.80 45.10, 165.00 46.00 S 168.82 46.92, 170.00 46.00 S 173.50 38.18, 175.00 38.18 S 178.59 46.50, 180.00 46.00 S 183.50 34.65, 185.00 34.65 S 188.50 46.04, 190.00 46.00 S 194.03 35.51, 195.00 34.37 S 199.02 33.10, 200.00 34.23 S 204.41 44.62, 205.00 46.00"
        fill="none">
        <animate attributeName="stroke-dashoffset"
            from="411.3656842185722" to="0" dur="2.2s"/>
        <animate attributeName="stroke-dasharray"
            from="411.3656842185722" to="411.3656842185722"/>
    </path>
    <circle r="4" cx="5" cy="46" fill="#3023AE"/>
    <circle r="4" cx="205" cy="46" fill="#C86DD7" opacity="0">
        <animate attributeName="opacity"
            from="0" to="1" dur="0.1s" begin="2.2s" fill="freeze"/>
    </circle>
</svg>