<svg width="200" height="50" viewBox="0 0 210 50" xmlns="http://www.w3.org/2000/svg">
    <!-- 602 stargazers -->
    <!-- created at Fri Mar 27 2026 13:50:12 GMT+0000 (Coordinated Universal Time) -->
    <defs>
        <linearGradient id="stroke" x1="0%" y1="0%" x2="100%" y2="0%">
            <stop stop-color="#3023AE" offset="0%"/>
            <stop stop-color="#C86DD7" offset="100%"/>
        </linearGradient>
    </defs>
    <path stroke="url(#stroke)"
        stroke-width="3"
        stroke-linejoin="round"
        stroke-linecap="round"
        d="M5.00 46.0001 C 5.93 44.82, 8.67 40.34, 10.00 39.64 S 13.55 41.11, 15.00 40.72 S 18.67 37.68, 20.00 36.98 S 23.55 35.06, 25.00 35.43 S 28.55 39.91, 30.00 39.52 S 33.94 33.83, 35.00 32.77 S 38.52 29.84, 40.00 29.58 S 43.57 31.47, 45.00 31.03 S 48.55 26.90, 50.00 26.51 S 53.54 28.04, 55.00 28.37 S 58.78 29.61, 60.00 28.73 S 63.57 21.60, 65.00 21.15 S 68.58 25.09, 70.00 25.56 S 73.51 24.33, 75.00 24.47 S 78.51 26.41, 80.00 26.56 S 83.53 25.79, 85.00 25.47 S 88.57 24.85, 90.00 24.39 S 93.56 21.78, 95.00 22.19 S 98.50 27.18, 100.00 27.29 S 103.52 23.12, 105.00 22.89 S 108.54 25.39, 110.00 25.75 S 113.69 26.08, 115.00 25.35 S 118.52 20.45, 120.00 20.23 S 123.79 22.93, 125.00 23.82 S 128.80 28.46, 130.00 27.57 S 134.00 17.47, 135.00 16.36 S 138.50 16.53, 140.00 16.47 S 143.68 15.28, 145.00 16.00 S 148.84 20.97, 150.00 21.91 S 153.54 24.47, 155.00 24.13 S 158.71 18.82, 160.00 19.59 S 163.69 29.36, 165.00 30.09 S 168.78 26.05, 170.00 25.17 S 173.52 22.63, 175.00 22.88 S 178.82 25.95, 180.00 26.88 S 183.90 29.67, 185.00 30.69 S 188.76 37.05, 190.00 36.20 S 194.12 25.02, 195.00 23.81 S 198.59 22.97, 200.00 22.45 S 203.64 20.74, 205.00 20.10"
        fill="none">
        <animate attributeName="stroke-dashoffset"
            from="268.77046373365124" to="0" dur="2.2s"/>
        <animate attributeName="stroke-dasharray"
            from="268.77046373365124" to="268.77046373365124"/>
    </path>
    <circle r="4" cx="5" cy="46" fill="#3023AE"/>
    <circle r="4" cx="205" cy="20.102968011591674" fill="#C86DD7" opacity="0">
        <animate attributeName="opacity"
            from="0" to="1" dur="0.1s" begin="2.2s" fill="freeze"/>
    </circle>
</svg>