<svg width="200" height="50" viewBox="0 0 210 50" xmlns="http://www.w3.org/2000/svg">
    <!-- 609 stargazers -->
    <!-- created at Wed Apr 08 2026 11:31:03 GMT+0000 (Coordinated Universal Time) -->
    <defs>
        <linearGradient id="stroke" x1="0%" y1="0%" x2="100%" y2="0%">
            <stop stop-color="#3023AE" offset="0%"/>
            <stop stop-color="#C86DD7" offset="100%"/>
        </linearGradient>
    </defs>
    <path stroke="url(#stroke)"
        stroke-width="3"
        stroke-linejoin="round"
        stroke-linecap="round"
        d="M5.00 46.0001 C 5.95 44.84, 8.66 40.59, 10.00 39.91 S 13.56 41.38, 15.00 40.95 S 18.64 37.58, 20.00 36.95 S 23.53 36.01, 25.00 36.32 S 28.56 39.50, 30.00 39.07 S 33.87 34.34, 35.00 33.35 S 38.55 30.67, 40.00 30.30 S 43.55 31.18, 45.00 30.81 S 48.51 27.92, 50.00 27.74 S 53.50 29.54, 55.00 29.59 S 58.83 29.03, 60.00 28.09 S 63.50 21.48, 65.00 21.53 S 68.58 27.93, 70.00 28.42 S 73.53 25.26, 75.00 24.95 S 78.57 25.90, 80.00 26.35 S 83.52 28.31, 85.00 28.08 S 88.65 25.45, 90.00 24.80 S 93.55 22.85, 95.00 23.24 S 98.51 27.24, 100.00 27.43 S 103.53 24.80, 105.00 24.49 S 108.52 25.04, 110.00 25.30 S 113.52 26.47, 115.00 26.25 S 118.56 24.24, 120.00 23.83 S 123.59 22.90, 125.00 23.42 S 128.80 28.41, 130.00 27.51 S 134.01 17.13, 135.00 16.00 S 138.60 15.52, 140.00 16.05 S 143.86 18.84, 145.00 19.81 S 148.59 24.05, 150.00 24.56 S 153.50 23.51, 155.00 23.41 S 158.72 23.13, 160.00 23.92 S 163.51 29.39, 165.00 29.57 S 168.70 25.85, 170.00 25.11 S 173.74 23.08, 175.00 23.89 S 178.80 30.64, 180.00 31.54 S 183.52 31.62, 185.00 31.36 S 188.86 30.74, 190.00 29.76 S 193.50 22.81, 195.00 22.76 S 198.71 30.13, 200.00 29.37 S 204.44 18.25, 205.00 16.86"
        fill="none">
        <animate attributeName="stroke-dashoffset"
            from="262.9731091067688" to="0" dur="2.2s"/>
        <animate attributeName="stroke-dasharray"
            from="262.9731091067688" to="262.9731091067688"/>
    </path>
    <circle r="4" cx="5" cy="46" fill="#3023AE"/>
    <circle r="4" cx="205" cy="16.86042837405972" fill="#C86DD7" opacity="0">
        <animate attributeName="opacity"
            from="0" to="1" dur="0.1s" begin="2.2s" fill="freeze"/>
    </circle>
</svg>