<svg width="200" height="50" viewBox="0 0 210 50" xmlns="http://www.w3.org/2000/svg">
    <!-- 619 stargazers -->
    <!-- created at Wed Apr 29 2026 19:13:31 GMT+0000 (Coordinated Universal Time) -->
    <defs>
        <linearGradient id="stroke" x1="0%" y1="0%" x2="100%" y2="0%">
            <stop stop-color="#3023AE" offset="0%"/>
            <stop stop-color="#C86DD7" offset="100%"/>
        </linearGradient>
    </defs>
    <path stroke="url(#stroke)"
        stroke-width="3"
        stroke-linejoin="round"
        stroke-linecap="round"
        d="M5.00 46.0001 C 5.97 44.86, 8.65 40.78, 10.00 40.12 S 13.56 41.54, 15.00 41.12 S 18.63 37.87, 20.00 37.26 S 23.53 36.35, 25.00 36.65 S 28.56 39.72, 30.00 39.31 S 33.88 34.77, 35.00 33.78 S 38.56 30.89, 40.00 30.47 S 43.53 31.23, 45.00 30.93 S 48.50 28.34, 50.00 28.36 S 53.62 31.64, 55.00 31.05 S 58.73 24.90, 60.00 24.11 S 63.74 24.04, 65.00 24.85 S 68.50 30.59, 70.00 30.59 S 73.59 25.31, 75.00 24.80 S 78.58 26.54, 80.00 27.01 S 83.50 28.11, 85.00 28.12 S 88.61 27.68, 90.00 27.11 S 93.53 24.30, 95.00 24.01 S 98.51 24.92, 100.00 25.10 S 103.56 24.81, 105.00 25.22 S 108.52 28.19, 110.00 27.98 S 113.67 24.47, 115.00 23.78 S 118.60 22.22, 120.00 22.76 S 123.52 27.42, 125.00 27.67 S 129.02 25.60, 130.00 24.46 S 133.70 16.75, 135.00 16.00 S 138.75 17.89, 140.00 18.72 S 143.75 21.85, 145.00 22.67 S 148.50 25.39, 150.00 25.29 S 153.66 21.28, 155.00 21.96 S 158.72 29.57, 160.00 30.35 S 163.68 28.71, 165.00 28.00 S 168.50 25.00, 170.00 24.92 S 173.78 26.63, 175.00 27.50 S 178.80 31.13, 180.00 32.03 S 183.79 35.93, 185.00 35.04 S 188.91 25.79, 190.00 24.76 S 193.75 26.33, 195.00 25.50 S 198.50 18.24, 200.00 18.17 S 204.12 23.81, 205.00 25.02"
        fill="none">
        <animate attributeName="stroke-dashoffset"
            from="261.2627094669117" to="0" dur="2.2s"/>
        <animate attributeName="stroke-dasharray"
            from="261.2627094669117" to="261.2627094669117"/>
    </path>
    <circle r="4" cx="5" cy="46" fill="#3023AE"/>
    <circle r="4" cx="205" cy="25.017110247733104" fill="#C86DD7" opacity="0">
        <animate attributeName="opacity"
            from="0" to="1" dur="0.1s" begin="2.2s" fill="freeze"/>
    </circle>
</svg>