<svg width="200" height="50" viewBox="0 0 210 50" xmlns="http://www.w3.org/2000/svg">
    <!-- 613 stargazers -->
    <!-- created at Tue Apr 14 2026 13:21:33 GMT+0000 (Coordinated Universal Time) -->
    <defs>
        <linearGradient id="stroke" x1="0%" y1="0%" x2="100%" y2="0%">
            <stop stop-color="#3023AE" offset="0%"/>
            <stop stop-color="#C86DD7" offset="100%"/>
        </linearGradient>
    </defs>
    <path stroke="url(#stroke)"
        stroke-width="3"
        stroke-linejoin="round"
        stroke-linecap="round"
        d="M5.00 46.0001 C 5.95 44.84, 8.66 40.58, 10.00 39.90 S 13.56 41.37, 15.00 40.94 S 18.64 37.57, 20.00 36.94 S 23.53 35.99, 25.00 36.30 S 28.56 39.49, 30.00 39.06 S 33.87 34.32, 35.00 33.33 S 38.56 30.70, 40.00 30.27 S 43.55 30.74, 45.00 30.37 S 48.50 27.76, 50.00 27.71 S 53.61 30.59, 55.00 30.02 S 58.62 24.26, 60.00 23.66 S 63.64 25.06, 65.00 25.70 S 68.51 28.57, 70.00 28.39 S 73.53 24.77, 75.00 24.46 S 78.54 25.96, 80.00 26.31 S 83.50 26.87, 85.00 26.89 S 88.59 26.94, 90.00 26.42 S 93.50 23.24, 95.00 23.20 S 98.54 25.75, 100.00 26.11 S 103.53 26.00, 105.00 25.69 S 108.50 23.93, 110.00 24.01 S 113.51 26.35, 115.00 26.22 S 118.53 23.46, 120.00 23.14 S 123.58 23.56, 125.00 24.05 S 128.80 27.56, 130.00 26.66 S 133.97 17.58, 135.00 16.49 S 138.57 15.53, 140.00 16.00 S 143.86 18.79, 145.00 19.77 S 148.56 24.11, 150.00 24.52 S 153.53 22.28, 155.00 22.58 S 158.70 25.84, 160.00 26.60 S 163.54 28.76, 165.00 28.40 S 168.59 24.66, 170.00 24.15 S 173.79 23.91, 175.00 24.80 S 178.74 30.70, 180.00 31.52 S 183.62 31.92, 185.00 31.33 S 188.81 28.13, 190.00 27.22 S 193.52 23.95, 195.00 23.71 S 198.72 26.37, 200.00 25.60 S 204.20 18.90, 205.00 17.63"
        fill="none">
        <animate attributeName="stroke-dashoffset"
            from="246.98017972220723" to="0" dur="2.2s"/>
        <animate attributeName="stroke-dasharray"
            from="246.98017972220723" to="246.98017972220723"/>
    </path>
    <circle r="4" cx="5" cy="46" fill="#3023AE"/>
    <circle r="4" cx="205" cy="17.631654590964114" fill="#C86DD7" opacity="0">
        <animate attributeName="opacity"
            from="0" to="1" dur="0.1s" begin="2.2s" fill="freeze"/>
    </circle>
</svg>