<svg width="200" height="50" viewBox="0 0 210 50" xmlns="http://www.w3.org/2000/svg">
    <!-- 589 stargazers -->
    <!-- created at Wed Mar 04 2026 15:03:26 GMT+0000 (Coordinated Universal Time) -->
    <defs>
        <linearGradient id="stroke" x1="0%" y1="0%" x2="100%" y2="0%">
            <stop stop-color="#3023AE" offset="0%"/>
            <stop stop-color="#C86DD7" offset="100%"/>
        </linearGradient>
    </defs>
    <path stroke="url(#stroke)"
        stroke-width="3"
        stroke-linejoin="round"
        stroke-linecap="round"
        d="M5.00 46.0001 C 5.96 44.85, 8.66 40.67, 10.00 40.00 S 13.53 41.33, 15.00 41.02 S 18.68 38.64, 20.00 37.93 S 23.53 35.34, 25.00 35.63 S 28.51 40.08, 30.00 39.89 S 33.89 35.39, 35.00 34.39 S 38.56 31.31, 40.00 30.89 S 43.57 31.91, 45.00 31.45 S 48.52 27.87, 50.00 27.63 S 53.52 29.58, 55.00 29.82 S 58.72 30.03, 60.00 29.25 S 63.60 24.20, 65.00 23.66 S 68.66 24.73, 70.00 25.40 S 73.52 28.44, 75.00 28.69 S 78.57 27.58, 80.00 27.14 S 83.50 25.66, 85.00 25.60 S 88.54 26.36, 90.00 26.73 S 93.57 28.55, 95.00 28.10 S 98.60 24.12, 100.00 23.58 S 103.53 23.92, 105.00 24.21 S 108.54 25.25, 110.00 25.59 S 113.50 26.45, 115.00 26.53 S 118.61 26.73, 120.00 26.16 S 123.50 22.46, 125.00 22.46 S 128.62 25.61, 130.00 26.19 S 133.89 27.65, 135.00 26.64 S 138.97 18.12, 140.00 17.03 S 143.55 15.60, 145.00 16.00 S 148.95 18.70, 150.00 19.78 S 153.56 25.85, 155.00 26.26 S 158.54 22.95, 160.00 22.61 S 163.77 23.06, 165.00 23.92 S 168.68 28.86, 170.00 29.57 S 173.69 30.09, 175.00 29.35 S 178.52 24.16, 180.00 23.92 S 183.72 26.96, 185.00 27.74 S 189.02 28.85, 190.00 29.99 S 193.72 40.17, 195.00 39.38 S 199.16 25.04, 200.00 23.80 S 203.52 24.35, 205.00 24.59"
        fill="none">
        <animate attributeName="stroke-dashoffset"
            from="259.3825372159848" to="0" dur="2.2s"/>
        <animate attributeName="stroke-dasharray"
            from="259.3825372159848" to="259.3825372159848"/>
    </path>
    <circle r="4" cx="5" cy="46" fill="#3023AE"/>
    <circle r="4" cx="205" cy="24.58579007113139" fill="#C86DD7" opacity="0">
        <animate attributeName="opacity"
            from="0" to="1" dur="0.1s" begin="2.2s" fill="freeze"/>
    </circle>
</svg>