<svg width="200" height="50" viewBox="0 0 210 50" xmlns="http://www.w3.org/2000/svg">
    <!-- 616 stargazers -->
    <!-- created at Sun Apr 26 2026 18:51:15 GMT+0000 (Coordinated Universal Time) -->
    <defs>
        <linearGradient id="stroke" x1="0%" y1="0%" x2="100%" y2="0%">
            <stop stop-color="#3023AE" offset="0%"/>
            <stop stop-color="#C86DD7" offset="100%"/>
        </linearGradient>
    </defs>
    <path stroke="url(#stroke)"
        stroke-width="3"
        stroke-linejoin="round"
        stroke-linecap="round"
        d="M5.00 46.0001 C 5.95 44.84, 8.66 40.59, 10.00 39.91 S 13.56 41.38, 15.00 40.95 S 18.64 37.58, 20.00 36.95 S 23.53 36.01, 25.00 36.32 S 28.56 39.50, 30.00 39.07 S 33.89 34.36, 35.00 33.35 S 38.56 30.35, 40.00 29.93 S 43.53 30.72, 45.00 30.40 S 48.50 27.72, 50.00 27.74 S 53.63 31.13, 55.00 30.53 S 58.69 24.08, 60.00 23.35 S 63.75 24.07, 65.00 24.91 S 68.52 30.30, 70.00 30.04 S 73.59 23.72, 75.00 23.20 S 78.62 25.75, 80.00 26.35 S 83.50 27.48, 85.00 27.49 S 88.59 26.98, 90.00 26.45 S 93.52 23.98, 95.00 23.76 S 98.51 24.75, 100.00 24.95 S 103.50 25.04, 105.00 25.10 S 108.52 25.52, 110.00 25.30 S 113.55 24.01, 115.00 23.61 S 118.62 21.97, 120.00 22.56 S 123.50 27.87, 125.00 27.84 S 129.03 23.50, 130.00 22.35 S 133.67 16.69, 135.00 16.00 S 138.63 16.57, 140.00 17.18 S 143.79 19.58, 145.00 20.48 S 148.51 24.35, 150.00 24.56 S 153.67 21.16, 155.00 21.85 S 158.63 29.18, 160.00 29.80 S 163.69 27.09, 165.00 26.36 S 168.52 23.95, 170.00 24.18 S 173.71 27.18, 175.00 27.95 S 179.02 29.03, 180.00 30.16 S 183.78 40.32, 185.00 39.45 S 189.16 24.27, 190.00 23.03 S 193.66 25.45, 195.00 24.78 S 198.50 17.91, 200.00 18.01 S 204.16 24.15, 205.00 25.40"
        fill="none">
        <animate attributeName="stroke-dashoffset"
            from="270.2715781773573" to="0" dur="2.2s"/>
        <animate attributeName="stroke-dasharray"
            from="270.2715781773573" to="270.2715781773573"/>
    </path>
    <circle r="4" cx="5" cy="46" fill="#3023AE"/>
    <circle r="4" cx="205" cy="25.395211302426986" fill="#C86DD7" opacity="0">
        <animate attributeName="opacity"
            from="0" to="1" dur="0.1s" begin="2.2s" fill="freeze"/>
    </circle>
</svg>