<svg width="200" height="50" viewBox="0 0 210 50" xmlns="http://www.w3.org/2000/svg">
    <!-- 624 stargazers -->
    <!-- created at Mon May 11 2026 20:35:17 GMT+0000 (Coordinated Universal Time) -->
    <defs>
        <linearGradient id="stroke" x1="0%" y1="0%" x2="100%" y2="0%">
            <stop stop-color="#3023AE" offset="0%"/>
            <stop stop-color="#C86DD7" offset="100%"/>
        </linearGradient>
    </defs>
    <path stroke="url(#stroke)"
        stroke-width="3"
        stroke-linejoin="round"
        stroke-linecap="round"
        d="M5.00 46.0001 C 5.95 44.84, 8.66 40.59, 10.00 39.92 S 13.60 41.48, 15.00 40.96 S 18.59 36.69, 20.00 36.17 S 23.52 37.01, 25.00 37.25 S 28.56 38.24, 30.00 37.81 S 33.82 35.16, 35.00 34.23 S 38.62 30.52, 40.00 29.94 S 43.52 30.27, 45.00 30.00 S 48.50 28.13, 50.00 28.14 S 53.65 30.71, 55.00 30.06 S 58.82 24.28, 60.00 23.36 S 63.89 21.24, 65.00 22.25 S 68.55 32.13, 70.00 32.52 S 73.81 25.88, 75.00 24.97 S 78.53 24.57, 80.00 24.86 S 83.56 26.53, 85.00 26.93 S 88.62 28.23, 90.00 27.65 S 93.57 23.20, 95.00 22.74 S 98.54 24.03, 100.00 24.38 S 103.54 24.78, 105.00 25.11 S 108.57 27.12, 110.00 26.65 S 113.56 22.24, 115.00 21.83 S 118.76 22.99, 120.00 23.84 S 123.82 29.62, 125.00 28.69 S 128.99 17.11, 130.00 16.00 S 133.52 17.41, 135.00 17.67 S 138.78 16.90, 140.00 17.78 S 143.67 24.21, 145.00 24.90 S 148.50 23.08, 150.00 22.98 S 153.76 23.40, 155.00 24.25 S 158.50 29.77, 160.00 29.80 S 163.69 25.23, 165.00 24.49 S 168.87 23.21, 170.00 24.20 S 173.71 32.47, 175.00 33.24 S 178.70 30.92, 180.00 30.17 S 183.78 28.36, 185.00 27.49 S 188.64 23.69, 190.00 23.05 S 193.52 22.99, 195.00 22.77 S 198.50 21.46, 200.00 21.53 S 203.58 22.75, 205.00 23.23"
        fill="none">
        <animate attributeName="stroke-dashoffset"
            from="260.55543131411974" to="0" dur="2.2s"/>
        <animate attributeName="stroke-dasharray"
            from="260.55543131411974" to="260.55543131411974"/>
    </path>
    <circle r="4" cx="5" cy="46" fill="#3023AE"/>
    <circle r="4" cx="205" cy="23.233293458323907" fill="#C86DD7" opacity="0">
        <animate attributeName="opacity"
            from="0" to="1" dur="0.1s" begin="2.2s" fill="freeze"/>
    </circle>
</svg>