<svg width="200" height="50" viewBox="0 0 210 50" xmlns="http://www.w3.org/2000/svg">
    <!-- 622 stargazers -->
    <!-- created at Tue May 05 2026 20:01:51 GMT+0000 (Coordinated Universal Time) -->
    <defs>
        <linearGradient id="stroke" x1="0%" y1="0%" x2="100%" y2="0%">
            <stop stop-color="#3023AE" offset="0%"/>
            <stop stop-color="#C86DD7" offset="100%"/>
        </linearGradient>
    </defs>
    <path stroke="url(#stroke)"
        stroke-width="3"
        stroke-linejoin="round"
        stroke-linecap="round"
        d="M5.00 46.0001 C 5.95 44.84, 8.66 40.59, 10.00 39.91 S 13.56 41.38, 15.00 40.95 S 18.64 37.58, 20.00 36.95 S 23.53 36.01, 25.00 36.32 S 28.56 39.50, 30.00 39.07 S 33.89 34.36, 35.00 33.35 S 38.58 30.41, 40.00 29.93 S 43.52 30.26, 45.00 29.99 S 48.50 28.12, 50.00 28.13 S 53.63 30.66, 55.00 30.05 S 58.75 24.54, 60.00 23.70 S 63.80 22.44, 65.00 23.34 S 68.50 31.12, 70.00 31.23 S 73.71 24.82, 75.00 24.06 S 78.56 24.92, 80.00 25.34 S 83.52 26.67, 85.00 26.92 S 88.57 27.49, 90.00 27.03 S 93.55 24.15, 95.00 23.76 S 98.50 24.26, 100.00 24.37 S 103.56 24.06, 105.00 24.49 S 108.57 27.81, 110.00 27.34 S 113.58 21.75, 115.00 21.25 S 118.75 23.00, 120.00 23.83 S 123.58 28.31, 125.00 27.84 S 129.03 21.60, 130.00 20.46 S 133.57 16.47, 135.00 16.00 S 138.83 16.24, 140.00 17.18 S 143.75 23.27, 145.00 24.09 S 148.56 24.18, 150.00 23.75 S 153.72 20.34, 155.00 21.11 S 158.73 29.00, 160.00 29.80 S 163.74 28.18, 165.00 27.37 S 168.56 22.86, 170.00 23.29 S 173.84 29.41, 175.00 30.37 S 178.50 31.60, 180.00 31.54 S 183.86 30.93, 185.00 29.96 S 188.56 23.46, 190.00 23.03 S 193.75 27.85, 195.00 27.02 S 198.55 16.80, 200.00 16.40 S 204.20 23.01, 205.00 24.28"
        fill="none">
        <animate attributeName="stroke-dashoffset"
            from="269.17339927687243" to="0" dur="2.2s"/>
        <animate attributeName="stroke-dasharray"
            from="269.17339927687243" to="269.17339927687243"/>
    </path>
    <circle r="4" cx="5" cy="46" fill="#3023AE"/>
    <circle r="4" cx="205" cy="24.280645669726102" fill="#C86DD7" opacity="0">
        <animate attributeName="opacity"
            from="0" to="1" dur="0.1s" begin="2.2s" fill="freeze"/>
    </circle>
</svg>