<svg width="200" height="50" viewBox="0 0 210 50" xmlns="http://www.w3.org/2000/svg">
    <!-- 611 stargazers -->
    <!-- created at Sat Apr 11 2026 13:07:53 GMT+0000 (Coordinated Universal Time) -->
    <defs>
        <linearGradient id="stroke" x1="0%" y1="0%" x2="100%" y2="0%">
            <stop stop-color="#3023AE" offset="0%"/>
            <stop stop-color="#C86DD7" offset="100%"/>
        </linearGradient>
    </defs>
    <path stroke="url(#stroke)"
        stroke-width="3"
        stroke-linejoin="round"
        stroke-linecap="round"
        d="M5.00 46.0001 C 5.95 44.84, 8.66 40.58, 10.00 39.90 S 13.56 41.37, 15.00 40.94 S 18.64 37.57, 20.00 36.94 S 23.53 35.99, 25.00 36.30 S 28.56 39.49, 30.00 39.06 S 33.87 34.32, 35.00 33.33 S 38.55 30.64, 40.00 30.27 S 43.56 31.21, 45.00 30.79 S 48.50 27.45, 50.00 27.33 S 53.59 30.54, 55.00 30.02 S 58.62 24.26, 60.00 23.66 S 63.64 25.06, 65.00 25.70 S 68.50 28.50, 70.00 28.39 S 73.55 25.29, 75.00 24.92 S 78.55 25.43, 80.00 25.80 S 83.50 27.45, 85.00 27.46 S 88.62 26.44, 90.00 25.85 S 93.51 23.06, 95.00 23.20 S 98.53 26.47, 100.00 26.75 S 103.53 25.37, 105.00 25.06 S 108.51 24.46, 110.00 24.63 S 113.51 26.35, 115.00 26.22 S 118.53 24.10, 120.00 23.79 S 123.51 23.86, 125.00 24.05 S 128.77 25.97, 130.00 25.11 S 133.89 18.05, 135.00 17.04 S 138.53 15.69, 140.00 16.00 S 143.95 18.05, 145.00 19.12 S 148.53 25.96, 150.00 26.24 S 153.50 21.01, 155.00 21.07 S 158.86 25.63, 160.00 26.60 S 163.54 29.89, 165.00 29.54 S 168.70 24.89, 170.00 24.15 S 173.88 22.86, 175.00 23.85 S 178.80 32.15, 180.00 33.05 S 183.70 32.09, 185.00 31.33 S 188.75 28.04, 190.00 27.22 S 193.50 24.81, 195.00 24.74 S 198.82 27.69, 200.00 26.76 S 204.33 18.15, 205.00 16.81"
        fill="none">
        <animate attributeName="stroke-dashoffset"
            from="254.2004804219607" to="0" dur="2.2s"/>
        <animate attributeName="stroke-dasharray"
            from="254.2004804219607" to="254.2004804219607"/>
    </path>
    <circle r="4" cx="5" cy="46" fill="#3023AE"/>
    <circle r="4" cx="205" cy="16.809213397097444" fill="#C86DD7" opacity="0">
        <animate attributeName="opacity"
            from="0" to="1" dur="0.1s" begin="2.2s" fill="freeze"/>
    </circle>
</svg>