<svg width="200" height="50" viewBox="0 0 210 50" xmlns="http://www.w3.org/2000/svg">
    <!-- 595 stargazers -->
    <!-- created at Sat Mar 21 2026 13:42:58 GMT+0000 (Coordinated Universal Time) -->
    <defs>
        <linearGradient id="stroke" x1="0%" y1="0%" x2="100%" y2="0%">
            <stop stop-color="#3023AE" offset="0%"/>
            <stop stop-color="#C86DD7" offset="100%"/>
        </linearGradient>
    </defs>
    <path stroke="url(#stroke)"
        stroke-width="3"
        stroke-linejoin="round"
        stroke-linecap="round"
        d="M5.00 46.0001 C 5.96 44.85, 8.66 40.68, 10.00 40.01 S 13.53 41.34, 15.00 41.04 S 18.68 38.66, 20.00 37.95 S 23.53 35.36, 25.00 35.65 S 28.53 40.21, 30.00 39.91 S 33.88 34.56, 35.00 33.56 S 38.53 31.23, 40.00 30.93 S 43.56 31.90, 45.00 31.48 S 48.54 28.40, 50.00 28.04 S 53.52 28.73, 55.00 28.98 S 58.67 30.46, 60.00 29.76 S 63.60 24.25, 65.00 23.71 S 68.53 25.58, 70.00 25.88 S 73.52 25.48, 75.00 25.75 S 78.52 27.49, 80.00 27.71 S 83.55 27.61, 85.00 27.23 S 88.53 25.44, 90.00 25.14 S 93.51 24.99, 95.00 25.19 S 98.50 26.53, 100.00 26.47 S 103.51 24.97, 105.00 24.84 S 108.57 25.19, 110.00 25.64 S 113.58 28.49, 115.00 28.02 S 118.62 22.93, 120.00 22.34 S 123.68 23.07, 125.00 23.79 S 128.52 28.03, 130.00 27.81 S 134.03 23.48, 135.00 22.34 S 138.64 16.62, 140.00 16.00 S 143.71 17.02, 145.00 17.78 S 148.81 20.97, 150.00 21.88 S 153.54 25.08, 155.00 25.43 S 158.58 23.81, 160.00 24.28 S 163.53 28.40, 165.00 28.72 S 168.68 27.12, 170.00 26.41 S 173.50 23.29, 175.00 23.36 S 178.93 25.87, 180.00 26.92 S 183.72 32.34, 185.00 33.12 S 188.70 33.71, 190.00 32.96 S 193.89 28.34, 195.00 27.33 S 198.50 23.91, 200.00 23.85 S 203.72 26.11, 205.00 26.89"
        fill="none">
        <animate attributeName="stroke-dashoffset"
            from="243.21274522702842" to="0" dur="2.2s"/>
        <animate attributeName="stroke-dasharray"
            from="243.21274522702842" to="243.21274522702842"/>
    </path>
    <circle r="4" cx="5" cy="46" fill="#3023AE"/>
    <circle r="4" cx="205" cy="26.890144399556135" fill="#C86DD7" opacity="0">
        <animate attributeName="opacity"
            from="0" to="1" dur="0.1s" begin="2.2s" fill="freeze"/>
    </circle>
</svg>