<svg width="200" height="50" viewBox="0 0 210 50" xmlns="http://www.w3.org/2000/svg">
    <!-- 608 stargazers -->
    <!-- created at Sun Apr 05 2026 11:19:07 GMT+0000 (Coordinated Universal Time) -->
    <defs>
        <linearGradient id="stroke" x1="0%" y1="0%" x2="100%" y2="0%">
            <stop stop-color="#3023AE" offset="0%"/>
            <stop stop-color="#C86DD7" offset="100%"/>
        </linearGradient>
    </defs>
    <path stroke="url(#stroke)"
        stroke-width="3"
        stroke-linejoin="round"
        stroke-linecap="round"
        d="M5.00 46.0001 C 5.96 44.85, 8.66 40.69, 10.00 40.02 S 13.56 41.46, 15.00 41.04 S 18.63 37.73, 20.00 37.11 S 23.53 36.18, 25.00 36.49 S 28.56 39.62, 30.00 39.20 S 33.86 34.55, 35.00 33.57 S 38.52 30.81, 40.00 30.57 S 43.56 32.35, 45.00 31.93 S 48.54 28.05, 50.00 27.69 S 53.53 29.13, 55.00 29.43 S 58.86 30.75, 60.00 29.78 S 63.50 20.94, 65.00 20.94 S 68.60 29.22, 70.00 29.77 S 73.55 25.25, 75.00 24.87 S 78.54 26.85, 80.00 27.20 S 83.53 27.55, 85.00 27.26 S 88.55 25.54, 90.00 25.17 S 93.53 24.39, 95.00 24.67 S 98.50 27.09, 100.00 27.11 S 103.52 25.08, 105.00 24.87 S 108.51 25.51, 110.00 25.66 S 113.52 26.13, 115.00 25.92 S 118.50 24.33, 120.00 24.21 S 123.59 24.65, 125.00 25.16 S 128.89 28.85, 130.00 27.83 S 134.03 17.14, 135.00 16.00 S 138.65 15.37, 140.00 16.03 S 143.88 19.92, 145.00 20.92 S 148.53 24.62, 150.00 24.93 S 153.50 23.12, 155.00 23.03 S 158.76 23.46, 160.00 24.30 S 163.57 29.40, 165.00 29.85 S 168.64 28.07, 170.00 27.44 S 173.50 25.11, 175.00 25.20 S 178.74 27.22, 180.00 28.03 S 183.58 31.13, 185.00 31.61 S 188.80 32.33, 190.00 31.43 S 193.62 24.73, 195.00 24.13 S 198.71 27.90, 200.00 27.13 S 204.27 19.48, 205.00 18.17"
        fill="none">
        <animate attributeName="stroke-dashoffset"
            from="256.5120367098387" to="0" dur="2.2s"/>
        <animate attributeName="stroke-dasharray"
            from="256.5120367098387" to="256.5120367098387"/>
    </path>
    <circle r="4" cx="5" cy="46" fill="#3023AE"/>
    <circle r="4" cx="205" cy="18.173961103049137" fill="#C86DD7" opacity="0">
        <animate attributeName="opacity"
            from="0" to="1" dur="0.1s" begin="2.2s" fill="freeze"/>
    </circle>
</svg>