<svg width="200" height="50" viewBox="0 0 210 50" xmlns="http://www.w3.org/2000/svg">
    <!-- 602 stargazers -->
    <!-- created at Mon Mar 30 2026 13:51:06 GMT+0000 (Coordinated Universal Time) -->
    <defs>
        <linearGradient id="stroke" x1="0%" y1="0%" x2="100%" y2="0%">
            <stop stop-color="#3023AE" offset="0%"/>
            <stop stop-color="#C86DD7" offset="100%"/>
        </linearGradient>
    </defs>
    <path stroke="url(#stroke)"
        stroke-width="3"
        stroke-linejoin="round"
        stroke-linecap="round"
        d="M5.00 46.0001 C 5.95 44.84, 8.66 40.59, 10.00 39.91 S 13.56 41.38, 15.00 40.95 S 18.64 37.58, 20.00 36.95 S 23.53 36.01, 25.00 36.32 S 28.55 39.44, 30.00 39.07 S 33.87 34.77, 35.00 33.78 S 38.53 30.61, 40.00 30.30 S 43.56 32.10, 45.00 31.68 S 48.55 27.74, 50.00 27.37 S 53.53 28.83, 55.00 29.14 S 58.79 30.37, 60.00 29.49 S 63.55 22.25, 65.00 21.88 S 68.55 26.55, 70.00 26.93 S 73.51 24.35, 75.00 24.50 S 78.53 27.69, 80.00 27.96 S 83.55 26.75, 85.00 26.37 S 88.55 25.71, 90.00 25.33 S 93.55 23.36, 95.00 23.76 S 98.50 28.09, 100.00 28.11 S 103.56 24.31, 105.00 23.90 S 108.54 24.96, 110.00 25.30 S 113.58 26.73, 115.00 26.25 S 118.50 22.06, 120.00 21.95 S 123.69 24.78, 125.00 25.51 S 128.91 28.55, 130.00 27.51 S 133.89 17.01, 135.00 16.00 S 138.55 17.99, 140.00 18.36 S 143.68 17.82, 145.00 18.53 S 148.65 23.09, 150.00 23.75 S 153.52 23.63, 155.00 23.41 S 158.66 21.61, 160.00 22.28 S 163.71 27.67, 165.00 28.43 S 168.63 28.81, 170.00 28.19 S 173.50 23.96, 175.00 23.89 S 178.72 26.93, 180.00 27.71 S 184.02 28.82, 185.00 29.96 S 188.78 40.25, 190.00 39.37 S 194.12 23.97, 195.00 22.76 S 198.52 25.86, 200.00 25.63 S 203.87 22.23, 205.00 21.24"
        fill="none">
        <animate attributeName="stroke-dashoffset"
            from="267.0359480152782" to="0" dur="2.2s"/>
        <animate attributeName="stroke-dasharray"
            from="267.0359480152782" to="267.0359480152782"/>
    </path>
    <circle r="4" cx="5" cy="46" fill="#3023AE"/>
    <circle r="4" cx="205" cy="21.236125943599585" fill="#C86DD7" opacity="0">
        <animate attributeName="opacity"
            from="0" to="1" dur="0.1s" begin="2.2s" fill="freeze"/>
    </circle>
</svg>