<svg width="200" height="50" viewBox="0 0 210 50" xmlns="http://www.w3.org/2000/svg">
    <!-- 625 stargazers -->
    <!-- created at Mon May 18 2026 02:54:40 GMT+0000 (Coordinated Universal Time) -->
    <defs>
        <linearGradient id="stroke" x1="0%" y1="0%" x2="100%" y2="0%">
            <stop stop-color="#3023AE" offset="0%"/>
            <stop stop-color="#C86DD7" offset="100%"/>
        </linearGradient>
    </defs>
    <path stroke="url(#stroke)"
        stroke-width="3"
        stroke-linejoin="round"
        stroke-linecap="round"
        d="M5.00 46.0001 C 5.96 44.85, 8.66 40.69, 10.00 40.02 S 13.59 41.56, 15.00 41.04 S 18.59 36.85, 20.00 36.33 S 23.52 37.16, 25.00 37.40 S 28.58 38.43, 30.00 37.95 S 33.79 34.88, 35.00 33.99 S 38.59 31.09, 40.00 30.57 S 43.56 30.68, 45.00 30.27 S 48.51 27.54, 50.00 27.69 S 53.60 31.83, 55.00 31.28 S 58.86 24.72, 60.00 23.74 S 63.81 21.73, 65.00 22.65 S 68.57 31.04, 70.00 31.48 S 73.73 26.57, 75.00 25.77 S 78.52 25.00, 80.00 25.22 S 83.50 27.18, 85.00 27.25 S 88.55 26.07, 90.00 25.69 S 93.51 24.81, 95.00 24.67 S 98.50 24.63, 100.00 24.74 S 103.54 25.13, 105.00 25.46 S 108.60 27.51, 110.00 26.98 S 113.50 21.79, 115.00 21.68 S 118.70 25.49, 120.00 26.23 S 123.95 28.43, 125.00 27.36 S 128.96 17.08, 130.00 16.00 S 133.58 16.56, 135.00 17.05 S 138.84 18.49, 140.00 19.44 S 143.60 24.70, 145.00 25.25 S 148.53 23.08, 150.00 23.37 S 153.69 26.51, 155.00 27.24 S 158.61 29.54, 160.00 28.98 S 163.58 23.66, 165.00 23.16 S 168.95 24.40, 170.00 25.48 S 173.82 32.53, 175.00 33.46 S 178.87 34.28, 180.00 33.29 S 183.82 25.59, 185.00 24.66 S 188.54 25.75, 190.00 25.40 S 193.52 22.45, 195.00 22.23 S 198.50 23.81, 200.00 23.87 S 203.54 22.98, 205.00 22.62"
        fill="none">
        <animate attributeName="stroke-dashoffset"
            from="256.6869761789948" to="0" dur="2.2s"/>
        <animate attributeName="stroke-dasharray"
            from="256.6869761789948" to="256.6869761789948"/>
    </path>
    <circle r="4" cx="5" cy="46" fill="#3023AE"/>
    <circle r="4" cx="205" cy="22.62062690327362" fill="#C86DD7" opacity="0">
        <animate attributeName="opacity"
            from="0" to="1" dur="0.1s" begin="2.2s" fill="freeze"/>
    </circle>
</svg>