<svg width="200" height="50" viewBox="0 0 210 50" xmlns="http://www.w3.org/2000/svg">
    <!-- 620 stargazers -->
    <!-- created at Sat May 02 2026 19:38:35 GMT+0000 (Coordinated Universal Time) -->
    <defs>
        <linearGradient id="stroke" x1="0%" y1="0%" x2="100%" y2="0%">
            <stop stop-color="#3023AE" offset="0%"/>
            <stop stop-color="#C86DD7" offset="100%"/>
        </linearGradient>
    </defs>
    <path stroke="url(#stroke)"
        stroke-width="3"
        stroke-linejoin="round"
        stroke-linecap="round"
        d="M5.00 46.0001 C 5.95 44.84, 8.66 40.59, 10.00 39.91 S 13.56 41.38, 15.00 40.95 S 18.64 37.58, 20.00 36.95 S 23.53 36.01, 25.00 36.32 S 28.56 39.50, 30.00 39.07 S 33.89 34.36, 35.00 33.35 S 38.58 30.41, 40.00 29.93 S 43.52 30.26, 45.00 29.99 S 48.50 28.12, 50.00 28.13 S 53.63 30.66, 55.00 30.05 S 58.71 24.47, 60.00 23.70 S 63.73 23.31, 65.00 24.11 S 68.50 30.05, 70.00 30.04 S 73.62 24.64, 75.00 24.06 S 78.61 25.27, 80.00 25.83 S 83.50 28.07, 85.00 28.08 S 88.65 26.54, 90.00 25.88 S 93.52 23.46, 95.00 23.24 S 98.53 24.09, 100.00 24.37 S 103.56 24.67, 105.00 25.10 S 108.57 27.81, 110.00 27.34 S 113.65 22.46, 115.00 21.82 S 118.71 21.78, 120.00 22.56 S 123.51 27.96, 125.00 27.84 S 129.03 22.85, 130.00 21.70 S 133.60 16.55, 135.00 16.00 S 138.71 17.01, 140.00 17.77 S 143.71 21.09, 145.00 21.86 S 148.50 23.63, 150.00 23.75 S 153.60 22.08, 155.00 22.62 S 158.77 26.77, 160.00 27.63 S 163.58 30.05, 165.00 29.57 S 168.55 24.58, 170.00 24.18 S 173.79 25.96, 175.00 26.85 S 178.63 30.93, 180.00 31.54 S 183.80 32.26, 185.00 31.36 S 188.62 24.61, 190.00 24.01 S 193.76 27.87, 195.00 27.02 S 198.60 17.73, 200.00 17.19 S 204.04 22.07, 205.00 23.22"
        fill="none">
        <animate attributeName="stroke-dashoffset"
            from="257.98467274710316" to="0" dur="2.2s"/>
        <animate attributeName="stroke-dasharray"
            from="257.98467274710316" to="257.98467274710316"/>
    </path>
    <circle r="4" cx="5" cy="46" fill="#3023AE"/>
    <circle r="4" cx="205" cy="23.22054900186439" fill="#C86DD7" opacity="0">
        <animate attributeName="opacity"
            from="0" to="1" dur="0.1s" begin="2.2s" fill="freeze"/>
    </circle>
</svg>