<svg width="200" height="50" viewBox="0 0 210 50" xmlns="http://www.w3.org/2000/svg">
    <!-- 606 stargazers -->
    <!-- created at Thu Apr 02 2026 11:18:28 GMT+0000 (Coordinated Universal Time) -->
    <defs>
        <linearGradient id="stroke" x1="0%" y1="0%" x2="100%" y2="0%">
            <stop stop-color="#3023AE" offset="0%"/>
            <stop stop-color="#C86DD7" offset="100%"/>
        </linearGradient>
    </defs>
    <path stroke="url(#stroke)"
        stroke-width="3"
        stroke-linejoin="round"
        stroke-linecap="round"
        d="M5.00 46.0001 C 5.95 44.84, 8.66 40.59, 10.00 39.91 S 13.56 41.38, 15.00 40.95 S 18.64 37.58, 20.00 36.95 S 23.53 36.01, 25.00 36.32 S 28.55 39.44, 30.00 39.07 S 33.87 34.77, 35.00 33.78 S 38.53 30.61, 40.00 30.30 S 43.58 32.15, 45.00 31.68 S 48.53 27.30, 50.00 27.00 S 53.53 29.29, 55.00 29.59 S 58.83 29.95, 60.00 29.01 S 63.51 21.69, 65.00 21.53 S 68.56 27.48, 70.00 27.91 S 73.50 24.49, 75.00 24.50 S 78.51 27.77, 80.00 27.96 S 83.53 26.14, 85.00 25.83 S 88.53 26.19, 90.00 25.88 S 93.51 23.63, 95.00 23.76 S 98.51 26.58, 100.00 26.78 S 103.55 25.49, 105.00 25.10 S 108.51 23.87, 110.00 24.05 S 113.51 26.38, 115.00 26.25 S 118.50 23.30, 120.00 23.18 S 123.58 25.01, 125.00 25.51 S 128.91 27.72, 130.00 26.69 S 133.88 17.00, 135.00 16.00 S 138.57 17.31, 140.00 17.77 S 143.71 18.40, 145.00 19.17 S 148.66 23.07, 150.00 23.75 S 153.54 24.56, 155.00 24.24 S 158.62 20.92, 160.00 21.50 S 163.82 27.51, 165.00 28.43 S 168.63 29.96, 170.00 29.34 S 173.55 24.29, 175.00 23.89 S 178.80 25.71, 180.00 26.60 S 183.94 30.30, 185.00 31.36 S 188.81 37.53, 190.00 36.62 S 194.04 24.90, 195.00 23.75 S 198.67 25.22, 200.00 24.53 S 204.04 19.68, 205.00 18.53"
        fill="none">
        <animate attributeName="stroke-dashoffset"
            from="260.86549409901244" to="0" dur="2.2s"/>
        <animate attributeName="stroke-dasharray"
            from="260.86549409901244" to="260.86549409901244"/>
    </path>
    <circle r="4" cx="5" cy="46" fill="#3023AE"/>
    <circle r="4" cx="205" cy="18.526948403235256" fill="#C86DD7" opacity="0">
        <animate attributeName="opacity"
            from="0" to="1" dur="0.1s" begin="2.2s" fill="freeze"/>
    </circle>
</svg>