<svg width="200" height="50" viewBox="0 0 210 50" xmlns="http://www.w3.org/2000/svg">
    <!-- 591 stargazers -->
    <!-- created at Thu Mar 12 2026 10:52:44 GMT+0000 (Coordinated Universal Time) -->
    <defs>
        <linearGradient id="stroke" x1="0%" y1="0%" x2="100%" y2="0%">
            <stop stop-color="#3023AE" offset="0%"/>
            <stop stop-color="#C86DD7" offset="100%"/>
        </linearGradient>
    </defs>
    <path stroke="url(#stroke)"
        stroke-width="3"
        stroke-linejoin="round"
        stroke-linecap="round"
        d="M5.00 46.0001 C 5.97 44.86, 8.65 40.78, 10.00 40.12 S 13.53 41.42, 15.00 41.12 S 18.67 38.79, 20.00 38.09 S 23.53 35.55, 25.00 35.83 S 28.53 40.31, 30.00 40.01 S 33.88 34.77, 35.00 33.77 S 38.52 31.43, 40.00 31.19 S 43.57 32.62, 45.00 32.16 S 48.52 28.22, 50.00 27.99 S 53.52 30.35, 55.00 30.58 S 58.78 30.45, 60.00 29.58 S 63.56 23.80, 65.00 23.38 S 68.67 25.98, 70.00 26.67 S 73.50 28.46, 75.00 28.51 S 78.55 27.37, 80.00 27.00 S 83.50 25.98, 85.00 26.00 S 88.50 27.01, 90.00 27.10 S 93.52 26.87, 95.00 26.66 S 98.53 25.95, 100.00 25.65 S 103.50 24.59, 105.00 24.64 S 108.59 25.47, 110.00 25.99 S 113.57 28.79, 115.00 28.33 S 118.61 23.33, 120.00 22.75 S 123.73 23.38, 125.00 24.17 S 128.50 28.98, 130.00 28.96 S 134.08 25.27, 135.00 24.08 S 138.64 16.63, 140.00 16.00 S 143.62 18.86, 145.00 19.45 S 148.78 19.42, 150.00 20.29 S 153.55 26.25, 155.00 26.65 S 158.50 23.02, 160.00 23.07 S 163.76 26.17, 165.00 27.01 S 168.52 30.11, 170.00 29.90 S 173.69 26.27, 175.00 25.54 S 178.73 23.55, 180.00 24.35 S 183.79 30.96, 185.00 31.85 S 188.50 31.72, 190.00 31.67 S 193.80 32.39, 195.00 31.50 S 198.62 24.82, 200.00 24.23 S 203.71 26.45, 205.00 27.22"
        fill="none">
        <animate attributeName="stroke-dashoffset"
            from="249.80539012640529" to="0" dur="2.2s"/>
        <animate attributeName="stroke-dasharray"
            from="249.80539012640529" to="249.80539012640529"/>
    </path>
    <circle r="4" cx="5" cy="46" fill="#3023AE"/>
    <circle r="4" cx="205" cy="27.22251506875271" fill="#C86DD7" opacity="0">
        <animate attributeName="opacity"
            from="0" to="1" dur="0.1s" begin="2.2s" fill="freeze"/>
    </circle>
</svg>