<svg width="200" height="50" viewBox="0 0 210 50" xmlns="http://www.w3.org/2000/svg">
    <!-- 613 stargazers -->
    <!-- created at Mon Apr 20 2026 14:08:36 GMT+0000 (Coordinated Universal Time) -->
    <defs>
        <linearGradient id="stroke" x1="0%" y1="0%" x2="100%" y2="0%">
            <stop stop-color="#3023AE" offset="0%"/>
            <stop stop-color="#C86DD7" offset="100%"/>
        </linearGradient>
    </defs>
    <path stroke="url(#stroke)"
        stroke-width="3"
        stroke-linejoin="round"
        stroke-linecap="round"
        d="M5.00 46.0001 C 5.98 44.87, 8.65 40.87, 10.00 40.22 S 13.56 41.61, 15.00 41.20 S 18.63 38.01, 20.00 37.40 S 23.53 36.50, 25.00 36.80 S 28.56 39.83, 30.00 39.42 S 33.85 34.94, 35.00 33.98 S 38.56 31.48, 40.00 31.08 S 43.54 31.52, 45.00 31.17 S 48.50 28.70, 50.00 28.65 S 53.60 31.38, 55.00 30.84 S 58.65 25.47, 60.00 24.81 S 63.69 25.23, 65.00 25.95 S 68.50 30.42, 70.00 30.30 S 73.58 25.64, 75.00 25.15 S 78.60 26.30, 80.00 26.84 S 83.50 28.88, 85.00 28.97 S 88.64 28.05, 90.00 27.42 S 93.51 24.50, 95.00 24.37 S 98.54 26.21, 100.00 26.55 S 103.51 26.94, 105.00 26.73 S 108.50 25.16, 110.00 25.14 S 113.53 26.87, 115.00 26.58 S 118.51 22.94, 120.00 23.14 S 123.54 27.63, 125.00 27.97 S 129.04 26.63, 130.00 25.48 S 133.76 16.85, 135.00 16.00 S 138.66 17.93, 140.00 18.61 S 143.82 20.19, 145.00 21.11 S 148.66 25.75, 150.00 26.42 S 153.51 25.95, 155.00 26.13 S 158.51 27.41, 160.00 27.59 S 163.57 27.79, 165.00 27.33 S 168.50 24.50, 170.00 24.42 S 173.99 25.71, 175.00 26.82 S 178.76 34.52, 180.00 35.36 S 183.90 34.57, 185.00 33.55 S 188.87 27.06, 190.00 26.08 S 193.58 25.32, 195.00 24.85 S 198.50 22.81, 200.00 22.73 S 203.57 23.89, 205.00 24.35"
        fill="none">
        <animate attributeName="stroke-dashoffset"
            from="245.90268644095926" to="0" dur="2.2s"/>
        <animate attributeName="stroke-dasharray"
            from="245.90268644095926" to="245.90268644095926"/>
    </path>
    <circle r="4" cx="5" cy="46" fill="#3023AE"/>
    <circle r="4" cx="205" cy="24.350821472977962" fill="#C86DD7" opacity="0">
        <animate attributeName="opacity"
            from="0" to="1" dur="0.1s" begin="2.2s" fill="freeze"/>
    </circle>
</svg>