<svg width="200" height="50" viewBox="0 0 210 50" xmlns="http://www.w3.org/2000/svg">
    <!-- 624 stargazers -->
    <!-- created at Thu May 14 2026 21:20:01 GMT+0000 (Coordinated Universal Time) -->
    <defs>
        <linearGradient id="stroke" x1="0%" y1="0%" x2="100%" y2="0%">
            <stop stop-color="#3023AE" offset="0%"/>
            <stop stop-color="#C86DD7" offset="100%"/>
        </linearGradient>
    </defs>
    <path stroke="url(#stroke)"
        stroke-width="3"
        stroke-linejoin="round"
        stroke-linecap="round"
        d="M5.00 46.0001 C 5.95 44.84, 8.66 40.59, 10.00 39.92 S 13.60 41.48, 15.00 40.96 S 18.59 36.69, 20.00 36.17 S 23.52 37.01, 25.00 37.25 S 28.56 38.24, 30.00 37.81 S 33.82 35.16, 35.00 34.23 S 38.62 30.52, 40.00 29.94 S 43.55 30.37, 45.00 30.00 S 48.51 27.22, 50.00 27.38 S 53.61 31.59, 55.00 31.03 S 58.87 24.35, 60.00 23.36 S 63.82 21.32, 65.00 22.25 S 68.57 30.78, 70.00 31.24 S 73.71 26.19, 75.00 25.43 S 78.52 25.12, 80.00 25.35 S 83.52 26.68, 85.00 26.93 S 88.62 27.63, 90.00 27.05 S 93.55 23.12, 95.00 22.74 S 98.52 24.12, 100.00 24.38 S 103.56 24.08, 105.00 24.50 S 108.57 27.82, 110.00 27.35 S 113.53 21.58, 115.00 21.26 S 118.70 24.43, 120.00 25.18 S 123.90 28.05, 125.00 27.04 S 128.99 17.11, 130.00 16.00 S 133.65 15.36, 135.00 16.02 S 138.83 19.95, 140.00 20.89 S 143.50 24.01, 145.00 24.10 S 148.56 21.09, 150.00 21.49 S 153.85 25.96, 155.00 26.92 S 158.58 30.28, 160.00 29.80 S 163.69 24.35, 165.00 23.62 S 168.84 23.25, 170.00 24.20 S 173.88 30.74, 175.00 31.74 S 178.68 33.79, 180.00 33.08 S 183.94 27.43, 185.00 26.37 S 188.63 23.67, 190.00 23.05 S 193.50 21.75, 195.00 21.82 S 198.51 23.28, 200.00 23.49 S 203.50 23.31, 205.00 23.23"
        fill="none">
        <animate attributeName="stroke-dashoffset"
            from="259.04107592619897" to="0" dur="2.2s"/>
        <animate attributeName="stroke-dasharray"
            from="259.04107592619897" to="259.04107592619897"/>
    </path>
    <circle r="4" cx="5" cy="46" fill="#3023AE"/>
    <circle r="4" cx="205" cy="23.23329345832508" fill="#C86DD7" opacity="0">
        <animate attributeName="opacity"
            from="0" to="1" dur="0.1s" begin="2.2s" fill="freeze"/>
    </circle>
</svg>