<svg width="200" height="50" viewBox="0 0 210 50" xmlns="http://www.w3.org/2000/svg">
    <!-- 593 stargazers -->
    <!-- created at Wed Mar 18 2026 13:20:02 GMT+0000 (Coordinated Universal Time) -->
    <defs>
        <linearGradient id="stroke" x1="0%" y1="0%" x2="100%" y2="0%">
            <stop stop-color="#3023AE" offset="0%"/>
            <stop stop-color="#C86DD7" offset="100%"/>
        </linearGradient>
    </defs>
    <path stroke="url(#stroke)"
        stroke-width="3"
        stroke-linejoin="round"
        stroke-linecap="round"
        d="M5.00 46.0001 C 5.95 44.84, 8.66 40.58, 10.00 39.90 S 13.53 41.25, 15.00 40.94 S 18.68 38.52, 20.00 37.80 S 23.53 35.17, 25.00 35.46 S 28.53 40.11, 30.00 39.79 S 33.89 34.34, 35.00 33.33 S 38.52 30.90, 40.00 30.65 S 43.58 32.13, 45.00 31.66 S 48.55 27.70, 50.00 27.33 S 53.53 28.80, 55.00 29.11 S 58.72 30.25, 60.00 29.46 S 63.60 23.48, 65.00 22.93 S 68.54 25.16, 70.00 25.51 S 73.54 25.03, 75.00 25.38 S 78.51 27.79, 80.00 27.93 S 83.55 26.72, 85.00 26.34 S 88.51 25.44, 90.00 25.30 S 93.50 25.34, 95.00 25.37 S 98.51 25.64, 100.00 25.50 S 103.50 24.39, 105.00 24.45 S 108.57 25.46, 110.00 25.92 S 113.67 28.38, 115.00 27.69 S 118.62 21.32, 120.00 20.73 S 123.76 22.54, 125.00 23.38 S 128.50 27.50, 130.00 27.48 S 134.01 24.41, 135.00 23.28 S 138.71 16.77, 140.00 16.00 S 143.58 16.78, 145.00 17.26 S 148.87 18.38, 150.00 19.36 S 153.68 25.23, 155.00 25.94 S 158.50 24.69, 160.00 24.75 S 163.64 25.70, 165.00 26.32 S 168.58 29.79, 170.00 29.31 S 173.65 23.60, 175.00 22.95 S 178.94 23.46, 180.00 24.52 S 183.75 32.05, 185.00 32.88 S 188.64 31.78, 190.00 31.15 S 193.75 29.05, 195.00 28.22 S 198.52 24.74, 200.00 24.49 S 203.61 25.97, 205.00 26.54"
        fill="none">
        <animate attributeName="stroke-dashoffset"
            from="247.49332424138487" to="0" dur="2.2s"/>
        <animate attributeName="stroke-dasharray"
            from="247.49332424138487" to="247.49332424138487"/>
    </path>
    <circle r="4" cx="5" cy="46" fill="#3023AE"/>
    <circle r="4" cx="205" cy="26.539475598066165" fill="#C86DD7" opacity="0">
        <animate attributeName="opacity"
            from="0" to="1" dur="0.1s" begin="2.2s" fill="freeze"/>
    </circle>
</svg>