<svg width="200" height="50" viewBox="0 0 210 50" xmlns="http://www.w3.org/2000/svg">
    <!-- 623 stargazers -->
    <!-- created at Fri May 08 2026 20:08:33 GMT+0000 (Coordinated Universal Time) -->
    <defs>
        <linearGradient id="stroke" x1="0%" y1="0%" x2="100%" y2="0%">
            <stop stop-color="#3023AE" offset="0%"/>
            <stop stop-color="#C86DD7" offset="100%"/>
        </linearGradient>
    </defs>
    <path stroke="url(#stroke)"
        stroke-width="3"
        stroke-linejoin="round"
        stroke-linecap="round"
        d="M5.00 46.0001 C 5.94 44.83, 8.67 40.50, 10.00 39.81 S 13.60 41.40, 15.00 40.87 S 18.60 36.52, 20.00 36.00 S 23.52 36.85, 25.00 37.09 S 28.57 38.11, 30.00 37.67 S 33.83 34.96, 35.00 34.02 S 38.62 30.25, 40.00 29.65 S 43.52 29.99, 45.00 29.72 S 48.50 27.81, 50.00 27.82 S 53.63 30.39, 55.00 29.78 S 58.78 24.20, 60.00 23.32 S 63.81 21.66, 65.00 22.57 S 68.52 30.74, 70.00 30.97 S 73.74 24.95, 75.00 24.13 S 78.54 24.13, 80.00 24.49 S 83.56 26.19, 85.00 26.60 S 88.60 27.85, 90.00 27.32 S 93.58 23.32, 95.00 22.85 S 98.51 23.81, 100.00 24.00 S 103.60 23.59, 105.00 24.12 S 108.58 28.24, 110.00 27.77 S 113.66 21.49, 115.00 20.82 S 118.80 21.89, 120.00 22.79 S 123.76 29.23, 125.00 28.38 S 128.97 17.09, 130.00 16.00 S 133.53 17.47, 135.00 17.75 S 138.71 17.12, 140.00 17.89 S 143.73 22.91, 145.00 23.71 S 148.56 24.63, 150.00 24.19 S 153.68 19.98, 155.00 20.69 S 158.63 28.92, 160.00 29.52 S 163.70 25.79, 165.00 25.05 S 168.74 23.00, 170.00 23.81 S 173.80 30.59, 175.00 31.48 S 178.62 31.89, 180.00 31.29 S 183.87 28.14, 185.00 27.16 S 188.52 22.88, 190.00 22.64 S 193.66 26.21, 195.00 25.52 S 198.52 17.77, 200.00 17.53 S 204.07 22.73, 205.00 23.91"
        fill="none">
        <animate attributeName="stroke-dashoffset"
            from="269.9041070389704" to="0" dur="2.2s"/>
        <animate attributeName="stroke-dasharray"
            from="269.9041070389704" to="269.9041070389704"/>
    </path>
    <circle r="4" cx="5" cy="46" fill="#3023AE"/>
    <circle r="4" cx="205" cy="23.90856892052347" fill="#C86DD7" opacity="0">
        <animate attributeName="opacity"
            from="0" to="1" dur="0.1s" begin="2.2s" fill="freeze"/>
    </circle>
</svg>