<svg width="200" height="50" viewBox="0 0 210 50" xmlns="http://www.w3.org/2000/svg">
    <!-- 613 stargazers -->
    <!-- created at Fri Apr 17 2026 13:55:14 GMT+0000 (Coordinated Universal Time) -->
    <defs>
        <linearGradient id="stroke" x1="0%" y1="0%" x2="100%" y2="0%">
            <stop stop-color="#3023AE" offset="0%"/>
            <stop stop-color="#C86DD7" offset="100%"/>
        </linearGradient>
    </defs>
    <path stroke="url(#stroke)"
        stroke-width="3"
        stroke-linejoin="round"
        stroke-linecap="round"
        d="M5.00 46.0001 C 5.98 44.87, 8.65 40.87, 10.00 40.22 S 13.56 41.61, 15.00 41.20 S 18.63 38.01, 20.00 37.40 S 23.53 36.50, 25.00 36.80 S 28.56 39.83, 30.00 39.42 S 33.85 34.94, 35.00 33.98 S 38.56 31.48, 40.00 31.08 S 43.54 31.52, 45.00 31.17 S 48.50 28.70, 50.00 28.65 S 53.60 31.38, 55.00 30.84 S 58.61 25.38, 60.00 24.81 S 63.63 26.13, 65.00 26.74 S 68.51 29.46, 70.00 29.29 S 73.53 25.86, 75.00 25.57 S 78.54 26.98, 80.00 27.32 S 83.50 27.86, 85.00 27.87 S 88.58 27.92, 90.00 27.42 S 93.51 24.50, 95.00 24.37 S 98.54 26.21, 100.00 26.55 S 103.51 26.94, 105.00 26.73 S 108.50 25.16, 110.00 25.14 S 113.51 26.79, 115.00 26.58 S 118.50 23.62, 120.00 23.72 S 123.60 26.68, 125.00 27.23 S 129.00 28.77, 130.00 27.65 S 133.86 16.97, 135.00 16.00 S 138.60 18.62, 140.00 19.17 S 143.79 19.02, 145.00 19.90 S 148.68 25.71, 150.00 26.42 S 153.50 25.27, 155.00 25.32 S 158.66 26.02, 160.00 26.69 S 163.57 30.82, 165.00 30.38 S 168.63 24.22, 170.00 23.61 S 173.94 24.82, 175.00 25.88 S 178.81 32.80, 180.00 33.71 S 183.69 34.28, 185.00 33.55 S 188.92 29.22, 190.00 28.18 S 193.63 24.53, 195.00 23.91 S 198.52 23.86, 200.00 23.65 S 203.54 22.81, 205.00 22.46"
        fill="none">
        <animate attributeName="stroke-dashoffset"
            from="246.80623955986434" to="0" dur="2.2s"/>
        <animate attributeName="stroke-dasharray"
            from="246.80623955986434" to="246.80623955986434"/>
    </path>
    <circle r="4" cx="5" cy="46" fill="#3023AE"/>
    <circle r="4" cx="205" cy="22.464861663629893" fill="#C86DD7" opacity="0">
        <animate attributeName="opacity"
            from="0" to="1" dur="0.1s" begin="2.2s" fill="freeze"/>
    </circle>
</svg>