<svg width="200" height="50" viewBox="0 0 210 50" xmlns="http://www.w3.org/2000/svg">
    <!-- 591 stargazers -->
    <!-- created at Sun Mar 15 2026 12:23:01 GMT+0000 (Coordinated Universal Time) -->
    <defs>
        <linearGradient id="stroke" x1="0%" y1="0%" x2="100%" y2="0%">
            <stop stop-color="#3023AE" offset="0%"/>
            <stop stop-color="#C86DD7" offset="100%"/>
        </linearGradient>
    </defs>
    <path stroke="url(#stroke)"
        stroke-width="3"
        stroke-linejoin="round"
        stroke-linecap="round"
        d="M5.00 46.0001 C 5.96 44.85, 8.66 40.68, 10.00 40.01 S 13.53 41.34, 15.00 41.04 S 18.68 38.66, 20.00 37.95 S 23.53 35.36, 25.00 35.65 S 28.53 40.21, 30.00 39.91 S 33.88 34.56, 35.00 33.56 S 38.52 31.17, 40.00 30.93 S 43.57 32.38, 45.00 31.91 S 48.53 27.97, 50.00 27.67 S 53.53 29.55, 55.00 29.86 S 58.76 30.61, 60.00 29.76 S 63.60 23.52, 65.00 22.98 S 68.62 25.30, 70.00 25.88 S 73.52 26.91, 75.00 27.18 S 78.51 27.86, 80.00 27.71 S 83.52 26.38, 85.00 26.16 S 88.51 26.36, 90.00 26.21 S 93.50 25.24, 95.00 25.19 S 98.50 25.83, 100.00 25.87 S 103.51 25.57, 105.00 25.44 S 108.55 24.64, 110.00 25.01 S 113.55 28.40, 115.00 28.02 S 118.69 23.06, 120.00 22.34 S 123.78 21.64, 125.00 22.52 S 128.50 29.48, 130.00 29.55 S 134.11 24.21, 135.00 23.01 S 138.64 16.63, 140.00 16.00 S 143.60 17.84, 145.00 18.37 S 148.88 18.84, 150.00 19.84 S 153.63 26.61, 155.00 27.22 S 158.52 24.50, 160.00 24.28 S 163.68 25.03, 165.00 25.73 S 168.52 29.83, 170.00 29.61 S 173.64 24.89, 175.00 24.25 S 178.88 23.91, 180.00 24.91 S 183.74 32.30, 185.00 33.12 S 188.57 31.89, 190.00 31.42 S 193.86 30.81, 195.00 29.83 S 198.50 22.92, 200.00 22.86 S 204.09 28.26, 205.00 29.45"
        fill="none">
        <animate attributeName="stroke-dashoffset"
            from="255.34452910069578" to="0" dur="2.2s"/>
        <animate attributeName="stroke-dasharray"
            from="255.34452910069578" to="255.34452910069578"/>
    </path>
    <circle r="4" cx="5" cy="46" fill="#3023AE"/>
    <circle r="4" cx="205" cy="29.450379587364388" fill="#C86DD7" opacity="0">
        <animate attributeName="opacity"
            from="0" to="1" dur="0.1s" begin="2.2s" fill="freeze"/>
    </circle>
</svg>