<svg width="200" height="50" viewBox="0 0 210 50" xmlns="http://www.w3.org/2000/svg">
    <!-- 613 stargazers -->
    <!-- created at Thu Apr 23 2026 14:41:27 GMT+0000 (Coordinated Universal Time) -->
    <defs>
        <linearGradient id="stroke" x1="0%" y1="0%" x2="100%" y2="0%">
            <stop stop-color="#3023AE" offset="0%"/>
            <stop stop-color="#C86DD7" offset="100%"/>
        </linearGradient>
    </defs>
    <path stroke="url(#stroke)"
        stroke-width="3"
        stroke-linejoin="round"
        stroke-linecap="round"
        d="M5.00 46.0001 C 5.97 44.86, 8.65 40.78, 10.00 40.12 S 13.56 41.54, 15.00 41.12 S 18.63 37.87, 20.00 37.26 S 23.53 36.35, 25.00 36.65 S 28.56 39.72, 30.00 39.31 S 33.86 34.75, 35.00 33.78 S 38.56 31.24, 40.00 30.83 S 43.54 31.28, 45.00 30.93 S 48.50 28.41, 50.00 28.36 S 53.60 31.14, 55.00 30.59 S 58.66 25.13, 60.00 24.46 S 63.69 24.89, 65.00 25.62 S 68.51 30.23, 70.00 30.04 S 73.59 24.88, 75.00 24.38 S 78.62 25.92, 80.00 26.52 S 83.50 28.68, 85.00 28.69 S 88.59 27.08, 90.00 26.57 S 93.51 25.17, 95.00 25.03 S 98.51 25.45, 100.00 25.66 S 103.50 26.45, 105.00 26.41 S 108.50 25.51, 110.00 25.39 S 113.57 26.06, 115.00 25.61 S 118.56 21.78, 120.00 22.19 S 123.52 28.21, 125.00 28.45 S 129.06 24.97, 130.00 23.80 S 133.66 16.68, 135.00 16.00 S 138.64 18.08, 140.00 18.72 S 143.79 19.81, 145.00 20.70 S 148.58 25.61, 150.00 26.10 S 153.62 23.59, 155.00 24.18 S 158.53 30.06, 160.00 30.35 S 163.68 26.81, 165.00 26.10 S 168.50 24.86, 170.00 24.92 S 173.78 25.63, 175.00 26.50 S 178.97 30.94, 180.00 32.03 S 183.84 38.01, 185.00 37.05 S 188.97 24.90, 190.00 23.81 S 193.52 26.77, 195.00 26.55 S 198.55 22.72, 200.00 22.35 S 203.57 23.52, 205.00 23.99"
        fill="none">
        <animate attributeName="stroke-dashoffset"
            from="256.956431648813" to="0" dur="2.2s"/>
        <animate attributeName="stroke-dasharray"
            from="256.956431648813" to="256.956431648813"/>
    </path>
    <circle r="4" cx="5" cy="46" fill="#3023AE"/>
    <circle r="4" cx="205" cy="23.99295956764427" fill="#C86DD7" opacity="0">
        <animate attributeName="opacity"
            from="0" to="1" dur="0.1s" begin="2.2s" fill="freeze"/>
    </circle>
</svg>