<svg width="200" height="50" viewBox="0 0 210 50" xmlns="http://www.w3.org/2000/svg">
    <!-- 589 stargazers -->
    <!-- created at Mon Mar 09 2026 10:19:47 GMT+0000 (Coordinated Universal Time) -->
    <defs>
        <linearGradient id="stroke" x1="0%" y1="0%" x2="100%" y2="0%">
            <stop stop-color="#3023AE" offset="0%"/>
            <stop stop-color="#C86DD7" offset="100%"/>
        </linearGradient>
    </defs>
    <path stroke="url(#stroke)"
        stroke-width="3"
        stroke-linejoin="round"
        stroke-linecap="round"
        d="M5.00 46.0001 C 5.98 44.87, 8.65 40.87, 10.00 40.22 S 13.53 41.50, 15.00 41.20 S 18.67 38.91, 20.00 38.22 S 23.53 35.72, 25.00 36.00 S 28.53 40.41, 30.00 40.11 S 33.82 34.91, 35.00 33.98 S 38.53 32.48, 40.00 32.18 S 43.62 32.56, 45.00 31.97 S 48.51 28.11, 50.00 27.94 S 53.53 30.56, 55.00 30.84 S 58.78 30.72, 60.00 29.85 S 63.56 24.17, 65.00 23.76 S 68.66 26.32, 70.00 26.99 S 73.50 28.75, 75.00 28.80 S 78.53 27.61, 80.00 27.32 S 83.50 26.82, 85.00 26.83 S 88.53 27.14, 90.00 27.42 S 93.59 29.24, 95.00 28.74 S 98.55 24.26, 100.00 23.88 S 103.52 25.86, 105.00 26.14 S 108.52 25.46, 110.00 25.72 S 113.51 28.13, 115.00 27.92 S 118.61 24.87, 120.00 24.32 S 123.61 23.35, 125.00 23.92 S 128.58 27.95, 130.00 28.43 S 134.06 28.50, 135.00 27.34 S 138.86 16.98, 140.00 16.00 S 143.68 18.03, 145.00 18.74 S 148.75 20.54, 150.00 21.37 S 153.53 25.01, 155.00 25.32 S 158.53 23.16, 160.00 23.46 S 163.75 26.50, 165.00 27.33 S 168.52 30.38, 170.00 30.17 S 173.55 26.26, 175.00 25.88 S 178.55 27.20, 180.00 27.57 S 183.62 27.80, 185.00 28.40 S 188.75 31.09, 190.00 31.91 S 193.73 35.76, 195.00 34.95 S 198.86 26.57, 200.00 25.60 S 203.52 26.17, 205.00 26.42"
        fill="none">
        <animate attributeName="stroke-dashoffset"
            from="246.9809542007763" to="0" dur="2.2s"/>
        <animate attributeName="stroke-dasharray"
            from="246.9809542007763" to="246.9809542007763"/>
    </path>
    <circle r="4" cx="5" cy="46" fill="#3023AE"/>
    <circle r="4" cx="205" cy="26.41822505176628" fill="#C86DD7" opacity="0">
        <animate attributeName="opacity"
            from="0" to="1" dur="0.1s" begin="2.2s" fill="freeze"/>
    </circle>
</svg>