<svg width="200" height="50" viewBox="0 0 210 50" xmlns="http://www.w3.org/2000/svg">
    <!-- 600 stargazers -->
    <!-- created at Tue Mar 24 2026 13:44:20 GMT+0000 (Coordinated Universal Time) -->
    <defs>
        <linearGradient id="stroke" x1="0%" y1="0%" x2="100%" y2="0%">
            <stop stop-color="#3023AE" offset="0%"/>
            <stop stop-color="#C86DD7" offset="100%"/>
        </linearGradient>
    </defs>
    <path stroke="url(#stroke)"
        stroke-width="3"
        stroke-linejoin="round"
        stroke-linecap="round"
        d="M5.00 46.0001 C 5.95 44.84, 8.66 40.58, 10.00 39.90 S 13.53 41.25, 15.00 40.94 S 18.68 38.52, 20.00 37.80 S 23.53 35.17, 25.00 35.46 S 28.53 40.11, 30.00 39.79 S 33.91 34.36, 35.00 33.33 S 38.52 30.52, 40.00 30.27 S 43.55 32.03, 45.00 31.66 S 48.56 28.14, 50.00 27.71 S 53.52 28.41, 55.00 28.67 S 58.72 30.24, 60.00 29.46 S 63.58 23.05, 65.00 22.56 S 68.58 25.49, 70.00 25.96 S 73.51 25.72, 75.00 25.85 S 78.51 26.68, 80.00 26.84 S 83.52 27.12, 85.00 26.89 S 88.53 25.60, 90.00 25.30 S 93.50 24.78, 95.00 24.81 S 98.50 25.56, 100.00 25.50 S 103.50 24.39, 105.00 24.45 S 108.54 25.56, 110.00 25.92 S 113.61 27.50, 115.00 26.94 S 118.59 22.41, 120.00 21.91 S 123.74 22.57, 125.00 23.38 S 128.58 28.83, 130.00 28.34 S 134.06 21.14, 135.00 19.97 S 138.53 16.31, 140.00 16.00 S 143.72 17.08, 145.00 17.87 S 148.73 21.37, 150.00 22.17 S 153.50 24.30, 155.00 24.20 S 158.82 20.53, 160.00 21.46 S 163.64 31.46, 165.00 32.09 S 168.84 27.00, 170.00 26.05 S 173.50 23.93, 175.00 23.85 S 178.98 24.42, 180.00 25.52 S 183.78 33.76, 185.00 34.64 S 188.87 33.71, 190.00 32.72 S 193.90 26.85, 195.00 25.83 S 198.59 23.96, 200.00 23.44 S 203.55 22.54, 205.00 22.17"
        fill="none">
        <animate attributeName="stroke-dashoffset"
            from="254.29776234888706" to="0" dur="2.2s"/>
        <animate attributeName="stroke-dasharray"
            from="254.29776234888706" to="254.29776234888706"/>
    </path>
    <circle r="4" cx="5" cy="46" fill="#3023AE"/>
    <circle r="4" cx="205" cy="22.165822544138642" fill="#C86DD7" opacity="0">
        <animate attributeName="opacity"
            from="0" to="1" dur="0.1s" begin="2.2s" fill="freeze"/>
    </circle>
</svg>