<svg width="200" height="50" viewBox="0 0 210 50" xmlns="http://www.w3.org/2000/svg">
    <!-- 471 stargazers -->
    <!-- created at Thu May 07 2026 11:13:10 GMT+0000 (Coordinated Universal Time) -->
    <defs>
        <linearGradient id="stroke" x1="0%" y1="0%" x2="100%" y2="0%">
            <stop stop-color="#3023AE" offset="0%"/>
            <stop stop-color="#C86DD7" offset="100%"/>
        </linearGradient>
    </defs>
    <path stroke="url(#stroke)"
        stroke-width="3"
        stroke-linejoin="round"
        stroke-linecap="round"
        d="M5.00 46.0001 C 5.69 44.67, 8.83 37.23, 10.00 36.29 S 13.56 38.38, 15.00 37.95 S 18.58 33.79, 20.00 33.31 S 23.50 34.51, 25.00 34.59 S 28.52 33.65, 30.00 33.90 S 33.62 36.84, 35.00 36.25 S 38.59 30.11, 40.00 29.60 S 43.51 32.42, 45.00 32.61 S 48.51 30.68, 50.00 30.84 S 53.54 34.00, 55.00 33.66 S 58.60 29.04, 60.00 28.50 S 63.50 29.81, 65.00 29.83 S 68.57 28.21, 70.00 28.65 S 73.50 32.83, 75.00 32.90 S 78.58 29.61, 80.00 29.13 S 83.67 30.18, 85.00 29.49 S 88.72 24.72, 90.00 23.95 S 93.51 23.58, 95.00 23.43 S 98.55 22.52, 100.00 22.92 S 103.53 25.89, 105.00 26.19 S 108.52 25.20, 110.00 24.95 S 113.97 23.45, 115.00 24.53 S 118.53 35.21, 120.00 35.49 S 123.85 27.42, 125.00 26.46 S 128.96 28.22, 130.00 27.14 S 133.50 15.93, 135.00 16.00 S 139.12 26.39, 140.00 27.61 S 143.75 30.65, 145.00 29.82 S 148.51 20.76, 150.00 20.90 S 153.50 30.74, 155.00 30.77 S 158.70 21.84, 160.00 21.09 S 163.63 25.58, 165.00 24.98 S 168.76 17.56, 170.00 16.71 S 173.79 17.22, 175.00 18.11 S 178.54 23.78, 180.00 24.12 S 183.50 20.49, 185.00 20.41 S 188.69 22.83, 190.00 23.56 S 193.67 26.66, 195.00 25.97 S 198.82 19.31, 200.00 18.38 S 203.50 18.16, 205.00 18.06"
        fill="none">
        <animate attributeName="stroke-dashoffset"
            from="288.9083914322016" to="0" dur="2.2s"/>
        <animate attributeName="stroke-dasharray"
            from="288.9083914322016" to="288.9083914322016"/>
    </path>
    <circle r="4" cx="5" cy="46" fill="#3023AE"/>
    <circle r="4" cx="205" cy="18.06258224996976" fill="#C86DD7" opacity="0">
        <animate attributeName="opacity"
            from="0" to="1" dur="0.1s" begin="2.2s" fill="freeze"/>
    </circle>
</svg>