<svg width="200" height="50" viewBox="0 0 210 50" xmlns="http://www.w3.org/2000/svg">
    <!-- 335 stargazers -->
    <!-- created at Thu Mar 12 2026 09:24:59 GMT+0000 (Coordinated Universal Time) -->
    <defs>
        <linearGradient id="stroke" x1="0%" y1="0%" x2="100%" y2="0%">
            <stop stop-color="#3023AE" offset="0%"/>
            <stop stop-color="#C86DD7" offset="100%"/>
        </linearGradient>
    </defs>
    <path stroke="url(#stroke)"
        stroke-width="3"
        stroke-linejoin="round"
        stroke-linecap="round"
        d="M5.00 46.0001 C 5.45 44.57, 9.51 31.54, 10.00 30.12 S 13.67 17.61, 15.00 16.91 S 18.88 23.83, 20.00 24.83 S 23.56 25.45, 25.00 25.85 S 28.50 27.73, 30.00 27.65 S 33.84 26.26, 35.00 25.31 S 38.90 20.44, 40.00 19.41 S 43.93 14.95, 45.00 16.00 S 48.92 28.26, 50.00 29.31 S 53.51 25.87, 55.00 25.68 S 58.52 27.80, 60.00 28.06 S 63.51 27.64, 65.00 27.47 S 68.58 27.39, 70.00 26.90 S 73.51 24.19, 75.00 24.02 S 78.51 25.61, 80.00 25.80 S 83.78 24.40, 85.00 25.27 S 89.09 31.80, 90.00 32.99 S 93.53 38.04, 95.00 38.31 S 98.59 35.40, 100.00 34.89 S 103.78 35.52, 105.00 34.65 S 108.79 28.56, 110.00 27.68 S 113.73 26.51, 115.00 27.31 S 119.29 32.63, 120.00 33.95 S 123.92 47.04, 125.00 46.00 S 129.33 25.72, 130.00 24.38 S 133.70 25.17, 135.00 25.92 S 138.98 29.09, 140.00 30.19 S 143.79 37.61, 145.00 36.73 S 149.31 24.26, 150.00 22.93 S 153.59 16.80, 155.00 17.32 S 159.16 25.36, 160.00 26.60 S 163.91 31.06, 165.00 32.09 S 168.60 35.49, 170.00 36.03 S 173.94 34.83, 175.00 35.89 S 178.82 46.93, 180.00 46.00 S 183.50 28.04, 185.00 28.04 S 188.56 45.58, 190.00 46.00 S 194.29 32.29, 195.00 30.97 S 198.60 27.91, 200.00 27.38 S 203.50 27.22, 205.00 27.16"
        fill="none">
        <animate attributeName="stroke-dashoffset"
            from="358.658606625451" to="0" dur="2.2s"/>
        <animate attributeName="stroke-dasharray"
            from="358.658606625451" to="358.658606625451"/>
    </path>
    <circle r="4" cx="5" cy="46" fill="#3023AE"/>
    <circle r="4" cx="205" cy="27.159629495761536" fill="#C86DD7" opacity="0">
        <animate attributeName="opacity"
            from="0" to="1" dur="0.1s" begin="2.2s" fill="freeze"/>
    </circle>
</svg>