<svg width="200" height="50" viewBox="0 0 210 50" xmlns="http://www.w3.org/2000/svg">
    <!-- 337 stargazers -->
    <!-- created at Thu May 14 2026 07:41:24 GMT+0000 (Coordinated Universal Time) -->
    <defs>
        <linearGradient id="stroke" x1="0%" y1="0%" x2="100%" y2="0%">
            <stop stop-color="#3023AE" offset="0%"/>
            <stop stop-color="#C86DD7" offset="100%"/>
        </linearGradient>
    </defs>
    <path stroke="url(#stroke)"
        stroke-width="3"
        stroke-linejoin="round"
        stroke-linecap="round"
        d="M5.00 46.0001 C 5.48 44.58, 9.48 32.58, 10.00 31.17 S 13.70 19.58, 15.00 18.83 S 18.91 24.40, 20.00 25.43 S 23.52 27.95, 25.00 28.20 S 28.52 27.34, 30.00 27.11 S 33.97 27.77, 35.00 26.68 S 38.57 16.90, 40.00 16.45 S 44.05 22.38, 45.00 23.54 S 48.79 27.68, 50.00 28.57 S 53.54 31.19, 55.00 30.86 S 58.51 26.51, 60.00 26.36 S 63.56 29.39, 65.00 29.81 S 68.73 30.11, 70.00 29.31 S 73.63 24.12, 75.00 23.52 S 78.97 23.82, 80.00 24.91 S 84.00 33.03, 85.00 34.15 S 88.52 35.83, 90.00 36.08 S 93.55 35.48, 95.00 35.85 S 98.84 39.61, 100.00 38.66 S 103.93 28.68, 105.00 27.63 S 108.97 27.80, 110.00 28.89 S 113.89 37.18, 115.00 38.20 S 119.04 39.20, 120.00 38.05 S 124.12 27.38, 125.00 26.16 S 129.01 23.06, 130.00 24.19 S 134.10 36.42, 135.00 37.62 S 139.37 38.84, 140.00 37.48 S 144.00 17.12, 145.00 16.00 S 149.15 25.10, 150.00 26.33 S 153.76 29.69, 155.00 30.54 S 158.73 32.39, 160.00 33.19 S 164.08 35.63, 165.00 36.81 S 168.62 46.58, 170.00 46.00 S 173.92 33.69, 175.00 32.65 S 178.50 36.49, 180.00 36.44 S 183.80 33.20, 185.00 32.30 S 188.58 29.51, 190.00 29.02 S 193.77 27.96, 195.00 28.81 S 198.56 35.55, 200.00 35.96 S 203.87 32.62, 205.00 31.63"
        fill="none">
        <animate attributeName="stroke-dashoffset"
            from="334.7249563294951" to="0" dur="2.2s"/>
        <animate attributeName="stroke-dasharray"
            from="334.7249563294951" to="334.7249563294951"/>
    </path>
    <circle r="4" cx="5" cy="46" fill="#3023AE"/>
    <circle r="4" cx="205" cy="31.634911274379267" fill="#C86DD7" opacity="0">
        <animate attributeName="opacity"
            from="0" to="1" dur="0.1s" begin="2.2s" fill="freeze"/>
    </circle>
</svg>