<svg width="200" height="50" viewBox="0 0 210 50" xmlns="http://www.w3.org/2000/svg">
    <!-- 337 stargazers -->
    <!-- created at Fri May 08 2026 06:49:07 GMT+0000 (Coordinated Universal Time) -->
    <defs>
        <linearGradient id="stroke" x1="0%" y1="0%" x2="100%" y2="0%">
            <stop stop-color="#3023AE" offset="0%"/>
            <stop stop-color="#C86DD7" offset="100%"/>
        </linearGradient>
    </defs>
    <path stroke="url(#stroke)"
        stroke-width="3"
        stroke-linejoin="round"
        stroke-linecap="round"
        d="M5.00 46.0001 C 5.46 44.57, 9.50 31.90, 10.00 30.48 S 13.71 18.34, 15.00 17.57 S 18.93 23.42, 20.00 24.47 S 23.52 27.12, 25.00 27.38 S 28.52 26.47, 30.00 26.24 S 33.95 26.85, 35.00 25.78 S 38.64 16.62, 40.00 16.00 S 44.03 20.08, 45.00 21.22 S 48.88 26.76, 50.00 27.76 S 53.54 30.50, 55.00 30.16 S 58.51 25.61, 60.00 25.44 S 63.57 28.62, 65.00 29.06 S 68.75 29.36, 70.00 28.54 S 73.64 23.10, 75.00 22.47 S 79.10 22.73, 80.00 23.93 S 83.90 34.85, 85.00 35.87 S 88.50 33.36, 90.00 33.29 S 93.66 34.70, 95.00 35.38 S 98.86 39.30, 100.00 38.32 S 103.85 27.74, 105.00 26.78 S 108.81 29.07, 110.00 29.98 S 113.81 33.53, 115.00 34.45 S 118.90 38.69, 120.00 37.68 S 123.99 26.34, 125.00 25.24 S 128.69 25.98, 130.00 26.71 S 133.96 29.72, 135.00 30.80 S 138.77 37.94, 140.00 37.08 S 144.33 25.14, 145.00 23.80 S 148.58 16.40, 150.00 16.89 S 154.32 25.98, 155.00 27.31 S 158.66 35.84, 160.00 36.52 S 163.91 31.37, 165.00 32.40 S 168.59 45.48, 170.00 46.00 S 174.13 37.35, 175.00 36.12 S 178.63 32.46, 180.00 31.85 S 184.13 30.44, 185.00 31.67 S 188.88 47.00, 190.00 46.00 S 194.16 24.02, 195.00 22.78 S 198.84 30.19, 200.00 31.14 S 203.50 31.02, 205.00 30.97"
        fill="none">
        <animate attributeName="stroke-dashoffset"
            from="359.9965481318987" to="0" dur="2.2s"/>
        <animate attributeName="stroke-dasharray"
            from="359.9965481318987" to="359.9965481318987"/>
    </path>
    <circle r="4" cx="5" cy="46" fill="#3023AE"/>
    <circle r="4" cx="205" cy="30.966564785615237" fill="#C86DD7" opacity="0">
        <animate attributeName="opacity"
            from="0" to="1" dur="0.1s" begin="2.2s" fill="freeze"/>
    </circle>
</svg>