<svg width="200" height="50" viewBox="0 0 210 50" xmlns="http://www.w3.org/2000/svg">
    <!-- 336 stargazers -->
    <!-- created at Tue Apr 07 2026 06:09:51 GMT+0000 (Coordinated Universal Time) -->
    <defs>
        <linearGradient id="stroke" x1="0%" y1="0%" x2="100%" y2="0%">
            <stop stop-color="#3023AE" offset="0%"/>
            <stop stop-color="#C86DD7" offset="100%"/>
        </linearGradient>
    </defs>
    <path stroke="url(#stroke)"
        stroke-width="3"
        stroke-linejoin="round"
        stroke-linecap="round"
        d="M5.00 46.0001 C 5.45 44.57, 9.52 31.43, 10.00 30.01 S 13.73 17.49, 15.00 16.70 S 18.95 22.74, 20.00 23.81 S 23.52 26.54, 25.00 26.80 S 28.50 25.57, 30.00 25.63 S 33.92 28.25, 35.00 27.21 S 38.90 17.08, 40.00 16.06 S 44.00 16.91, 45.00 18.02 S 48.97 26.11, 50.00 27.20 S 53.50 28.44, 55.00 28.55 S 58.54 28.27, 60.00 27.93 S 63.50 26.19, 65.00 26.20 S 68.63 28.61, 70.00 28.00 S 73.65 22.39, 75.00 21.75 S 79.01 22.12, 80.00 23.25 S 83.81 32.31, 85.00 33.22 S 88.66 30.20, 90.00 30.87 S 93.78 37.38, 95.00 38.26 S 98.73 38.88, 100.00 38.08 S 104.05 33.16, 105.00 31.99 S 108.56 26.19, 110.00 25.78 S 114.02 28.02, 115.00 29.16 S 118.63 36.81, 120.00 37.42 S 124.01 34.77, 125.00 33.64 S 129.02 27.25, 130.00 26.12 S 133.98 20.98, 135.00 22.07 S 138.81 35.89, 140.00 36.81 S 144.35 31.17, 145.00 29.82 S 148.79 16.89, 150.00 16.00 S 154.21 21.14, 155.00 22.41 S 159.11 30.97, 160.00 32.18 S 163.60 35.56, 165.00 36.09 S 168.93 34.90, 170.00 35.95 S 173.63 46.62, 175.00 46.00 S 178.96 32.50, 180.00 31.41 S 183.50 35.61, 185.00 35.55 S 188.96 29.96, 190.00 31.04 S 193.90 47.02, 195.00 46.00 S 199.19 23.04, 200.00 21.78 S 204.25 29.20, 205.00 30.50"
        fill="none">
        <animate attributeName="stroke-dashoffset"
            from="367.67034883847367" to="0" dur="2.2s"/>
        <animate attributeName="stroke-dasharray"
            from="367.67034883847367" to="367.67034883847367"/>
    </path>
    <circle r="4" cx="5" cy="46" fill="#3023AE"/>
    <circle r="4" cx="205" cy="30.504540794589253" fill="#C86DD7" opacity="0">
        <animate attributeName="opacity"
            from="0" to="1" dur="0.1s" begin="2.2s" fill="freeze"/>
    </circle>
</svg>