<svg width="200" height="50" viewBox="0 0 210 50" xmlns="http://www.w3.org/2000/svg">
    <!-- 336 stargazers -->
    <!-- created at Fri Apr 03 2026 19:30:15 GMT+0000 (Coordinated Universal Time) -->
    <defs>
        <linearGradient id="stroke" x1="0%" y1="0%" x2="100%" y2="0%">
            <stop stop-color="#3023AE" offset="0%"/>
            <stop stop-color="#C86DD7" offset="100%"/>
        </linearGradient>
    </defs>
    <path stroke="url(#stroke)"
        stroke-width="3"
        stroke-linejoin="round"
        stroke-linecap="round"
        d="M5.00 46.0001 C 5.49 44.58, 9.47 32.81, 10.00 31.40 S 13.69 19.99, 15.00 19.25 S 18.90 24.73, 20.00 25.74 S 23.52 28.23, 25.00 28.48 S 28.50 27.35, 30.00 27.40 S 33.87 29.84, 35.00 28.85 S 38.85 19.63, 40.00 18.67 S 43.95 19.39, 45.00 20.46 S 48.92 27.80, 50.00 28.84 S 53.50 29.97, 55.00 30.07 S 58.53 29.82, 60.00 29.50 S 63.51 27.74, 65.00 27.93 S 68.66 31.46, 70.00 30.79 S 73.63 23.57, 75.00 22.96 S 78.92 25.26, 80.00 26.30 S 83.71 31.76, 85.00 32.52 S 88.74 31.38, 90.00 32.19 S 93.75 38.11, 95.00 38.93 S 98.70 39.52, 100.00 38.77 S 104.00 34.33, 105.00 33.21 S 108.55 27.92, 110.00 27.54 S 113.97 29.54, 115.00 30.63 S 118.61 37.60, 120.00 38.17 S 123.96 35.80, 125.00 34.72 S 128.97 28.94, 130.00 27.85 S 133.93 23.11, 135.00 24.16 S 139.10 36.41, 140.00 37.61 S 144.37 38.83, 145.00 37.47 S 148.89 17.01, 150.00 16.00 S 154.15 27.18, 155.00 28.42 S 158.65 29.90, 160.00 30.55 S 163.73 32.41, 165.00 33.21 S 169.08 35.65, 170.00 36.83 S 173.61 46.57, 175.00 46.00 S 178.91 33.72, 180.00 32.68 S 183.50 36.51, 185.00 36.46 S 188.91 31.31, 190.00 32.35 S 193.85 46.97, 195.00 46.00 S 199.13 25.12, 200.00 23.89 S 204.20 30.58, 205.00 31.85"
        fill="none">
        <animate attributeName="stroke-dashoffset"
            from="354.70251413849786" to="0" dur="2.2s"/>
        <animate attributeName="stroke-dasharray"
            from="354.70251413849786" to="354.70251413849786"/>
    </path>
    <circle r="4" cx="5" cy="46" fill="#3023AE"/>
    <circle r="4" cx="205" cy="31.85464575715882" fill="#C86DD7" opacity="0">
        <animate attributeName="opacity"
            from="0" to="1" dur="0.1s" begin="2.2s" fill="freeze"/>
    </circle>
</svg>