<svg width="200" height="50" viewBox="0 0 210 50" xmlns="http://www.w3.org/2000/svg">
    <!-- 335 stargazers -->
    <!-- created at Wed Apr 22 2026 11:09:39 GMT+0000 (Coordinated Universal Time) -->
    <defs>
        <linearGradient id="stroke" x1="0%" y1="0%" x2="100%" y2="0%">
            <stop stop-color="#3023AE" offset="0%"/>
            <stop stop-color="#C86DD7" offset="100%"/>
        </linearGradient>
    </defs>
    <path stroke="url(#stroke)"
        stroke-width="3"
        stroke-linejoin="round"
        stroke-linecap="round"
        d="M5.00 46.0001 C 5.46 44.57, 9.50 31.90, 10.00 30.48 S 13.71 18.34, 15.00 17.57 S 18.93 23.42, 20.00 24.47 S 23.52 27.12, 25.00 27.38 S 28.52 26.47, 30.00 26.24 S 33.95 26.85, 35.00 25.78 S 38.60 16.55, 40.00 16.00 S 43.98 20.75, 45.00 21.85 S 48.85 25.91, 50.00 26.87 S 53.50 30.08, 55.00 30.16 S 58.58 27.88, 60.00 27.41 S 63.54 26.44, 65.00 26.79 S 68.62 30.43, 70.00 29.83 S 73.65 23.12, 75.00 22.47 S 79.00 23.95, 80.00 25.06 S 83.73 32.80, 85.00 33.60 S 88.52 31.06, 90.00 31.32 S 94.16 34.14, 95.00 35.38 S 98.95 47.07, 100.00 46.00 S 104.12 26.46, 105.00 25.24 S 108.75 31.30, 110.00 32.13 S 113.69 31.13, 115.00 31.85 S 118.50 37.76, 120.00 37.68 S 124.08 32.50, 125.00 31.32 S 128.66 25.53, 130.00 24.87 S 134.05 25.22, 135.00 26.38 S 138.50 37.18, 140.00 37.08 S 144.33 27.08, 145.00 25.73 S 148.52 16.66, 150.00 16.89 S 154.19 26.05, 155.00 27.31 S 158.89 31.59, 160.00 32.59 S 163.59 35.87, 165.00 36.39 S 168.92 35.21, 170.00 36.25 S 173.80 46.91, 175.00 46.00 S 178.95 29.73, 180.00 28.67 S 183.78 35.00, 185.00 35.87 S 188.82 36.67, 190.00 35.74 S 193.98 29.11, 195.00 28.01 S 199.27 23.67, 200.00 24.98 S 204.65 44.54, 205.00 46.00"
        fill="none">
        <animate attributeName="stroke-dashoffset"
            from="364.7199645922488" to="0" dur="2.2s"/>
        <animate attributeName="stroke-dasharray"
            from="364.7199645922488" to="364.7199645922488"/>
    </path>
    <circle r="4" cx="5" cy="46" fill="#3023AE"/>
    <circle r="4" cx="205" cy="46" fill="#C86DD7" opacity="0">
        <animate attributeName="opacity"
            from="0" to="1" dur="0.1s" begin="2.2s" fill="freeze"/>
    </circle>
</svg>