<svg width="200" height="50" viewBox="0 0 210 50" xmlns="http://www.w3.org/2000/svg">
    <!-- 336 stargazers -->
    <!-- created at Tue Mar 31 2026 15:44:25 GMT+0000 (Coordinated Universal Time) -->
    <defs>
        <linearGradient id="stroke" x1="0%" y1="0%" x2="100%" y2="0%">
            <stop stop-color="#3023AE" offset="0%"/>
            <stop stop-color="#C86DD7" offset="100%"/>
        </linearGradient>
    </defs>
    <path stroke="url(#stroke)"
        stroke-width="3"
        stroke-linejoin="round"
        stroke-linecap="round"
        d="M5.00 46.0001 C 5.47 44.57, 9.49 32.16, 10.00 30.75 S 13.71 18.82, 15.00 18.06 S 18.92 23.80, 20.00 24.84 S 23.52 27.44, 25.00 27.70 S 28.50 26.52, 30.00 26.58 S 33.87 29.07, 35.00 28.09 S 38.90 18.96, 40.00 17.93 S 43.95 17.71, 45.00 18.77 S 48.97 26.98, 50.00 28.07 S 53.50 29.25, 55.00 29.36 S 58.54 29.10, 60.00 28.77 S 63.51 26.92, 65.00 27.12 S 68.62 30.70, 70.00 30.11 S 73.70 23.63, 75.00 22.88 S 78.89 23.30, 80.00 24.31 S 83.79 31.04, 85.00 31.93 S 89.13 30.35, 90.00 31.58 S 93.60 45.47, 95.00 46.00 S 99.10 36.53, 100.00 35.32 S 103.77 33.50, 105.00 32.64 S 108.64 29.03, 110.00 28.40 S 113.91 27.02, 115.00 28.05 S 118.72 37.03, 120.00 37.82 S 123.98 35.32, 125.00 34.22 S 128.99 28.15, 130.00 27.04 S 134.30 21.86, 135.00 23.18 S 138.95 44.93, 140.00 46.00 S 144.53 34.83, 145.00 33.40 S 148.82 16.93, 150.00 16.00 S 154.12 24.25, 155.00 25.47 S 159.00 28.75, 160.00 29.86 S 163.55 36.18, 165.00 36.55 S 168.91 31.42, 170.00 32.45 S 173.59 45.48, 175.00 46.00 S 179.13 37.39, 180.00 36.17 S 183.63 32.52, 185.00 31.91 S 189.13 30.52, 190.00 31.74 S 193.74 46.81, 195.00 46.00 S 199.27 26.66, 200.00 25.35 S 203.66 27.22, 205.00 27.91"
        fill="none">
        <animate attributeName="stroke-dashoffset"
            from="379.340439818694" to="0" dur="2.2s"/>
        <animate attributeName="stroke-dasharray"
            from="379.340439818694" to="379.340439818694"/>
    </path>
    <circle r="4" cx="5" cy="46" fill="#3023AE"/>
    <circle r="4" cx="205" cy="27.905202053934715" fill="#C86DD7" opacity="0">
        <animate attributeName="opacity"
            from="0" to="1" dur="0.1s" begin="2.2s" fill="freeze"/>
    </circle>
</svg>