<svg width="200" height="50" viewBox="0 0 210 50" xmlns="http://www.w3.org/2000/svg">
    <!-- 336 stargazers -->
    <!-- created at Sat Mar 21 2026 16:02:17 GMT+0000 (Coordinated Universal Time) -->
    <defs>
        <linearGradient id="stroke" x1="0%" y1="0%" x2="100%" y2="0%">
            <stop stop-color="#3023AE" offset="0%"/>
            <stop stop-color="#C86DD7" offset="100%"/>
        </linearGradient>
    </defs>
    <path stroke="url(#stroke)"
        stroke-width="3"
        stroke-linejoin="round"
        stroke-linecap="round"
        d="M5.00 46.0001 C 5.45 44.57, 9.51 31.66, 10.00 30.24 S 13.70 17.87, 15.00 17.13 S 18.91 23.54, 20.00 24.56 S 23.57 26.08, 25.00 26.54 S 28.51 27.95, 30.00 27.79 S 33.90 26.49, 35.00 25.47 S 38.90 19.56, 40.00 18.54 S 43.99 15.12, 45.00 16.23 S 49.02 28.30, 50.00 29.43 S 53.51 27.95, 55.00 27.76 S 58.51 28.39, 60.00 28.20 S 63.50 26.49, 65.00 26.50 S 68.58 28.75, 70.00 28.27 S 73.59 23.62, 75.00 23.13 S 78.66 24.06, 80.00 24.74 S 83.73 27.38, 85.00 28.19 S 89.27 29.79, 90.00 31.10 S 93.60 45.46, 95.00 46.00 S 99.00 36.09, 100.00 34.97 S 103.88 35.73, 105.00 34.73 S 108.79 26.96, 110.00 26.08 S 114.01 26.32, 115.00 27.45 S 118.94 36.49, 120.00 37.55 S 124.00 38.51, 125.00 37.39 S 129.23 27.70, 130.00 26.41 S 134.32 19.46, 135.00 20.80 S 139.20 44.73, 140.00 46.00 S 144.40 38.17, 145.00 36.80 S 149.35 24.46, 150.00 23.11 S 153.59 15.49, 155.00 16.00 S 159.34 25.40, 160.00 26.75 S 163.67 35.54, 165.00 36.24 S 168.93 30.96, 170.00 32.00 S 174.13 44.78, 175.00 46.00 S 179.27 47.31, 180.00 46.00 S 183.96 29.26, 185.00 28.17 S 188.79 34.70, 190.00 35.58 S 193.83 36.40, 195.00 35.45 S 198.99 28.63, 200.00 27.52 S 203.73 25.20, 205.00 24.41"
        fill="none">
        <animate attributeName="stroke-dashoffset"
            from="374.7751368004794" to="0" dur="2.2s"/>
        <animate attributeName="stroke-dasharray"
            from="374.7751368004794" to="374.7751368004794"/>
    </path>
    <circle r="4" cx="5" cy="46" fill="#3023AE"/>
    <circle r="4" cx="205" cy="24.411363082532848" fill="#C86DD7" opacity="0">
        <animate attributeName="opacity"
            from="0" to="1" dur="0.1s" begin="2.2s" fill="freeze"/>
    </circle>
</svg>