<svg width="200" height="50" viewBox="0 0 210 50" xmlns="http://www.w3.org/2000/svg">
    <!-- 334 stargazers -->
    <!-- created at Mon Mar 09 2026 09:03:33 GMT+0000 (Coordinated Universal Time) -->
    <defs>
        <linearGradient id="stroke" x1="0%" y1="0%" x2="100%" y2="0%">
            <stop stop-color="#3023AE" offset="0%"/>
            <stop stop-color="#C86DD7" offset="100%"/>
        </linearGradient>
    </defs>
    <path stroke="url(#stroke)"
        stroke-width="3"
        stroke-linejoin="round"
        stroke-linecap="round"
        d="M5.00 46.0001 C 5.46 44.57, 9.51 32.08, 10.00 30.66 S 13.67 17.55, 15.00 16.86 S 18.86 24.46, 20.00 25.44 S 23.54 25.14, 25.00 25.49 S 28.50 27.79, 30.00 27.79 S 33.84 26.42, 35.00 25.47 S 38.90 20.64, 40.00 19.62 S 43.99 15.12, 45.00 16.23 S 48.87 29.52, 50.00 30.50 S 53.54 25.28, 55.00 24.94 S 58.55 27.81, 60.00 28.20 S 63.51 27.78, 65.00 27.61 S 68.54 27.38, 70.00 27.04 S 73.54 25.65, 75.00 25.31 S 78.50 24.72, 80.00 24.74 S 83.85 24.47, 85.00 25.43 S 89.08 31.91, 90.00 33.09 S 93.53 38.10, 95.00 38.37 S 98.59 35.48, 100.00 34.97 S 103.78 35.61, 105.00 34.73 S 108.79 28.70, 110.00 27.82 S 113.93 26.41, 115.00 27.45 S 118.94 36.49, 120.00 37.55 S 124.09 38.58, 125.00 37.39 S 129.01 25.67, 130.00 24.54 S 133.70 25.33, 135.00 26.08 S 138.98 29.21, 140.00 30.31 S 143.67 37.49, 145.00 36.80 S 149.35 26.45, 150.00 25.10 S 153.52 15.76, 155.00 16.00 S 159.21 25.47, 160.00 26.75 S 163.90 31.17, 165.00 32.19 S 168.60 35.57, 170.00 36.10 S 173.93 34.91, 175.00 35.97 S 178.63 46.62, 180.00 46.00 S 183.96 32.53, 185.00 31.45 S 188.50 35.63, 190.00 35.58 S 193.83 32.03, 195.00 31.09 S 198.50 27.57, 200.00 27.52 S 203.74 29.92, 205.00 30.73"
        fill="none">
        <animate attributeName="stroke-dashoffset"
            from="326.07894022161764" to="0" dur="2.2s"/>
        <animate attributeName="stroke-dasharray"
            from="326.07894022161764" to="326.07894022161764"/>
    </path>
    <circle r="4" cx="5" cy="46" fill="#3023AE"/>
    <circle r="4" cx="205" cy="30.734528439084713" fill="#C86DD7" opacity="0">
        <animate attributeName="opacity"
            from="0" to="1" dur="0.1s" begin="2.2s" fill="freeze"/>
    </circle>
</svg>