<svg width="200" height="50" viewBox="0 0 210 50" xmlns="http://www.w3.org/2000/svg">
    <!-- 336 stargazers -->
    <!-- created at Fri May 01 2026 18:30:48 GMT+0000 (Coordinated Universal Time) -->
    <defs>
        <linearGradient id="stroke" x1="0%" y1="0%" x2="100%" y2="0%">
            <stop stop-color="#3023AE" offset="0%"/>
            <stop stop-color="#C86DD7" offset="100%"/>
        </linearGradient>
    </defs>
    <path stroke="url(#stroke)"
        stroke-width="3"
        stroke-linejoin="round"
        stroke-linecap="round"
        d="M5.00 46.0001 C 5.46 44.57, 9.50 31.90, 10.00 30.48 S 13.71 18.34, 15.00 17.57 S 18.93 23.42, 20.00 24.47 S 23.52 27.12, 25.00 27.38 S 28.52 26.47, 30.00 26.24 S 33.95 26.85, 35.00 25.78 S 38.64 16.62, 40.00 16.00 S 44.03 20.08, 45.00 21.22 S 48.88 26.76, 50.00 27.76 S 53.51 30.36, 55.00 30.16 S 58.54 26.73, 60.00 26.40 S 63.58 27.40, 65.00 27.89 S 68.68 30.55, 70.00 29.83 S 73.77 23.33, 75.00 22.47 S 79.10 21.65, 80.00 22.85 S 83.96 34.79, 85.00 35.87 S 88.50 33.36, 90.00 33.29 S 93.66 34.70, 95.00 35.38 S 98.86 39.30, 100.00 38.32 S 103.85 27.74, 105.00 26.78 S 108.81 29.07, 110.00 29.98 S 113.81 33.53, 115.00 34.45 S 118.90 38.69, 120.00 37.68 S 123.99 26.34, 125.00 25.24 S 128.69 25.98, 130.00 26.71 S 133.96 29.72, 135.00 30.80 S 138.77 37.94, 140.00 37.08 S 144.29 25.12, 145.00 23.80 S 148.51 18.19, 150.00 18.39 S 154.28 23.80, 155.00 25.11 S 158.79 35.64, 160.00 36.52 S 163.91 31.37, 165.00 32.40 S 168.59 45.48, 170.00 46.00 S 174.13 37.35, 175.00 36.12 S 178.50 31.89, 180.00 31.85 S 183.60 35.32, 185.00 35.87 S 188.82 36.67, 190.00 35.74 S 193.98 29.11, 195.00 28.01 S 198.79 24.09, 200.00 24.98 S 204.35 34.02, 205.00 35.37"
        fill="none">
        <animate attributeName="stroke-dashoffset"
            from="337.2484106065775" to="0" dur="2.2s"/>
        <animate attributeName="stroke-dasharray"
            from="337.2484106065775" to="337.2484106065775"/>
    </path>
    <circle r="4" cx="5" cy="46" fill="#3023AE"/>
    <circle r="4" cx="205" cy="35.369756015379835" fill="#C86DD7" opacity="0">
        <animate attributeName="opacity"
            from="0" to="1" dur="0.1s" begin="2.2s" fill="freeze"/>
    </circle>
</svg>