<svg width="200" height="50" viewBox="0 0 210 50" xmlns="http://www.w3.org/2000/svg">
    <!-- 337 stargazers -->
    <!-- created at Mon May 11 2026 07:29:00 GMT+0000 (Coordinated Universal Time) -->
    <defs>
        <linearGradient id="stroke" x1="0%" y1="0%" x2="100%" y2="0%">
            <stop stop-color="#3023AE" offset="0%"/>
            <stop stop-color="#C86DD7" offset="100%"/>
        </linearGradient>
    </defs>
    <path stroke="url(#stroke)"
        stroke-width="3"
        stroke-linejoin="round"
        stroke-linecap="round"
        d="M5.00 46.0001 C 5.46 44.57, 9.50 31.90, 10.00 30.48 S 13.71 18.34, 15.00 17.57 S 18.93 23.42, 20.00 24.47 S 23.52 27.12, 25.00 27.38 S 28.52 26.47, 30.00 26.24 S 33.95 26.85, 35.00 25.78 S 38.64 16.62, 40.00 16.00 S 44.03 20.08, 45.00 21.22 S 48.88 26.76, 50.00 27.76 S 53.54 30.50, 55.00 30.16 S 58.51 25.61, 60.00 25.44 S 63.57 28.62, 65.00 29.06 S 68.75 29.36, 70.00 28.54 S 73.64 23.10, 75.00 22.47 S 79.00 22.81, 80.00 23.93 S 84.03 32.46, 85.00 33.60 S 88.52 35.36, 90.00 35.62 S 93.55 34.99, 95.00 35.38 S 98.86 39.30, 100.00 38.32 S 103.95 27.85, 105.00 26.78 S 108.99 26.98, 110.00 28.09 S 113.92 36.79, 115.00 37.83 S 119.07 38.85, 120.00 37.68 S 124.08 26.42, 125.00 25.24 S 128.85 23.91, 130.00 24.87 S 134.05 32.43, 135.00 33.59 S 139.02 38.21, 140.00 37.08 S 144.33 23.37, 145.00 22.02 S 148.82 15.97, 150.00 16.89 S 154.32 28.48, 155.00 29.82 S 158.55 36.15, 160.00 36.52 S 163.91 31.37, 165.00 32.40 S 168.50 46.06, 170.00 46.00 S 173.94 33.09, 175.00 32.03 S 178.50 36.05, 180.00 35.99 S 183.94 30.61, 185.00 31.67 S 188.88 47.00, 190.00 46.00 S 194.16 24.02, 195.00 22.78 S 198.84 30.19, 200.00 31.14 S 203.50 31.02, 205.00 30.97"
        fill="none">
        <animate attributeName="stroke-dashoffset"
            from="367.38099248383213" to="0" dur="2.2s"/>
        <animate attributeName="stroke-dasharray"
            from="367.38099248383213" to="367.38099248383213"/>
    </path>
    <circle r="4" cx="5" cy="46" fill="#3023AE"/>
    <circle r="4" cx="205" cy="30.966564785614715" fill="#C86DD7" opacity="0">
        <animate attributeName="opacity"
            from="0" to="1" dur="0.1s" begin="2.2s" fill="freeze"/>
    </circle>
</svg>