<svg width="200" height="50" viewBox="0 0 210 50" xmlns="http://www.w3.org/2000/svg">
    <!-- 335 stargazers -->
    <!-- created at Sun Apr 19 2026 10:57:32 GMT+0000 (Coordinated Universal Time) -->
    <defs>
        <linearGradient id="stroke" x1="0%" y1="0%" x2="100%" y2="0%">
            <stop stop-color="#3023AE" offset="0%"/>
            <stop stop-color="#C86DD7" offset="100%"/>
        </linearGradient>
    </defs>
    <path stroke="url(#stroke)"
        stroke-width="3"
        stroke-linejoin="round"
        stroke-linecap="round"
        d="M5.00 46.0001 C 5.49 44.58, 9.47 32.81, 10.00 31.40 S 13.69 19.99, 15.00 19.25 S 18.90 24.73, 20.00 25.74 S 23.52 28.23, 25.00 28.48 S 28.51 27.54, 30.00 27.40 S 33.92 28.62, 35.00 27.58 S 38.65 18.43, 40.00 17.77 S 43.99 21.57, 45.00 22.69 S 48.79 27.95, 50.00 28.84 S 53.50 30.12, 55.00 30.07 S 58.53 28.82, 60.00 28.50 S 63.54 27.59, 65.00 27.93 S 68.61 31.35, 70.00 30.79 S 73.63 24.48, 75.00 23.86 S 78.96 25.22, 80.00 26.30 S 83.71 33.57, 85.00 34.33 S 88.52 31.94, 90.00 32.19 S 94.12 34.79, 95.00 36.00 S 98.83 46.94, 100.00 46.00 S 104.17 29.17, 105.00 27.92 S 108.65 30.28, 110.00 30.93 S 113.78 31.81, 115.00 32.69 S 118.50 38.24, 120.00 38.17 S 124.04 33.34, 125.00 32.19 S 128.64 26.75, 130.00 26.12 S 134.02 26.41, 135.00 27.54 S 138.59 37.09, 140.00 37.61 S 144.37 32.59, 145.00 31.23 S 148.56 16.41, 150.00 16.00 S 154.25 27.12, 155.00 28.42 S 158.86 32.41, 160.00 33.39 S 163.58 36.47, 165.00 36.95 S 168.89 35.82, 170.00 36.83 S 173.78 46.87, 175.00 46.00 S 178.50 29.69, 180.00 29.69 S 183.55 45.62, 185.00 46.00 S 189.24 33.64, 190.00 32.35 S 193.58 29.57, 195.00 29.07 S 198.77 28.02, 200.00 28.87 S 204.14 34.77, 205.00 36.00"
        fill="none">
        <animate attributeName="stroke-dashoffset"
            from="355.35099192019544" to="0" dur="2.2s"/>
        <animate attributeName="stroke-dasharray"
            from="355.35099192019544" to="355.35099192019544"/>
    </path>
    <circle r="4" cx="5" cy="46" fill="#3023AE"/>
    <circle r="4" cx="205" cy="35.9977240926015" fill="#C86DD7" opacity="0">
        <animate attributeName="opacity"
            from="0" to="1" dur="0.1s" begin="2.2s" fill="freeze"/>
    </circle>
</svg>