<svg width="200" height="50" viewBox="0 0 210 50" xmlns="http://www.w3.org/2000/svg">
    <!-- 336 stargazers -->
    <!-- created at Mon Apr 13 2026 07:09:08 GMT+0000 (Coordinated Universal Time) -->
    <defs>
        <linearGradient id="stroke" x1="0%" y1="0%" x2="100%" y2="0%">
            <stop stop-color="#3023AE" offset="0%"/>
            <stop stop-color="#C86DD7" offset="100%"/>
        </linearGradient>
    </defs>
    <path stroke="url(#stroke)"
        stroke-width="3"
        stroke-linejoin="round"
        stroke-linecap="round"
        d="M5.00 46.0001 C 5.47 44.57, 9.49 32.16, 10.00 30.75 S 13.71 18.82, 15.00 18.06 S 18.92 23.80, 20.00 24.84 S 23.52 27.44, 25.00 27.70 S 28.50 26.62, 30.00 26.58 S 33.89 28.42, 35.00 27.41 S 38.80 18.36, 40.00 17.45 S 43.97 18.79, 45.00 19.89 S 48.91 27.04, 50.00 28.07 S 53.50 29.41, 55.00 29.36 S 58.54 28.05, 60.00 27.73 S 63.54 26.78, 65.00 27.12 S 68.67 30.80, 70.00 30.11 S 73.64 22.57, 75.00 21.93 S 79.03 24.28, 80.00 25.42 S 83.72 33.02, 85.00 33.81 S 88.52 31.32, 90.00 31.58 S 94.15 34.33, 95.00 35.56 S 98.66 46.67, 100.00 46.00 S 104.31 31.91, 105.00 30.58 S 108.52 26.50, 110.00 26.72 S 114.00 30.98, 115.00 32.10 S 118.53 37.51, 120.00 37.82 S 123.98 35.32, 125.00 34.22 S 128.99 28.15, 130.00 27.04 S 133.95 22.11, 135.00 23.18 S 138.79 36.34, 140.00 37.23 S 144.36 31.93, 145.00 30.57 S 148.66 16.68, 150.00 16.00 S 154.23 24.18, 155.00 25.47 S 159.00 31.71, 160.00 32.83 S 163.59 36.04, 165.00 36.55 S 168.91 35.39, 170.00 36.42 S 173.62 46.60, 175.00 46.00 S 178.94 33.15, 180.00 32.09 S 183.50 36.09, 185.00 36.04 S 188.81 32.66, 190.00 31.74 S 193.59 28.83, 195.00 28.32 S 198.78 27.23, 200.00 28.11 S 204.16 34.31, 205.00 35.55"
        fill="none">
        <animate attributeName="stroke-dashoffset"
            from="342.63804435150706" to="0" dur="2.2s"/>
        <animate attributeName="stroke-dasharray"
            from="342.63804435150706" to="342.63804435150706"/>
    </path>
    <circle r="4" cx="5" cy="46" fill="#3023AE"/>
    <circle r="4" cx="205" cy="35.55296353490709" fill="#C86DD7" opacity="0">
        <animate attributeName="opacity"
            from="0" to="1" dur="0.1s" begin="2.2s" fill="freeze"/>
    </circle>
</svg>