<svg width="200" height="50" viewBox="0 0 210 50" xmlns="http://www.w3.org/2000/svg">
    <!-- 335 stargazers -->
    <!-- created at Wed Mar 18 2026 12:28:09 GMT+0000 (Coordinated Universal Time) -->
    <defs>
        <linearGradient id="stroke" x1="0%" y1="0%" x2="100%" y2="0%">
            <stop stop-color="#3023AE" offset="0%"/>
            <stop stop-color="#C86DD7" offset="100%"/>
        </linearGradient>
    </defs>
    <path stroke="url(#stroke)"
        stroke-width="3"
        stroke-linejoin="round"
        stroke-linecap="round"
        d="M5.00 46.0001 C 5.45 44.57, 9.51 31.54, 10.00 30.12 S 13.67 17.61, 15.00 16.91 S 18.88 23.83, 20.00 24.83 S 23.56 25.45, 25.00 25.85 S 28.50 27.73, 30.00 27.65 S 33.90 26.33, 35.00 25.31 S 38.90 19.35, 40.00 18.33 S 44.04 14.85, 45.00 16.00 S 48.97 29.29, 50.00 30.38 S 53.54 26.97, 55.00 26.63 S 58.50 28.10, 60.00 28.06 S 63.50 26.34, 65.00 26.35 S 68.54 28.47, 70.00 28.13 S 73.59 24.52, 75.00 24.02 S 78.55 24.20, 80.00 24.58 S 83.85 25.65, 85.00 26.61 S 89.03 31.85, 90.00 32.99 S 93.53 38.04, 95.00 38.31 S 98.59 35.40, 100.00 34.89 S 103.88 35.65, 105.00 34.65 S 108.79 26.81, 110.00 25.93 S 114.02 26.18, 115.00 27.31 S 118.94 36.42, 120.00 37.48 S 124.00 38.45, 125.00 37.33 S 129.10 27.46, 130.00 26.26 S 133.76 23.16, 135.00 24.01 S 139.07 31.91, 140.00 33.09 S 143.95 37.80, 145.00 36.73 S 149.31 24.26, 150.00 22.93 S 153.51 17.12, 155.00 17.32 S 159.30 22.99, 160.00 24.31 S 164.03 35.02, 165.00 36.16 S 168.50 36.07, 170.00 36.03 S 173.94 34.83, 175.00 35.89 S 178.82 46.93, 180.00 46.00 S 183.97 29.12, 185.00 28.04 S 188.79 34.61, 190.00 35.50 S 193.84 36.32, 195.00 35.37 S 198.84 28.33, 200.00 27.38 S 203.50 27.22, 205.00 27.16"
        fill="none">
        <animate attributeName="stroke-dashoffset"
            from="333.9140641586027" to="0" dur="2.2s"/>
        <animate attributeName="stroke-dasharray"
            from="333.9140641586027" to="333.9140641586027"/>
    </path>
    <circle r="4" cx="5" cy="46" fill="#3023AE"/>
    <circle r="4" cx="205" cy="27.15962949576155" fill="#C86DD7" opacity="0">
        <animate attributeName="opacity"
            from="0" to="1" dur="0.1s" begin="2.2s" fill="freeze"/>
    </circle>
</svg>