<svg width="200" height="50" viewBox="0 0 210 50" xmlns="http://www.w3.org/2000/svg">
    <!-- 336 stargazers -->
    <!-- created at Sat Mar 28 2026 15:16:22 GMT+0000 (Coordinated Universal Time) -->
    <defs>
        <linearGradient id="stroke" x1="0%" y1="0%" x2="100%" y2="0%">
            <stop stop-color="#3023AE" offset="0%"/>
            <stop stop-color="#C86DD7" offset="100%"/>
        </linearGradient>
    </defs>
    <path stroke="url(#stroke)"
        stroke-width="3"
        stroke-linejoin="round"
        stroke-linecap="round"
        d="M5.00 46.0001 C 5.49 44.58, 9.47 32.81, 10.00 31.40 S 13.69 19.99, 15.00 19.25 S 18.90 24.73, 20.00 25.74 S 23.52 28.23, 25.00 28.48 S 28.50 27.35, 30.00 27.40 S 33.79 29.74, 35.00 28.85 S 38.94 21.13, 40.00 20.07 S 43.87 17.92, 45.00 18.91 S 49.00 27.72, 50.00 28.84 S 53.52 29.81, 55.00 30.07 S 58.57 31.02, 60.00 30.57 S 63.50 26.92, 65.00 26.95 S 68.57 31.23, 70.00 30.79 S 73.69 24.59, 75.00 23.86 S 78.87 24.25, 80.00 25.23 S 83.77 31.67, 85.00 32.52 S 89.11 30.99, 90.00 32.19 S 93.59 45.49, 95.00 46.00 S 99.08 36.96, 100.00 35.78 S 103.75 34.04, 105.00 33.21 S 108.63 29.75, 110.00 29.15 S 113.89 27.81, 115.00 28.82 S 118.90 37.15, 120.00 38.17 S 124.04 39.18, 125.00 38.02 S 129.12 27.33, 130.00 26.12 S 134.33 22.82, 135.00 24.16 S 139.10 44.80, 140.00 46.00 S 144.53 38.90, 145.00 37.47 S 149.00 17.12, 150.00 16.00 S 154.15 25.11, 155.00 26.34 S 158.97 29.46, 160.00 30.55 S 163.54 36.59, 165.00 36.95 S 168.89 32.02, 170.00 33.03 S 173.59 45.50, 175.00 46.00 S 179.11 37.79, 180.00 36.58 S 183.50 32.55, 185.00 32.51 S 188.59 35.82, 190.00 36.35 S 193.80 37.13, 195.00 36.23 S 198.95 29.95, 200.00 28.87 S 203.70 26.74, 205.00 26.00"
        fill="none">
        <animate attributeName="stroke-dashoffset"
            from="355.8924241165658" to="0" dur="2.2s"/>
        <animate attributeName="stroke-dasharray"
            from="355.8924241165658" to="355.8924241165658"/>
    </path>
    <circle r="4" cx="5" cy="46" fill="#3023AE"/>
    <circle r="4" cx="205" cy="25.995448185202434" fill="#C86DD7" opacity="0">
        <animate attributeName="opacity"
            from="0" to="1" dur="0.1s" begin="2.2s" fill="freeze"/>
    </circle>
</svg>