<svg width="200" height="50" viewBox="0 0 210 50" xmlns="http://www.w3.org/2000/svg">
    <!-- 334 stargazers -->
    <!-- created at Wed Mar 04 2026 15:58:24 GMT+0000 (Coordinated Universal Time) -->
    <defs>
        <linearGradient id="stroke" x1="0%" y1="0%" x2="100%" y2="0%">
            <stop stop-color="#3023AE" offset="0%"/>
            <stop stop-color="#C86DD7" offset="100%"/>
        </linearGradient>
    </defs>
    <path stroke="url(#stroke)"
        stroke-width="3"
        stroke-linejoin="round"
        stroke-linecap="round"
        d="M5.00 46.0001 C 5.50 44.59, 9.47 33.40, 10.00 32.00 S 13.65 20.04, 15.00 19.40 S 18.82 26.30, 20.00 27.23 S 23.53 26.96, 25.00 27.28 S 28.50 29.38, 30.00 29.37 S 33.80 28.15, 35.00 27.26 S 38.85 22.88, 40.00 21.92 S 43.94 17.77, 45.00 18.82 S 48.83 30.92, 50.00 31.85 S 53.53 27.08, 55.00 26.78 S 58.59 29.25, 60.00 29.75 S 63.53 30.61, 65.00 30.30 S 68.57 28.10, 70.00 27.65 S 73.51 27.27, 75.00 27.11 S 78.50 26.58, 80.00 26.59 S 83.81 26.32, 85.00 27.23 S 89.03 33.07, 90.00 34.22 S 93.52 38.78, 95.00 39.04 S 98.58 36.40, 100.00 35.93 S 103.74 36.53, 105.00 35.71 S 108.75 30.23, 110.00 29.40 S 113.88 28.07, 115.00 29.07 S 118.89 37.28, 120.00 38.28 S 123.95 39.21, 125.00 38.14 S 129.04 29.27, 130.00 28.12 S 133.59 25.57, 135.00 26.08 S 139.02 30.55, 140.00 31.68 S 143.50 37.67, 145.00 37.60 S 149.37 32.58, 150.00 31.22 S 153.56 16.40, 155.00 16.00 S 159.25 27.13, 160.00 28.43 S 163.86 32.42, 165.00 33.40 S 168.58 36.48, 170.00 36.97 S 173.89 35.84, 175.00 36.84 S 178.61 46.57, 180.00 46.00 S 183.91 33.75, 185.00 32.71 S 188.50 36.54, 190.00 36.49 S 193.91 31.35, 195.00 32.39 S 198.85 46.97, 200.00 46.00 S 204.67 25.43, 205.00 23.97"
        fill="none">
        <animate attributeName="stroke-dashoffset"
            from="341.45612116321223" to="0" dur="2.2s"/>
        <animate attributeName="stroke-dasharray"
            from="341.45612116321223" to="341.45612116321223"/>
    </path>
    <circle r="4" cx="5" cy="46" fill="#3023AE"/>
    <circle r="4" cx="205" cy="23.966189712497354" fill="#C86DD7" opacity="0">
        <animate attributeName="opacity"
            from="0" to="1" dur="0.1s" begin="2.2s" fill="freeze"/>
    </circle>
</svg>