<svg width="200" height="50" viewBox="0 0 210 50" xmlns="http://www.w3.org/2000/svg">
    <!-- 336 stargazers -->
    <!-- created at Tue Mar 24 2026 16:09:41 GMT+0000 (Coordinated Universal Time) -->
    <defs>
        <linearGradient id="stroke" x1="0%" y1="0%" x2="100%" y2="0%">
            <stop stop-color="#3023AE" offset="0%"/>
            <stop stop-color="#C86DD7" offset="100%"/>
        </linearGradient>
    </defs>
    <path stroke="url(#stroke)"
        stroke-width="3"
        stroke-linejoin="round"
        stroke-linecap="round"
        d="M5.00 46.0001 C 5.47 44.58, 9.49 32.39, 10.00 30.98 S 13.70 19.23, 15.00 18.47 S 18.91 24.12, 20.00 25.16 S 23.58 27.48, 25.00 27.97 S 28.52 28.86, 30.00 28.64 S 33.90 27.45, 35.00 26.42 S 38.85 20.28, 40.00 19.32 S 43.99 17.02, 45.00 18.13 S 48.96 29.12, 50.00 30.20 S 53.51 28.79, 55.00 28.61 S 58.51 29.21, 60.00 29.03 S 63.50 27.39, 65.00 27.40 S 68.57 29.55, 70.00 29.09 S 73.58 24.67, 75.00 24.19 S 78.65 25.08, 80.00 25.73 S 83.72 28.24, 85.00 29.02 S 89.24 30.50, 90.00 31.79 S 93.59 45.48, 95.00 46.00 S 98.98 36.58, 100.00 35.48 S 103.86 36.23, 105.00 35.26 S 108.77 27.86, 110.00 27.01 S 113.99 27.21, 115.00 28.32 S 118.91 36.91, 120.00 37.94 S 123.97 38.89, 125.00 37.79 S 129.20 28.59, 130.00 27.32 S 134.29 20.65, 135.00 21.97 S 139.18 44.75, 140.00 46.00 S 144.38 38.59, 145.00 37.23 S 149.36 25.53, 150.00 24.17 S 153.71 15.23, 155.00 16.00 S 159.35 28.75, 160.00 30.10 S 163.55 36.32, 165.00 36.69 S 168.90 31.63, 170.00 32.65 S 173.59 45.48, 175.00 46.00 S 179.12 37.53, 180.00 36.31 S 183.50 32.16, 185.00 32.12 S 188.60 35.53, 190.00 36.07 S 193.81 36.86, 195.00 35.94 S 198.97 29.47, 200.00 28.38 S 203.71 26.18, 205.00 25.42"
        fill="none">
        <animate attributeName="stroke-dashoffset"
            from="357.9392398786815" to="0" dur="2.2s"/>
        <animate attributeName="stroke-dasharray"
            from="357.9392398786815" to="357.9392398786815"/>
    </path>
    <circle r="4" cx="5" cy="46" fill="#3023AE"/>
    <circle r="4" cx="205" cy="25.416042346388707" fill="#C86DD7" opacity="0">
        <animate attributeName="opacity"
            from="0" to="1" dur="0.1s" begin="2.2s" fill="freeze"/>
    </circle>
</svg>