<svg width="200" height="50" viewBox="0 0 210 50" xmlns="http://www.w3.org/2000/svg">
    <!-- 248 stargazers -->
    <!-- created at Sat May 16 2026 12:11:00 GMT+0000 (Coordinated Universal Time) -->
    <defs>
        <linearGradient id="stroke" x1="0%" y1="0%" x2="100%" y2="0%">
            <stop stop-color="#3023AE" offset="0%"/>
            <stop stop-color="#C86DD7" offset="100%"/>
        </linearGradient>
    </defs>
    <path stroke="url(#stroke)"
        stroke-width="3"
        stroke-linejoin="round"
        stroke-linecap="round"
        d="M5.00 46.0001 C 5.34 44.54, 9.53 26.07, 10.00 24.65 S 13.63 16.61, 15.00 16.00 S 18.54 19.82, 20.00 20.17 S 23.66 17.69, 25.00 18.37 S 28.50 25.39, 30.00 25.26 S 33.50 17.46, 35.00 17.56 S 39.17 24.63, 40.00 25.88 S 43.56 33.11, 45.00 32.71 S 48.70 23.79, 50.00 23.05 S 53.53 26.71, 55.00 27.00 S 58.50 24.94, 60.00 24.97 S 64.09 25.99, 65.00 27.19 S 68.79 37.20, 70.00 38.08 S 74.25 35.77, 75.00 34.48 S 78.69 21.62, 80.00 20.88 S 84.22 27.54, 85.00 28.82 S 88.84 36.25, 90.00 37.20 S 93.92 38.03, 95.00 36.99 S 98.50 27.63, 100.00 27.57 S 103.88 35.59, 105.00 36.59 S 108.95 37.46, 110.00 36.39 S 113.81 27.32, 115.00 26.40 S 118.91 27.67, 120.00 28.70 S 123.55 35.44, 125.00 35.83 S 128.50 31.42, 130.00 31.36 S 133.60 34.92, 135.00 35.47 S 138.97 34.21, 140.00 35.30 S 143.65 46.66, 145.00 46.00 S 149.00 31.50, 150.00 30.38 S 153.62 34.21, 155.00 34.79 S 158.50 34.68, 160.00 34.63 S 163.50 34.51, 165.00 34.47 S 168.88 35.31, 170.00 34.31 S 174.03 24.33, 175.00 25.47 S 178.85 45.04, 180.00 46.00 S 184.05 35.01, 185.00 33.84 S 189.05 32.53, 190.00 33.69 S 193.50 46.04, 195.00 46.00 S 199.07 34.57, 200.00 33.39 S 203.50 33.29, 205.00 33.25"
        fill="none">
        <animate attributeName="stroke-dashoffset"
            from="372.32203281766573" to="0" dur="2.2s"/>
        <animate attributeName="stroke-dasharray"
            from="372.32203281766573" to="372.32203281766573"/>
    </path>
    <circle r="4" cx="5" cy="46" fill="#3023AE"/>
    <circle r="4" cx="205" cy="33.24648257179489" fill="#C86DD7" opacity="0">
        <animate attributeName="opacity"
            from="0" to="1" dur="0.1s" begin="2.2s" fill="freeze"/>
    </circle>
</svg>