<svg width="200" height="50" viewBox="0 0 210 50" xmlns="http://www.w3.org/2000/svg">
    <!-- 70 stargazers -->
    <!-- created at Fri Apr 10 2026 10:25:10 GMT+0000 (Coordinated Universal Time) -->
    <defs>
        <linearGradient id="stroke" x1="0%" y1="0%" x2="100%" y2="0%">
            <stop stop-color="#3023AE" offset="0%"/>
            <stop stop-color="#C86DD7" offset="100%"/>
        </linearGradient>
    </defs>
    <path stroke="url(#stroke)"
        stroke-width="3"
        stroke-linejoin="round"
        stroke-linecap="round"
        d="M5.00 46.0001 C 5.28 44.53, 9.51 21.28, 10.00 19.86 S 13.58 17.81, 15.00 17.33 S 18.51 16.64, 20.00 16.44 S 23.59 15.50, 25.00 16.00 S 28.66 19.34, 30.00 20.01 S 33.50 21.02, 35.00 20.98 S 39.07 18.57, 40.00 19.75 S 43.54 34.07, 45.00 33.73 S 48.98 18.54, 50.00 17.45 S 54.16 21.80, 55.00 23.04 S 59.40 30.90, 60.00 32.28 S 63.51 46.13, 65.00 46.00 S 68.50 31.39, 70.00 31.39 S 73.51 46.13, 75.00 46.00 S 78.50 30.55, 80.00 30.55 S 84.18 44.74, 85.00 46.00 S 88.50 46.00, 90.00 46.00 S 93.50 46.00, 95.00 46.00 S 98.50 46.00, 100.00 46.00 S 103.50 46.00, 105.00 46.00 S 108.50 46.00, 110.00 46.00 S 114.28 47.32, 115.00 46.00 S 118.50 27.57, 120.00 27.57 S 124.28 44.68, 125.00 46.00 S 128.50 46.00, 130.00 46.00 S 133.50 46.00, 135.00 46.00 S 138.50 46.00, 140.00 46.00 S 143.50 46.00, 145.00 46.00 S 148.50 46.00, 150.00 46.00 S 153.50 46.00, 155.00 46.00 S 158.50 46.00, 160.00 46.00 S 163.50 46.00, 165.00 46.00 S 168.50 46.00, 170.00 46.00 S 173.50 46.00, 175.00 46.00 S 178.50 46.00, 180.00 46.00 S 183.50 46.00, 185.00 46.00 S 188.50 46.00, 190.00 46.00 S 193.50 46.00, 195.00 46.00 S 198.50 46.00, 200.00 46.00 S 203.50 46.00, 205.00 46.00"
        fill="none">
        <animate attributeName="stroke-dashoffset"
            from="338.40043981257395" to="0" dur="2.2s"/>
        <animate attributeName="stroke-dasharray"
            from="338.40043981257395" to="338.40043981257395"/>
    </path>
    <circle r="4" cx="5" cy="46" fill="#3023AE"/>
    <circle r="4" cx="205" cy="46" fill="#C86DD7" opacity="0">
        <animate attributeName="opacity"
            from="0" to="1" dur="0.1s" begin="2.2s" fill="freeze"/>
    </circle>
</svg>