<svg width="200" height="50" viewBox="0 0 210 50" xmlns="http://www.w3.org/2000/svg">
    <!-- 70 stargazers -->
    <!-- created at Mon Apr 13 2026 13:07:14 GMT+0000 (Coordinated Universal Time) -->
    <defs>
        <linearGradient id="stroke" x1="0%" y1="0%" x2="100%" y2="0%">
            <stop stop-color="#3023AE" offset="0%"/>
            <stop stop-color="#C86DD7" offset="100%"/>
        </linearGradient>
    </defs>
    <path stroke="url(#stroke)"
        stroke-width="3"
        stroke-linejoin="round"
        stroke-linecap="round"
        d="M5.00 46.0001 C 5.29 44.53, 9.49 22.12, 10.00 20.71 S 13.64 18.89, 15.00 18.25 S 18.50 15.94, 20.00 16.00 S 23.65 17.98, 25.00 18.63 S 28.57 20.39, 30.00 20.85 S 33.50 21.82, 35.00 21.79 S 39.06 19.43, 40.00 20.60 S 43.54 34.46, 45.00 34.13 S 48.96 19.45, 50.00 18.37 S 54.14 22.55, 55.00 23.78 S 59.38 31.35, 60.00 32.72 S 63.51 46.13, 65.00 46.00 S 68.50 31.86, 70.00 31.86 S 73.50 46.12, 75.00 46.00 S 78.50 31.05, 80.00 31.05 S 84.17 44.75, 85.00 46.00 S 88.50 46.00, 90.00 46.00 S 93.50 46.00, 95.00 46.00 S 98.50 46.00, 100.00 46.00 S 103.50 46.00, 105.00 46.00 S 108.50 46.00, 110.00 46.00 S 114.27 47.31, 115.00 46.00 S 118.50 28.17, 120.00 28.17 S 124.27 44.69, 125.00 46.00 S 128.50 46.00, 130.00 46.00 S 133.50 46.00, 135.00 46.00 S 138.50 46.00, 140.00 46.00 S 143.50 46.00, 145.00 46.00 S 148.50 46.00, 150.00 46.00 S 153.50 46.00, 155.00 46.00 S 158.50 46.00, 160.00 46.00 S 163.50 46.00, 165.00 46.00 S 168.50 46.00, 170.00 46.00 S 173.50 46.00, 175.00 46.00 S 178.50 46.00, 180.00 46.00 S 183.50 46.00, 185.00 46.00 S 188.50 46.00, 190.00 46.00 S 193.50 46.00, 195.00 46.00 S 198.50 46.00, 200.00 46.00 S 203.50 46.00, 205.00 46.00"
        fill="none">
        <animate attributeName="stroke-dashoffset"
            from="332.86490850945125" to="0" dur="2.2s"/>
        <animate attributeName="stroke-dasharray"
            from="332.86490850945125" to="332.86490850945125"/>
    </path>
    <circle r="4" cx="5" cy="46" fill="#3023AE"/>
    <circle r="4" cx="205" cy="46" fill="#C86DD7" opacity="0">
        <animate attributeName="opacity"
            from="0" to="1" dur="0.1s" begin="2.2s" fill="freeze"/>
    </circle>
</svg>