<svg width="200" height="50" viewBox="0 0 210 50" xmlns="http://www.w3.org/2000/svg">
    <!-- 156 stargazers -->
    <!-- created at Sun Apr 26 2026 12:24:09 GMT+0000 (Coordinated Universal Time) -->
    <defs>
        <linearGradient id="stroke" x1="0%" y1="0%" x2="100%" y2="0%">
            <stop stop-color="#3023AE" offset="0%"/>
            <stop stop-color="#C86DD7" offset="100%"/>
        </linearGradient>
    </defs>
    <path stroke="url(#stroke)"
        stroke-width="3"
        stroke-linejoin="round"
        stroke-linecap="round"
        d="M5.00 46.0001 C 5.28 44.53, 9.15 21.33, 10.00 20.10 S 14.20 30.15, 15.00 31.42 S 18.55 35.65, 20.00 36.03 S 23.51 34.28, 25.00 34.08 S 28.55 35.07, 30.00 34.68 S 33.61 31.94, 35.00 31.38 S 38.83 29.72, 40.00 30.67 S 43.70 38.72, 45.00 39.46 S 48.58 36.86, 50.00 36.37 S 53.92 34.96, 55.00 36.01 S 58.54 45.64, 60.00 46.00 S 63.82 39.36, 65.00 38.44 S 69.39 39.58, 70.00 38.21 S 73.97 17.09, 75.00 16.00 S 78.90 26.56, 80.00 27.58 S 83.51 25.44, 85.00 25.29 S 88.84 25.68, 90.00 26.63 S 93.59 32.94, 95.00 33.46 S 98.71 31.07, 100.00 30.30 S 103.50 27.58, 105.00 27.48 S 108.52 29.36, 110.00 29.63 S 114.22 28.02, 115.00 29.30 S 118.75 45.17, 120.00 46.00 S 124.14 37.23, 125.00 35.99 S 128.82 32.53, 130.00 31.60 S 133.60 28.60, 135.00 28.06 S 138.79 26.88, 140.00 27.76 S 143.79 34.41, 145.00 35.30 S 148.65 35.79, 150.00 35.14 S 153.86 31.38, 155.00 30.40 S 158.61 27.18, 160.00 26.62 S 163.57 25.90, 165.00 26.34 S 169.32 28.39, 170.00 29.73 S 173.63 45.39, 175.00 46.00 S 179.04 35.34, 180.00 34.19 S 183.89 35.05, 185.00 34.04 S 188.50 25.06, 190.00 25.02 S 193.58 33.25, 195.00 33.74 S 198.68 29.18, 200.00 28.46 S 203.50 28.31, 205.00 28.25"
        fill="none">
        <animate attributeName="stroke-dashoffset"
            from="347.34216520957796" to="0" dur="2.2s"/>
        <animate attributeName="stroke-dasharray"
            from="347.34216520957796" to="347.34216520957796"/>
    </path>
    <circle r="4" cx="5" cy="46" fill="#3023AE"/>
    <circle r="4" cx="205" cy="28.253771870269897" fill="#C86DD7" opacity="0">
        <animate attributeName="opacity"
            from="0" to="1" dur="0.1s" begin="2.2s" fill="freeze"/>
    </circle>
</svg>