<svg width="200" height="50" viewBox="0 0 210 50" xmlns="http://www.w3.org/2000/svg">
    <!-- 161 stargazers -->
    <!-- created at Fri May 08 2026 13:21:19 GMT+0000 (Coordinated Universal Time) -->
    <defs>
        <linearGradient id="stroke" x1="0%" y1="0%" x2="100%" y2="0%">
            <stop stop-color="#3023AE" offset="0%"/>
            <stop stop-color="#C86DD7" offset="100%"/>
        </linearGradient>
    </defs>
    <path stroke="url(#stroke)"
        stroke-width="3"
        stroke-linejoin="round"
        stroke-linecap="round"
        d="M5.00 46.0001 C 5.31 44.53, 9.07 23.36, 10.00 22.18 S 14.16 32.21, 15.00 33.45 S 18.52 36.70, 20.00 36.95 S 23.63 35.80, 25.00 35.18 S 28.68 33.13, 30.00 32.41 S 33.82 28.82, 35.00 29.75 S 38.96 39.24, 40.00 40.32 S 43.66 40.74, 45.00 40.06 S 48.71 34.53, 50.00 35.30 S 53.51 45.80, 55.00 46.00 S 58.50 36.61, 60.00 36.61 S 64.35 47.35, 65.00 46.00 S 69.31 17.33, 70.00 16.00 S 74.10 25.55, 75.00 26.75 S 78.85 28.32, 80.00 29.28 S 83.51 35.00, 85.00 35.15 S 88.78 31.15, 90.00 30.28 S 93.50 28.12, 95.00 28.01 S 99.27 28.23, 100.00 29.54 S 103.62 45.40, 105.00 46.00 S 109.06 35.03, 110.00 33.87 S 113.70 34.37, 115.00 33.63 S 118.50 28.24, 120.00 28.16 S 123.86 32.18, 125.00 33.16 S 128.50 36.83, 130.00 36.76 S 134.05 33.86, 135.00 32.71 S 138.50 24.70, 140.00 24.63 S 144.02 31.14, 145.00 32.27 S 148.59 35.62, 150.00 36.14 S 153.50 36.03, 155.00 35.99 S 158.82 36.77, 160.00 35.84 S 163.82 29.09, 165.00 28.16 S 168.56 27.50, 170.00 27.91 S 173.56 30.61, 175.00 31.03 S 179.17 29.59, 180.00 30.84 S 184.17 44.75, 185.00 46.00 S 189.00 47.12, 190.00 46.00 S 194.20 36.14, 195.00 34.87 S 199.00 28.96, 200.00 30.08 S 204.55 44.57, 205.00 46.00"
        fill="none">
        <animate attributeName="stroke-dashoffset"
            from="374.51361571303016" to="0" dur="2.2s"/>
        <animate attributeName="stroke-dasharray"
            from="374.51361571303016" to="374.51361571303016"/>
    </path>
    <circle r="4" cx="5" cy="46" fill="#3023AE"/>
    <circle r="4" cx="205" cy="46" fill="#C86DD7" opacity="0">
        <animate attributeName="opacity"
            from="0" to="1" dur="0.1s" begin="2.2s" fill="freeze"/>
    </circle>
</svg>