<svg width="200" height="50" viewBox="0 0 210 50" xmlns="http://www.w3.org/2000/svg">
    <!-- 148 stargazers -->
    <!-- created at Mon Apr 20 2026 11:56:00 GMT+0000 (Coordinated Universal Time) -->
    <defs>
        <linearGradient id="stroke" x1="0%" y1="0%" x2="100%" y2="0%">
            <stop stop-color="#3023AE" offset="0%"/>
            <stop stop-color="#C86DD7" offset="100%"/>
        </linearGradient>
    </defs>
    <path stroke="url(#stroke)"
        stroke-width="3"
        stroke-linejoin="round"
        stroke-linecap="round"
        d="M5.00 46.0001 C 5.29 44.53, 9.14 22.02, 10.00 20.79 S 14.28 30.50, 15.00 31.81 S 18.52 38.92, 20.00 39.14 S 23.61 33.86, 25.00 33.29 S 28.50 35.03, 30.00 34.99 S 33.73 33.81, 35.00 33.01 S 38.75 27.94, 40.00 28.77 S 44.25 38.34, 45.00 39.63 S 48.69 46.73, 50.00 46.00 S 53.78 34.96, 55.00 34.09 S 59.04 37.73, 60.00 38.88 S 63.50 46.07, 65.00 46.00 S 68.82 39.34, 70.00 38.42 S 74.39 39.57, 75.00 38.20 S 78.87 16.98, 80.00 16.00 S 83.81 28.63, 85.00 29.55 S 88.50 23.82, 90.00 23.69 S 93.93 27.69, 95.00 28.74 S 98.84 32.57, 100.00 33.52 S 103.71 37.75, 105.00 36.99 S 109.04 28.75, 110.00 27.60 S 113.52 24.75, 115.00 25.02 S 119.00 28.32, 120.00 29.44 S 124.22 34.98, 125.00 36.26 S 128.63 46.62, 130.00 46.00 S 133.95 32.82, 135.00 31.74 S 138.60 36.28, 140.00 35.75 S 143.83 28.91, 145.00 27.97 S 148.79 26.80, 150.00 27.69 S 154.28 33.95, 155.00 35.27 S 158.65 46.66, 160.00 46.00 S 164.20 31.65, 165.00 30.38 S 168.61 30.73, 170.00 30.16 S 173.50 26.41, 175.00 26.34 S 178.57 29.29, 180.00 29.74 S 184.21 28.26, 185.00 29.53 S 189.22 44.72, 190.00 46.00 S 194.24 47.29, 195.00 46.00 S 198.50 28.93, 200.00 28.93 S 204.58 44.56, 205.00 46.00"
        fill="none">
        <animate attributeName="stroke-dashoffset"
            from="401.65443773376745" to="0" dur="2.2s"/>
        <animate attributeName="stroke-dasharray"
            from="401.65443773376745" to="401.65443773376745"/>
    </path>
    <circle r="4" cx="5" cy="46" fill="#3023AE"/>
    <circle r="4" cx="205" cy="46" fill="#C86DD7" opacity="0">
        <animate attributeName="opacity"
            from="0" to="1" dur="0.1s" begin="2.2s" fill="freeze"/>
    </circle>
</svg>