<svg width="200" height="50" viewBox="0 0 210 50" xmlns="http://www.w3.org/2000/svg">
    <!-- 118 stargazers -->
    <!-- created at Mon Mar 09 2026 08:50:50 GMT+0000 (Coordinated Universal Time) -->
    <defs>
        <linearGradient id="stroke" x1="0%" y1="0%" x2="100%" y2="0%">
            <stop stop-color="#3023AE" offset="0%"/>
            <stop stop-color="#C86DD7" offset="100%"/>
        </linearGradient>
    </defs>
    <path stroke="url(#stroke)"
        stroke-width="3"
        stroke-linejoin="round"
        stroke-linecap="round"
        d="M5.00 46.0001 C 5.28 44.53, 9.16 21.25, 10.00 20.01 S 14.08 29.92, 15.00 31.11 S 18.89 31.84, 20.00 32.85 S 23.55 39.88, 25.00 40.26 S 28.86 36.43, 30.00 35.45 S 33.60 31.10, 35.00 31.63 S 38.53 38.94, 40.00 39.26 S 43.82 34.73, 45.00 33.80 S 48.51 31.48, 50.00 31.34 S 53.51 32.98, 55.00 32.82 S 58.52 30.00, 60.00 30.24 S 64.20 33.22, 65.00 34.49 S 69.02 44.87, 70.00 46.00 S 73.50 46.00, 75.00 46.00 S 79.08 47.18, 80.00 46.00 S 84.09 34.32, 85.00 33.13 S 89.08 31.62, 90.00 32.81 S 94.09 44.80, 95.00 46.00 S 98.50 46.00, 100.00 46.00 S 103.50 46.00, 105.00 46.00 S 108.50 46.00, 110.00 46.00 S 114.17 47.25, 115.00 46.00 S 118.50 31.04, 120.00 31.04 S 124.17 44.75, 125.00 46.00 S 129.52 47.42, 130.00 46.00 S 134.53 17.91, 135.00 16.49 S 139.27 14.69, 140.00 16.00 S 143.93 33.43, 145.00 34.48 S 149.05 26.90, 150.00 25.74 S 153.50 22.34, 155.00 22.25 S 159.42 23.75, 160.00 25.13 S 163.50 46.09, 165.00 46.00 S 169.26 25.85, 170.00 24.54 S 174.37 26.88, 175.00 28.24 S 178.64 46.62, 180.00 46.00 S 183.50 23.69, 185.00 23.69 S 188.89 44.99, 190.00 46.00 S 194.30 34.12, 195.00 32.80 S 198.71 27.87, 200.00 27.11 S 203.50 26.96, 205.00 26.89"
        fill="none">
        <animate attributeName="stroke-dashoffset"
            from="441.1868368956683" to="0" dur="2.2s"/>
        <animate attributeName="stroke-dasharray"
            from="441.1868368956683" to="441.1868368956683"/>
    </path>
    <circle r="4" cx="5" cy="46" fill="#3023AE"/>
    <circle r="4" cx="205" cy="26.890144399550554" fill="#C86DD7" opacity="0">
        <animate attributeName="opacity"
            from="0" to="1" dur="0.1s" begin="2.2s" fill="freeze"/>
    </circle>
</svg>