<svg width="200" height="50" viewBox="0 0 210 50" xmlns="http://www.w3.org/2000/svg">
    <!-- 146 stargazers -->
    <!-- created at Tue Apr 14 2026 11:46:31 GMT+0000 (Coordinated Universal Time) -->
    <defs>
        <linearGradient id="stroke" x1="0%" y1="0%" x2="100%" y2="0%">
            <stop stop-color="#3023AE" offset="0%"/>
            <stop stop-color="#C86DD7" offset="100%"/>
        </linearGradient>
    </defs>
    <path stroke="url(#stroke)"
        stroke-width="3"
        stroke-linejoin="round"
        stroke-linecap="round"
        d="M5.00 46.0001 C 5.29 44.53, 9.14 22.07, 10.00 20.84 S 14.28 30.34, 15.00 31.65 S 18.50 38.99, 20.00 39.06 S 23.51 32.25, 25.00 32.11 S 28.50 38.20, 30.00 38.12 S 33.71 32.38, 35.00 31.61 S 38.50 32.22, 40.00 32.22 S 44.12 30.39, 45.00 31.60 S 48.80 45.10, 50.00 46.00 S 54.06 40.21, 55.00 39.04 S 58.77 32.67, 60.00 33.53 S 64.06 44.83, 65.00 46.00 S 69.00 47.12, 70.00 46.00 S 73.50 34.84, 75.00 34.84 S 79.30 47.32, 80.00 46.00 S 84.30 17.33, 85.00 16.00 S 88.77 26.08, 90.00 26.93 S 93.59 22.40, 95.00 22.91 S 98.95 29.47, 100.00 30.54 S 103.54 32.77, 105.00 33.11 S 108.50 32.92, 110.00 32.84 S 113.72 33.37, 115.00 32.58 S 118.59 27.17, 120.00 26.66 S 123.53 28.65, 125.00 28.94 S 128.76 27.79, 130.00 28.64 S 134.25 34.50, 135.00 35.80 S 138.50 46.05, 140.00 46.00 S 144.17 36.72, 145.00 35.47 S 148.65 31.53, 150.00 30.88 S 153.50 30.72, 155.00 30.65 S 158.61 30.98, 160.00 30.42 S 164.19 25.39, 165.00 26.65 S 169.31 44.67, 170.00 46.00 S 174.22 47.28, 175.00 46.00 S 179.23 30.84, 180.00 29.56 S 183.62 29.93, 185.00 29.35 S 188.50 25.41, 190.00 25.35 S 193.85 27.97, 195.00 28.93 S 198.64 33.15, 200.00 33.79 S 203.50 33.69, 205.00 33.65"
        fill="none">
        <animate attributeName="stroke-dashoffset"
            from="379.9996299373253" to="0" dur="2.2s"/>
        <animate attributeName="stroke-dasharray"
            from="379.9996299373253" to="379.9996299373253"/>
    </path>
    <circle r="4" cx="5" cy="46" fill="#3023AE"/>
    <circle r="4" cx="205" cy="33.648300175682635" fill="#C86DD7" opacity="0">
        <animate attributeName="opacity"
            from="0" to="1" dur="0.1s" begin="2.2s" fill="freeze"/>
    </circle>
</svg>