<svg width="200" height="50" viewBox="0 0 210 50" xmlns="http://www.w3.org/2000/svg">
    <!-- 132 stargazers -->
    <!-- created at Fri Mar 27 2026 10:38:08 GMT+0000 (Coordinated Universal Time) -->
    <defs>
        <linearGradient id="stroke" x1="0%" y1="0%" x2="100%" y2="0%">
            <stop stop-color="#3023AE" offset="0%"/>
            <stop stop-color="#C86DD7" offset="100%"/>
        </linearGradient>
    </defs>
    <path stroke="url(#stroke)"
        stroke-width="3"
        stroke-linejoin="round"
        stroke-linecap="round"
        d="M5.00 46.0001 C 5.31 44.53, 9.01 23.55, 10.00 22.43 S 14.09 33.40, 15.00 34.60 S 18.52 35.37, 20.00 35.58 S 23.51 36.24, 25.00 36.03 S 28.53 33.86, 30.00 34.17 S 33.51 38.30, 35.00 38.11 S 38.55 33.30, 40.00 32.91 S 43.54 35.77, 45.00 35.41 S 48.61 29.85, 50.00 30.41 S 54.19 38.13, 55.00 39.39 S 58.50 46.07, 60.00 46.00 S 63.79 39.82, 65.00 38.93 S 68.59 39.22, 70.00 38.72 S 73.79 34.51, 75.00 35.40 S 78.97 44.91, 80.00 46.00 S 83.83 46.94, 85.00 46.00 S 88.85 38.86, 90.00 37.90 S 93.83 36.77, 95.00 37.71 S 99.37 47.36, 100.00 46.00 S 104.18 17.26, 105.00 16.00 S 108.82 29.76, 110.00 30.69 S 113.57 24.36, 115.00 23.92 S 118.71 26.87, 120.00 27.63 S 123.65 29.13, 125.00 29.80 S 128.74 31.71, 130.00 32.53 S 133.50 36.38, 135.00 36.32 S 138.63 32.69, 140.00 32.08 S 143.59 32.37, 145.00 31.85 S 148.50 28.47, 150.00 28.40 S 153.50 31.50, 155.00 31.42 S 158.50 27.94, 160.00 27.88 S 163.79 30.10, 165.00 30.99 S 168.61 34.67, 170.00 35.24 S 173.98 34.00, 175.00 35.10 S 178.50 46.04, 180.00 46.00 S 183.50 34.81, 185.00 34.81 S 188.50 46.04, 190.00 46.00 S 194.02 35.67, 195.00 34.54 S 198.67 35.09, 200.00 34.40 S 203.94 30.47, 205.00 29.41"
        fill="none">
        <animate attributeName="stroke-dashoffset"
            from="349.90802097088715" to="0" dur="2.2s"/>
        <animate attributeName="stroke-dasharray"
            from="349.90802097088715" to="349.90802097088715"/>
    </path>
    <circle r="4" cx="5" cy="46" fill="#3023AE"/>
    <circle r="4" cx="205" cy="29.407285791034223" fill="#C86DD7" opacity="0">
        <animate attributeName="opacity"
            from="0" to="1" dur="0.1s" begin="2.2s" fill="freeze"/>
    </circle>
</svg>