<svg width="200" height="50" viewBox="0 0 210 50" xmlns="http://www.w3.org/2000/svg">
    <!-- 147 stargazers -->
    <!-- created at Fri Apr 17 2026 11:54:20 GMT+0000 (Coordinated Universal Time) -->
    <defs>
        <linearGradient id="stroke" x1="0%" y1="0%" x2="100%" y2="0%">
            <stop stop-color="#3023AE" offset="0%"/>
            <stop stop-color="#C86DD7" offset="100%"/>
        </linearGradient>
    </defs>
    <path stroke="url(#stroke)"
        stroke-width="3"
        stroke-linejoin="round"
        stroke-linecap="round"
        d="M5.00 46.0001 C 5.27 44.52, 9.22 19.93, 10.00 18.65 S 14.32 28.30, 15.00 29.64 S 18.54 38.11, 20.00 38.46 S 23.56 32.45, 25.00 32.02 S 28.52 35.76, 30.00 35.51 S 33.78 31.24, 35.00 30.36 S 38.70 27.53, 40.00 28.28 S 44.26 34.80, 45.00 36.10 S 48.50 46.12, 50.00 46.00 S 53.99 36.42, 55.00 35.30 S 58.98 33.83, 60.00 34.93 S 63.99 44.89, 65.00 46.00 S 69.05 47.16, 70.00 46.00 S 74.26 35.17, 75.00 33.87 S 79.27 29.68, 80.00 28.37 S 83.77 16.85, 85.00 16.00 S 88.87 20.49, 90.00 21.48 S 93.81 23.87, 95.00 24.78 S 98.78 28.32, 100.00 29.20 S 103.75 31.15, 105.00 31.98 S 108.75 36.71, 110.00 35.88 S 113.99 26.47, 115.00 25.37 S 118.53 24.67, 120.00 24.97 S 123.95 26.39, 125.00 27.45 S 129.29 33.78, 130.00 35.10 S 133.66 46.67, 135.00 46.00 S 139.01 31.19, 140.00 30.07 S 143.50 34.63, 145.00 34.55 S 148.88 30.56, 150.00 29.56 S 153.50 25.63, 155.00 25.56 S 159.34 27.72, 160.00 29.07 S 163.64 45.37, 165.00 46.00 S 169.26 34.99, 170.00 33.69 S 173.69 29.08, 175.00 28.35 S 178.83 29.06, 180.00 28.12 S 184.27 19.09, 185.00 20.40 S 188.77 45.14, 190.00 46.00 S 193.50 27.45, 195.00 27.45 S 198.67 45.32, 200.00 46.00 S 204.48 33.98, 205.00 32.57"
        fill="none">
        <animate attributeName="stroke-dashoffset"
            from="421.05830758901095" to="0" dur="2.2s"/>
        <animate attributeName="stroke-dasharray"
            from="421.05830758901095" to="421.05830758901095"/>
    </path>
    <circle r="4" cx="5" cy="46" fill="#3023AE"/>
    <circle r="4" cx="205" cy="32.57228662548333" fill="#C86DD7" opacity="0">
        <animate attributeName="opacity"
            from="0" to="1" dur="0.1s" begin="2.2s" fill="freeze"/>
    </circle>
</svg>