<svg width="200" height="50" viewBox="0 0 210 50" xmlns="http://www.w3.org/2000/svg">
    <!-- 126 stargazers -->
    <!-- created at Sun Mar 15 2026 10:01:45 GMT+0000 (Coordinated Universal Time) -->
    <defs>
        <linearGradient id="stroke" x1="0%" y1="0%" x2="100%" y2="0%">
            <stop stop-color="#3023AE" offset="0%"/>
            <stop stop-color="#C86DD7" offset="100%"/>
        </linearGradient>
    </defs>
    <path stroke="url(#stroke)"
        stroke-width="3"
        stroke-linejoin="round"
        stroke-linecap="round"
        d="M5.00 46.0001 C 5.34 44.54, 8.97 25.57, 10.00 24.48 S 13.99 34.34, 15.00 35.44 S 18.61 34.87, 20.00 35.43 S 23.50 39.36, 25.00 39.47 S 28.54 36.56, 30.00 36.21 S 33.53 36.74, 35.00 37.06 S 38.59 38.86, 40.00 38.34 S 43.50 33.44, 45.00 33.34 S 48.54 38.01, 50.00 37.67 S 53.50 31.11, 55.00 31.02 S 59.17 35.80, 60.00 37.04 S 63.88 45.00, 65.00 46.00 S 68.77 46.86, 70.00 46.00 S 73.78 39.93, 75.00 39.06 S 78.58 39.35, 80.00 38.87 S 83.78 34.78, 85.00 35.65 S 88.96 44.92, 90.00 46.00 S 93.50 46.00, 95.00 46.00 S 98.50 46.00, 100.00 46.00 S 104.02 47.13, 105.00 46.00 S 108.50 34.43, 110.00 34.43 S 114.02 44.87, 115.00 46.00 S 119.53 47.42, 120.00 46.00 S 124.18 17.25, 125.00 16.00 S 129.15 29.50, 130.00 30.73 S 133.56 30.90, 135.00 30.47 S 138.50 27.85, 140.00 27.77 S 143.65 29.30, 145.00 29.96 S 148.55 32.33, 150.00 32.70 S 153.59 31.99, 155.00 32.50 S 158.59 35.80, 160.00 36.32 S 163.63 36.78, 165.00 36.18 S 168.50 31.96, 170.00 31.92 S 173.59 36.42, 175.00 35.91 S 178.50 28.33, 180.00 28.29 S 183.50 35.71, 185.00 35.65 S 188.64 28.48, 190.00 27.84 S 193.80 30.10, 195.00 30.99 S 198.50 35.32, 200.00 35.26 S 203.90 31.66, 205.00 30.64"
        fill="none">
        <animate attributeName="stroke-dashoffset"
            from="332.39120344314523" to="0" dur="2.2s"/>
        <animate attributeName="stroke-dasharray"
            from="332.39120344314523" to="332.39120344314523"/>
    </path>
    <circle r="4" cx="5" cy="46" fill="#3023AE"/>
    <circle r="4" cx="205" cy="30.640973706345513" fill="#C86DD7" opacity="0">
        <animate attributeName="opacity"
            from="0" to="1" dur="0.1s" begin="2.2s" fill="freeze"/>
    </circle>
</svg>