<svg width="200" height="50" viewBox="0 0 210 50" xmlns="http://www.w3.org/2000/svg">
    <!-- 163 stargazers -->
    <!-- created at Wed May 13 2026 19:54:47 GMT+0000 (Coordinated Universal Time) -->
    <defs>
        <linearGradient id="stroke" x1="0%" y1="0%" x2="100%" y2="0%">
            <stop stop-color="#3023AE" offset="0%"/>
            <stop stop-color="#C86DD7" offset="100%"/>
        </linearGradient>
    </defs>
    <path stroke="url(#stroke)"
        stroke-width="3"
        stroke-linejoin="round"
        stroke-linecap="round"
        d="M5.00 46.0001 C 5.27 44.53, 9.14 20.33, 10.00 19.10 S 14.23 30.54, 15.00 31.83 S 18.50 35.67, 20.00 35.78 S 23.67 33.30, 25.00 32.61 S 28.60 31.20, 30.00 30.66 S 33.88 27.70, 35.00 28.70 S 38.82 38.66, 40.00 39.58 S 43.58 37.01, 45.00 36.52 S 48.91 35.10, 50.00 36.13 S 53.50 46.11, 55.00 46.00 S 59.53 36.82, 60.00 35.39 S 64.10 17.20, 65.00 16.00 S 69.02 20.91, 70.00 22.04 S 73.90 26.60, 75.00 27.62 S 78.51 31.22, 80.00 31.38 S 83.67 29.37, 85.00 28.67 S 88.51 26.27, 90.00 26.15 S 94.33 26.48, 95.00 27.82 S 98.65 45.36, 100.00 46.00 S 104.23 33.86, 105.00 32.57 S 108.73 30.02, 110.00 29.22 S 113.75 25.40, 115.00 26.24 S 118.67 35.23, 120.00 35.93 S 123.83 32.43, 125.00 31.50 S 128.76 28.76, 130.00 27.92 S 133.56 24.36, 135.00 24.77 S 138.95 29.66, 140.00 30.74 S 143.61 34.46, 145.00 35.03 S 149.02 36.00, 150.00 34.86 S 153.66 24.07, 155.00 23.39 S 158.72 28.99, 160.00 29.78 S 163.50 29.62, 165.00 29.55 S 169.22 28.04, 170.00 29.32 S 173.64 45.38, 175.00 46.00 S 179.05 35.05, 180.00 33.89 S 183.50 33.78, 185.00 33.74 S 189.05 32.42, 190.00 33.59 S 194.06 44.83, 195.00 46.00 S 199.28 47.31, 200.00 46.00 S 204.60 29.26, 205.00 27.81"
        fill="none">
        <animate attributeName="stroke-dashoffset"
            from="376.2329732269705" to="0" dur="2.2s"/>
        <animate attributeName="stroke-dasharray"
            from="376.2329732269705" to="376.2329732269705"/>
    </path>
    <circle r="4" cx="5" cy="46" fill="#3023AE"/>
    <circle r="4" cx="205" cy="27.81137977449741" fill="#C86DD7" opacity="0">
        <animate attributeName="opacity"
            from="0" to="1" dur="0.1s" begin="2.2s" fill="freeze"/>
    </circle>
</svg>