<svg width="200" height="50" viewBox="0 0 210 50" xmlns="http://www.w3.org/2000/svg">
    <!-- 159 stargazers -->
    <!-- created at Tue May 05 2026 13:09:26 GMT+0000 (Coordinated Universal Time) -->
    <defs>
        <linearGradient id="stroke" x1="0%" y1="0%" x2="100%" y2="0%">
            <stop stop-color="#3023AE" offset="0%"/>
            <stop stop-color="#C86DD7" offset="100%"/>
        </linearGradient>
    </defs>
    <path stroke="url(#stroke)"
        stroke-width="3"
        stroke-linejoin="round"
        stroke-linecap="round"
        d="M5.00 46.0001 C 5.28 44.53, 9.12 21.12, 10.00 19.91 S 14.21 30.97, 15.00 32.25 S 18.53 35.81, 20.00 36.09 S 23.66 34.81, 25.00 34.15 S 28.65 31.78, 30.00 31.12 S 33.72 28.44, 35.00 29.22 S 38.95 36.12, 40.00 37.20 S 43.56 39.92, 45.00 39.50 S 48.74 33.46, 50.00 34.27 S 53.63 45.39, 55.00 46.00 S 58.80 39.63, 60.00 38.73 S 64.40 39.86, 65.00 38.49 S 69.11 17.21, 70.00 16.00 S 73.94 23.85, 75.00 24.91 S 78.74 25.12, 80.00 25.94 S 83.82 30.52, 85.00 31.44 S 88.67 34.51, 90.00 33.82 S 93.71 27.05, 95.00 26.29 S 98.60 27.44, 100.00 27.97 S 103.86 29.07, 105.00 30.05 S 108.73 35.80, 110.00 36.60 S 113.80 37.32, 115.00 36.41 S 118.96 30.16, 120.00 29.08 S 123.76 25.26, 125.00 26.10 S 128.92 34.84, 130.00 35.88 S 133.64 36.34, 135.00 35.70 S 139.11 32.40, 140.00 31.19 S 143.61 21.66, 145.00 22.22 S 148.84 34.24, 150.00 35.20 S 153.50 30.54, 155.00 30.49 S 158.62 34.29, 160.00 34.88 S 163.87 35.70, 165.00 34.72 S 168.87 27.18, 170.00 26.19 S 173.83 24.98, 175.00 25.92 S 178.84 33.31, 180.00 34.26 S 183.67 34.81, 185.00 34.11 S 189.03 27.82, 190.00 28.97 S 193.64 45.36, 195.00 46.00 S 198.50 33.67, 200.00 33.67 S 204.44 44.61, 205.00 46.00"
        fill="none">
        <animate attributeName="stroke-dashoffset"
            from="363.31693830782973" to="0" dur="2.2s"/>
        <animate attributeName="stroke-dasharray"
            from="363.31693830782973" to="363.31693830782973"/>
    </path>
    <circle r="4" cx="5" cy="46" fill="#3023AE"/>
    <circle r="4" cx="205" cy="46" fill="#C86DD7" opacity="0">
        <animate attributeName="opacity"
            from="0" to="1" dur="0.1s" begin="2.2s" fill="freeze"/>
    </circle>
</svg>