<svg width="200" height="50" viewBox="0 0 210 50" xmlns="http://www.w3.org/2000/svg">
    <!-- 158 stargazers -->
    <!-- created at Wed Apr 29 2026 12:34:08 GMT+0000 (Coordinated Universal Time) -->
    <defs>
        <linearGradient id="stroke" x1="0%" y1="0%" x2="100%" y2="0%">
            <stop stop-color="#3023AE" offset="0%"/>
            <stop stop-color="#C86DD7" offset="100%"/>
        </linearGradient>
    </defs>
    <path stroke="url(#stroke)"
        stroke-width="3"
        stroke-linejoin="round"
        stroke-linecap="round"
        d="M5.00 46.0001 C 5.29 44.53, 9.13 22.20, 10.00 20.98 S 14.18 30.66, 15.00 31.92 S 18.55 36.00, 20.00 36.37 S 23.55 34.86, 25.00 34.48 S 28.59 34.30, 30.00 33.78 S 33.51 30.94, 35.00 30.75 S 39.18 31.22, 40.00 32.48 S 43.62 45.42, 45.00 46.00 S 48.92 37.74, 50.00 36.70 S 53.90 35.32, 55.00 36.34 S 58.50 46.10, 60.00 46.00 S 63.50 35.67, 65.00 35.67 S 69.32 47.34, 70.00 46.00 S 74.42 17.38, 75.00 16.00 S 79.11 20.91, 80.00 22.12 S 83.91 28.64, 85.00 29.67 S 88.82 30.58, 90.00 31.50 S 93.66 38.11, 95.00 37.43 S 98.90 27.44, 100.00 26.41 S 103.51 27.91, 105.00 28.10 S 109.27 26.42, 110.00 27.73 S 113.87 45.01, 115.00 46.00 S 119.11 37.72, 120.00 36.51 S 123.80 33.23, 125.00 32.33 S 128.59 29.47, 130.00 28.96 S 133.76 27.82, 135.00 28.67 S 138.77 34.97, 140.00 35.83 S 143.64 36.30, 145.00 35.66 S 148.99 32.26, 150.00 31.16 S 153.50 24.76, 155.00 24.69 S 158.70 29.96, 160.00 30.71 S 164.18 29.24, 165.00 30.49 S 168.50 46.06, 170.00 46.00 S 173.50 30.07, 175.00 30.07 S 178.61 46.57, 180.00 46.00 S 184.34 27.33, 185.00 25.98 S 188.84 24.78, 190.00 25.73 S 193.84 33.20, 195.00 34.16 S 198.67 34.72, 200.00 34.02 S 203.96 29.93, 205.00 28.86"
        fill="none">
        <animate attributeName="stroke-dashoffset"
            from="404.89089314725015" to="0" dur="2.2s"/>
        <animate attributeName="stroke-dasharray"
            from="404.89089314725015" to="404.89089314725015"/>
    </path>
    <circle r="4" cx="5" cy="46" fill="#3023AE"/>
    <circle r="4" cx="205" cy="28.855514823212353" fill="#C86DD7" opacity="0">
        <animate attributeName="opacity"
            from="0" to="1" dur="0.1s" begin="2.2s" fill="freeze"/>
    </circle>
</svg>