<svg width="200" height="50" viewBox="0 0 210 50" xmlns="http://www.w3.org/2000/svg">
    <!-- 139 stargazers -->
    <!-- created at Wed Apr 08 2026 11:16:55 GMT+0000 (Coordinated Universal Time) -->
    <defs>
        <linearGradient id="stroke" x1="0%" y1="0%" x2="100%" y2="0%">
            <stop stop-color="#3023AE" offset="0%"/>
            <stop stop-color="#C86DD7" offset="100%"/>
        </linearGradient>
    </defs>
    <path stroke="url(#stroke)"
        stroke-width="3"
        stroke-linejoin="round"
        stroke-linecap="round"
        d="M5.00 46.0001 C 5.29 44.53, 9.15 21.68, 10.00 20.45 S 14.29 30.11, 15.00 31.43 S 18.52 38.73, 20.00 38.95 S 23.51 33.08, 25.00 32.94 S 28.52 38.23, 30.00 38.00 S 33.56 31.80, 35.00 31.39 S 38.55 35.55, 40.00 35.16 S 43.61 28.14, 45.00 28.70 S 49.25 37.89, 50.00 39.19 S 53.59 46.50, 55.00 46.00 S 58.98 36.75, 60.00 35.66 S 63.96 34.24, 65.00 35.31 S 68.98 44.90, 70.00 46.00 S 74.02 47.14, 75.00 46.00 S 78.50 34.35, 80.00 34.35 S 84.28 47.32, 85.00 46.00 S 89.37 17.36, 90.00 16.00 S 94.03 23.14, 95.00 24.29 S 98.70 27.13, 100.00 27.87 S 103.50 30.08, 105.00 29.96 S 108.54 26.75, 110.00 27.10 S 113.89 31.36, 115.00 32.37 S 118.59 36.70, 120.00 36.18 S 123.82 29.60, 125.00 28.67 S 128.50 28.46, 130.00 28.37 S 133.50 28.15, 135.00 28.06 S 138.79 26.89, 140.00 27.77 S 144.28 33.99, 145.00 35.30 S 148.50 46.05, 150.00 46.00 S 154.00 36.09, 155.00 34.97 S 158.50 34.86, 160.00 34.81 S 163.66 35.33, 165.00 34.65 S 168.67 30.42, 170.00 29.73 S 173.62 30.09, 175.00 29.51 S 179.22 24.26, 180.00 25.54 S 184.34 44.65, 185.00 46.00 S 189.25 47.30, 190.00 46.00 S 194.06 29.83, 195.00 28.67 S 198.65 32.95, 200.00 33.60 S 203.50 33.50, 205.00 33.45"
        fill="none">
        <animate attributeName="stroke-dashoffset"
            from="382.692500261583" to="0" dur="2.2s"/>
        <animate attributeName="stroke-dasharray"
            from="382.692500261583" to="382.692500261583"/>
    </path>
    <circle r="4" cx="5" cy="46" fill="#3023AE"/>
    <circle r="4" cx="205" cy="33.45472780807555" fill="#C86DD7" opacity="0">
        <animate attributeName="opacity"
            from="0" to="1" dur="0.1s" begin="2.2s" fill="freeze"/>
    </circle>
</svg>