<svg width="200" height="50" viewBox="0 0 210 50" xmlns="http://www.w3.org/2000/svg">
    <!-- 144 stargazers -->
    <!-- created at Sat Apr 11 2026 11:30:34 GMT+0000 (Coordinated Universal Time) -->
    <defs>
        <linearGradient id="stroke" x1="0%" y1="0%" x2="100%" y2="0%">
            <stop stop-color="#3023AE" offset="0%"/>
            <stop stop-color="#C86DD7" offset="100%"/>
        </linearGradient>
    </defs>
    <path stroke="url(#stroke)"
        stroke-width="3"
        stroke-linejoin="round"
        stroke-linecap="round"
        d="M5.00 46.0001 C 5.32 44.53, 9.09 24.33, 10.00 23.14 S 14.22 31.68, 15.00 32.96 S 18.51 39.50, 20.00 39.70 S 23.54 34.68, 25.00 34.32 S 28.51 37.44, 30.00 37.24 S 33.60 33.46, 35.00 32.93 S 38.51 33.28, 40.00 33.48 S 43.74 33.49, 45.00 34.30 S 48.68 39.20, 50.00 39.91 S 53.57 40.13, 55.00 39.68 S 58.50 36.81, 60.00 36.75 S 63.90 38.22, 65.00 39.24 S 68.76 45.16, 70.00 46.00 S 73.96 47.08, 75.00 46.00 S 78.50 35.58, 80.00 35.58 S 84.32 47.34, 85.00 46.00 S 89.31 17.33, 90.00 16.00 S 94.12 25.36, 95.00 26.58 S 98.56 29.37, 100.00 29.79 S 103.62 28.85, 105.00 29.44 S 108.83 33.11, 110.00 34.04 S 113.57 37.84, 115.00 37.38 S 118.76 31.63, 120.00 30.78 S 123.50 30.59, 125.00 30.50 S 128.50 30.31, 130.00 30.23 S 133.73 29.15, 135.00 29.96 S 139.21 35.31, 140.00 36.58 S 143.50 46.04, 145.00 46.00 S 148.93 37.34, 150.00 36.28 S 153.50 36.18, 155.00 36.14 S 158.81 36.91, 160.00 35.99 S 163.82 29.35, 165.00 28.42 S 168.78 27.31, 170.00 28.18 S 174.27 34.27, 175.00 35.57 S 178.50 46.04, 180.00 46.00 S 184.18 36.56, 185.00 35.30 S 188.50 30.72, 190.00 30.68 S 193.76 35.89, 195.00 35.04 S 198.50 23.85, 200.00 23.82 S 204.38 33.41, 205.00 34.78"
        fill="none">
        <animate attributeName="stroke-dashoffset"
            from="351.4975233323657" to="0" dur="2.2s"/>
        <animate attributeName="stroke-dasharray"
            from="351.4975233323657" to="351.4975233323657"/>
    </path>
    <circle r="4" cx="5" cy="46" fill="#3023AE"/>
    <circle r="4" cx="205" cy="34.77916743305185" fill="#C86DD7" opacity="0">
        <animate attributeName="opacity"
            from="0" to="1" dur="0.1s" begin="2.2s" fill="freeze"/>
    </circle>
</svg>