<svg width="200" height="50" viewBox="0 0 210 50" xmlns="http://www.w3.org/2000/svg">
    <!-- 127 stargazers -->
    <!-- created at Wed Mar 18 2026 10:03:16 GMT+0000 (Coordinated Universal Time) -->
    <defs>
        <linearGradient id="stroke" x1="0%" y1="0%" x2="100%" y2="0%">
            <stop stop-color="#3023AE" offset="0%"/>
            <stop stop-color="#C86DD7" offset="100%"/>
        </linearGradient>
    </defs>
    <path stroke="url(#stroke)"
        stroke-width="3"
        stroke-linejoin="round"
        stroke-linecap="round"
        d="M5.00 46.0001 C 5.33 44.54, 9.02 25.22, 10.00 24.09 S 14.04 33.35, 15.00 34.51 S 18.65 35.52, 20.00 36.18 S 23.51 39.55, 25.00 39.35 S 28.50 34.97, 30.00 34.85 S 33.52 38.33, 35.00 38.56 S 38.61 37.01, 40.00 36.44 S 43.60 35.01, 45.00 34.47 S 48.51 32.72, 50.00 32.58 S 53.77 32.68, 55.00 33.54 S 59.06 38.38, 60.00 39.55 S 63.74 45.19, 65.00 46.00 S 68.94 47.06, 70.00 46.00 S 73.95 37.08, 75.00 36.01 S 78.94 34.67, 80.00 35.73 S 83.95 44.93, 85.00 46.00 S 88.50 46.00, 90.00 46.00 S 93.50 46.00, 95.00 46.00 S 99.02 47.13, 100.00 46.00 S 103.50 34.45, 105.00 34.45 S 109.02 44.87, 110.00 46.00 S 114.53 47.42, 115.00 46.00 S 119.18 17.26, 120.00 16.00 S 124.04 29.57, 125.00 30.72 S 128.67 28.73, 130.00 28.05 S 133.87 24.60, 135.00 25.59 S 138.61 36.15, 140.00 36.72 S 143.62 30.26, 145.00 29.67 S 148.75 31.63, 150.00 32.46 S 153.50 36.34, 155.00 36.28 S 158.92 31.01, 160.00 32.05 S 163.59 46.51, 165.00 46.00 S 169.15 29.67, 170.00 28.44 S 173.50 31.54, 175.00 31.47 S 178.50 28.02, 180.00 27.97 S 183.79 30.20, 185.00 31.09 S 188.50 35.38, 190.00 35.32 S 193.50 30.76, 195.00 30.72 S 199.18 33.81, 200.00 35.07 S 204.38 44.64, 205.00 46.00"
        fill="none">
        <animate attributeName="stroke-dashoffset"
            from="358.83634079080053" to="0" dur="2.2s"/>
        <animate attributeName="stroke-dasharray"
            from="358.83634079080053" to="358.83634079080053"/>
    </path>
    <circle r="4" cx="5" cy="46" fill="#3023AE"/>
    <circle r="4" cx="205" cy="46" fill="#C86DD7" opacity="0">
        <animate attributeName="opacity"
            from="0" to="1" dur="0.1s" begin="2.2s" fill="freeze"/>
    </circle>
</svg>