<svg width="200" height="50" viewBox="0 0 210 50" xmlns="http://www.w3.org/2000/svg">
    <!-- 137 stargazers -->
    <!-- created at Sun Apr 05 2026 11:16:41 GMT+0000 (Coordinated Universal Time) -->
    <defs>
        <linearGradient id="stroke" x1="0%" y1="0%" x2="100%" y2="0%">
            <stop stop-color="#3023AE" offset="0%"/>
            <stop stop-color="#C86DD7" offset="100%"/>
        </linearGradient>
    </defs>
    <path stroke="url(#stroke)"
        stroke-width="3"
        stroke-linejoin="round"
        stroke-linecap="round"
        d="M5.00 46.0001 C 5.32 44.53, 9.09 24.08, 10.00 22.89 S 14.23 31.53, 15.00 32.82 S 18.65 38.97, 20.00 39.63 S 23.66 38.33, 25.00 37.65 S 28.54 34.91, 30.00 34.56 S 33.50 35.19, 35.00 35.21 S 38.65 35.33, 40.00 34.68 S 43.55 29.97, 45.00 30.35 S 49.19 36.03, 50.00 37.29 S 53.53 45.69, 55.00 46.00 S 59.03 40.53, 60.00 39.38 S 63.75 33.34, 65.00 34.16 S 69.03 44.85, 70.00 46.00 S 73.50 46.00, 75.00 46.00 S 78.98 47.10, 80.00 46.00 S 83.50 35.19, 85.00 35.19 S 89.31 47.33, 90.00 46.00 S 94.22 17.28, 95.00 16.00 S 98.82 28.68, 100.00 29.60 S 103.62 23.25, 105.00 23.84 S 108.77 33.05, 110.00 33.91 S 113.57 30.44, 115.00 30.90 S 118.72 36.34, 120.00 37.12 S 123.77 37.82, 125.00 36.95 S 128.78 30.92, 130.00 30.05 S 133.50 29.86, 135.00 29.78 S 138.50 29.59, 140.00 29.51 S 143.75 28.41, 145.00 29.24 S 149.23 34.89, 150.00 36.18 S 153.50 46.04, 155.00 46.00 S 158.50 35.88, 160.00 35.88 S 163.50 46.04, 165.00 46.00 S 168.97 36.68, 170.00 35.60 S 173.83 36.40, 175.00 35.46 S 178.65 28.14, 180.00 27.50 S 183.56 30.27, 185.00 30.70 S 189.18 29.26, 190.00 30.51 S 194.19 44.74, 195.00 46.00 S 199.21 47.27, 200.00 46.00 S 204.55 31.39, 205.00 29.95"
        fill="none">
        <animate attributeName="stroke-dashoffset"
            from="381.47879704573666" to="0" dur="2.2s"/>
        <animate attributeName="stroke-dasharray"
            from="381.47879704573666" to="381.47879704573666"/>
    </path>
    <circle r="4" cx="5" cy="46" fill="#3023AE"/>
    <circle r="4" cx="205" cy="29.953137061390642" fill="#C86DD7" opacity="0">
        <animate attributeName="opacity"
            from="0" to="1" dur="0.1s" begin="2.2s" fill="freeze"/>
    </circle>
</svg>