<svg width="200" height="50" viewBox="0 0 210 50" xmlns="http://www.w3.org/2000/svg">
    <!-- 163 stargazers -->
    <!-- created at Sat May 16 2026 20:10:34 GMT+0000 (Coordinated Universal Time) -->
    <defs>
        <linearGradient id="stroke" x1="0%" y1="0%" x2="100%" y2="0%">
            <stop stop-color="#3023AE" offset="0%"/>
            <stop stop-color="#C86DD7" offset="100%"/>
        </linearGradient>
    </defs>
    <path stroke="url(#stroke)"
        stroke-width="3"
        stroke-linejoin="round"
        stroke-linecap="round"
        d="M5.00 46.0001 C 5.30 44.53, 9.08 22.63, 10.00 21.45 S 14.09 31.87, 15.00 33.06 S 18.52 34.31, 20.00 34.58 S 23.52 35.07, 25.00 34.84 S 28.69 33.76, 30.00 33.03 S 34.08 28.06, 35.00 29.25 S 38.63 45.38, 40.00 46.00 S 43.50 33.76, 45.00 33.76 S 48.69 45.26, 50.00 46.00 S 53.76 40.23, 55.00 39.39 S 59.41 40.53, 60.00 39.15 S 64.06 17.17, 65.00 16.00 S 69.10 25.52, 70.00 26.71 S 73.85 28.26, 75.00 29.23 S 78.55 35.48, 80.00 35.10 S 83.88 27.63, 85.00 26.63 S 88.99 25.03, 90.00 26.15 S 94.01 36.58, 95.00 37.70 S 98.61 38.07, 100.00 37.52 S 104.01 34.87, 105.00 33.74 S 108.50 26.30, 110.00 26.22 S 113.76 32.40, 115.00 33.24 S 118.50 33.07, 120.00 33.00 S 123.85 33.72, 125.00 32.76 S 128.50 24.76, 130.00 24.69 S 134.36 30.94, 135.00 32.29 S 138.50 46.07, 140.00 46.00 S 144.34 33.19, 145.00 31.84 S 148.50 25.73, 150.00 25.67 S 153.69 30.68, 155.00 31.41 S 158.50 31.26, 160.00 31.19 S 164.16 29.74, 165.00 30.98 S 168.61 45.43, 170.00 46.00 S 174.19 36.35, 175.00 35.09 S 178.99 29.26, 180.00 30.37 S 184.19 44.74, 185.00 46.00 S 189.21 47.28, 190.00 46.00 S 193.50 29.78, 195.00 29.78 S 199.21 44.72, 200.00 46.00 S 203.50 46.00, 205.00 46.00"
        fill="none">
        <animate attributeName="stroke-dashoffset"
            from="407.7684738477759" to="0" dur="2.2s"/>
        <animate attributeName="stroke-dasharray"
            from="407.7684738477759" to="407.7684738477759"/>
    </path>
    <circle r="4" cx="5" cy="46" fill="#3023AE"/>
    <circle r="4" cx="205" cy="46" fill="#C86DD7" opacity="0">
        <animate attributeName="opacity"
            from="0" to="1" dur="0.1s" begin="2.2s" fill="freeze"/>
    </circle>
</svg>