<svg width="200" height="50" viewBox="0 0 210 50" xmlns="http://www.w3.org/2000/svg">
    <!-- 158 stargazers -->
    <!-- created at Sat May 02 2026 13:02:56 GMT+0000 (Coordinated Universal Time) -->
    <defs>
        <linearGradient id="stroke" x1="0%" y1="0%" x2="100%" y2="0%">
            <stop stop-color="#3023AE" offset="0%"/>
            <stop stop-color="#C86DD7" offset="100%"/>
        </linearGradient>
    </defs>
    <path stroke="url(#stroke)"
        stroke-width="3"
        stroke-linejoin="round"
        stroke-linecap="round"
        d="M5.00 46.0001 C 5.26 44.52, 9.21 18.48, 10.00 17.21 S 14.26 28.49, 15.00 29.80 S 18.56 34.50, 20.00 34.92 S 23.69 33.48, 25.00 32.75 S 28.56 29.79, 30.00 29.36 S 33.55 29.36, 35.00 29.75 S 39.21 30.81, 40.00 32.08 S 43.51 46.18, 45.00 46.00 S 48.50 30.86, 50.00 30.86 S 54.17 44.75, 55.00 46.00 S 59.03 47.15, 60.00 46.00 S 64.53 35.54, 65.00 34.12 S 68.94 17.06, 70.00 16.00 S 73.70 23.42, 75.00 24.17 S 78.51 21.65, 80.00 21.77 S 83.97 23.90, 85.00 24.99 S 88.51 32.19, 90.00 32.38 S 93.88 27.29, 95.00 26.29 S 98.53 23.19, 100.00 23.46 S 104.04 27.01, 105.00 28.17 S 108.78 34.62, 110.00 35.49 S 113.65 35.95, 115.00 35.28 S 118.86 31.53, 120.00 30.55 S 123.62 27.31, 125.00 26.74 S 128.81 25.47, 130.00 26.39 S 133.82 33.56, 135.00 34.49 S 138.67 35.00, 140.00 34.30 S 144.18 30.44, 145.00 29.18 S 148.64 18.37, 150.00 19.00 S 153.91 32.71, 155.00 33.74 S 159.05 27.25, 160.00 28.41 S 163.50 46.07, 165.00 46.00 S 169.39 29.28, 170.00 27.91 S 173.66 22.88, 175.00 23.55 S 178.50 32.96, 180.00 32.87 S 183.50 23.02, 185.00 22.97 S 188.60 32.01, 190.00 32.54 S 194.11 25.52, 195.00 26.73 S 199.31 44.67, 200.00 46.00 S 203.50 46.00, 205.00 46.00"
        fill="none">
        <animate attributeName="stroke-dashoffset"
            from="409.0699084723981" to="0" dur="2.2s"/>
        <animate attributeName="stroke-dasharray"
            from="409.0699084723981" to="409.0699084723981"/>
    </path>
    <circle r="4" cx="5" cy="46" fill="#3023AE"/>
    <circle r="4" cx="205" cy="46" fill="#C86DD7" opacity="0">
        <animate attributeName="opacity"
            from="0" to="1" dur="0.1s" begin="2.2s" fill="freeze"/>
    </circle>
</svg>