<svg width="200" height="50" viewBox="0 0 210 50" xmlns="http://www.w3.org/2000/svg">
    <!-- 136 stargazers -->
    <!-- created at Mon Mar 30 2026 11:12:18 GMT+0000 (Coordinated Universal Time) -->
    <defs>
        <linearGradient id="stroke" x1="0%" y1="0%" x2="100%" y2="0%">
            <stop stop-color="#3023AE" offset="0%"/>
            <stop stop-color="#C86DD7" offset="100%"/>
        </linearGradient>
    </defs>
    <path stroke="url(#stroke)"
        stroke-width="3"
        stroke-linejoin="round"
        stroke-linecap="round"
        d="M5.00 46.0001 C 5.29 44.53, 9.05 21.66, 10.00 20.50 S 14.19 32.57, 15.00 33.83 S 18.52 35.83, 20.00 36.06 S 23.55 35.75, 25.00 35.36 S 28.50 33.33, 30.00 33.38 S 33.50 35.67, 35.00 35.69 S 38.62 34.10, 40.00 33.51 S 43.51 31.57, 45.00 31.41 S 48.80 31.51, 50.00 32.41 S 54.11 37.74, 55.00 38.95 S 58.59 46.51, 60.00 46.00 S 63.99 36.45, 65.00 35.34 S 68.97 33.91, 70.00 35.01 S 73.99 44.89, 75.00 46.00 S 78.50 46.00, 80.00 46.00 S 84.05 47.16, 85.00 46.00 S 88.50 33.78, 90.00 33.78 S 94.26 47.31, 95.00 46.00 S 99.29 17.32, 100.00 16.00 S 103.88 26.52, 105.00 27.52 S 108.56 25.35, 110.00 24.91 S 113.61 23.92, 115.00 24.49 S 118.79 28.13, 120.00 29.02 S 123.76 31.04, 125.00 31.88 S 128.50 35.91, 130.00 35.84 S 133.64 32.02, 135.00 31.39 S 138.60 31.69, 140.00 31.14 S 143.91 28.54, 145.00 27.51 S 148.80 20.86, 150.00 21.76 S 153.85 34.03, 155.00 35.00 S 158.50 30.26, 160.00 30.21 S 164.20 33.41, 165.00 34.68 S 169.01 44.88, 170.00 46.00 S 174.03 47.14, 175.00 46.00 S 179.04 35.36, 180.00 34.21 S 183.50 34.11, 185.00 34.06 S 188.68 34.62, 190.00 33.92 S 193.68 29.42, 195.00 28.70 S 198.50 28.56, 200.00 28.50 S 203.50 28.36, 205.00 28.30"
        fill="none">
        <animate attributeName="stroke-dashoffset"
            from="348.01836367483133" to="0" dur="2.2s"/>
        <animate attributeName="stroke-dasharray"
            from="348.01836367483133" to="348.01836367483133"/>
    </path>
    <circle r="4" cx="5" cy="46" fill="#3023AE"/>
    <circle r="4" cx="205" cy="28.29572548596289" fill="#C86DD7" opacity="0">
        <animate attributeName="opacity"
            from="0" to="1" dur="0.1s" begin="2.2s" fill="freeze"/>
    </circle>
</svg>