<svg width="200" height="50" viewBox="0 0 210 50" xmlns="http://www.w3.org/2000/svg">
    <!-- 161 stargazers -->
    <!-- created at Mon May 11 2026 13:58:11 GMT+0000 (Coordinated Universal Time) -->
    <defs>
        <linearGradient id="stroke" x1="0%" y1="0%" x2="100%" y2="0%">
            <stop stop-color="#3023AE" offset="0%"/>
            <stop stop-color="#C86DD7" offset="100%"/>
        </linearGradient>
    </defs>
    <path stroke="url(#stroke)"
        stroke-width="3"
        stroke-linejoin="round"
        stroke-linecap="round"
        d="M5.00 46.0001 C 5.25 44.52, 9.20 17.27, 10.00 16.00 S 14.29 28.87, 15.00 30.19 S 18.51 34.47, 20.00 34.60 S 23.70 31.81, 25.00 31.07 S 28.63 29.48, 30.00 28.89 S 33.94 25.65, 35.00 26.71 S 38.87 37.86, 40.00 38.84 S 43.60 35.96, 45.00 35.43 S 48.97 33.90, 50.00 34.99 S 53.51 46.12, 55.00 46.00 S 59.52 35.59, 60.00 34.17 S 64.16 17.32, 65.00 16.07 S 68.70 18.54, 70.00 19.28 S 73.96 20.67, 75.00 21.75 S 78.97 28.60, 80.00 29.69 S 83.93 33.39, 85.00 32.33 S 88.75 20.63, 90.00 19.80 S 94.20 24.46, 95.00 25.73 S 98.92 34.59, 100.00 35.63 S 103.65 36.07, 105.00 35.41 S 109.01 31.85, 110.00 30.72 S 113.62 24.53, 115.00 23.96 S 118.97 25.45, 120.00 26.54 S 123.56 34.13, 125.00 34.56 S 129.17 30.78, 130.00 29.54 S 133.50 19.61, 135.00 19.52 S 139.14 27.75, 140.00 28.98 S 143.50 33.85, 145.00 33.77 S 149.05 27.27, 150.00 28.43 S 153.83 46.94, 155.00 46.00 S 159.28 21.73, 160.00 20.42 S 163.77 26.79, 165.00 27.65 S 168.50 27.47, 170.00 27.40 S 174.29 25.83, 175.00 27.15 S 179.30 44.67, 180.00 46.00 S 184.32 47.34, 185.00 46.00 S 189.13 27.64, 190.00 26.42 S 194.32 30.65, 195.00 31.98 S 199.13 44.78, 200.00 46.00 S 203.50 46.00, 205.00 46.00"
        fill="none">
        <animate attributeName="stroke-dashoffset"
            from="416.7935427054658" to="0" dur="2.2s"/>
        <animate attributeName="stroke-dasharray"
            from="416.7935427054658" to="416.7935427054658"/>
    </path>
    <circle r="4" cx="5" cy="46" fill="#3023AE"/>
    <circle r="4" cx="205" cy="46" fill="#C86DD7" opacity="0">
        <animate attributeName="opacity"
            from="0" to="1" dur="0.1s" begin="2.2s" fill="freeze"/>
    </circle>
</svg>