<svg width="200" height="50" viewBox="0 0 210 50" xmlns="http://www.w3.org/2000/svg">
    <!-- 152 stargazers -->
    <!-- created at Thu Apr 23 2026 12:18:26 GMT+0000 (Coordinated Universal Time) -->
    <defs>
        <linearGradient id="stroke" x1="0%" y1="0%" x2="100%" y2="0%">
            <stop stop-color="#3023AE" offset="0%"/>
            <stop stop-color="#C86DD7" offset="100%"/>
        </linearGradient>
    </defs>
    <path stroke="url(#stroke)"
        stroke-width="3"
        stroke-linejoin="round"
        stroke-linecap="round"
        d="M5.00 46.0001 C 5.29 44.53, 9.14 22.02, 10.00 20.79 S 14.19 30.55, 15.00 31.81 S 18.55 35.92, 20.00 36.30 S 23.50 34.37, 25.00 34.40 S 28.51 36.67, 30.00 36.46 S 33.81 33.93, 35.00 33.01 S 38.75 27.94, 40.00 28.77 S 43.97 38.54, 45.00 39.63 S 48.69 40.10, 50.00 39.37 S 53.75 33.26, 55.00 34.09 S 59.04 44.85, 60.00 46.00 S 63.98 47.10, 65.00 46.00 S 68.99 36.39, 70.00 35.28 S 74.31 36.30, 75.00 34.96 S 79.05 17.16, 80.00 16.00 S 84.09 21.54, 85.00 22.73 S 88.99 28.03, 90.00 29.14 S 93.63 33.19, 95.00 33.80 S 98.70 34.28, 100.00 33.52 S 103.83 28.91, 105.00 27.97 S 108.52 25.16, 110.00 25.43 S 113.99 28.64, 115.00 29.75 S 119.21 35.16, 120.00 36.44 S 123.63 46.61, 125.00 46.00 S 128.94 33.05, 130.00 31.98 S 133.59 36.44, 135.00 35.92 S 138.83 29.18, 140.00 28.25 S 143.78 27.09, 145.00 27.97 S 148.79 34.54, 150.00 35.43 S 153.65 35.92, 155.00 35.27 S 158.50 30.65, 160.00 30.60 S 163.92 36.00, 165.00 34.95 S 168.99 19.85, 170.00 20.96 S 173.87 45.01, 175.00 46.00 S 178.50 29.74, 180.00 29.74 S 183.50 46.06, 185.00 46.00 S 188.50 29.33, 190.00 29.33 S 193.62 46.59, 195.00 46.00 S 199.05 26.25, 200.00 25.09 S 204.25 32.49, 205.00 33.79"
        fill="none">
        <animate attributeName="stroke-dashoffset"
            from="424.13488803506476" to="0" dur="2.2s"/>
        <animate attributeName="stroke-dasharray"
            from="424.13488803506476" to="424.13488803506476"/>
    </path>
    <circle r="4" cx="5" cy="46" fill="#3023AE"/>
    <circle r="4" cx="205" cy="33.787365659816444" fill="#C86DD7" opacity="0">
        <animate attributeName="opacity"
            from="0" to="1" dur="0.1s" begin="2.2s" fill="freeze"/>
    </circle>
</svg>