<svg width="200" height="50" viewBox="0 0 210 50" xmlns="http://www.w3.org/2000/svg">
    <!-- 123 stargazers -->
    <!-- created at Thu Mar 12 2026 09:27:23 GMT+0000 (Coordinated Universal Time) -->
    <defs>
        <linearGradient id="stroke" x1="0%" y1="0%" x2="100%" y2="0%">
            <stop stop-color="#3023AE" offset="0%"/>
            <stop stop-color="#C86DD7" offset="100%"/>
        </linearGradient>
    </defs>
    <path stroke="url(#stroke)"
        stroke-width="3"
        stroke-linejoin="round"
        stroke-linecap="round"
        d="M5.00 46.0001 C 5.34 44.54, 9.02 25.37, 10.00 24.24 S 13.99 33.31, 15.00 34.42 S 18.76 34.31, 20.00 35.16 S 23.53 40.95, 25.00 41.26 S 28.78 38.16, 30.00 37.29 S 33.57 33.70, 35.00 34.15 S 38.51 40.61, 40.00 40.44 S 43.56 33.44, 45.00 33.01 S 48.50 37.38, 50.00 37.45 S 53.63 34.05, 55.00 33.45 S 58.70 32.25, 60.00 33.00 S 64.09 38.10, 65.00 39.29 S 68.75 45.16, 70.00 46.00 S 73.79 46.89, 75.00 46.00 S 78.97 39.77, 80.00 38.68 S 83.50 35.44, 85.00 35.38 S 88.97 37.21, 90.00 38.31 S 93.81 45.09, 95.00 46.00 S 98.50 46.00, 100.00 46.00 S 103.50 46.00, 105.00 46.00 S 109.04 47.16, 110.00 46.00 S 113.50 33.89, 115.00 33.89 S 119.04 44.84, 120.00 46.00 S 124.53 47.42, 125.00 46.00 S 129.28 17.32, 130.00 16.00 S 134.12 26.38, 135.00 27.60 S 138.53 29.51, 140.00 29.80 S 143.57 29.99, 145.00 29.54 S 149.22 25.42, 150.00 26.70 S 153.53 45.69, 155.00 46.00 S 159.14 30.01, 160.00 28.79 S 164.25 30.45, 165.00 31.74 S 168.59 46.52, 170.00 46.00 S 173.50 28.06, 175.00 28.06 S 178.79 45.11, 180.00 46.00 S 184.29 36.70, 185.00 35.37 S 188.50 27.41, 190.00 27.37 S 193.57 34.67, 195.00 35.11 S 198.85 31.38, 200.00 30.42 S 203.80 27.59, 205.00 26.70"
        fill="none">
        <animate attributeName="stroke-dashoffset"
            from="396.75519407491714" to="0" dur="2.2s"/>
        <animate attributeName="stroke-dasharray"
            from="396.75519407491714" to="396.75519407491714"/>
    </path>
    <circle r="4" cx="5" cy="46" fill="#3023AE"/>
    <circle r="4" cx="205" cy="26.69511802686647" fill="#C86DD7" opacity="0">
        <animate attributeName="opacity"
            from="0" to="1" dur="0.1s" begin="2.2s" fill="freeze"/>
    </circle>
</svg>