<svg width="200" height="50" viewBox="0 0 210 50" xmlns="http://www.w3.org/2000/svg">
    <!-- 128 stargazers -->
    <!-- created at Sat Mar 21 2026 10:16:21 GMT+0000 (Coordinated Universal Time) -->
    <defs>
        <linearGradient id="stroke" x1="0%" y1="0%" x2="100%" y2="0%">
            <stop stop-color="#3023AE" offset="0%"/>
            <stop stop-color="#C86DD7" offset="100%"/>
        </linearGradient>
    </defs>
    <path stroke="url(#stroke)"
        stroke-width="3"
        stroke-linejoin="round"
        stroke-linecap="round"
        d="M5.00 46.0001 C 5.33 44.54, 9.03 24.81, 10.00 23.67 S 14.05 33.12, 15.00 34.29 S 18.53 35.68, 20.00 35.99 S 23.50 36.44, 25.00 36.42 S 28.62 35.25, 30.00 35.83 S 33.51 40.80, 35.00 40.64 S 38.74 35.56, 40.00 34.75 S 43.51 34.40, 45.00 34.25 S 48.51 33.91, 50.00 33.77 S 53.69 32.56, 55.00 33.30 S 59.07 38.25, 60.00 39.43 S 63.50 46.06, 65.00 46.00 S 68.78 39.88, 70.00 39.00 S 73.58 39.29, 75.00 38.80 S 78.78 34.66, 80.00 35.53 S 83.96 44.92, 85.00 46.00 S 88.50 46.00, 90.00 46.00 S 93.84 46.95, 95.00 46.00 S 98.85 38.82, 100.00 37.86 S 103.84 36.73, 105.00 37.68 S 109.37 47.36, 110.00 46.00 S 114.26 17.31, 115.00 16.00 S 118.93 27.29, 120.00 28.35 S 123.50 26.00, 125.00 25.90 S 129.33 26.36, 130.00 27.71 S 133.50 46.09, 135.00 46.00 S 138.92 28.12, 140.00 27.08 S 143.53 36.09, 145.00 36.39 S 148.92 28.06, 150.00 29.10 S 153.55 45.61, 155.00 46.00 S 159.26 33.09, 160.00 31.79 S 163.50 28.40, 165.00 28.34 S 168.50 31.46, 170.00 31.38 S 173.61 27.30, 175.00 27.86 S 178.56 34.97, 180.00 35.39 S 183.50 30.84, 185.00 30.80 S 189.18 33.87, 190.00 35.12 S 193.98 44.90, 195.00 46.00 S 199.00 47.12, 200.00 46.00 S 204.39 36.10, 205.00 34.73"
        fill="none">
        <animate attributeName="stroke-dashoffset"
            from="382.5657323604157" to="0" dur="2.2s"/>
        <animate attributeName="stroke-dasharray"
            from="382.5657323604157" to="382.5657323604157"/>
    </path>
    <circle r="4" cx="5" cy="46" fill="#3023AE"/>
    <circle r="4" cx="205" cy="34.72859772907383" fill="#C86DD7" opacity="0">
        <animate attributeName="opacity"
            from="0" to="1" dur="0.1s" begin="2.2s" fill="freeze"/>
    </circle>
</svg>