<svg width="200" height="50" viewBox="0 0 210 50" xmlns="http://www.w3.org/2000/svg">
    <!-- 113 stargazers -->
    <!-- created at Wed Mar 04 2026 14:10:22 GMT+0000 (Coordinated Universal Time) -->
    <defs>
        <linearGradient id="stroke" x1="0%" y1="0%" x2="100%" y2="0%">
            <stop stop-color="#3023AE" offset="0%"/>
            <stop stop-color="#C86DD7" offset="100%"/>
        </linearGradient>
    </defs>
    <path stroke="url(#stroke)"
        stroke-width="3"
        stroke-linejoin="round"
        stroke-linecap="round"
        d="M5.00 46.0001 C 5.38 44.55, 9.02 28.19, 10.00 27.05 S 13.90 33.36, 15.00 34.38 S 18.79 35.38, 20.00 36.27 S 23.53 41.47, 25.00 41.75 S 28.67 38.89, 30.00 38.19 S 33.56 36.08, 35.00 36.49 S 38.53 40.70, 40.00 41.01 S 43.78 39.50, 45.00 38.63 S 48.52 33.61, 50.00 33.86 S 53.50 40.30, 55.00 40.37 S 58.74 35.15, 60.00 34.34 S 63.68 33.23, 65.00 33.95 S 69.04 38.64, 70.00 39.79 S 73.73 45.21, 75.00 46.00 S 78.50 46.00, 80.00 46.00 S 83.93 47.05, 85.00 46.00 S 88.78 37.10, 90.00 36.24 S 93.55 38.56, 95.00 38.93 S 98.78 37.91, 100.00 38.77 S 103.78 45.12, 105.00 46.00 S 108.50 46.00, 110.00 46.00 S 113.50 46.00, 115.00 46.00 S 118.50 46.00, 120.00 46.00 S 124.01 47.13, 125.00 46.00 S 128.50 34.52, 130.00 34.52 S 134.01 44.87, 135.00 46.00 S 138.50 46.00, 140.00 46.00 S 144.53 47.42, 145.00 46.00 S 149.18 17.25, 150.00 16.00 S 154.15 29.54, 155.00 30.77 S 158.54 30.20, 160.00 30.55 S 163.50 33.27, 165.00 33.21 S 168.50 30.17, 170.00 30.12 S 174.20 31.59, 175.00 32.86 S 178.58 46.48, 180.00 46.00 S 184.11 30.69, 185.00 29.48 S 189.22 31.06, 190.00 32.35 S 193.60 45.47, 195.00 46.00 S 199.13 37.34, 200.00 36.11 S 203.86 32.83, 205.00 31.85"
        fill="none">
        <animate attributeName="stroke-dashoffset"
            from="346.9605938366806" to="0" dur="2.2s"/>
        <animate attributeName="stroke-dasharray"
            from="346.9605938366806" to="346.9605938366806"/>
    </path>
    <circle r="4" cx="5" cy="46" fill="#3023AE"/>
    <circle r="4" cx="205" cy="31.85464575716071" fill="#C86DD7" opacity="0">
        <animate attributeName="opacity"
            from="0" to="1" dur="0.1s" begin="2.2s" fill="freeze"/>
    </circle>
</svg>