<svg width="200" height="50" viewBox="0 0 210 50" xmlns="http://www.w3.org/2000/svg">
    <!-- 135 stargazers -->
    <!-- created at Thu Apr 02 2026 11:14:15 GMT+0000 (Coordinated Universal Time) -->
    <defs>
        <linearGradient id="stroke" x1="0%" y1="0%" x2="100%" y2="0%">
            <stop stop-color="#3023AE" offset="0%"/>
            <stop stop-color="#C86DD7" offset="100%"/>
        </linearGradient>
    </defs>
    <path stroke="url(#stroke)"
        stroke-width="3"
        stroke-linejoin="round"
        stroke-linecap="round"
        d="M5.00 46.0001 C 5.29 44.53, 9.05 21.66, 10.00 20.50 S 14.14 32.60, 15.00 33.83 S 18.56 34.46, 20.00 34.88 S 23.52 37.01, 25.00 36.79 S 28.51 33.54, 30.00 33.38 S 33.51 35.89, 35.00 35.69 S 38.62 32.62, 40.00 32.03 S 43.50 31.35, 45.00 31.41 S 49.15 31.18, 50.00 32.41 S 54.11 44.79, 55.00 46.00 S 58.97 47.09, 60.00 46.00 S 63.99 36.45, 65.00 35.34 S 68.97 33.91, 70.00 35.01 S 73.99 44.89, 75.00 46.00 S 78.85 46.97, 80.00 46.00 S 83.87 38.55, 85.00 37.57 S 88.90 38.38, 90.00 37.36 S 94.36 29.67, 95.00 28.31 S 98.52 15.75, 100.00 16.00 S 103.66 29.32, 105.00 30.00 S 108.50 21.14, 110.00 21.05 S 114.00 28.23, 115.00 29.34 S 118.75 31.30, 120.00 32.14 S 123.59 35.50, 125.00 36.02 S 128.82 36.77, 130.00 35.84 S 133.64 28.74, 135.00 28.10 S 138.58 31.63, 140.00 31.14 S 143.61 24.09, 145.00 24.65 S 148.70 34.41, 150.00 35.16 S 153.50 30.49, 155.00 30.44 S 159.19 33.57, 160.00 34.84 S 163.50 46.05, 165.00 46.00 S 169.02 35.66, 170.00 34.52 S 173.50 34.41, 175.00 34.37 S 178.67 34.91, 180.00 34.21 S 183.67 29.82, 185.00 29.12 S 188.50 28.97, 190.00 28.91 S 193.64 28.06, 195.00 28.70 S 199.25 32.33, 200.00 33.62 S 204.44 44.61, 205.00 46.00"
        fill="none">
        <animate attributeName="stroke-dashoffset"
            from="348.31214563685154" to="0" dur="2.2s"/>
        <animate attributeName="stroke-dasharray"
            from="348.31214563685154" to="348.31214563685154"/>
    </path>
    <circle r="4" cx="5" cy="46" fill="#3023AE"/>
    <circle r="4" cx="205" cy="46" fill="#C86DD7" opacity="0">
        <animate attributeName="opacity"
            from="0" to="1" dur="0.1s" begin="2.2s" fill="freeze"/>
    </circle>
</svg>