<svg width="200" height="50" viewBox="0 0 210 50" xmlns="http://www.w3.org/2000/svg">
    <!-- 18 stargazers -->
    <!-- created at Wed Mar 04 2026 18:34:32 GMT+0000 (Coordinated Universal Time) -->
    <defs>
        <linearGradient id="stroke" x1="0%" y1="0%" x2="100%" y2="0%">
            <stop stop-color="#3023AE" offset="0%"/>
            <stop stop-color="#C86DD7" offset="100%"/>
        </linearGradient>
    </defs>
    <path stroke="url(#stroke)"
        stroke-width="3"
        stroke-linejoin="round"
        stroke-linecap="round"
        d="M5.00 46.0001 C 5.45 44.57, 9.26 31.31, 10.00 30.00 S 14.13 29.67, 15.00 28.45 S 19.26 14.70, 20.00 16.00 S 24.53 44.58, 25.00 46.00 S 29.21 47.27, 30.00 46.00 S 33.50 29.94, 35.00 29.94 S 38.88 46.99, 40.00 46.00 S 44.28 22.42, 45.00 21.10 S 49.44 26.28, 50.00 27.67 S 53.51 46.20, 55.00 46.00 S 58.50 26.31, 60.00 26.31 S 64.32 44.66, 65.00 46.00 S 68.50 46.00, 70.00 46.00 S 74.38 47.37, 75.00 46.00 S 78.50 23.82, 80.00 23.82 S 83.51 46.17, 85.00 46.00 S 88.50 22.68, 90.00 22.68 S 94.41 44.62, 95.00 46.00 S 98.50 46.00, 100.00 46.00 S 104.45 47.40, 105.00 46.00 S 109.46 21.95, 110.00 20.55 S 114.45 18.65, 115.00 20.05 S 119.46 44.60, 120.00 46.00 S 123.50 46.00, 125.00 46.00 S 128.50 46.00, 130.00 46.00 S 133.50 46.00, 135.00 46.00 S 138.50 46.00, 140.00 46.00 S 143.50 46.00, 145.00 46.00 S 148.50 46.00, 150.00 46.00 S 153.50 46.00, 155.00 46.00 S 158.50 46.00, 160.00 46.00 S 163.50 46.00, 165.00 46.00 S 168.50 46.00, 170.00 46.00 S 173.50 46.00, 175.00 46.00 S 178.50 46.00, 180.00 46.00 S 183.50 46.00, 185.00 46.00 S 188.50 46.00, 190.00 46.00 S 193.50 46.00, 195.00 46.00 S 198.50 46.00, 200.00 46.00 S 203.50 46.00, 205.00 46.00"
        fill="none">
        <animate attributeName="stroke-dashoffset"
            from="458.8707927923808" to="0" dur="2.2s"/>
        <animate attributeName="stroke-dasharray"
            from="458.8707927923808" to="458.8707927923808"/>
    </path>
    <circle r="4" cx="5" cy="46" fill="#3023AE"/>
    <circle r="4" cx="205" cy="46" fill="#C86DD7" opacity="0">
        <animate attributeName="opacity"
            from="0" to="1" dur="0.1s" begin="2.2s" fill="freeze"/>
    </circle>
</svg>