<svg width="200" height="50" viewBox="0 0 210 50" xmlns="http://www.w3.org/2000/svg">
    <!-- 18 stargazers -->
    <!-- created at Thu May 14 2026 11:33:19 GMT+0000 (Coordinated Universal Time) -->
    <defs>
        <linearGradient id="stroke" x1="0%" y1="0%" x2="100%" y2="0%">
            <stop stop-color="#3023AE" offset="0%"/>
            <stop stop-color="#C86DD7" offset="100%"/>
        </linearGradient>
    </defs>
    <path stroke="url(#stroke)"
        stroke-width="3"
        stroke-linejoin="round"
        stroke-linecap="round"
        d="M5.00 46.0001 C 5.45 44.57, 9.26 31.31, 10.00 30.00 S 14.13 29.67, 15.00 28.45 S 19.26 14.70, 20.00 16.00 S 24.16 44.76, 25.00 46.00 S 28.50 30.77, 30.00 30.77 S 34.13 47.22, 35.00 46.00 S 38.50 16.81, 40.00 16.81 S 44.51 44.58, 45.00 46.00 S 49.30 47.33, 50.00 46.00 S 53.50 26.98, 55.00 26.98 S 58.51 46.20, 60.00 46.00 S 63.50 25.66, 65.00 25.66 S 68.51 46.18, 70.00 46.00 S 73.50 24.42, 75.00 24.42 S 79.37 44.64, 80.00 46.00 S 84.41 47.38, 85.00 46.00 S 89.42 24.07, 90.00 22.68 S 94.41 20.75, 95.00 22.13 S 99.42 44.62, 100.00 46.00 S 103.50 46.00, 105.00 46.00 S 108.50 46.00, 110.00 46.00 S 113.50 46.00, 115.00 46.00 S 118.50 46.00, 120.00 46.00 S 123.50 46.00, 125.00 46.00 S 128.50 46.00, 130.00 46.00 S 133.50 46.00, 135.00 46.00 S 138.50 46.00, 140.00 46.00 S 143.50 46.00, 145.00 46.00 S 148.50 46.00, 150.00 46.00 S 153.50 46.00, 155.00 46.00 S 158.50 46.00, 160.00 46.00 S 163.50 46.00, 165.00 46.00 S 168.50 46.00, 170.00 46.00 S 173.50 46.00, 175.00 46.00 S 178.50 46.00, 180.00 46.00 S 183.50 46.00, 185.00 46.00 S 188.50 46.00, 190.00 46.00 S 193.50 46.00, 195.00 46.00 S 198.50 46.00, 200.00 46.00 S 203.50 46.00, 205.00 46.00"
        fill="none">
        <animate attributeName="stroke-dashoffset"
            from="455.92701801727685" to="0" dur="2.2s"/>
        <animate attributeName="stroke-dasharray"
            from="455.92701801727685" to="455.92701801727685"/>
    </path>
    <circle r="4" cx="5" cy="46" fill="#3023AE"/>
    <circle r="4" cx="205" cy="46" fill="#C86DD7" opacity="0">
        <animate attributeName="opacity"
            from="0" to="1" dur="0.1s" begin="2.2s" fill="freeze"/>
    </circle>
</svg>