<svg width="200" height="50" viewBox="0 0 210 50" xmlns="http://www.w3.org/2000/svg">
    <!-- 18 stargazers -->
    <!-- created at Tue Apr 07 2026 03:26:28 GMT+0000 (Coordinated Universal Time) -->
    <defs>
        <linearGradient id="stroke" x1="0%" y1="0%" x2="100%" y2="0%">
            <stop stop-color="#3023AE" offset="0%"/>
            <stop stop-color="#C86DD7" offset="100%"/>
        </linearGradient>
    </defs>
    <path stroke="url(#stroke)"
        stroke-width="3"
        stroke-linejoin="round"
        stroke-linecap="round"
        d="M5.00 46.0001 C 5.45 44.57, 9.25 31.56, 10.00 30.26 S 14.12 29.95, 15.00 28.74 S 19.25 15.19, 20.00 16.49 S 24.15 44.76, 25.00 46.00 S 28.50 31.02, 30.00 31.02 S 34.17 44.75, 35.00 46.00 S 39.53 47.42, 40.00 46.00 S 43.50 16.00, 45.00 16.00 S 49.01 44.88, 50.00 46.00 S 53.50 27.28, 55.00 27.28 S 59.29 44.68, 60.00 46.00 S 63.50 46.00, 65.00 46.00 S 69.36 47.36, 70.00 46.00 S 74.37 26.13, 75.00 24.77 S 79.36 22.83, 80.00 24.18 S 84.37 44.64, 85.00 46.00 S 88.50 46.00, 90.00 46.00 S 94.42 47.38, 95.00 46.00 S 99.43 23.38, 100.00 21.99 S 104.42 20.09, 105.00 21.47 S 109.43 44.61, 110.00 46.00 S 113.50 46.00, 115.00 46.00 S 118.50 46.00, 120.00 46.00 S 123.50 46.00, 125.00 46.00 S 128.50 46.00, 130.00 46.00 S 133.50 46.00, 135.00 46.00 S 138.50 46.00, 140.00 46.00 S 143.50 46.00, 145.00 46.00 S 148.50 46.00, 150.00 46.00 S 153.50 46.00, 155.00 46.00 S 158.50 46.00, 160.00 46.00 S 163.50 46.00, 165.00 46.00 S 168.50 46.00, 170.00 46.00 S 173.50 46.00, 175.00 46.00 S 178.50 46.00, 180.00 46.00 S 183.50 46.00, 185.00 46.00 S 188.50 46.00, 190.00 46.00 S 193.50 46.00, 195.00 46.00 S 198.50 46.00, 200.00 46.00 S 203.50 46.00, 205.00 46.00"
        fill="none">
        <animate attributeName="stroke-dashoffset"
            from="425.0099514036302" to="0" dur="2.2s"/>
        <animate attributeName="stroke-dasharray"
            from="425.0099514036302" to="425.0099514036302"/>
    </path>
    <circle r="4" cx="5" cy="46" fill="#3023AE"/>
    <circle r="4" cx="205" cy="46" fill="#C86DD7" opacity="0">
        <animate attributeName="opacity"
            from="0" to="1" dur="0.1s" begin="2.2s" fill="freeze"/>
    </circle>
</svg>