<svg width="200" height="50" viewBox="0 0 210 50" xmlns="http://www.w3.org/2000/svg">
    <!-- 18 stargazers -->
    <!-- created at Tue May 05 2026 07:29:15 GMT+0000 (Coordinated Universal Time) -->
    <defs>
        <linearGradient id="stroke" x1="0%" y1="0%" x2="100%" y2="0%">
            <stop stop-color="#3023AE" offset="0%"/>
            <stop stop-color="#C86DD7" offset="100%"/>
        </linearGradient>
    </defs>
    <path stroke="url(#stroke)"
        stroke-width="3"
        stroke-linejoin="round"
        stroke-linecap="round"
        d="M5.00 46.0001 C 5.50 44.58, 9.19 33.05, 10.00 31.78 S 14.06 31.57, 15.00 30.40 S 19.19 18.07, 20.00 19.34 S 24.09 44.81, 25.00 46.00 S 28.50 32.46, 30.00 32.46 S 33.81 46.91, 35.00 46.00 S 39.19 26.08, 40.00 24.82 S 44.36 29.00, 45.00 30.35 S 48.51 46.19, 50.00 46.00 S 53.50 29.09, 55.00 29.09 S 59.24 44.71, 60.00 46.00 S 64.29 47.32, 65.00 46.00 S 69.31 28.69, 70.00 27.36 S 74.29 25.50, 75.00 26.82 S 79.31 44.67, 80.00 46.00 S 83.50 46.00, 85.00 46.00 S 89.53 47.42, 90.00 46.00 S 93.50 16.00, 95.00 16.00 S 99.53 44.58, 100.00 46.00 S 103.50 46.00, 105.00 46.00 S 108.50 46.00, 110.00 46.00 S 113.50 46.00, 115.00 46.00 S 118.50 46.00, 120.00 46.00 S 123.50 46.00, 125.00 46.00 S 128.50 46.00, 130.00 46.00 S 133.50 46.00, 135.00 46.00 S 138.50 46.00, 140.00 46.00 S 143.50 46.00, 145.00 46.00 S 148.50 46.00, 150.00 46.00 S 153.50 46.00, 155.00 46.00 S 158.50 46.00, 160.00 46.00 S 163.50 46.00, 165.00 46.00 S 168.50 46.00, 170.00 46.00 S 173.50 46.00, 175.00 46.00 S 178.50 46.00, 180.00 46.00 S 183.50 46.00, 185.00 46.00 S 188.50 46.00, 190.00 46.00 S 193.50 46.00, 195.00 46.00 S 198.50 46.00, 200.00 46.00 S 203.50 46.00, 205.00 46.00"
        fill="none">
        <animate attributeName="stroke-dashoffset"
            from="398.9474959611189" to="0" dur="2.2s"/>
        <animate attributeName="stroke-dasharray"
            from="398.9474959611189" to="398.9474959611189"/>
    </path>
    <circle r="4" cx="5" cy="46" fill="#3023AE"/>
    <circle r="4" cx="205" cy="46" fill="#C86DD7" opacity="0">
        <animate attributeName="opacity"
            from="0" to="1" dur="0.1s" begin="2.2s" fill="freeze"/>
    </circle>
</svg>