<svg width="200" height="50" viewBox="0 0 210 50" xmlns="http://www.w3.org/2000/svg">
    <!-- 18 stargazers -->
    <!-- created at Thu Apr 09 2026 10:17:25 GMT+0000 (Coordinated Universal Time) -->
    <defs>
        <linearGradient id="stroke" x1="0%" y1="0%" x2="100%" y2="0%">
            <stop stop-color="#3023AE" offset="0%"/>
            <stop stop-color="#C86DD7" offset="100%"/>
        </linearGradient>
    </defs>
    <path stroke="url(#stroke)"
        stroke-width="3"
        stroke-linejoin="round"
        stroke-linecap="round"
        d="M5.00 46.0001 C 5.50 44.58, 8.99 32.87, 10.00 31.76 S 13.55 35.34, 15.00 34.95 S 18.99 28.00, 20.00 29.11 S 24.24 44.71, 25.00 46.00 S 29.44 47.39, 30.00 46.00 S 34.53 22.66, 35.00 21.24 S 39.44 14.61, 40.00 16.00 S 44.53 44.58, 45.00 46.00 S 49.42 47.38, 50.00 46.00 S 54.44 23.44, 55.00 22.05 S 59.42 19.82, 60.00 21.21 S 64.44 44.61, 65.00 46.00 S 68.50 46.00, 70.00 46.00 S 73.50 46.00, 75.00 46.00 S 79.34 47.34, 80.00 46.00 S 83.50 25.75, 85.00 25.75 S 89.34 44.66, 90.00 46.00 S 93.50 46.00, 95.00 46.00 S 98.50 46.00, 100.00 46.00 S 103.50 46.00, 105.00 46.00 S 108.50 46.00, 110.00 46.00 S 113.50 46.00, 115.00 46.00 S 118.50 46.00, 120.00 46.00 S 123.50 46.00, 125.00 46.00 S 128.50 46.00, 130.00 46.00 S 133.50 46.00, 135.00 46.00 S 138.50 46.00, 140.00 46.00 S 143.50 46.00, 145.00 46.00 S 148.50 46.00, 150.00 46.00 S 153.50 46.00, 155.00 46.00 S 158.50 46.00, 160.00 46.00 S 163.50 46.00, 165.00 46.00 S 168.50 46.00, 170.00 46.00 S 173.50 46.00, 175.00 46.00 S 178.50 46.00, 180.00 46.00 S 184.51 47.42, 185.00 46.00 S 188.50 16.98, 190.00 16.98 S 194.51 44.58, 195.00 46.00 S 198.50 46.00, 200.00 46.00 S 203.50 46.00, 205.00 46.00"
        fill="none">
        <animate attributeName="stroke-dashoffset"
            from="400.05609668230903" to="0" dur="2.2s"/>
        <animate attributeName="stroke-dasharray"
            from="400.05609668230903" to="400.05609668230903"/>
    </path>
    <circle r="4" cx="5" cy="46" fill="#3023AE"/>
    <circle r="4" cx="205" cy="46" fill="#C86DD7" opacity="0">
        <animate attributeName="opacity"
            from="0" to="1" dur="0.1s" begin="2.2s" fill="freeze"/>
    </circle>
</svg>