<svg width="200" height="50" viewBox="0 0 210 50" xmlns="http://www.w3.org/2000/svg">
    <!-- 18 stargazers -->
    <!-- created at Fri Apr 03 2026 09:32:12 GMT+0000 (Coordinated Universal Time) -->
    <defs>
        <linearGradient id="stroke" x1="0%" y1="0%" x2="100%" y2="0%">
            <stop stop-color="#3023AE" offset="0%"/>
            <stop stop-color="#C86DD7" offset="100%"/>
        </linearGradient>
    </defs>
    <path stroke="url(#stroke)"
        stroke-width="3"
        stroke-linejoin="round"
        stroke-linecap="round"
        d="M5.00 46.0001 C 5.55 44.60, 8.93 34.32, 10.00 33.26 S 13.54 36.47, 15.00 36.12 S 18.93 29.84, 20.00 30.89 S 24.17 44.75, 25.00 46.00 S 29.27 47.31, 30.00 46.00 S 34.53 29.34, 35.00 27.92 S 39.27 14.69, 40.00 16.00 S 44.53 44.58, 45.00 46.00 S 49.37 47.36, 50.00 46.00 S 54.19 25.85, 55.00 24.58 S 58.67 29.63, 60.00 30.32 S 64.19 28.54, 65.00 29.80 S 69.21 44.72, 70.00 46.00 S 73.50 46.00, 75.00 46.00 S 78.50 46.00, 80.00 46.00 S 84.29 47.32, 85.00 46.00 S 88.50 27.44, 90.00 27.44 S 94.29 44.68, 95.00 46.00 S 98.50 46.00, 100.00 46.00 S 103.50 46.00, 105.00 46.00 S 108.50 46.00, 110.00 46.00 S 113.50 46.00, 115.00 46.00 S 118.50 46.00, 120.00 46.00 S 123.50 46.00, 125.00 46.00 S 128.50 46.00, 130.00 46.00 S 133.50 46.00, 135.00 46.00 S 138.50 46.00, 140.00 46.00 S 143.50 46.00, 145.00 46.00 S 148.50 46.00, 150.00 46.00 S 153.50 46.00, 155.00 46.00 S 158.50 46.00, 160.00 46.00 S 163.50 46.00, 165.00 46.00 S 168.50 46.00, 170.00 46.00 S 173.50 46.00, 175.00 46.00 S 178.50 46.00, 180.00 46.00 S 183.50 46.00, 185.00 46.00 S 189.47 47.40, 190.00 46.00 S 193.50 19.73, 195.00 19.73 S 199.47 44.60, 200.00 46.00 S 203.50 46.00, 205.00 46.00"
        fill="none">
        <animate attributeName="stroke-dashoffset"
            from="378.1539991801361" to="0" dur="2.2s"/>
        <animate attributeName="stroke-dasharray"
            from="378.1539991801361" to="378.1539991801361"/>
    </path>
    <circle r="4" cx="5" cy="46" fill="#3023AE"/>
    <circle r="4" cx="205" cy="46" fill="#C86DD7" opacity="0">
        <animate attributeName="opacity"
            from="0" to="1" dur="0.1s" begin="2.2s" fill="freeze"/>
    </circle>
</svg>