<svg width="200" height="50" viewBox="0 0 210 50" xmlns="http://www.w3.org/2000/svg">
    <!-- 18 stargazers -->
    <!-- created at Sat Mar 21 2026 20:07:14 GMT+0000 (Coordinated Universal Time) -->
    <defs>
        <linearGradient id="stroke" x1="0%" y1="0%" x2="100%" y2="0%">
            <stop stop-color="#3023AE" offset="0%"/>
            <stop stop-color="#C86DD7" offset="100%"/>
        </linearGradient>
    </defs>
    <path stroke="url(#stroke)"
        stroke-width="3"
        stroke-linejoin="round"
        stroke-linecap="round"
        d="M5.00 46.0001 C 5.50 44.59, 8.99 32.90, 10.00 31.79 S 13.55 35.36, 15.00 34.98 S 18.99 28.04, 20.00 29.15 S 24.23 44.71, 25.00 46.00 S 29.33 47.34, 30.00 46.00 S 34.52 27.25, 35.00 25.83 S 38.63 15.45, 40.00 16.07 S 44.52 28.94, 45.00 30.36 S 48.51 46.19, 50.00 46.00 S 54.44 30.49, 55.00 29.10 S 58.51 21.44, 60.00 21.26 S 64.44 26.54, 65.00 27.93 S 69.27 44.69, 70.00 46.00 S 73.50 46.00, 75.00 46.00 S 78.50 46.00, 80.00 46.00 S 84.35 47.35, 85.00 46.00 S 88.50 25.29, 90.00 25.29 S 94.35 44.65, 95.00 46.00 S 98.50 46.00, 100.00 46.00 S 103.50 46.00, 105.00 46.00 S 108.50 46.00, 110.00 46.00 S 113.50 46.00, 115.00 46.00 S 118.50 46.00, 120.00 46.00 S 123.50 46.00, 125.00 46.00 S 128.50 46.00, 130.00 46.00 S 133.50 46.00, 135.00 46.00 S 138.50 46.00, 140.00 46.00 S 143.50 46.00, 145.00 46.00 S 148.50 46.00, 150.00 46.00 S 153.50 46.00, 155.00 46.00 S 158.50 46.00, 160.00 46.00 S 163.50 46.00, 165.00 46.00 S 168.50 46.00, 170.00 46.00 S 173.50 46.00, 175.00 46.00 S 178.50 46.00, 180.00 46.00 S 183.50 46.00, 185.00 46.00 S 188.50 46.00, 190.00 46.00 S 193.50 46.00, 195.00 46.00 S 199.53 47.42, 200.00 46.00 S 204.75 17.48, 205.00 16.00"
        fill="none">
        <animate attributeName="stroke-dashoffset"
            from="365.463893216289" to="0" dur="2.2s"/>
        <animate attributeName="stroke-dasharray"
            from="365.463893216289" to="365.463893216289"/>
    </path>
    <circle r="4" cx="5" cy="46" fill="#3023AE"/>
    <circle r="4" cx="205" cy="16" fill="#C86DD7" opacity="0">
        <animate attributeName="opacity"
            from="0" to="1" dur="0.1s" begin="2.2s" fill="freeze"/>
    </circle>
</svg>