<svg width="200" height="50" viewBox="0 0 210 50" xmlns="http://www.w3.org/2000/svg">
    <!-- 17 stargazers -->
    <!-- created at Thu May 14 2026 14:45:14 GMT+0000 (Coordinated Universal Time) -->
    <defs>
        <linearGradient id="stroke" x1="0%" y1="0%" x2="100%" y2="0%">
            <stop stop-color="#3023AE" offset="0%"/>
            <stop stop-color="#C86DD7" offset="100%"/>
        </linearGradient>
    </defs>
    <path stroke="url(#stroke)"
        stroke-width="3"
        stroke-linejoin="round"
        stroke-linecap="round"
        d="M5.00 46.0001 C 5.40 44.55, 8.50 27.70, 10.00 27.70 S 13.50 45.91, 15.00 46.00 S 18.50 28.28, 20.00 28.28 S 24.26 44.69, 25.00 46.00 S 29.53 47.42, 30.00 46.00 S 34.48 17.41, 35.00 16.00 S 39.53 17.32, 40.00 18.74 S 43.95 44.93, 45.00 46.00 S 49.45 30.28, 50.00 28.88 S 54.24 19.58, 55.00 20.87 S 59.45 44.61, 60.00 46.00 S 63.50 46.00, 65.00 46.00 S 68.50 46.00, 70.00 46.00 S 74.35 47.35, 75.00 46.00 S 78.50 25.29, 80.00 25.29 S 84.35 44.65, 85.00 46.00 S 88.50 46.00, 90.00 46.00 S 93.50 46.00, 95.00 46.00 S 98.50 46.00, 100.00 46.00 S 103.50 46.00, 105.00 46.00 S 108.50 46.00, 110.00 46.00 S 113.50 46.00, 115.00 46.00 S 118.50 46.00, 120.00 46.00 S 123.50 46.00, 125.00 46.00 S 128.50 46.00, 130.00 46.00 S 133.50 46.00, 135.00 46.00 S 138.50 46.00, 140.00 46.00 S 143.50 46.00, 145.00 46.00 S 148.50 46.00, 150.00 46.00 S 153.50 46.00, 155.00 46.00 S 158.50 46.00, 160.00 46.00 S 164.51 47.42, 165.00 46.00 S 168.50 17.08, 170.00 17.08 S 174.51 44.58, 175.00 46.00 S 178.50 46.00, 180.00 46.00 S 183.50 46.00, 185.00 46.00 S 188.50 46.00, 190.00 46.00 S 193.50 46.00, 195.00 46.00 S 198.50 46.00, 200.00 46.00 S 203.50 46.00, 205.00 46.00"
        fill="none">
        <animate attributeName="stroke-dashoffset"
            from="427.6454193043908" to="0" dur="2.2s"/>
        <animate attributeName="stroke-dasharray"
            from="427.6454193043908" to="427.6454193043908"/>
    </path>
    <circle r="4" cx="5" cy="46" fill="#3023AE"/>
    <circle r="4" cx="205" cy="46" fill="#C86DD7" opacity="0">
        <animate attributeName="opacity"
            from="0" to="1" dur="0.1s" begin="2.2s" fill="freeze"/>
    </circle>
</svg>