<svg width="200" height="50" viewBox="0 0 210 50" xmlns="http://www.w3.org/2000/svg">
    <!-- 17 stargazers -->
    <!-- created at Mon May 11 2026 12:30:35 GMT+0000 (Coordinated Universal Time) -->
    <defs>
        <linearGradient id="stroke" x1="0%" y1="0%" x2="100%" y2="0%">
            <stop stop-color="#3023AE" offset="0%"/>
            <stop stop-color="#C86DD7" offset="100%"/>
        </linearGradient>
    </defs>
    <path stroke="url(#stroke)"
        stroke-width="3"
        stroke-linejoin="round"
        stroke-linecap="round"
        d="M5.00 46.0001 C 5.41 44.56, 8.50 28.56, 10.00 28.56 S 13.50 45.92, 15.00 46.00 S 18.50 29.11, 20.00 29.11 S 24.24 44.71, 25.00 46.00 S 29.44 47.39, 30.00 46.00 S 34.53 22.66, 35.00 21.24 S 39.44 14.61, 40.00 16.00 S 44.12 44.79, 45.00 46.00 S 49.42 31.07, 50.00 29.69 S 54.22 20.77, 55.00 22.05 S 59.42 44.62, 60.00 46.00 S 63.50 46.00, 65.00 46.00 S 68.50 46.00, 70.00 46.00 S 74.32 47.34, 75.00 46.00 S 78.50 26.26, 80.00 26.26 S 84.32 44.66, 85.00 46.00 S 88.50 46.00, 90.00 46.00 S 93.50 46.00, 95.00 46.00 S 98.50 46.00, 100.00 46.00 S 103.50 46.00, 105.00 46.00 S 108.50 46.00, 110.00 46.00 S 113.50 46.00, 115.00 46.00 S 118.50 46.00, 120.00 46.00 S 123.50 46.00, 125.00 46.00 S 128.50 46.00, 130.00 46.00 S 133.50 46.00, 135.00 46.00 S 138.50 46.00, 140.00 46.00 S 143.50 46.00, 145.00 46.00 S 148.50 46.00, 150.00 46.00 S 153.50 46.00, 155.00 46.00 S 158.50 46.00, 160.00 46.00 S 164.49 47.41, 165.00 46.00 S 168.50 18.43, 170.00 18.43 S 174.49 44.59, 175.00 46.00 S 178.50 46.00, 180.00 46.00 S 183.50 46.00, 185.00 46.00 S 188.50 46.00, 190.00 46.00 S 193.50 46.00, 195.00 46.00 S 198.50 46.00, 200.00 46.00 S 203.50 46.00, 205.00 46.00"
        fill="none">
        <animate attributeName="stroke-dashoffset"
            from="416.52030054193574" to="0" dur="2.2s"/>
        <animate attributeName="stroke-dasharray"
            from="416.52030054193574" to="416.52030054193574"/>
    </path>
    <circle r="4" cx="5" cy="46" fill="#3023AE"/>
    <circle r="4" cx="205" cy="46" fill="#C86DD7" opacity="0">
        <animate attributeName="opacity"
            from="0" to="1" dur="0.1s" begin="2.2s" fill="freeze"/>
    </circle>
</svg>