<svg width="200" height="50" viewBox="0 0 210 50" xmlns="http://www.w3.org/2000/svg">
    <!-- 108 stargazers -->
    <!-- created at Fri Apr 03 2026 13:35:10 GMT+0000 (Coordinated Universal Time) -->
    <defs>
        <linearGradient id="stroke" x1="0%" y1="0%" x2="100%" y2="0%">
            <stop stop-color="#3023AE" offset="0%"/>
            <stop stop-color="#C86DD7" offset="100%"/>
        </linearGradient>
    </defs>
    <path stroke="url(#stroke)"
        stroke-width="3"
        stroke-linejoin="round"
        stroke-linecap="round"
        d="M5.00 46.0001 C 5.75 44.70, 9.11 38.49, 10.00 37.29 S 13.87 31.50, 15.00 32.49 S 18.54 45.64, 20.00 46.00 S 24.31 36.28, 25.00 34.95 S 28.57 27.31, 30.00 26.84 S 33.62 31.14, 35.00 31.72 S 38.50 30.91, 40.00 31.01 S 43.83 33.38, 45.00 32.44 S 48.78 23.82, 50.00 22.95 S 53.71 26.05, 55.00 25.28 S 58.90 17.98, 60.00 16.96 S 63.96 14.92, 65.00 16.00 S 69.10 26.15, 70.00 27.35 S 73.64 28.74, 75.00 29.38 S 78.54 31.72, 80.00 32.06 S 84.11 32.90, 85.00 31.69 S 88.50 18.67, 90.00 18.57 S 94.04 29.84, 95.00 30.99 S 98.62 31.23, 100.00 30.65 S 103.50 26.90, 105.00 26.80 S 109.31 28.67, 110.00 30.00 S 113.50 46.09, 115.00 46.00 S 118.50 29.37, 120.00 29.37 S 123.63 45.39, 125.00 46.00 S 128.50 33.81, 130.00 33.81 S 133.69 46.74, 135.00 46.00 S 139.27 29.49, 140.00 28.18 S 144.27 26.58, 145.00 27.89 S 148.65 45.34, 150.00 46.00 S 153.50 32.80, 155.00 32.80 S 159.09 44.80, 160.00 46.00 S 164.12 47.21, 165.00 46.00 S 169.13 33.45, 170.00 32.23 S 173.50 32.10, 175.00 32.04 S 179.13 30.64, 180.00 31.86 S 184.13 44.78, 185.00 46.00 S 189.35 47.35, 190.00 46.00 S 193.50 25.25, 195.00 25.25 S 198.70 45.25, 200.00 46.00 S 204.53 32.40, 205.00 30.98"
        fill="none">
        <animate attributeName="stroke-dashoffset"
            from="438.87939230204876" to="0" dur="2.2s"/>
        <animate attributeName="stroke-dasharray"
            from="438.87939230204876" to="438.87939230204876"/>
    </path>
    <circle r="4" cx="5" cy="46" fill="#3023AE"/>
    <circle r="4" cx="205" cy="30.981241145561683" fill="#C86DD7" opacity="0">
        <animate attributeName="opacity"
            from="0" to="1" dur="0.1s" begin="2.2s" fill="freeze"/>
    </circle>
</svg>