<svg width="200" height="50" viewBox="0 0 210 50" xmlns="http://www.w3.org/2000/svg">
    <!-- 108 stargazers -->
    <!-- created at Tue Apr 07 2026 19:59:56 GMT+0000 (Coordinated Universal Time) -->
    <defs>
        <linearGradient id="stroke" x1="0%" y1="0%" x2="100%" y2="0%">
            <stop stop-color="#3023AE" offset="0%"/>
            <stop stop-color="#C86DD7" offset="100%"/>
        </linearGradient>
    </defs>
    <path stroke="url(#stroke)"
        stroke-width="3"
        stroke-linejoin="round"
        stroke-linecap="round"
        d="M5.00 46.0001 C 5.75 44.70, 9.10 38.59, 10.00 37.39 S 13.86 31.66, 15.00 32.63 S 18.54 45.65, 20.00 46.00 S 24.30 36.40, 25.00 35.07 S 28.57 27.51, 30.00 27.06 S 33.61 31.30, 35.00 31.87 S 38.51 31.38, 40.00 31.18 S 43.74 31.33, 45.00 30.52 S 48.66 25.35, 50.00 24.68 S 53.87 26.49, 55.00 25.51 S 58.82 16.92, 60.00 16.00 S 64.02 16.58, 65.00 17.71 S 69.03 26.41, 70.00 27.56 S 73.64 28.93, 75.00 29.56 S 78.54 31.88, 80.00 32.21 S 84.10 33.05, 85.00 31.85 S 88.50 18.98, 90.00 18.87 S 94.04 30.01, 95.00 31.16 S 98.61 31.40, 100.00 30.82 S 103.50 27.11, 105.00 27.01 S 109.30 28.85, 110.00 30.17 S 113.50 46.09, 115.00 46.00 S 119.03 30.70, 120.00 29.55 S 124.22 32.87, 125.00 34.16 S 129.03 44.85, 130.00 46.00 S 134.37 47.36, 135.00 46.00 S 139.07 25.59, 140.00 24.41 S 144.37 31.98, 145.00 33.34 S 148.50 46.06, 150.00 46.00 S 153.50 32.95, 155.00 32.95 S 159.09 44.81, 160.00 46.00 S 164.11 47.21, 165.00 46.00 S 169.12 33.60, 170.00 32.38 S 173.50 32.25, 175.00 32.20 S 179.12 30.80, 180.00 32.02 S 184.13 44.78, 185.00 46.00 S 189.34 47.35, 190.00 46.00 S 193.50 25.48, 195.00 25.48 S 198.70 45.26, 200.00 46.00 S 204.52 32.57, 205.00 31.15"
        fill="none">
        <animate attributeName="stroke-dashoffset"
            from="416.8935880789536" to="0" dur="2.2s"/>
        <animate attributeName="stroke-dasharray"
            from="416.8935880789536" to="416.8935880789536"/>
    </path>
    <circle r="4" cx="5" cy="46" fill="#3023AE"/>
    <circle r="4" cx="205" cy="31.14699163408384" fill="#C86DD7" opacity="0">
        <animate attributeName="opacity"
            from="0" to="1" dur="0.1s" begin="2.2s" fill="freeze"/>
    </circle>
</svg>