<svg width="200" height="50" viewBox="0 0 210 50" xmlns="http://www.w3.org/2000/svg">
    <!-- 108 stargazers -->
    <!-- created at Tue May 05 2026 12:28:36 GMT+0000 (Coordinated Universal Time) -->
    <defs>
        <linearGradient id="stroke" x1="0%" y1="0%" x2="100%" y2="0%">
            <stop stop-color="#3023AE" offset="0%"/>
            <stop stop-color="#C86DD7" offset="100%"/>
        </linearGradient>
    </defs>
    <path stroke="url(#stroke)"
        stroke-width="3"
        stroke-linejoin="round"
        stroke-linecap="round"
        d="M5.00 46.0001 C 5.72 44.68, 9.14 38.09, 10.00 36.86 S 13.89 30.81, 15.00 31.83 S 18.55 45.63, 20.00 46.00 S 24.36 35.76, 25.00 34.41 S 28.51 24.90, 30.00 24.69 S 33.59 32.50, 35.00 33.03 S 38.58 28.92, 40.00 28.43 S 43.66 30.26, 45.00 29.58 S 48.95 24.46, 50.00 23.39 S 53.74 20.20, 55.00 19.39 S 58.58 17.44, 60.00 16.96 S 63.91 14.97, 65.00 16.00 S 69.33 25.10, 70.00 26.44 S 73.52 35.69, 75.00 35.94 S 78.85 29.05, 80.00 28.09 S 83.98 28.72, 85.00 27.62 S 89.28 15.91, 90.00 17.23 S 94.07 44.82, 95.00 46.00 S 99.41 31.28, 100.00 29.90 S 103.62 22.16, 105.00 22.75 S 109.41 32.75, 110.00 34.13 S 113.69 46.73, 115.00 46.00 S 119.07 29.73, 120.00 28.56 S 124.25 32.14, 125.00 33.44 S 128.70 46.76, 130.00 46.00 S 134.29 28.93, 135.00 27.61 S 139.28 25.99, 140.00 27.31 S 143.66 45.32, 145.00 46.00 S 148.50 32.36, 150.00 32.36 S 154.11 44.79, 155.00 46.00 S 159.14 47.23, 160.00 46.00 S 164.15 32.99, 165.00 31.75 S 168.50 31.62, 170.00 31.56 S 174.15 30.13, 175.00 31.36 S 179.15 44.76, 180.00 46.00 S 184.37 47.36, 185.00 46.00 S 188.50 24.50, 190.00 24.50 S 193.71 45.23, 195.00 46.00 S 198.50 30.43, 200.00 30.43 S 204.54 44.57, 205.00 46.00"
        fill="none">
        <animate attributeName="stroke-dashoffset"
            from="477.40832265139574" to="0" dur="2.2s"/>
        <animate attributeName="stroke-dasharray"
            from="477.40832265139574" to="477.40832265139574"/>
    </path>
    <circle r="4" cx="5" cy="46" fill="#3023AE"/>
    <circle r="4" cx="205" cy="46" fill="#C86DD7" opacity="0">
        <animate attributeName="opacity"
            from="0" to="1" dur="0.1s" begin="2.2s" fill="freeze"/>
    </circle>
</svg>