<svg width="200" height="50" viewBox="0 0 210 50" xmlns="http://www.w3.org/2000/svg">
    <!-- 107 stargazers -->
    <!-- created at Wed Mar 04 2026 15:12:47 GMT+0000 (Coordinated Universal Time) -->
    <defs>
        <linearGradient id="stroke" x1="0%" y1="0%" x2="100%" y2="0%">
            <stop stop-color="#3023AE" offset="0%"/>
            <stop stop-color="#C86DD7" offset="100%"/>
        </linearGradient>
    </defs>
    <path stroke="url(#stroke)"
        stroke-width="3"
        stroke-linejoin="round"
        stroke-linecap="round"
        d="M5.00 46.0001 C 5.69 44.67, 9.17 37.62, 10.00 36.37 S 13.92 30.02, 15.00 31.06 S 18.55 45.61, 20.00 46.00 S 24.32 35.12, 25.00 33.78 S 28.68 26.91, 30.00 26.19 S 33.83 27.40, 35.00 28.35 S 38.50 34.23, 40.00 34.29 S 44.18 29.95, 45.00 28.69 S 48.69 19.70, 50.00 18.97 S 53.53 23.39, 55.00 23.09 S 58.78 17.82, 60.00 16.96 S 63.52 15.74, 65.00 16.00 S 69.02 17.59, 70.00 18.72 S 74.03 26.48, 75.00 27.62 S 78.51 30.73, 80.00 30.58 S 83.80 27.53, 85.00 26.63 S 88.76 23.92, 90.00 23.08 S 93.99 18.66, 95.00 19.77 S 99.13 32.78, 100.00 34.00 S 104.09 34.93, 105.00 33.74 S 108.50 21.06, 110.00 20.98 S 114.44 31.85, 115.00 33.24 S 118.71 46.77, 120.00 46.00 S 124.11 28.48, 125.00 27.28 S 129.29 31.20, 130.00 32.53 S 134.11 44.80, 135.00 46.00 S 139.43 47.39, 140.00 46.00 S 144.14 22.71, 145.00 21.48 S 149.43 30.23, 150.00 31.62 S 153.50 46.06, 155.00 46.00 S 158.50 31.19, 160.00 31.19 S 164.16 44.76, 165.00 46.00 S 169.18 47.26, 170.00 46.00 S 174.19 31.83, 175.00 30.57 S 178.50 30.43, 180.00 30.37 S 184.19 28.91, 185.00 30.17 S 189.20 44.73, 190.00 46.00 S 194.41 47.38, 195.00 46.00 S 198.50 22.79, 200.00 22.79 S 204.68 44.53, 205.00 46.00"
        fill="none">
        <animate attributeName="stroke-dashoffset"
            from="444.98930556618586" to="0" dur="2.2s"/>
        <animate attributeName="stroke-dasharray"
            from="444.98930556618586" to="444.98930556618586"/>
    </path>
    <circle r="4" cx="5" cy="46" fill="#3023AE"/>
    <circle r="4" cx="205" cy="46" fill="#C86DD7" opacity="0">
        <animate attributeName="opacity"
            from="0" to="1" dur="0.1s" begin="2.2s" fill="freeze"/>
    </circle>
</svg>