<svg width="200" height="50" viewBox="0 0 210 50" xmlns="http://www.w3.org/2000/svg">
    <!-- 107 stargazers -->
    <!-- created at Mon Mar 16 2026 21:15:25 GMT+0000 (Coordinated Universal Time) -->
    <defs>
        <linearGradient id="stroke" x1="0%" y1="0%" x2="100%" y2="0%">
            <stop stop-color="#3023AE" offset="0%"/>
            <stop stop-color="#C86DD7" offset="100%"/>
        </linearGradient>
    </defs>
    <path stroke="url(#stroke)"
        stroke-width="3"
        stroke-linejoin="round"
        stroke-linecap="round"
        d="M5.00 46.0001 C 5.77 44.71, 9.08 38.85, 10.00 37.66 S 13.85 32.10, 15.00 33.06 S 18.54 45.66, 20.00 46.00 S 24.24 36.71, 25.00 35.42 S 28.64 29.48, 30.00 28.84 S 33.64 30.07, 35.00 30.71 S 38.54 33.24, 40.00 33.57 S 43.99 34.13, 45.00 33.02 S 48.76 23.44, 50.00 22.59 S 53.52 26.42, 55.00 26.16 S 58.95 21.92, 60.00 20.85 S 63.79 15.12, 65.00 16.00 S 69.13 26.92, 70.00 28.14 S 73.52 29.86, 75.00 30.09 S 78.54 29.32, 80.00 29.65 S 83.70 33.06, 85.00 32.30 S 88.75 24.63, 90.00 23.80 S 94.03 24.53, 95.00 25.68 S 98.53 35.32, 100.00 35.61 S 103.85 28.58, 105.00 27.62 S 109.28 25.92, 110.00 27.24 S 114.29 44.68, 115.00 46.00 S 119.21 47.28, 120.00 46.00 S 124.02 30.92, 125.00 29.78 S 129.21 33.05, 130.00 34.33 S 133.68 46.71, 135.00 46.00 S 139.25 30.24, 140.00 28.94 S 144.24 27.37, 145.00 28.66 S 148.64 45.36, 150.00 46.00 S 153.50 33.36, 155.00 33.36 S 159.07 44.82, 160.00 46.00 S 163.50 46.00, 165.00 46.00 S 169.10 47.20, 170.00 46.00 S 174.11 33.84, 175.00 32.64 S 178.50 32.52, 180.00 32.46 S 184.11 31.08, 185.00 32.29 S 189.12 44.79, 190.00 46.00 S 194.33 47.34, 195.00 46.00 S 198.50 25.90, 200.00 25.90 S 204.64 44.54, 205.00 46.00"
        fill="none">
        <animate attributeName="stroke-dashoffset"
            from="400.20555745990004" to="0" dur="2.2s"/>
        <animate attributeName="stroke-dasharray"
            from="400.20555745990004" to="400.20555745990004"/>
    </path>
    <circle r="4" cx="5" cy="46" fill="#3023AE"/>
    <circle r="4" cx="205" cy="46" fill="#C86DD7" opacity="0">
        <animate attributeName="opacity"
            from="0" to="1" dur="0.1s" begin="2.2s" fill="freeze"/>
    </circle>
</svg>