<svg width="200" height="50" viewBox="0 0 210 50" xmlns="http://www.w3.org/2000/svg">
    <!-- 109 stargazers -->
    <!-- created at Mon May 18 2026 09:23:35 GMT+0000 (Coordinated Universal Time) -->
    <defs>
        <linearGradient id="stroke" x1="0%" y1="0%" x2="100%" y2="0%">
            <stop stop-color="#3023AE" offset="0%"/>
            <stop stop-color="#C86DD7" offset="100%"/>
        </linearGradient>
    </defs>
    <path stroke="url(#stroke)"
        stroke-width="3"
        stroke-linejoin="round"
        stroke-linecap="round"
        d="M5.00 46.0001 C 5.75 44.70, 9.11 38.49, 10.00 37.29 S 13.55 32.09, 15.00 32.49 S 18.63 39.42, 20.00 40.03 S 24.14 38.21, 25.00 36.97 S 28.58 26.16, 30.00 25.68 S 33.59 33.13, 35.00 33.63 S 38.57 29.71, 40.00 29.25 S 43.73 31.14, 45.00 30.34 S 48.92 24.00, 50.00 22.95 S 53.57 21.08, 55.00 20.62 S 58.64 20.36, 60.00 19.73 S 63.95 14.93, 65.00 16.00 S 69.34 28.50, 70.00 29.85 S 73.51 36.54, 75.00 36.40 S 78.97 30.01, 80.00 28.92 S 83.85 26.72, 85.00 25.77 S 88.92 19.56, 90.00 20.60 S 93.75 34.56, 95.00 35.39 S 98.86 28.18, 100.00 27.20 S 104.30 25.47, 105.00 26.80 S 108.81 45.09, 110.00 46.00 S 114.03 35.60, 115.00 34.46 S 118.50 34.31, 120.00 34.24 S 124.03 32.88, 125.00 34.02 S 128.69 46.73, 130.00 46.00 S 134.27 29.78, 135.00 28.47 S 139.26 26.87, 140.00 28.18 S 143.65 45.35, 145.00 46.00 S 148.50 33.00, 150.00 33.00 S 154.09 44.81, 155.00 46.00 S 159.11 47.21, 160.00 46.00 S 164.12 33.63, 165.00 32.42 S 168.50 32.29, 170.00 32.23 S 174.12 30.83, 175.00 32.04 S 179.13 44.78, 180.00 46.00 S 184.34 47.35, 185.00 46.00 S 189.16 26.74, 190.00 25.50 S 194.34 29.98, 195.00 31.33 S 198.50 46.05, 200.00 46.00 S 204.53 32.40, 205.00 30.98"
        fill="none">
        <animate attributeName="stroke-dashoffset"
            from="408.60554981633464" to="0" dur="2.2s"/>
        <animate attributeName="stroke-dasharray"
            from="408.60554981633464" to="408.60554981633464"/>
    </path>
    <circle r="4" cx="5" cy="46" fill="#3023AE"/>
    <circle r="4" cx="205" cy="30.981241145562553" fill="#C86DD7" opacity="0">
        <animate attributeName="opacity"
            from="0" to="1" dur="0.1s" begin="2.2s" fill="freeze"/>
    </circle>
</svg>