<svg width="200" height="50" viewBox="0 0 210 50" xmlns="http://www.w3.org/2000/svg">
    <!-- 107 stargazers -->
    <!-- created at Sat Mar 21 2026 16:16:17 GMT+0000 (Coordinated Universal Time) -->
    <defs>
        <linearGradient id="stroke" x1="0%" y1="0%" x2="100%" y2="0%">
            <stop stop-color="#3023AE" offset="0%"/>
            <stop stop-color="#C86DD7" offset="100%"/>
        </linearGradient>
    </defs>
    <path stroke="url(#stroke)"
        stroke-width="3"
        stroke-linejoin="round"
        stroke-linecap="round"
        d="M5.00 46.0001 C 5.75 44.70, 9.11 38.49, 10.00 37.29 S 13.87 31.50, 15.00 32.49 S 18.54 45.64, 20.00 46.00 S 24.27 36.26, 25.00 34.95 S 28.65 28.74, 30.00 28.08 S 33.56 29.61, 35.00 30.03 S 38.65 30.35, 40.00 31.01 S 43.91 35.96, 45.00 34.93 S 48.92 22.59, 50.00 21.55 S 53.57 25.74, 55.00 25.28 S 58.90 19.33, 60.00 18.31 S 63.89 14.99, 65.00 16.00 S 69.10 26.15, 70.00 27.35 S 73.52 29.15, 75.00 29.38 S 78.54 28.58, 80.00 28.92 S 83.72 32.47, 85.00 31.69 S 88.77 23.67, 90.00 22.82 S 94.06 23.61, 95.00 24.78 S 98.53 34.85, 100.00 35.15 S 103.87 27.79, 105.00 26.80 S 109.31 25.07, 110.00 26.40 S 114.32 44.66, 115.00 46.00 S 119.24 47.29, 120.00 46.00 S 124.05 30.22, 125.00 29.06 S 129.24 32.52, 130.00 33.81 S 133.69 46.74, 135.00 46.00 S 139.27 29.49, 140.00 28.18 S 144.27 26.58, 145.00 27.89 S 148.65 45.34, 150.00 46.00 S 153.50 32.80, 155.00 32.80 S 159.09 44.80, 160.00 46.00 S 163.50 46.00, 165.00 46.00 S 169.13 47.22, 170.00 46.00 S 174.13 33.27, 175.00 32.04 S 178.50 31.92, 180.00 31.86 S 184.13 30.46, 185.00 31.68 S 189.14 44.77, 190.00 46.00 S 194.36 47.35, 195.00 46.00 S 198.50 25.00, 200.00 25.00 S 204.65 44.54, 205.00 46.00"
        fill="none">
        <animate attributeName="stroke-dashoffset"
            from="413.41637641153216" to="0" dur="2.2s"/>
        <animate attributeName="stroke-dasharray"
            from="413.41637641153216" to="413.41637641153216"/>
    </path>
    <circle r="4" cx="5" cy="46" fill="#3023AE"/>
    <circle r="4" cx="205" cy="46" fill="#C86DD7" opacity="0">
        <animate attributeName="opacity"
            from="0" to="1" dur="0.1s" begin="2.2s" fill="freeze"/>
    </circle>
</svg>