<svg width="200" height="50" viewBox="0 0 210 50" xmlns="http://www.w3.org/2000/svg">
    <!-- 108 stargazers -->
    <!-- created at Tue Mar 31 2026 11:39:57 GMT+0000 (Coordinated Universal Time) -->
    <defs>
        <linearGradient id="stroke" x1="0%" y1="0%" x2="100%" y2="0%">
            <stop stop-color="#3023AE" offset="0%"/>
            <stop stop-color="#C86DD7" offset="100%"/>
        </linearGradient>
    </defs>
    <path stroke="url(#stroke)"
        stroke-width="3"
        stroke-linejoin="round"
        stroke-linecap="round"
        d="M5.00 46.0001 C 5.75 44.70, 9.11 38.49, 10.00 37.29 S 13.87 31.50, 15.00 32.49 S 18.54 45.64, 20.00 46.00 S 24.31 36.28, 25.00 34.95 S 28.57 27.31, 30.00 26.84 S 33.62 31.14, 35.00 31.72 S 38.57 30.56, 40.00 31.01 S 43.91 35.96, 45.00 34.93 S 48.92 22.59, 50.00 21.55 S 53.57 25.74, 55.00 25.28 S 58.90 19.33, 60.00 18.31 S 63.76 15.15, 65.00 16.00 S 69.10 23.95, 70.00 25.15 S 73.77 28.53, 75.00 29.38 S 78.54 31.72, 80.00 32.06 S 83.90 32.71, 85.00 31.69 S 88.77 23.67, 90.00 22.82 S 93.82 23.85, 95.00 24.78 S 98.53 30.36, 100.00 30.65 S 103.50 26.90, 105.00 26.80 S 109.31 28.67, 110.00 30.00 S 113.62 45.41, 115.00 46.00 S 119.04 35.39, 120.00 34.24 S 123.50 34.09, 125.00 34.02 S 129.04 32.66, 130.00 33.81 S 133.69 46.74, 135.00 46.00 S 139.27 29.49, 140.00 28.18 S 144.27 26.58, 145.00 27.89 S 148.65 45.34, 150.00 46.00 S 153.50 32.80, 155.00 32.80 S 159.09 44.80, 160.00 46.00 S 164.12 47.21, 165.00 46.00 S 169.13 33.45, 170.00 32.23 S 173.50 32.10, 175.00 32.04 S 179.13 30.64, 180.00 31.86 S 184.13 44.78, 185.00 46.00 S 189.35 47.35, 190.00 46.00 S 193.50 25.25, 195.00 25.25 S 198.70 45.25, 200.00 46.00 S 204.53 32.40, 205.00 30.98"
        fill="none">
        <animate attributeName="stroke-dashoffset"
            from="408.10462650741795" to="0" dur="2.2s"/>
        <animate attributeName="stroke-dasharray"
            from="408.10462650741795" to="408.10462650741795"/>
    </path>
    <circle r="4" cx="5" cy="46" fill="#3023AE"/>
    <circle r="4" cx="205" cy="30.981241145562297" fill="#C86DD7" opacity="0">
        <animate attributeName="opacity"
            from="0" to="1" dur="0.1s" begin="2.2s" fill="freeze"/>
    </circle>
</svg>