<svg width="200" height="50" viewBox="0 0 210 50" xmlns="http://www.w3.org/2000/svg">
    <!-- 108 stargazers -->
    <!-- created at Wed Apr 22 2026 02:30:57 GMT+0000 (Coordinated Universal Time) -->
    <defs>
        <linearGradient id="stroke" x1="0%" y1="0%" x2="100%" y2="0%">
            <stop stop-color="#3023AE" offset="0%"/>
            <stop stop-color="#C86DD7" offset="100%"/>
        </linearGradient>
    </defs>
    <path stroke="url(#stroke)"
        stroke-width="3"
        stroke-linejoin="round"
        stroke-linecap="round"
        d="M5.00 46.0001 C 5.75 44.70, 9.10 38.59, 10.00 37.39 S 13.86 31.66, 15.00 32.63 S 18.54 45.65, 20.00 46.00 S 24.33 36.41, 25.00 35.07 S 28.51 26.10, 30.00 25.91 S 33.67 33.07, 35.00 33.77 S 38.57 31.64, 40.00 31.18 S 43.83 31.45, 45.00 30.52 S 48.66 23.88, 50.00 23.20 S 53.78 26.39, 55.00 25.51 S 58.82 16.92, 60.00 16.00 S 64.13 16.49, 65.00 17.71 S 69.03 28.88, 70.00 30.03 S 73.53 29.24, 75.00 29.56 S 78.51 32.34, 80.00 32.21 S 84.10 29.87, 85.00 28.67 S 88.76 18.03, 90.00 18.87 S 94.04 34.35, 95.00 35.50 S 99.01 31.95, 100.00 30.82 S 103.61 23.52, 105.00 24.07 S 109.38 33.45, 110.00 34.81 S 113.67 46.70, 115.00 46.00 S 119.03 30.70, 120.00 29.55 S 124.22 32.87, 125.00 34.16 S 129.03 44.85, 130.00 46.00 S 134.37 47.36, 135.00 46.00 S 139.07 25.59, 140.00 24.41 S 143.87 32.35, 145.00 33.34 S 149.07 31.96, 150.00 33.14 S 154.08 44.82, 155.00 46.00 S 158.50 46.00, 160.00 46.00 S 164.11 47.21, 165.00 46.00 S 169.12 33.60, 170.00 32.38 S 173.50 32.25, 175.00 32.20 S 179.12 30.80, 180.00 32.02 S 184.13 44.78, 185.00 46.00 S 189.34 47.35, 190.00 46.00 S 194.16 26.72, 195.00 25.48 S 199.34 29.97, 200.00 31.32 S 204.52 44.58, 205.00 46.00"
        fill="none">
        <animate attributeName="stroke-dashoffset"
            from="400.9650977479412" to="0" dur="2.2s"/>
        <animate attributeName="stroke-dasharray"
            from="400.9650977479412" to="400.9650977479412"/>
    </path>
    <circle r="4" cx="5" cy="46" fill="#3023AE"/>
    <circle r="4" cx="205" cy="46" fill="#C86DD7" opacity="0">
        <animate attributeName="opacity"
            from="0" to="1" dur="0.1s" begin="2.2s" fill="freeze"/>
    </circle>
</svg>