<svg width="200" height="50" viewBox="0 0 210 50" xmlns="http://www.w3.org/2000/svg">
    <!-- 107 stargazers -->
    <!-- created at Mon Mar 09 2026 13:07:15 GMT+0000 (Coordinated Universal Time) -->
    <defs>
        <linearGradient id="stroke" x1="0%" y1="0%" x2="100%" y2="0%">
            <stop stop-color="#3023AE" offset="0%"/>
            <stop stop-color="#C86DD7" offset="100%"/>
        </linearGradient>
    </defs>
    <path stroke="url(#stroke)"
        stroke-width="3"
        stroke-linejoin="round"
        stroke-linecap="round"
        d="M5.00 46.0001 C 5.75 44.70, 9.11 38.49, 10.00 37.29 S 13.87 31.50, 15.00 32.49 S 18.54 45.64, 20.00 46.00 S 24.27 36.26, 25.00 34.95 S 28.65 28.74, 30.00 28.08 S 33.79 29.14, 35.00 30.03 S 38.50 35.36, 40.00 35.40 S 44.12 31.56, 45.00 30.34 S 48.66 22.23, 50.00 21.55 S 53.52 25.55, 55.00 25.28 S 58.90 20.75, 60.00 19.73 S 63.68 15.29, 65.00 16.00 S 69.10 23.95, 70.00 25.15 S 73.77 28.53, 75.00 29.38 S 78.51 32.19, 80.00 32.06 S 83.76 29.32, 85.00 28.48 S 88.73 26.06, 90.00 25.26 S 93.93 21.22, 95.00 22.27 S 99.07 33.97, 100.00 35.15 S 104.15 36.15, 105.00 34.91 S 109.00 19.59, 110.00 20.70 S 114.45 44.61, 115.00 46.00 S 119.24 47.29, 120.00 46.00 S 124.05 30.22, 125.00 29.06 S 129.24 32.52, 130.00 33.81 S 134.05 44.84, 135.00 46.00 S 139.38 47.37, 140.00 46.00 S 144.09 25.01, 145.00 23.82 S 149.38 31.63, 150.00 33.00 S 153.50 46.06, 155.00 46.00 S 158.50 32.61, 160.00 32.61 S 164.10 44.80, 165.00 46.00 S 169.13 47.22, 170.00 46.00 S 174.13 33.27, 175.00 32.04 S 178.50 31.92, 180.00 31.86 S 184.13 30.46, 185.00 31.68 S 189.14 44.77, 190.00 46.00 S 194.36 47.35, 195.00 46.00 S 198.50 25.00, 200.00 25.00 S 204.65 44.54, 205.00 46.00"
        fill="none">
        <animate attributeName="stroke-dashoffset"
            from="426.49003481250224" to="0" dur="2.2s"/>
        <animate attributeName="stroke-dasharray"
            from="426.49003481250224" to="426.49003481250224"/>
    </path>
    <circle r="4" cx="5" cy="46" fill="#3023AE"/>
    <circle r="4" cx="205" cy="46" fill="#C86DD7" opacity="0">
        <animate attributeName="opacity"
            from="0" to="1" dur="0.1s" begin="2.2s" fill="freeze"/>
    </circle>
</svg>