<svg width="200" height="50" viewBox="0 0 210 50" xmlns="http://www.w3.org/2000/svg">
    <!-- 108 stargazers -->
    <!-- created at Fri May 08 2026 13:47:23 GMT+0000 (Coordinated Universal Time) -->
    <defs>
        <linearGradient id="stroke" x1="0%" y1="0%" x2="100%" y2="0%">
            <stop stop-color="#3023AE" offset="0%"/>
            <stop stop-color="#C86DD7" offset="100%"/>
        </linearGradient>
    </defs>
    <path stroke="url(#stroke)"
        stroke-width="3"
        stroke-linejoin="round"
        stroke-linecap="round"
        d="M5.00 46.0001 C 5.75 44.70, 9.11 38.49, 10.00 37.29 S 13.87 31.50, 15.00 32.49 S 18.54 45.64, 20.00 46.00 S 24.34 36.29, 25.00 34.95 S 28.51 25.88, 30.00 25.68 S 33.59 33.13, 35.00 33.63 S 38.57 29.71, 40.00 29.25 S 43.65 30.99, 45.00 30.34 S 48.92 25.48, 50.00 24.44 S 53.72 21.41, 55.00 20.62 S 58.64 18.94, 60.00 18.31 S 64.02 14.87, 65.00 16.00 S 69.34 28.50, 70.00 29.85 S 73.51 36.54, 75.00 36.40 S 78.97 30.01, 80.00 28.92 S 83.85 26.72, 85.00 25.77 S 89.34 19.26, 90.00 20.60 S 93.94 44.94, 95.00 46.00 S 99.38 32.02, 100.00 30.65 S 103.61 23.27, 105.00 23.83 S 109.38 33.32, 110.00 34.69 S 113.68 46.70, 115.00 46.00 S 119.04 30.52, 120.00 29.37 S 124.23 32.74, 125.00 34.02 S 128.69 46.73, 130.00 46.00 S 134.27 29.78, 135.00 28.47 S 139.26 26.87, 140.00 28.18 S 143.65 45.35, 145.00 46.00 S 148.50 33.00, 150.00 33.00 S 154.09 44.81, 155.00 46.00 S 159.11 47.21, 160.00 46.00 S 164.12 33.63, 165.00 32.42 S 168.50 32.29, 170.00 32.23 S 174.12 30.83, 175.00 32.04 S 179.13 44.78, 180.00 46.00 S 184.34 47.35, 185.00 46.00 S 188.50 25.50, 190.00 25.50 S 193.69 45.26, 195.00 46.00 S 198.50 31.15, 200.00 31.15 S 204.52 44.58, 205.00 46.00"
        fill="none">
        <animate attributeName="stroke-dashoffset"
            from="457.52521354825" to="0" dur="2.2s"/>
        <animate attributeName="stroke-dasharray"
            from="457.52521354825" to="457.52521354825"/>
    </path>
    <circle r="4" cx="5" cy="46" fill="#3023AE"/>
    <circle r="4" cx="205" cy="46" fill="#C86DD7" opacity="0">
        <animate attributeName="opacity"
            from="0" to="1" dur="0.1s" begin="2.2s" fill="freeze"/>
    </circle>
</svg>