<svg width="200" height="50" viewBox="0 0 210 50" xmlns="http://www.w3.org/2000/svg">
    <!-- 17 stargazers -->
    <!-- created at Sat May 02 2026 12:52:16 GMT+0000 (Coordinated Universal Time) -->
    <defs>
        <linearGradient id="stroke" x1="0%" y1="0%" x2="100%" y2="0%">
            <stop stop-color="#3023AE" offset="0%"/>
            <stop stop-color="#C86DD7" offset="100%"/>
        </linearGradient>
    </defs>
    <path stroke="url(#stroke)"
        stroke-width="3"
        stroke-linejoin="round"
        stroke-linecap="round"
        d="M5.00 46.0001 C 5.45 44.57, 9.00 31.05, 10.00 29.93 S 13.80 33.95, 15.00 34.85 S 18.78 38.34, 20.00 37.48 S 23.86 26.79, 25.00 27.76 S 29.28 44.68, 30.00 46.00 S 33.50 46.00, 35.00 46.00 S 39.00 47.12, 40.00 46.00 S 43.50 34.82, 45.00 34.82 S 49.00 44.88, 50.00 46.00 S 53.50 46.00, 55.00 46.00 S 58.50 46.00, 60.00 46.00 S 63.50 46.00, 65.00 46.00 S 68.50 46.00, 70.00 46.00 S 73.50 46.00, 75.00 46.00 S 78.50 46.00, 80.00 46.00 S 83.50 46.00, 85.00 46.00 S 88.50 46.00, 90.00 46.00 S 94.19 47.26, 95.00 46.00 S 98.50 30.50, 100.00 30.50 S 104.19 44.74, 105.00 46.00 S 108.50 46.00, 110.00 46.00 S 113.50 46.00, 115.00 46.00 S 118.50 46.00, 120.00 46.00 S 123.50 46.00, 125.00 46.00 S 128.50 46.00, 130.00 46.00 S 133.50 46.00, 135.00 46.00 S 138.50 46.00, 140.00 46.00 S 143.50 46.00, 145.00 46.00 S 148.50 46.00, 150.00 46.00 S 153.50 46.00, 155.00 46.00 S 159.31 47.33, 160.00 46.00 S 163.50 26.59, 165.00 26.59 S 169.31 44.67, 170.00 46.00 S 173.50 46.00, 175.00 46.00 S 178.50 46.00, 180.00 46.00 S 183.50 46.00, 185.00 46.00 S 188.50 46.00, 190.00 46.00 S 194.53 47.42, 195.00 46.00 S 198.50 16.00, 200.00 16.00 S 204.75 44.52, 205.00 46.00"
        fill="none">
        <animate attributeName="stroke-dashoffset"
            from="356.4088455961033" to="0" dur="2.2s"/>
        <animate attributeName="stroke-dasharray"
            from="356.4088455961033" to="356.4088455961033"/>
    </path>
    <circle r="4" cx="5" cy="46" fill="#3023AE"/>
    <circle r="4" cx="205" cy="46" fill="#C86DD7" opacity="0">
        <animate attributeName="opacity"
            from="0" to="1" dur="0.1s" begin="2.2s" fill="freeze"/>
    </circle>
</svg>