<svg width="200" height="50" viewBox="0 0 210 50" xmlns="http://www.w3.org/2000/svg">
    <!-- 86083 stargazers -->
    <!-- created at Thu Mar 19 2026 10:41:11 GMT+0000 (Coordinated Universal Time) -->
    <defs>
        <linearGradient id="stroke" x1="0%" y1="0%" x2="100%" y2="0%">
            <stop stop-color="#3023AE" offset="0%"/>
            <stop stop-color="#C86DD7" offset="100%"/>
        </linearGradient>
    </defs>
    <path stroke="url(#stroke)"
        stroke-width="3"
        stroke-linejoin="round"
        stroke-linecap="round"
        d="M5.00 46.0001 C 5.44 44.57, 8.97 30.80, 10.00 29.71 S 13.67 34.74, 15.00 35.43 S 19.31 36.21, 20.00 34.87 S 24.21 17.27, 25.00 16.00 S 28.64 18.18, 30.00 18.81 S 33.72 19.87, 35.00 20.66 S 38.54 25.31, 40.00 24.98 S 43.56 18.85, 45.00 18.44 S 48.74 21.32, 50.00 22.13 S 53.50 24.95, 55.00 24.88 S 58.55 22.01, 60.00 21.63 S 63.58 21.76, 65.00 22.26 S 68.51 25.32, 70.00 25.15 S 73.54 20.79, 75.00 21.14 S 78.60 26.95, 80.00 27.49 S 83.53 25.38, 85.00 25.07 S 88.50 25.25, 90.00 25.31 S 93.90 26.49, 95.00 25.46 S 98.52 15.81, 100.00 16.03 S 103.91 25.88, 105.00 26.90 S 108.50 25.41, 110.00 25.40 S 113.53 26.53, 115.00 26.84 S 118.50 27.41, 120.00 27.49 S 123.51 27.23, 125.00 27.41 S 128.53 28.39, 130.00 28.69 S 133.56 29.87, 135.00 29.44 S 138.69 26.43, 140.00 25.70 S 143.58 23.37, 145.00 23.86 S 148.65 28.50, 150.00 29.15 S 153.51 28.84, 155.00 28.68 S 158.50 27.97, 160.00 28.09 S 163.52 29.22, 165.00 29.44 S 168.51 29.40, 170.00 29.53 S 173.50 30.26, 175.00 30.30 S 178.51 29.63, 180.00 29.79 S 183.51 31.61, 185.00 31.40 S 188.50 28.43, 190.00 28.38 S 193.53 30.69, 195.00 31.01 S 198.50 30.66, 200.00 30.54 S 203.50 30.32, 205.00 30.22"
        fill="none">
        <animate attributeName="stroke-dashoffset"
            from="266.83852604820987" to="0" dur="2.2s"/>
        <animate attributeName="stroke-dasharray"
            from="266.83852604820987" to="266.83852604820987"/>
    </path>
    <circle r="4" cx="5" cy="46" fill="#3023AE"/>
    <circle r="4" cx="205" cy="30.21922959513401" fill="#C86DD7" opacity="0">
        <animate attributeName="opacity"
            from="0" to="1" dur="0.1s" begin="2.2s" fill="freeze"/>
    </circle>
</svg>