<svg width="200" height="50" viewBox="0 0 210 50" xmlns="http://www.w3.org/2000/svg">
    <!-- 86865 stargazers -->
    <!-- created at Sat May 16 2026 21:55:20 GMT+0000 (Coordinated Universal Time) -->
    <defs>
        <linearGradient id="stroke" x1="0%" y1="0%" x2="100%" y2="0%">
            <stop stop-color="#3023AE" offset="0%"/>
            <stop stop-color="#C86DD7" offset="100%"/>
        </linearGradient>
    </defs>
    <path stroke="url(#stroke)"
        stroke-width="3"
        stroke-linejoin="round"
        stroke-linecap="round"
        d="M5.00 46.0001 C 5.46 44.57, 8.94 31.63, 10.00 30.57 S 13.65 35.32, 15.00 35.97 S 19.33 36.74, 20.00 35.40 S 24.16 17.24, 25.00 16.00 S 28.77 19.85, 30.00 20.71 S 33.70 22.23, 35.00 22.99 S 38.66 27.22, 40.00 26.55 S 43.51 18.17, 45.00 18.03 S 48.80 24.73, 50.00 25.63 S 53.59 26.05, 55.00 25.54 S 58.51 22.21, 60.00 22.07 S 63.50 24.55, 65.00 24.62 S 68.53 22.26, 70.00 22.57 S 73.67 26.01, 75.00 26.69 S 78.51 27.90, 80.00 27.72 S 83.51 25.65, 85.00 25.50 S 88.80 27.65, 90.00 26.75 S 93.50 17.93, 95.00 17.93 S 98.91 25.70, 100.00 26.72 S 103.50 27.26, 105.00 27.35 S 108.51 27.12, 110.00 27.29 S 113.50 28.37, 115.00 28.47 S 118.51 27.87, 120.00 28.02 S 123.54 29.15, 125.00 29.49 S 128.60 30.87, 130.00 30.34 S 133.61 26.24, 135.00 25.68 S 138.61 25.77, 140.00 26.33 S 143.57 29.28, 145.00 29.73 S 148.50 29.55, 150.00 29.49 S 153.50 29.27, 155.00 29.32 S 158.51 29.63, 160.00 29.83 S 163.51 30.53, 165.00 30.67 S 168.51 30.63, 170.00 30.78 S 173.51 31.82, 175.00 31.66 S 178.50 29.75, 180.00 29.68 S 183.53 30.90, 185.00 31.17 S 188.50 31.54, 190.00 31.56 S 193.50 31.39, 195.00 31.29 S 198.50 30.81, 200.00 30.93 S 203.54 31.73, 205.00 32.07"
        fill="none">
        <animate attributeName="stroke-dashoffset"
            from="263.33851259541393" to="0" dur="2.2s"/>
        <animate attributeName="stroke-dasharray"
            from="263.33851259541393" to="263.33851259541393"/>
    </path>
    <circle r="4" cx="5" cy="46" fill="#3023AE"/>
    <circle r="4" cx="205" cy="32.066423247943604" fill="#C86DD7" opacity="0">
        <animate attributeName="opacity"
            from="0" to="1" dur="0.1s" begin="2.2s" fill="freeze"/>
    </circle>
</svg>