<svg width="200" height="50" viewBox="0 0 210 50" xmlns="http://www.w3.org/2000/svg">
    <!-- 31 stargazers -->
    <!-- created at Wed Mar 25 2026 09:29:24 GMT+0000 (Coordinated Universal Time) -->
    <defs>
        <linearGradient id="stroke" x1="0%" y1="0%" x2="100%" y2="0%">
            <stop stop-color="#3023AE" offset="0%"/>
            <stop stop-color="#C86DD7" offset="100%"/>
        </linearGradient>
    </defs>
    <path stroke="url(#stroke)"
        stroke-width="3"
        stroke-linejoin="round"
        stroke-linecap="round"
        d="M5.00 46.0001 C 5.33 44.54, 9.48 24.94, 10.00 23.54 S 13.62 19.58, 15.00 19.00 S 19.48 17.95, 20.00 19.36 S 24.09 44.81, 25.00 46.00 S 29.14 33.70, 30.00 32.47 S 33.52 31.95, 35.00 31.73 S 38.51 31.24, 40.00 31.03 S 44.17 29.12, 45.00 30.36 S 49.19 44.74, 50.00 46.00 S 53.50 46.00, 55.00 46.00 S 59.45 47.40, 60.00 46.00 S 64.47 21.85, 65.00 20.45 S 69.45 18.26, 70.00 19.66 S 74.47 44.60, 75.00 46.00 S 79.33 47.34, 80.00 46.00 S 83.50 25.79, 85.00 25.79 S 88.93 47.05, 90.00 46.00 S 93.50 16.02, 95.00 16.02 S 99.53 44.58, 100.00 46.00 S 103.50 46.00, 105.00 46.00 S 108.50 46.00, 110.00 46.00 S 114.41 47.38, 115.00 46.00 S 118.50 22.51, 120.00 22.51 S 124.41 44.62, 125.00 46.00 S 128.50 46.00, 130.00 46.00 S 133.50 46.00, 135.00 46.00 S 138.50 46.00, 140.00 46.00 S 144.46 47.40, 145.00 46.00 S 148.50 20.03, 150.00 20.03 S 154.46 44.60, 155.00 46.00 S 158.50 46.00, 160.00 46.00 S 163.50 46.00, 165.00 46.00 S 168.50 46.00, 170.00 46.00 S 174.50 47.41, 175.00 46.00 S 178.50 17.76, 180.00 17.76 S 184.50 44.59, 185.00 46.00 S 188.50 46.00, 190.00 46.00 S 193.50 46.00, 195.00 46.00 S 199.53 47.42, 200.00 46.00 S 204.75 17.48, 205.00 16.00"
        fill="none">
        <animate attributeName="stroke-dashoffset"
            from="549.0252535810636" to="0" dur="2.2s"/>
        <animate attributeName="stroke-dasharray"
            from="549.0252535810636" to="549.0252535810636"/>
    </path>
    <circle r="4" cx="5" cy="46" fill="#3023AE"/>
    <circle r="4" cx="205" cy="16" fill="#C86DD7" opacity="0">
        <animate attributeName="opacity"
            from="0" to="1" dur="0.1s" begin="2.2s" fill="freeze"/>
    </circle>
</svg>