<svg width="200" height="50" viewBox="0 0 210 50" xmlns="http://www.w3.org/2000/svg">
    <!-- 34 stargazers -->
    <!-- created at Wed Apr 29 2026 14:08:07 GMT+0000 (Coordinated Universal Time) -->
    <defs>
        <linearGradient id="stroke" x1="0%" y1="0%" x2="100%" y2="0%">
            <stop stop-color="#3023AE" offset="0%"/>
            <stop stop-color="#C86DD7" offset="100%"/>
        </linearGradient>
    </defs>
    <path stroke="url(#stroke)"
        stroke-width="3"
        stroke-linejoin="round"
        stroke-linecap="round"
        d="M5.00 46.0001 C 5.35 44.54, 9.12 26.65, 10.00 25.43 S 13.51 31.99, 15.00 32.18 S 18.64 26.09, 20.00 26.72 S 23.91 35.74, 25.00 36.77 S 28.51 36.37, 30.00 36.21 S 33.51 35.83, 35.00 35.68 S 38.96 34.09, 40.00 35.17 S 43.98 44.90, 45.00 46.00 S 49.05 47.16, 50.00 46.00 S 54.38 35.14, 55.00 33.77 S 59.05 22.91, 60.00 24.07 S 63.85 45.03, 65.00 46.00 S 68.50 32.52, 70.00 32.52 S 73.75 46.83, 75.00 46.00 S 78.50 25.84, 80.00 25.84 S 84.33 44.66, 85.00 46.00 S 88.50 46.00, 90.00 46.00 S 94.19 47.26, 95.00 46.00 S 98.50 30.31, 100.00 30.31 S 104.19 44.74, 105.00 46.00 S 108.50 46.00, 110.00 46.00 S 113.50 46.00, 115.00 46.00 S 119.25 47.30, 120.00 46.00 S 123.50 28.69, 125.00 28.69 S 129.25 44.70, 130.00 46.00 S 133.50 46.00, 135.00 46.00 S 139.29 47.32, 140.00 46.00 S 143.50 27.49, 145.00 27.49 S 149.29 44.68, 150.00 46.00 S 153.50 46.00, 155.00 46.00 S 159.32 47.34, 160.00 46.00 S 164.33 27.70, 165.00 26.36 S 169.32 24.75, 170.00 26.09 S 174.33 44.66, 175.00 46.00 S 178.50 46.00, 180.00 46.00 S 183.50 46.00, 185.00 46.00 S 189.53 47.42, 190.00 46.00 S 193.50 16.00, 195.00 16.00 S 199.53 44.58, 200.00 46.00 S 203.50 46.00, 205.00 46.00"
        fill="none">
        <animate attributeName="stroke-dashoffset"
            from="483.8409587843752" to="0" dur="2.2s"/>
        <animate attributeName="stroke-dasharray"
            from="483.8409587843752" to="483.8409587843752"/>
    </path>
    <circle r="4" cx="5" cy="46" fill="#3023AE"/>
    <circle r="4" cx="205" cy="46" fill="#C86DD7" opacity="0">
        <animate attributeName="opacity"
            from="0" to="1" dur="0.1s" begin="2.2s" fill="freeze"/>
    </circle>
</svg>