<svg width="200" height="50" viewBox="0 0 210 50" xmlns="http://www.w3.org/2000/svg">
    <!-- 31 stargazers -->
    <!-- created at Sat Mar 28 2026 18:32:38 GMT+0000 (Coordinated Universal Time) -->
    <defs>
        <linearGradient id="stroke" x1="0%" y1="0%" x2="100%" y2="0%">
            <stop stop-color="#3023AE" offset="0%"/>
            <stop stop-color="#C86DD7" offset="100%"/>
        </linearGradient>
    </defs>
    <path stroke="url(#stroke)"
        stroke-width="3"
        stroke-linejoin="round"
        stroke-linecap="round"
        d="M5.00 46.0001 C 5.32 44.54, 9.48 24.68, 10.00 23.28 S 13.62 19.28, 15.00 18.69 S 19.48 17.64, 20.00 19.05 S 24.10 44.80, 25.00 46.00 S 29.15 33.55, 30.00 32.32 S 33.52 31.79, 35.00 31.57 S 38.51 31.07, 40.00 30.86 S 44.17 28.93, 45.00 30.18 S 49.20 44.73, 50.00 46.00 S 53.50 46.00, 55.00 46.00 S 59.46 47.40, 60.00 46.00 S 64.47 21.56, 65.00 20.15 S 69.46 17.95, 70.00 19.35 S 74.47 44.60, 75.00 46.00 S 79.34 47.35, 80.00 46.00 S 84.35 26.91, 85.00 25.56 S 88.51 25.20, 90.00 25.05 S 94.35 23.20, 95.00 24.56 S 99.37 44.64, 100.00 46.00 S 103.50 46.00, 105.00 46.00 S 108.50 46.00, 110.00 46.00 S 114.42 47.38, 115.00 46.00 S 118.50 22.24, 120.00 22.24 S 124.42 44.62, 125.00 46.00 S 128.50 46.00, 130.00 46.00 S 133.50 46.00, 135.00 46.00 S 138.50 46.00, 140.00 46.00 S 144.47 47.40, 145.00 46.00 S 148.50 19.72, 150.00 19.72 S 154.47 44.60, 155.00 46.00 S 158.50 46.00, 160.00 46.00 S 163.50 46.00, 165.00 46.00 S 169.50 47.41, 170.00 46.00 S 173.50 17.80, 175.00 17.80 S 179.50 44.59, 180.00 46.00 S 183.50 46.00, 185.00 46.00 S 188.50 46.00, 190.00 46.00 S 194.53 47.42, 195.00 46.00 S 198.50 16.00, 200.00 16.00 S 204.75 44.52, 205.00 46.00"
        fill="none">
        <animate attributeName="stroke-dashoffset"
            from="527.7778063348537" to="0" dur="2.2s"/>
        <animate attributeName="stroke-dasharray"
            from="527.7778063348537" to="527.7778063348537"/>
    </path>
    <circle r="4" cx="5" cy="46" fill="#3023AE"/>
    <circle r="4" cx="205" cy="46" fill="#C86DD7" opacity="0">
        <animate attributeName="opacity"
            from="0" to="1" dur="0.1s" begin="2.2s" fill="freeze"/>
    </circle>
</svg>