<svg width="200" height="50" viewBox="0 0 210 50" xmlns="http://www.w3.org/2000/svg">
    <!-- 32 stargazers -->
    <!-- created at Fri Apr 10 2026 08:17:14 GMT+0000 (Coordinated Universal Time) -->
    <defs>
        <linearGradient id="stroke" x1="0%" y1="0%" x2="100%" y2="0%">
            <stop stop-color="#3023AE" offset="0%"/>
            <stop stop-color="#C86DD7" offset="100%"/>
        </linearGradient>
    </defs>
    <path stroke="url(#stroke)"
        stroke-width="3"
        stroke-linejoin="round"
        stroke-linecap="round"
        d="M5.00 46.0001 C 5.34 44.54, 9.46 25.87, 10.00 24.47 S 13.61 20.68, 15.00 20.12 S 19.11 19.25, 20.00 20.46 S 24.45 32.38, 25.00 33.78 S 28.78 46.87, 30.00 46.00 S 34.14 27.89, 35.00 26.66 S 39.31 30.32, 40.00 31.65 S 44.14 44.77, 45.00 46.00 S 48.50 46.00, 50.00 46.00 S 54.23 47.29, 55.00 46.00 S 59.53 30.65, 60.00 29.23 S 64.23 14.71, 65.00 16.00 S 69.53 44.58, 70.00 46.00 S 74.30 47.33, 75.00 46.00 S 79.31 28.45, 80.00 27.12 S 83.51 26.77, 85.00 26.63 S 89.31 24.81, 90.00 26.15 S 94.33 44.66, 95.00 46.00 S 98.50 46.00, 100.00 46.00 S 104.37 47.36, 105.00 46.00 S 108.50 24.33, 110.00 24.33 S 114.37 44.64, 115.00 46.00 S 118.50 46.00, 120.00 46.00 S 123.50 46.00, 125.00 46.00 S 128.50 46.00, 130.00 46.00 S 134.43 47.39, 135.00 46.00 S 138.50 21.87, 140.00 21.87 S 144.43 44.61, 145.00 46.00 S 148.50 46.00, 150.00 46.00 S 154.46 47.40, 155.00 46.00 S 158.50 20.36, 160.00 20.36 S 164.46 44.60, 165.00 46.00 S 168.50 46.00, 170.00 46.00 S 173.50 46.00, 175.00 46.00 S 179.49 47.41, 180.00 46.00 S 183.50 18.58, 185.00 18.58 S 188.50 46.10, 190.00 46.00 S 193.50 17.90, 195.00 17.90 S 199.50 44.59, 200.00 46.00 S 203.50 46.00, 205.00 46.00"
        fill="none">
        <animate attributeName="stroke-dashoffset"
            from="556.7163014352788" to="0" dur="2.2s"/>
        <animate attributeName="stroke-dasharray"
            from="556.7163014352788" to="556.7163014352788"/>
    </path>
    <circle r="4" cx="5" cy="46" fill="#3023AE"/>
    <circle r="4" cx="205" cy="46" fill="#C86DD7" opacity="0">
        <animate attributeName="opacity"
            from="0" to="1" dur="0.1s" begin="2.2s" fill="freeze"/>
    </circle>
</svg>