<svg width="200" height="50" viewBox="0 0 210 50" xmlns="http://www.w3.org/2000/svg">
    <!-- 31 stargazers -->
    <!-- created at Tue Mar 31 2026 18:36:51 GMT+0000 (Coordinated Universal Time) -->
    <defs>
        <linearGradient id="stroke" x1="0%" y1="0%" x2="100%" y2="0%">
            <stop stop-color="#3023AE" offset="0%"/>
            <stop stop-color="#C86DD7" offset="100%"/>
        </linearGradient>
    </defs>
    <path stroke="url(#stroke)"
        stroke-width="3"
        stroke-linejoin="round"
        stroke-linecap="round"
        d="M5.00 46.0001 C 5.32 44.53, 9.49 24.42, 10.00 23.01 S 13.62 18.96, 15.00 18.37 S 19.49 17.32, 20.00 18.73 S 24.10 44.80, 25.00 46.00 S 29.15 33.39, 30.00 32.15 S 33.82 32.32, 35.00 31.40 S 39.15 23.10, 40.00 24.34 S 44.37 44.64, 45.00 46.00 S 48.50 46.00, 50.00 46.00 S 54.27 47.31, 55.00 46.00 S 59.29 29.42, 60.00 28.10 S 63.89 28.51, 65.00 27.51 S 69.29 17.72, 70.00 19.04 S 73.76 45.16, 75.00 46.00 S 78.50 25.84, 80.00 25.84 S 83.51 46.15, 85.00 46.00 S 89.37 26.16, 90.00 24.80 S 94.36 22.95, 95.00 24.30 S 99.37 44.64, 100.00 46.00 S 103.50 46.00, 105.00 46.00 S 109.41 47.38, 110.00 46.00 S 113.50 22.41, 115.00 22.41 S 119.41 44.62, 120.00 46.00 S 123.50 46.00, 125.00 46.00 S 128.50 46.00, 130.00 46.00 S 133.50 46.00, 135.00 46.00 S 139.46 47.40, 140.00 46.00 S 143.50 19.82, 145.00 19.82 S 149.46 44.60, 150.00 46.00 S 153.50 46.00, 155.00 46.00 S 158.50 46.00, 160.00 46.00 S 164.50 47.41, 165.00 46.00 S 168.50 17.84, 170.00 17.84 S 174.50 44.59, 175.00 46.00 S 178.50 46.00, 180.00 46.00 S 183.50 46.00, 185.00 46.00 S 189.53 47.42, 190.00 46.00 S 193.50 16.00, 195.00 16.00 S 199.53 44.58, 200.00 46.00 S 203.50 46.00, 205.00 46.00"
        fill="none">
        <animate attributeName="stroke-dashoffset"
            from="567.4449637807812" to="0" dur="2.2s"/>
        <animate attributeName="stroke-dasharray"
            from="567.4449637807812" to="567.4449637807812"/>
    </path>
    <circle r="4" cx="5" cy="46" fill="#3023AE"/>
    <circle r="4" cx="205" cy="46" fill="#C86DD7" opacity="0">
        <animate attributeName="opacity"
            from="0" to="1" dur="0.1s" begin="2.2s" fill="freeze"/>
    </circle>
</svg>