<svg width="200" height="50" viewBox="0 0 210 50" xmlns="http://www.w3.org/2000/svg">
    <!-- 34 stargazers -->
    <!-- created at Fri May 15 2026 17:52:12 GMT+0000 (Coordinated Universal Time) -->
    <defs>
        <linearGradient id="stroke" x1="0%" y1="0%" x2="100%" y2="0%">
            <stop stop-color="#3023AE" offset="0%"/>
            <stop stop-color="#C86DD7" offset="100%"/>
        </linearGradient>
    </defs>
    <path stroke="url(#stroke)"
        stroke-width="3"
        stroke-linejoin="round"
        stroke-linecap="round"
        d="M5.00 46.0001 C 5.25 44.52, 9.19 17.26, 10.00 16.00 S 13.58 29.99, 15.00 30.49 S 18.56 19.07, 20.00 19.48 S 24.09 32.12, 25.00 33.31 S 28.79 33.43, 30.00 32.53 S 34.11 24.71, 35.00 25.92 S 39.33 44.66, 40.00 46.00 S 44.21 47.28, 45.00 46.00 S 49.23 31.09, 50.00 29.80 S 53.85 30.15, 55.00 29.18 S 58.51 21.55, 60.00 21.38 S 64.44 26.62, 65.00 28.01 S 68.88 47.00, 70.00 46.00 S 73.50 19.02, 75.00 19.02 S 79.48 44.59, 80.00 46.00 S 83.50 46.00, 85.00 46.00 S 89.36 47.36, 90.00 46.00 S 93.50 24.90, 95.00 24.90 S 99.36 44.64, 100.00 46.00 S 103.50 46.00, 105.00 46.00 S 109.40 47.38, 110.00 46.00 S 113.50 23.06, 115.00 23.06 S 119.40 44.62, 120.00 46.00 S 124.43 47.39, 125.00 46.00 S 128.50 21.76, 130.00 21.76 S 134.43 44.61, 135.00 46.00 S 138.50 46.00, 140.00 46.00 S 144.46 47.40, 145.00 46.00 S 149.47 21.55, 150.00 20.14 S 154.46 18.36, 155.00 19.75 S 159.47 44.60, 160.00 46.00 S 163.50 46.00, 165.00 46.00 S 169.49 47.41, 170.00 46.00 S 174.50 19.66, 175.00 18.25 S 179.49 16.48, 180.00 17.89 S 184.50 44.59, 185.00 46.00 S 188.50 46.00, 190.00 46.00 S 193.50 46.00, 195.00 46.00 S 198.50 46.00, 200.00 46.00 S 203.50 46.00, 205.00 46.00"
        fill="none">
        <animate attributeName="stroke-dashoffset"
            from="558.2420783024629" to="0" dur="2.2s"/>
        <animate attributeName="stroke-dasharray"
            from="558.2420783024629" to="558.2420783024629"/>
    </path>
    <circle r="4" cx="5" cy="46" fill="#3023AE"/>
    <circle r="4" cx="205" cy="46" fill="#C86DD7" opacity="0">
        <animate attributeName="opacity"
            from="0" to="1" dur="0.1s" begin="2.2s" fill="freeze"/>
    </circle>
</svg>