<svg width="200" height="50" viewBox="0 0 210 50" xmlns="http://www.w3.org/2000/svg">
    <!-- 32 stargazers -->
    <!-- created at Thu Apr 16 2026 10:34:51 GMT+0000 (Coordinated Universal Time) -->
    <defs>
        <linearGradient id="stroke" x1="0%" y1="0%" x2="100%" y2="0%">
            <stop stop-color="#3023AE" offset="0%"/>
            <stop stop-color="#C86DD7" offset="100%"/>
        </linearGradient>
    </defs>
    <path stroke="url(#stroke)"
        stroke-width="3"
        stroke-linejoin="round"
        stroke-linecap="round"
        d="M5.00 46.0001 C 5.29 44.53, 9.46 21.59, 10.00 20.19 S 13.53 20.47, 15.00 20.15 S 19.06 16.88, 20.00 18.05 S 24.49 31.22, 25.00 32.63 S 28.82 46.92, 30.00 46.00 S 34.19 26.10, 35.00 24.84 S 39.36 28.95, 40.00 30.30 S 44.19 44.73, 45.00 46.00 S 48.50 46.00, 50.00 46.00 S 54.46 47.40, 55.00 46.00 S 59.48 21.46, 60.00 20.05 S 64.46 17.80, 65.00 19.20 S 68.75 45.17, 70.00 46.00 S 73.50 25.89, 75.00 25.89 S 78.93 47.05, 80.00 46.00 S 83.50 16.02, 85.00 16.02 S 89.53 44.58, 90.00 46.00 S 93.50 46.00, 95.00 46.00 S 99.41 47.38, 100.00 46.00 S 103.50 22.77, 105.00 22.77 S 109.41 44.62, 110.00 46.00 S 113.50 46.00, 115.00 46.00 S 118.50 46.00, 120.00 46.00 S 123.50 46.00, 125.00 46.00 S 129.46 47.40, 130.00 46.00 S 133.50 20.03, 135.00 20.03 S 139.46 44.60, 140.00 46.00 S 143.50 46.00, 145.00 46.00 S 149.49 47.41, 150.00 46.00 S 153.50 18.35, 155.00 18.35 S 159.49 44.59, 160.00 46.00 S 163.50 46.00, 165.00 46.00 S 169.51 47.42, 170.00 46.00 S 173.50 16.76, 175.00 16.76 S 178.50 46.11, 180.00 46.00 S 183.50 16.00, 185.00 16.00 S 189.53 44.58, 190.00 46.00 S 193.50 46.00, 195.00 46.00 S 198.50 46.00, 200.00 46.00 S 203.50 46.00, 205.00 46.00"
        fill="none">
        <animate attributeName="stroke-dashoffset"
            from="632.5919859857761" to="0" dur="2.2s"/>
        <animate attributeName="stroke-dasharray"
            from="632.5919859857761" to="632.5919859857761"/>
    </path>
    <circle r="4" cx="5" cy="46" fill="#3023AE"/>
    <circle r="4" cx="205" cy="46" fill="#C86DD7" opacity="0">
        <animate attributeName="opacity"
            from="0" to="1" dur="0.1s" begin="2.2s" fill="freeze"/>
    </circle>
</svg>