<svg width="200" height="50" viewBox="0 0 210 50" xmlns="http://www.w3.org/2000/svg">
    <!-- 34 stargazers -->
    <!-- created at Tue May 12 2026 15:55:19 GMT+0000 (Coordinated Universal Time) -->
    <defs>
        <linearGradient id="stroke" x1="0%" y1="0%" x2="100%" y2="0%">
            <stop stop-color="#3023AE" offset="0%"/>
            <stop stop-color="#C86DD7" offset="100%"/>
        </linearGradient>
    </defs>
    <path stroke="url(#stroke)"
        stroke-width="3"
        stroke-linejoin="round"
        stroke-linecap="round"
        d="M5.00 46.0001 C 5.32 44.54, 9.03 24.50, 10.00 23.36 S 13.55 33.91, 15.00 34.29 S 18.53 25.67, 20.00 25.99 S 23.93 35.37, 25.00 36.42 S 28.69 36.57, 30.00 35.84 S 33.95 29.78, 35.00 30.85 S 39.17 44.75, 40.00 46.00 S 44.05 47.16, 45.00 46.00 S 49.07 34.95, 50.00 33.77 S 53.73 34.11, 55.00 33.31 S 59.07 26.24, 60.00 27.42 S 63.64 45.37, 65.00 46.00 S 69.34 33.36, 70.00 32.01 S 74.13 24.42, 75.00 25.64 S 79.34 44.65, 80.00 46.00 S 83.50 46.00, 85.00 46.00 S 89.20 47.27, 90.00 46.00 S 93.50 30.08, 95.00 30.08 S 99.20 44.73, 100.00 46.00 S 103.50 46.00, 105.00 46.00 S 109.25 47.30, 110.00 46.00 S 113.50 28.69, 115.00 28.69 S 119.25 44.70, 120.00 46.00 S 123.50 46.00, 125.00 46.00 S 129.29 47.32, 130.00 46.00 S 133.50 27.40, 135.00 27.40 S 139.29 44.68, 140.00 46.00 S 144.32 47.33, 145.00 46.00 S 148.50 26.49, 150.00 26.49 S 153.50 46.09, 155.00 46.00 S 158.50 25.91, 160.00 25.91 S 164.33 44.66, 165.00 46.00 S 168.50 46.00, 170.00 46.00 S 174.53 47.42, 175.00 46.00 S 178.50 16.00, 180.00 16.00 S 184.53 44.58, 185.00 46.00 S 188.50 46.00, 190.00 46.00 S 193.50 46.00, 195.00 46.00 S 198.50 46.00, 200.00 46.00 S 203.50 46.00, 205.00 46.00"
        fill="none">
        <animate attributeName="stroke-dashoffset"
            from="502.2923175266698" to="0" dur="2.2s"/>
        <animate attributeName="stroke-dasharray"
            from="502.2923175266698" to="502.2923175266698"/>
    </path>
    <circle r="4" cx="5" cy="46" fill="#3023AE"/>
    <circle r="4" cx="205" cy="46" fill="#C86DD7" opacity="0">
        <animate attributeName="opacity"
            from="0" to="1" dur="0.1s" begin="2.2s" fill="freeze"/>
    </circle>
</svg>