<svg width="200" height="50" viewBox="0 0 210 50" xmlns="http://www.w3.org/2000/svg">
    <!-- 30 stargazers -->
    <!-- created at Sun Mar 15 2026 19:02:03 GMT+0000 (Coordinated Universal Time) -->
    <defs>
        <linearGradient id="stroke" x1="0%" y1="0%" x2="100%" y2="0%">
            <stop stop-color="#3023AE" offset="0%"/>
            <stop stop-color="#C86DD7" offset="100%"/>
        </linearGradient>
    </defs>
    <path stroke="url(#stroke)"
        stroke-width="3"
        stroke-linejoin="round"
        stroke-linecap="round"
        d="M5.00 46.0001 C 5.33 44.54, 9.47 25.42, 10.00 24.02 S 13.61 20.15, 15.00 19.58 S 19.47 18.52, 20.00 19.92 S 24.08 44.82, 25.00 46.00 S 29.13 33.98, 30.00 32.76 S 33.51 32.25, 35.00 32.04 S 38.51 31.55, 40.00 31.35 S 44.15 29.46, 45.00 30.70 S 49.18 44.74, 50.00 46.00 S 53.50 46.00, 55.00 46.00 S 59.26 47.31, 60.00 46.00 S 64.28 29.63, 65.00 28.32 S 68.88 28.77, 70.00 27.77 S 74.28 18.16, 75.00 19.47 S 79.47 44.60, 80.00 46.00 S 84.34 47.35, 85.00 46.00 S 88.50 25.73, 90.00 25.73 S 93.93 47.05, 95.00 46.00 S 98.50 16.00, 100.00 16.00 S 104.53 44.58, 105.00 46.00 S 108.50 46.00, 110.00 46.00 S 113.50 46.00, 115.00 46.00 S 118.50 46.00, 120.00 46.00 S 124.42 47.38, 125.00 46.00 S 128.50 22.17, 130.00 22.17 S 134.42 44.62, 135.00 46.00 S 138.50 46.00, 140.00 46.00 S 143.50 46.00, 145.00 46.00 S 148.50 46.00, 150.00 46.00 S 153.50 46.00, 155.00 46.00 S 159.47 47.40, 160.00 46.00 S 163.50 19.45, 165.00 19.45 S 169.47 44.60, 170.00 46.00 S 173.50 46.00, 175.00 46.00 S 178.50 46.00, 180.00 46.00 S 184.50 47.41, 185.00 46.00 S 188.50 17.66, 190.00 17.66 S 194.50 44.59, 195.00 46.00 S 198.50 46.00, 200.00 46.00 S 203.50 46.00, 205.00 46.00"
        fill="none">
        <animate attributeName="stroke-dashoffset"
            from="520.7777461296544" to="0" dur="2.2s"/>
        <animate attributeName="stroke-dasharray"
            from="520.7777461296544" to="520.7777461296544"/>
    </path>
    <circle r="4" cx="5" cy="46" fill="#3023AE"/>
    <circle r="4" cx="205" cy="46" fill="#C86DD7" opacity="0">
        <animate attributeName="opacity"
            from="0" to="1" dur="0.1s" begin="2.2s" fill="freeze"/>
    </circle>
</svg>