<svg width="200" height="50" viewBox="0 0 210 50" xmlns="http://www.w3.org/2000/svg">
    <!-- 32 stargazers -->
    <!-- created at Fri Apr 03 2026 21:40:37 GMT+0000 (Coordinated Universal Time) -->
    <defs>
        <linearGradient id="stroke" x1="0%" y1="0%" x2="100%" y2="0%">
            <stop stop-color="#3023AE" offset="0%"/>
            <stop stop-color="#C86DD7" offset="100%"/>
        </linearGradient>
    </defs>
    <path stroke="url(#stroke)"
        stroke-width="3"
        stroke-linejoin="round"
        stroke-linecap="round"
        d="M5.00 46.0001 C 5.33 44.54, 9.48 24.94, 10.00 23.54 S 13.62 19.58, 15.00 19.00 S 19.48 17.95, 20.00 19.36 S 24.09 44.81, 25.00 46.00 S 29.33 33.82, 30.00 32.47 S 33.52 26.04, 35.00 25.83 S 39.33 29.69, 40.00 31.03 S 44.17 44.75, 45.00 46.00 S 48.50 46.00, 50.00 46.00 S 54.26 47.30, 55.00 46.00 S 59.27 29.82, 60.00 28.51 S 63.88 28.93, 65.00 27.93 S 69.27 18.35, 70.00 19.66 S 73.75 45.17, 75.00 46.00 S 78.50 26.30, 80.00 26.30 S 83.92 47.04, 85.00 46.00 S 88.50 16.71, 90.00 16.71 S 94.52 44.58, 95.00 46.00 S 98.50 46.00, 100.00 46.00 S 103.50 46.00, 105.00 46.00 S 109.40 47.38, 110.00 46.00 S 113.50 22.95, 115.00 22.95 S 119.40 44.62, 120.00 46.00 S 123.50 46.00, 125.00 46.00 S 128.50 46.00, 130.00 46.00 S 133.50 46.00, 135.00 46.00 S 139.45 47.40, 140.00 46.00 S 143.50 20.42, 145.00 20.42 S 149.45 44.60, 150.00 46.00 S 153.50 46.00, 155.00 46.00 S 159.48 47.41, 160.00 46.00 S 163.50 18.87, 165.00 18.87 S 169.48 44.59, 170.00 46.00 S 173.50 46.00, 175.00 46.00 S 178.50 46.00, 180.00 46.00 S 183.50 46.00, 185.00 46.00 S 189.52 47.42, 190.00 46.00 S 193.50 16.69, 195.00 16.69 S 198.50 46.10, 200.00 46.00 S 204.75 17.48, 205.00 16.00"
        fill="none">
        <animate attributeName="stroke-dashoffset"
            from="593.6029131787162" to="0" dur="2.2s"/>
        <animate attributeName="stroke-dasharray"
            from="593.6029131787162" to="593.6029131787162"/>
    </path>
    <circle r="4" cx="5" cy="46" fill="#3023AE"/>
    <circle r="4" cx="205" cy="16" fill="#C86DD7" opacity="0">
        <animate attributeName="opacity"
            from="0" to="1" dur="0.1s" begin="2.2s" fill="freeze"/>
    </circle>
</svg>