<svg width="200" height="50" viewBox="0 0 210 50" xmlns="http://www.w3.org/2000/svg">
    <!-- 34 stargazers -->
    <!-- created at Sun Apr 26 2026 13:27:22 GMT+0000 (Coordinated Universal Time) -->
    <defs>
        <linearGradient id="stroke" x1="0%" y1="0%" x2="100%" y2="0%">
            <stop stop-color="#3023AE" offset="0%"/>
            <stop stop-color="#C86DD7" offset="100%"/>
        </linearGradient>
    </defs>
    <path stroke="url(#stroke)"
        stroke-width="3"
        stroke-linejoin="round"
        stroke-linecap="round"
        d="M5.00 46.0001 C 5.26 44.52, 9.31 18.59, 10.00 17.26 S 13.52 26.43, 15.00 26.69 S 18.74 18.24, 20.00 19.05 S 24.10 31.91, 25.00 33.10 S 28.52 32.54, 30.00 32.32 S 33.52 31.79, 35.00 31.57 S 39.15 29.63, 40.00 30.86 S 44.17 44.75, 45.00 46.00 S 49.24 47.29, 50.00 46.00 S 54.26 30.21, 55.00 28.91 S 58.87 29.29, 60.00 28.31 S 64.26 18.85, 65.00 20.15 S 68.74 45.19, 70.00 46.00 S 74.50 28.02, 75.00 26.61 S 79.31 16.49, 80.00 17.82 S 84.50 44.59, 85.00 46.00 S 88.50 46.00, 90.00 46.00 S 94.38 47.36, 95.00 46.00 S 98.50 24.07, 100.00 24.07 S 104.38 44.64, 105.00 46.00 S 108.50 46.00, 110.00 46.00 S 113.50 46.00, 115.00 46.00 S 119.43 47.39, 120.00 46.00 S 123.50 21.80, 125.00 21.80 S 129.43 44.61, 130.00 46.00 S 133.50 46.00, 135.00 46.00 S 139.46 47.40, 140.00 46.00 S 143.50 20.13, 145.00 20.13 S 149.46 44.60, 150.00 46.00 S 153.50 46.00, 155.00 46.00 S 159.49 47.41, 160.00 46.00 S 163.50 18.55, 165.00 18.55 S 168.50 46.11, 170.00 46.00 S 173.50 17.80, 175.00 17.80 S 179.50 44.59, 180.00 46.00 S 183.50 46.00, 185.00 46.00 S 189.52 47.42, 190.00 46.00 S 194.53 17.77, 195.00 16.35 S 199.52 14.58, 200.00 16.00 S 204.75 44.52, 205.00 46.00"
        fill="none">
        <animate attributeName="stroke-dashoffset"
            from="606.6334100986559" to="0" dur="2.2s"/>
        <animate attributeName="stroke-dasharray"
            from="606.6334100986559" to="606.6334100986559"/>
    </path>
    <circle r="4" cx="5" cy="46" fill="#3023AE"/>
    <circle r="4" cx="205" cy="46" fill="#C86DD7" opacity="0">
        <animate attributeName="opacity"
            from="0" to="1" dur="0.1s" begin="2.2s" fill="freeze"/>
    </circle>
</svg>