<svg width="200" height="50" viewBox="0 0 210 50" xmlns="http://www.w3.org/2000/svg">
    <!-- 29 stargazers -->
    <!-- created at Wed Mar 04 2026 11:59:24 GMT+0000 (Coordinated Universal Time) -->
    <defs>
        <linearGradient id="stroke" x1="0%" y1="0%" x2="100%" y2="0%">
            <stop stop-color="#3023AE" offset="0%"/>
            <stop stop-color="#C86DD7" offset="100%"/>
        </linearGradient>
    </defs>
    <path stroke="url(#stroke)"
        stroke-width="3"
        stroke-linejoin="round"
        stroke-linecap="round"
        d="M5.00 46.0001 C 5.30 44.53, 9.51 23.24, 10.00 21.83 S 13.72 16.17, 15.00 16.95 S 18.67 27.16, 20.00 27.87 S 23.59 21.73, 25.00 22.24 S 29.42 30.06, 30.00 31.44 S 33.84 46.95, 35.00 46.00 S 39.23 24.51, 40.00 23.22 S 44.40 27.80, 45.00 29.17 S 49.23 44.71, 50.00 46.00 S 53.50 46.00, 55.00 46.00 S 58.50 46.00, 60.00 46.00 S 64.33 47.34, 65.00 46.00 S 69.35 27.30, 70.00 25.95 S 73.94 26.43, 75.00 25.37 S 79.35 14.67, 80.00 16.02 S 84.53 44.58, 85.00 46.00 S 89.40 47.37, 90.00 46.00 S 93.50 23.19, 95.00 23.19 S 98.51 46.15, 100.00 46.00 S 104.43 23.56, 105.00 22.17 S 109.42 20.29, 110.00 21.68 S 114.43 44.61, 115.00 46.00 S 118.50 46.00, 120.00 46.00 S 123.50 46.00, 125.00 46.00 S 128.50 46.00, 130.00 46.00 S 134.48 47.41, 135.00 46.00 S 138.50 18.91, 140.00 18.91 S 144.48 44.59, 145.00 46.00 S 148.50 46.00, 150.00 46.00 S 153.50 46.00, 155.00 46.00 S 158.50 46.00, 160.00 46.00 S 163.50 46.00, 165.00 46.00 S 169.53 47.42, 170.00 46.00 S 173.50 16.00, 175.00 16.00 S 179.53 44.58, 180.00 46.00 S 183.50 46.00, 185.00 46.00 S 188.50 46.00, 190.00 46.00 S 193.50 46.00, 195.00 46.00 S 198.50 46.00, 200.00 46.00 S 203.50 46.00, 205.00 46.00"
        fill="none">
        <animate attributeName="stroke-dashoffset"
            from="506.0680009276424" to="0" dur="2.2s"/>
        <animate attributeName="stroke-dasharray"
            from="506.0680009276424" to="506.0680009276424"/>
    </path>
    <circle r="4" cx="5" cy="46" fill="#3023AE"/>
    <circle r="4" cx="205" cy="46" fill="#C86DD7" opacity="0">
        <animate attributeName="opacity"
            from="0" to="1" dur="0.1s" begin="2.2s" fill="freeze"/>
    </circle>
</svg>