<svg width="200" height="50" viewBox="0 0 210 50" xmlns="http://www.w3.org/2000/svg">
    <!-- 34 stargazers -->
    <!-- created at Sat May 09 2026 14:16:44 GMT+0000 (Coordinated Universal Time) -->
    <defs>
        <linearGradient id="stroke" x1="0%" y1="0%" x2="100%" y2="0%">
            <stop stop-color="#3023AE" offset="0%"/>
            <stop stop-color="#C86DD7" offset="100%"/>
        </linearGradient>
    </defs>
    <path stroke="url(#stroke)"
        stroke-width="3"
        stroke-linejoin="round"
        stroke-linecap="round"
        d="M5.00 46.0001 C 5.25 44.52, 9.19 17.26, 10.00 16.00 S 13.58 29.99, 15.00 30.49 S 18.56 19.07, 20.00 19.48 S 24.09 32.12, 25.00 33.31 S 28.79 33.43, 30.00 32.53 S 34.11 24.71, 35.00 25.92 S 39.33 44.66, 40.00 46.00 S 43.50 46.00, 45.00 46.00 S 49.42 47.38, 50.00 46.00 S 54.44 23.60, 55.00 22.21 S 59.42 19.99, 60.00 21.38 S 63.72 45.22, 65.00 46.00 S 69.48 28.87, 70.00 27.46 S 74.29 17.70, 75.00 19.02 S 79.48 44.59, 80.00 46.00 S 83.50 46.00, 85.00 46.00 S 89.36 47.36, 90.00 46.00 S 93.50 24.90, 95.00 24.90 S 99.36 44.64, 100.00 46.00 S 103.50 46.00, 105.00 46.00 S 109.40 47.38, 110.00 46.00 S 113.50 23.06, 115.00 23.06 S 119.40 44.62, 120.00 46.00 S 123.50 46.00, 125.00 46.00 S 129.44 47.39, 130.00 46.00 S 133.50 21.35, 135.00 21.35 S 139.44 44.61, 140.00 46.00 S 143.50 46.00, 145.00 46.00 S 149.47 47.40, 150.00 46.00 S 154.47 21.16, 155.00 19.75 S 159.47 17.97, 160.00 19.37 S 164.47 44.60, 165.00 46.00 S 168.50 46.00, 170.00 46.00 S 174.50 47.41, 175.00 46.00 S 179.50 19.30, 180.00 17.89 S 184.50 16.12, 185.00 17.53 S 189.50 44.58, 190.00 46.00 S 193.50 46.00, 195.00 46.00 S 198.50 46.00, 200.00 46.00 S 203.50 46.00, 205.00 46.00"
        fill="none">
        <animate attributeName="stroke-dashoffset"
            from="563.5183313875157" to="0" dur="2.2s"/>
        <animate attributeName="stroke-dasharray"
            from="563.5183313875157" to="563.5183313875157"/>
    </path>
    <circle r="4" cx="5" cy="46" fill="#3023AE"/>
    <circle r="4" cx="205" cy="46" fill="#C86DD7" opacity="0">
        <animate attributeName="opacity"
            from="0" to="1" dur="0.1s" begin="2.2s" fill="freeze"/>
    </circle>
</svg>