<svg width="200" height="50" viewBox="0 0 210 50" xmlns="http://www.w3.org/2000/svg">
    <!-- 30 stargazers -->
    <!-- created at Mon Mar 09 2026 09:19:07 GMT+0000 (Coordinated Universal Time) -->
    <defs>
        <linearGradient id="stroke" x1="0%" y1="0%" x2="100%" y2="0%">
            <stop stop-color="#3023AE" offset="0%"/>
            <stop stop-color="#C86DD7" offset="100%"/>
        </linearGradient>
    </defs>
    <path stroke="url(#stroke)"
        stroke-width="3"
        stroke-linejoin="round"
        stroke-linecap="round"
        d="M5.00 46.0001 C 5.34 44.54, 9.46 25.88, 10.00 24.48 S 13.61 20.70, 15.00 20.14 S 19.46 19.08, 20.00 20.48 S 24.07 44.83, 25.00 46.00 S 29.11 34.25, 30.00 33.04 S 33.51 32.54, 35.00 32.33 S 38.51 31.86, 40.00 31.66 S 44.14 29.79, 45.00 31.02 S 49.17 44.75, 50.00 46.00 S 53.50 46.00, 55.00 46.00 S 58.50 46.00, 60.00 46.00 S 64.27 47.31, 65.00 46.00 S 69.28 29.47, 70.00 28.16 S 73.88 28.63, 75.00 27.64 S 79.28 18.00, 80.00 19.32 S 84.47 44.60, 85.00 46.00 S 89.34 47.35, 90.00 46.00 S 93.50 25.69, 95.00 25.69 S 98.92 47.04, 100.00 46.00 S 103.50 16.00, 105.00 16.00 S 109.53 44.58, 110.00 46.00 S 113.50 46.00, 115.00 46.00 S 118.50 46.00, 120.00 46.00 S 123.50 46.00, 125.00 46.00 S 129.42 47.38, 130.00 46.00 S 133.50 22.28, 135.00 22.28 S 139.42 44.62, 140.00 46.00 S 143.50 46.00, 145.00 46.00 S 148.50 46.00, 150.00 46.00 S 153.50 46.00, 155.00 46.00 S 158.50 46.00, 160.00 46.00 S 164.47 47.40, 165.00 46.00 S 168.50 19.65, 170.00 19.65 S 174.47 44.60, 175.00 46.00 S 178.50 46.00, 180.00 46.00 S 183.50 46.00, 185.00 46.00 S 188.50 46.00, 190.00 46.00 S 194.50 47.41, 195.00 46.00 S 198.50 17.59, 200.00 17.59 S 204.74 44.52, 205.00 46.00"
        fill="none">
        <animate attributeName="stroke-dashoffset"
            from="518.7508969535792" to="0" dur="2.2s"/>
        <animate attributeName="stroke-dasharray"
            from="518.7508969535792" to="518.7508969535792"/>
    </path>
    <circle r="4" cx="5" cy="46" fill="#3023AE"/>
    <circle r="4" cx="205" cy="46" fill="#C86DD7" opacity="0">
        <animate attributeName="opacity"
            from="0" to="1" dur="0.1s" begin="2.2s" fill="freeze"/>
    </circle>
</svg>