<svg width="200" height="50" viewBox="0 0 210 50" xmlns="http://www.w3.org/2000/svg">
    <!-- 34 stargazers -->
    <!-- created at Sun May 03 2026 02:38:54 GMT+0000 (Coordinated Universal Time) -->
    <defs>
        <linearGradient id="stroke" x1="0%" y1="0%" x2="100%" y2="0%">
            <stop stop-color="#3023AE" offset="0%"/>
            <stop stop-color="#C86DD7" offset="100%"/>
        </linearGradient>
    </defs>
    <path stroke="url(#stroke)"
        stroke-width="3"
        stroke-linejoin="round"
        stroke-linecap="round"
        d="M5.00 46.0001 C 5.25 44.52, 9.19 17.26, 10.00 16.00 S 13.58 29.99, 15.00 30.49 S 18.56 19.07, 20.00 19.48 S 24.09 32.12, 25.00 33.31 S 28.52 32.76, 30.00 32.53 S 33.52 32.01, 35.00 31.80 S 39.14 29.88, 40.00 31.10 S 44.16 44.75, 45.00 46.00 S 49.42 47.38, 50.00 46.00 S 54.44 23.60, 55.00 22.21 S 59.42 19.99, 60.00 21.38 S 63.72 45.22, 65.00 46.00 S 69.30 28.79, 70.00 27.46 S 73.51 27.08, 75.00 26.92 S 79.30 25.07, 80.00 26.39 S 84.32 44.66, 85.00 46.00 S 88.50 46.00, 90.00 46.00 S 94.37 47.36, 95.00 46.00 S 98.50 24.42, 100.00 24.42 S 104.37 44.64, 105.00 46.00 S 108.50 46.00, 110.00 46.00 S 114.41 47.38, 115.00 46.00 S 118.50 22.62, 120.00 22.62 S 124.41 44.62, 125.00 46.00 S 128.50 46.00, 130.00 46.00 S 134.44 47.39, 135.00 46.00 S 138.50 20.94, 140.00 20.94 S 144.44 44.61, 145.00 46.00 S 148.50 46.00, 150.00 46.00 S 154.47 47.40, 155.00 46.00 S 158.50 19.37, 160.00 19.37 S 163.50 46.11, 165.00 46.00 S 168.50 18.62, 170.00 18.62 S 174.49 44.59, 175.00 46.00 S 178.50 46.00, 180.00 46.00 S 184.51 47.42, 185.00 46.00 S 189.51 18.59, 190.00 17.17 S 194.51 15.41, 195.00 16.82 S 199.51 44.58, 200.00 46.00 S 203.50 46.00, 205.00 46.00"
        fill="none">
        <animate attributeName="stroke-dashoffset"
            from="593.3274595637197" to="0" dur="2.2s"/>
        <animate attributeName="stroke-dasharray"
            from="593.3274595637197" to="593.3274595637197"/>
    </path>
    <circle r="4" cx="5" cy="46" fill="#3023AE"/>
    <circle r="4" cx="205" cy="46" fill="#C86DD7" opacity="0">
        <animate attributeName="opacity"
            from="0" to="1" dur="0.1s" begin="2.2s" fill="freeze"/>
    </circle>
</svg>