<svg width="200" height="50" viewBox="0 0 210 50" xmlns="http://www.w3.org/2000/svg">
    <!-- 30 stargazers -->
    <!-- created at Thu Mar 12 2026 10:53:23 GMT+0000 (Coordinated Universal Time) -->
    <defs>
        <linearGradient id="stroke" x1="0%" y1="0%" x2="100%" y2="0%">
            <stop stop-color="#3023AE" offset="0%"/>
            <stop stop-color="#C86DD7" offset="100%"/>
        </linearGradient>
    </defs>
    <path stroke="url(#stroke)"
        stroke-width="3"
        stroke-linejoin="round"
        stroke-linecap="round"
        d="M5.00 46.0001 C 5.32 44.53, 9.49 24.42, 10.00 23.01 S 13.62 18.96, 15.00 18.37 S 19.49 17.32, 20.00 18.73 S 24.10 44.80, 25.00 46.00 S 29.15 33.39, 30.00 32.15 S 33.52 31.62, 35.00 31.40 S 38.51 30.89, 40.00 30.68 S 44.18 28.74, 45.00 30.00 S 49.21 44.73, 50.00 46.00 S 53.50 46.00, 55.00 46.00 S 58.50 46.00, 60.00 46.00 S 64.48 47.41, 65.00 46.00 S 69.49 20.45, 70.00 19.04 S 74.48 16.85, 75.00 18.25 S 79.49 44.59, 80.00 46.00 S 84.36 47.36, 85.00 46.00 S 88.50 24.80, 90.00 24.80 S 93.51 46.15, 95.00 46.00 S 99.39 25.19, 100.00 23.81 S 104.38 21.97, 105.00 23.33 S 109.39 44.63, 110.00 46.00 S 113.50 46.00, 115.00 46.00 S 118.50 46.00, 120.00 46.00 S 124.44 47.39, 125.00 46.00 S 128.50 21.08, 130.00 21.08 S 134.44 44.61, 135.00 46.00 S 138.50 46.00, 140.00 46.00 S 143.50 46.00, 145.00 46.00 S 148.50 46.00, 150.00 46.00 S 153.50 46.00, 155.00 46.00 S 159.49 47.41, 160.00 46.00 S 163.50 18.23, 165.00 18.23 S 169.49 44.59, 170.00 46.00 S 173.50 46.00, 175.00 46.00 S 178.50 46.00, 180.00 46.00 S 183.50 46.00, 185.00 46.00 S 189.53 47.42, 190.00 46.00 S 193.50 16.00, 195.00 16.00 S 199.53 44.58, 200.00 46.00 S 203.50 46.00, 205.00 46.00"
        fill="none">
        <animate attributeName="stroke-dashoffset"
            from="525.3619874239396" to="0" dur="2.2s"/>
        <animate attributeName="stroke-dasharray"
            from="525.3619874239396" to="525.3619874239396"/>
    </path>
    <circle r="4" cx="5" cy="46" fill="#3023AE"/>
    <circle r="4" cx="205" cy="46" fill="#C86DD7" opacity="0">
        <animate attributeName="opacity"
            from="0" to="1" dur="0.1s" begin="2.2s" fill="freeze"/>
    </circle>
</svg>