<svg width="200" height="50" viewBox="0 0 210 50" xmlns="http://www.w3.org/2000/svg">
    <!-- 30 stargazers -->
    <!-- created at Sun Mar 22 2026 08:23:59 GMT+0000 (Coordinated Universal Time) -->
    <defs>
        <linearGradient id="stroke" x1="0%" y1="0%" x2="100%" y2="0%">
            <stop stop-color="#3023AE" offset="0%"/>
            <stop stop-color="#C86DD7" offset="100%"/>
        </linearGradient>
    </defs>
    <path stroke="url(#stroke)"
        stroke-width="3"
        stroke-linejoin="round"
        stroke-linecap="round"
        d="M5.00 46.0001 C 5.33 44.54, 9.48 24.93, 10.00 23.52 S 13.62 19.56, 15.00 18.99 S 19.48 17.93, 20.00 19.34 S 24.09 44.81, 25.00 46.00 S 29.14 33.69, 30.00 32.46 S 33.52 31.94, 35.00 31.72 S 38.51 31.23, 40.00 31.02 S 44.17 29.11, 45.00 30.35 S 49.19 44.74, 50.00 46.00 S 53.50 46.00, 55.00 46.00 S 59.27 47.31, 60.00 46.00 S 64.29 29.24, 65.00 27.92 S 68.89 28.37, 70.00 27.36 S 74.29 17.55, 75.00 18.87 S 78.77 45.15, 80.00 46.00 S 83.50 25.78, 85.00 25.78 S 88.93 47.05, 90.00 46.00 S 93.50 16.00, 95.00 16.00 S 99.53 44.58, 100.00 46.00 S 103.50 46.00, 105.00 46.00 S 108.50 46.00, 110.00 46.00 S 113.50 46.00, 115.00 46.00 S 119.42 47.38, 120.00 46.00 S 123.50 22.06, 125.00 22.06 S 129.42 44.62, 130.00 46.00 S 133.50 46.00, 135.00 46.00 S 138.50 46.00, 140.00 46.00 S 143.50 46.00, 145.00 46.00 S 149.47 47.40, 150.00 46.00 S 153.50 19.62, 155.00 19.62 S 159.47 44.60, 160.00 46.00 S 163.50 46.00, 165.00 46.00 S 168.50 46.00, 170.00 46.00 S 174.50 47.41, 175.00 46.00 S 178.50 17.74, 180.00 17.74 S 184.50 44.59, 185.00 46.00 S 188.50 46.00, 190.00 46.00 S 193.50 46.00, 195.00 46.00 S 198.50 46.00, 200.00 46.00 S 203.50 46.00, 205.00 46.00"
        fill="none">
        <animate attributeName="stroke-dashoffset"
            from="522.8106132210116" to="0" dur="2.2s"/>
        <animate attributeName="stroke-dasharray"
            from="522.8106132210116" to="522.8106132210116"/>
    </path>
    <circle r="4" cx="5" cy="46" fill="#3023AE"/>
    <circle r="4" cx="205" cy="46" fill="#C86DD7" opacity="0">
        <animate attributeName="opacity"
            from="0" to="1" dur="0.1s" begin="2.2s" fill="freeze"/>
    </circle>
</svg>