<svg width="200" height="50" viewBox="0 0 210 50" xmlns="http://www.w3.org/2000/svg">
    <!-- 32 stargazers -->
    <!-- created at Mon Apr 13 2026 08:28:08 GMT+0000 (Coordinated Universal Time) -->
    <defs>
        <linearGradient id="stroke" x1="0%" y1="0%" x2="100%" y2="0%">
            <stop stop-color="#3023AE" offset="0%"/>
            <stop stop-color="#C86DD7" offset="100%"/>
        </linearGradient>
    </defs>
    <path stroke="url(#stroke)"
        stroke-width="3"
        stroke-linejoin="round"
        stroke-linecap="round"
        d="M5.00 46.0001 C 5.32 44.53, 9.49 24.14, 10.00 22.73 S 13.62 18.63, 15.00 18.03 S 19.16 17.15, 20.00 18.40 S 24.49 31.38, 25.00 32.79 S 28.81 46.91, 30.00 46.00 S 34.19 26.36, 35.00 25.10 S 39.35 29.14, 40.00 30.49 S 44.19 44.74, 45.00 46.00 S 48.50 46.00, 50.00 46.00 S 54.45 47.40, 55.00 46.00 S 59.47 21.78, 60.00 20.37 S 64.45 18.13, 65.00 19.53 S 69.47 44.60, 70.00 46.00 S 74.34 47.35, 75.00 46.00 S 79.52 27.02, 80.00 25.60 S 84.34 15.04, 85.00 16.39 S 89.52 44.58, 90.00 46.00 S 93.50 46.00, 95.00 46.00 S 98.50 46.00, 100.00 46.00 S 104.41 47.38, 105.00 46.00 S 108.50 22.59, 110.00 22.59 S 114.41 44.62, 115.00 46.00 S 118.50 46.00, 120.00 46.00 S 123.50 46.00, 125.00 46.00 S 129.46 47.40, 130.00 46.00 S 133.50 20.34, 135.00 20.34 S 139.46 44.60, 140.00 46.00 S 143.50 46.00, 145.00 46.00 S 148.50 46.00, 150.00 46.00 S 154.49 47.41, 155.00 46.00 S 158.50 18.29, 160.00 18.29 S 164.49 44.59, 165.00 46.00 S 168.50 46.00, 170.00 46.00 S 174.51 47.42, 175.00 46.00 S 178.50 16.74, 180.00 16.74 S 183.50 46.11, 185.00 46.00 S 188.50 16.00, 190.00 16.00 S 194.53 44.58, 195.00 46.00 S 198.50 46.00, 200.00 46.00 S 203.50 46.00, 205.00 46.00"
        fill="none">
        <animate attributeName="stroke-dashoffset"
            from="594.2463570880551" to="0" dur="2.2s"/>
        <animate attributeName="stroke-dasharray"
            from="594.2463570880551" to="594.2463570880551"/>
    </path>
    <circle r="4" cx="5" cy="46" fill="#3023AE"/>
    <circle r="4" cx="205" cy="46" fill="#C86DD7" opacity="0">
        <animate attributeName="opacity"
            from="0" to="1" dur="0.1s" begin="2.2s" fill="freeze"/>
    </circle>
</svg>