<svg width="200" height="50" viewBox="0 0 210 50" xmlns="http://www.w3.org/2000/svg">
    <!-- 33 stargazers -->
    <!-- created at Sun Apr 19 2026 21:27:05 GMT+0000 (Coordinated Universal Time) -->
    <defs>
        <linearGradient id="stroke" x1="0%" y1="0%" x2="100%" y2="0%">
            <stop stop-color="#3023AE" offset="0%"/>
            <stop stop-color="#C86DD7" offset="100%"/>
        </linearGradient>
    </defs>
    <path stroke="url(#stroke)"
        stroke-width="3"
        stroke-linejoin="round"
        stroke-linecap="round"
        d="M5.00 46.0001 C 5.28 44.53, 9.38 20.79, 10.00 19.42 S 13.50 23.97, 15.00 23.96 S 18.90 18.33, 20.00 19.36 S 24.09 32.06, 25.00 33.25 S 28.52 32.70, 30.00 32.47 S 33.52 31.95, 35.00 31.73 S 39.14 29.81, 40.00 31.03 S 44.17 44.75, 45.00 46.00 S 49.24 47.29, 50.00 46.00 S 54.26 30.41, 55.00 29.10 S 58.87 29.49, 60.00 28.51 S 64.26 19.15, 65.00 20.45 S 68.74 45.19, 70.00 46.00 S 74.32 28.17, 75.00 26.83 S 78.51 26.46, 80.00 26.30 S 84.32 24.45, 85.00 25.79 S 89.33 44.66, 90.00 46.00 S 93.50 46.00, 95.00 46.00 S 99.38 47.37, 100.00 46.00 S 103.50 23.86, 105.00 23.86 S 109.38 44.63, 110.00 46.00 S 113.50 46.00, 115.00 46.00 S 118.50 46.00, 120.00 46.00 S 124.43 47.39, 125.00 46.00 S 128.50 21.65, 130.00 21.65 S 134.43 44.61, 135.00 46.00 S 138.50 46.00, 140.00 46.00 S 144.46 47.40, 145.00 46.00 S 148.50 20.03, 150.00 20.03 S 154.46 44.60, 155.00 46.00 S 158.50 46.00, 160.00 46.00 S 163.50 46.00, 165.00 46.00 S 169.49 47.41, 170.00 46.00 S 173.50 18.12, 175.00 18.12 S 178.50 46.11, 180.00 46.00 S 183.50 17.40, 185.00 17.40 S 189.50 44.58, 190.00 46.00 S 193.50 46.00, 195.00 46.00 S 199.53 47.42, 200.00 46.00 S 204.75 17.48, 205.00 16.00"
        fill="none">
        <animate attributeName="stroke-dashoffset"
            from="561.1208863661503" to="0" dur="2.2s"/>
        <animate attributeName="stroke-dasharray"
            from="561.1208863661503" to="561.1208863661503"/>
    </path>
    <circle r="4" cx="5" cy="46" fill="#3023AE"/>
    <circle r="4" cx="205" cy="16" fill="#C86DD7" opacity="0">
        <animate attributeName="opacity"
            from="0" to="1" dur="0.1s" begin="2.2s" fill="freeze"/>
    </circle>
</svg>