<svg width="200" height="50" viewBox="0 0 210 50" xmlns="http://www.w3.org/2000/svg">
    <!-- 34 stargazers -->
    <!-- created at Thu Apr 23 2026 01:54:01 GMT+0000 (Coordinated Universal Time) -->
    <defs>
        <linearGradient id="stroke" x1="0%" y1="0%" x2="100%" y2="0%">
            <stop stop-color="#3023AE" offset="0%"/>
            <stop stop-color="#C86DD7" offset="100%"/>
        </linearGradient>
    </defs>
    <path stroke="url(#stroke)"
        stroke-width="3"
        stroke-linejoin="round"
        stroke-linecap="round"
        d="M5.00 46.0001 C 5.26 44.52, 9.30 18.91, 10.00 17.59 S 13.52 26.65, 15.00 26.91 S 18.73 18.55, 20.00 19.36 S 24.09 32.06, 25.00 33.25 S 28.52 32.70, 30.00 32.47 S 33.52 31.95, 35.00 31.73 S 39.14 29.81, 40.00 31.03 S 44.17 44.75, 45.00 46.00 S 49.24 47.29, 50.00 46.00 S 54.26 30.41, 55.00 29.10 S 58.87 29.49, 60.00 28.51 S 64.26 19.15, 65.00 20.45 S 68.74 45.19, 70.00 46.00 S 74.32 28.17, 75.00 26.83 S 78.51 26.46, 80.00 26.30 S 84.32 24.45, 85.00 25.79 S 89.33 44.66, 90.00 46.00 S 93.50 46.00, 95.00 46.00 S 99.38 47.37, 100.00 46.00 S 103.50 23.86, 105.00 23.86 S 109.38 44.63, 110.00 46.00 S 113.50 46.00, 115.00 46.00 S 118.50 46.00, 120.00 46.00 S 124.43 47.39, 125.00 46.00 S 128.50 21.65, 130.00 21.65 S 134.43 44.61, 135.00 46.00 S 138.50 46.00, 140.00 46.00 S 144.46 47.40, 145.00 46.00 S 148.50 20.03, 150.00 20.03 S 154.46 44.60, 155.00 46.00 S 158.50 46.00, 160.00 46.00 S 164.49 47.41, 165.00 46.00 S 168.50 18.49, 170.00 18.49 S 173.50 46.11, 175.00 46.00 S 178.50 17.76, 180.00 17.76 S 184.50 44.59, 185.00 46.00 S 188.50 46.00, 190.00 46.00 S 194.52 47.42, 195.00 46.00 S 199.53 17.77, 200.00 16.34 S 203.50 16.10, 205.00 16.00"
        fill="none">
        <animate attributeName="stroke-dashoffset"
            from="567.545138686677" to="0" dur="2.2s"/>
        <animate attributeName="stroke-dasharray"
            from="567.545138686677" to="567.545138686677"/>
    </path>
    <circle r="4" cx="5" cy="46" fill="#3023AE"/>
    <circle r="4" cx="205" cy="16" fill="#C86DD7" opacity="0">
        <animate attributeName="opacity"
            from="0" to="1" dur="0.1s" begin="2.2s" fill="freeze"/>
    </circle>
</svg>