<svg width="200" height="50" viewBox="0 0 210 50" xmlns="http://www.w3.org/2000/svg">
    <!-- 32 stargazers -->
    <!-- created at Tue Apr 07 2026 00:16:52 GMT+0000 (Coordinated Universal Time) -->
    <defs>
        <linearGradient id="stroke" x1="0%" y1="0%" x2="100%" y2="0%">
            <stop stop-color="#3023AE" offset="0%"/>
            <stop stop-color="#C86DD7" offset="100%"/>
        </linearGradient>
    </defs>
    <path stroke="url(#stroke)"
        stroke-width="3"
        stroke-linejoin="round"
        stroke-linecap="round"
        d="M5.00 46.0001 C 5.32 44.54, 9.48 24.68, 10.00 23.28 S 13.62 19.28, 15.00 18.69 S 19.48 17.64, 20.00 19.05 S 24.10 44.80, 25.00 46.00 S 29.34 33.66, 30.00 32.32 S 33.52 25.81, 35.00 25.59 S 39.34 29.51, 40.00 30.86 S 44.17 44.75, 45.00 46.00 S 48.50 46.00, 50.00 46.00 S 54.26 47.31, 55.00 46.00 S 59.28 29.62, 60.00 28.31 S 63.88 28.72, 65.00 27.72 S 69.28 18.04, 70.00 19.35 S 73.76 45.16, 75.00 46.00 S 78.50 26.08, 80.00 26.08 S 83.92 47.04, 85.00 46.00 S 88.50 16.37, 90.00 16.37 S 94.52 44.58, 95.00 46.00 S 98.50 46.00, 100.00 46.00 S 103.50 46.00, 105.00 46.00 S 109.41 47.38, 110.00 46.00 S 113.50 22.68, 115.00 22.68 S 119.41 44.62, 120.00 46.00 S 123.50 46.00, 125.00 46.00 S 128.50 46.00, 130.00 46.00 S 134.45 47.40, 135.00 46.00 S 138.50 20.53, 140.00 20.53 S 144.45 44.60, 145.00 46.00 S 148.50 46.00, 150.00 46.00 S 153.50 46.00, 155.00 46.00 S 159.49 47.41, 160.00 46.00 S 163.50 18.55, 165.00 18.55 S 169.49 44.59, 170.00 46.00 S 173.50 46.00, 175.00 46.00 S 178.50 46.00, 180.00 46.00 S 184.52 47.42, 185.00 46.00 S 188.50 16.71, 190.00 16.71 S 193.50 46.11, 195.00 46.00 S 198.50 16.00, 200.00 16.00 S 204.75 44.52, 205.00 46.00"
        fill="none">
        <animate attributeName="stroke-dashoffset"
            from="622.8239386138087" to="0" dur="2.2s"/>
        <animate attributeName="stroke-dasharray"
            from="622.8239386138087" to="622.8239386138087"/>
    </path>
    <circle r="4" cx="5" cy="46" fill="#3023AE"/>
    <circle r="4" cx="205" cy="46" fill="#C86DD7" opacity="0">
        <animate attributeName="opacity"
            from="0" to="1" dur="0.1s" begin="2.2s" fill="freeze"/>
    </circle>
</svg>