<svg width="200" height="50" viewBox="0 0 210 50" xmlns="http://www.w3.org/2000/svg">
    <!-- 40 stargazers -->
    <!-- created at Sat Apr 18 2026 22:24:16 GMT+0000 (Coordinated Universal Time) -->
    <defs>
        <linearGradient id="stroke" x1="0%" y1="0%" x2="100%" y2="0%">
            <stop stop-color="#3023AE" offset="0%"/>
            <stop stop-color="#C86DD7" offset="100%"/>
        </linearGradient>
    </defs>
    <path stroke="url(#stroke)"
        stroke-width="3"
        stroke-linejoin="round"
        stroke-linecap="round"
        d="M5.00 46.0001 C 5.30 44.53, 9.27 23.19, 10.00 21.88 S 14.04 27.01, 15.00 28.16 S 18.86 32.82, 20.00 33.80 S 23.52 37.02, 25.00 36.77 S 29.01 33.28, 30.00 32.15 S 34.12 24.13, 35.00 25.35 S 38.64 45.37, 40.00 46.00 S 44.03 31.14, 45.00 30.00 S 49.21 32.95, 50.00 34.22 S 54.03 44.86, 55.00 46.00 S 58.50 46.00, 60.00 46.00 S 63.50 46.00, 65.00 46.00 S 68.50 46.00, 70.00 46.00 S 74.33 47.34, 75.00 46.00 S 78.50 25.84, 80.00 25.84 S 84.33 44.66, 85.00 46.00 S 88.50 46.00, 90.00 46.00 S 93.50 46.00, 95.00 46.00 S 98.50 46.00, 100.00 46.00 S 103.50 46.00, 105.00 46.00 S 108.50 46.00, 110.00 46.00 S 114.24 47.29, 115.00 46.00 S 119.43 30.39, 120.00 29.00 S 124.24 20.22, 125.00 21.51 S 129.43 44.61, 130.00 46.00 S 134.28 47.31, 135.00 46.00 S 138.50 27.78, 140.00 27.78 S 143.50 46.09, 145.00 46.00 S 148.50 27.20, 150.00 27.20 S 153.50 46.08, 155.00 46.00 S 158.50 26.64, 160.00 26.64 S 164.31 44.67, 165.00 46.00 S 169.33 47.34, 170.00 46.00 S 174.34 27.17, 175.00 25.82 S 179.33 24.22, 180.00 25.56 S 184.34 44.65, 185.00 46.00 S 189.53 47.42, 190.00 46.00 S 193.50 16.00, 195.00 16.00 S 199.53 44.58, 200.00 46.00 S 203.50 46.00, 205.00 46.00"
        fill="none">
        <animate attributeName="stroke-dashoffset"
            from="514.1288182496783" to="0" dur="2.2s"/>
        <animate attributeName="stroke-dasharray"
            from="514.1288182496783" to="514.1288182496783"/>
    </path>
    <circle r="4" cx="5" cy="46" fill="#3023AE"/>
    <circle r="4" cx="205" cy="46" fill="#C86DD7" opacity="0">
        <animate attributeName="opacity"
            from="0" to="1" dur="0.1s" begin="2.2s" fill="freeze"/>
    </circle>
</svg>