<svg width="200" height="50" viewBox="0 0 210 50" xmlns="http://www.w3.org/2000/svg">
    <!-- 45 stargazers -->
    <!-- created at Mon May 11 2026 19:49:31 GMT+0000 (Coordinated Universal Time) -->
    <defs>
        <linearGradient id="stroke" x1="0%" y1="0%" x2="100%" y2="0%">
            <stop stop-color="#3023AE" offset="0%"/>
            <stop stop-color="#C86DD7" offset="100%"/>
        </linearGradient>
    </defs>
    <path stroke="url(#stroke)"
        stroke-width="3"
        stroke-linejoin="round"
        stroke-linecap="round"
        d="M5.00 46.0001 C 5.55 44.61, 8.77 34.25, 10.00 33.40 S 13.50 39.14, 15.00 39.09 S 18.63 33.66, 20.00 33.06 S 23.51 34.56, 25.00 34.70 S 28.51 34.20, 30.00 34.00 S 33.55 32.97, 35.00 33.35 S 38.51 36.80, 40.00 36.62 S 43.66 32.81, 45.00 32.13 S 48.57 31.10, 50.00 31.57 S 54.15 34.17, 55.00 35.41 S 58.50 46.11, 60.00 46.00 S 64.41 36.05, 65.00 34.67 S 69.01 21.52, 70.00 22.64 S 73.99 44.89, 75.00 46.00 S 79.07 34.83, 80.00 33.65 S 84.06 32.16, 85.00 33.33 S 89.07 44.82, 90.00 46.00 S 94.11 47.21, 95.00 46.00 S 99.12 33.63, 100.00 32.41 S 103.74 32.93, 105.00 32.12 S 109.12 24.74, 110.00 25.96 S 113.68 45.30, 115.00 46.00 S 119.53 32.69, 120.00 31.27 S 124.03 17.14, 125.00 16.00 S 129.15 18.32, 130.00 19.56 S 133.97 29.38, 135.00 30.47 S 139.19 28.95, 140.00 30.22 S 143.79 46.88, 145.00 46.00 S 148.50 22.97, 150.00 22.97 S 154.40 44.62, 155.00 46.00 S 158.50 46.00, 160.00 46.00 S 163.50 46.00, 165.00 46.00 S 168.50 46.00, 170.00 46.00 S 173.50 46.00, 175.00 46.00 S 178.50 46.00, 180.00 46.00 S 184.28 47.31, 185.00 46.00 S 188.50 27.84, 190.00 27.84 S 193.50 46.07, 195.00 46.00 S 198.50 27.40, 200.00 27.40 S 204.61 44.55, 205.00 46.00"
        fill="none">
        <animate attributeName="stroke-dashoffset"
            from="445.59718105196197" to="0" dur="2.2s"/>
        <animate attributeName="stroke-dasharray"
            from="445.59718105196197" to="445.59718105196197"/>
    </path>
    <circle r="4" cx="5" cy="46" fill="#3023AE"/>
    <circle r="4" cx="205" cy="46" fill="#C86DD7" opacity="0">
        <animate attributeName="opacity"
            from="0" to="1" dur="0.1s" begin="2.2s" fill="freeze"/>
    </circle>
</svg>