<svg width="200" height="50" viewBox="0 0 210 50" xmlns="http://www.w3.org/2000/svg">
    <!-- 45 stargazers -->
    <!-- created at Fri May 01 2026 05:00:28 GMT+0000 (Coordinated Universal Time) -->
    <defs>
        <linearGradient id="stroke" x1="0%" y1="0%" x2="100%" y2="0%">
            <stop stop-color="#3023AE" offset="0%"/>
            <stop stop-color="#C86DD7" offset="100%"/>
        </linearGradient>
    </defs>
    <path stroke="url(#stroke)"
        stroke-width="3"
        stroke-linejoin="round"
        stroke-linecap="round"
        d="M5.00 46.0001 C 5.56 44.61, 8.76 34.46, 10.00 33.62 S 13.50 39.26, 15.00 39.21 S 18.62 33.88, 20.00 33.28 S 23.51 34.75, 25.00 34.89 S 28.51 34.41, 30.00 34.21 S 33.55 33.20, 35.00 33.57 S 38.51 36.96, 40.00 36.78 S 43.66 33.04, 45.00 32.38 S 48.57 31.36, 50.00 31.82 S 54.14 34.36, 55.00 35.59 S 58.50 46.11, 60.00 46.00 S 64.40 36.24, 65.00 34.87 S 69.00 21.93, 70.00 23.05 S 73.98 44.90, 75.00 46.00 S 79.06 35.04, 80.00 33.87 S 84.05 32.39, 85.00 33.55 S 89.06 44.83, 90.00 46.00 S 94.10 47.20, 95.00 46.00 S 99.11 33.86, 100.00 32.65 S 103.50 32.44, 105.00 32.36 S 108.50 32.16, 110.00 32.08 S 113.50 31.88, 115.00 31.80 S 119.01 32.65, 120.00 31.53 S 124.19 21.73, 125.00 20.47 S 129.45 14.60, 130.00 16.00 S 133.83 45.06, 135.00 46.00 S 138.50 24.07, 140.00 24.07 S 143.71 45.23, 145.00 46.00 S 149.21 31.27, 150.00 30.00 S 154.21 28.48, 155.00 29.76 S 159.21 44.72, 160.00 46.00 S 163.50 46.00, 165.00 46.00 S 168.50 46.00, 170.00 46.00 S 173.50 46.00, 175.00 46.00 S 178.50 46.00, 180.00 46.00 S 183.50 46.00, 185.00 46.00 S 189.27 47.31, 190.00 46.00 S 193.50 27.94, 195.00 27.94 S 198.50 46.06, 200.00 46.00 S 204.61 28.96, 205.00 27.52"
        fill="none">
        <animate attributeName="stroke-dashoffset"
            from="424.5491213675648" to="0" dur="2.2s"/>
        <animate attributeName="stroke-dasharray"
            from="424.5491213675648" to="424.5491213675648"/>
    </path>
    <circle r="4" cx="5" cy="46" fill="#3023AE"/>
    <circle r="4" cx="205" cy="27.51698268687045" fill="#C86DD7" opacity="0">
        <animate attributeName="opacity"
            from="0" to="1" dur="0.1s" begin="2.2s" fill="freeze"/>
    </circle>
</svg>