<svg width="200" height="50" viewBox="0 0 210 50" xmlns="http://www.w3.org/2000/svg">
    <!-- 45 stargazers -->
    <!-- created at Sun Apr 12 2026 20:31:01 GMT+0000 (Coordinated Universal Time) -->
    <defs>
        <linearGradient id="stroke" x1="0%" y1="0%" x2="100%" y2="0%">
            <stop stop-color="#3023AE" offset="0%"/>
            <stop stop-color="#C86DD7" offset="100%"/>
        </linearGradient>
    </defs>
    <path stroke="url(#stroke)"
        stroke-width="3"
        stroke-linejoin="round"
        stroke-linecap="round"
        d="M5.00 46.0001 C 5.49 44.58, 8.83 32.46, 10.00 31.53 S 13.50 38.12, 15.00 38.06 S 18.66 31.81, 20.00 31.13 S 23.51 32.85, 25.00 33.01 S 28.55 31.83, 30.00 32.22 S 33.52 35.94, 35.00 35.72 S 38.69 31.49, 40.00 30.75 S 43.51 30.27, 45.00 30.07 S 48.60 28.89, 50.00 29.42 S 54.23 32.55, 55.00 33.83 S 59.05 44.84, 60.00 46.00 S 64.53 47.42, 65.00 46.00 S 68.50 16.00, 70.00 16.00 S 74.20 44.73, 75.00 46.00 S 79.15 33.05, 80.00 31.81 S 84.14 30.22, 85.00 31.44 S 89.15 44.76, 90.00 46.00 S 94.19 47.26, 95.00 46.00 S 99.20 31.66, 100.00 30.39 S 103.50 30.15, 105.00 30.05 S 108.50 29.82, 110.00 29.72 S 113.50 29.49, 115.00 29.40 S 119.10 30.28, 120.00 29.08 S 123.82 17.08, 125.00 16.16 S 128.64 20.57, 130.00 21.20 S 133.75 19.94, 135.00 20.77 S 138.76 27.02, 140.00 27.87 S 143.50 27.66, 145.00 27.58 S 148.50 27.38, 150.00 27.29 S 154.29 25.69, 155.00 27.01 S 159.30 44.67, 160.00 46.00 S 163.50 46.00, 165.00 46.00 S 168.50 46.00, 170.00 46.00 S 173.50 46.00, 175.00 46.00 S 178.50 46.00, 180.00 46.00 S 183.50 46.00, 185.00 46.00 S 189.36 47.36, 190.00 46.00 S 193.50 24.89, 195.00 24.89 S 198.50 46.07, 200.00 46.00 S 204.66 25.85, 205.00 24.39"
        fill="none">
        <animate attributeName="stroke-dashoffset"
            from="398.86982431211345" to="0" dur="2.2s"/>
        <animate attributeName="stroke-dasharray"
            from="398.86982431211345" to="398.86982431211345"/>
    </path>
    <circle r="4" cx="5" cy="46" fill="#3023AE"/>
    <circle r="4" cx="205" cy="24.391319253015116" fill="#C86DD7" opacity="0">
        <animate attributeName="opacity"
            from="0" to="1" dur="0.1s" begin="2.2s" fill="freeze"/>
    </circle>
</svg>