<svg width="200" height="50" viewBox="0 0 210 50" xmlns="http://www.w3.org/2000/svg">
    <!-- 44 stargazers -->
    <!-- created at Mon Mar 09 2026 10:47:05 GMT+0000 (Coordinated Universal Time) -->
    <defs>
        <linearGradient id="stroke" x1="0%" y1="0%" x2="100%" y2="0%">
            <stop stop-color="#3023AE" offset="0%"/>
            <stop stop-color="#C86DD7" offset="100%"/>
        </linearGradient>
    </defs>
    <path stroke="url(#stroke)"
        stroke-width="3"
        stroke-linejoin="round"
        stroke-linecap="round"
        d="M5.00 46.0001 C 5.50 44.59, 8.81 32.86, 10.00 31.95 S 13.50 38.35, 15.00 38.29 S 18.65 32.22, 20.00 31.56 S 23.51 33.23, 25.00 33.39 S 29.07 31.44, 30.00 32.62 S 33.65 46.64, 35.00 46.00 S 39.19 29.13, 40.00 27.87 S 43.53 30.24, 45.00 30.53 S 48.59 29.38, 50.00 29.90 S 54.21 32.91, 55.00 34.18 S 59.03 44.85, 60.00 46.00 S 64.51 47.42, 65.00 46.00 S 68.50 16.87, 70.00 16.87 S 74.18 44.74, 75.00 46.00 S 79.13 33.45, 80.00 32.22 S 84.12 30.65, 85.00 31.87 S 89.13 44.78, 90.00 46.00 S 93.50 46.00, 95.00 46.00 S 99.19 47.26, 100.00 46.00 S 104.20 31.78, 105.00 30.51 S 108.79 31.08, 110.00 30.19 S 113.50 23.29, 115.00 23.20 S 118.72 28.79, 120.00 29.57 S 124.09 30.46, 125.00 29.27 S 129.10 17.70, 130.00 16.51 S 134.52 14.58, 135.00 16.00 S 138.64 45.36, 140.00 46.00 S 143.50 20.70, 145.00 20.70 S 148.76 45.15, 150.00 46.00 S 154.29 28.88, 155.00 27.56 S 159.28 25.97, 160.00 27.29 S 164.29 44.68, 165.00 46.00 S 168.50 46.00, 170.00 46.00 S 173.50 46.00, 175.00 46.00 S 178.50 46.00, 180.00 46.00 S 183.50 46.00, 185.00 46.00 S 188.50 46.00, 190.00 46.00 S 194.35 47.35, 195.00 46.00 S 198.50 25.26, 200.00 25.26 S 204.65 44.54, 205.00 46.00"
        fill="none">
        <animate attributeName="stroke-dashoffset"
            from="481.05460213193555" to="0" dur="2.2s"/>
        <animate attributeName="stroke-dasharray"
            from="481.05460213193555" to="481.05460213193555"/>
    </path>
    <circle r="4" cx="5" cy="46" fill="#3023AE"/>
    <circle r="4" cx="205" cy="46" fill="#C86DD7" opacity="0">
        <animate attributeName="opacity"
            from="0" to="1" dur="0.1s" begin="2.2s" fill="freeze"/>
    </circle>
</svg>