<svg width="200" height="50" viewBox="0 0 210 50" xmlns="http://www.w3.org/2000/svg">
    <!-- 45 stargazers -->
    <!-- created at Sun May 17 2026 17:01:57 GMT+0000 (Coordinated Universal Time) -->
    <defs>
        <linearGradient id="stroke" x1="0%" y1="0%" x2="100%" y2="0%">
            <stop stop-color="#3023AE" offset="0%"/>
            <stop stop-color="#C86DD7" offset="100%"/>
        </linearGradient>
    </defs>
    <path stroke="url(#stroke)"
        stroke-width="3"
        stroke-linejoin="round"
        stroke-linecap="round"
        d="M5.00 46.0001 C 5.50 44.58, 8.82 32.63, 10.00 31.71 S 13.50 38.22, 15.00 38.16 S 18.66 31.99, 20.00 31.32 S 23.51 33.02, 25.00 33.17 S 28.52 32.62, 30.00 32.39 S 33.56 31.22, 35.00 31.65 S 38.51 35.56, 40.00 35.35 S 43.70 31.01, 45.00 30.27 S 48.59 29.10, 50.00 29.62 S 54.22 32.70, 55.00 33.98 S 58.51 46.12, 60.00 46.00 S 64.47 34.55, 65.00 33.15 S 69.08 18.31, 70.00 19.50 S 74.06 44.83, 75.00 46.00 S 79.14 33.22, 80.00 31.99 S 84.13 30.40, 85.00 31.62 S 89.14 44.77, 90.00 46.00 S 94.18 47.26, 95.00 46.00 S 99.20 31.85, 100.00 30.58 S 103.79 31.13, 105.00 30.25 S 108.50 23.36, 110.00 23.26 S 113.72 28.83, 115.00 29.60 S 119.09 30.48, 120.00 29.29 S 124.10 17.72, 125.00 16.52 S 129.03 14.85, 130.00 16.00 S 134.04 27.23, 135.00 28.38 S 139.26 26.79, 140.00 28.09 S 143.84 46.95, 145.00 46.00 S 148.50 19.87, 150.00 19.87 S 154.46 44.60, 155.00 46.00 S 158.50 46.00, 160.00 46.00 S 163.50 46.00, 165.00 46.00 S 168.50 46.00, 170.00 46.00 S 173.50 46.00, 175.00 46.00 S 178.50 46.00, 180.00 46.00 S 184.34 47.35, 185.00 46.00 S 188.50 25.40, 190.00 25.40 S 193.50 46.07, 195.00 46.00 S 198.50 24.90, 200.00 24.90 S 204.65 44.54, 205.00 46.00"
        fill="none">
        <animate attributeName="stroke-dashoffset"
            from="454.94117912341983" to="0" dur="2.2s"/>
        <animate attributeName="stroke-dasharray"
            from="454.94117912341983" to="454.94117912341983"/>
    </path>
    <circle r="4" cx="5" cy="46" fill="#3023AE"/>
    <circle r="4" cx="205" cy="46" fill="#C86DD7" opacity="0">
        <animate attributeName="opacity"
            from="0" to="1" dur="0.1s" begin="2.2s" fill="freeze"/>
    </circle>
</svg>