<svg width="200" height="50" viewBox="0 0 210 50" xmlns="http://www.w3.org/2000/svg">
    <!-- 25 stargazers -->
    <!-- created at Sat Apr 18 2026 23:09:34 GMT+0000 (Coordinated Universal Time) -->
    <defs>
        <linearGradient id="stroke" x1="0%" y1="0%" x2="100%" y2="0%">
            <stop stop-color="#3023AE" offset="0%"/>
            <stop stop-color="#C86DD7" offset="100%"/>
        </linearGradient>
    </defs>
    <path stroke="url(#stroke)"
        stroke-width="3"
        stroke-linejoin="round"
        stroke-linecap="round"
        d="M5.00 46.0001 C 5.86 44.77, 8.99 40.01, 10.00 38.90 S 13.51 35.18, 15.00 34.98 S 18.99 36.46, 20.00 37.57 S 23.85 45.03, 25.00 46.00 S 28.94 47.07, 30.00 46.00 S 33.50 35.91, 35.00 35.91 S 38.94 44.93, 40.00 46.00 S 44.02 47.13, 45.00 46.00 S 49.04 35.64, 50.00 34.49 S 53.51 34.18, 55.00 34.05 S 59.23 34.92, 60.00 33.63 S 63.50 17.55, 65.00 17.43 S 69.17 31.58, 70.00 32.83 S 73.50 32.56, 75.00 32.45 S 79.11 30.87, 80.00 32.07 S 84.13 44.78, 85.00 46.00 S 88.50 46.00, 90.00 46.00 S 93.50 46.00, 95.00 46.00 S 99.19 47.26, 100.00 46.00 S 103.50 30.34, 105.00 30.34 S 109.19 44.74, 110.00 46.00 S 113.50 46.00, 115.00 46.00 S 119.24 47.29, 120.00 46.00 S 123.50 29.08, 125.00 29.08 S 128.50 46.09, 130.00 46.00 S 133.50 28.49, 135.00 28.49 S 139.26 44.70, 140.00 46.00 S 143.50 46.00, 145.00 46.00 S 148.50 46.00, 150.00 46.00 S 153.50 46.00, 155.00 46.00 S 158.50 46.00, 160.00 46.00 S 163.50 46.00, 165.00 46.00 S 168.50 46.00, 170.00 46.00 S 174.33 47.34, 175.00 46.00 S 178.50 26.03, 180.00 26.03 S 183.50 46.08, 185.00 46.00 S 189.35 26.87, 190.00 25.52 S 193.50 25.35, 195.00 25.28 S 198.90 26.05, 200.00 25.03 S 204.27 17.31, 205.00 16.00"
        fill="none">
        <animate attributeName="stroke-dashoffset"
            from="396.71733222983863" to="0" dur="2.2s"/>
        <animate attributeName="stroke-dasharray"
            from="396.71733222983863" to="396.71733222983863"/>
    </path>
    <circle r="4" cx="5" cy="46" fill="#3023AE"/>
    <circle r="4" cx="205" cy="16" fill="#C86DD7" opacity="0">
        <animate attributeName="opacity"
            from="0" to="1" dur="0.1s" begin="2.2s" fill="freeze"/>
    </circle>
</svg>