<svg width="200" height="50" viewBox="0 0 210 50" xmlns="http://www.w3.org/2000/svg">
    <!-- 375 stargazers -->
    <!-- created at Fri May 15 2026 13:00:00 GMT+0000 (Coordinated Universal Time) -->
    <defs>
        <linearGradient id="stroke" x1="0%" y1="0%" x2="100%" y2="0%">
            <stop stop-color="#3023AE" offset="0%"/>
            <stop stop-color="#C86DD7" offset="100%"/>
        </linearGradient>
    </defs>
    <path stroke="url(#stroke)"
        stroke-width="3"
        stroke-linejoin="round"
        stroke-linecap="round"
        d="M5.00 46.0001 C 5.47 44.58, 9.53 32.29, 10.00 30.87 S 13.70 16.75, 15.00 16.00 S 19.30 23.79, 20.00 25.12 S 24.16 33.83, 25.00 35.08 S 28.53 39.67, 30.00 39.95 S 33.53 36.65, 35.00 36.97 S 38.89 41.13, 40.00 42.13 S 43.60 45.46, 45.00 46.00 S 48.50 46.00, 50.00 46.00 S 53.50 46.00, 55.00 46.00 S 59.06 47.17, 60.00 46.00 S 64.35 35.00, 65.00 33.65 S 68.76 25.87, 70.00 25.02 S 73.65 26.16, 75.00 26.82 S 78.58 29.41, 80.00 29.91 S 83.76 29.49, 85.00 30.34 S 88.50 36.85, 90.00 36.73 S 93.80 30.47, 95.00 29.57 S 98.74 28.38, 100.00 29.20 S 103.51 35.89, 105.00 36.09 S 108.58 31.03, 110.00 30.55 S 113.50 32.60, 115.00 32.68 S 118.64 30.51, 120.00 31.13 S 123.54 36.92, 125.00 37.26 S 128.69 34.15, 130.00 33.42 S 133.50 31.76, 135.00 31.69 S 138.56 32.58, 140.00 32.99 S 143.64 35.20, 145.00 34.55 S 148.60 28.78, 150.00 28.24 S 153.54 30.43, 155.00 30.77 S 158.84 29.59, 160.00 30.54 S 163.68 38.28, 165.00 38.99 S 168.57 36.40, 170.00 35.95 S 173.63 36.43, 175.00 35.81 S 178.73 32.21, 180.00 31.41 S 183.52 29.23, 185.00 29.48 S 188.51 32.84, 190.00 33.04 S 193.53 30.54, 195.00 30.85 S 198.52 34.91, 200.00 35.16 S 203.67 33.26, 205.00 32.57"
        fill="none">
        <animate attributeName="stroke-dashoffset"
            from="291.59590941223513" to="0" dur="2.2s"/>
        <animate attributeName="stroke-dasharray"
            from="291.59590941223513" to="291.59590941223513"/>
    </path>
    <circle r="4" cx="5" cy="46" fill="#3023AE"/>
    <circle r="4" cx="205" cy="32.574791281053024" fill="#C86DD7" opacity="0">
        <animate attributeName="opacity"
            from="0" to="1" dur="0.1s" begin="2.2s" fill="freeze"/>
    </circle>
</svg>