<svg width="200" height="50" viewBox="0 0 210 50" xmlns="http://www.w3.org/2000/svg">
    <!-- 358 stargazers -->
    <!-- created at Fri May 01 2026 05:58:19 GMT+0000 (Coordinated Universal Time) -->
    <defs>
        <linearGradient id="stroke" x1="0%" y1="0%" x2="100%" y2="0%">
            <stop stop-color="#3023AE" offset="0%"/>
            <stop stop-color="#C86DD7" offset="100%"/>
        </linearGradient>
    </defs>
    <path stroke="url(#stroke)"
        stroke-width="3"
        stroke-linejoin="round"
        stroke-linecap="round"
        d="M5.00 46.0001 C 5.61 44.63, 9.53 36.15, 10.00 34.73 S 14.05 17.16, 15.00 16.00 S 19.15 21.19, 20.00 22.42 S 24.29 29.24, 25.00 30.56 S 28.68 40.22, 30.00 40.94 S 33.51 35.86, 35.00 36.02 S 38.70 41.29, 40.00 42.04 S 43.61 41.31, 45.00 41.87 S 48.61 45.43, 50.00 46.00 S 53.50 46.00, 55.00 46.00 S 58.50 46.00, 60.00 46.00 S 63.50 46.00, 65.00 46.00 S 69.44 47.39, 70.00 46.00 S 74.25 22.47, 75.00 21.17 S 78.82 27.80, 80.00 28.73 S 83.51 28.98, 85.00 29.10 S 88.53 29.27, 90.00 29.57 S 93.85 30.21, 95.00 31.17 S 98.55 38.29, 100.00 37.90 S 103.93 29.49, 105.00 28.44 S 109.01 26.94, 110.00 28.07 S 113.52 39.68, 115.00 39.91 S 118.83 30.51, 120.00 29.57 S 123.79 30.97, 125.00 31.86 S 128.57 37.35, 130.00 36.90 S 133.54 28.32, 135.00 28.68 S 138.60 38.81, 140.00 39.34 S 143.57 32.91, 145.00 32.48 S 148.53 36.59, 150.00 36.29 S 153.50 30.46, 155.00 30.41 S 158.51 35.81, 160.00 36.00 S 163.82 32.58, 165.00 31.65 S 168.53 28.50, 170.00 28.19 S 173.51 29.35, 175.00 29.52 S 179.22 28.02, 180.00 29.30 S 183.71 45.24, 185.00 46.00 S 189.10 36.38, 190.00 35.17 S 193.50 32.62, 195.00 32.58 S 198.54 34.59, 200.00 34.91 S 203.50 34.82, 205.00 34.78"
        fill="none">
        <animate attributeName="stroke-dashoffset"
            from="343.42938030738463" to="0" dur="2.2s"/>
        <animate attributeName="stroke-dasharray"
            from="343.42938030738463" to="343.42938030738463"/>
    </path>
    <circle r="4" cx="5" cy="46" fill="#3023AE"/>
    <circle r="4" cx="205" cy="34.78281264994092" fill="#C86DD7" opacity="0">
        <animate attributeName="opacity"
            from="0" to="1" dur="0.1s" begin="2.2s" fill="freeze"/>
    </circle>
</svg>