<svg width="200" height="50" viewBox="0 0 210 50" xmlns="http://www.w3.org/2000/svg">
    <!-- 307 stargazers -->
    <!-- created at Wed Mar 11 2026 16:44:52 GMT+0000 (Coordinated Universal Time) -->
    <defs>
        <linearGradient id="stroke" x1="0%" y1="0%" x2="100%" y2="0%">
            <stop stop-color="#3023AE" offset="0%"/>
            <stop stop-color="#C86DD7" offset="100%"/>
        </linearGradient>
    </defs>
    <path stroke="url(#stroke)"
        stroke-width="3"
        stroke-linejoin="round"
        stroke-linecap="round"
        d="M5.00 46.0001 C 5.59 44.62, 9.47 35.70, 10.00 34.29 S 14.28 20.78, 15.00 19.47 S 18.67 15.31, 20.00 16.00 S 24.05 23.48, 25.00 24.64 S 29.12 27.04, 30.00 28.26 S 34.10 37.37, 35.00 38.56 S 38.53 41.79, 40.00 41.50 S 43.67 37.29, 45.00 36.59 S 48.91 35.18, 50.00 36.20 S 53.63 45.38, 55.00 46.00 S 58.50 40.74, 60.00 40.74 S 63.67 45.30, 65.00 46.00 S 68.50 46.00, 70.00 46.00 S 73.50 46.00, 75.00 46.00 S 78.50 46.00, 80.00 46.00 S 83.50 46.00, 85.00 46.00 S 88.50 46.00, 90.00 46.00 S 93.50 46.00, 95.00 46.00 S 99.38 47.37, 100.00 46.00 S 104.39 25.27, 105.00 23.90 S 108.60 22.92, 110.00 23.44 S 113.67 26.95, 115.00 27.65 S 118.53 28.98, 120.00 28.69 S 123.64 25.01, 125.00 25.64 S 128.53 33.00, 130.00 33.31 S 133.54 28.11, 135.00 27.75 S 138.51 30.69, 140.00 30.85 S 144.17 27.54, 145.00 28.79 S 148.71 45.23, 150.00 46.00 S 154.27 36.09, 155.00 34.78 S 158.66 28.68, 160.00 28.00 S 163.50 29.75, 165.00 29.67 S 168.50 27.56, 170.00 27.49 S 174.29 27.90, 175.00 29.22 S 178.53 45.72, 180.00 46.00 S 184.32 32.43, 185.00 31.09 S 188.72 25.73, 190.00 26.51 S 193.61 36.62, 195.00 37.18 S 198.60 31.09, 200.00 30.54 S 203.68 32.52, 205.00 33.23"
        fill="none">
        <animate attributeName="stroke-dashoffset"
            from="339.1956601836363" to="0" dur="2.2s"/>
        <animate attributeName="stroke-dasharray"
            from="339.1956601836363" to="339.1956601836363"/>
    </path>
    <circle r="4" cx="5" cy="46" fill="#3023AE"/>
    <circle r="4" cx="205" cy="33.233049552580894" fill="#C86DD7" opacity="0">
        <animate attributeName="opacity"
            from="0" to="1" dur="0.1s" begin="2.2s" fill="freeze"/>
    </circle>
</svg>