<svg width="200" height="50" viewBox="0 0 210 50" xmlns="http://www.w3.org/2000/svg">
    <!-- 320 stargazers -->
    <!-- created at Wed Mar 25 2026 17:35:42 GMT+0000 (Coordinated Universal Time) -->
    <defs>
        <linearGradient id="stroke" x1="0%" y1="0%" x2="100%" y2="0%">
            <stop stop-color="#3023AE" offset="0%"/>
            <stop stop-color="#C86DD7" offset="100%"/>
        </linearGradient>
    </defs>
    <path stroke="url(#stroke)"
        stroke-width="3"
        stroke-linejoin="round"
        stroke-linecap="round"
        d="M5.00 46.0001 C 5.58 44.62, 9.53 35.47, 10.00 34.05 S 14.02 17.14, 15.00 16.00 S 18.76 21.59, 20.00 22.43 S 24.06 21.56, 25.00 22.74 S 29.25 33.66, 30.00 34.96 S 33.59 39.68, 35.00 40.18 S 38.62 39.11, 40.00 38.52 S 43.80 35.01, 45.00 35.91 S 48.67 45.31, 50.00 46.00 S 53.50 41.12, 55.00 41.12 S 58.65 45.34, 60.00 46.00 S 63.50 46.00, 65.00 46.00 S 68.50 46.00, 70.00 46.00 S 73.50 46.00, 75.00 46.00 S 78.50 46.00, 80.00 46.00 S 83.50 46.00, 85.00 46.00 S 89.46 47.40, 90.00 46.00 S 94.26 21.36, 95.00 20.05 S 98.96 27.23, 100.00 28.31 S 103.60 30.90, 105.00 30.35 S 108.50 24.25, 110.00 24.37 S 113.66 30.45, 115.00 31.13 S 118.51 29.24, 120.00 29.40 S 123.63 31.59, 125.00 32.19 S 128.59 33.31, 130.00 33.83 S 133.69 36.63, 135.00 35.89 S 138.98 29.31, 140.00 28.21 S 143.65 24.48, 145.00 25.13 S 149.10 31.82, 150.00 33.02 S 153.50 38.45, 155.00 38.39 S 158.93 33.69, 160.00 32.63 S 163.50 28.55, 165.00 28.49 S 168.72 31.47, 170.00 32.25 S 173.54 34.30, 175.00 34.62 S 178.56 34.90, 180.00 34.48 S 183.78 32.58, 185.00 31.71 S 189.14 26.09, 190.00 27.32 S 193.75 45.18, 195.00 46.00 S 199.05 35.06, 200.00 33.90 S 203.50 33.80, 205.00 33.76"
        fill="none">
        <animate attributeName="stroke-dashoffset"
            from="328.14485341887035" to="0" dur="2.2s"/>
        <animate attributeName="stroke-dasharray"
            from="328.14485341887035" to="328.14485341887035"/>
    </path>
    <circle r="4" cx="5" cy="46" fill="#3023AE"/>
    <circle r="4" cx="205" cy="33.75829519248188" fill="#C86DD7" opacity="0">
        <animate attributeName="opacity"
            from="0" to="1" dur="0.1s" begin="2.2s" fill="freeze"/>
    </circle>
</svg>