<svg width="200" height="50" viewBox="0 0 210 50" xmlns="http://www.w3.org/2000/svg">
    <!-- 338 stargazers -->
    <!-- created at Thu Apr 09 2026 11:38:39 GMT+0000 (Coordinated Universal Time) -->
    <defs>
        <linearGradient id="stroke" x1="0%" y1="0%" x2="100%" y2="0%">
            <stop stop-color="#3023AE" offset="0%"/>
            <stop stop-color="#C86DD7" offset="100%"/>
        </linearGradient>
    </defs>
    <path stroke="url(#stroke)"
        stroke-width="3"
        stroke-linejoin="round"
        stroke-linecap="round"
        d="M5.00 46.0001 C 5.60 44.62, 9.53 35.86, 10.00 34.43 S 13.99 17.11, 15.00 16.00 S 18.78 22.55, 20.00 23.43 S 24.21 21.93, 25.00 23.20 S 29.20 38.19, 30.00 39.46 S 33.56 39.50, 35.00 39.10 S 38.55 36.29, 40.00 36.65 S 43.65 40.98, 45.00 41.63 S 48.63 40.85, 50.00 41.45 S 53.63 45.38, 55.00 46.00 S 58.50 46.00, 60.00 46.00 S 63.50 46.00, 65.00 46.00 S 68.50 46.00, 70.00 46.00 S 73.50 46.00, 75.00 46.00 S 79.42 47.38, 80.00 46.00 S 84.31 23.38, 85.00 22.05 S 88.72 26.03, 90.00 26.82 S 93.53 27.94, 95.00 28.24 S 98.51 28.67, 100.00 28.88 S 103.52 29.39, 105.00 29.64 S 108.79 29.66, 110.00 30.54 S 113.54 36.55, 115.00 36.90 S 118.86 33.86, 120.00 32.88 S 123.65 28.98, 125.00 28.32 S 128.82 27.08, 130.00 28.01 S 133.70 35.47, 135.00 36.22 S 138.81 34.74, 140.00 33.82 S 143.54 28.84, 145.00 28.50 S 148.78 30.62, 150.00 31.49 S 153.52 35.35, 155.00 35.59 S 158.74 33.88, 160.00 33.06 S 164.08 27.87, 165.00 29.06 S 168.51 45.80, 170.00 46.00 S 173.82 31.36, 175.00 30.43 S 178.50 38.17, 180.00 38.11 S 183.72 30.81, 185.00 30.02 S 188.82 31.07, 190.00 31.99 S 193.54 37.48, 195.00 37.81 S 199.13 35.51, 200.00 34.29 S 204.35 25.19, 205.00 23.83"
        fill="none">
        <animate attributeName="stroke-dashoffset"
            from="330.31882004428536" to="0" dur="2.2s"/>
        <animate attributeName="stroke-dasharray"
            from="330.31882004428536" to="330.31882004428536"/>
    </path>
    <circle r="4" cx="5" cy="46" fill="#3023AE"/>
    <circle r="4" cx="205" cy="23.832887482580922" fill="#C86DD7" opacity="0">
        <animate attributeName="opacity"
            from="0" to="1" dur="0.1s" begin="2.2s" fill="freeze"/>
    </circle>
</svg>