<svg width="200" height="50" viewBox="0 0 210 50" xmlns="http://www.w3.org/2000/svg">
    <!-- 327 stargazers -->
    <!-- created at Wed Apr 01 2026 17:48:19 GMT+0000 (Coordinated Universal Time) -->
    <defs>
        <linearGradient id="stroke" x1="0%" y1="0%" x2="100%" y2="0%">
            <stop stop-color="#3023AE" offset="0%"/>
            <stop stop-color="#C86DD7" offset="100%"/>
        </linearGradient>
    </defs>
    <path stroke="url(#stroke)"
        stroke-width="3"
        stroke-linejoin="round"
        stroke-linecap="round"
        d="M5.00 46.0001 C 5.59 44.62, 9.53 35.79, 10.00 34.37 S 14.01 17.12, 15.00 16.00 S 18.86 22.09, 20.00 23.06 S 24.05 23.37, 25.00 24.53 S 29.25 33.96, 30.00 35.26 S 33.50 41.93, 35.00 41.99 S 38.54 36.03, 40.00 35.71 S 43.70 39.05, 45.00 39.79 S 48.73 40.64, 50.00 41.43 S 53.64 45.38, 55.00 46.00 S 58.50 46.00, 60.00 46.00 S 63.50 46.00, 65.00 46.00 S 68.50 46.00, 70.00 46.00 S 73.50 46.00, 75.00 46.00 S 78.50 46.00, 80.00 46.00 S 84.44 47.39, 85.00 46.00 S 89.23 22.62, 90.00 21.33 S 93.68 28.45, 95.00 29.17 S 98.50 26.87, 100.00 26.75 S 103.59 27.89, 105.00 28.42 S 108.52 30.20, 110.00 30.46 S 113.50 30.03, 115.00 30.15 S 119.20 29.98, 120.00 31.25 S 123.58 46.47, 125.00 46.00 S 129.35 29.27, 130.00 27.91 S 133.70 24.39, 135.00 25.14 S 139.11 32.55, 140.00 33.76 S 143.50 38.88, 145.00 38.82 S 148.91 34.39, 150.00 33.37 S 153.54 29.80, 155.00 29.45 S 158.58 30.50, 160.00 30.98 S 163.79 31.92, 165.00 32.81 S 168.62 38.87, 170.00 38.28 S 173.58 28.99, 175.00 28.50 S 178.72 34.00, 180.00 34.79 S 183.50 34.69, 185.00 34.64 S 188.57 34.05, 190.00 34.50 S 193.67 38.46, 195.00 37.77 S 198.59 29.87, 200.00 29.35 S 203.91 33.06, 205.00 34.09"
        fill="none">
        <animate attributeName="stroke-dashoffset"
            from="328.2412524977496" to="0" dur="2.2s"/>
        <animate attributeName="stroke-dasharray"
            from="328.2412524977496" to="328.2412524977496"/>
    </path>
    <circle r="4" cx="5" cy="46" fill="#3023AE"/>
    <circle r="4" cx="205" cy="34.088321055105844" fill="#C86DD7" opacity="0">
        <animate attributeName="opacity"
            from="0" to="1" dur="0.1s" begin="2.2s" fill="freeze"/>
    </circle>
</svg>