<svg width="200" height="50" viewBox="0 0 210 50" xmlns="http://www.w3.org/2000/svg">
    <!-- 349 stargazers -->
    <!-- created at Fri Apr 17 2026 05:48:47 GMT+0000 (Coordinated Universal Time) -->
    <defs>
        <linearGradient id="stroke" x1="0%" y1="0%" x2="100%" y2="0%">
            <stop stop-color="#3023AE" offset="0%"/>
            <stop stop-color="#C86DD7" offset="100%"/>
        </linearGradient>
    </defs>
    <path stroke="url(#stroke)"
        stroke-width="3"
        stroke-linejoin="round"
        stroke-linecap="round"
        d="M5.00 46.0001 C 5.60 44.63, 9.53 35.97, 10.00 34.55 S 13.96 17.08, 15.00 16.00 S 18.80 23.26, 20.00 24.15 S 24.14 22.21, 25.00 23.44 S 29.20 37.26, 30.00 38.52 S 33.52 39.43, 35.00 39.17 S 38.55 36.39, 40.00 36.75 S 43.90 40.66, 45.00 41.68 S 48.62 45.40, 50.00 46.00 S 53.50 46.00, 55.00 46.00 S 58.50 46.00, 60.00 46.00 S 63.50 46.00, 65.00 46.00 S 68.50 46.00, 70.00 46.00 S 74.40 47.38, 75.00 46.00 S 79.29 24.22, 80.00 22.90 S 83.66 26.80, 85.00 27.48 S 88.53 27.61, 90.00 27.90 S 93.54 29.10, 95.00 29.43 S 98.50 30.09, 100.00 30.15 S 104.20 28.54, 105.00 29.81 S 108.52 46.27, 110.00 46.00 S 114.28 29.30, 115.00 27.98 S 118.65 26.99, 120.00 27.64 S 123.75 31.94, 125.00 32.78 S 128.53 34.65, 130.00 34.34 S 133.60 31.24, 135.00 30.70 S 138.68 29.74, 140.00 30.44 S 143.57 35.56, 145.00 36.00 S 148.73 34.36, 150.00 33.57 S 153.53 29.41, 155.00 29.71 S 158.70 34.80, 160.00 35.54 S 163.50 35.44, 165.00 35.40 S 168.65 35.90, 170.00 35.25 S 173.55 30.99, 175.00 30.59 S 178.62 31.90, 180.00 32.48 S 183.81 35.73, 185.00 34.82 S 188.57 24.38, 190.00 24.82 S 193.50 37.98, 195.00 37.90 S 198.73 25.11, 200.00 24.31 S 204.15 30.40, 205.00 31.64"
        fill="none">
        <animate attributeName="stroke-dashoffset"
            from="334.7117617321502" to="0" dur="2.2s"/>
        <animate attributeName="stroke-dasharray"
            from="334.7117617321502" to="334.7117617321502"/>
    </path>
    <circle r="4" cx="5" cy="46" fill="#3023AE"/>
    <circle r="4" cx="205" cy="31.638603636167915" fill="#C86DD7" opacity="0">
        <animate attributeName="opacity"
            from="0" to="1" dur="0.1s" begin="2.2s" fill="freeze"/>
    </circle>
</svg>