<svg width="200" height="50" viewBox="0 0 210 50" xmlns="http://www.w3.org/2000/svg">
    <!-- 347 stargazers -->
    <!-- created at Thu Apr 16 2026 12:54:45 GMT+0000 (Coordinated Universal Time) -->
    <defs>
        <linearGradient id="stroke" x1="0%" y1="0%" x2="100%" y2="0%">
            <stop stop-color="#3023AE" offset="0%"/>
            <stop stop-color="#C86DD7" offset="100%"/>
        </linearGradient>
    </defs>
    <path stroke="url(#stroke)"
        stroke-width="3"
        stroke-linejoin="round"
        stroke-linecap="round"
        d="M5.00 46.0001 C 5.60 44.63, 9.53 35.97, 10.00 34.55 S 13.96 17.08, 15.00 16.00 S 18.80 23.26, 20.00 24.15 S 24.14 22.21, 25.00 23.44 S 29.24 37.23, 30.00 38.52 S 33.55 40.81, 35.00 40.42 S 38.51 35.68, 40.00 35.87 S 43.95 40.61, 45.00 41.68 S 48.62 45.40, 50.00 46.00 S 53.50 46.00, 55.00 46.00 S 58.50 46.00, 60.00 46.00 S 63.50 46.00, 65.00 46.00 S 68.50 46.00, 70.00 46.00 S 74.40 47.38, 75.00 46.00 S 79.26 24.21, 80.00 22.90 S 83.66 27.67, 85.00 28.34 S 88.51 27.74, 90.00 27.90 S 93.51 29.26, 95.00 29.43 S 98.50 29.00, 100.00 29.05 S 104.24 28.52, 105.00 29.81 S 108.50 46.10, 110.00 46.00 S 114.31 30.48, 115.00 29.14 S 118.59 26.01, 120.00 26.52 S 123.82 31.85, 125.00 32.78 S 128.53 34.65, 130.00 34.34 S 133.54 31.03, 135.00 30.70 S 138.57 31.65, 140.00 32.08 S 143.52 33.54, 145.00 33.76 S 148.61 34.13, 150.00 33.57 S 154.06 28.54, 155.00 29.71 S 158.51 45.81, 160.00 46.00 S 163.81 31.91, 165.00 31.00 S 168.54 38.72, 170.00 38.40 S 173.71 29.54, 175.00 28.77 S 178.90 31.46, 180.00 32.48 S 183.81 39.01, 185.00 38.09 S 188.59 25.33, 190.00 24.82 S 193.65 33.90, 195.00 34.54 S 198.67 30.29, 200.00 29.61 S 203.50 29.47, 205.00 29.42"
        fill="none">
        <animate attributeName="stroke-dashoffset"
            from="355.53799743348924" to="0" dur="2.2s"/>
        <animate attributeName="stroke-dasharray"
            from="355.53799743348924" to="355.53799743348924"/>
    </path>
    <circle r="4" cx="5" cy="46" fill="#3023AE"/>
    <circle r="4" cx="205" cy="29.41688788680256" fill="#C86DD7" opacity="0">
        <animate attributeName="opacity"
            from="0" to="1" dur="0.1s" begin="2.2s" fill="freeze"/>
    </circle>
</svg>