<svg width="200" height="50" viewBox="0 0 210 50" xmlns="http://www.w3.org/2000/svg">
    <!-- 352 stargazers -->
    <!-- created at Fri Apr 24 2026 05:55:20 GMT+0000 (Coordinated Universal Time) -->
    <defs>
        <linearGradient id="stroke" x1="0%" y1="0%" x2="100%" y2="0%">
            <stop stop-color="#3023AE" offset="0%"/>
            <stop stop-color="#C86DD7" offset="100%"/>
        </linearGradient>
    </defs>
    <path stroke="url(#stroke)"
        stroke-width="3"
        stroke-linejoin="round"
        stroke-linecap="round"
        d="M5.00 46.0001 C 5.62 44.63, 9.53 36.37, 10.00 34.94 S 13.85 16.96, 15.00 16.00 S 18.84 25.70, 20.00 26.65 S 24.05 23.06, 25.00 24.21 S 29.14 37.55, 30.00 38.78 S 33.50 38.50, 35.00 38.38 S 38.58 37.52, 40.00 38.01 S 43.83 40.89, 45.00 41.83 S 48.62 45.42, 50.00 46.00 S 53.50 46.00, 55.00 46.00 S 58.50 46.00, 60.00 46.00 S 63.50 46.00, 65.00 46.00 S 69.31 47.33, 70.00 46.00 S 74.28 28.17, 75.00 26.86 S 78.50 27.72, 80.00 27.79 S 83.55 26.94, 85.00 27.31 S 88.55 29.98, 90.00 30.36 S 93.50 29.95, 95.00 30.00 S 98.81 29.78, 100.00 30.69 S 103.52 37.90, 105.00 37.64 S 108.89 29.94, 110.00 28.94 S 113.73 27.81, 115.00 28.60 S 118.85 34.18, 120.00 35.14 S 123.86 37.95, 125.00 36.97 S 128.54 26.86, 130.00 26.50 S 133.82 33.62, 135.00 34.55 S 138.60 34.90, 140.00 34.36 S 143.52 30.46, 145.00 30.73 S 148.68 35.49, 150.00 36.19 S 153.50 36.09, 155.00 36.05 S 158.82 36.82, 160.00 35.90 S 163.55 27.86, 165.00 28.26 S 168.56 38.25, 170.00 38.66 S 173.91 32.15, 175.00 31.12 S 178.53 29.46, 180.00 29.14 S 183.51 28.72, 185.00 28.93 S 188.71 29.77, 190.00 30.54 S 193.80 34.03, 195.00 34.94 S 198.50 38.12, 200.00 38.08 S 203.76 35.52, 205.00 34.68"
        fill="none">
        <animate attributeName="stroke-dashoffset"
            from="308.5098441422904" to="0" dur="2.2s"/>
        <animate attributeName="stroke-dasharray"
            from="308.5098441422904" to="308.5098441422904"/>
    </path>
    <circle r="4" cx="5" cy="46" fill="#3023AE"/>
    <circle r="4" cx="205" cy="34.67546869839843" fill="#C86DD7" opacity="0">
        <animate attributeName="opacity"
            from="0" to="1" dur="0.1s" begin="2.2s" fill="freeze"/>
    </circle>
</svg>