<svg width="200" height="50" viewBox="0 0 210 50" xmlns="http://www.w3.org/2000/svg">
    <!-- 368 stargazers -->
    <!-- created at Fri May 08 2026 09:32:28 GMT+0000 (Coordinated Universal Time) -->
    <defs>
        <linearGradient id="stroke" x1="0%" y1="0%" x2="100%" y2="0%">
            <stop stop-color="#3023AE" offset="0%"/>
            <stop stop-color="#C86DD7" offset="100%"/>
        </linearGradient>
    </defs>
    <path stroke="url(#stroke)"
        stroke-width="3"
        stroke-linejoin="round"
        stroke-linecap="round"
        d="M5.00 46.0001 C 5.44 44.57, 9.53 31.05, 10.00 29.62 S 13.94 17.06, 15.00 16.00 S 19.19 18.33, 20.00 19.59 S 24.39 30.16, 25.00 31.53 S 28.60 41.63, 30.00 42.16 S 33.53 35.61, 35.00 35.29 S 38.98 38.90, 40.00 39.99 S 43.71 45.23, 45.00 46.00 S 48.50 46.00, 50.00 46.00 S 53.50 46.00, 55.00 46.00 S 58.50 46.00, 60.00 46.00 S 64.39 47.37, 65.00 46.00 S 69.34 24.92, 70.00 23.57 S 73.57 25.21, 75.00 25.65 S 78.57 26.19, 80.00 26.64 S 83.55 28.40, 85.00 28.79 S 88.87 28.39, 90.00 29.38 S 93.52 37.76, 95.00 37.49 S 98.96 28.62, 100.00 27.55 S 103.79 26.26, 105.00 27.15 S 108.56 34.48, 110.00 34.89 S 113.67 30.67, 115.00 29.98 S 118.62 29.08, 120.00 29.67 S 123.51 34.11, 125.00 34.24 S 128.52 30.28, 130.00 30.55 S 133.57 35.62, 135.00 36.06 S 138.73 34.42, 140.00 33.63 S 143.50 29.83, 145.00 29.77 S 148.51 33.04, 150.00 33.23 S 153.70 31.79, 155.00 31.03 S 158.68 28.12, 160.00 27.40 S 163.66 24.95, 165.00 25.63 S 169.06 31.31, 170.00 32.48 S 173.53 37.77, 175.00 38.09 S 178.59 35.17, 180.00 34.67 S 183.56 34.94, 185.00 34.52 S 188.67 32.45, 190.00 31.77 S 193.64 29.99, 195.00 29.36 S 198.64 26.55, 200.00 27.18 S 204.11 32.75, 205.00 33.96"
        fill="none">
        <animate attributeName="stroke-dashoffset"
            from="308.5070257008987" to="0" dur="2.2s"/>
        <animate attributeName="stroke-dasharray"
            from="308.5070257008987" to="308.5070257008987"/>
    </path>
    <circle r="4" cx="5" cy="46" fill="#3023AE"/>
    <circle r="4" cx="205" cy="33.959542405005735" fill="#C86DD7" opacity="0">
        <animate attributeName="opacity"
            from="0" to="1" dur="0.1s" begin="2.2s" fill="freeze"/>
    </circle>
</svg>