<svg width="200" height="50" viewBox="0 0 210 50" xmlns="http://www.w3.org/2000/svg">
    <!-- 296 stargazers -->
    <!-- created at Wed Mar 04 2026 16:24:48 GMT+0000 (Coordinated Universal Time) -->
    <defs>
        <linearGradient id="stroke" x1="0%" y1="0%" x2="100%" y2="0%">
            <stop stop-color="#3023AE" offset="0%"/>
            <stop stop-color="#C86DD7" offset="100%"/>
        </linearGradient>
    </defs>
    <path stroke="url(#stroke)"
        stroke-width="3"
        stroke-linejoin="round"
        stroke-linecap="round"
        d="M5.00 46.0001 C 5.60 44.63, 9.43 36.00, 10.00 34.61 S 14.29 22.76, 15.00 21.43 S 19.05 14.84, 20.00 16.00 S 23.64 32.99, 25.00 33.63 S 28.67 19.96, 30.00 20.65 S 34.35 37.41, 35.00 38.77 S 38.50 41.51, 40.00 41.62 S 43.73 40.33, 45.00 39.53 S 48.52 35.12, 50.00 35.35 S 53.69 40.33, 55.00 41.05 S 58.66 40.22, 60.00 40.88 S 63.66 45.32, 65.00 46.00 S 68.50 46.00, 70.00 46.00 S 73.50 46.00, 75.00 46.00 S 78.50 46.00, 80.00 46.00 S 83.50 46.00, 85.00 46.00 S 88.50 46.00, 90.00 46.00 S 93.50 46.00, 95.00 46.00 S 98.50 46.00, 100.00 46.00 S 103.50 46.00, 105.00 46.00 S 109.51 47.42, 110.00 46.00 S 114.28 18.69, 115.00 17.38 S 119.01 26.68, 120.00 27.81 S 123.50 28.74, 125.00 28.85 S 128.53 28.84, 130.00 28.55 S 133.64 26.19, 135.00 26.82 S 138.54 32.88, 140.00 33.24 S 143.54 29.62, 145.00 29.26 S 148.58 30.32, 150.00 30.80 S 153.61 32.06, 155.00 32.63 S 159.10 33.73, 160.00 34.93 S 163.66 46.67, 165.00 46.00 S 169.22 31.18, 170.00 29.90 S 173.79 30.57, 175.00 29.68 S 179.22 21.34, 180.00 22.62 S 183.74 45.19, 185.00 46.00 S 188.50 29.05, 190.00 29.05 S 193.53 45.72, 195.00 46.00 S 198.50 30.97, 200.00 30.97 S 204.53 44.58, 205.00 46.00"
        fill="none">
        <animate attributeName="stroke-dashoffset"
            from="392.5484586655981" to="0" dur="2.2s"/>
        <animate attributeName="stroke-dasharray"
            from="392.5484586655981" to="392.5484586655981"/>
    </path>
    <circle r="4" cx="5" cy="46" fill="#3023AE"/>
    <circle r="4" cx="205" cy="46" fill="#C86DD7" opacity="0">
        <animate attributeName="opacity"
            from="0" to="1" dur="0.1s" begin="2.2s" fill="freeze"/>
    </circle>
</svg>