<svg width="200" height="50" viewBox="0 0 210 50" xmlns="http://www.w3.org/2000/svg">
    <!-- 329 stargazers -->
    <!-- created at Thu Apr 02 2026 11:22:59 GMT+0000 (Coordinated Universal Time) -->
    <defs>
        <linearGradient id="stroke" x1="0%" y1="0%" x2="100%" y2="0%">
            <stop stop-color="#3023AE" offset="0%"/>
            <stop stop-color="#C86DD7" offset="100%"/>
        </linearGradient>
    </defs>
    <path stroke="url(#stroke)"
        stroke-width="3"
        stroke-linejoin="round"
        stroke-linecap="round"
        d="M5.00 46.0001 C 5.59 44.62, 9.53 35.79, 10.00 34.37 S 14.01 17.12, 15.00 16.00 S 18.86 22.09, 20.00 23.06 S 24.05 23.37, 25.00 24.53 S 29.25 33.96, 30.00 35.26 S 33.50 41.93, 35.00 41.99 S 38.54 36.03, 40.00 35.71 S 43.70 39.05, 45.00 39.79 S 48.73 40.64, 50.00 41.43 S 53.64 45.38, 55.00 46.00 S 58.50 46.00, 60.00 46.00 S 63.50 46.00, 65.00 46.00 S 68.50 46.00, 70.00 46.00 S 73.50 46.00, 75.00 46.00 S 78.50 46.00, 80.00 46.00 S 84.44 47.39, 85.00 46.00 S 89.32 22.67, 90.00 21.33 S 93.80 25.36, 95.00 26.26 S 98.53 28.47, 100.00 28.79 S 103.50 28.35, 105.00 28.42 S 108.64 28.58, 110.00 29.21 S 113.53 32.76, 115.00 33.06 S 119.08 30.07, 120.00 31.25 S 123.64 46.63, 125.00 46.00 S 129.32 28.00, 130.00 26.67 S 133.67 25.64, 135.00 26.33 S 139.06 30.69, 140.00 31.86 S 143.60 38.28, 145.00 38.82 S 148.99 36.79, 150.00 35.69 S 153.64 28.51, 155.00 27.87 S 158.79 30.09, 160.00 30.98 S 163.52 34.98, 165.00 35.23 S 168.76 33.46, 170.00 32.62 S 174.10 27.30, 175.00 28.50 S 178.72 45.21, 180.00 46.00 S 184.02 35.78, 185.00 34.64 S 188.57 34.05, 190.00 34.50 S 193.78 38.64, 195.00 37.77 S 198.73 28.19, 200.00 27.38 S 203.83 30.47, 205.00 31.41"
        fill="none">
        <animate attributeName="stroke-dashoffset"
            from="342.8896072932769" to="0" dur="2.2s"/>
        <animate attributeName="stroke-dasharray"
            from="342.8896072932769" to="342.8896072932769"/>
    </path>
    <circle r="4" cx="5" cy="46" fill="#3023AE"/>
    <circle r="4" cx="205" cy="31.41123230257764" fill="#C86DD7" opacity="0">
        <animate attributeName="opacity"
            from="0" to="1" dur="0.1s" begin="2.2s" fill="freeze"/>
    </circle>
</svg>