<svg width="200" height="50" viewBox="0 0 210 50" xmlns="http://www.w3.org/2000/svg">
    <!-- 8364 stargazers -->
    <!-- created at Wed Mar 18 2026 16:00:00 GMT+0000 (Coordinated Universal Time) -->
    <defs>
        <linearGradient id="stroke" x1="0%" y1="0%" x2="100%" y2="0%">
            <stop stop-color="#3023AE" offset="0%"/>
            <stop stop-color="#C86DD7" offset="100%"/>
        </linearGradient>
    </defs>
    <path stroke="url(#stroke)"
        stroke-width="3"
        stroke-linejoin="round"
        stroke-linecap="round"
        d="M5.00 46.0001 C 6.39 45.44, 8.54 44.34, 10.00 44.00 S 13.50 43.82, 15.00 43.72 S 18.51 43.56, 20.00 43.35 S 23.68 43.04, 25.00 42.34 S 28.95 39.11, 30.00 38.04 S 33.54 32.55, 35.00 32.20 S 38.54 35.32, 40.00 35.65 S 43.50 34.58, 45.00 34.47 S 48.53 35.24, 50.00 34.94 S 53.55 32.85, 55.00 32.46 S 58.53 32.54, 60.00 32.23 S 63.51 30.53, 65.00 30.34 S 68.51 30.76, 70.00 30.95 S 73.50 31.75, 75.00 31.65 S 78.52 30.60, 80.00 30.33 S 83.53 30.14, 85.00 29.84 S 88.52 28.58, 90.00 28.33 S 93.50 28.12, 95.00 28.12 S 98.51 28.52, 100.00 28.31 S 103.50 26.67, 105.00 26.72 S 108.50 28.60, 110.00 28.64 S 113.56 27.43, 115.00 27.01 S 118.53 26.04, 120.00 25.73 S 123.51 25.05, 125.00 24.90 S 128.52 24.99, 130.00 24.76 S 133.53 23.65, 135.00 23.34 S 138.59 23.16, 140.00 22.65 S 143.56 20.15, 145.00 19.73 S 148.51 19.60, 150.00 19.79 S 153.51 20.87, 155.00 20.99 S 158.66 21.30, 160.00 20.63 S 163.58 16.48, 165.00 16.00 S 168.52 17.02, 170.00 17.27 S 173.54 17.35, 175.00 17.69 S 178.55 19.19, 180.00 19.56 S 183.50 20.22, 185.00 20.20 S 188.50 19.32, 190.00 19.40 S 193.54 20.41, 195.00 20.76 S 198.52 22.07, 200.00 21.80 S 203.70 19.68, 205.00 18.93"
        fill="none">
        <animate attributeName="stroke-dashoffset"
            from="214.19820942159504" to="0" dur="2.2s"/>
        <animate attributeName="stroke-dasharray"
            from="214.19820942159504" to="214.19820942159504"/>
    </path>
    <circle r="4" cx="5" cy="46" fill="#3023AE"/>
    <circle r="4" cx="205" cy="18.934035122981243" fill="#C86DD7" opacity="0">
        <animate attributeName="opacity"
            from="0" to="1" dur="0.1s" begin="2.2s" fill="freeze"/>
    </circle>
</svg>