<svg width="200" height="50" viewBox="0 0 210 50" xmlns="http://www.w3.org/2000/svg">
    <!-- 8413 stargazers -->
    <!-- created at Wed Mar 25 2026 16:17:40 GMT+0000 (Coordinated Universal Time) -->
    <defs>
        <linearGradient id="stroke" x1="0%" y1="0%" x2="100%" y2="0%">
            <stop stop-color="#3023AE" offset="0%"/>
            <stop stop-color="#C86DD7" offset="100%"/>
        </linearGradient>
    </defs>
    <path stroke="url(#stroke)"
        stroke-width="3"
        stroke-linejoin="round"
        stroke-linecap="round"
        d="M5.00 46.0001 C 6.39 45.44, 8.54 44.34, 10.00 44.00 S 13.50 43.82, 15.00 43.72 S 18.51 43.56, 20.00 43.35 S 23.71 43.10, 25.00 42.35 S 28.93 38.56, 30.00 37.50 S 33.52 32.74, 35.00 32.49 S 38.53 35.49, 40.00 35.78 S 43.50 34.54, 45.00 34.42 S 48.53 35.26, 50.00 34.96 S 53.56 32.74, 55.00 32.34 S 58.53 32.44, 60.00 32.14 S 63.51 30.41, 65.00 30.29 S 68.51 31.15, 70.00 31.32 S 73.51 31.56, 75.00 31.42 S 78.53 30.71, 80.00 30.40 S 83.52 29.47, 85.00 29.25 S 88.51 29.10, 90.00 28.92 S 93.50 28.12, 95.00 28.02 S 98.51 28.41, 100.00 28.25 S 103.50 26.97, 105.00 26.96 S 108.50 28.20, 110.00 28.19 S 113.53 27.15, 115.00 26.85 S 118.54 26.49, 120.00 26.16 S 123.51 24.81, 125.00 24.62 S 128.51 25.06, 130.00 24.88 S 133.57 23.88, 135.00 23.42 S 138.58 22.17, 140.00 21.68 S 143.52 20.18, 145.00 19.93 S 148.52 19.78, 150.00 19.99 S 153.50 21.41, 155.00 21.39 S 158.68 20.60, 160.00 19.88 S 163.57 16.46, 165.00 16.00 S 168.56 16.19, 170.00 16.63 S 173.55 18.62, 175.00 19.02 S 178.52 19.12, 180.00 19.40 S 183.51 21.05, 185.00 20.86 S 188.51 17.95, 190.00 18.12 S 193.56 21.57, 195.00 22.00 S 198.59 21.63, 200.00 21.13 S 203.67 19.18, 205.00 18.48"
        fill="none">
        <animate attributeName="stroke-dashoffset"
            from="215.09920048945565" to="0" dur="2.2s"/>
        <animate attributeName="stroke-dasharray"
            from="215.09920048945565" to="215.09920048945565"/>
    </path>
    <circle r="4" cx="5" cy="46" fill="#3023AE"/>
    <circle r="4" cx="205" cy="18.48240307901408" fill="#C86DD7" opacity="0">
        <animate attributeName="opacity"
            from="0" to="1" dur="0.1s" begin="2.2s" fill="freeze"/>
    </circle>
</svg>