<svg width="200" height="50" viewBox="0 0 210 50" xmlns="http://www.w3.org/2000/svg">
    <!-- 8484 stargazers -->
    <!-- created at Wed Apr 08 2026 16:58:40 GMT+0000 (Coordinated Universal Time) -->
    <defs>
        <linearGradient id="stroke" x1="0%" y1="0%" x2="100%" y2="0%">
            <stop stop-color="#3023AE" offset="0%"/>
            <stop stop-color="#C86DD7" offset="100%"/>
        </linearGradient>
    </defs>
    <path stroke="url(#stroke)"
        stroke-width="3"
        stroke-linejoin="round"
        stroke-linecap="round"
        d="M5.00 46.0001 C 6.40 45.45, 8.54 44.36, 10.00 44.03 S 13.50 43.84, 15.00 43.75 S 18.51 43.58, 20.00 43.38 S 23.73 43.17, 25.00 42.38 S 28.91 38.22, 30.00 37.18 S 33.52 33.07, 35.00 32.85 S 38.52 35.48, 40.00 35.74 S 43.51 34.80, 45.00 34.64 S 48.53 34.95, 50.00 34.65 S 53.55 33.02, 55.00 32.65 S 58.54 32.48, 60.00 32.15 S 63.50 30.50, 65.00 30.39 S 68.51 31.23, 70.00 31.44 S 73.51 31.95, 75.00 31.78 S 78.55 30.72, 80.00 30.32 S 83.51 29.20, 85.00 29.04 S 88.50 29.33, 90.00 29.22 S 93.51 28.51, 95.00 28.33 S 98.50 28.07, 100.00 27.97 S 103.50 27.68, 105.00 27.67 S 108.50 27.98, 110.00 27.87 S 113.53 27.26, 115.00 26.96 S 118.54 26.22, 120.00 25.88 S 123.50 24.71, 125.00 24.63 S 128.51 25.47, 130.00 25.33 S 133.61 24.27, 135.00 23.70 S 138.59 21.73, 140.00 21.23 S 143.51 20.34, 145.00 20.13 S 148.53 19.49, 150.00 19.81 S 153.50 22.42, 155.00 22.31 S 158.73 19.83, 160.00 19.03 S 163.51 16.19, 165.00 16.00 S 168.56 17.31, 170.00 17.74 S 173.55 18.60, 175.00 18.98 S 178.51 20.17, 180.00 20.37 S 183.51 20.44, 185.00 20.30 S 188.52 19.17, 190.00 19.41 S 193.51 21.70, 195.00 21.91 S 198.55 21.21, 200.00 20.82 S 203.57 19.71, 205.00 19.26"
        fill="none">
        <animate attributeName="stroke-dashoffset"
            from="212.79650437769274" to="0" dur="2.2s"/>
        <animate attributeName="stroke-dasharray"
            from="212.79650437769274" to="212.79650437769274"/>
    </path>
    <circle r="4" cx="5" cy="46" fill="#3023AE"/>
    <circle r="4" cx="205" cy="19.256473744365575" fill="#C86DD7" opacity="0">
        <animate attributeName="opacity"
            from="0" to="1" dur="0.1s" begin="2.2s" fill="freeze"/>
    </circle>
</svg>