<svg width="200" height="50" viewBox="0 0 210 50" xmlns="http://www.w3.org/2000/svg">
    <!-- 8442 stargazers -->
    <!-- created at Wed Apr 01 2026 16:44:25 GMT+0000 (Coordinated Universal Time) -->
    <defs>
        <linearGradient id="stroke" x1="0%" y1="0%" x2="100%" y2="0%">
            <stop stop-color="#3023AE" offset="0%"/>
            <stop stop-color="#C86DD7" offset="100%"/>
        </linearGradient>
    </defs>
    <path stroke="url(#stroke)"
        stroke-width="3"
        stroke-linejoin="round"
        stroke-linecap="round"
        d="M5.00 46.0001 C 6.39 45.45, 8.54 44.35, 10.00 44.02 S 13.50 43.83, 15.00 43.74 S 18.51 43.58, 20.00 43.37 S 23.72 43.15, 25.00 42.37 S 28.92 38.33, 30.00 37.28 S 33.51 32.93, 35.00 32.73 S 38.52 35.63, 40.00 35.88 S 43.51 34.56, 45.00 34.42 S 48.53 35.24, 50.00 34.95 S 53.56 32.90, 55.00 32.50 S 58.54 32.45, 60.00 32.13 S 63.50 30.40, 65.00 30.29 S 68.51 31.21, 70.00 31.42 S 73.51 31.85, 75.00 31.68 S 78.55 30.73, 80.00 30.34 S 83.51 29.17, 85.00 29.01 S 88.51 29.45, 90.00 29.28 S 93.51 28.05, 95.00 27.89 S 98.50 28.30, 100.00 28.24 S 103.50 27.51, 105.00 27.47 S 108.50 28.06, 110.00 27.98 S 113.52 27.16, 115.00 26.93 S 118.55 26.81, 120.00 26.43 S 123.51 24.48, 125.00 24.29 S 128.50 25.22, 130.00 25.16 S 133.60 24.38, 135.00 23.84 S 138.59 21.82, 140.00 21.29 S 143.51 20.31, 145.00 20.11 S 148.54 19.59, 150.00 19.91 S 153.51 22.50, 155.00 22.35 S 158.73 19.72, 160.00 18.92 S 163.53 16.28, 165.00 16.00 S 168.59 16.47, 170.00 16.99 S 173.57 19.28, 175.00 19.72 S 178.50 19.97, 180.00 20.07 S 183.51 20.57, 185.00 20.40 S 188.51 18.76, 190.00 18.95 S 193.53 21.40, 195.00 21.70 S 198.54 21.37, 200.00 21.01 S 203.59 19.71, 205.00 19.20"
        fill="none">
        <animate attributeName="stroke-dashoffset"
            from="214.29580232675605" to="0" dur="2.2s"/>
        <animate attributeName="stroke-dasharray"
            from="214.29580232675605" to="214.29580232675605"/>
    </path>
    <circle r="4" cx="5" cy="46" fill="#3023AE"/>
    <circle r="4" cx="205" cy="19.20468477481152" fill="#C86DD7" opacity="0">
        <animate attributeName="opacity"
            from="0" to="1" dur="0.1s" begin="2.2s" fill="freeze"/>
    </circle>
</svg>