<svg width="200" height="50" viewBox="0 0 210 50" xmlns="http://www.w3.org/2000/svg">
    <!-- 8577 stargazers -->
    <!-- created at Fri Apr 24 2026 06:11:58 GMT+0000 (Coordinated Universal Time) -->
    <defs>
        <linearGradient id="stroke" x1="0%" y1="0%" x2="100%" y2="0%">
            <stop stop-color="#3023AE" offset="0%"/>
            <stop stop-color="#C86DD7" offset="100%"/>
        </linearGradient>
    </defs>
    <path stroke="url(#stroke)"
        stroke-width="3"
        stroke-linejoin="round"
        stroke-linecap="round"
        d="M5.00 46.0001 C 6.39 45.43, 8.54 44.30, 10.00 43.96 S 13.50 43.78, 15.00 43.67 S 18.51 43.40, 20.00 43.21 S 23.75 43.17, 25.00 42.34 S 28.93 37.67, 30.00 36.62 S 33.51 32.65, 35.00 32.47 S 38.52 35.14, 40.00 35.40 S 43.51 34.40, 45.00 34.23 S 48.53 34.59, 50.00 34.28 S 53.56 32.51, 55.00 32.10 S 58.53 31.79, 60.00 31.47 S 63.50 30.02, 65.00 29.91 S 68.52 30.48, 70.00 30.72 S 73.51 31.64, 75.00 31.48 S 78.57 30.09, 80.00 29.64 S 83.51 28.48, 85.00 28.31 S 88.51 28.63, 90.00 28.50 S 93.50 27.56, 95.00 27.45 S 98.50 27.84, 100.00 27.72 S 103.50 26.78, 105.00 26.67 S 108.50 27.06, 110.00 26.94 S 113.51 26.12, 115.00 25.92 S 118.53 25.88, 120.00 25.58 S 123.52 24.15, 125.00 23.92 S 128.50 24.11, 130.00 24.04 S 133.65 24.08, 135.00 23.42 S 138.59 19.68, 140.00 19.16 S 143.50 19.66, 145.00 19.69 S 148.51 19.24, 150.00 19.42 S 153.57 21.35, 155.00 20.89 S 158.65 16.87, 160.00 16.21 S 163.50 15.93, 165.00 16.00 S 168.54 16.32, 170.00 16.67 S 173.56 18.01, 175.00 18.42 S 178.51 19.38, 180.00 19.52 S 183.51 19.46, 185.00 19.34 S 188.56 18.28, 190.00 18.69 S 193.50 22.18, 195.00 22.20 S 198.61 19.42, 200.00 18.85 S 203.52 18.32, 205.00 18.09"
        fill="none">
        <animate attributeName="stroke-dashoffset"
            from="214.93277878031492" to="0" dur="2.2s"/>
        <animate attributeName="stroke-dasharray"
            from="214.93277878031492" to="214.93277878031492"/>
    </path>
    <circle r="4" cx="5" cy="46" fill="#3023AE"/>
    <circle r="4" cx="205" cy="18.091450619560497" fill="#C86DD7" opacity="0">
        <animate attributeName="opacity"
            from="0" to="1" dur="0.1s" begin="2.2s" fill="freeze"/>
    </circle>
</svg>