<svg width="200" height="50" viewBox="0 0 210 50" xmlns="http://www.w3.org/2000/svg">
    <!-- 8272 stargazers -->
    <!-- created at Wed Mar 04 2026 15:03:21 GMT+0000 (Coordinated Universal Time) -->
    <defs>
        <linearGradient id="stroke" x1="0%" y1="0%" x2="100%" y2="0%">
            <stop stop-color="#3023AE" offset="0%"/>
            <stop stop-color="#C86DD7" offset="100%"/>
        </linearGradient>
    </defs>
    <path stroke="url(#stroke)"
        stroke-width="3"
        stroke-linejoin="round"
        stroke-linecap="round"
        d="M5.00 46.0001 C 6.39 45.43, 8.54 44.30, 10.00 43.97 S 13.50 43.76, 15.00 43.68 S 18.51 43.60, 20.00 43.39 S 23.68 42.99, 25.00 42.27 S 28.95 39.01, 30.00 37.93 S 33.55 32.45, 35.00 32.07 S 38.54 34.98, 40.00 35.32 S 43.50 34.50, 45.00 34.40 S 48.53 34.94, 50.00 34.66 S 53.55 32.91, 55.00 32.53 S 58.54 32.35, 60.00 32.02 S 63.52 30.52, 65.00 30.26 S 68.51 30.13, 70.00 30.29 S 73.50 31.33, 75.00 31.35 S 78.52 30.60, 80.00 30.38 S 83.54 30.20, 85.00 29.84 S 88.53 28.25, 90.00 27.96 S 93.50 27.85, 95.00 27.87 S 98.51 28.31, 100.00 28.12 S 103.50 26.63, 105.00 26.58 S 108.50 27.77, 110.00 27.79 S 113.53 27.02, 115.00 26.71 S 118.51 25.82, 120.00 25.63 S 123.52 25.69, 125.00 25.44 S 128.54 24.30, 130.00 23.95 S 133.51 23.20, 135.00 23.02 S 138.57 23.17, 140.00 22.73 S 143.59 20.45, 145.00 19.93 S 148.50 19.00, 150.00 19.05 S 153.53 19.94, 155.00 20.25 S 158.61 21.73, 160.00 21.17 S 163.67 16.97, 165.00 16.28 S 168.50 15.90, 170.00 16.00 S 173.55 16.56, 175.00 16.94 S 178.57 18.18, 180.00 18.62 S 183.50 19.90, 185.00 19.99 S 188.51 19.37, 190.00 19.23 S 193.55 18.67, 195.00 19.07 S 198.50 21.86, 200.00 21.97 S 203.62 20.45, 205.00 19.87"
        fill="none">
        <animate attributeName="stroke-dashoffset"
            from="213.94875149139287" to="0" dur="2.2s"/>
        <animate attributeName="stroke-dasharray"
            from="213.94875149139287" to="213.94875149139287"/>
    </path>
    <circle r="4" cx="5" cy="46" fill="#3023AE"/>
    <circle r="4" cx="205" cy="19.86699046325585" fill="#C86DD7" opacity="0">
        <animate attributeName="opacity"
            from="0" to="1" dur="0.1s" begin="2.2s" fill="freeze"/>
    </circle>
</svg>