<svg width="200" height="50" viewBox="0 0 210 50" xmlns="http://www.w3.org/2000/svg">
    <!-- 8535 stargazers -->
    <!-- created at Fri Apr 17 2026 05:48:05 GMT+0000 (Coordinated Universal Time) -->
    <defs>
        <linearGradient id="stroke" x1="0%" y1="0%" x2="100%" y2="0%">
            <stop stop-color="#3023AE" offset="0%"/>
            <stop stop-color="#C86DD7" offset="100%"/>
        </linearGradient>
    </defs>
    <path stroke="url(#stroke)"
        stroke-width="3"
        stroke-linejoin="round"
        stroke-linecap="round"
        d="M5.00 46.0001 C 6.39 45.44, 8.54 44.32, 10.00 43.98 S 13.50 43.81, 15.00 43.69 S 18.51 43.43, 20.00 43.23 S 23.73 43.18, 25.00 42.38 S 28.93 37.93, 30.00 36.88 S 33.51 32.69, 35.00 32.50 S 38.52 35.34, 40.00 35.61 S 43.51 34.52, 45.00 34.34 S 48.53 34.74, 50.00 34.43 S 53.55 32.62, 55.00 32.24 S 58.54 32.12, 60.00 31.79 S 63.51 30.12, 65.00 29.99 S 68.52 30.71, 70.00 30.94 S 73.51 31.75, 75.00 31.58 S 78.57 30.29, 80.00 29.84 S 83.50 28.48, 85.00 28.37 S 88.50 29.19, 90.00 29.09 S 93.51 27.88, 95.00 27.67 S 98.50 27.76, 100.00 27.68 S 103.51 27.30, 105.00 27.16 S 108.50 26.78, 110.00 26.72 S 113.51 26.99, 115.00 26.80 S 118.54 25.77, 120.00 25.42 S 123.51 24.53, 125.00 24.40 S 128.51 24.76, 130.00 24.57 S 133.65 23.79, 135.00 23.14 S 138.57 20.25, 140.00 19.78 S 143.50 19.87, 145.00 19.86 S 148.51 19.58, 150.00 19.76 S 153.54 21.42, 155.00 21.09 S 158.66 18.22, 160.00 17.54 S 163.51 16.14, 165.00 16.00 S 168.55 16.23, 170.00 16.61 S 173.59 18.12, 175.00 18.64 S 178.50 20.30, 180.00 20.35 S 183.51 19.10, 185.00 18.93 S 188.57 18.71, 190.00 19.16 S 193.50 22.02, 195.00 22.13 S 198.61 20.40, 200.00 19.84 S 203.58 18.59, 205.00 18.09"
        fill="none">
        <animate attributeName="stroke-dashoffset"
            from="213.839228003126" to="0" dur="2.2s"/>
        <animate attributeName="stroke-dasharray"
            from="213.839228003126" to="213.839228003126"/>
    </path>
    <circle r="4" cx="5" cy="46" fill="#3023AE"/>
    <circle r="4" cx="205" cy="18.089009994337403" fill="#C86DD7" opacity="0">
        <animate attributeName="opacity"
            from="0" to="1" dur="0.1s" begin="2.2s" fill="freeze"/>
    </circle>
</svg>