<svg width="200" height="50" viewBox="0 0 210 50" xmlns="http://www.w3.org/2000/svg">
    <!-- 8525 stargazers -->
    <!-- created at Wed Apr 15 2026 17:29:08 GMT+0000 (Coordinated Universal Time) -->
    <defs>
        <linearGradient id="stroke" x1="0%" y1="0%" x2="100%" y2="0%">
            <stop stop-color="#3023AE" offset="0%"/>
            <stop stop-color="#C86DD7" offset="100%"/>
        </linearGradient>
    </defs>
    <path stroke="url(#stroke)"
        stroke-width="3"
        stroke-linejoin="round"
        stroke-linecap="round"
        d="M5.00 46.0001 C 6.39 45.44, 8.54 44.33, 10.00 43.99 S 13.50 43.82, 15.00 43.71 S 18.51 43.44, 20.00 43.25 S 23.73 43.20, 25.00 42.40 S 28.93 37.98, 30.00 36.93 S 33.51 32.82, 35.00 32.62 S 38.52 35.33, 40.00 35.60 S 43.51 34.61, 45.00 34.44 S 48.53 34.77, 50.00 34.45 S 53.55 32.68, 55.00 32.31 S 58.54 32.23, 60.00 31.90 S 63.50 30.17, 65.00 30.05 S 68.52 30.86, 70.00 31.10 S 73.51 31.90, 75.00 31.70 S 78.57 30.25, 80.00 29.80 S 83.50 28.74, 85.00 28.62 S 88.50 29.13, 90.00 29.01 S 93.51 27.99, 95.00 27.81 S 98.50 27.87, 100.00 27.83 S 103.51 27.72, 105.00 27.52 S 108.50 26.58, 110.00 26.52 S 113.51 27.32, 115.00 27.14 S 118.55 25.69, 120.00 25.30 S 123.50 24.53, 125.00 24.48 S 128.51 25.12, 130.00 24.92 S 133.65 23.84, 135.00 23.18 S 138.57 20.47, 140.00 20.01 S 143.50 19.93, 145.00 19.92 S 148.52 19.78, 150.00 19.99 S 153.54 21.70, 155.00 21.37 S 158.68 18.41, 160.00 17.70 S 163.51 16.15, 165.00 16.00 S 168.57 16.28, 170.00 16.73 S 173.60 18.55, 175.00 19.08 S 178.50 20.48, 180.00 20.49 S 183.51 19.31, 185.00 19.13 S 188.55 18.86, 190.00 19.26 S 193.51 21.74, 195.00 21.90 S 198.59 20.83, 200.00 20.32 S 203.61 18.86, 205.00 18.30"
        fill="none">
        <animate attributeName="stroke-dashoffset"
            from="213.60811929434826" to="0" dur="2.2s"/>
        <animate attributeName="stroke-dasharray"
            from="213.60811929434826" to="213.60811929434826"/>
    </path>
    <circle r="4" cx="5" cy="46" fill="#3023AE"/>
    <circle r="4" cx="205" cy="18.29558764847524" fill="#C86DD7" opacity="0">
        <animate attributeName="opacity"
            from="0" to="1" dur="0.1s" begin="2.2s" fill="freeze"/>
    </circle>
</svg>