<svg width="200" height="50" viewBox="0 0 210 50" xmlns="http://www.w3.org/2000/svg">
    <!-- 8644 stargazers -->
    <!-- created at Fri May 08 2026 07:51:36 GMT+0000 (Coordinated Universal Time) -->
    <defs>
        <linearGradient id="stroke" x1="0%" y1="0%" x2="100%" y2="0%">
            <stop stop-color="#3023AE" offset="0%"/>
            <stop stop-color="#C86DD7" offset="100%"/>
        </linearGradient>
    </defs>
    <path stroke="url(#stroke)"
        stroke-width="3"
        stroke-linejoin="round"
        stroke-linecap="round"
        d="M5.00 46.0001 C 6.39 45.45, 8.54 44.34, 10.00 44.01 S 13.50 43.84, 15.00 43.73 S 18.51 43.47, 20.00 43.28 S 23.75 43.25, 25.00 42.43 S 28.92 37.77, 30.00 36.72 S 33.51 32.91, 35.00 32.73 S 38.53 35.19, 40.00 35.49 S 43.51 34.91, 45.00 34.73 S 48.54 34.63, 50.00 34.31 S 53.54 32.86, 55.00 32.52 S 58.54 32.27, 60.00 31.93 S 63.51 30.33, 65.00 30.20 S 68.51 30.90, 70.00 31.10 S 73.50 31.63, 75.00 31.51 S 78.56 30.70, 80.00 30.28 S 83.52 28.82, 85.00 28.60 S 88.50 28.88, 90.00 28.77 S 93.51 28.06, 95.00 27.87 S 98.50 27.47, 100.00 27.46 S 103.50 27.84, 105.00 27.79 S 108.52 27.37, 110.00 27.15 S 113.51 26.42, 115.00 26.28 S 118.53 26.54, 120.00 26.22 S 123.55 24.52, 125.00 24.12 S 128.50 23.63, 130.00 23.52 S 133.57 23.80, 135.00 23.35 S 138.58 20.91, 140.00 20.42 S 143.50 19.88, 145.00 19.89 S 148.50 20.38, 150.00 20.50 S 153.63 21.31, 155.00 20.69 S 158.57 16.46, 160.00 16.00 S 163.52 17.18, 165.00 17.45 S 168.52 17.52, 170.00 17.79 S 173.56 18.86, 175.00 19.29 S 178.50 20.88, 180.00 20.79 S 183.51 18.55, 185.00 18.70 S 188.55 21.36, 190.00 21.73 S 193.57 21.72, 195.00 21.27 S 198.51 18.76, 200.00 18.56 S 203.55 19.54, 205.00 19.94"
        fill="none">
        <animate attributeName="stroke-dashoffset"
            from="213.58808587922223" to="0" dur="2.2s"/>
        <animate attributeName="stroke-dasharray"
            from="213.58808587922223" to="213.58808587922223"/>
    </path>
    <circle r="4" cx="5" cy="46" fill="#3023AE"/>
    <circle r="4" cx="205" cy="19.94054983972508" fill="#C86DD7" opacity="0">
        <animate attributeName="opacity"
            from="0" to="1" dur="0.1s" begin="2.2s" fill="freeze"/>
    </circle>
</svg>