<svg width="200" height="50" viewBox="0 0 210 50" xmlns="http://www.w3.org/2000/svg">
    <!-- 8675 stargazers -->
    <!-- created at Fri May 15 2026 08:43:31 GMT+0000 (Coordinated Universal Time) -->
    <defs>
        <linearGradient id="stroke" x1="0%" y1="0%" x2="100%" y2="0%">
            <stop stop-color="#3023AE" offset="0%"/>
            <stop stop-color="#C86DD7" offset="100%"/>
        </linearGradient>
    </defs>
    <path stroke="url(#stroke)"
        stroke-width="3"
        stroke-linejoin="round"
        stroke-linecap="round"
        d="M5.00 46.0001 C 6.39 45.45, 8.54 44.35, 10.00 44.02 S 13.50 43.84, 15.00 43.73 S 18.51 43.48, 20.00 43.28 S 23.75 43.27, 25.00 42.44 S 28.92 37.63, 30.00 36.59 S 33.51 32.91, 35.00 32.76 S 38.53 35.28, 40.00 35.59 S 43.51 35.06, 45.00 34.87 S 48.54 34.62, 50.00 34.26 S 53.54 32.80, 55.00 32.45 S 58.53 32.18, 60.00 31.86 S 63.51 30.45, 65.00 30.31 S 68.51 30.74, 70.00 30.95 S 73.51 31.80, 75.00 31.67 S 78.56 30.47, 80.00 30.04 S 83.51 28.84, 85.00 28.68 S 88.50 29.08, 90.00 28.97 S 93.52 28.18, 95.00 27.95 S 98.50 27.49, 100.00 27.47 S 103.50 27.87, 105.00 27.79 S 108.51 27.19, 110.00 26.98 S 113.51 26.55, 115.00 26.38 S 118.53 26.12, 120.00 25.82 S 123.54 24.68, 125.00 24.35 S 128.51 23.75, 130.00 23.58 S 133.56 23.62, 135.00 23.19 S 138.61 21.17, 140.00 20.61 S 143.50 19.13, 145.00 19.19 S 148.51 20.87, 150.00 21.05 S 153.66 21.08, 155.00 20.40 S 158.58 16.48, 160.00 16.00 S 163.55 16.67, 165.00 17.06 S 168.54 18.35, 170.00 18.71 S 173.53 19.18, 175.00 19.50 S 178.50 21.01, 180.00 20.90 S 183.50 18.68, 185.00 18.77 S 188.54 21.11, 190.00 21.46 S 193.57 21.60, 195.00 21.16 S 198.50 18.45, 200.00 18.38 S 203.64 20.06, 205.00 20.69"
        fill="none">
        <animate attributeName="stroke-dashoffset"
            from="213.78680819700853" to="0" dur="2.2s"/>
        <animate attributeName="stroke-dasharray"
            from="213.78680819700853" to="213.78680819700853"/>
    </path>
    <circle r="4" cx="5" cy="46" fill="#3023AE"/>
    <circle r="4" cx="205" cy="20.692094867517476" fill="#C86DD7" opacity="0">
        <animate attributeName="opacity"
            from="0" to="1" dur="0.1s" begin="2.2s" fill="freeze"/>
    </circle>
</svg>