<svg width="200" height="50" viewBox="0 0 210 50" xmlns="http://www.w3.org/2000/svg">
    <!-- 8612 stargazers -->
    <!-- created at Fri May 01 2026 07:38:59 GMT+0000 (Coordinated Universal Time) -->
    <defs>
        <linearGradient id="stroke" x1="0%" y1="0%" x2="100%" y2="0%">
            <stop stop-color="#3023AE" offset="0%"/>
            <stop stop-color="#C86DD7" offset="100%"/>
        </linearGradient>
    </defs>
    <path stroke="url(#stroke)"
        stroke-width="3"
        stroke-linejoin="round"
        stroke-linecap="round"
        d="M5.00 46.0001 C 6.39 45.43, 8.54 44.31, 10.00 43.97 S 13.50 43.79, 15.00 43.68 S 18.51 43.41, 20.00 43.21 S 23.75 43.18, 25.00 42.35 S 28.93 37.59, 30.00 36.54 S 33.51 32.72, 35.00 32.53 S 38.53 34.97, 40.00 35.25 S 43.51 34.61, 45.00 34.44 S 48.53 34.44, 50.00 34.11 S 53.55 32.63, 55.00 32.24 S 58.54 31.76, 60.00 31.43 S 63.50 30.08, 65.00 29.98 S 68.51 30.60, 70.00 30.79 S 73.51 31.40, 75.00 31.26 S 78.56 30.31, 80.00 29.88 S 83.52 28.47, 85.00 28.24 S 88.50 28.42, 90.00 28.33 S 93.51 27.74, 95.00 27.62 S 98.50 27.62, 100.00 27.51 S 103.50 26.91, 105.00 26.84 S 108.50 27.15, 110.00 27.04 S 113.52 26.29, 115.00 26.06 S 118.54 25.85, 120.00 25.49 S 123.54 23.92, 125.00 23.58 S 128.50 23.16, 130.00 23.18 S 133.61 24.27, 135.00 23.71 S 138.60 19.73, 140.00 19.19 S 143.50 19.83, 145.00 19.84 S 148.51 19.10, 150.00 19.31 S 153.58 21.71, 155.00 21.24 S 158.67 16.68, 160.00 16.00 S 163.50 16.04, 165.00 16.12 S 168.56 16.10, 170.00 16.52 S 173.57 18.62, 175.00 19.07 S 178.50 19.78, 180.00 19.74 S 183.50 18.79, 185.00 18.83 S 188.54 19.70, 190.00 20.05 S 193.52 21.50, 195.00 21.23 S 198.54 18.56, 200.00 18.21 S 203.51 18.65, 205.00 18.83"
        fill="none">
        <animate attributeName="stroke-dashoffset"
            from="214.44452732577162" to="0" dur="2.2s"/>
        <animate attributeName="stroke-dasharray"
            from="214.44452732577162" to="214.44452732577162"/>
    </path>
    <circle r="4" cx="5" cy="46" fill="#3023AE"/>
    <circle r="4" cx="205" cy="18.83114509590502" fill="#C86DD7" opacity="0">
        <animate attributeName="opacity"
            from="0" to="1" dur="0.1s" begin="2.2s" fill="freeze"/>
    </circle>
</svg>