<svg width="200" height="50" viewBox="0 0 210 50" xmlns="http://www.w3.org/2000/svg">
    <!-- 8314 stargazers -->
    <!-- created at Wed Mar 11 2026 15:12:56 GMT+0000 (Coordinated Universal Time) -->
    <defs>
        <linearGradient id="stroke" x1="0%" y1="0%" x2="100%" y2="0%">
            <stop stop-color="#3023AE" offset="0%"/>
            <stop stop-color="#C86DD7" offset="100%"/>
        </linearGradient>
    </defs>
    <path stroke="url(#stroke)"
        stroke-width="3"
        stroke-linejoin="round"
        stroke-linecap="round"
        d="M5.00 46.0001 C 6.39 45.44, 8.54 44.32, 10.00 43.98 S 13.50 43.79, 15.00 43.69 S 18.51 43.52, 20.00 43.32 S 23.68 43.09, 25.00 42.38 S 28.95 39.03, 30.00 37.96 S 33.54 32.48, 35.00 32.12 S 38.54 35.13, 40.00 35.47 S 43.50 34.52, 45.00 34.41 S 48.53 35.09, 50.00 34.78 S 53.54 32.66, 55.00 32.31 S 58.53 32.69, 60.00 32.38 S 63.53 30.48, 65.00 30.20 S 68.51 30.34, 70.00 30.52 S 73.50 31.48, 75.00 31.45 S 78.51 30.58, 80.00 30.37 S 83.54 30.40, 85.00 30.05 S 88.54 28.26, 90.00 27.93 S 93.50 27.80, 95.00 27.84 S 98.50 28.28, 100.00 28.17 S 103.50 27.13, 105.00 27.07 S 108.50 27.79, 110.00 27.78 S 113.53 27.30, 115.00 26.99 S 118.53 25.94, 120.00 25.64 S 123.51 25.13, 125.00 24.95 S 128.53 24.67, 130.00 24.39 S 133.52 23.23, 135.00 23.01 S 138.55 23.30, 140.00 22.90 S 143.60 20.80, 145.00 20.25 S 148.50 18.90, 150.00 18.95 S 153.52 20.36, 155.00 20.58 S 158.64 21.07, 160.00 20.44 S 163.56 16.44, 165.00 16.00 S 168.50 17.33, 170.00 17.40 S 173.54 16.15, 175.00 16.48 S 178.57 19.16, 180.00 19.62 S 183.50 19.75, 185.00 19.70 S 188.50 19.39, 190.00 19.32 S 193.57 18.82, 195.00 19.27 S 198.50 22.41, 200.00 22.46 S 203.70 20.34, 205.00 19.60"
        fill="none">
        <animate attributeName="stroke-dashoffset"
            from="215.12091958112805" to="0" dur="2.2s"/>
        <animate attributeName="stroke-dasharray"
            from="215.12091958112805" to="215.12091958112805"/>
    </path>
    <circle r="4" cx="5" cy="46" fill="#3023AE"/>
    <circle r="4" cx="205" cy="19.59582529823351" fill="#C86DD7" opacity="0">
        <animate attributeName="opacity"
            from="0" to="1" dur="0.1s" begin="2.2s" fill="freeze"/>
    </circle>
</svg>