<svg width="200" height="50" viewBox="0 0 210 50" xmlns="http://www.w3.org/2000/svg">
    <!-- 41 stargazers -->
    <!-- created at Thu Apr 30 2026 18:31:41 GMT+0000 (Coordinated Universal Time) -->
    <defs>
        <linearGradient id="stroke" x1="0%" y1="0%" x2="100%" y2="0%">
            <stop stop-color="#3023AE" offset="0%"/>
            <stop stop-color="#C86DD7" offset="100%"/>
        </linearGradient>
    </defs>
    <path stroke="url(#stroke)"
        stroke-width="3"
        stroke-linejoin="round"
        stroke-linecap="round"
        d="M5.00 46.0001 C 5.45 44.57, 8.99 31.23, 10.00 30.12 S 13.61 34.43, 15.00 34.98 S 18.64 34.71, 20.00 34.08 S 23.54 30.04, 25.00 30.39 S 28.51 36.23, 30.00 36.43 S 34.02 32.87, 35.00 31.73 S 39.14 23.61, 40.00 24.83 S 43.65 45.34, 45.00 46.00 S 49.04 30.87, 50.00 29.72 S 53.60 33.51, 55.00 34.05 S 59.04 32.48, 60.00 33.63 S 64.06 44.83, 65.00 46.00 S 68.50 46.00, 70.00 46.00 S 74.13 47.22, 75.00 46.00 S 79.14 33.30, 80.00 32.07 S 84.13 30.49, 85.00 31.71 S 89.02 47.14, 90.00 46.00 S 94.18 21.29, 95.00 20.04 S 98.96 29.60, 100.00 30.67 S 103.50 30.44, 105.00 30.34 S 108.79 30.91, 110.00 30.02 S 113.80 23.85, 115.00 22.95 S 118.72 21.73, 120.00 22.51 S 124.41 27.70, 125.00 29.08 S 129.24 44.71, 130.00 46.00 S 134.27 47.31, 135.00 46.00 S 139.27 29.51, 140.00 28.20 S 144.27 26.61, 145.00 27.91 S 149.27 44.69, 150.00 46.00 S 153.50 46.00, 155.00 46.00 S 158.50 46.00, 160.00 46.00 S 163.50 46.00, 165.00 46.00 S 168.50 46.00, 170.00 46.00 S 173.50 46.00, 175.00 46.00 S 178.50 46.00, 180.00 46.00 S 183.50 46.00, 185.00 46.00 S 189.35 47.35, 190.00 46.00 S 193.50 25.28, 195.00 25.28 S 198.90 47.02, 200.00 46.00 S 204.75 17.48, 205.00 16.00"
        fill="none">
        <animate attributeName="stroke-dashoffset"
            from="421.4529672023022" to="0" dur="2.2s"/>
        <animate attributeName="stroke-dasharray"
            from="421.4529672023022" to="421.4529672023022"/>
    </path>
    <circle r="4" cx="5" cy="46" fill="#3023AE"/>
    <circle r="4" cx="205" cy="16" fill="#C86DD7" opacity="0">
        <animate attributeName="opacity"
            from="0" to="1" dur="0.1s" begin="2.2s" fill="freeze"/>
    </circle>
</svg>