<svg width="200" height="50" viewBox="0 0 210 50" xmlns="http://www.w3.org/2000/svg">
    <!-- 39 stargazers -->
    <!-- created at Sun Apr 12 2026 21:19:42 GMT+0000 (Coordinated Universal Time) -->
    <defs>
        <linearGradient id="stroke" x1="0%" y1="0%" x2="100%" y2="0%">
            <stop stop-color="#3023AE" offset="0%"/>
            <stop stop-color="#C86DD7" offset="100%"/>
        </linearGradient>
    </defs>
    <path stroke="url(#stroke)"
        stroke-width="3"
        stroke-linejoin="round"
        stroke-linecap="round"
        d="M5.00 46.0001 C 5.35 44.54, 9.14 26.56, 10.00 25.33 S 13.67 30.97, 15.00 31.66 S 18.71 31.26, 20.00 30.49 S 23.57 25.24, 25.00 25.68 S 28.52 33.29, 30.00 33.55 S 34.01 28.56, 35.00 27.43 S 38.62 21.56, 40.00 22.14 S 43.55 31.22, 45.00 31.61 S 48.51 24.99, 50.00 24.81 S 53.66 29.77, 55.00 30.45 S 59.19 28.64, 60.00 29.90 S 64.21 44.73, 65.00 46.00 S 68.50 46.00, 70.00 46.00 S 74.28 47.31, 75.00 46.00 S 79.29 29.20, 80.00 27.87 S 84.28 26.09, 85.00 27.40 S 88.88 47.00, 90.00 46.00 S 94.33 19.75, 95.00 18.41 S 98.51 26.23, 100.00 26.05 S 103.51 17.31, 105.00 17.18 S 108.51 25.38, 110.00 25.20 S 113.50 16.12, 115.00 16.00 S 118.83 23.45, 120.00 24.38 S 123.50 24.10, 125.00 23.98 S 129.38 22.23, 130.00 23.59 S 134.39 44.63, 135.00 46.00 S 139.41 47.38, 140.00 46.00 S 144.42 23.84, 145.00 22.46 S 149.41 20.71, 150.00 22.10 S 154.42 44.62, 155.00 46.00 S 158.50 46.00, 160.00 46.00 S 163.50 46.00, 165.00 46.00 S 168.50 46.00, 170.00 46.00 S 173.50 46.00, 175.00 46.00 S 178.50 46.00, 180.00 46.00 S 183.50 46.00, 185.00 46.00 S 188.50 46.00, 190.00 46.00 S 194.48 47.41, 195.00 46.00 S 198.50 18.71, 200.00 18.71 S 204.73 44.52, 205.00 46.00"
        fill="none">
        <animate attributeName="stroke-dashoffset"
            from="439.1831962786734" to="0" dur="2.2s"/>
        <animate attributeName="stroke-dasharray"
            from="439.1831962786734" to="439.1831962786734"/>
    </path>
    <circle r="4" cx="5" cy="46" fill="#3023AE"/>
    <circle r="4" cx="205" cy="46" fill="#C86DD7" opacity="0">
        <animate attributeName="opacity"
            from="0" to="1" dur="0.1s" begin="2.2s" fill="freeze"/>
    </circle>
</svg>