<svg width="200" height="50" viewBox="0 0 210 50" xmlns="http://www.w3.org/2000/svg">
    <!-- 39 stargazers -->
    <!-- created at Thu Apr 23 2026 11:51:24 GMT+0000 (Coordinated Universal Time) -->
    <defs>
        <linearGradient id="stroke" x1="0%" y1="0%" x2="100%" y2="0%">
            <stop stop-color="#3023AE" offset="0%"/>
            <stop stop-color="#C86DD7" offset="100%"/>
        </linearGradient>
    </defs>
    <path stroke="url(#stroke)"
        stroke-width="3"
        stroke-linejoin="round"
        stroke-linecap="round"
        d="M5.00 46.0001 C 5.39 44.55, 9.07 28.83, 10.00 27.65 S 13.64 32.64, 15.00 33.27 S 18.67 32.93, 20.00 32.23 S 23.55 27.57, 25.00 27.96 S 28.52 34.72, 30.00 34.95 S 33.95 30.58, 35.00 29.52 S 38.59 24.30, 40.00 24.82 S 43.54 32.88, 45.00 33.22 S 48.51 27.34, 50.00 27.19 S 53.63 31.58, 55.00 32.19 S 59.12 30.49, 60.00 31.71 S 64.14 44.77, 65.00 46.00 S 68.50 46.00, 70.00 46.00 S 74.21 47.27, 75.00 46.00 S 79.22 31.19, 80.00 29.91 S 84.21 28.21, 85.00 29.49 S 89.11 47.20, 90.00 46.00 S 93.50 16.00, 95.00 16.00 S 98.63 45.39, 100.00 46.00 S 104.29 21.73, 105.00 20.41 S 108.51 27.69, 110.00 27.53 S 113.87 20.35, 115.00 19.37 S 119.47 17.45, 120.00 18.86 S 123.79 45.12, 125.00 46.00 S 128.50 26.11, 130.00 26.11 S 133.50 46.10, 135.00 46.00 S 139.35 26.78, 140.00 25.43 S 144.34 23.75, 145.00 25.10 S 149.35 44.65, 150.00 46.00 S 153.50 46.00, 155.00 46.00 S 158.50 46.00, 160.00 46.00 S 163.50 46.00, 165.00 46.00 S 168.50 46.00, 170.00 46.00 S 173.50 46.00, 175.00 46.00 S 178.50 46.00, 180.00 46.00 S 183.50 46.00, 185.00 46.00 S 188.50 46.00, 190.00 46.00 S 194.43 47.39, 195.00 46.00 S 198.50 21.77, 200.00 21.77 S 204.70 44.53, 205.00 46.00"
        fill="none">
        <animate attributeName="stroke-dashoffset"
            from="483.08449889446683" to="0" dur="2.2s"/>
        <animate attributeName="stroke-dasharray"
            from="483.08449889446683" to="483.08449889446683"/>
    </path>
    <circle r="4" cx="5" cy="46" fill="#3023AE"/>
    <circle r="4" cx="205" cy="46" fill="#C86DD7" opacity="0">
        <animate attributeName="opacity"
            from="0" to="1" dur="0.1s" begin="2.2s" fill="freeze"/>
    </circle>
</svg>