<svg width="200" height="50" viewBox="0 0 210 50" xmlns="http://www.w3.org/2000/svg">
    <!-- 39 stargazers -->
    <!-- created at Thu Mar 05 2026 09:23:53 GMT+0000 (Coordinated Universal Time) -->
    <defs>
        <linearGradient id="stroke" x1="0%" y1="0%" x2="100%" y2="0%">
            <stop stop-color="#3023AE" offset="0%"/>
            <stop stop-color="#C86DD7" offset="100%"/>
        </linearGradient>
    </defs>
    <path stroke="url(#stroke)"
        stroke-width="3"
        stroke-linejoin="round"
        stroke-linecap="round"
        d="M5.00 46.0001 C 5.43 44.56, 8.84 30.38, 10.00 29.44 S 13.61 37.30, 15.00 37.87 S 18.97 34.67, 20.00 33.57 S 23.54 26.84, 25.00 27.20 S 28.60 35.48, 30.00 36.03 S 33.89 32.14, 35.00 31.12 S 38.58 26.41, 40.00 26.89 S 43.53 34.16, 45.00 34.47 S 48.51 29.16, 50.00 29.03 S 53.61 32.98, 55.00 33.54 S 59.06 31.93, 60.00 33.10 S 64.08 44.81, 65.00 46.00 S 68.50 46.00, 70.00 46.00 S 73.50 46.00, 75.00 46.00 S 79.36 47.36, 80.00 46.00 S 83.50 24.93, 85.00 24.93 S 88.68 45.28, 90.00 46.00 S 94.39 31.74, 95.00 30.37 S 98.50 23.50, 100.00 23.40 S 103.71 28.91, 105.00 29.67 S 108.50 29.43, 110.00 29.33 S 114.10 30.20, 115.00 29.00 S 118.50 16.10, 120.00 16.00 S 124.04 27.21, 125.00 28.36 S 129.26 26.74, 130.00 28.05 S 134.27 44.69, 135.00 46.00 S 139.30 47.33, 140.00 46.00 S 143.50 27.14, 145.00 27.14 S 148.50 46.09, 150.00 46.00 S 153.50 26.56, 155.00 26.56 S 159.31 44.67, 160.00 46.00 S 163.50 46.00, 165.00 46.00 S 168.50 46.00, 170.00 46.00 S 173.50 46.00, 175.00 46.00 S 178.50 46.00, 180.00 46.00 S 183.50 46.00, 185.00 46.00 S 188.50 46.00, 190.00 46.00 S 193.50 46.00, 195.00 46.00 S 199.38 47.37, 200.00 46.00 S 204.67 25.34, 205.00 23.88"
        fill="none">
        <animate attributeName="stroke-dashoffset"
            from="413.03546987286074" to="0" dur="2.2s"/>
        <animate attributeName="stroke-dasharray"
            from="413.03546987286074" to="413.03546987286074"/>
    </path>
    <circle r="4" cx="5" cy="46" fill="#3023AE"/>
    <circle r="4" cx="205" cy="23.879570385327117" fill="#C86DD7" opacity="0">
        <animate attributeName="opacity"
            from="0" to="1" dur="0.1s" begin="2.2s" fill="freeze"/>
    </circle>
</svg>