<svg width="200" height="50" viewBox="0 0 210 50" xmlns="http://www.w3.org/2000/svg">
    <!-- 39 stargazers -->
    <!-- created at Mon Apr 20 2026 06:12:00 GMT+0000 (Coordinated Universal Time) -->
    <defs>
        <linearGradient id="stroke" x1="0%" y1="0%" x2="100%" y2="0%">
            <stop stop-color="#3023AE" offset="0%"/>
            <stop stop-color="#C86DD7" offset="100%"/>
        </linearGradient>
    </defs>
    <path stroke="url(#stroke)"
        stroke-width="3"
        stroke-linejoin="round"
        stroke-linecap="round"
        d="M5.00 46.0001 C 5.36 44.54, 9.13 26.94, 10.00 25.71 S 13.66 31.25, 15.00 31.92 S 18.71 31.54, 20.00 30.78 S 23.56 25.63, 25.00 26.06 S 28.52 33.53, 30.00 33.78 S 34.00 28.90, 35.00 27.78 S 38.61 22.02, 40.00 22.59 S 43.55 31.50, 45.00 31.88 S 48.51 25.38, 50.00 25.21 S 53.66 30.07, 55.00 30.74 S 59.18 28.95, 60.00 30.20 S 64.20 44.73, 65.00 46.00 S 68.50 46.00, 70.00 46.00 S 74.26 47.31, 75.00 46.00 S 79.28 29.53, 80.00 28.21 S 84.26 26.44, 85.00 27.75 S 88.88 46.99, 90.00 46.00 S 94.32 20.26, 95.00 18.93 S 98.51 26.60, 100.00 26.43 S 103.51 17.84, 105.00 17.72 S 108.51 25.76, 110.00 25.59 S 113.92 17.60, 115.00 16.56 S 119.52 14.58, 120.00 16.00 S 123.83 45.06, 125.00 46.00 S 128.50 24.01, 130.00 24.01 S 133.50 46.11, 135.00 46.00 S 138.50 23.27, 140.00 23.27 S 143.50 46.11, 145.00 46.00 S 148.50 22.54, 150.00 22.54 S 154.41 44.62, 155.00 46.00 S 158.50 46.00, 160.00 46.00 S 163.50 46.00, 165.00 46.00 S 168.50 46.00, 170.00 46.00 S 173.50 46.00, 175.00 46.00 S 178.50 46.00, 180.00 46.00 S 183.50 46.00, 185.00 46.00 S 188.50 46.00, 190.00 46.00 S 194.48 47.41, 195.00 46.00 S 198.50 19.22, 200.00 19.22 S 204.72 44.53, 205.00 46.00"
        fill="none">
        <animate attributeName="stroke-dashoffset"
            from="508.64849168636704" to="0" dur="2.2s"/>
        <animate attributeName="stroke-dasharray"
            from="508.64849168636704" to="508.64849168636704"/>
    </path>
    <circle r="4" cx="5" cy="46" fill="#3023AE"/>
    <circle r="4" cx="205" cy="46" fill="#C86DD7" opacity="0">
        <animate attributeName="opacity"
            from="0" to="1" dur="0.1s" begin="2.2s" fill="freeze"/>
    </circle>
</svg>