<svg width="200" height="50" viewBox="0 0 210 50" xmlns="http://www.w3.org/2000/svg">
    <!-- 39 stargazers -->
    <!-- created at Mon Apr 06 2026 12:43:28 GMT+0000 (Coordinated Universal Time) -->
    <defs>
        <linearGradient id="stroke" x1="0%" y1="0%" x2="100%" y2="0%">
            <stop stop-color="#3023AE" offset="0%"/>
            <stop stop-color="#C86DD7" offset="100%"/>
        </linearGradient>
    </defs>
    <path stroke="url(#stroke)"
        stroke-width="3"
        stroke-linejoin="round"
        stroke-linecap="round"
        d="M5.00 46.0001 C 5.43 44.56, 9.03 30.26, 10.00 29.12 S 13.62 33.71, 15.00 34.29 S 18.65 34.00, 20.00 33.34 S 23.54 29.05, 25.00 29.41 S 28.52 35.62, 30.00 35.83 S 33.90 31.86, 35.00 30.84 S 38.58 26.04, 40.00 26.52 S 43.53 33.93, 45.00 34.25 S 48.51 28.84, 50.00 28.70 S 53.61 32.73, 55.00 33.30 S 59.07 31.68, 60.00 32.86 S 64.09 44.81, 65.00 46.00 S 68.50 46.00, 70.00 46.00 S 73.50 46.00, 75.00 46.00 S 79.37 47.36, 80.00 46.00 S 83.50 24.52, 85.00 24.52 S 88.69 45.27, 90.00 46.00 S 94.40 31.45, 95.00 30.07 S 98.50 23.07, 100.00 22.97 S 103.72 28.58, 105.00 29.36 S 109.10 30.22, 110.00 29.02 S 113.50 16.10, 115.00 16.00 S 119.04 27.20, 120.00 28.35 S 123.50 28.12, 125.00 28.02 S 129.27 26.39, 130.00 27.71 S 134.28 44.68, 135.00 46.00 S 139.31 47.33, 140.00 46.00 S 144.32 28.12, 145.00 26.78 S 149.31 25.15, 150.00 26.48 S 154.32 44.67, 155.00 46.00 S 158.50 46.00, 160.00 46.00 S 163.50 46.00, 165.00 46.00 S 168.50 46.00, 170.00 46.00 S 173.50 46.00, 175.00 46.00 S 178.50 46.00, 180.00 46.00 S 183.50 46.00, 185.00 46.00 S 188.50 46.00, 190.00 46.00 S 194.39 47.37, 195.00 46.00 S 198.50 23.72, 200.00 23.72 S 204.67 44.54, 205.00 46.00"
        fill="none">
        <animate attributeName="stroke-dashoffset"
            from="396.69348726912654" to="0" dur="2.2s"/>
        <animate attributeName="stroke-dasharray"
            from="396.69348726912654" to="396.69348726912654"/>
    </path>
    <circle r="4" cx="5" cy="46" fill="#3023AE"/>
    <circle r="4" cx="205" cy="46" fill="#C86DD7" opacity="0">
        <animate attributeName="opacity"
            from="0" to="1" dur="0.1s" begin="2.2s" fill="freeze"/>
    </circle>
</svg>