<svg width="200" height="50" viewBox="0 0 210 50" xmlns="http://www.w3.org/2000/svg">
    <!-- 10 stargazers -->
    <!-- created at Fri May 08 2026 02:32:25 GMT+0000 (Coordinated Universal Time) -->
    <defs>
        <linearGradient id="stroke" x1="0%" y1="0%" x2="100%" y2="0%">
            <stop stop-color="#3023AE" offset="0%"/>
            <stop stop-color="#C86DD7" offset="100%"/>
        </linearGradient>
    </defs>
    <path stroke="url(#stroke)"
        stroke-width="3"
        stroke-linejoin="round"
        stroke-linecap="round"
        d="M5.00 46.0001 C 5.64 44.64, 8.50 35.46, 10.00 35.46 S 13.53 46.29, 15.00 46.00 S 19.10 34.70, 20.00 33.50 S 23.80 33.53, 25.00 32.63 S 28.52 26.17, 30.00 25.93 S 34.33 29.69, 35.00 31.04 S 39.17 44.75, 40.00 46.00 S 43.50 46.00, 45.00 46.00 S 48.50 46.00, 50.00 46.00 S 54.28 47.32, 55.00 46.00 S 58.50 27.65, 60.00 27.65 S 64.28 44.68, 65.00 46.00 S 68.50 46.00, 70.00 46.00 S 73.50 46.00, 75.00 46.00 S 78.50 46.00, 80.00 46.00 S 84.37 47.36, 85.00 46.00 S 88.50 24.28, 90.00 24.28 S 94.37 44.64, 95.00 46.00 S 98.50 46.00, 100.00 46.00 S 103.50 46.00, 105.00 46.00 S 108.50 46.00, 110.00 46.00 S 113.50 46.00, 115.00 46.00 S 118.50 46.00, 120.00 46.00 S 123.50 46.00, 125.00 46.00 S 128.50 46.00, 130.00 46.00 S 133.50 46.00, 135.00 46.00 S 138.50 46.00, 140.00 46.00 S 143.50 46.00, 145.00 46.00 S 148.50 46.00, 150.00 46.00 S 154.50 47.41, 155.00 46.00 S 158.50 17.94, 160.00 17.94 S 164.50 44.59, 165.00 46.00 S 168.50 46.00, 170.00 46.00 S 173.50 46.00, 175.00 46.00 S 179.53 47.42, 180.00 46.00 S 183.50 16.00, 185.00 16.00 S 189.53 44.58, 190.00 46.00 S 193.50 46.00, 195.00 46.00 S 198.50 46.00, 200.00 46.00 S 203.50 46.00, 205.00 46.00"
        fill="none">
        <animate attributeName="stroke-dashoffset"
            from="403.33152864831" to="0" dur="2.2s"/>
        <animate attributeName="stroke-dasharray"
            from="403.33152864831" to="403.33152864831"/>
    </path>
    <circle r="4" cx="5" cy="46" fill="#3023AE"/>
    <circle r="4" cx="205" cy="46" fill="#C86DD7" opacity="0">
        <animate attributeName="opacity"
            from="0" to="1" dur="0.1s" begin="2.2s" fill="freeze"/>
    </circle>
</svg>