<svg width="200" height="50" viewBox="0 0 210 50" xmlns="http://www.w3.org/2000/svg">
    <!-- 11 stargazers -->
    <!-- created at Mon May 11 2026 04:05:56 GMT+0000 (Coordinated Universal Time) -->
    <defs>
        <linearGradient id="stroke" x1="0%" y1="0%" x2="100%" y2="0%">
            <stop stop-color="#3023AE" offset="0%"/>
            <stop stop-color="#C86DD7" offset="100%"/>
        </linearGradient>
    </defs>
    <path stroke="url(#stroke)"
        stroke-width="3"
        stroke-linejoin="round"
        stroke-linecap="round"
        d="M5.00 46.0001 C 5.67 44.66, 8.50 35.95, 10.00 35.95 S 13.76 46.84, 15.00 46.00 S 18.50 29.15, 20.00 29.15 S 23.75 46.82, 25.00 46.00 S 28.50 22.57, 30.00 22.57 S 34.41 44.62, 35.00 46.00 S 38.50 46.00, 40.00 46.00 S 43.50 46.00, 45.00 46.00 S 49.24 47.29, 50.00 46.00 S 53.50 29.10, 55.00 29.10 S 59.24 44.71, 60.00 46.00 S 63.50 46.00, 65.00 46.00 S 68.50 46.00, 70.00 46.00 S 74.32 47.34, 75.00 46.00 S 78.50 26.30, 80.00 26.30 S 84.32 44.66, 85.00 46.00 S 88.50 46.00, 90.00 46.00 S 93.50 46.00, 95.00 46.00 S 98.50 46.00, 100.00 46.00 S 103.50 46.00, 105.00 46.00 S 108.50 46.00, 110.00 46.00 S 113.50 46.00, 115.00 46.00 S 118.50 46.00, 120.00 46.00 S 123.50 46.00, 125.00 46.00 S 128.50 46.00, 130.00 46.00 S 134.45 47.39, 135.00 46.00 S 138.50 20.83, 140.00 20.83 S 144.45 44.61, 145.00 46.00 S 148.50 46.00, 150.00 46.00 S 154.47 47.41, 155.00 46.00 S 158.50 19.25, 160.00 19.25 S 164.47 44.59, 165.00 46.00 S 168.50 46.00, 170.00 46.00 S 173.50 46.00, 175.00 46.00 S 178.50 46.00, 180.00 46.00 S 183.50 46.00, 185.00 46.00 S 188.50 46.00, 190.00 46.00 S 193.50 46.00, 195.00 46.00 S 199.53 47.42, 200.00 46.00 S 204.75 17.48, 205.00 16.00"
        fill="none">
        <animate attributeName="stroke-dashoffset"
            from="447.88440692210617" to="0" dur="2.2s"/>
        <animate attributeName="stroke-dasharray"
            from="447.88440692210617" to="447.88440692210617"/>
    </path>
    <circle r="4" cx="5" cy="46" fill="#3023AE"/>
    <circle r="4" cx="205" cy="16" fill="#C86DD7" opacity="0">
        <animate attributeName="opacity"
            from="0" to="1" dur="0.1s" begin="2.2s" fill="freeze"/>
    </circle>
</svg>