<svg width="200" height="50" viewBox="0 0 210 50" xmlns="http://www.w3.org/2000/svg">
    <!-- 22 stargazers -->
    <!-- created at Thu May 14 2026 06:53:48 GMT+0000 (Coordinated Universal Time) -->
    <defs>
        <linearGradient id="stroke" x1="0%" y1="0%" x2="100%" y2="0%">
            <stop stop-color="#3023AE" offset="0%"/>
            <stop stop-color="#C86DD7" offset="100%"/>
        </linearGradient>
    </defs>
    <path stroke="url(#stroke)"
        stroke-width="3"
        stroke-linejoin="round"
        stroke-linecap="round"
        d="M5.00 46.0001 C 6.17 45.07, 8.63 42.62, 10.00 42.02 S 13.50 41.74, 15.00 41.63 S 18.63 40.68, 20.00 41.28 S 23.64 46.62, 25.00 46.00 S 28.50 36.71, 30.00 36.71 S 33.90 44.98, 35.00 46.00 S 38.50 46.00, 40.00 46.00 S 43.74 46.81, 45.00 46.00 S 48.50 39.55, 50.00 39.55 S 53.74 45.19, 55.00 46.00 S 58.50 46.00, 60.00 46.00 S 63.50 46.00, 65.00 46.00 S 68.81 46.91, 70.00 46.00 S 73.50 38.40, 75.00 38.40 S 78.81 45.09, 80.00 46.00 S 83.50 46.00, 85.00 46.00 S 88.50 46.00, 90.00 46.00 S 93.50 46.00, 95.00 46.00 S 98.50 46.00, 100.00 46.00 S 103.50 46.00, 105.00 46.00 S 108.50 46.00, 110.00 46.00 S 113.50 46.00, 115.00 46.00 S 118.91 47.03, 120.00 46.00 S 123.50 36.52, 125.00 36.52 S 128.91 44.97, 130.00 46.00 S 133.94 47.06, 135.00 46.00 S 138.50 36.02, 140.00 36.02 S 143.94 44.94, 145.00 46.00 S 148.50 46.00, 150.00 46.00 S 153.50 46.00, 155.00 46.00 S 158.50 46.00, 160.00 46.00 S 163.50 46.00, 165.00 46.00 S 168.50 46.00, 170.00 46.00 S 174.00 47.12, 175.00 46.00 S 179.53 36.23, 180.00 34.80 S 183.66 16.68, 185.00 16.00 S 189.28 28.45, 190.00 29.76 S 194.21 33.10, 195.00 34.38 S 198.50 46.04, 200.00 46.00 S 204.42 35.49, 205.00 34.11"
        fill="none">
        <animate attributeName="stroke-dashoffset"
            from="305.36367380007937" to="0" dur="2.2s"/>
        <animate attributeName="stroke-dasharray"
            from="305.36367380007937" to="305.36367380007937"/>
    </path>
    <circle r="4" cx="5" cy="46" fill="#3023AE"/>
    <circle r="4" cx="205" cy="34.10681971692464" fill="#C86DD7" opacity="0">
        <animate attributeName="opacity"
            from="0" to="1" dur="0.1s" begin="2.2s" fill="freeze"/>
    </circle>
</svg>