<svg width="200" height="50" viewBox="0 0 210 50" xmlns="http://www.w3.org/2000/svg">
    <!-- 8 stargazers -->
    <!-- created at Wed Apr 22 2026 17:28:30 GMT+0000 (Coordinated Universal Time) -->
    <defs>
        <linearGradient id="stroke" x1="0%" y1="0%" x2="100%" y2="0%">
            <stop stop-color="#3023AE" offset="0%"/>
            <stop stop-color="#C86DD7" offset="100%"/>
        </linearGradient>
    </defs>
    <path stroke="url(#stroke)"
        stroke-width="3"
        stroke-linejoin="round"
        stroke-linecap="round"
        d="M5.00 46.0001 C 5.67 44.66, 8.50 35.95, 10.00 35.95 S 13.94 44.94, 15.00 46.00 S 19.07 47.18, 20.00 46.00 S 23.50 33.25, 25.00 33.25 S 28.52 46.23, 30.00 46.00 S 33.50 31.73, 35.00 31.73 S 39.14 44.77, 40.00 46.00 S 44.40 47.38, 45.00 46.00 S 49.24 24.27, 50.00 22.98 S 54.40 27.73, 55.00 29.10 S 59.24 44.71, 60.00 46.00 S 63.50 46.00, 65.00 46.00 S 68.50 46.00, 70.00 46.00 S 73.50 46.00, 75.00 46.00 S 78.50 46.00, 80.00 46.00 S 83.50 46.00, 85.00 46.00 S 88.50 46.00, 90.00 46.00 S 93.50 46.00, 95.00 46.00 S 98.50 46.00, 100.00 46.00 S 104.39 47.37, 105.00 46.00 S 108.50 23.40, 110.00 23.40 S 114.39 44.63, 115.00 46.00 S 118.50 46.00, 120.00 46.00 S 123.50 46.00, 125.00 46.00 S 128.50 46.00, 130.00 46.00 S 133.50 46.00, 135.00 46.00 S 138.50 46.00, 140.00 46.00 S 143.50 46.00, 145.00 46.00 S 148.50 46.00, 150.00 46.00 S 153.50 46.00, 155.00 46.00 S 158.50 46.00, 160.00 46.00 S 163.50 46.00, 165.00 46.00 S 168.50 46.00, 170.00 46.00 S 173.50 46.00, 175.00 46.00 S 178.50 46.00, 180.00 46.00 S 183.50 46.00, 185.00 46.00 S 188.50 46.00, 190.00 46.00 S 193.50 46.00, 195.00 46.00 S 199.53 47.42, 200.00 46.00 S 204.75 17.48, 205.00 16.00"
        fill="none">
        <animate attributeName="stroke-dashoffset"
            from="349.9443900631384" to="0" dur="2.2s"/>
        <animate attributeName="stroke-dasharray"
            from="349.9443900631384" to="349.9443900631384"/>
    </path>
    <circle r="4" cx="5" cy="46" fill="#3023AE"/>
    <circle r="4" cx="205" cy="16" fill="#C86DD7" opacity="0">
        <animate attributeName="opacity"
            from="0" to="1" dur="0.1s" begin="2.2s" fill="freeze"/>
    </circle>
</svg>