<svg width="200" height="50" viewBox="0 0 210 50" xmlns="http://www.w3.org/2000/svg">
    <!-- 23 stargazers -->
    <!-- created at Sun May 17 2026 08:49:52 GMT+0000 (Coordinated Universal Time) -->
    <defs>
        <linearGradient id="stroke" x1="0%" y1="0%" x2="100%" y2="0%">
            <stop stop-color="#3023AE" offset="0%"/>
            <stop stop-color="#C86DD7" offset="100%"/>
        </linearGradient>
    </defs>
    <path stroke="url(#stroke)"
        stroke-width="3"
        stroke-linejoin="round"
        stroke-linecap="round"
        d="M5.00 46.0001 C 6.06 44.94, 8.68 41.75, 10.00 41.03 S 13.51 40.69, 15.00 40.55 S 18.68 40.83, 20.00 40.11 S 23.71 34.32, 25.00 35.08 S 28.99 44.89, 30.00 46.00 S 33.50 46.00, 35.00 46.00 S 38.81 46.92, 40.00 46.00 S 43.50 38.27, 45.00 38.27 S 48.81 45.08, 50.00 46.00 S 53.50 46.00, 55.00 46.00 S 58.88 47.00, 60.00 46.00 S 63.50 37.07, 65.00 37.07 S 68.88 45.00, 70.00 46.00 S 73.50 46.00, 75.00 46.00 S 78.50 46.00, 80.00 46.00 S 83.50 46.00, 85.00 46.00 S 88.50 46.00, 90.00 46.00 S 93.50 46.00, 95.00 46.00 S 98.50 46.00, 100.00 46.00 S 104.00 47.12, 105.00 46.00 S 108.50 34.82, 110.00 34.82 S 114.00 44.88, 115.00 46.00 S 119.03 47.15, 120.00 46.00 S 123.50 34.17, 125.00 34.17 S 129.03 44.85, 130.00 46.00 S 133.50 46.00, 135.00 46.00 S 138.50 46.00, 140.00 46.00 S 143.50 46.00, 145.00 46.00 S 148.50 46.00, 150.00 46.00 S 154.47 47.40, 155.00 46.00 S 159.53 20.97, 160.00 19.54 S 163.78 15.12, 165.00 16.00 S 169.53 25.34, 170.00 26.76 S 173.67 45.30, 175.00 46.00 S 178.50 32.03, 180.00 32.03 S 184.13 44.78, 185.00 46.00 S 188.50 46.00, 190.00 46.00 S 194.15 47.24, 195.00 46.00 S 198.50 31.34, 200.00 31.34 S 204.52 44.58, 205.00 46.00"
        fill="none">
        <animate attributeName="stroke-dashoffset"
            from="350.98173803092453" to="0" dur="2.2s"/>
        <animate attributeName="stroke-dasharray"
            from="350.98173803092453" to="350.98173803092453"/>
    </path>
    <circle r="4" cx="5" cy="46" fill="#3023AE"/>
    <circle r="4" cx="205" cy="46" fill="#C86DD7" opacity="0">
        <animate attributeName="opacity"
            from="0" to="1" dur="0.1s" begin="2.2s" fill="freeze"/>
    </circle>
</svg>