<svg width="200" height="50" viewBox="0 0 210 50" xmlns="http://www.w3.org/2000/svg">
    <!-- 8 stargazers -->
    <!-- created at Sat Apr 25 2026 20:49:14 GMT+0000 (Coordinated Universal Time) -->
    <defs>
        <linearGradient id="stroke" x1="0%" y1="0%" x2="100%" y2="0%">
            <stop stop-color="#3023AE" offset="0%"/>
            <stop stop-color="#C86DD7" offset="100%"/>
        </linearGradient>
    </defs>
    <path stroke="url(#stroke)"
        stroke-width="3"
        stroke-linejoin="round"
        stroke-linecap="round"
        d="M5.00 46.0001 C 5.62 44.63, 8.50 34.89, 10.00 34.89 S 14.00 44.89, 15.00 46.00 S 19.13 47.22, 20.00 46.00 S 24.17 33.15, 25.00 31.91 S 29.13 29.82, 30.00 31.04 S 34.17 44.75, 35.00 46.00 S 39.52 47.42, 40.00 46.00 S 43.50 16.05, 45.00 16.05 S 49.52 44.58, 50.00 46.00 S 53.50 46.00, 55.00 46.00 S 58.50 46.00, 60.00 46.00 S 63.50 46.00, 65.00 46.00 S 68.50 46.00, 70.00 46.00 S 73.50 46.00, 75.00 46.00 S 78.50 46.00, 80.00 46.00 S 83.50 46.00, 85.00 46.00 S 89.41 47.38, 90.00 46.00 S 93.50 22.56, 95.00 22.56 S 99.41 44.62, 100.00 46.00 S 103.50 46.00, 105.00 46.00 S 108.50 46.00, 110.00 46.00 S 113.50 46.00, 115.00 46.00 S 118.50 46.00, 120.00 46.00 S 123.50 46.00, 125.00 46.00 S 128.50 46.00, 130.00 46.00 S 133.50 46.00, 135.00 46.00 S 138.50 46.00, 140.00 46.00 S 143.50 46.00, 145.00 46.00 S 148.50 46.00, 150.00 46.00 S 153.50 46.00, 155.00 46.00 S 159.53 47.42, 160.00 46.00 S 163.50 16.00, 165.00 16.00 S 169.53 44.58, 170.00 46.00 S 173.50 46.00, 175.00 46.00 S 178.50 46.00, 180.00 46.00 S 183.50 46.00, 185.00 46.00 S 188.50 46.00, 190.00 46.00 S 193.50 46.00, 195.00 46.00 S 198.50 46.00, 200.00 46.00 S 203.50 46.00, 205.00 46.00"
        fill="none">
        <animate attributeName="stroke-dashoffset"
            from="378.9470721198573" to="0" dur="2.2s"/>
        <animate attributeName="stroke-dasharray"
            from="378.9470721198573" to="378.9470721198573"/>
    </path>
    <circle r="4" cx="5" cy="46" fill="#3023AE"/>
    <circle r="4" cx="205" cy="46" fill="#C86DD7" opacity="0">
        <animate attributeName="opacity"
            from="0" to="1" dur="0.1s" begin="2.2s" fill="freeze"/>
    </circle>
</svg>