<svg width="200" height="50" viewBox="0 0 210 50" xmlns="http://www.w3.org/2000/svg">
    <!-- 16 stargazers -->
    <!-- created at Sat Apr 18 2026 23:05:15 GMT+0000 (Coordinated Universal Time) -->
    <defs>
        <linearGradient id="stroke" x1="0%" y1="0%" x2="100%" y2="0%">
            <stop stop-color="#3023AE" offset="0%"/>
            <stop stop-color="#C86DD7" offset="100%"/>
        </linearGradient>
    </defs>
    <path stroke="url(#stroke)"
        stroke-width="3"
        stroke-linejoin="round"
        stroke-linecap="round"
        d="M5.00 46.0001 C 5.81 44.74, 8.50 38.25, 10.00 38.25 S 13.81 45.08, 15.00 46.00 S 18.93 47.05, 20.00 46.00 S 23.50 36.17, 25.00 36.17 S 28.93 44.95, 30.00 46.00 S 34.02 47.13, 35.00 46.00 S 38.50 34.46, 40.00 34.46 S 44.02 44.87, 45.00 46.00 S 49.46 47.40, 50.00 46.00 S 53.50 19.94, 55.00 19.94 S 59.46 44.60, 60.00 46.00 S 63.50 46.00, 65.00 46.00 S 68.50 46.00, 70.00 46.00 S 73.50 46.00, 75.00 46.00 S 78.50 46.00, 80.00 46.00 S 83.50 46.00, 85.00 46.00 S 89.22 47.28, 90.00 46.00 S 94.23 30.94, 95.00 29.65 S 98.50 29.39, 100.00 29.28 S 104.23 27.64, 105.00 28.92 S 109.24 44.71, 110.00 46.00 S 113.50 46.00, 115.00 46.00 S 118.50 46.00, 120.00 46.00 S 124.29 47.32, 125.00 46.00 S 128.50 27.22, 130.00 27.22 S 134.29 44.68, 135.00 46.00 S 138.50 46.00, 140.00 46.00 S 143.50 46.00, 145.00 46.00 S 148.50 46.00, 150.00 46.00 S 153.50 46.00, 155.00 46.00 S 158.50 46.00, 160.00 46.00 S 164.53 47.42, 165.00 46.00 S 168.50 16.00, 170.00 16.00 S 174.53 44.58, 175.00 46.00 S 178.50 46.00, 180.00 46.00 S 183.50 46.00, 185.00 46.00 S 189.39 47.37, 190.00 46.00 S 194.40 24.77, 195.00 23.40 S 198.50 23.21, 200.00 23.13 S 203.50 22.94, 205.00 22.86"
        fill="none">
        <animate attributeName="stroke-dashoffset"
            from="407.56647028011326" to="0" dur="2.2s"/>
        <animate attributeName="stroke-dasharray"
            from="407.56647028011326" to="407.56647028011326"/>
    </path>
    <circle r="4" cx="5" cy="46" fill="#3023AE"/>
    <circle r="4" cx="205" cy="22.86403791685031" fill="#C86DD7" opacity="0">
        <animate attributeName="opacity"
            from="0" to="1" dur="0.1s" begin="2.2s" fill="freeze"/>
    </circle>
</svg>