<svg width="200" height="50" viewBox="0 0 210 50" xmlns="http://www.w3.org/2000/svg">
    <!-- 138 stargazers -->
    <!-- created at Sat Apr 04 2026 15:01:07 GMT+0000 (Coordinated Universal Time) -->
    <defs>
        <linearGradient id="stroke" x1="0%" y1="0%" x2="100%" y2="0%">
            <stop stop-color="#3023AE" offset="0%"/>
            <stop stop-color="#C86DD7" offset="100%"/>
        </linearGradient>
    </defs>
    <path stroke="url(#stroke)"
        stroke-width="3"
        stroke-linejoin="round"
        stroke-linecap="round"
        d="M5.00 46.0001 C 5.44 44.57, 9.12 30.96, 10.00 29.74 S 13.51 31.99, 15.00 32.18 S 18.64 31.69, 20.00 31.06 S 23.67 26.86, 25.00 27.55 S 28.53 35.90, 30.00 36.21 S 33.96 30.76, 35.00 29.67 S 38.81 26.65, 40.00 25.73 S 43.70 21.24, 45.00 21.99 S 48.56 31.16, 50.00 31.57 S 53.80 25.72, 55.00 24.82 S 58.50 24.00, 60.00 24.07 S 63.68 24.61, 65.00 25.32 S 68.51 29.33, 70.00 29.49 S 73.74 25.57, 75.00 26.38 S 78.51 36.08, 80.00 35.92 S 83.84 26.27, 85.00 25.31 S 88.51 27.79, 90.00 27.64 S 93.55 23.92, 95.00 24.30 S 98.59 30.82, 100.00 30.31 S 103.62 21.26, 105.00 20.66 S 108.52 25.71, 110.00 25.97 S 113.50 22.52, 115.00 22.41 S 119.01 24.05, 120.00 25.18 S 123.57 33.30, 125.00 33.76 S 129.09 29.57, 130.00 28.38 S 133.50 20.74, 135.00 20.65 S 138.76 26.93, 140.00 27.78 S 143.50 27.57, 145.00 27.49 S 148.66 26.53, 150.00 27.20 S 153.50 32.59, 155.00 32.51 S 158.97 27.73, 160.00 26.64 S 163.67 21.25, 165.00 21.95 S 169.42 30.54, 170.00 31.92 S 174.13 44.78, 175.00 46.00 S 179.45 47.40, 180.00 46.00 S 184.16 21.89, 185.00 20.65 S 188.64 31.81, 190.00 31.18 S 194.16 14.76, 195.00 16.00 S 199.15 44.76, 200.00 46.00 S 204.54 32.07, 205.00 30.65"
        fill="none">
        <animate attributeName="stroke-dashoffset"
            from="383.31303734401513" to="0" dur="2.2s"/>
        <animate attributeName="stroke-dasharray"
            from="383.31303734401513" to="383.31303734401513"/>
    </path>
    <circle r="4" cx="5" cy="46" fill="#3023AE"/>
    <circle r="4" cx="205" cy="30.64651602567646" fill="#C86DD7" opacity="0">
        <animate attributeName="opacity"
            from="0" to="1" dur="0.1s" begin="2.2s" fill="freeze"/>
    </circle>
</svg>