<svg width="200" height="50" viewBox="0 0 210 50" xmlns="http://www.w3.org/2000/svg">
    <!-- 143 stargazers -->
    <!-- created at Sat May 02 2026 08:55:16 GMT+0000 (Coordinated Universal Time) -->
    <defs>
        <linearGradient id="stroke" x1="0%" y1="0%" x2="100%" y2="0%">
            <stop stop-color="#3023AE" offset="0%"/>
            <stop stop-color="#C86DD7" offset="100%"/>
        </linearGradient>
    </defs>
    <path stroke="url(#stroke)"
        stroke-width="3"
        stroke-linejoin="round"
        stroke-linecap="round"
        d="M5.00 46.0001 C 5.39 44.55, 9.11 28.79, 10.00 27.58 S 13.54 32.04, 15.00 32.38 S 18.80 30.76, 20.00 29.86 S 23.51 24.68, 25.00 24.86 S 28.58 30.55, 30.00 31.04 S 34.00 29.48, 35.00 28.36 S 38.50 19.78, 40.00 19.83 S 43.72 27.94, 45.00 28.71 S 48.98 26.97, 50.00 25.88 S 53.52 18.20, 55.00 17.98 S 59.12 23.16, 60.00 24.38 S 63.51 31.72, 65.00 31.87 S 68.51 25.53, 70.00 25.40 S 73.60 31.54, 75.00 31.01 S 78.79 22.54, 80.00 21.65 S 83.63 23.04, 85.00 23.65 S 88.60 26.71, 90.00 26.17 S 93.51 19.93, 95.00 19.79 S 98.60 25.77, 100.00 25.24 S 103.57 15.57, 105.00 16.01 S 109.04 27.18, 110.00 28.33 S 113.85 28.94, 115.00 27.98 S 118.50 20.13, 120.00 20.03 S 123.77 26.44, 125.00 27.30 S 128.50 27.06, 130.00 26.96 S 133.50 26.74, 135.00 26.64 S 138.67 27.00, 140.00 26.32 S 143.50 21.60, 145.00 21.51 S 149.43 24.30, 150.00 25.69 S 154.34 44.65, 155.00 46.00 S 159.53 47.42, 160.00 46.00 S 164.47 17.40, 165.00 16.00 S 169.15 18.42, 170.00 19.66 S 173.98 29.49, 175.00 30.59 S 178.77 31.24, 180.00 30.39 S 183.50 23.70, 185.00 23.64 S 188.70 30.73, 190.00 29.99 S 194.21 16.66, 195.00 17.93 S 199.50 44.59, 200.00 46.00 S 203.50 46.00, 205.00 46.00"
        fill="none">
        <animate attributeName="stroke-dashoffset"
            from="383.200739681209" to="0" dur="2.2s"/>
        <animate attributeName="stroke-dasharray"
            from="383.200739681209" to="383.200739681209"/>
    </path>
    <circle r="4" cx="5" cy="46" fill="#3023AE"/>
    <circle r="4" cx="205" cy="46" fill="#C86DD7" opacity="0">
        <animate attributeName="opacity"
            from="0" to="1" dur="0.1s" begin="2.2s" fill="freeze"/>
    </circle>
</svg>