<svg width="200" height="50" viewBox="0 0 210 50" xmlns="http://www.w3.org/2000/svg">
    <!-- 129 stargazers -->
    <!-- created at Wed Mar 04 2026 13:45:24 GMT+0000 (Coordinated Universal Time) -->
    <defs>
        <linearGradient id="stroke" x1="0%" y1="0%" x2="100%" y2="0%">
            <stop stop-color="#3023AE" offset="0%"/>
            <stop stop-color="#C86DD7" offset="100%"/>
        </linearGradient>
    </defs>
    <path stroke="url(#stroke)"
        stroke-width="3"
        stroke-linejoin="round"
        stroke-linecap="round"
        d="M5.00 46.0001 C 5.36 44.55, 9.19 27.32, 10.00 26.06 S 13.77 29.68, 15.00 30.53 S 18.78 33.92, 20.00 33.05 S 23.82 24.30, 25.00 23.37 S 28.78 24.33, 30.00 25.20 S 33.50 30.52, 35.00 30.49 S 39.05 26.16, 40.00 25.00 S 43.52 18.52, 45.00 18.25 S 48.91 22.13, 50.00 23.16 S 53.51 27.50, 55.00 27.63 S 59.02 25.18, 60.00 24.05 S 63.51 16.21, 65.00 16.00 S 68.71 21.86, 70.00 22.62 S 73.71 21.18, 75.00 21.94 S 78.53 28.21, 80.00 28.52 S 83.63 23.42, 85.00 24.03 S 88.51 33.16, 90.00 33.00 S 94.14 24.18, 95.00 22.96 S 98.58 18.31, 100.00 18.79 S 103.78 25.47, 105.00 26.35 S 108.90 26.96, 110.00 25.94 S 113.68 17.79, 115.00 17.07 S 118.56 20.05, 120.00 20.47 S 123.51 20.14, 125.00 20.00 S 128.51 19.67, 130.00 19.54 S 133.61 18.51, 135.00 19.08 S 139.48 22.25, 140.00 23.66 S 143.71 46.76, 145.00 46.00 S 149.51 19.18, 150.00 17.77 S 153.63 16.73, 155.00 17.34 S 158.64 21.63, 160.00 22.26 S 164.42 20.54, 165.00 21.92 S 168.50 46.10, 170.00 46.00 S 174.26 22.57, 175.00 21.26 S 178.50 28.37, 180.00 28.28 S 183.83 21.55, 185.00 20.62 S 188.77 19.44, 190.00 20.30 S 193.78 26.74, 195.00 27.61 S 199.28 26.07, 200.00 27.39 S 204.61 44.55, 205.00 46.00"
        fill="none">
        <animate attributeName="stroke-dashoffset"
            from="390.8932303549624" to="0" dur="2.2s"/>
        <animate attributeName="stroke-dasharray"
            from="390.8932303549624" to="390.8932303549624"/>
    </path>
    <circle r="4" cx="5" cy="46" fill="#3023AE"/>
    <circle r="4" cx="205" cy="46" fill="#C86DD7" opacity="0">
        <animate attributeName="opacity"
            from="0" to="1" dur="0.1s" begin="2.2s" fill="freeze"/>
    </circle>
</svg>