<svg width="200" height="50" viewBox="0 0 210 50" xmlns="http://www.w3.org/2000/svg">
    <!-- 133 stargazers -->
    <!-- created at Wed Mar 18 2026 11:37:17 GMT+0000 (Coordinated Universal Time) -->
    <defs>
        <linearGradient id="stroke" x1="0%" y1="0%" x2="100%" y2="0%">
            <stop stop-color="#3023AE" offset="0%"/>
            <stop stop-color="#C86DD7" offset="100%"/>
        </linearGradient>
    </defs>
    <path stroke="url(#stroke)"
        stroke-width="3"
        stroke-linejoin="round"
        stroke-linecap="round"
        d="M5.00 46.0001 C 5.41 44.56, 9.17 29.43, 10.00 28.18 S 13.56 30.45, 15.00 30.86 S 18.66 31.74, 20.00 31.06 S 23.52 25.51, 25.00 25.78 S 28.73 32.05, 30.00 32.86 S 33.80 33.04, 35.00 32.14 S 39.06 26.61, 40.00 25.44 S 43.54 19.36, 45.00 19.69 S 48.79 26.85, 50.00 27.74 S 53.81 27.96, 55.00 27.05 S 58.51 20.24, 60.00 20.05 S 63.55 25.36, 65.00 25.73 S 68.66 21.96, 70.00 22.64 S 73.51 30.61, 75.00 30.80 S 78.60 23.37, 80.00 23.91 S 83.53 34.38, 85.00 34.67 S 89.06 27.05, 90.00 25.88 S 93.56 21.80, 95.00 22.22 S 98.54 28.48, 100.00 28.81 S 103.84 25.44, 105.00 24.49 S 108.62 21.25, 110.00 20.65 S 114.05 18.99, 115.00 20.15 S 118.61 33.40, 120.00 32.83 S 123.96 17.09, 125.00 16.00 S 129.53 20.93, 130.00 22.35 S 133.59 45.48, 135.00 46.00 S 139.51 27.45, 140.00 26.03 S 143.50 17.41, 145.00 17.31 S 148.82 24.48, 150.00 25.40 S 154.34 23.74, 155.00 25.09 S 158.50 46.09, 160.00 46.00 S 164.37 25.84, 165.00 24.48 S 168.69 24.91, 170.00 24.18 S 173.71 18.15, 175.00 18.92 S 178.99 29.05, 180.00 30.16 S 184.20 28.69, 185.00 29.96 S 189.21 44.73, 190.00 46.00 S 194.23 47.29, 195.00 46.00 S 199.51 30.79, 200.00 29.37 S 204.44 18.25, 205.00 16.86"
        fill="none">
        <animate attributeName="stroke-dashoffset"
            from="416.8761525100847" to="0" dur="2.2s"/>
        <animate attributeName="stroke-dasharray"
            from="416.8761525100847" to="416.8761525100847"/>
    </path>
    <circle r="4" cx="5" cy="46" fill="#3023AE"/>
    <circle r="4" cx="205" cy="16.858296561758387" fill="#C86DD7" opacity="0">
        <animate attributeName="opacity"
            from="0" to="1" dur="0.1s" begin="2.2s" fill="freeze"/>
    </circle>
</svg>