<svg width="200" height="50" viewBox="0 0 210 50" xmlns="http://www.w3.org/2000/svg">
    <!-- 131 stargazers -->
    <!-- created at Wed Mar 04 2026 11:48:26 GMT+0000 (Coordinated Universal Time) -->
    <defs>
        <linearGradient id="stroke" x1="0%" y1="0%" x2="100%" y2="0%">
            <stop stop-color="#3023AE" offset="0%"/>
            <stop stop-color="#C86DD7" offset="100%"/>
        </linearGradient>
    </defs>
    <path stroke="url(#stroke)"
        stroke-width="3"
        stroke-linejoin="round"
        stroke-linecap="round"
        d="M5.00 46.0001 C 5.35 44.54, 9.17 26.72, 10.00 25.47 S 13.82 29.89, 15.00 30.82 S 18.77 34.15, 20.00 33.28 S 23.81 24.70, 25.00 23.79 S 28.77 24.73, 30.00 25.58 S 33.50 30.81, 35.00 30.78 S 39.04 26.53, 40.00 25.38 S 43.52 19.02, 45.00 18.75 S 48.90 22.56, 50.00 23.57 S 53.51 27.84, 55.00 27.97 S 59.01 25.58, 60.00 24.45 S 63.51 16.76, 65.00 16.55 S 68.70 22.29, 70.00 23.05 S 73.98 21.28, 75.00 22.38 S 78.51 34.06, 80.00 33.87 S 83.50 21.19, 85.00 21.10 S 88.54 32.91, 90.00 33.24 S 94.13 24.60, 95.00 23.38 S 98.58 18.82, 100.00 19.29 S 103.77 25.84, 105.00 26.71 S 108.89 27.32, 110.00 26.31 S 113.68 18.31, 115.00 17.60 S 118.56 20.52, 120.00 20.93 S 123.65 21.14, 125.00 20.47 S 128.51 16.13, 130.00 16.00 S 133.83 18.63, 135.00 19.57 S 139.47 22.66, 140.00 24.07 S 143.70 46.75, 145.00 46.00 S 149.50 19.70, 150.00 18.28 S 153.63 17.26, 155.00 17.86 S 158.63 22.08, 160.00 22.69 S 164.41 20.98, 165.00 22.36 S 168.50 46.10, 170.00 46.00 S 174.25 23.01, 175.00 21.71 S 178.50 28.69, 180.00 28.60 S 183.82 22.00, 185.00 21.08 S 188.76 19.92, 190.00 20.77 S 193.77 27.09, 195.00 27.94 S 199.27 26.42, 200.00 27.73 S 204.60 44.55, 205.00 46.00"
        fill="none">
        <animate attributeName="stroke-dashoffset"
            from="405.4443277520218" to="0" dur="2.2s"/>
        <animate attributeName="stroke-dasharray"
            from="405.4443277520218" to="405.4443277520218"/>
    </path>
    <circle r="4" cx="5" cy="46" fill="#3023AE"/>
    <circle r="4" cx="205" cy="46" fill="#C86DD7" opacity="0">
        <animate attributeName="opacity"
            from="0" to="1" dur="0.1s" begin="2.2s" fill="freeze"/>
    </circle>
</svg>