<svg width="200" height="50" viewBox="0 0 210 50" xmlns="http://www.w3.org/2000/svg">
    <!-- 142 stargazers -->
    <!-- created at Mon Apr 20 2026 06:06:34 GMT+0000 (Coordinated Universal Time) -->
    <defs>
        <linearGradient id="stroke" x1="0%" y1="0%" x2="100%" y2="0%">
            <stop stop-color="#3023AE" offset="0%"/>
            <stop stop-color="#C86DD7" offset="100%"/>
        </linearGradient>
    </defs>
    <path stroke="url(#stroke)"
        stroke-width="3"
        stroke-linejoin="round"
        stroke-linecap="round"
        d="M5.00 46.0001 C 5.40 44.56, 9.10 29.27, 10.00 28.07 S 13.54 32.41, 15.00 32.74 S 18.72 31.08, 20.00 30.29 S 23.51 26.43, 25.00 26.60 S 28.54 31.11, 30.00 31.44 S 33.99 29.94, 35.00 28.84 S 38.52 20.78, 40.00 20.53 S 43.83 26.25, 45.00 27.19 S 48.77 29.33, 50.00 28.48 S 53.59 20.78, 55.00 20.29 S 58.73 24.16, 60.00 24.95 S 63.76 25.71, 65.00 26.56 S 68.52 31.59, 70.00 31.83 S 73.77 29.00, 75.00 28.14 S 78.51 24.95, 80.00 24.80 S 83.51 27.33, 85.00 27.17 S 88.61 24.27, 90.00 23.71 S 93.53 22.88, 95.00 23.19 S 98.53 25.48, 100.00 25.80 S 103.92 26.40, 105.00 25.36 S 108.57 15.77, 110.00 16.21 S 114.04 27.31, 115.00 28.46 S 118.65 28.77, 120.00 28.12 S 123.65 24.36, 125.00 23.70 S 128.58 22.82, 130.00 23.31 S 133.59 26.66, 135.00 27.16 S 138.66 26.16, 140.00 26.84 S 143.50 32.33, 145.00 32.24 S 148.98 27.34, 150.00 26.23 S 153.68 20.72, 155.00 21.43 S 159.43 30.22, 160.00 31.61 S 164.14 44.77, 165.00 46.00 S 169.53 47.42, 170.00 46.00 S 174.47 17.40, 175.00 16.00 S 179.15 18.44, 180.00 19.68 S 183.98 29.51, 185.00 30.61 S 188.77 31.27, 190.00 30.42 S 193.50 23.75, 195.00 23.70 S 198.50 30.12, 200.00 30.04 S 204.12 24.38, 205.00 23.17"
        fill="none">
        <animate attributeName="stroke-dashoffset"
            from="331.45058498624525" to="0" dur="2.2s"/>
        <animate attributeName="stroke-dasharray"
            from="331.45058498624525" to="331.45058498624525"/>
    </path>
    <circle r="4" cx="5" cy="46" fill="#3023AE"/>
    <circle r="4" cx="205" cy="23.170975984348864" fill="#C86DD7" opacity="0">
        <animate attributeName="opacity"
            from="0" to="1" dur="0.1s" begin="2.2s" fill="freeze"/>
    </circle>
</svg>