<svg width="200" height="50" viewBox="0 0 210 50" xmlns="http://www.w3.org/2000/svg">
    <!-- 148 stargazers -->
    <!-- created at Fri May 08 2026 11:00:49 GMT+0000 (Coordinated Universal Time) -->
    <defs>
        <linearGradient id="stroke" x1="0%" y1="0%" x2="100%" y2="0%">
            <stop stop-color="#3023AE" offset="0%"/>
            <stop stop-color="#C86DD7" offset="100%"/>
        </linearGradient>
    </defs>
    <path stroke="url(#stroke)"
        stroke-width="3"
        stroke-linejoin="round"
        stroke-linecap="round"
        d="M5.00 46.0001 C 5.48 44.58, 8.99 32.21, 10.00 31.10 S 13.50 34.86, 15.00 34.98 S 18.66 32.58, 20.00 31.90 S 23.53 29.58, 25.00 29.88 S 28.50 33.83, 30.00 33.90 S 33.89 31.38, 35.00 30.37 S 38.50 24.84, 40.00 24.83 S 43.58 29.89, 45.00 30.36 S 48.56 28.58, 50.00 28.17 S 53.51 27.69, 55.00 27.49 S 58.78 25.97, 60.00 26.84 S 63.64 33.93, 65.00 34.57 S 68.70 32.32, 70.00 31.57 S 73.57 29.31, 75.00 28.86 S 78.51 28.52, 80.00 28.38 S 83.57 28.37, 85.00 27.92 S 88.51 25.42, 90.00 25.29 S 93.51 26.84, 95.00 27.04 S 98.51 26.74, 100.00 26.61 S 103.90 25.17, 105.00 26.19 S 108.50 36.01, 110.00 35.89 S 113.99 26.49, 115.00 25.38 S 118.68 24.27, 120.00 24.99 S 123.69 30.14, 125.00 30.87 S 128.50 30.68, 130.00 30.60 S 133.61 30.91, 135.00 30.34 S 138.62 25.92, 140.00 26.50 S 143.82 33.63, 145.00 34.56 S 149.01 33.25, 150.00 34.38 S 153.89 47.01, 155.00 46.00 S 159.43 26.67, 160.00 25.28 S 163.85 20.77, 165.00 21.73 S 169.03 32.55, 170.00 33.70 S 173.69 34.26, 175.00 33.53 S 178.50 28.19, 180.00 28.14 S 183.64 33.83, 185.00 33.21 S 189.08 22.39, 190.00 23.57 S 194.39 44.63, 195.00 46.00 S 199.53 47.42, 200.00 46.00 S 204.75 17.48, 205.00 16.00"
        fill="none">
        <animate attributeName="stroke-dashoffset"
            from="341.6797583019775" to="0" dur="2.2s"/>
        <animate attributeName="stroke-dasharray"
            from="341.6797583019775" to="341.6797583019775"/>
    </path>
    <circle r="4" cx="5" cy="46" fill="#3023AE"/>
    <circle r="4" cx="205" cy="16" fill="#C86DD7" opacity="0">
        <animate attributeName="opacity"
            from="0" to="1" dur="0.1s" begin="2.2s" fill="freeze"/>
    </circle>
</svg>