<svg width="200" height="50" viewBox="0 0 210 50" xmlns="http://www.w3.org/2000/svg">
    <!-- 140 stargazers -->
    <!-- created at Tue Apr 07 2026 15:03:48 GMT+0000 (Coordinated Universal Time) -->
    <defs>
        <linearGradient id="stroke" x1="0%" y1="0%" x2="100%" y2="0%">
            <stop stop-color="#3023AE" offset="0%"/>
            <stop stop-color="#C86DD7" offset="100%"/>
        </linearGradient>
    </defs>
    <path stroke="url(#stroke)"
        stroke-width="3"
        stroke-linejoin="round"
        stroke-linecap="round"
        d="M5.00 46.0001 C 5.43 44.56, 9.13 30.56, 10.00 29.34 S 13.51 31.64, 15.00 31.84 S 18.65 31.34, 20.00 30.69 S 23.67 26.39, 25.00 27.09 S 28.50 35.88, 30.00 35.97 S 33.90 28.69, 35.00 27.67 S 38.73 27.57, 40.00 26.77 S 43.63 20.79, 45.00 21.40 S 48.56 30.80, 50.00 31.21 S 53.81 25.21, 55.00 24.30 S 58.52 23.75, 60.00 23.53 S 63.87 21.81, 65.00 22.79 S 68.57 31.74, 70.00 32.19 S 73.50 26.01, 75.00 25.89 S 78.52 31.13, 80.00 31.39 S 83.78 28.51, 85.00 27.64 S 88.51 24.41, 90.00 24.28 S 93.51 26.90, 95.00 26.74 S 98.51 23.39, 100.00 23.26 S 103.54 25.56, 105.00 25.89 S 108.91 26.50, 110.00 25.47 S 113.57 15.94, 115.00 16.39 S 119.52 27.16, 120.00 28.58 S 123.84 46.95, 125.00 46.00 S 129.46 21.86, 130.00 20.46 S 134.06 18.86, 135.00 20.03 S 139.07 31.62, 140.00 32.80 S 143.72 33.36, 145.00 32.59 S 148.72 27.52, 150.00 26.74 S 153.66 27.12, 155.00 26.44 S 158.68 20.99, 160.00 21.70 S 163.93 30.72, 165.00 31.77 S 169.14 30.35, 170.00 31.57 S 174.15 44.77, 175.00 46.00 S 179.53 47.42, 180.00 46.00 S 184.47 17.40, 185.00 16.00 S 189.15 18.46, 190.00 19.70 S 194.47 29.23, 195.00 30.63 S 199.03 47.15, 200.00 46.00 S 204.73 20.22, 205.00 18.75"
        fill="none">
        <animate attributeName="stroke-dashoffset"
            from="403.8398298063328" to="0" dur="2.2s"/>
        <animate attributeName="stroke-dasharray"
            from="403.8398298063328" to="403.8398298063328"/>
    </path>
    <circle r="4" cx="5" cy="46" fill="#3023AE"/>
    <circle r="4" cx="205" cy="18.7493005495148" fill="#C86DD7" opacity="0">
        <animate attributeName="opacity"
            from="0" to="1" dur="0.1s" begin="2.2s" fill="freeze"/>
    </circle>
</svg>