<svg width="200" height="50" viewBox="0 0 210 50" xmlns="http://www.w3.org/2000/svg">
    <!-- 132 stargazers -->
    <!-- created at Sun Mar 15 2026 10:25:40 GMT+0000 (Coordinated Universal Time) -->
    <defs>
        <linearGradient id="stroke" x1="0%" y1="0%" x2="100%" y2="0%">
            <stop stop-color="#3023AE" offset="0%"/>
            <stop stop-color="#C86DD7" offset="100%"/>
        </linearGradient>
    </defs>
    <path stroke="url(#stroke)"
        stroke-width="3"
        stroke-linejoin="round"
        stroke-linecap="round"
        d="M5.00 46.0001 C 5.39 44.55, 9.19 28.92, 10.00 27.66 S 13.64 29.79, 15.00 30.41 S 18.60 32.78, 20.00 32.24 S 23.59 27.05, 25.00 26.53 S 28.67 27.84, 30.00 28.54 S 33.59 32.26, 35.00 31.73 S 39.08 26.02, 40.00 24.83 S 43.54 18.57, 45.00 18.92 S 48.95 26.13, 50.00 27.20 S 53.60 29.63, 55.00 29.10 S 58.87 24.40, 60.00 23.42 S 63.52 20.67, 65.00 20.45 S 68.74 21.15, 70.00 21.95 S 73.51 26.64, 75.00 26.83 S 78.80 22.36, 80.00 23.26 S 83.70 33.58, 85.00 34.33 S 89.08 30.27, 90.00 29.09 S 93.65 22.17, 95.00 21.52 S 98.74 23.52, 100.00 24.32 S 103.63 28.53, 105.00 27.92 S 108.66 20.57, 110.00 19.90 S 113.55 22.57, 115.00 22.95 S 118.64 23.13, 120.00 22.51 S 123.51 18.50, 125.00 18.38 S 129.10 20.45, 130.00 21.65 S 133.60 31.17, 135.00 31.70 S 138.75 26.27, 140.00 25.45 S 143.91 26.15, 145.00 25.12 S 148.69 15.27, 150.00 16.01 S 154.15 29.54, 155.00 30.78 S 158.77 31.41, 160.00 30.55 S 163.50 23.91, 165.00 23.85 S 168.50 30.21, 170.00 30.12 S 173.78 24.11, 175.00 23.24 S 178.73 22.15, 180.00 22.94 S 183.73 28.68, 185.00 29.49 S 189.22 28.00, 190.00 29.28 S 194.23 44.71, 195.00 46.00 S 199.53 47.42, 200.00 46.00 S 204.75 17.48, 205.00 16.00"
        fill="none">
        <animate attributeName="stroke-dashoffset"
            from="342.75398843287644" to="0" dur="2.2s"/>
        <animate attributeName="stroke-dasharray"
            from="342.75398843287644" to="342.75398843287644"/>
    </path>
    <circle r="4" cx="5" cy="46" fill="#3023AE"/>
    <circle r="4" cx="205" cy="16" fill="#C86DD7" opacity="0">
        <animate attributeName="opacity"
            from="0" to="1" dur="0.1s" begin="2.2s" fill="freeze"/>
    </circle>
</svg>