<svg width="200" height="50" viewBox="0 0 210 50" xmlns="http://www.w3.org/2000/svg">
    <!-- 149 stargazers -->
    <!-- created at Mon May 11 2026 11:56:49 GMT+0000 (Coordinated Universal Time) -->
    <defs>
        <linearGradient id="stroke" x1="0%" y1="0%" x2="100%" y2="0%">
            <stop stop-color="#3023AE" offset="0%"/>
            <stop stop-color="#C86DD7" offset="100%"/>
        </linearGradient>
    </defs>
    <path stroke="url(#stroke)"
        stroke-width="3"
        stroke-linejoin="round"
        stroke-linecap="round"
        d="M5.00 46.0001 C 5.48 44.58, 8.99 32.21, 10.00 31.10 S 13.50 34.86, 15.00 34.98 S 18.66 32.58, 20.00 31.90 S 23.53 29.58, 25.00 29.88 S 28.50 33.83, 30.00 33.90 S 33.89 31.38, 35.00 30.37 S 38.50 24.84, 40.00 24.83 S 43.58 29.89, 45.00 30.36 S 48.62 28.77, 50.00 28.17 S 53.51 26.21, 55.00 26.01 S 59.04 25.69, 60.00 26.84 S 63.54 37.56, 65.00 37.92 S 68.89 30.35, 70.00 29.34 S 73.51 29.00, 75.00 28.86 S 78.52 28.16, 80.00 28.38 S 83.57 30.79, 85.00 30.35 S 88.69 26.02, 90.00 25.29 S 93.51 24.61, 95.00 24.80 S 98.51 26.41, 100.00 26.61 S 103.90 25.17, 105.00 26.19 S 108.50 36.01, 110.00 35.89 S 113.83 26.33, 115.00 25.38 S 118.68 27.08, 120.00 27.80 S 123.56 30.47, 125.00 30.87 S 128.50 30.68, 130.00 30.60 S 133.78 31.21, 135.00 30.34 S 138.62 22.90, 140.00 23.48 S 144.39 33.19, 145.00 34.56 S 149.01 44.87, 150.00 46.00 S 154.42 47.38, 155.00 46.00 S 159.43 23.46, 160.00 22.07 S 164.42 20.35, 165.00 21.73 S 168.55 45.61, 170.00 46.00 S 174.07 25.58, 175.00 24.41 S 178.58 32.87, 180.00 33.37 S 183.50 27.96, 185.00 27.91 S 189.27 31.74, 190.00 33.05 S 193.50 46.05, 195.00 46.00 S 199.53 34.16, 200.00 32.74 S 204.57 17.44, 205.00 16.00"
        fill="none">
        <animate attributeName="stroke-dashoffset"
            from="371.5561261285441" to="0" dur="2.2s"/>
        <animate attributeName="stroke-dasharray"
            from="371.5561261285441" to="371.5561261285441"/>
    </path>
    <circle r="4" cx="5" cy="46" fill="#3023AE"/>
    <circle r="4" cx="205" cy="16" fill="#C86DD7" opacity="0">
        <animate attributeName="opacity"
            from="0" to="1" dur="0.1s" begin="2.2s" fill="freeze"/>
    </circle>
</svg>