<svg width="200" height="50" viewBox="0 0 210 50" xmlns="http://www.w3.org/2000/svg">
    <!-- 143 stargazers -->
    <!-- created at Sun Apr 26 2026 07:28:08 GMT+0000 (Coordinated Universal Time) -->
    <defs>
        <linearGradient id="stroke" x1="0%" y1="0%" x2="100%" y2="0%">
            <stop stop-color="#3023AE" offset="0%"/>
            <stop stop-color="#C86DD7" offset="100%"/>
        </linearGradient>
    </defs>
    <path stroke="url(#stroke)"
        stroke-width="3"
        stroke-linejoin="round"
        stroke-linecap="round"
        d="M5.00 46.0001 C 5.40 44.55, 9.10 29.03, 10.00 27.83 S 13.54 32.23, 15.00 32.56 S 18.73 30.88, 20.00 30.08 S 23.50 26.43, 25.00 26.34 S 28.54 29.17, 30.00 29.50 S 33.90 29.63, 35.00 28.61 S 38.50 20.14, 40.00 20.19 S 43.83 28.01, 45.00 28.95 S 48.97 29.34, 50.00 28.25 S 53.51 18.56, 55.00 18.36 S 58.83 25.99, 60.00 26.92 S 63.51 26.48, 65.00 26.29 S 68.90 24.67, 70.00 25.69 S 73.51 35.72, 75.00 35.55 S 79.14 25.75, 80.00 24.52 S 83.53 21.07, 85.00 21.36 S 88.52 26.21, 90.00 26.44 S 93.61 23.45, 95.00 22.88 S 98.51 22.51, 100.00 22.36 S 103.51 22.00, 105.00 21.85 S 109.02 20.21, 110.00 21.35 S 113.54 33.07, 115.00 33.43 S 119.23 25.10, 120.00 23.81 S 123.58 16.35, 125.00 16.83 S 129.51 25.80, 130.00 27.22 S 133.50 46.10, 135.00 46.00 S 139.43 27.97, 140.00 26.59 S 143.66 22.53, 145.00 21.84 S 148.93 20.42, 150.00 21.47 S 154.43 30.23, 155.00 31.62 S 159.14 44.77, 160.00 46.00 S 164.53 47.42, 165.00 46.00 S 169.47 17.40, 170.00 16.00 S 174.15 18.43, 175.00 19.67 S 178.98 29.50, 180.00 30.60 S 183.77 31.26, 185.00 30.40 S 188.50 23.73, 190.00 23.67 S 193.50 30.10, 195.00 30.02 S 198.50 23.19, 200.00 23.13 S 204.09 28.45, 205.00 29.64"
        fill="none">
        <animate attributeName="stroke-dashoffset"
            from="382.5086403013419" to="0" dur="2.2s"/>
        <animate attributeName="stroke-dasharray"
            from="382.5086403013419" to="382.5086403013419"/>
    </path>
    <circle r="4" cx="5" cy="46" fill="#3023AE"/>
    <circle r="4" cx="205" cy="29.640404321728642" fill="#C86DD7" opacity="0">
        <animate attributeName="opacity"
            from="0" to="1" dur="0.1s" begin="2.2s" fill="freeze"/>
    </circle>
</svg>