<svg width="200" height="50" viewBox="0 0 210 50" xmlns="http://www.w3.org/2000/svg">
    <!-- 137 stargazers -->
    <!-- created at Wed Apr 01 2026 14:16:35 GMT+0000 (Coordinated Universal Time) -->
    <defs>
        <linearGradient id="stroke" x1="0%" y1="0%" x2="100%" y2="0%">
            <stop stop-color="#3023AE" offset="0%"/>
            <stop stop-color="#C86DD7" offset="100%"/>
        </linearGradient>
    </defs>
    <path stroke="url(#stroke)"
        stroke-width="3"
        stroke-linejoin="round"
        stroke-linecap="round"
        d="M5.00 46.0001 C 5.44 44.56, 9.13 30.76, 10.00 29.54 S 13.51 31.82, 15.00 32.02 S 18.58 31.37, 20.00 30.88 S 23.56 28.10, 25.00 28.53 S 28.55 33.47, 30.00 33.86 S 33.85 32.18, 35.00 31.22 S 38.98 26.59, 40.00 25.49 S 43.71 19.62, 45.00 20.39 S 48.83 30.45, 50.00 31.40 S 53.91 29.52, 55.00 28.50 S 58.58 22.51, 60.00 22.03 S 63.79 24.19, 65.00 25.07 S 68.51 29.13, 70.00 29.29 S 73.54 25.81, 75.00 26.14 S 78.52 31.32, 80.00 31.57 S 83.77 28.73, 85.00 27.87 S 88.51 24.68, 90.00 24.55 S 93.53 26.69, 95.00 26.98 S 98.75 27.38, 100.00 26.55 S 103.56 19.94, 105.00 20.35 S 108.52 29.18, 110.00 29.44 S 113.63 22.74, 115.00 22.12 S 118.73 24.12, 120.00 24.92 S 123.57 28.01, 125.00 28.48 S 128.64 28.80, 130.00 28.16 S 133.65 24.43, 135.00 23.78 S 138.58 22.92, 140.00 23.41 S 144.39 25.89, 145.00 27.26 S 148.50 46.09, 150.00 46.00 S 154.32 28.02, 155.00 26.69 S 158.66 27.08, 160.00 26.40 S 163.68 20.95, 165.00 21.66 S 168.93 30.70, 170.00 31.75 S 174.14 30.33, 175.00 31.56 S 179.15 44.77, 180.00 46.00 S 184.53 47.42, 185.00 46.00 S 189.47 17.40, 190.00 16.00 S 194.15 18.47, 195.00 19.70 S 199.47 29.24, 200.00 30.64 S 204.54 44.57, 205.00 46.00"
        fill="none">
        <animate attributeName="stroke-dashoffset"
            from="356.22364381656024" to="0" dur="2.2s"/>
        <animate attributeName="stroke-dasharray"
            from="356.22364381656024" to="356.22364381656024"/>
    </path>
    <circle r="4" cx="5" cy="46" fill="#3023AE"/>
    <circle r="4" cx="205" cy="46" fill="#C86DD7" opacity="0">
        <animate attributeName="opacity"
            from="0" to="1" dur="0.1s" begin="2.2s" fill="freeze"/>
    </circle>
</svg>