<svg width="200" height="50" viewBox="0 0 210 50" xmlns="http://www.w3.org/2000/svg">
    <!-- 129 stargazers -->
    <!-- created at Thu Mar 12 2026 10:18:58 GMT+0000 (Coordinated Universal Time) -->
    <defs>
        <linearGradient id="stroke" x1="0%" y1="0%" x2="100%" y2="0%">
            <stop stop-color="#3023AE" offset="0%"/>
            <stop stop-color="#C86DD7" offset="100%"/>
        </linearGradient>
    </defs>
    <path stroke="url(#stroke)"
        stroke-width="3"
        stroke-linejoin="round"
        stroke-linecap="round"
        d="M5.00 46.0001 C 5.37 44.55, 9.23 27.62, 10.00 26.34 S 13.65 28.63, 15.00 29.29 S 18.62 31.83, 20.00 31.25 S 23.61 25.68, 25.00 25.13 S 28.69 26.55, 30.00 27.28 S 33.61 31.26, 35.00 30.71 S 39.12 24.52, 40.00 23.31 S 43.55 16.60, 45.00 16.97 S 49.14 24.62, 50.00 25.85 S 53.73 32.02, 55.00 31.21 S 59.07 20.66, 60.00 19.48 S 63.50 18.50, 65.00 18.61 S 68.97 19.13, 70.00 20.22 S 73.64 28.59, 75.00 29.22 S 78.51 25.02, 80.00 24.89 S 83.56 27.88, 85.00 28.31 S 88.66 28.55, 90.00 27.87 S 94.03 24.42, 95.00 23.27 S 98.58 15.52, 100.00 16.00 S 103.70 25.87, 105.00 26.62 S 108.89 22.78, 110.00 21.77 S 113.51 17.61, 115.00 17.47 S 118.56 20.40, 120.00 20.82 S 123.51 20.49, 125.00 20.35 S 128.61 19.35, 130.00 19.90 S 134.46 22.92, 135.00 24.32 S 138.70 46.75, 140.00 46.00 S 144.49 19.99, 145.00 18.58 S 148.62 17.56, 150.00 18.15 S 153.63 22.31, 155.00 22.92 S 159.40 21.21, 160.00 22.58 S 163.50 46.10, 165.00 46.00 S 169.43 23.31, 170.00 21.92 S 173.50 21.70, 175.00 21.60 S 178.50 21.37, 180.00 21.28 S 183.76 20.12, 185.00 20.96 S 189.44 26.68, 190.00 28.08 S 194.27 44.69, 195.00 46.00 S 198.50 46.00, 200.00 46.00 S 203.50 46.00, 205.00 46.00"
        fill="none">
        <animate attributeName="stroke-dashoffset"
            from="373.58090779778667" to="0" dur="2.2s"/>
        <animate attributeName="stroke-dasharray"
            from="373.58090779778667" to="373.58090779778667"/>
    </path>
    <circle r="4" cx="5" cy="46" fill="#3023AE"/>
    <circle r="4" cx="205" cy="46" fill="#C86DD7" opacity="0">
        <animate attributeName="opacity"
            from="0" to="1" dur="0.1s" begin="2.2s" fill="freeze"/>
    </circle>
</svg>