<svg width="200" height="50" viewBox="0 0 210 50" xmlns="http://www.w3.org/2000/svg">
    <!-- 140 stargazers -->
    <!-- created at Mon Apr 13 2026 15:20:07 GMT+0000 (Coordinated Universal Time) -->
    <defs>
        <linearGradient id="stroke" x1="0%" y1="0%" x2="100%" y2="0%">
            <stop stop-color="#3023AE" offset="0%"/>
            <stop stop-color="#C86DD7" offset="100%"/>
        </linearGradient>
    </defs>
    <path stroke="url(#stroke)"
        stroke-width="3"
        stroke-linejoin="round"
        stroke-linecap="round"
        d="M5.00 46.0001 C 5.43 44.56, 9.14 30.36, 10.00 29.13 S 13.51 31.46, 15.00 31.66 S 18.65 31.15, 20.00 30.50 S 23.57 26.41, 25.00 26.85 S 28.50 33.47, 30.00 33.56 S 33.86 28.42, 35.00 27.44 S 38.58 25.45, 40.00 24.97 S 43.72 23.25, 45.00 24.03 S 48.58 31.51, 50.00 31.02 S 53.70 21.37, 55.00 20.62 S 58.60 24.68, 60.00 25.23 S 63.76 23.70, 65.00 24.54 S 68.60 31.47, 70.00 32.01 S 73.50 28.49, 75.00 28.37 S 78.73 32.01, 80.00 31.21 S 83.62 22.59, 85.00 22.00 S 88.63 26.33, 90.00 26.95 S 93.89 27.51, 95.00 26.50 S 98.56 17.39, 100.00 17.80 S 103.62 28.79, 105.00 29.37 S 108.82 22.92, 110.00 21.99 S 114.02 20.38, 115.00 21.51 S 118.74 32.70, 120.00 33.52 S 124.10 29.23, 125.00 28.03 S 128.50 20.23, 130.00 20.14 S 133.77 26.54, 135.00 27.40 S 138.50 27.18, 140.00 27.09 S 143.50 26.88, 145.00 26.79 S 148.50 26.58, 150.00 26.49 S 153.50 26.28, 155.00 26.20 S 158.68 25.19, 160.00 25.91 S 164.33 30.25, 165.00 31.59 S 169.14 44.77, 170.00 46.00 S 174.53 47.42, 175.00 46.00 S 179.47 17.40, 180.00 16.00 S 184.15 18.45, 185.00 19.69 S 188.98 29.52, 190.00 30.62 S 193.77 31.28, 195.00 30.43 S 198.50 23.78, 200.00 23.72 S 204.07 28.89, 205.00 30.07"
        fill="none">
        <animate attributeName="stroke-dashoffset"
            from="341.6314111809931" to="0" dur="2.2s"/>
        <animate attributeName="stroke-dasharray"
            from="341.6314111809931" to="341.6314111809931"/>
    </path>
    <circle r="4" cx="5" cy="46" fill="#3023AE"/>
    <circle r="4" cx="205" cy="30.066064576487904" fill="#C86DD7" opacity="0">
        <animate attributeName="opacity"
            from="0" to="1" dur="0.1s" begin="2.2s" fill="freeze"/>
    </circle>
</svg>