<svg width="200" height="50" viewBox="0 0 210 50" xmlns="http://www.w3.org/2000/svg">
    <!-- 150 stargazers -->
    <!-- created at Thu May 14 2026 12:23:56 GMT+0000 (Coordinated Universal Time) -->
    <defs>
        <linearGradient id="stroke" x1="0%" y1="0%" x2="100%" y2="0%">
            <stop stop-color="#3023AE" offset="0%"/>
            <stop stop-color="#C86DD7" offset="100%"/>
        </linearGradient>
    </defs>
    <path stroke="url(#stroke)"
        stroke-width="3"
        stroke-linejoin="round"
        stroke-linecap="round"
        d="M5.00 46.0001 C 5.47 44.58, 9.00 32.04, 10.00 30.93 S 13.50 34.73, 15.00 34.85 S 18.67 32.43, 20.00 31.74 S 23.53 29.39, 25.00 29.69 S 28.50 33.87, 30.00 33.76 S 33.89 29.94, 35.00 28.93 S 38.56 24.17, 40.00 24.59 S 43.58 31.37, 45.00 31.85 S 48.72 28.74, 50.00 27.96 S 53.51 25.98, 55.00 25.78 S 58.72 25.84, 60.00 26.62 S 63.80 30.95, 65.00 31.84 S 68.57 34.54, 70.00 34.08 S 73.83 29.59, 75.00 28.66 S 78.52 25.85, 80.00 26.08 S 83.56 30.60, 85.00 30.16 S 88.50 23.17, 90.00 23.05 S 93.51 29.24, 95.00 29.39 S 98.50 24.18, 100.00 24.07 S 103.80 27.75, 105.00 28.65 S 108.58 32.04, 110.00 31.54 S 113.50 25.23, 115.00 25.14 S 118.69 30.24, 120.00 30.97 S 123.50 30.78, 125.00 30.70 S 128.61 30.99, 130.00 30.42 S 133.61 27.17, 135.00 26.60 S 138.82 25.35, 140.00 26.27 S 144.32 33.09, 145.00 34.43 S 148.89 47.01, 150.00 46.00 S 154.35 26.69, 155.00 25.34 S 158.58 24.57, 160.00 25.04 S 163.86 27.67, 165.00 28.64 S 168.50 33.63, 170.00 33.56 S 173.50 28.22, 175.00 28.17 S 178.64 33.85, 180.00 33.22 S 184.08 22.41, 185.00 23.59 S 189.39 44.63, 190.00 46.00 S 194.53 47.42, 195.00 46.00 S 199.31 17.33, 200.00 16.00 S 204.37 25.45, 205.00 26.81"
        fill="none">
        <animate attributeName="stroke-dashoffset"
            from="348.4996733491225" to="0" dur="2.2s"/>
        <animate attributeName="stroke-dasharray"
            from="348.4996733491225" to="348.4996733491225"/>
    </path>
    <circle r="4" cx="5" cy="46" fill="#3023AE"/>
    <circle r="4" cx="205" cy="26.80667635024503" fill="#C86DD7" opacity="0">
        <animate attributeName="opacity"
            from="0" to="1" dur="0.1s" begin="2.2s" fill="freeze"/>
    </circle>
</svg>