<svg width="200" height="50" viewBox="0 0 210 50" xmlns="http://www.w3.org/2000/svg">
    <!-- 143 stargazers -->
    <!-- created at Thu Apr 23 2026 06:28:03 GMT+0000 (Coordinated Universal Time) -->
    <defs>
        <linearGradient id="stroke" x1="0%" y1="0%" x2="100%" y2="0%">
            <stop stop-color="#3023AE" offset="0%"/>
            <stop stop-color="#C86DD7" offset="100%"/>
        </linearGradient>
    </defs>
    <path stroke="url(#stroke)"
        stroke-width="3"
        stroke-linejoin="round"
        stroke-linecap="round"
        d="M5.00 46.0001 C 5.37 44.55, 9.16 27.31, 10.00 26.07 S 13.54 30.90, 15.00 31.26 S 18.76 29.39, 20.00 28.54 S 23.51 24.24, 25.00 24.43 S 28.50 29.72, 30.00 29.82 S 34.05 26.26, 35.00 25.10 S 38.53 17.37, 40.00 17.69 S 43.88 26.30, 45.00 27.29 S 48.93 27.58, 50.00 26.53 S 53.60 17.96, 55.00 17.42 S 58.77 21.75, 60.00 22.61 S 63.51 24.22, 65.00 24.39 S 68.95 22.65, 70.00 23.72 S 73.51 34.73, 75.00 34.53 S 79.07 23.62, 80.00 22.44 S 83.53 21.52, 85.00 21.82 S 88.62 25.12, 90.00 24.55 S 93.63 18.26, 95.00 17.65 S 98.68 19.36, 100.00 20.07 S 103.51 23.22, 105.00 23.06 S 108.58 18.47, 110.00 18.96 S 113.78 25.63, 115.00 26.50 S 118.89 27.14, 120.00 26.13 S 123.50 17.49, 125.00 17.38 S 128.81 24.49, 130.00 25.41 S 133.50 25.16, 135.00 25.05 S 138.50 24.81, 140.00 24.71 S 143.69 25.10, 145.00 24.36 S 148.50 19.19, 150.00 19.09 S 154.48 22.29, 155.00 23.70 S 159.39 44.63, 160.00 46.00 S 164.50 47.42, 165.00 46.00 S 169.41 18.88, 170.00 17.50 S 173.50 22.53, 175.00 22.42 S 179.41 15.36, 180.00 16.74 S 183.50 46.11, 185.00 46.00 S 189.26 17.30, 190.00 16.00 S 193.65 27.81, 195.00 28.47 S 198.50 20.98, 200.00 20.91 S 204.14 26.83, 205.00 28.06"
        fill="none">
        <animate attributeName="stroke-dashoffset"
            from="401.7105722642601" to="0" dur="2.2s"/>
        <animate attributeName="stroke-dasharray"
            from="401.7105722642601" to="401.7105722642601"/>
    </path>
    <circle r="4" cx="5" cy="46" fill="#3023AE"/>
    <circle r="4" cx="205" cy="28.056112042921303" fill="#C86DD7" opacity="0">
        <animate attributeName="opacity"
            from="0" to="1" dur="0.1s" begin="2.2s" fill="freeze"/>
    </circle>
</svg>