<svg width="200" height="50" viewBox="0 0 210 50" xmlns="http://www.w3.org/2000/svg">
    <!-- 137 stargazers -->
    <!-- created at Sun Mar 29 2026 14:00:37 GMT+0000 (Coordinated Universal Time) -->
    <defs>
        <linearGradient id="stroke" x1="0%" y1="0%" x2="100%" y2="0%">
            <stop stop-color="#3023AE" offset="0%"/>
            <stop stop-color="#C86DD7" offset="100%"/>
        </linearGradient>
    </defs>
    <path stroke="url(#stroke)"
        stroke-width="3"
        stroke-linejoin="round"
        stroke-linecap="round"
        d="M5.00 46.0001 C 5.45 44.57, 9.11 31.14, 10.00 29.93 S 13.51 32.15, 15.00 32.35 S 18.58 31.72, 20.00 31.24 S 23.56 28.52, 25.00 28.94 S 28.55 33.77, 30.00 34.15 S 33.75 32.40, 35.00 31.57 S 38.97 28.55, 40.00 27.46 S 43.53 20.69, 45.00 20.99 S 49.08 28.35, 50.00 29.53 S 53.94 34.98, 55.00 33.91 S 58.72 20.25, 60.00 19.46 S 63.81 26.81, 65.00 27.72 S 68.52 26.94, 70.00 27.16 S 73.65 28.56, 75.00 29.21 S 78.51 32.05, 80.00 31.91 S 83.76 29.14, 85.00 28.30 S 88.51 25.18, 90.00 25.05 S 93.53 27.14, 95.00 27.43 S 98.60 27.55, 100.00 27.01 S 103.60 24.14, 105.00 23.60 S 108.71 22.37, 110.00 23.14 S 113.59 30.03, 115.00 29.51 S 118.50 19.53, 120.00 19.43 S 124.47 27.48, 125.00 28.89 S 128.83 46.93, 130.00 46.00 S 134.38 22.32, 135.00 20.95 S 139.05 22.79, 140.00 23.95 S 143.58 32.57, 145.00 33.06 S 148.71 28.18, 150.00 27.42 S 153.50 27.22, 155.00 27.14 S 158.67 26.18, 160.00 26.86 S 163.66 32.94, 165.00 32.28 S 168.50 21.96, 170.00 21.90 S 174.43 30.51, 175.00 31.90 S 179.13 44.78, 180.00 46.00 S 184.35 47.35, 185.00 46.00 S 189.35 26.64, 190.00 25.29 S 193.90 26.06, 195.00 25.04 S 199.35 14.65, 200.00 16.00 S 204.75 44.52, 205.00 46.00"
        fill="none">
        <animate attributeName="stroke-dashoffset"
            from="382.2576945255892" to="0" dur="2.2s"/>
        <animate attributeName="stroke-dasharray"
            from="382.2576945255892" to="382.2576945255892"/>
    </path>
    <circle r="4" cx="5" cy="46" fill="#3023AE"/>
    <circle r="4" cx="205" cy="46" fill="#C86DD7" opacity="0">
        <animate attributeName="opacity"
            from="0" to="1" dur="0.1s" begin="2.2s" fill="freeze"/>
    </circle>
</svg>