<svg width="200" height="50" viewBox="0 0 210 50" xmlns="http://www.w3.org/2000/svg">
    <!-- 141 stargazers -->
    <!-- created at Thu Apr 16 2026 15:51:43 GMT+0000 (Coordinated Universal Time) -->
    <defs>
        <linearGradient id="stroke" x1="0%" y1="0%" x2="100%" y2="0%">
            <stop stop-color="#3023AE" offset="0%"/>
            <stop stop-color="#C86DD7" offset="100%"/>
        </linearGradient>
    </defs>
    <path stroke="url(#stroke)"
        stroke-width="3"
        stroke-linejoin="round"
        stroke-linecap="round"
        d="M5.00 46.0001 C 5.36 44.54, 9.17 27.07, 10.00 25.82 S 13.54 30.71, 15.00 31.08 S 18.77 29.18, 20.00 28.32 S 23.58 23.67, 25.00 24.17 S 28.50 31.71, 30.00 31.81 S 34.09 26.03, 35.00 24.84 S 38.53 19.11, 40.00 18.81 S 43.95 21.74, 45.00 22.81 S 48.70 29.67, 50.00 28.93 S 53.75 17.89, 55.00 17.06 S 58.63 21.70, 60.00 22.31 S 64.06 20.37, 65.00 21.53 S 68.63 34.12, 70.00 34.72 S 73.91 26.92, 75.00 25.89 S 78.79 26.22, 80.00 25.34 S 83.51 18.79, 85.00 18.64 S 88.67 23.59, 90.00 24.28 S 93.81 24.68, 95.00 23.77 S 98.51 16.80, 100.00 16.65 S 103.53 22.48, 105.00 22.77 S 108.64 19.26, 110.00 18.63 S 114.49 16.67, 115.00 18.08 S 118.51 46.16, 120.00 46.00 S 124.52 18.45, 125.00 17.03 S 129.13 15.29, 130.00 16.51 S 134.14 29.78, 135.00 31.00 S 138.77 31.61, 140.00 30.76 S 143.77 24.96, 145.00 24.10 S 148.70 24.50, 150.00 23.75 S 153.50 18.44, 155.00 18.35 S 159.49 21.68, 160.00 23.09 S 164.40 44.63, 165.00 46.00 S 169.51 47.42, 170.00 46.00 S 174.43 18.15, 175.00 16.76 S 178.50 21.93, 180.00 21.81 S 184.43 14.61, 185.00 16.00 S 189.05 44.84, 190.00 46.00 S 194.45 29.65, 195.00 28.25 S 198.83 21.53, 200.00 20.60 S 203.50 20.40, 205.00 20.31"
        fill="none">
        <animate attributeName="stroke-dashoffset"
            from="438.04536418462044" to="0" dur="2.2s"/>
        <animate attributeName="stroke-dasharray"
            from="438.04536418462044" to="438.04536418462044"/>
    </path>
    <circle r="4" cx="5" cy="46" fill="#3023AE"/>
    <circle r="4" cx="205" cy="20.307794168639305" fill="#C86DD7" opacity="0">
        <animate attributeName="opacity"
            from="0" to="1" dur="0.1s" begin="2.2s" fill="freeze"/>
    </circle>
</svg>