<svg width="200" height="50" viewBox="0 0 210 50" xmlns="http://www.w3.org/2000/svg">
    <!-- 136 stargazers -->
    <!-- created at Mon Mar 23 2026 13:05:03 GMT+0000 (Coordinated Universal Time) -->
    <defs>
        <linearGradient id="stroke" x1="0%" y1="0%" x2="100%" y2="0%">
            <stop stop-color="#3023AE" offset="0%"/>
            <stop stop-color="#C86DD7" offset="100%"/>
        </linearGradient>
    </defs>
    <path stroke="url(#stroke)"
        stroke-width="3"
        stroke-linejoin="round"
        stroke-linecap="round"
        d="M5.00 46.0001 C 5.39 44.55, 9.19 28.92, 10.00 27.66 S 13.56 29.99, 15.00 30.41 S 18.67 31.31, 20.00 30.62 S 23.53 24.91, 25.00 25.18 S 28.62 31.87, 30.00 32.47 S 33.81 30.44, 35.00 29.53 S 38.89 25.84, 40.00 24.83 S 43.54 20.12, 45.00 20.47 S 48.72 26.43, 50.00 27.20 S 53.93 27.54, 55.00 26.49 S 58.51 17.64, 60.00 17.44 S 63.63 24.52, 65.00 25.14 S 68.67 21.26, 70.00 21.95 S 73.62 29.75, 75.00 30.35 S 78.51 26.43, 80.00 26.30 S 83.51 29.65, 85.00 29.50 S 88.83 26.23, 90.00 25.29 S 93.51 21.67, 95.00 21.52 S 98.54 23.98, 100.00 24.32 S 103.63 24.46, 105.00 23.86 S 108.51 20.04, 110.00 19.90 S 113.55 22.57, 115.00 22.95 S 118.51 22.64, 120.00 22.51 S 123.59 21.57, 125.00 22.08 S 128.59 25.60, 130.00 26.12 S 133.50 25.88, 135.00 25.78 S 138.90 26.47, 140.00 25.45 S 143.69 15.74, 145.00 16.47 S 149.14 29.77, 150.00 31.00 S 153.76 31.62, 155.00 30.78 S 158.77 25.01, 160.00 24.16 S 163.71 23.08, 165.00 23.85 S 168.70 30.86, 170.00 30.12 S 173.50 18.19, 175.00 18.12 S 179.49 28.28, 180.00 29.69 S 184.22 44.72, 185.00 46.00 S 189.24 47.29, 190.00 46.00 S 194.52 30.50, 195.00 29.08 S 199.09 17.53, 200.00 16.34 S 203.50 16.10, 205.00 16.00"
        fill="none">
        <animate attributeName="stroke-dashoffset"
            from="330.30726848734" to="0" dur="2.2s"/>
        <animate attributeName="stroke-dasharray"
            from="330.30726848734" to="330.30726848734"/>
    </path>
    <circle r="4" cx="5" cy="46" fill="#3023AE"/>
    <circle r="4" cx="205" cy="16" fill="#C86DD7" opacity="0">
        <animate attributeName="opacity"
            from="0" to="1" dur="0.1s" begin="2.2s" fill="freeze"/>
    </circle>
</svg>