<svg width="200" height="50" viewBox="0 0 210 50" xmlns="http://www.w3.org/2000/svg">
    <!-- 143 stargazers -->
    <!-- created at Tue May 05 2026 09:02:18 GMT+0000 (Coordinated Universal Time) -->
    <defs>
        <linearGradient id="stroke" x1="0%" y1="0%" x2="100%" y2="0%">
            <stop stop-color="#3023AE" offset="0%"/>
            <stop stop-color="#C86DD7" offset="100%"/>
        </linearGradient>
    </defs>
    <path stroke="url(#stroke)"
        stroke-width="3"
        stroke-linejoin="round"
        stroke-linecap="round"
        d="M5.00 46.0001 C 5.40 44.55, 9.10 29.03, 10.00 27.83 S 13.51 32.42, 15.00 32.56 S 18.73 29.60, 20.00 28.81 S 23.54 25.98, 25.00 26.34 S 28.50 31.16, 30.00 31.25 S 33.92 27.99, 35.00 26.94 S 38.50 21.52, 40.00 21.52 S 43.64 26.30, 45.00 26.93 S 48.77 27.01, 50.00 26.15 S 53.58 20.44, 55.00 19.94 S 59.05 21.48, 60.00 22.64 S 63.70 31.32, 65.00 32.07 S 68.62 28.98, 70.00 28.41 S 73.74 28.71, 75.00 27.89 S 78.60 22.53, 80.00 21.98 S 83.52 23.75, 85.00 23.96 S 88.51 23.57, 90.00 23.41 S 93.51 23.04, 95.00 22.88 S 98.51 22.51, 100.00 22.36 S 103.73 21.06, 105.00 21.85 S 108.74 27.76, 110.00 28.57 S 114.00 29.34, 115.00 28.22 S 118.50 17.46, 120.00 17.36 S 124.18 26.29, 125.00 27.55 S 128.50 32.82, 130.00 32.72 S 133.97 27.99, 135.00 26.90 S 138.66 22.90, 140.00 22.22 S 143.92 20.80, 145.00 21.84 S 149.43 30.45, 150.00 31.84 S 153.50 46.06, 155.00 46.00 S 159.45 32.81, 160.00 31.41 S 164.18 21.63, 165.00 20.37 S 169.45 14.60, 170.00 16.00 S 173.58 45.53, 175.00 46.00 S 179.19 20.59, 180.00 19.33 S 183.62 29.81, 185.00 30.40 S 188.50 23.73, 190.00 23.67 S 194.39 28.65, 195.00 30.02 S 199.20 44.73, 200.00 46.00 S 203.50 46.00, 205.00 46.00"
        fill="none">
        <animate attributeName="stroke-dashoffset"
            from="377.1729248562891" to="0" dur="2.2s"/>
        <animate attributeName="stroke-dasharray"
            from="377.1729248562891" to="377.1729248562891"/>
    </path>
    <circle r="4" cx="5" cy="46" fill="#3023AE"/>
    <circle r="4" cx="205" cy="46" fill="#C86DD7" opacity="0">
        <animate attributeName="opacity"
            from="0" to="1" dur="0.1s" begin="2.2s" fill="freeze"/>
    </circle>
</svg>