<svg width="200" height="50" viewBox="0 0 210 50" xmlns="http://www.w3.org/2000/svg">
    <!-- 129 stargazers -->
    <!-- created at Mon Mar 09 2026 10:09:48 GMT+0000 (Coordinated Universal Time) -->
    <defs>
        <linearGradient id="stroke" x1="0%" y1="0%" x2="100%" y2="0%">
            <stop stop-color="#3023AE" offset="0%"/>
            <stop stop-color="#C86DD7" offset="100%"/>
        </linearGradient>
    </defs>
    <path stroke="url(#stroke)"
        stroke-width="3"
        stroke-linejoin="round"
        stroke-linecap="round"
        d="M5.00 46.0001 C 5.41 44.56, 9.16 29.74, 10.00 28.49 S 13.63 30.52, 15.00 31.12 S 18.54 33.21, 20.00 32.87 S 23.67 29.48, 25.00 28.79 S 28.59 27.23, 30.00 27.74 S 33.50 32.41, 35.00 32.38 S 39.05 28.72, 40.00 27.56 S 43.50 20.08, 45.00 20.15 S 48.92 27.01, 50.00 28.06 S 53.70 30.61, 55.00 29.87 S 58.72 23.17, 60.00 22.39 S 63.57 23.29, 65.00 23.74 S 68.51 25.30, 70.00 25.47 S 73.67 24.18, 75.00 24.87 S 78.52 30.38, 80.00 30.65 S 83.50 26.83, 85.00 26.71 S 88.51 30.00, 90.00 29.86 S 93.63 26.39, 95.00 25.77 S 98.62 25.89, 100.00 25.31 S 103.57 21.15, 105.00 21.60 S 108.61 28.94, 110.00 28.39 S 113.50 17.70, 115.00 17.60 S 119.18 26.44, 120.00 27.69 S 124.03 33.96, 125.00 32.82 S 128.96 17.08, 130.00 16.00 S 134.53 20.94, 135.00 22.36 S 138.59 45.48, 140.00 46.00 S 144.44 27.46, 145.00 26.07 S 148.67 21.90, 150.00 21.21 S 153.94 19.77, 155.00 20.83 S 158.95 30.19, 160.00 31.26 S 163.75 31.88, 165.00 31.05 S 168.50 24.63, 170.00 24.56 S 173.50 30.72, 175.00 30.64 S 178.77 24.85, 180.00 23.99 S 183.72 22.93, 185.00 23.71 S 188.72 29.26, 190.00 30.04 S 194.20 28.58, 195.00 29.85 S 199.21 44.72, 200.00 46.00 S 203.50 46.00, 205.00 46.00"
        fill="none">
        <animate attributeName="stroke-dashoffset"
            from="348.38288057286087" to="0" dur="2.2s"/>
        <animate attributeName="stroke-dasharray"
            from="348.38288057286087" to="348.38288057286087"/>
    </path>
    <circle r="4" cx="5" cy="46" fill="#3023AE"/>
    <circle r="4" cx="205" cy="46" fill="#C86DD7" opacity="0">
        <animate attributeName="opacity"
            from="0" to="1" dur="0.1s" begin="2.2s" fill="freeze"/>
    </circle>
</svg>