<svg width="200" height="50" viewBox="0 0 210 50" xmlns="http://www.w3.org/2000/svg">
    <!-- 137 stargazers -->
    <!-- created at Thu Mar 26 2026 13:29:03 GMT+0000 (Coordinated Universal Time) -->
    <defs>
        <linearGradient id="stroke" x1="0%" y1="0%" x2="100%" y2="0%">
            <stop stop-color="#3023AE" offset="0%"/>
            <stop stop-color="#C86DD7" offset="100%"/>
        </linearGradient>
    </defs>
    <path stroke="url(#stroke)"
        stroke-width="3"
        stroke-linejoin="round"
        stroke-linecap="round"
        d="M5.00 46.0001 C 5.40 44.55, 9.18 29.10, 10.00 27.84 S 13.56 30.15, 15.00 30.57 S 18.67 31.46, 20.00 30.77 S 23.52 25.12, 25.00 25.39 S 28.62 32.01, 30.00 32.60 S 33.80 30.59, 35.00 29.69 S 38.97 26.13, 40.00 25.04 S 43.54 18.84, 45.00 19.18 S 48.94 26.32, 50.00 27.39 S 54.01 30.40, 55.00 29.27 S 58.60 16.55, 60.00 16.00 S 63.87 24.36, 65.00 25.34 S 68.67 24.01, 70.00 24.70 S 73.52 30.24, 75.00 30.50 S 78.51 26.62, 80.00 26.50 S 83.51 29.81, 85.00 29.66 S 88.98 26.59, 90.00 25.49 S 93.56 18.47, 95.00 18.90 S 98.52 28.21, 100.00 28.47 S 103.65 21.34, 105.00 20.68 S 108.54 23.26, 110.00 23.62 S 113.63 23.79, 115.00 23.18 S 118.63 19.76, 120.00 19.14 S 124.48 17.24, 125.00 18.65 S 128.79 45.11, 130.00 46.00 S 134.51 27.40, 135.00 25.98 S 138.50 17.31, 140.00 17.22 S 143.82 24.40, 145.00 25.32 S 148.69 24.27, 150.00 25.00 S 153.70 30.18, 155.00 30.93 S 159.03 31.85, 160.00 30.71 S 163.77 19.99, 165.00 19.13 S 168.99 22.65, 170.00 23.76 S 173.72 29.28, 175.00 30.06 S 179.20 28.58, 180.00 29.85 S 184.21 44.72, 185.00 46.00 S 189.51 47.42, 190.00 46.00 S 194.52 18.40, 195.00 16.98 S 198.65 15.99, 200.00 16.63 S 203.95 20.67, 205.00 21.75"
        fill="none">
        <animate attributeName="stroke-dashoffset"
            from="376.5619134724915" to="0" dur="2.2s"/>
        <animate attributeName="stroke-dasharray"
            from="376.5619134724915" to="376.5619134724915"/>
    </path>
    <circle r="4" cx="5" cy="46" fill="#3023AE"/>
    <circle r="4" cx="205" cy="21.74513890547726" fill="#C86DD7" opacity="0">
        <animate attributeName="opacity"
            from="0" to="1" dur="0.1s" begin="2.2s" fill="freeze"/>
    </circle>
</svg>