<svg width="200" height="50" viewBox="0 0 210 50" xmlns="http://www.w3.org/2000/svg">
    <!-- 139 stargazers -->
    <!-- created at Fri Apr 10 2026 15:06:17 GMT+0000 (Coordinated Universal Time) -->
    <defs>
        <linearGradient id="stroke" x1="0%" y1="0%" x2="100%" y2="0%">
            <stop stop-color="#3023AE" offset="0%"/>
            <stop stop-color="#C86DD7" offset="100%"/>
        </linearGradient>
    </defs>
    <path stroke="url(#stroke)"
        stroke-width="3"
        stroke-linejoin="round"
        stroke-linecap="round"
        d="M5.00 46.0001 C 5.38 44.55, 9.21 28.27, 10.00 27.00 S 13.52 29.62, 15.00 29.85 S 18.68 29.26, 20.00 28.54 S 23.58 23.95, 25.00 24.43 S 28.50 31.89, 30.00 31.99 S 33.71 25.87, 35.00 25.10 S 38.78 26.86, 40.00 25.98 S 43.57 17.49, 45.00 17.94 S 48.58 28.67, 50.00 29.14 S 53.87 22.23, 55.00 21.25 S 58.52 20.63, 60.00 20.37 S 64.15 18.29, 65.00 19.53 S 68.59 34.36, 70.00 34.86 S 73.69 23.79, 75.00 23.07 S 78.53 29.05, 80.00 29.34 S 83.99 26.18, 85.00 25.06 S 88.56 17.87, 90.00 18.30 S 93.51 28.26, 95.00 28.07 S 98.86 17.98, 100.00 17.01 S 103.69 18.78, 105.00 19.51 S 108.51 22.75, 110.00 22.59 S 113.59 17.92, 115.00 18.43 S 118.79 25.24, 120.00 26.13 S 123.68 26.47, 125.00 25.76 S 128.68 21.49, 130.00 20.78 S 133.60 19.80, 135.00 20.34 S 138.96 23.63, 140.00 24.71 S 143.70 29.95, 145.00 30.70 S 149.04 31.62, 150.00 30.46 S 154.05 19.84, 155.00 18.68 S 159.00 17.17, 160.00 18.29 S 164.49 28.36, 165.00 29.77 S 169.21 44.72, 170.00 46.00 S 174.51 47.42, 175.00 46.00 S 179.43 18.13, 180.00 16.74 S 183.50 21.92, 185.00 21.81 S 189.43 14.61, 190.00 16.00 S 194.05 44.84, 195.00 46.00 S 199.45 29.66, 200.00 28.26 S 204.18 21.88, 205.00 20.62"
        fill="none">
        <animate attributeName="stroke-dashoffset"
            from="401.65483492651106" to="0" dur="2.2s"/>
        <animate attributeName="stroke-dasharray"
            from="401.65483492651106" to="401.65483492651106"/>
    </path>
    <circle r="4" cx="5" cy="46" fill="#3023AE"/>
    <circle r="4" cx="205" cy="20.623510289397117" fill="#C86DD7" opacity="0">
        <animate attributeName="opacity"
            from="0" to="1" dur="0.1s" begin="2.2s" fill="freeze"/>
    </circle>
</svg>