<svg width="200" height="50" viewBox="0 0 210 50" xmlns="http://www.w3.org/2000/svg">
    <!-- 150 stargazers -->
    <!-- created at Sun May 17 2026 15:04:00 GMT+0000 (Coordinated Universal Time) -->
    <defs>
        <linearGradient id="stroke" x1="0%" y1="0%" x2="100%" y2="0%">
            <stop stop-color="#3023AE" offset="0%"/>
            <stop stop-color="#C86DD7" offset="100%"/>
        </linearGradient>
    </defs>
    <path stroke="url(#stroke)"
        stroke-width="3"
        stroke-linejoin="round"
        stroke-linecap="round"
        d="M5.00 46.0001 C 5.43 44.56, 9.06 30.32, 10.00 29.15 S 13.51 33.40, 15.00 33.54 S 18.70 30.80, 20.00 30.05 S 23.54 27.43, 25.00 27.76 S 28.51 32.44, 30.00 32.32 S 34.01 28.04, 35.00 26.91 S 38.68 20.18, 40.00 20.89 S 43.52 32.03, 45.00 32.30 S 48.78 23.59, 50.00 22.71 S 53.58 24.57, 55.00 25.07 S 58.55 25.83, 60.00 26.22 S 63.96 26.64, 65.00 27.72 S 68.51 36.74, 70.00 36.58 S 74.08 27.79, 75.00 26.61 S 78.51 23.88, 80.00 23.72 S 83.51 25.73, 85.00 25.56 S 88.53 22.30, 90.00 22.58 S 93.58 27.92, 95.00 27.43 S 98.55 18.75, 100.00 19.14 S 103.98 29.07, 105.00 30.16 S 109.07 31.01, 110.00 29.83 S 113.50 17.54, 115.00 17.44 S 119.22 27.92, 120.00 29.20 S 123.63 34.52, 125.00 33.90 S 128.92 25.71, 130.00 24.67 S 133.86 23.33, 135.00 24.31 S 138.87 32.28, 140.00 33.27 S 144.07 31.88, 145.00 33.06 S 149.12 47.21, 150.00 46.00 S 154.48 20.74, 155.00 19.33 S 159.47 17.53, 160.00 18.94 S 163.79 45.11, 165.00 46.00 S 169.33 27.67, 170.00 26.32 S 173.50 26.14, 175.00 26.06 S 178.68 25.08, 180.00 25.80 S 184.33 30.19, 185.00 31.53 S 188.74 46.82, 190.00 46.00 S 194.53 26.46, 195.00 25.04 S 198.70 15.25, 200.00 16.00 S 204.52 29.40, 205.00 30.83"
        fill="none">
        <animate attributeName="stroke-dashoffset"
            from="414.1539196705914" to="0" dur="2.2s"/>
        <animate attributeName="stroke-dasharray"
            from="414.1539196705914" to="414.1539196705914"/>
    </path>
    <circle r="4" cx="5" cy="46" fill="#3023AE"/>
    <circle r="4" cx="205" cy="30.82634534950447" fill="#C86DD7" opacity="0">
        <animate attributeName="opacity"
            from="0" to="1" dur="0.1s" begin="2.2s" fill="freeze"/>
    </circle>
</svg>