<svg width="200" height="50" viewBox="0 0 210 50" xmlns="http://www.w3.org/2000/svg">
    <!-- 143 stargazers -->
    <!-- created at Wed Apr 29 2026 07:58:03 GMT+0000 (Coordinated Universal Time) -->
    <defs>
        <linearGradient id="stroke" x1="0%" y1="0%" x2="100%" y2="0%">
            <stop stop-color="#3023AE" offset="0%"/>
            <stop stop-color="#C86DD7" offset="100%"/>
        </linearGradient>
    </defs>
    <path stroke="url(#stroke)"
        stroke-width="3"
        stroke-linejoin="round"
        stroke-linecap="round"
        d="M5.00 46.0001 C 5.38 44.55, 9.14 27.98, 10.00 26.75 S 13.54 31.41, 15.00 31.76 S 18.75 29.96, 20.00 29.14 S 23.50 25.26, 25.00 25.17 S 28.54 28.17, 30.00 28.52 S 33.93 28.62, 35.00 27.57 S 38.50 18.60, 40.00 18.66 S 43.86 26.96, 45.00 27.93 S 49.00 28.31, 50.00 27.19 S 53.71 17.48, 55.00 16.71 S 59.15 20.01, 60.00 21.25 S 63.57 30.78, 65.00 31.24 S 68.51 24.61, 70.00 24.48 S 73.52 30.07, 75.00 30.34 S 78.96 27.37, 80.00 26.29 S 83.51 20.04, 85.00 19.89 S 88.60 25.82, 90.00 25.28 S 93.51 16.14, 95.00 16.00 S 98.63 23.70, 100.00 24.31 S 103.63 21.02, 105.00 20.41 S 109.45 18.49, 110.00 19.88 S 113.51 46.15, 115.00 46.00 S 119.49 20.27, 120.00 18.86 S 123.79 17.48, 125.00 18.36 S 128.79 25.21, 130.00 26.11 S 133.50 25.87, 135.00 25.77 S 138.68 26.14, 140.00 25.43 S 143.69 19.68, 145.00 20.40 S 148.96 29.91, 150.00 30.99 S 154.17 29.52, 155.00 30.77 S 158.77 46.85, 160.00 46.00 S 164.49 25.24, 165.00 23.83 S 168.70 19.22, 170.00 18.47 S 174.49 16.69, 175.00 18.10 S 178.50 46.11, 180.00 46.00 S 184.23 18.67, 185.00 17.38 S 188.64 28.63, 190.00 29.27 S 193.50 22.11, 195.00 22.05 S 199.42 27.48, 200.00 28.87 S 204.58 44.56, 205.00 46.00"
        fill="none">
        <animate attributeName="stroke-dashoffset"
            from="441.3769259165106" to="0" dur="2.2s"/>
        <animate attributeName="stroke-dasharray"
            from="441.3769259165106" to="441.3769259165106"/>
    </path>
    <circle r="4" cx="5" cy="46" fill="#3023AE"/>
    <circle r="4" cx="205" cy="46" fill="#C86DD7" opacity="0">
        <animate attributeName="opacity"
            from="0" to="1" dur="0.1s" begin="2.2s" fill="freeze"/>
    </circle>
</svg>