<svg width="200" height="50" viewBox="0 0 210 50" xmlns="http://www.w3.org/2000/svg">
    <!-- 134 stargazers -->
    <!-- created at Fri Mar 20 2026 12:39:17 GMT+0000 (Coordinated Universal Time) -->
    <defs>
        <linearGradient id="stroke" x1="0%" y1="0%" x2="100%" y2="0%">
            <stop stop-color="#3023AE" offset="0%"/>
            <stop stop-color="#C86DD7" offset="100%"/>
        </linearGradient>
    </defs>
    <path stroke="url(#stroke)"
        stroke-width="3"
        stroke-linejoin="round"
        stroke-linecap="round"
        d="M5.00 46.0001 C 5.39 44.55, 9.20 28.71, 10.00 27.45 S 13.56 29.80, 15.00 30.23 S 18.67 31.14, 20.00 30.44 S 23.53 24.67, 25.00 24.94 S 28.75 31.49, 30.00 32.32 S 33.91 32.60, 35.00 31.57 S 39.01 24.00, 40.00 22.87 S 43.61 19.60, 45.00 20.17 S 48.72 26.21, 50.00 26.99 S 53.93 27.32, 55.00 26.26 S 58.52 16.89, 60.00 17.11 S 63.64 27.10, 65.00 27.72 S 68.54 21.32, 70.00 21.68 S 73.51 29.97, 75.00 30.17 S 78.61 22.43, 80.00 22.99 S 83.51 34.37, 85.00 34.20 S 88.92 22.85, 90.00 21.81 S 93.51 24.72, 95.00 24.56 S 98.57 20.23, 100.00 20.68 S 103.62 28.29, 105.00 27.71 S 108.50 16.60, 110.00 16.48 S 113.70 26.21, 115.00 26.96 S 118.88 23.24, 120.00 22.24 S 123.59 17.54, 125.00 18.06 S 129.49 24.48, 130.00 25.89 S 133.68 46.71, 135.00 46.00 S 139.52 21.96, 140.00 20.53 S 143.95 15.05, 145.00 16.12 S 148.83 29.89, 150.00 30.83 S 153.50 24.29, 155.00 24.22 S 158.71 29.61, 160.00 30.38 S 164.05 31.31, 165.00 30.15 S 168.78 19.05, 170.00 18.17 S 174.01 21.85, 175.00 22.98 S 178.73 28.70, 180.00 29.51 S 184.22 28.01, 185.00 29.30 S 189.23 44.71, 190.00 46.00 S 194.53 47.42, 195.00 46.00 S 199.44 17.39, 200.00 16.00 S 203.96 20.14, 205.00 21.22"
        fill="none">
        <animate attributeName="stroke-dashoffset"
            from="413.76584736807376" to="0" dur="2.2s"/>
        <animate attributeName="stroke-dasharray"
            from="413.76584736807376" to="413.76584736807376"/>
    </path>
    <circle r="4" cx="5" cy="46" fill="#3023AE"/>
    <circle r="4" cx="205" cy="21.221525715372813" fill="#C86DD7" opacity="0">
        <animate attributeName="opacity"
            from="0" to="1" dur="0.1s" begin="2.2s" fill="freeze"/>
    </circle>
</svg>