<svg width="200" height="50" viewBox="0 0 210 50" xmlns="http://www.w3.org/2000/svg">
    <!-- 142 stargazers -->
    <!-- created at Fri Apr 17 2026 05:37:15 GMT+0000 (Coordinated Universal Time) -->
    <defs>
        <linearGradient id="stroke" x1="0%" y1="0%" x2="100%" y2="0%">
            <stop stop-color="#3023AE" offset="0%"/>
            <stop stop-color="#C86DD7" offset="100%"/>
        </linearGradient>
    </defs>
    <path stroke="url(#stroke)"
        stroke-width="3"
        stroke-linejoin="round"
        stroke-linecap="round"
        d="M5.00 46.0001 C 5.37 44.55, 9.15 27.52, 10.00 26.28 S 13.54 31.06, 15.00 31.41 S 18.76 29.56, 20.00 28.73 S 23.58 24.18, 25.00 24.66 S 28.50 32.03, 30.00 32.13 S 34.13 26.54, 35.00 25.32 S 38.50 17.99, 40.00 17.99 S 44.01 24.18, 45.00 25.31 S 48.90 30.33, 50.00 29.31 S 53.61 16.56, 55.00 16.00 S 58.72 24.51, 60.00 25.29 S 63.92 21.04, 65.00 22.09 S 68.62 34.39, 70.00 34.98 S 74.05 27.51, 75.00 26.35 S 78.62 23.28, 80.00 22.69 S 83.51 22.26, 85.00 22.08 S 88.72 20.70, 90.00 21.49 S 93.62 28.83, 95.00 28.26 S 98.66 17.98, 100.00 17.31 S 103.53 23.02, 105.00 23.30 S 108.64 19.87, 110.00 19.25 S 114.47 17.31, 115.00 18.72 S 118.51 46.15, 120.00 46.00 S 124.51 19.10, 125.00 17.68 S 128.81 16.27, 130.00 17.18 S 134.51 23.86, 135.00 25.27 S 138.50 46.10, 140.00 46.00 S 144.47 26.00, 145.00 24.59 S 148.69 20.11, 150.00 19.37 S 153.98 17.87, 155.00 18.97 S 159.48 28.76, 160.00 30.17 S 164.20 44.73, 165.00 46.00 S 169.50 47.42, 170.00 46.00 S 174.42 18.80, 175.00 17.42 S 178.50 22.47, 180.00 22.36 S 184.42 15.30, 185.00 16.68 S 188.65 45.35, 190.00 46.00 S 194.44 22.86, 195.00 21.47 S 198.50 21.26, 200.00 21.18 S 203.50 20.98, 205.00 20.89"
        fill="none">
        <animate attributeName="stroke-dashoffset"
            from="468.3142667851118" to="0" dur="2.2s"/>
        <animate attributeName="stroke-dasharray"
            from="468.3142667851118" to="468.3142667851118"/>
    </path>
    <circle r="4" cx="5" cy="46" fill="#3023AE"/>
    <circle r="4" cx="205" cy="20.88980292307439" fill="#C86DD7" opacity="0">
        <animate attributeName="opacity"
            from="0" to="1" dur="0.1s" begin="2.2s" fill="freeze"/>
    </circle>
</svg>