<svg width="200" height="50" viewBox="0 0 210 50" xmlns="http://www.w3.org/2000/svg">
    <!-- 27 stargazers -->
    <!-- created at Thu Apr 23 2026 00:57:23 GMT+0000 (Coordinated Universal Time) -->
    <defs>
        <linearGradient id="stroke" x1="0%" y1="0%" x2="100%" y2="0%">
            <stop stop-color="#3023AE" offset="0%"/>
            <stop stop-color="#C86DD7" offset="100%"/>
        </linearGradient>
    </defs>
    <path stroke="url(#stroke)"
        stroke-width="3"
        stroke-linejoin="round"
        stroke-linecap="round"
        d="M5.00 46.0001 C 5.25 44.52, 8.50 16.00, 10.00 16.00 S 14.53 44.58, 15.00 46.00 S 18.50 46.00, 20.00 46.00 S 23.90 47.02, 25.00 46.00 S 28.50 36.73, 30.00 36.73 S 33.67 46.70, 35.00 46.00 S 38.50 31.50, 40.00 31.50 S 44.15 44.77, 45.00 46.00 S 49.02 47.14, 50.00 46.00 S 54.04 35.58, 55.00 34.42 S 59.02 32.88, 60.00 34.02 S 64.04 44.85, 65.00 46.00 S 68.50 46.00, 70.00 46.00 S 74.11 47.21, 75.00 46.00 S 78.50 32.51, 80.00 32.51 S 84.11 44.79, 85.00 46.00 S 88.50 46.00, 90.00 46.00 S 93.50 46.00, 95.00 46.00 S 98.50 46.00, 100.00 46.00 S 103.50 46.00, 105.00 46.00 S 108.50 46.00, 110.00 46.00 S 113.50 46.00, 115.00 46.00 S 118.50 46.00, 120.00 46.00 S 123.50 46.00, 125.00 46.00 S 129.24 47.29, 130.00 46.00 S 134.25 30.33, 135.00 29.03 S 139.24 27.46, 140.00 28.75 S 144.25 44.70, 145.00 46.00 S 148.50 46.00, 150.00 46.00 S 153.50 46.00, 155.00 46.00 S 158.50 46.00, 160.00 46.00 S 163.50 46.00, 165.00 46.00 S 168.50 46.00, 170.00 46.00 S 173.50 46.00, 175.00 46.00 S 178.50 46.00, 180.00 46.00 S 183.50 46.00, 185.00 46.00 S 188.50 46.00, 190.00 46.00 S 193.50 46.00, 195.00 46.00 S 198.50 46.00, 200.00 46.00 S 203.50 46.00, 205.00 46.00"
        fill="none">
        <animate attributeName="stroke-dashoffset"
            from="347.14187406624666" to="0" dur="2.2s"/>
        <animate attributeName="stroke-dasharray"
            from="347.14187406624666" to="347.14187406624666"/>
    </path>
    <circle r="4" cx="5" cy="46" fill="#3023AE"/>
    <circle r="4" cx="205" cy="46" fill="#C86DD7" opacity="0">
        <animate attributeName="opacity"
            from="0" to="1" dur="0.1s" begin="2.2s" fill="freeze"/>
    </circle>
</svg>