<svg width="200" height="50" viewBox="0 0 210 50" xmlns="http://www.w3.org/2000/svg">
    <!-- 27 stargazers -->
    <!-- created at Wed Mar 11 2026 10:27:54 GMT+0000 (Coordinated Universal Time) -->
    <defs>
        <linearGradient id="stroke" x1="0%" y1="0%" x2="100%" y2="0%">
            <stop stop-color="#3023AE" offset="0%"/>
            <stop stop-color="#C86DD7" offset="100%"/>
        </linearGradient>
    </defs>
    <path stroke="url(#stroke)"
        stroke-width="3"
        stroke-linejoin="round"
        stroke-linecap="round"
        d="M5.00 46.0001 C 5.25 44.52, 8.81 16.92, 10.00 16.00 S 14.53 36.82, 15.00 38.24 S 18.81 45.08, 20.00 46.00 S 23.91 47.03, 25.00 46.00 S 28.50 36.48, 30.00 36.48 S 33.91 44.97, 35.00 46.00 S 39.19 47.26, 40.00 46.00 S 43.50 30.44, 45.00 30.44 S 49.19 44.74, 50.00 46.00 S 54.05 47.16, 55.00 46.00 S 59.07 34.87, 60.00 33.69 S 64.05 32.12, 65.00 33.28 S 69.07 44.82, 70.00 46.00 S 73.50 46.00, 75.00 46.00 S 78.50 46.00, 80.00 46.00 S 84.15 47.24, 85.00 46.00 S 88.50 31.42, 90.00 31.42 S 94.15 44.76, 95.00 46.00 S 98.50 46.00, 100.00 46.00 S 103.50 46.00, 105.00 46.00 S 108.50 46.00, 110.00 46.00 S 113.50 46.00, 115.00 46.00 S 118.50 46.00, 120.00 46.00 S 123.50 46.00, 125.00 46.00 S 128.50 46.00, 130.00 46.00 S 133.50 46.00, 135.00 46.00 S 138.50 46.00, 140.00 46.00 S 143.50 46.00, 145.00 46.00 S 149.29 47.32, 150.00 46.00 S 153.50 27.44, 155.00 27.44 S 158.50 46.08, 160.00 46.00 S 163.50 26.90, 165.00 26.90 S 169.30 44.67, 170.00 46.00 S 173.50 46.00, 175.00 46.00 S 178.50 46.00, 180.00 46.00 S 183.50 46.00, 185.00 46.00 S 188.50 46.00, 190.00 46.00 S 193.50 46.00, 195.00 46.00 S 198.50 46.00, 200.00 46.00 S 203.50 46.00, 205.00 46.00"
        fill="none">
        <animate attributeName="stroke-dashoffset"
            from="382.2960548860745" to="0" dur="2.2s"/>
        <animate attributeName="stroke-dasharray"
            from="382.2960548860745" to="382.2960548860745"/>
    </path>
    <circle r="4" cx="5" cy="46" fill="#3023AE"/>
    <circle r="4" cx="205" cy="46" fill="#C86DD7" opacity="0">
        <animate attributeName="opacity"
            from="0" to="1" dur="0.1s" begin="2.2s" fill="freeze"/>
    </circle>
</svg>