<svg width="200" height="50" viewBox="0 0 210 50" xmlns="http://www.w3.org/2000/svg">
    <!-- 36 stargazers -->
    <!-- created at Thu Apr 02 2026 18:54:19 GMT+0000 (Coordinated Universal Time) -->
    <defs>
        <linearGradient id="stroke" x1="0%" y1="0%" x2="100%" y2="0%">
            <stop stop-color="#3023AE" offset="0%"/>
            <stop stop-color="#C86DD7" offset="100%"/>
        </linearGradient>
    </defs>
    <path stroke="url(#stroke)"
        stroke-width="3"
        stroke-linejoin="round"
        stroke-linecap="round"
        d="M5.00 46.0001 C 5.62 44.63, 9.05 36.05, 10.00 34.89 S 13.52 33.54, 15.00 33.81 S 18.53 36.96, 20.00 36.68 S 23.69 32.64, 25.00 31.90 S 28.56 30.61, 30.00 31.04 S 33.85 35.81, 35.00 34.84 S 39.10 23.79, 40.00 22.59 S 43.97 20.44, 45.00 21.54 S 48.52 33.03, 50.00 33.27 S 54.07 21.93, 55.00 23.11 S 58.52 46.24, 60.00 46.00 S 63.50 21.52, 65.00 21.52 S 69.43 44.61, 70.00 46.00 S 73.50 46.00, 75.00 46.00 S 79.20 47.27, 80.00 46.00 S 83.50 30.19, 85.00 30.19 S 89.20 44.73, 90.00 46.00 S 94.24 47.29, 95.00 46.00 S 99.53 30.47, 100.00 29.05 S 103.50 16.11, 105.00 16.00 S 109.53 26.90, 110.00 28.32 S 113.85 46.96, 115.00 46.00 S 118.50 20.02, 120.00 20.02 S 124.46 44.60, 125.00 46.00 S 128.50 46.00, 130.00 46.00 S 133.50 46.00, 135.00 46.00 S 138.50 46.00, 140.00 46.00 S 143.50 46.00, 145.00 46.00 S 148.50 46.00, 150.00 46.00 S 153.50 46.00, 155.00 46.00 S 159.36 47.36, 160.00 46.00 S 163.50 24.78, 165.00 24.78 S 169.36 44.64, 170.00 46.00 S 174.38 47.37, 175.00 46.00 S 178.50 23.91, 180.00 23.91 S 183.50 46.08, 185.00 46.00 S 188.50 23.35, 190.00 23.35 S 194.39 44.63, 195.00 46.00 S 198.50 46.00, 200.00 46.00 S 203.50 46.00, 205.00 46.00"
        fill="none">
        <animate attributeName="stroke-dashoffset"
            from="513.9913990979701" to="0" dur="2.2s"/>
        <animate attributeName="stroke-dasharray"
            from="513.9913990979701" to="513.9913990979701"/>
    </path>
    <circle r="4" cx="5" cy="46" fill="#3023AE"/>
    <circle r="4" cx="205" cy="46" fill="#C86DD7" opacity="0">
        <animate attributeName="opacity"
            from="0" to="1" dur="0.1s" begin="2.2s" fill="freeze"/>
    </circle>
</svg>