<svg width="200" height="50" viewBox="0 0 210 50" xmlns="http://www.w3.org/2000/svg">
    <!-- 39 stargazers -->
    <!-- created at Sun May 17 2026 16:16:33 GMT+0000 (Coordinated Universal Time) -->
    <defs>
        <linearGradient id="stroke" x1="0%" y1="0%" x2="100%" y2="0%">
            <stop stop-color="#3023AE" offset="0%"/>
            <stop stop-color="#C86DD7" offset="100%"/>
        </linearGradient>
    </defs>
    <path stroke="url(#stroke)"
        stroke-width="3"
        stroke-linejoin="round"
        stroke-linecap="round"
        d="M5.00 46.0001 C 5.78 44.72, 8.88 38.80, 10.00 37.80 S 13.51 36.80, 15.00 37.00 S 18.51 39.33, 20.00 39.12 S 23.62 36.17, 25.00 35.59 S 28.72 35.73, 30.00 34.95 S 33.54 29.18, 35.00 29.53 S 38.59 37.88, 40.00 37.36 S 43.87 24.83, 45.00 25.81 S 48.58 45.53, 50.00 46.00 S 53.94 30.17, 55.00 29.10 S 58.53 35.59, 60.00 35.90 S 63.94 30.18, 65.00 31.25 S 69.16 44.76, 70.00 46.00 S 74.01 47.13, 75.00 46.00 S 78.50 34.63, 80.00 34.63 S 84.01 44.87, 85.00 46.00 S 89.05 47.16, 90.00 46.00 S 94.37 35.12, 95.00 33.76 S 98.50 24.41, 100.00 24.32 S 103.86 32.24, 105.00 33.22 S 108.50 33.03, 110.00 32.95 S 114.09 31.50, 115.00 32.69 S 119.10 44.80, 120.00 46.00 S 123.50 46.00, 125.00 46.00 S 128.50 46.00, 130.00 46.00 S 133.50 46.00, 135.00 46.00 S 138.50 46.00, 140.00 46.00 S 143.50 46.00, 145.00 46.00 S 149.18 47.25, 150.00 46.00 S 153.50 30.78, 155.00 30.78 S 159.18 44.75, 160.00 46.00 S 164.20 47.27, 165.00 46.00 S 168.50 30.12, 170.00 30.12 S 173.50 46.06, 175.00 46.00 S 178.50 29.69, 180.00 29.69 S 184.22 44.72, 185.00 46.00 S 188.50 46.00, 190.00 46.00 S 193.50 46.00, 195.00 46.00 S 199.53 47.42, 200.00 46.00 S 204.75 17.48, 205.00 16.00"
        fill="none">
        <animate attributeName="stroke-dashoffset"
            from="409.67220718214736" to="0" dur="2.2s"/>
        <animate attributeName="stroke-dasharray"
            from="409.67220718214736" to="409.67220718214736"/>
    </path>
    <circle r="4" cx="5" cy="46" fill="#3023AE"/>
    <circle r="4" cx="205" cy="16" fill="#C86DD7" opacity="0">
        <animate attributeName="opacity"
            from="0" to="1" dur="0.1s" begin="2.2s" fill="freeze"/>
    </circle>
</svg>