<svg width="200" height="50" viewBox="0 0 210 50" xmlns="http://www.w3.org/2000/svg">
    <!-- 36 stargazers -->
    <!-- created at Tue Apr 14 2026 04:24:55 GMT+0000 (Coordinated Universal Time) -->
    <defs>
        <linearGradient id="stroke" x1="0%" y1="0%" x2="100%" y2="0%">
            <stop stop-color="#3023AE" offset="0%"/>
            <stop stop-color="#C86DD7" offset="100%"/>
        </linearGradient>
    </defs>
    <path stroke="url(#stroke)"
        stroke-width="3"
        stroke-linejoin="round"
        stroke-linecap="round"
        d="M5.00 46.0001 C 5.60 44.63, 9.06 35.82, 10.00 34.65 S 13.52 33.28, 15.00 33.55 S 18.53 36.77, 20.00 36.48 S 23.70 32.34, 25.00 31.59 S 28.56 30.28, 30.00 30.71 S 33.86 35.58, 35.00 34.60 S 39.11 23.29, 40.00 22.08 S 43.99 19.91, 45.00 21.01 S 48.52 32.76, 50.00 32.99 S 54.09 21.43, 55.00 22.62 S 58.52 46.24, 60.00 46.00 S 63.50 20.99, 65.00 20.99 S 69.44 44.61, 70.00 46.00 S 73.50 46.00, 75.00 46.00 S 79.21 47.28, 80.00 46.00 S 83.50 29.85, 85.00 29.85 S 89.21 44.72, 90.00 46.00 S 94.53 47.42, 95.00 46.00 S 99.26 17.31, 100.00 16.00 S 104.04 27.16, 105.00 28.31 S 108.85 28.90, 110.00 27.94 S 114.27 18.64, 115.00 19.95 S 119.46 44.60, 120.00 46.00 S 123.50 46.00, 125.00 46.00 S 128.50 46.00, 130.00 46.00 S 133.50 46.00, 135.00 46.00 S 138.50 46.00, 140.00 46.00 S 143.50 46.00, 145.00 46.00 S 148.50 46.00, 150.00 46.00 S 154.36 47.36, 155.00 46.00 S 158.50 24.62, 160.00 24.62 S 164.36 44.64, 165.00 46.00 S 169.39 47.37, 170.00 46.00 S 173.50 23.72, 175.00 23.72 S 178.50 46.09, 180.00 46.00 S 183.50 23.15, 185.00 23.15 S 189.40 44.63, 190.00 46.00 S 193.50 46.00, 195.00 46.00 S 198.50 46.00, 200.00 46.00 S 203.50 46.00, 205.00 46.00"
        fill="none">
        <animate attributeName="stroke-dashoffset"
            from="491.9988858684064" to="0" dur="2.2s"/>
        <animate attributeName="stroke-dasharray"
            from="491.9988858684064" to="491.9988858684064"/>
    </path>
    <circle r="4" cx="5" cy="46" fill="#3023AE"/>
    <circle r="4" cx="205" cy="46" fill="#C86DD7" opacity="0">
        <animate attributeName="opacity"
            from="0" to="1" dur="0.1s" begin="2.2s" fill="freeze"/>
    </circle>
</svg>