<svg width="200" height="50" viewBox="0 0 210 50" xmlns="http://www.w3.org/2000/svg">
    <!-- 37 stargazers -->
    <!-- created at Sun May 10 2026 11:19:14 GMT+0000 (Coordinated Universal Time) -->
    <defs>
        <linearGradient id="stroke" x1="0%" y1="0%" x2="100%" y2="0%">
            <stop stop-color="#3023AE" offset="0%"/>
            <stop stop-color="#C86DD7" offset="100%"/>
        </linearGradient>
    </defs>
    <path stroke="url(#stroke)"
        stroke-width="3"
        stroke-linejoin="round"
        stroke-linecap="round"
        d="M5.00 46.0001 C 5.54 44.60, 9.14 34.16, 10.00 32.93 S 13.53 31.35, 15.00 31.66 S 18.54 35.36, 20.00 35.03 S 23.75 30.24, 25.00 29.41 S 28.58 27.90, 30.00 28.39 S 33.94 33.93, 35.00 32.87 S 39.19 19.72, 40.00 18.45 S 44.07 16.05, 45.00 17.22 S 48.52 30.75, 50.00 31.02 S 54.17 17.82, 55.00 19.07 S 58.53 46.28, 60.00 46.00 S 63.50 17.20, 65.00 17.20 S 69.51 44.58, 70.00 46.00 S 74.28 47.31, 75.00 46.00 S 78.50 27.87, 80.00 27.87 S 84.28 44.69, 85.00 46.00 S 89.32 47.33, 90.00 46.00 S 94.50 27.90, 95.00 26.49 S 98.90 18.81, 100.00 17.79 S 104.50 15.77, 105.00 17.18 S 108.51 46.18, 110.00 46.00 S 113.50 16.00, 115.00 16.00 S 119.53 44.58, 120.00 46.00 S 123.50 46.00, 125.00 46.00 S 128.50 46.00, 130.00 46.00 S 133.50 46.00, 135.00 46.00 S 138.50 46.00, 140.00 46.00 S 143.50 46.00, 145.00 46.00 S 149.43 47.39, 150.00 46.00 S 153.50 21.74, 155.00 21.74 S 159.43 44.61, 160.00 46.00 S 164.45 47.40, 165.00 46.00 S 168.50 20.69, 170.00 20.69 S 173.50 46.10, 175.00 46.00 S 178.50 20.01, 180.00 20.01 S 184.46 44.60, 185.00 46.00 S 188.50 46.00, 190.00 46.00 S 193.50 46.00, 195.00 46.00 S 199.49 47.41, 200.00 46.00 S 204.73 19.87, 205.00 18.39"
        fill="none">
        <animate attributeName="stroke-dashoffset"
            from="591.4139561327466" to="0" dur="2.2s"/>
        <animate attributeName="stroke-dasharray"
            from="591.4139561327466" to="591.4139561327466"/>
    </path>
    <circle r="4" cx="5" cy="46" fill="#3023AE"/>
    <circle r="4" cx="205" cy="18.39081575059449" fill="#C86DD7" opacity="0">
        <animate attributeName="opacity"
            from="0" to="1" dur="0.1s" begin="2.2s" fill="freeze"/>
    </circle>
</svg>