<svg width="200" height="50" viewBox="0 0 210 50" xmlns="http://www.w3.org/2000/svg">
    <!-- 36 stargazers -->
    <!-- created at Wed Mar 25 2026 03:41:14 GMT+0000 (Coordinated Universal Time) -->
    <defs>
        <linearGradient id="stroke" x1="0%" y1="0%" x2="100%" y2="0%">
            <stop stop-color="#3023AE" offset="0%"/>
            <stop stop-color="#C86DD7" offset="100%"/>
        </linearGradient>
    </defs>
    <path stroke="url(#stroke)"
        stroke-width="3"
        stroke-linejoin="round"
        stroke-linecap="round"
        d="M5.00 46.0001 C 5.54 44.60, 9.13 34.39, 10.00 33.17 S 13.53 31.62, 15.00 31.92 S 18.54 35.56, 20.00 35.24 S 23.74 30.54, 25.00 29.72 S 28.58 28.24, 30.00 28.72 S 33.93 34.16, 35.00 33.12 S 39.18 20.23, 40.00 18.97 S 44.06 16.59, 45.00 17.76 S 48.75 30.47, 50.00 31.30 S 53.51 24.59, 55.00 24.42 S 58.75 31.04, 60.00 30.20 S 64.20 16.47, 65.00 17.74 S 69.50 44.59, 70.00 46.00 S 73.50 46.00, 75.00 46.00 S 79.28 47.32, 80.00 46.00 S 83.50 27.75, 85.00 27.75 S 89.28 44.68, 90.00 46.00 S 94.32 47.34, 95.00 46.00 S 99.50 27.84, 100.00 26.43 S 103.90 18.74, 105.00 17.72 S 109.50 15.72, 110.00 17.14 S 113.51 46.17, 115.00 46.00 S 118.50 16.00, 120.00 16.00 S 124.53 44.58, 125.00 46.00 S 128.50 46.00, 130.00 46.00 S 133.50 46.00, 135.00 46.00 S 138.50 46.00, 140.00 46.00 S 143.50 46.00, 145.00 46.00 S 148.50 46.00, 150.00 46.00 S 153.50 46.00, 155.00 46.00 S 159.43 47.39, 160.00 46.00 S 163.50 21.50, 165.00 21.50 S 169.43 44.61, 170.00 46.00 S 174.45 47.40, 175.00 46.00 S 178.50 20.50, 180.00 20.50 S 183.50 46.10, 185.00 46.00 S 188.50 19.85, 190.00 19.85 S 194.46 44.60, 195.00 46.00 S 198.50 46.00, 200.00 46.00 S 203.50 46.00, 205.00 46.00"
        fill="none">
        <animate attributeName="stroke-dashoffset"
            from="528.0607483222545" to="0" dur="2.2s"/>
        <animate attributeName="stroke-dasharray"
            from="528.0607483222545" to="528.0607483222545"/>
    </path>
    <circle r="4" cx="5" cy="46" fill="#3023AE"/>
    <circle r="4" cx="205" cy="46" fill="#C86DD7" opacity="0">
        <animate attributeName="opacity"
            from="0" to="1" dur="0.1s" begin="2.2s" fill="freeze"/>
    </circle>
</svg>