<svg width="200" height="50" viewBox="0 0 210 50" xmlns="http://www.w3.org/2000/svg">
    <!-- 36 stargazers -->
    <!-- created at Tue Apr 07 2026 15:13:12 GMT+0000 (Coordinated Universal Time) -->
    <defs>
        <linearGradient id="stroke" x1="0%" y1="0%" x2="100%" y2="0%">
            <stop stop-color="#3023AE" offset="0%"/>
            <stop stop-color="#C86DD7" offset="100%"/>
        </linearGradient>
    </defs>
    <path stroke="url(#stroke)"
        stroke-width="3"
        stroke-linejoin="round"
        stroke-linecap="round"
        d="M5.00 46.0001 C 5.52 44.59, 9.17 33.64, 10.00 32.39 S 13.53 30.75, 15.00 31.07 S 18.54 34.93, 20.00 34.58 S 23.77 29.58, 25.00 28.73 S 28.59 27.16, 30.00 27.67 S 33.96 33.41, 35.00 32.33 S 39.22 18.60, 40.00 17.32 S 44.09 14.85, 45.00 16.04 S 48.53 30.12, 50.00 30.41 S 54.19 16.70, 55.00 17.96 S 58.53 46.29, 60.00 46.00 S 63.50 16.02, 65.00 16.02 S 69.53 44.58, 70.00 46.00 S 73.50 46.00, 75.00 46.00 S 79.31 47.33, 80.00 46.00 S 83.50 26.64, 85.00 26.64 S 89.31 44.67, 90.00 46.00 S 94.52 47.42, 95.00 46.00 S 99.53 18.06, 100.00 16.63 S 103.81 15.08, 105.00 16.00 S 108.82 23.42, 110.00 24.35 S 113.51 24.05, 115.00 23.92 S 119.38 22.13, 120.00 23.50 S 124.39 44.63, 125.00 46.00 S 128.50 46.00, 130.00 46.00 S 133.50 46.00, 135.00 46.00 S 138.50 46.00, 140.00 46.00 S 143.50 46.00, 145.00 46.00 S 148.50 46.00, 150.00 46.00 S 153.50 46.00, 155.00 46.00 S 159.46 47.40, 160.00 46.00 S 163.50 20.01, 165.00 20.01 S 169.46 44.60, 170.00 46.00 S 174.48 47.41, 175.00 46.00 S 179.49 20.35, 180.00 18.95 S 184.48 17.19, 185.00 18.60 S 189.49 44.59, 190.00 46.00 S 193.50 46.00, 195.00 46.00 S 198.50 46.00, 200.00 46.00 S 203.50 46.00, 205.00 46.00"
        fill="none">
        <animate attributeName="stroke-dashoffset"
            from="492.910339365586" to="0" dur="2.2s"/>
        <animate attributeName="stroke-dasharray"
            from="492.910339365586" to="492.910339365586"/>
    </path>
    <circle r="4" cx="5" cy="46" fill="#3023AE"/>
    <circle r="4" cx="205" cy="46" fill="#C86DD7" opacity="0">
        <animate attributeName="opacity"
            from="0" to="1" dur="0.1s" begin="2.2s" fill="freeze"/>
    </circle>
</svg>