<svg width="200" height="50" viewBox="0 0 210 50" xmlns="http://www.w3.org/2000/svg">
    <!-- 150 stargazers -->
    <!-- created at Thu Mar 19 2026 15:00:09 GMT+0000 (Coordinated Universal Time) -->
    <defs>
        <linearGradient id="stroke" x1="0%" y1="0%" x2="100%" y2="0%">
            <stop stop-color="#3023AE" offset="0%"/>
            <stop stop-color="#C86DD7" offset="100%"/>
        </linearGradient>
    </defs>
    <path stroke="url(#stroke)"
        stroke-width="3"
        stroke-linejoin="round"
        stroke-linecap="round"
        d="M5.00 46.0001 C 5.62 44.63, 9.08 36.08, 10.00 34.89 S 13.53 33.38, 15.00 33.07 S 18.52 32.56, 20.00 32.82 S 23.50 34.98, 25.00 34.86 S 28.50 32.01, 30.00 32.01 S 33.51 34.71, 35.00 34.85 S 38.66 33.59, 40.00 32.92 S 43.50 29.77, 45.00 29.83 S 48.64 32.63, 50.00 33.27 S 53.61 35.12, 55.00 34.56 S 58.50 29.37, 60.00 29.25 S 63.53 33.45, 65.00 33.77 S 68.50 31.55, 70.00 31.44 S 73.70 33.77, 75.00 33.02 S 78.91 26.65, 80.00 25.63 S 83.62 23.08, 85.00 23.65 S 89.13 28.59, 90.00 29.81 S 93.64 38.34, 95.00 37.71 S 98.75 26.08, 100.00 25.24 S 104.04 29.86, 105.00 31.01 S 108.67 37.85, 110.00 37.16 S 113.78 26.72, 115.00 25.85 S 118.52 29.88, 120.00 30.09 S 123.74 26.49, 125.00 27.30 S 128.56 36.91, 130.00 36.48 S 133.91 23.32, 135.00 24.35 S 139.02 44.86, 140.00 46.00 S 144.26 37.31, 145.00 36.00 S 148.64 29.04, 150.00 28.41 S 153.78 30.55, 155.00 31.42 S 159.18 36.80, 160.00 35.54 S 163.50 16.04, 165.00 16.00 S 169.53 33.82, 170.00 35.25 S 173.98 44.90, 175.00 46.00 S 179.20 47.27, 180.00 46.00 S 184.39 31.56, 185.00 30.19 S 188.61 23.92, 190.00 23.36 S 194.39 24.78, 195.00 26.15 S 198.84 45.05, 200.00 46.00 S 204.41 35.65, 205.00 34.27"
        fill="none">
        <animate attributeName="stroke-dashoffset"
            from="377.46842663015246" to="0" dur="2.2s"/>
        <animate attributeName="stroke-dasharray"
            from="377.46842663015246" to="377.46842663015246"/>
    </path>
    <circle r="4" cx="5" cy="46" fill="#3023AE"/>
    <circle r="4" cx="205" cy="34.272187916474216" fill="#C86DD7" opacity="0">
        <animate attributeName="opacity"
            from="0" to="1" dur="0.1s" begin="2.2s" fill="freeze"/>
    </circle>
</svg>