<svg width="200" height="50" viewBox="0 0 210 50" xmlns="http://www.w3.org/2000/svg">
    <!-- 150 stargazers -->
    <!-- created at Sun Mar 29 2026 14:23:47 GMT+0000 (Coordinated Universal Time) -->
    <defs>
        <linearGradient id="stroke" x1="0%" y1="0%" x2="100%" y2="0%">
            <stop stop-color="#3023AE" offset="0%"/>
            <stop stop-color="#C86DD7" offset="100%"/>
        </linearGradient>
    </defs>
    <path stroke="url(#stroke)"
        stroke-width="3"
        stroke-linejoin="round"
        stroke-linecap="round"
        d="M5.00 46.0001 C 5.61 44.63, 9.08 36.06, 10.00 34.87 S 13.53 33.36, 15.00 33.05 S 18.52 32.54, 20.00 32.80 S 23.50 34.96, 25.00 34.84 S 28.50 31.99, 30.00 31.99 S 33.51 34.69, 35.00 34.83 S 38.66 33.57, 40.00 32.90 S 43.50 29.75, 45.00 29.80 S 48.56 32.83, 50.00 33.25 S 53.55 33.14, 55.00 32.77 S 58.51 30.54, 60.00 30.68 S 63.50 33.64, 65.00 33.75 S 68.55 31.81, 70.00 31.41 S 73.86 31.96, 75.00 30.99 S 78.55 23.25, 80.00 22.86 S 83.77 27.45, 85.00 28.31 S 88.91 28.75, 90.00 29.78 S 93.64 38.32, 95.00 37.70 S 98.75 26.05, 100.00 25.21 S 104.04 29.83, 105.00 30.98 S 108.78 38.02, 110.00 37.15 S 113.78 24.76, 115.00 23.89 S 118.58 29.59, 120.00 30.07 S 123.74 26.46, 125.00 27.27 S 128.50 36.57, 130.00 36.47 S 133.91 25.57, 135.00 26.61 S 138.53 45.70, 140.00 46.00 S 144.14 29.88, 145.00 28.65 S 148.77 30.75, 150.00 31.62 S 154.18 36.93, 155.00 35.68 S 158.64 17.01, 160.00 16.37 S 164.52 29.55, 165.00 30.98 S 169.17 44.75, 170.00 46.00 S 173.50 46.00, 175.00 46.00 S 179.20 47.27, 180.00 46.00 S 184.53 31.58, 185.00 30.16 S 189.20 14.73, 190.00 16.00 S 194.28 44.68, 195.00 46.00 S 198.50 34.39, 200.00 34.39 S 204.41 44.62, 205.00 46.00"
        fill="none">
        <animate attributeName="stroke-dashoffset"
            from="398.5643888755256" to="0" dur="2.2s"/>
        <animate attributeName="stroke-dasharray"
            from="398.5643888755256" to="398.5643888755256"/>
    </path>
    <circle r="4" cx="5" cy="46" fill="#3023AE"/>
    <circle r="4" cx="205" cy="46" fill="#C86DD7" opacity="0">
        <animate attributeName="opacity"
            from="0" to="1" dur="0.1s" begin="2.2s" fill="freeze"/>
    </circle>
</svg>