<svg width="200" height="50" viewBox="0 0 210 50" xmlns="http://www.w3.org/2000/svg">
    <!-- 150 stargazers -->
    <!-- created at Sat May 16 2026 23:23:12 GMT+0000 (Coordinated Universal Time) -->
    <defs>
        <linearGradient id="stroke" x1="0%" y1="0%" x2="100%" y2="0%">
            <stop stop-color="#3023AE" offset="0%"/>
            <stop stop-color="#C86DD7" offset="100%"/>
        </linearGradient>
    </defs>
    <path stroke="url(#stroke)"
        stroke-width="3"
        stroke-linejoin="round"
        stroke-linecap="round"
        d="M5.00 46.0001 C 5.60 44.63, 9.13 35.79, 10.00 34.57 S 13.51 32.17, 15.00 31.98 S 18.55 32.95, 20.00 33.32 S 23.55 34.93, 25.00 34.53 S 28.52 30.38, 30.00 30.61 S 33.50 36.14, 35.00 36.06 S 38.68 30.79, 40.00 30.07 S 43.64 29.97, 45.00 30.59 S 48.52 34.39, 50.00 34.66 S 53.86 33.38, 55.00 32.41 S 58.58 25.63, 60.00 26.10 S 63.90 34.70, 65.00 35.72 S 69.08 36.59, 70.00 35.40 S 73.96 23.95, 75.00 22.87 S 78.76 24.19, 80.00 25.04 S 83.74 28.92, 85.00 29.74 S 88.56 31.98, 90.00 31.57 S 93.50 27.03, 95.00 26.93 S 98.74 30.08, 100.00 30.90 S 103.67 34.10, 105.00 33.40 S 108.58 26.16, 110.00 25.67 S 113.50 30.06, 115.00 29.94 S 118.74 24.06, 120.00 24.87 S 123.52 36.15, 125.00 36.38 S 128.50 26.46, 130.00 26.41 S 133.67 35.34, 135.00 36.04 S 138.64 32.30, 140.00 31.68 S 143.50 31.52, 145.00 31.45 S 149.18 32.48, 150.00 31.22 S 153.61 15.44, 155.00 16.00 S 159.53 33.82, 160.00 35.24 S 163.98 44.90, 165.00 46.00 S 169.20 47.27, 170.00 46.00 S 174.40 31.51, 175.00 30.14 S 178.61 23.84, 180.00 23.28 S 183.99 24.96, 185.00 26.07 S 189.33 33.01, 190.00 34.35 S 194.02 44.86, 195.00 46.00 S 198.50 46.00, 200.00 46.00 S 203.50 46.00, 205.00 46.00"
        fill="none">
        <animate attributeName="stroke-dashoffset"
            from="336.5815388559219" to="0" dur="2.2s"/>
        <animate attributeName="stroke-dasharray"
            from="336.5815388559219" to="336.5815388559219"/>
    </path>
    <circle r="4" cx="5" cy="46" fill="#3023AE"/>
    <circle r="4" cx="205" cy="46" fill="#C86DD7" opacity="0">
        <animate attributeName="opacity"
            from="0" to="1" dur="0.1s" begin="2.2s" fill="freeze"/>
    </circle>
</svg>