<svg width="200" height="50" viewBox="0 0 210 50" xmlns="http://www.w3.org/2000/svg">
    <!-- 150 stargazers -->
    <!-- created at Wed Apr 01 2026 15:57:05 GMT+0000 (Coordinated Universal Time) -->
    <defs>
        <linearGradient id="stroke" x1="0%" y1="0%" x2="100%" y2="0%">
            <stop stop-color="#3023AE" offset="0%"/>
            <stop stop-color="#C86DD7" offset="100%"/>
        </linearGradient>
    </defs>
    <path stroke="url(#stroke)"
        stroke-width="3"
        stroke-linejoin="round"
        stroke-linecap="round"
        d="M5.00 46.0001 C 5.61 44.63, 9.09 35.93, 10.00 34.73 S 13.53 33.20, 15.00 32.89 S 18.52 32.37, 20.00 32.64 S 23.51 34.82, 25.00 34.70 S 28.50 31.81, 30.00 31.81 S 33.51 34.55, 35.00 34.69 S 38.66 33.41, 40.00 32.73 S 43.50 29.54, 45.00 29.60 S 48.56 32.66, 50.00 33.09 S 53.55 32.98, 55.00 32.60 S 58.51 30.34, 60.00 30.49 S 63.50 33.48, 65.00 33.59 S 68.56 31.63, 70.00 31.23 S 73.87 31.78, 75.00 30.80 S 78.55 22.97, 80.00 22.57 S 83.66 27.41, 85.00 28.08 S 89.27 26.33, 90.00 27.64 S 93.55 46.39, 95.00 46.00 S 99.18 26.20, 100.00 24.95 S 103.85 29.83, 105.00 30.79 S 108.67 34.02, 110.00 33.33 S 113.71 26.33, 115.00 25.56 S 118.61 26.82, 120.00 27.37 S 123.88 28.57, 125.00 29.57 S 128.57 36.81, 130.00 36.35 S 133.92 25.32, 135.00 26.36 S 138.53 45.70, 140.00 46.00 S 144.15 29.67, 145.00 28.44 S 148.78 30.57, 150.00 31.44 S 154.18 36.81, 155.00 35.55 S 158.65 16.64, 160.00 16.00 S 164.53 29.36, 165.00 30.79 S 169.18 44.75, 170.00 46.00 S 174.00 47.12, 175.00 46.00 S 179.32 36.14, 180.00 34.80 S 184.15 27.59, 185.00 26.36 S 189.32 18.99, 190.00 20.33 S 194.12 44.78, 195.00 46.00 S 198.50 34.24, 200.00 34.24 S 204.41 44.62, 205.00 46.00"
        fill="none">
        <animate attributeName="stroke-dashoffset"
            from="394.9520399460826" to="0" dur="2.2s"/>
        <animate attributeName="stroke-dasharray"
            from="394.9520399460826" to="394.9520399460826"/>
    </path>
    <circle r="4" cx="5" cy="46" fill="#3023AE"/>
    <circle r="4" cx="205" cy="46" fill="#C86DD7" opacity="0">
        <animate attributeName="opacity"
            from="0" to="1" dur="0.1s" begin="2.2s" fill="freeze"/>
    </circle>
</svg>