<svg width="200" height="50" viewBox="0 0 210 50" xmlns="http://www.w3.org/2000/svg">
    <!-- 150 stargazers -->
    <!-- created at Sun May 10 2026 07:11:25 GMT+0000 (Coordinated Universal Time) -->
    <defs>
        <linearGradient id="stroke" x1="0%" y1="0%" x2="100%" y2="0%">
            <stop stop-color="#3023AE" offset="0%"/>
            <stop stop-color="#C86DD7" offset="100%"/>
        </linearGradient>
    </defs>
    <path stroke="url(#stroke)"
        stroke-width="3"
        stroke-linejoin="round"
        stroke-linecap="round"
        d="M5.00 46.0001 C 5.63 44.64, 9.10 36.42, 10.00 35.22 S 13.51 32.96, 15.00 32.78 S 18.54 33.69, 20.00 34.04 S 23.55 35.56, 25.00 35.19 S 28.52 31.27, 30.00 31.49 S 33.50 36.54, 35.00 36.63 S 38.73 32.90, 40.00 32.10 S 43.57 29.85, 45.00 30.31 S 48.56 34.89, 50.00 35.31 S 53.83 34.13, 55.00 33.18 S 58.57 26.79, 60.00 27.24 S 63.87 35.32, 65.00 36.31 S 69.05 37.17, 70.00 36.01 S 73.93 25.24, 75.00 24.19 S 78.86 25.26, 80.00 26.24 S 83.61 32.16, 85.00 32.72 S 88.64 30.93, 90.00 30.29 S 93.52 27.80, 95.00 28.02 S 98.92 30.72, 100.00 31.76 S 103.76 38.44, 105.00 37.60 S 108.76 25.84, 110.00 25.00 S 113.51 30.70, 115.00 30.86 S 118.72 25.30, 120.00 26.08 S 123.52 36.71, 125.00 36.93 S 128.89 26.52, 130.00 27.53 S 133.53 45.72, 135.00 46.00 S 139.12 30.67, 140.00 29.46 S 143.75 31.45, 145.00 32.28 S 149.21 37.43, 150.00 36.15 S 153.50 16.04, 155.00 16.00 S 159.53 34.43, 160.00 35.85 S 163.95 44.93, 165.00 46.00 S 168.97 47.09, 170.00 46.00 S 174.37 36.79, 175.00 35.43 S 179.00 25.69, 180.00 24.58 S 184.37 22.94, 185.00 24.30 S 188.97 44.91, 190.00 46.00 S 193.50 34.88, 195.00 34.88 S 199.00 44.88, 200.00 46.00 S 203.50 46.00, 205.00 46.00"
        fill="none">
        <animate attributeName="stroke-dashoffset"
            from="384.3321411885219" to="0" dur="2.2s"/>
        <animate attributeName="stroke-dasharray"
            from="384.3321411885219" to="384.3321411885219"/>
    </path>
    <circle r="4" cx="5" cy="46" fill="#3023AE"/>
    <circle r="4" cx="205" cy="46" fill="#C86DD7" opacity="0">
        <animate attributeName="opacity"
            from="0" to="1" dur="0.1s" begin="2.2s" fill="freeze"/>
    </circle>
</svg>