<svg width="200" height="50" viewBox="0 0 210 50" xmlns="http://www.w3.org/2000/svg">
    <!-- 150 stargazers -->
    <!-- created at Mon Mar 23 2026 01:22:32 GMT+0000 (Coordinated Universal Time) -->
    <defs>
        <linearGradient id="stroke" x1="0%" y1="0%" x2="100%" y2="0%">
            <stop stop-color="#3023AE" offset="0%"/>
            <stop stop-color="#C86DD7" offset="100%"/>
        </linearGradient>
    </defs>
    <path stroke="url(#stroke)"
        stroke-width="3"
        stroke-linejoin="round"
        stroke-linecap="round"
        d="M5.00 46.0001 C 5.54 44.60, 9.17 34.42, 10.00 33.17 S 13.54 31.42, 15.00 31.08 S 18.53 30.48, 20.00 30.79 S 23.51 33.27, 25.00 33.13 S 28.50 29.85, 30.00 29.84 S 33.51 32.96, 35.00 33.12 S 38.70 31.65, 40.00 30.89 S 43.50 27.26, 45.00 27.33 S 48.68 30.58, 50.00 31.30 S 53.64 33.42, 55.00 32.79 S 58.51 26.80, 60.00 26.66 S 63.55 31.51, 65.00 31.87 S 68.57 29.64, 70.00 29.18 S 73.85 29.65, 75.00 28.69 S 78.66 21.53, 80.00 20.85 S 83.74 22.84, 85.00 23.65 S 89.08 26.12, 90.00 27.30 S 93.67 37.13, 95.00 36.43 S 98.81 22.95, 100.00 22.03 S 104.12 27.47, 105.00 28.69 S 108.71 36.56, 110.00 35.80 S 113.84 23.68, 115.00 22.73 S 118.51 27.77, 120.00 27.63 S 124.28 20.54, 125.00 21.85 S 128.51 46.13, 130.00 46.00 S 133.50 21.00, 135.00 21.00 S 139.11 44.80, 140.00 46.00 S 144.41 35.83, 145.00 34.45 S 148.50 22.60, 150.00 22.55 S 153.55 33.73, 155.00 34.10 S 159.27 26.40, 160.00 25.08 S 163.86 15.03, 165.00 16.00 S 169.53 32.16, 170.00 33.58 S 174.06 44.83, 175.00 46.00 S 179.28 47.32, 180.00 46.00 S 184.46 29.14, 185.00 27.74 S 188.64 20.49, 190.00 19.86 S 194.07 21.90, 195.00 23.08 S 199.40 31.24, 200.00 32.61 S 204.48 44.59, 205.00 46.00"
        fill="none">
        <animate attributeName="stroke-dashoffset"
            from="419.76275463628264" to="0" dur="2.2s"/>
        <animate attributeName="stroke-dasharray"
            from="419.76275463628264" to="419.76275463628264"/>
    </path>
    <circle r="4" cx="5" cy="46" fill="#3023AE"/>
    <circle r="4" cx="205" cy="46" fill="#C86DD7" opacity="0">
        <animate attributeName="opacity"
            from="0" to="1" dur="0.1s" begin="2.2s" fill="freeze"/>
    </circle>
</svg>