<svg width="200" height="50" viewBox="0 0 210 50" xmlns="http://www.w3.org/2000/svg">
    <!-- 150 stargazers -->
    <!-- created at Thu Mar 26 2026 06:03:29 GMT+0000 (Coordinated Universal Time) -->
    <defs>
        <linearGradient id="stroke" x1="0%" y1="0%" x2="100%" y2="0%">
            <stop stop-color="#3023AE" offset="0%"/>
            <stop stop-color="#C86DD7" offset="100%"/>
        </linearGradient>
    </defs>
    <path stroke="url(#stroke)"
        stroke-width="3"
        stroke-linejoin="round"
        stroke-linecap="round"
        d="M5.00 46.0001 C 5.58 44.62, 9.13 35.20, 10.00 33.98 S 13.54 32.34, 15.00 32.02 S 18.53 31.46, 20.00 31.75 S 23.51 34.08, 25.00 33.94 S 28.50 30.86, 30.00 30.86 S 33.51 33.79, 35.00 33.93 S 38.68 32.56, 40.00 31.85 S 43.50 28.45, 45.00 28.50 S 48.66 31.55, 50.00 32.23 S 53.62 34.22, 55.00 33.62 S 58.51 28.01, 60.00 27.88 S 63.54 32.42, 65.00 32.76 S 68.56 30.67, 70.00 30.24 S 73.90 30.80, 75.00 29.79 S 78.56 21.43, 80.00 21.01 S 83.80 25.99, 85.00 26.89 S 88.95 27.41, 90.00 28.48 S 93.66 37.70, 95.00 37.03 S 98.79 24.42, 100.00 23.54 S 104.08 28.59, 105.00 29.78 S 108.69 37.17, 110.00 36.44 S 113.81 25.11, 115.00 24.20 S 118.51 28.92, 120.00 28.79 S 123.77 22.52, 125.00 23.38 S 128.52 35.45, 130.00 35.70 S 133.95 23.98, 135.00 25.05 S 138.54 45.68, 140.00 46.00 S 144.19 28.52, 145.00 27.26 S 148.80 29.56, 150.00 30.46 S 154.14 36.08, 155.00 34.85 S 158.66 16.74, 160.00 16.06 S 164.28 28.46, 165.00 29.77 S 169.21 33.09, 170.00 34.37 S 174.02 44.86, 175.00 46.00 S 179.24 47.29, 180.00 46.00 S 184.53 30.32, 185.00 28.89 S 188.64 15.36, 190.00 16.00 S 194.25 32.30, 195.00 33.60 S 199.06 32.29, 200.00 33.46 S 204.44 44.61, 205.00 46.00"
        fill="none">
        <animate attributeName="stroke-dashoffset"
            from="391.801654511015" to="0" dur="2.2s"/>
        <animate attributeName="stroke-dasharray"
            from="391.801654511015" to="391.801654511015"/>
    </path>
    <circle r="4" cx="5" cy="46" fill="#3023AE"/>
    <circle r="4" cx="205" cy="46" fill="#C86DD7" opacity="0">
        <animate attributeName="opacity"
            from="0" to="1" dur="0.1s" begin="2.2s" fill="freeze"/>
    </circle>
</svg>