<svg width="200" height="50" viewBox="0 0 210 50" xmlns="http://www.w3.org/2000/svg">
    <!-- 150 stargazers -->
    <!-- created at Thu Apr 30 2026 14:48:08 GMT+0000 (Coordinated Universal Time) -->
    <defs>
        <linearGradient id="stroke" x1="0%" y1="0%" x2="100%" y2="0%">
            <stop stop-color="#3023AE" offset="0%"/>
            <stop stop-color="#C86DD7" offset="100%"/>
        </linearGradient>
    </defs>
    <path stroke="url(#stroke)"
        stroke-width="3"
        stroke-linejoin="round"
        stroke-linecap="round"
        d="M5.00 46.0001 C 5.57 44.61, 9.14 35.01, 10.00 33.78 S 13.54 32.11, 15.00 31.78 S 18.53 31.22, 20.00 31.51 S 23.53 34.03, 25.00 33.74 S 28.52 29.30, 30.00 29.54 S 33.50 35.27, 35.00 35.37 S 38.78 31.11, 40.00 30.23 S 43.59 27.70, 45.00 28.21 S 48.57 33.41, 50.00 33.87 S 53.82 32.39, 55.00 31.47 S 58.59 25.60, 60.00 26.10 S 63.72 34.24, 65.00 35.01 S 69.06 33.29, 70.00 32.13 S 73.94 23.75, 75.00 22.68 S 78.99 20.93, 80.00 22.04 S 83.61 33.15, 85.00 33.71 S 88.71 26.85, 90.00 26.08 S 93.60 27.24, 95.00 27.77 S 98.65 29.21, 100.00 29.85 S 103.58 33.00, 105.00 32.53 S 108.87 27.54, 110.00 26.56 S 113.53 23.55, 115.00 23.83 S 118.81 27.59, 120.00 28.50 S 123.71 32.21, 125.00 31.45 S 129.15 21.35, 130.00 22.59 S 134.07 44.83, 135.00 46.00 S 139.38 36.54, 140.00 35.17 S 143.50 24.05, 145.00 24.00 S 148.83 35.77, 150.00 34.83 S 153.66 16.68, 155.00 16.00 S 159.28 28.41, 160.00 29.73 S 164.21 33.05, 165.00 34.33 S 168.50 46.05, 170.00 46.00 S 174.36 35.37, 175.00 34.01 S 179.19 26.22, 180.00 24.96 S 184.36 17.14, 185.00 18.50 S 189.16 44.75, 190.00 46.00 S 193.50 33.40, 195.00 33.40 S 199.07 44.82, 200.00 46.00 S 203.50 46.00, 205.00 46.00"
        fill="none">
        <animate attributeName="stroke-dashoffset"
            from="394.08074078635076" to="0" dur="2.2s"/>
        <animate attributeName="stroke-dasharray"
            from="394.08074078635076" to="394.08074078635076"/>
    </path>
    <circle r="4" cx="5" cy="46" fill="#3023AE"/>
    <circle r="4" cx="205" cy="46" fill="#C86DD7" opacity="0">
        <animate attributeName="opacity"
            from="0" to="1" dur="0.1s" begin="2.2s" fill="freeze"/>
    </circle>
</svg>