<svg width="200" height="50" viewBox="0 0 210 50" xmlns="http://www.w3.org/2000/svg">
    <!-- 150 stargazers -->
    <!-- created at Fri Apr 24 2026 12:29:18 GMT+0000 (Coordinated Universal Time) -->
    <defs>
        <linearGradient id="stroke" x1="0%" y1="0%" x2="100%" y2="0%">
            <stop stop-color="#3023AE" offset="0%"/>
            <stop stop-color="#C86DD7" offset="100%"/>
        </linearGradient>
    </defs>
    <path stroke="url(#stroke)"
        stroke-width="3"
        stroke-linejoin="round"
        stroke-linecap="round"
        d="M5.00 46.0001 C 5.61 44.63, 9.09 35.93, 10.00 34.73 S 13.53 33.20, 15.00 32.89 S 18.52 32.37, 20.00 32.64 S 23.52 34.97, 25.00 34.70 S 28.52 30.61, 30.00 30.83 S 33.53 35.92, 35.00 36.20 S 38.81 33.65, 40.00 32.73 S 43.53 28.16, 45.00 28.47 S 48.61 34.25, 50.00 34.82 S 53.78 33.48, 55.00 32.60 S 58.73 26.86, 60.00 27.65 S 63.59 38.33, 65.00 38.84 S 69.08 32.42, 70.00 31.23 S 73.79 26.78, 75.00 25.89 S 78.73 23.12, 80.00 23.91 S 83.59 31.60, 85.00 32.12 S 88.56 28.06, 90.00 27.64 S 93.58 28.70, 95.00 29.19 S 98.63 30.51, 100.00 31.11 S 103.50 33.68, 105.00 33.58 S 108.83 31.42, 110.00 30.48 S 113.57 26.01, 115.00 25.56 S 118.77 26.51, 120.00 27.37 S 123.56 33.01, 125.00 32.59 S 129.10 23.21, 130.00 24.42 S 134.02 44.86, 135.00 46.00 S 139.26 37.32, 140.00 36.02 S 143.64 29.06, 145.00 28.44 S 148.78 30.57, 150.00 31.44 S 154.18 36.81, 155.00 35.55 S 158.50 16.05, 160.00 16.00 S 164.53 33.82, 165.00 35.24 S 168.98 44.90, 170.00 46.00 S 174.20 47.27, 175.00 46.00 S 179.49 31.58, 180.00 30.16 S 183.62 17.62, 185.00 18.22 S 189.21 33.24, 190.00 34.52 S 194.01 33.25, 195.00 34.38 S 199.02 44.86, 200.00 46.00 S 203.50 46.00, 205.00 46.00"
        fill="none">
        <animate attributeName="stroke-dashoffset"
            from="363.3869181743073" to="0" dur="2.2s"/>
        <animate attributeName="stroke-dasharray"
            from="363.3869181743073" to="363.3869181743073"/>
    </path>
    <circle r="4" cx="5" cy="46" fill="#3023AE"/>
    <circle r="4" cx="205" cy="46" fill="#C86DD7" opacity="0">
        <animate attributeName="opacity"
            from="0" to="1" dur="0.1s" begin="2.2s" fill="freeze"/>
    </circle>
</svg>