<svg width="200" height="50" viewBox="0 0 210 50" xmlns="http://www.w3.org/2000/svg">
    <!-- 150 stargazers -->
    <!-- created at Sun May 03 2026 16:57:37 GMT+0000 (Coordinated Universal Time) -->
    <defs>
        <linearGradient id="stroke" x1="0%" y1="0%" x2="100%" y2="0%">
            <stop stop-color="#3023AE" offset="0%"/>
            <stop stop-color="#C86DD7" offset="100%"/>
        </linearGradient>
    </defs>
    <path stroke="url(#stroke)"
        stroke-width="3"
        stroke-linejoin="round"
        stroke-linecap="round"
        d="M5.00 46.0001 C 5.60 44.63, 9.13 35.79, 10.00 34.57 S 13.51 32.17, 15.00 31.98 S 18.55 32.95, 20.00 33.32 S 23.55 34.93, 25.00 34.53 S 28.52 30.38, 30.00 30.61 S 33.50 35.96, 35.00 36.06 S 38.75 32.09, 40.00 31.25 S 43.58 28.87, 45.00 29.36 S 48.57 34.22, 50.00 34.66 S 53.79 33.29, 55.00 32.41 S 58.51 27.23, 60.00 27.38 S 63.83 32.47, 65.00 33.41 S 68.97 36.49, 70.00 35.40 S 73.96 23.95, 75.00 22.87 S 78.89 24.03, 80.00 25.04 S 83.62 31.33, 85.00 31.92 S 88.56 29.77, 90.00 29.34 S 93.52 28.71, 95.00 28.94 S 98.63 30.29, 100.00 30.90 S 103.57 33.84, 105.00 33.40 S 108.84 28.76, 110.00 27.82 S 113.52 25.00, 115.00 25.27 S 118.78 28.76, 120.00 29.63 S 123.69 33.12, 125.00 32.39 S 129.11 22.89, 130.00 24.10 S 133.63 45.40, 135.00 46.00 S 139.15 29.70, 140.00 28.46 S 143.78 30.58, 145.00 31.45 S 149.18 36.81, 150.00 35.55 S 153.65 16.65, 155.00 16.00 S 159.53 29.36, 160.00 30.78 S 164.18 44.75, 165.00 46.00 S 169.00 47.12, 170.00 46.00 S 174.32 36.12, 175.00 34.79 S 179.15 27.56, 180.00 26.32 S 184.32 18.93, 185.00 20.27 S 189.13 44.78, 190.00 46.00 S 193.50 34.21, 195.00 34.21 S 199.03 44.86, 200.00 46.00 S 203.50 46.00, 205.00 46.00"
        fill="none">
        <animate attributeName="stroke-dashoffset"
            from="374.6252236083322" to="0" dur="2.2s"/>
        <animate attributeName="stroke-dasharray"
            from="374.6252236083322" to="374.6252236083322"/>
    </path>
    <circle r="4" cx="5" cy="46" fill="#3023AE"/>
    <circle r="4" cx="205" cy="46" fill="#C86DD7" opacity="0">
        <animate attributeName="opacity"
            from="0" to="1" dur="0.1s" begin="2.2s" fill="freeze"/>
    </circle>
</svg>