<svg width="200" height="50" viewBox="0 0 210 50" xmlns="http://www.w3.org/2000/svg">
    <!-- 150 stargazers -->
    <!-- created at Tue Apr 14 2026 07:11:40 GMT+0000 (Coordinated Universal Time) -->
    <defs>
        <linearGradient id="stroke" x1="0%" y1="0%" x2="100%" y2="0%">
            <stop stop-color="#3023AE" offset="0%"/>
            <stop stop-color="#C86DD7" offset="100%"/>
        </linearGradient>
    </defs>
    <path stroke="url(#stroke)"
        stroke-width="3"
        stroke-linejoin="round"
        stroke-linecap="round"
        d="M5.00 46.0001 C 5.61 44.63, 9.09 35.93, 10.00 34.73 S 13.53 33.20, 15.00 32.89 S 18.52 32.37, 20.00 32.64 S 23.51 34.82, 25.00 34.70 S 28.50 31.81, 30.00 31.81 S 33.51 34.55, 35.00 34.69 S 38.66 33.41, 40.00 32.73 S 43.50 29.54, 45.00 29.60 S 48.56 32.66, 50.00 33.09 S 53.61 33.17, 55.00 32.60 S 58.57 28.55, 60.00 29.01 S 63.54 35.54, 65.00 35.87 S 68.86 32.20, 70.00 31.23 S 73.87 28.37, 75.00 27.38 S 78.64 21.93, 80.00 22.57 S 83.66 31.44, 85.00 32.12 S 88.68 26.92, 90.00 27.64 S 93.51 37.72, 95.00 37.60 S 98.76 27.63, 100.00 26.78 S 103.74 29.97, 105.00 30.79 S 108.78 34.20, 110.00 33.33 S 113.71 24.38, 115.00 23.61 S 118.88 26.37, 120.00 27.37 S 123.50 32.69, 125.00 32.59 S 128.59 26.19, 130.00 26.69 S 133.90 35.16, 135.00 36.18 S 138.81 36.94, 140.00 36.02 S 143.50 28.48, 145.00 28.44 S 148.55 35.30, 150.00 35.70 S 154.32 32.55, 155.00 31.22 S 158.61 15.44, 160.00 16.00 S 164.53 33.82, 165.00 35.24 S 168.98 44.90, 170.00 46.00 S 174.00 47.12, 175.00 46.00 S 179.45 36.20, 180.00 34.80 S 183.87 21.63, 185.00 20.64 S 189.45 24.72, 190.00 26.11 S 193.84 45.05, 195.00 46.00 S 198.50 34.24, 200.00 34.24 S 204.41 44.62, 205.00 46.00"
        fill="none">
        <animate attributeName="stroke-dashoffset"
            from="361.60043557268443" to="0" dur="2.2s"/>
        <animate attributeName="stroke-dasharray"
            from="361.60043557268443" to="361.60043557268443"/>
    </path>
    <circle r="4" cx="5" cy="46" fill="#3023AE"/>
    <circle r="4" cx="205" cy="46" fill="#C86DD7" opacity="0">
        <animate attributeName="opacity"
            from="0" to="1" dur="0.1s" begin="2.2s" fill="freeze"/>
    </circle>
</svg>