<svg width="200" height="50" viewBox="0 0 210 50" xmlns="http://www.w3.org/2000/svg">
    <!-- 150 stargazers -->
    <!-- created at Mon Mar 09 2026 12:40:34 GMT+0000 (Coordinated Universal Time) -->
    <defs>
        <linearGradient id="stroke" x1="0%" y1="0%" x2="100%" y2="0%">
            <stop stop-color="#3023AE" offset="0%"/>
            <stop stop-color="#C86DD7" offset="100%"/>
        </linearGradient>
    </defs>
    <path stroke="url(#stroke)"
        stroke-width="3"
        stroke-linejoin="round"
        stroke-linecap="round"
        d="M5.00 46.0001 C 5.62 44.63, 9.08 36.08, 10.00 34.89 S 13.53 33.38, 15.00 33.07 S 18.52 32.56, 20.00 32.82 S 23.50 34.98, 25.00 34.86 S 28.52 31.79, 30.00 32.01 S 33.50 36.39, 35.00 36.34 S 38.74 32.49, 40.00 31.67 S 43.52 29.59, 45.00 29.83 S 48.64 32.63, 50.00 33.27 S 53.55 34.93, 55.00 34.56 S 58.55 31.10, 60.00 30.71 S 63.50 31.76, 65.00 31.87 S 68.59 30.94, 70.00 31.44 S 73.70 36.16, 75.00 35.40 S 79.09 26.82, 80.00 25.63 S 83.73 21.50, 85.00 22.30 S 89.04 30.83, 90.00 31.98 S 93.65 34.94, 95.00 34.28 S 98.57 27.52, 100.00 27.05 S 103.95 29.94, 105.00 31.01 S 108.56 37.60, 110.00 37.16 S 114.03 29.12, 115.00 27.98 S 118.52 25.20, 120.00 25.47 S 123.78 28.94, 125.00 29.80 S 128.57 32.99, 130.00 32.54 S 133.59 26.13, 135.00 26.64 S 138.91 35.13, 140.00 36.16 S 143.81 36.92, 145.00 36.00 S 148.50 28.46, 150.00 28.41 S 153.56 35.29, 155.00 35.69 S 159.32 32.55, 160.00 31.21 S 163.61 15.44, 165.00 16.00 S 169.53 33.82, 170.00 35.25 S 173.98 44.90, 175.00 46.00 S 179.00 47.12, 180.00 46.00 S 184.32 36.15, 185.00 34.82 S 189.15 27.63, 190.00 26.39 S 194.32 19.04, 195.00 20.38 S 199.12 44.78, 200.00 46.00 S 204.41 35.65, 205.00 34.27"
        fill="none">
        <animate attributeName="stroke-dashoffset"
            from="346.607307823459" to="0" dur="2.2s"/>
        <animate attributeName="stroke-dasharray"
            from="346.607307823459" to="346.607307823459"/>
    </path>
    <circle r="4" cx="5" cy="46" fill="#3023AE"/>
    <circle r="4" cx="205" cy="34.272187916473584" fill="#C86DD7" opacity="0">
        <animate attributeName="opacity"
            from="0" to="1" dur="0.1s" begin="2.2s" fill="freeze"/>
    </circle>
</svg>