<svg width="200" height="50" viewBox="0 0 210 50" xmlns="http://www.w3.org/2000/svg">
    <!-- 150 stargazers -->
    <!-- created at Sat Apr 04 2026 18:23:36 GMT+0000 (Coordinated Universal Time) -->
    <defs>
        <linearGradient id="stroke" x1="0%" y1="0%" x2="100%" y2="0%">
            <stop stop-color="#3023AE" offset="0%"/>
            <stop stop-color="#C86DD7" offset="100%"/>
        </linearGradient>
    </defs>
    <path stroke="url(#stroke)"
        stroke-width="3"
        stroke-linejoin="round"
        stroke-linecap="round"
        d="M5.00 46.0001 C 5.64 44.64, 9.06 36.54, 10.00 35.38 S 13.53 33.93, 15.00 33.64 S 18.52 33.15, 20.00 33.40 S 23.50 35.46, 25.00 35.34 S 28.50 32.62, 30.00 32.62 S 33.51 35.21, 35.00 35.33 S 38.65 34.14, 40.00 33.49 S 43.50 30.48, 45.00 30.54 S 48.56 33.42, 50.00 33.83 S 53.54 33.73, 55.00 33.37 S 58.51 31.24, 60.00 31.38 S 63.50 34.20, 65.00 34.30 S 68.62 32.67, 70.00 32.07 S 73.84 30.93, 75.00 29.98 S 78.51 23.78, 80.00 23.91 S 83.65 30.24, 85.00 30.89 S 89.17 27.44, 90.00 28.69 S 93.55 46.37, 95.00 46.00 S 99.14 27.38, 100.00 26.15 S 103.82 30.73, 105.00 31.66 S 108.76 34.89, 110.00 34.05 S 113.57 25.36, 115.00 24.89 S 118.69 30.06, 120.00 30.79 S 123.54 30.17, 125.00 30.51 S 128.50 33.21, 130.00 33.13 S 133.58 29.48, 135.00 29.97 S 138.55 36.22, 140.00 36.59 S 143.62 33.07, 145.00 32.48 S 148.59 31.75, 150.00 32.27 S 154.21 37.42, 155.00 36.14 S 158.50 16.04, 160.00 16.00 S 164.53 34.43, 165.00 35.86 S 168.95 44.93, 170.00 46.00 S 173.97 47.09, 175.00 46.00 S 179.29 36.76, 180.00 35.44 S 184.11 28.69, 185.00 27.48 S 189.29 20.48, 190.00 21.80 S 194.09 44.81, 195.00 46.00 S 198.50 34.91, 200.00 34.91 S 204.38 44.63, 205.00 46.00"
        fill="none">
        <animate attributeName="stroke-dashoffset"
            from="358.0027674970597" to="0" dur="2.2s"/>
        <animate attributeName="stroke-dasharray"
            from="358.0027674970597" to="358.0027674970597"/>
    </path>
    <circle r="4" cx="5" cy="46" fill="#3023AE"/>
    <circle r="4" cx="205" cy="46" fill="#C86DD7" opacity="0">
        <animate attributeName="opacity"
            from="0" to="1" dur="0.1s" begin="2.2s" fill="freeze"/>
    </circle>
</svg>