<svg width="200" height="50" viewBox="0 0 210 50" xmlns="http://www.w3.org/2000/svg">
    <!-- 150 stargazers -->
    <!-- created at Tue Apr 07 2026 19:05:29 GMT+0000 (Coordinated Universal Time) -->
    <defs>
        <linearGradient id="stroke" x1="0%" y1="0%" x2="100%" y2="0%">
            <stop stop-color="#3023AE" offset="0%"/>
            <stop stop-color="#C86DD7" offset="100%"/>
        </linearGradient>
    </defs>
    <path stroke="url(#stroke)"
        stroke-width="3"
        stroke-linejoin="round"
        stroke-linecap="round"
        d="M5.00 46.0001 C 5.61 44.63, 9.09 35.93, 10.00 34.73 S 13.53 33.20, 15.00 32.89 S 18.52 32.37, 20.00 32.64 S 23.51 34.82, 25.00 34.70 S 28.50 31.81, 30.00 31.81 S 33.51 34.55, 35.00 34.69 S 38.66 33.41, 40.00 32.73 S 43.50 29.54, 45.00 29.60 S 48.56 32.66, 50.00 33.09 S 53.55 32.98, 55.00 32.60 S 58.51 30.34, 60.00 30.49 S 63.50 33.48, 65.00 33.59 S 68.64 31.86, 70.00 31.23 S 73.87 29.99, 75.00 29.01 S 78.51 22.43, 80.00 22.57 S 83.66 29.30, 85.00 29.98 S 89.21 26.37, 90.00 27.64 S 93.55 46.39, 95.00 46.00 S 99.18 26.20, 100.00 24.95 S 103.85 29.83, 105.00 30.79 S 108.78 34.20, 110.00 33.33 S 113.71 24.38, 115.00 23.61 S 118.88 26.37, 120.00 27.37 S 123.53 32.31, 125.00 32.59 S 128.50 29.35, 130.00 29.28 S 133.76 31.28, 135.00 32.11 S 138.50 36.09, 140.00 36.02 S 143.64 32.28, 145.00 31.66 S 148.50 31.50, 150.00 31.44 S 154.18 32.48, 155.00 31.22 S 158.61 15.44, 160.00 16.00 S 164.53 33.82, 165.00 35.24 S 168.98 44.90, 170.00 46.00 S 174.00 47.12, 175.00 46.00 S 179.32 36.14, 180.00 34.80 S 184.15 27.59, 185.00 26.36 S 189.32 18.99, 190.00 20.33 S 194.12 44.78, 195.00 46.00 S 198.50 34.24, 200.00 34.24 S 204.41 44.62, 205.00 46.00"
        fill="none">
        <animate attributeName="stroke-dashoffset"
            from="359.81096768192083" to="0" dur="2.2s"/>
        <animate attributeName="stroke-dasharray"
            from="359.81096768192083" to="359.81096768192083"/>
    </path>
    <circle r="4" cx="5" cy="46" fill="#3023AE"/>
    <circle r="4" cx="205" cy="46" fill="#C86DD7" opacity="0">
        <animate attributeName="opacity"
            from="0" to="1" dur="0.1s" begin="2.2s" fill="freeze"/>
    </circle>
</svg>