<svg width="200" height="50" viewBox="0 0 210 50" xmlns="http://www.w3.org/2000/svg">
    <!-- 10 stargazers -->
    <!-- created at Tue Mar 10 2026 12:01:57 GMT+0000 (Coordinated Universal Time) -->
    <defs>
        <linearGradient id="stroke" x1="0%" y1="0%" x2="100%" y2="0%">
            <stop stop-color="#3023AE" offset="0%"/>
            <stop stop-color="#C86DD7" offset="100%"/>
        </linearGradient>
    </defs>
    <path stroke="url(#stroke)"
        stroke-width="3"
        stroke-linejoin="round"
        stroke-linecap="round"
        d="M5.00 46.0001 C 5.47 44.57, 9.03 31.86, 10.00 30.71 S 14.18 32.88, 15.00 34.14 S 19.03 44.85, 20.00 46.00 S 24.15 47.24, 25.00 46.00 S 28.50 31.44, 30.00 31.44 S 33.52 46.23, 35.00 46.00 S 39.23 31.18, 40.00 29.89 S 44.21 27.90, 45.00 29.17 S 49.23 44.71, 50.00 46.00 S 53.50 46.00, 55.00 46.00 S 59.31 47.33, 60.00 46.00 S 64.33 27.90, 65.00 26.56 S 69.31 24.62, 70.00 25.95 S 74.33 44.66, 75.00 46.00 S 78.50 46.00, 80.00 46.00 S 83.50 46.00, 85.00 46.00 S 88.50 46.00, 90.00 46.00 S 93.50 46.00, 95.00 46.00 S 98.50 46.00, 100.00 46.00 S 103.50 46.00, 105.00 46.00 S 108.50 46.00, 110.00 46.00 S 113.50 46.00, 115.00 46.00 S 118.50 46.00, 120.00 46.00 S 123.50 46.00, 125.00 46.00 S 129.47 47.40, 130.00 46.00 S 133.50 19.35, 135.00 19.35 S 139.47 44.60, 140.00 46.00 S 143.50 46.00, 145.00 46.00 S 148.50 46.00, 150.00 46.00 S 153.50 46.00, 155.00 46.00 S 158.50 46.00, 160.00 46.00 S 163.50 46.00, 165.00 46.00 S 169.53 47.42, 170.00 46.00 S 173.50 16.00, 175.00 16.00 S 179.53 44.58, 180.00 46.00 S 183.50 46.00, 185.00 46.00 S 188.50 46.00, 190.00 46.00 S 193.50 46.00, 195.00 46.00 S 198.50 46.00, 200.00 46.00 S 203.50 46.00, 205.00 46.00"
        fill="none">
        <animate attributeName="stroke-dashoffset"
            from="396.4037178677159" to="0" dur="2.2s"/>
        <animate attributeName="stroke-dasharray"
            from="396.4037178677159" to="396.4037178677159"/>
    </path>
    <circle r="4" cx="5" cy="46" fill="#3023AE"/>
    <circle r="4" cx="205" cy="46" fill="#C86DD7" opacity="0">
        <animate attributeName="opacity"
            from="0" to="1" dur="0.1s" begin="2.2s" fill="freeze"/>
    </circle>
</svg>