<svg width="200" height="50" viewBox="0 0 210 50" xmlns="http://www.w3.org/2000/svg">
    <!-- 10 stargazers -->
    <!-- created at Mon Apr 13 2026 02:32:19 GMT+0000 (Coordinated Universal Time) -->
    <defs>
        <linearGradient id="stroke" x1="0%" y1="0%" x2="100%" y2="0%">
            <stop stop-color="#3023AE" offset="0%"/>
            <stop stop-color="#C86DD7" offset="100%"/>
        </linearGradient>
    </defs>
    <path stroke="url(#stroke)"
        stroke-width="3"
        stroke-linejoin="round"
        stroke-linecap="round"
        d="M5.00 46.0001 C 5.45 44.57, 9.06 31.23, 10.00 30.07 S 14.20 32.37, 15.00 33.64 S 19.06 44.83, 20.00 46.00 S 24.17 47.25, 25.00 46.00 S 28.50 30.83, 30.00 30.83 S 33.52 46.24, 35.00 46.00 S 39.26 30.52, 40.00 29.22 S 44.23 27.18, 45.00 28.47 S 49.26 44.70, 50.00 46.00 S 54.32 47.34, 55.00 46.00 S 59.34 27.73, 60.00 26.38 S 64.32 24.40, 65.00 25.74 S 69.34 44.65, 70.00 46.00 S 73.50 46.00, 75.00 46.00 S 78.50 46.00, 80.00 46.00 S 83.50 46.00, 85.00 46.00 S 88.50 46.00, 90.00 46.00 S 93.50 46.00, 95.00 46.00 S 98.50 46.00, 100.00 46.00 S 103.50 46.00, 105.00 46.00 S 108.50 46.00, 110.00 46.00 S 113.50 46.00, 115.00 46.00 S 118.50 46.00, 120.00 46.00 S 124.48 47.41, 125.00 46.00 S 128.50 18.70, 130.00 18.70 S 134.48 44.59, 135.00 46.00 S 138.50 46.00, 140.00 46.00 S 143.50 46.00, 145.00 46.00 S 148.50 46.00, 150.00 46.00 S 154.53 47.42, 155.00 46.00 S 158.50 16.00, 160.00 16.00 S 164.53 44.58, 165.00 46.00 S 168.50 46.00, 170.00 46.00 S 173.50 46.00, 175.00 46.00 S 178.50 46.00, 180.00 46.00 S 183.50 46.00, 185.00 46.00 S 188.50 46.00, 190.00 46.00 S 193.50 46.00, 195.00 46.00 S 198.50 46.00, 200.00 46.00 S 203.50 46.00, 205.00 46.00"
        fill="none">
        <animate attributeName="stroke-dashoffset"
            from="401.837754843975" to="0" dur="2.2s"/>
        <animate attributeName="stroke-dasharray"
            from="401.837754843975" to="401.837754843975"/>
    </path>
    <circle r="4" cx="5" cy="46" fill="#3023AE"/>
    <circle r="4" cx="205" cy="46" fill="#C86DD7" opacity="0">
        <animate attributeName="opacity"
            from="0" to="1" dur="0.1s" begin="2.2s" fill="freeze"/>
    </circle>
</svg>