<svg width="200" height="50" viewBox="0 0 210 50" xmlns="http://www.w3.org/2000/svg">
    <!-- 10 stargazers -->
    <!-- created at Mon May 11 2026 11:17:40 GMT+0000 (Coordinated Universal Time) -->
    <defs>
        <linearGradient id="stroke" x1="0%" y1="0%" x2="100%" y2="0%">
            <stop stop-color="#3023AE" offset="0%"/>
            <stop stop-color="#C86DD7" offset="100%"/>
        </linearGradient>
    </defs>
    <path stroke="url(#stroke)"
        stroke-width="3"
        stroke-linejoin="round"
        stroke-linecap="round"
        d="M5.00 46.0001 C 5.44 44.57, 9.07 30.77, 10.00 29.59 S 14.22 31.99, 15.00 33.27 S 19.07 44.82, 20.00 46.00 S 24.19 47.26, 25.00 46.00 S 28.50 30.38, 30.00 30.38 S 33.52 46.25, 35.00 46.00 S 39.27 30.03, 40.00 28.71 S 44.25 26.64, 45.00 27.94 S 49.27 44.69, 50.00 46.00 S 54.50 47.42, 55.00 46.00 S 58.50 17.43, 60.00 17.43 S 64.50 44.58, 65.00 46.00 S 68.50 46.00, 70.00 46.00 S 73.50 46.00, 75.00 46.00 S 78.50 46.00, 80.00 46.00 S 83.50 46.00, 85.00 46.00 S 88.50 46.00, 90.00 46.00 S 93.50 46.00, 95.00 46.00 S 98.50 46.00, 100.00 46.00 S 103.50 46.00, 105.00 46.00 S 108.50 46.00, 110.00 46.00 S 114.48 47.41, 115.00 46.00 S 118.50 18.87, 120.00 18.87 S 124.48 44.59, 125.00 46.00 S 128.50 46.00, 130.00 46.00 S 133.50 46.00, 135.00 46.00 S 138.50 46.00, 140.00 46.00 S 144.53 47.42, 145.00 46.00 S 148.50 16.00, 150.00 16.00 S 154.53 44.58, 155.00 46.00 S 158.50 46.00, 160.00 46.00 S 163.50 46.00, 165.00 46.00 S 168.50 46.00, 170.00 46.00 S 173.50 46.00, 175.00 46.00 S 178.50 46.00, 180.00 46.00 S 183.50 46.00, 185.00 46.00 S 188.50 46.00, 190.00 46.00 S 193.50 46.00, 195.00 46.00 S 198.50 46.00, 200.00 46.00 S 203.50 46.00, 205.00 46.00"
        fill="none">
        <animate attributeName="stroke-dashoffset"
            from="420.81596565592713" to="0" dur="2.2s"/>
        <animate attributeName="stroke-dasharray"
            from="420.81596565592713" to="420.81596565592713"/>
    </path>
    <circle r="4" cx="5" cy="46" fill="#3023AE"/>
    <circle r="4" cx="205" cy="46" fill="#C86DD7" opacity="0">
        <animate attributeName="opacity"
            from="0" to="1" dur="0.1s" begin="2.2s" fill="freeze"/>
    </circle>
</svg>