<svg width="200" height="50" viewBox="0 0 210 50" xmlns="http://www.w3.org/2000/svg">
    <!-- 10 stargazers -->
    <!-- created at Sat Mar 14 2026 19:16:56 GMT+0000 (Coordinated Universal Time) -->
    <defs>
        <linearGradient id="stroke" x1="0%" y1="0%" x2="100%" y2="0%">
            <stop stop-color="#3023AE" offset="0%"/>
            <stop stop-color="#C86DD7" offset="100%"/>
        </linearGradient>
    </defs>
    <path stroke="url(#stroke)"
        stroke-width="3"
        stroke-linejoin="round"
        stroke-linecap="round"
        d="M5.00 46.0001 C 5.46 44.57, 9.04 31.66, 10.00 30.51 S 14.19 32.72, 15.00 33.98 S 19.04 44.85, 20.00 46.00 S 24.16 47.24, 25.00 46.00 S 28.50 31.25, 30.00 31.25 S 33.52 46.23, 35.00 46.00 S 39.24 30.97, 40.00 29.68 S 44.22 27.67, 45.00 28.95 S 49.24 44.71, 50.00 46.00 S 53.50 46.00, 55.00 46.00 S 59.32 47.34, 60.00 46.00 S 64.34 27.64, 65.00 26.29 S 69.32 24.35, 70.00 25.69 S 74.34 44.65, 75.00 46.00 S 78.50 46.00, 80.00 46.00 S 83.50 46.00, 85.00 46.00 S 88.50 46.00, 90.00 46.00 S 93.50 46.00, 95.00 46.00 S 98.50 46.00, 100.00 46.00 S 103.50 46.00, 105.00 46.00 S 108.50 46.00, 110.00 46.00 S 113.50 46.00, 115.00 46.00 S 118.50 46.00, 120.00 46.00 S 123.50 46.00, 125.00 46.00 S 129.48 47.41, 130.00 46.00 S 133.50 18.99, 135.00 18.99 S 139.48 44.59, 140.00 46.00 S 143.50 46.00, 145.00 46.00 S 148.50 46.00, 150.00 46.00 S 153.50 46.00, 155.00 46.00 S 158.50 46.00, 160.00 46.00 S 164.53 47.42, 165.00 46.00 S 168.50 16.00, 170.00 16.00 S 174.53 44.58, 175.00 46.00 S 178.50 46.00, 180.00 46.00 S 183.50 46.00, 185.00 46.00 S 188.50 46.00, 190.00 46.00 S 193.50 46.00, 195.00 46.00 S 198.50 46.00, 200.00 46.00 S 203.50 46.00, 205.00 46.00"
        fill="none">
        <animate attributeName="stroke-dashoffset"
            from="398.78928349550597" to="0" dur="2.2s"/>
        <animate attributeName="stroke-dasharray"
            from="398.78928349550597" to="398.78928349550597"/>
    </path>
    <circle r="4" cx="5" cy="46" fill="#3023AE"/>
    <circle r="4" cx="205" cy="46" fill="#C86DD7" opacity="0">
        <animate attributeName="opacity"
            from="0" to="1" dur="0.1s" begin="2.2s" fill="freeze"/>
    </circle>
</svg>