<svg width="200" height="50" viewBox="0 0 210 50" xmlns="http://www.w3.org/2000/svg">
    <!-- 10 stargazers -->
    <!-- created at Sun Apr 05 2026 13:54:34 GMT+0000 (Coordinated Universal Time) -->
    <defs>
        <linearGradient id="stroke" x1="0%" y1="0%" x2="100%" y2="0%">
            <stop stop-color="#3023AE" offset="0%"/>
            <stop stop-color="#C86DD7" offset="100%"/>
        </linearGradient>
    </defs>
    <path stroke="url(#stroke)"
        stroke-width="3"
        stroke-linejoin="round"
        stroke-linecap="round"
        d="M5.00 46.0001 C 5.45 44.57, 9.05 31.45, 10.00 30.29 S 14.19 32.55, 15.00 33.81 S 19.05 44.84, 20.00 46.00 S 24.17 47.25, 25.00 46.00 S 28.50 31.04, 30.00 31.04 S 33.52 46.24, 35.00 46.00 S 39.25 30.75, 40.00 29.45 S 44.22 27.43, 45.00 28.71 S 49.25 44.70, 50.00 46.00 S 54.31 47.33, 55.00 46.00 S 59.33 28.00, 60.00 26.66 S 64.31 24.69, 65.00 26.02 S 69.33 44.66, 70.00 46.00 S 73.50 46.00, 75.00 46.00 S 78.50 46.00, 80.00 46.00 S 83.50 46.00, 85.00 46.00 S 88.50 46.00, 90.00 46.00 S 93.50 46.00, 95.00 46.00 S 98.50 46.00, 100.00 46.00 S 103.50 46.00, 105.00 46.00 S 108.50 46.00, 110.00 46.00 S 113.50 46.00, 115.00 46.00 S 118.50 46.00, 120.00 46.00 S 124.48 47.41, 125.00 46.00 S 128.50 19.08, 130.00 19.08 S 134.48 44.59, 135.00 46.00 S 138.50 46.00, 140.00 46.00 S 143.50 46.00, 145.00 46.00 S 148.50 46.00, 150.00 46.00 S 153.50 46.00, 155.00 46.00 S 159.53 47.42, 160.00 46.00 S 163.50 16.00, 165.00 16.00 S 169.53 44.58, 170.00 46.00 S 173.50 46.00, 175.00 46.00 S 178.50 46.00, 180.00 46.00 S 183.50 46.00, 185.00 46.00 S 188.50 46.00, 190.00 46.00 S 193.50 46.00, 195.00 46.00 S 198.50 46.00, 200.00 46.00 S 203.50 46.00, 205.00 46.00"
        fill="none">
        <animate attributeName="stroke-dashoffset"
            from="399.27464645201707" to="0" dur="2.2s"/>
        <animate attributeName="stroke-dasharray"
            from="399.27464645201707" to="399.27464645201707"/>
    </path>
    <circle r="4" cx="5" cy="46" fill="#3023AE"/>
    <circle r="4" cx="205" cy="46" fill="#C86DD7" opacity="0">
        <animate attributeName="opacity"
            from="0" to="1" dur="0.1s" begin="2.2s" fill="freeze"/>
    </circle>
</svg>