<svg width="200" height="50" viewBox="0 0 210 50" xmlns="http://www.w3.org/2000/svg">
    <!-- 349361 stargazers -->
    <!-- created at Mon Apr 06 2026 10:32:45 GMT+0000 (Coordinated Universal Time) -->
    <defs>
        <linearGradient id="stroke" x1="0%" y1="0%" x2="100%" y2="0%">
            <stop stop-color="#3023AE" offset="0%"/>
            <stop stop-color="#C86DD7" offset="100%"/>
        </linearGradient>
    </defs>
    <path stroke="url(#stroke)"
        stroke-width="3"
        stroke-linejoin="round"
        stroke-linecap="round"
        d="M5.00 46.0001 C 6.46 45.66, 8.50 44.94, 10.00 44.85 S 13.50 45.29, 15.00 45.34 S 18.51 45.38, 20.00 45.20 S 23.55 44.52, 25.00 44.15 S 28.52 42.89, 30.00 42.65 S 33.50 42.62, 35.00 42.57 S 38.50 42.33, 40.00 42.27 S 44.38 43.55, 45.00 42.18 S 49.46 21.81, 50.00 20.41 S 53.59 15.49, 55.00 16.00 S 59.19 22.77, 60.00 24.03 S 63.87 30.53, 65.00 31.52 S 68.52 32.58, 70.00 32.81 S 73.51 33.25, 75.00 33.11 S 78.50 31.97, 80.00 31.89 S 83.55 32.20, 85.00 32.59 S 88.50 34.72, 90.00 34.61 S 93.61 32.39, 95.00 31.83 S 98.50 30.54, 100.00 30.56 S 103.58 32.39, 105.00 31.92 S 108.58 27.73, 110.00 27.24 S 113.51 28.68, 115.00 28.51 S 118.56 26.54, 120.00 26.12 S 123.69 24.87, 125.00 25.59 S 128.90 30.63, 130.00 31.65 S 133.53 34.49, 135.00 34.80 S 138.51 33.98, 140.00 33.77 S 143.51 33.22, 145.00 33.43 S 148.55 34.79, 150.00 35.17 S 153.50 36.10, 155.00 36.04 S 158.50 34.76, 160.00 34.78 S 163.52 35.89, 165.00 36.15 S 168.54 36.23, 170.00 36.59 S 173.50 38.47, 175.00 38.58 S 178.52 37.54, 180.00 37.31 S 183.51 37.21, 185.00 37.04 S 188.50 36.18, 190.00 36.18 S 193.55 36.70, 195.00 37.08 S 198.52 38.58, 200.00 38.80 S 203.50 38.63, 205.00 38.56"
        fill="none">
        <animate attributeName="stroke-dashoffset"
            from="239.6047642936253" to="0" dur="2.2s"/>
        <animate attributeName="stroke-dasharray"
            from="239.6047642936253" to="239.6047642936253"/>
    </path>
    <circle r="4" cx="5" cy="46" fill="#3023AE"/>
    <circle r="4" cx="205" cy="38.56202235702362" fill="#C86DD7" opacity="0">
        <animate attributeName="opacity"
            from="0" to="1" dur="0.1s" begin="2.2s" fill="freeze"/>
    </circle>
</svg>