<svg width="200" height="50" viewBox="0 0 210 50" xmlns="http://www.w3.org/2000/svg">
    <!-- 67 stargazers -->
    <!-- created at Fri Apr 03 2026 11:13:44 GMT+0000 (Coordinated Universal Time) -->
    <defs>
        <linearGradient id="stroke" x1="0%" y1="0%" x2="100%" y2="0%">
            <stop stop-color="#3023AE" offset="0%"/>
            <stop stop-color="#C86DD7" offset="100%"/>
        </linearGradient>
    </defs>
    <path stroke="url(#stroke)"
        stroke-width="3"
        stroke-linejoin="round"
        stroke-linecap="round"
        d="M5.00 46.0001 C 5.84 44.76, 8.70 39.34, 10.00 38.59 S 13.51 40.46, 15.00 40.25 S 18.89 38.22, 20.00 37.21 S 24.00 32.26, 25.00 31.14 S 28.80 25.16, 30.00 26.05 S 34.05 37.40, 35.00 38.56 S 38.50 38.30, 40.00 38.20 S 43.50 37.95, 45.00 37.85 S 48.50 37.61, 50.00 37.51 S 53.86 36.22, 55.00 37.19 S 58.80 46.90, 60.00 46.00 S 63.50 29.68, 65.00 29.68 S 68.53 45.68, 70.00 46.00 S 73.95 32.94, 75.00 31.87 S 78.50 35.85, 80.00 35.73 S 83.95 30.02, 85.00 31.10 S 89.16 44.75, 90.00 46.00 S 93.50 46.00, 95.00 46.00 S 99.02 47.13, 100.00 46.00 S 104.03 35.60, 105.00 34.45 S 108.68 34.93, 110.00 34.22 S 114.28 30.32, 115.00 29.00 S 118.64 16.63, 120.00 16.00 S 123.52 24.16, 125.00 24.40 S 128.58 17.14, 130.00 17.62 S 134.18 26.49, 135.00 27.74 S 139.28 31.56, 140.00 32.87 S 143.72 46.77, 145.00 46.00 S 149.31 28.18, 150.00 26.85 S 154.31 25.23, 155.00 26.56 S 158.66 46.68, 160.00 46.00 S 164.14 22.73, 165.00 21.50 S 168.60 31.11, 170.00 31.66 S 173.50 25.50, 175.00 25.45 S 179.34 29.93, 180.00 31.28 S 183.50 46.06, 185.00 46.00 S 188.50 30.90, 190.00 30.90 S 193.50 46.05, 195.00 46.00 S 199.38 31.90, 200.00 30.54 S 204.10 25.08, 205.00 23.88"
        fill="none">
        <animate attributeName="stroke-dashoffset"
            from="431.88678088897245" to="0" dur="2.2s"/>
        <animate attributeName="stroke-dasharray"
            from="431.88678088897245" to="431.88678088897245"/>
    </path>
    <circle r="4" cx="5" cy="46" fill="#3023AE"/>
    <circle r="4" cx="205" cy="23.8795703853307" fill="#C86DD7" opacity="0">
        <animate attributeName="opacity"
            from="0" to="1" dur="0.1s" begin="2.2s" fill="freeze"/>
    </circle>
</svg>