<svg width="200" height="50" viewBox="0 0 210 50" xmlns="http://www.w3.org/2000/svg">
    <!-- 68 stargazers -->
    <!-- created at Fri Apr 10 2026 17:00:10 GMT+0000 (Coordinated Universal Time) -->
    <defs>
        <linearGradient id="stroke" x1="0%" y1="0%" x2="100%" y2="0%">
            <stop stop-color="#3023AE" offset="0%"/>
            <stop stop-color="#C86DD7" offset="100%"/>
        </linearGradient>
    </defs>
    <path stroke="url(#stroke)"
        stroke-width="3"
        stroke-linejoin="round"
        stroke-linecap="round"
        d="M5.00 46.0001 C 5.88 44.79, 8.68 39.85, 10.00 39.14 S 13.51 40.87, 15.00 40.68 S 18.85 38.83, 20.00 37.87 S 23.96 33.32, 25.00 32.24 S 28.76 26.68, 30.00 27.53 S 34.00 37.99, 35.00 39.11 S 38.50 38.87, 40.00 38.78 S 43.50 38.55, 45.00 38.45 S 48.50 38.23, 50.00 38.14 S 53.82 36.92, 55.00 37.84 S 58.77 46.86, 60.00 46.00 S 63.50 30.89, 65.00 30.89 S 68.51 46.14, 70.00 46.00 S 73.91 31.01, 75.00 29.97 S 78.73 35.70, 80.00 36.49 S 83.91 35.21, 85.00 36.24 S 88.93 44.95, 90.00 46.00 S 93.50 46.00, 95.00 46.00 S 99.17 47.25, 100.00 46.00 S 103.50 30.88, 105.00 30.88 S 108.78 46.87, 110.00 46.00 S 114.53 25.17, 115.00 23.75 S 118.71 15.24, 120.00 16.00 S 123.59 29.15, 125.00 29.67 S 129.22 18.44, 130.00 19.72 S 134.13 44.78, 135.00 46.00 S 139.06 35.01, 140.00 33.85 S 143.92 34.69, 145.00 33.65 S 149.06 23.12, 150.00 24.28 S 153.50 46.10, 155.00 46.00 S 159.09 24.83, 160.00 23.63 S 163.89 31.89, 165.00 32.90 S 168.71 33.49, 170.00 32.72 S 174.10 25.77, 175.00 26.97 S 178.67 45.31, 180.00 46.00 S 183.50 32.19, 185.00 32.19 S 188.50 46.05, 190.00 46.00 S 194.34 33.20, 195.00 31.85 S 198.50 25.80, 200.00 25.75 S 204.02 30.39, 205.00 31.52"
        fill="none">
        <animate attributeName="stroke-dashoffset"
            from="459.35896309039964" to="0" dur="2.2s"/>
        <animate attributeName="stroke-dasharray"
            from="459.35896309039964" to="459.35896309039964"/>
    </path>
    <circle r="4" cx="5" cy="46" fill="#3023AE"/>
    <circle r="4" cx="205" cy="31.51877955511579" fill="#C86DD7" opacity="0">
        <animate attributeName="opacity"
            from="0" to="1" dur="0.1s" begin="2.2s" fill="freeze"/>
    </circle>
</svg>