<svg width="200" height="50" viewBox="0 0 210 50" xmlns="http://www.w3.org/2000/svg">
    <!-- 63 stargazers -->
    <!-- created at Wed Mar 04 2026 23:19:12 GMT+0000 (Coordinated Universal Time) -->
    <defs>
        <linearGradient id="stroke" x1="0%" y1="0%" x2="100%" y2="0%">
            <stop stop-color="#3023AE" offset="0%"/>
            <stop stop-color="#C86DD7" offset="100%"/>
        </linearGradient>
    </defs>
    <path stroke="url(#stroke)"
        stroke-width="3"
        stroke-linejoin="round"
        stroke-linecap="round"
        d="M5.00 46.0001 C 5.87 44.78, 8.68 39.69, 10.00 38.97 S 13.51 40.74, 15.00 40.55 S 18.78 38.54, 20.00 37.67 S 23.91 34.42, 25.00 33.39 S 28.50 28.24, 30.00 28.30 S 33.96 32.70, 35.00 33.78 S 39.05 37.44, 40.00 38.60 S 43.50 46.10, 45.00 46.00 S 48.85 38.91, 50.00 37.95 S 53.50 37.73, 55.00 37.64 S 58.85 36.39, 60.00 37.35 S 63.50 46.08, 65.00 46.00 S 69.10 37.99, 70.00 36.79 S 73.50 32.67, 75.00 32.59 S 78.50 36.37, 80.00 36.26 S 83.50 31.94, 85.00 31.87 S 88.59 35.24, 90.00 35.76 S 93.95 34.44, 95.00 35.52 S 98.96 44.91, 100.00 46.00 S 103.50 46.00, 105.00 46.00 S 109.01 47.13, 110.00 46.00 S 114.02 35.74, 115.00 34.60 S 118.50 34.45, 120.00 34.38 S 123.90 35.19, 125.00 34.17 S 129.28 26.46, 130.00 25.14 S 133.57 15.54, 135.00 16.00 S 138.64 27.75, 140.00 28.39 S 143.50 20.78, 145.00 20.70 S 149.05 26.67, 150.00 27.83 S 154.28 31.65, 155.00 32.96 S 158.50 46.06, 160.00 46.00 S 164.31 33.91, 165.00 32.58 S 168.50 26.82, 170.00 26.76 S 173.67 31.51, 175.00 32.21 S 178.73 32.82, 180.00 32.03 S 183.50 26.05, 185.00 25.99 S 188.69 30.95, 190.00 31.68 S 193.74 32.31, 195.00 31.50 S 199.15 24.02, 200.00 25.26 S 204.65 44.54, 205.00 46.00"
        fill="none">
        <animate attributeName="stroke-dashoffset"
            from="333.9736319207339" to="0" dur="2.2s"/>
        <animate attributeName="stroke-dasharray"
            from="333.9736319207339" to="333.9736319207339"/>
    </path>
    <circle r="4" cx="5" cy="46" fill="#3023AE"/>
    <circle r="4" cx="205" cy="46" fill="#C86DD7" opacity="0">
        <animate attributeName="opacity"
            from="0" to="1" dur="0.1s" begin="2.2s" fill="freeze"/>
    </circle>
</svg>