<svg width="200" height="50" viewBox="0 0 210 50" xmlns="http://www.w3.org/2000/svg">
    <!-- 72 stargazers -->
    <!-- created at Sat May 02 2026 17:33:13 GMT+0000 (Coordinated Universal Time) -->
    <defs>
        <linearGradient id="stroke" x1="0%" y1="0%" x2="100%" y2="0%">
            <stop stop-color="#3023AE" offset="0%"/>
            <stop stop-color="#C86DD7" offset="100%"/>
        </linearGradient>
    </defs>
    <path stroke="url(#stroke)"
        stroke-width="3"
        stroke-linejoin="round"
        stroke-linecap="round"
        d="M5.00 46.0001 C 5.82 44.74, 8.96 39.38, 10.00 38.30 S 13.81 34.74, 15.00 35.66 S 18.82 46.93, 20.00 46.00 S 24.27 29.03, 25.00 27.72 S 28.97 26.96, 30.00 28.04 S 34.27 36.96, 35.00 38.27 S 38.62 46.59, 40.00 46.00 S 43.88 35.01, 45.00 34.02 S 49.04 36.03, 50.00 37.18 S 53.50 46.10, 55.00 46.00 S 59.12 37.74, 60.00 36.52 S 63.83 33.09, 65.00 32.15 S 69.12 27.30, 70.00 28.52 S 73.54 45.65, 75.00 46.00 S 78.50 30.91, 80.00 30.91 S 84.17 44.75, 85.00 46.00 S 89.02 47.13, 90.00 46.00 S 94.03 35.65, 95.00 34.51 S 98.68 34.98, 100.00 34.25 S 104.28 30.35, 105.00 29.03 S 108.64 16.63, 110.00 16.00 S 113.52 24.14, 115.00 24.37 S 118.58 17.07, 120.00 17.54 S 124.18 26.41, 125.00 27.67 S 128.65 32.15, 130.00 32.81 S 133.96 33.66, 135.00 32.58 S 139.10 21.17, 140.00 22.37 S 143.63 46.62, 145.00 46.00 S 148.50 17.85, 150.00 17.85 S 153.56 45.56, 155.00 46.00 S 159.16 22.13, 160.00 20.89 S 163.95 30.23, 165.00 31.30 S 169.16 29.85, 170.00 31.09 S 173.50 46.06, 175.00 46.00 S 179.38 32.06, 180.00 30.70 S 183.50 24.14, 185.00 24.08 S 188.69 31.04, 190.00 30.31 S 194.19 17.23, 195.00 18.49 S 199.00 44.88, 200.00 46.00 S 204.56 31.18, 205.00 29.74"
        fill="none">
        <animate attributeName="stroke-dashoffset"
            from="507.66307980632877" to="0" dur="2.2s"/>
        <animate attributeName="stroke-dasharray"
            from="507.66307980632877" to="507.66307980632877"/>
    </path>
    <circle r="4" cx="5" cy="46" fill="#3023AE"/>
    <circle r="4" cx="205" cy="29.74337391119864" fill="#C86DD7" opacity="0">
        <animate attributeName="opacity"
            from="0" to="1" dur="0.1s" begin="2.2s" fill="freeze"/>
    </circle>
</svg>