<svg width="200" height="50" viewBox="0 0 210 50" xmlns="http://www.w3.org/2000/svg">
    <!-- 72 stargazers -->
    <!-- created at Sat May 09 2026 20:59:14 GMT+0000 (Coordinated Universal Time) -->
    <defs>
        <linearGradient id="stroke" x1="0%" y1="0%" x2="100%" y2="0%">
            <stop stop-color="#3023AE" offset="0%"/>
            <stop stop-color="#C86DD7" offset="100%"/>
        </linearGradient>
    </defs>
    <path stroke="url(#stroke)"
        stroke-width="3"
        stroke-linejoin="round"
        stroke-linecap="round"
        d="M5.00 46.0001 C 5.86 44.77, 8.92 39.91, 10.00 38.87 S 13.78 35.55, 15.00 36.42 S 18.79 46.89, 20.00 46.00 S 24.23 30.37, 25.00 29.08 S 28.93 28.33, 30.00 29.38 S 33.89 37.83, 35.00 38.84 S 38.50 38.59, 40.00 38.49 S 43.50 38.25, 45.00 38.16 S 48.82 36.91, 50.00 37.83 S 53.77 46.86, 55.00 46.00 S 58.50 30.80, 60.00 30.80 S 63.51 46.15, 65.00 46.00 S 69.11 31.02, 70.00 29.81 S 74.21 31.12, 75.00 32.40 S 79.11 44.79, 80.00 46.00 S 83.50 46.00, 85.00 46.00 S 88.97 47.09, 90.00 46.00 S 93.98 36.47, 95.00 35.36 S 99.02 36.26, 100.00 35.13 S 104.30 25.11, 105.00 23.78 S 108.51 16.14, 110.00 16.00 S 113.92 21.83, 115.00 22.87 S 119.00 24.47, 120.00 25.59 S 124.34 32.65, 125.00 34.00 S 129.08 47.18, 130.00 46.00 S 133.50 21.15, 135.00 21.15 S 138.55 45.62, 140.00 46.00 S 144.09 24.96, 145.00 23.77 S 148.50 33.07, 150.00 32.97 S 153.50 23.15, 155.00 23.09 S 158.90 31.56, 160.00 32.58 S 164.10 31.19, 165.00 32.39 S 168.50 46.06, 170.00 46.00 S 174.33 33.36, 175.00 32.01 S 178.50 26.02, 180.00 25.96 S 183.67 32.33, 185.00 31.65 S 189.14 19.61, 190.00 20.84 S 193.95 44.92, 195.00 46.00 S 198.50 31.12, 200.00 31.12 S 204.52 44.58, 205.00 46.00"
        fill="none">
        <animate attributeName="stroke-dashoffset"
            from="469.3816035854123" to="0" dur="2.2s"/>
        <animate attributeName="stroke-dasharray"
            from="469.3816035854123" to="469.3816035854123"/>
    </path>
    <circle r="4" cx="5" cy="46" fill="#3023AE"/>
    <circle r="4" cx="205" cy="46" fill="#C86DD7" opacity="0">
        <animate attributeName="opacity"
            from="0" to="1" dur="0.1s" begin="2.2s" fill="freeze"/>
    </circle>
</svg>