<svg width="200" height="50" viewBox="0 0 210 50" xmlns="http://www.w3.org/2000/svg">
    <!-- 65 stargazers -->
    <!-- created at Thu Mar 26 2026 23:51:43 GMT+0000 (Coordinated Universal Time) -->
    <defs>
        <linearGradient id="stroke" x1="0%" y1="0%" x2="100%" y2="0%">
            <stop stop-color="#3023AE" offset="0%"/>
            <stop stop-color="#C86DD7" offset="100%"/>
        </linearGradient>
    </defs>
    <path stroke="url(#stroke)"
        stroke-width="3"
        stroke-linejoin="round"
        stroke-linecap="round"
        d="M5.00 46.0001 C 5.80 44.73, 8.72 38.82, 10.00 38.03 S 13.52 40.04, 15.00 39.82 S 18.93 37.60, 20.00 36.55 S 23.89 31.03, 25.00 30.01 S 28.53 27.10, 30.00 27.42 S 33.95 31.07, 35.00 32.14 S 38.66 36.93, 40.00 37.61 S 43.50 37.34, 45.00 37.23 S 48.50 36.98, 50.00 36.87 S 53.89 35.51, 55.00 36.52 S 58.50 46.10, 60.00 46.00 S 64.16 37.11, 65.00 35.87 S 68.50 31.32, 70.00 31.23 S 73.51 35.38, 75.00 35.25 S 78.67 31.08, 80.00 30.38 S 84.19 28.71, 85.00 29.97 S 89.21 44.73, 90.00 46.00 S 93.50 46.00, 95.00 46.00 S 98.50 46.00, 100.00 46.00 S 104.27 47.31, 105.00 46.00 S 108.50 28.07, 110.00 28.07 S 113.85 46.97, 115.00 46.00 S 119.53 21.07, 120.00 19.65 S 123.51 16.14, 125.00 16.00 S 128.71 17.92, 130.00 18.69 S 133.79 21.06, 135.00 21.94 S 138.92 24.99, 140.00 26.03 S 144.33 30.31, 145.00 31.66 S 148.75 46.82, 150.00 46.00 S 154.36 26.44, 155.00 25.09 S 159.35 23.43, 160.00 24.78 S 163.69 46.72, 165.00 46.00 S 169.19 20.54, 170.00 19.28 S 173.62 29.77, 175.00 30.37 S 178.50 23.66, 180.00 23.60 S 184.39 28.59, 185.00 29.96 S 188.50 46.06, 190.00 46.00 S 193.50 29.56, 195.00 29.56 S 198.50 46.06, 200.00 46.00 S 204.57 30.61, 205.00 29.18"
        fill="none">
        <animate attributeName="stroke-dashoffset"
            from="432.906703477948" to="0" dur="2.2s"/>
        <animate attributeName="stroke-dasharray"
            from="432.906703477948" to="432.906703477948"/>
    </path>
    <circle r="4" cx="5" cy="46" fill="#3023AE"/>
    <circle r="4" cx="205" cy="29.175029675287387" fill="#C86DD7" opacity="0">
        <animate attributeName="opacity"
            from="0" to="1" dur="0.1s" begin="2.2s" fill="freeze"/>
    </circle>
</svg>