<svg width="200" height="50" viewBox="0 0 210 50" xmlns="http://www.w3.org/2000/svg">
    <!-- 71 stargazers -->
    <!-- created at Sat Apr 25 2026 16:18:45 GMT+0000 (Coordinated Universal Time) -->
    <defs>
        <linearGradient id="stroke" x1="0%" y1="0%" x2="100%" y2="0%">
            <stop stop-color="#3023AE" offset="0%"/>
            <stop stop-color="#C86DD7" offset="100%"/>
        </linearGradient>
    </defs>
    <path stroke="url(#stroke)"
        stroke-width="3"
        stroke-linejoin="round"
        stroke-linecap="round"
        d="M5.00 46.0001 C 5.83 44.75, 8.95 39.52, 10.00 38.45 S 13.80 34.95, 15.00 35.86 S 18.82 46.92, 20.00 46.00 S 24.26 29.38, 25.00 28.08 S 28.96 27.32, 30.00 28.39 S 34.26 37.12, 35.00 38.42 S 38.50 46.11, 40.00 46.00 S 44.05 38.85, 45.00 37.69 S 48.85 32.81, 50.00 33.77 S 53.56 45.58, 55.00 46.00 S 59.11 37.91, 60.00 36.71 S 63.64 33.06, 65.00 32.42 S 68.58 31.52, 70.00 32.00 S 73.50 35.94, 75.00 35.82 S 78.95 30.13, 80.00 31.20 S 84.16 44.76, 85.00 46.00 S 88.50 46.00, 90.00 46.00 S 94.22 47.28, 95.00 46.00 S 98.50 29.71, 100.00 29.71 S 103.97 47.09, 105.00 46.00 S 109.53 20.57, 110.00 19.15 S 113.53 15.72, 115.00 16.00 S 118.83 20.10, 120.00 21.04 S 124.04 22.83, 125.00 23.98 S 129.38 31.70, 130.00 33.06 S 133.71 46.77, 135.00 46.00 S 139.31 28.41, 140.00 27.08 S 143.66 26.10, 145.00 26.78 S 148.66 32.87, 150.00 32.20 S 153.50 21.80, 155.00 21.74 S 158.50 31.89, 160.00 31.79 S 164.14 19.80, 165.00 21.03 S 168.95 44.93, 170.00 46.00 S 173.50 31.19, 175.00 31.19 S 178.50 46.06, 180.00 46.00 S 184.37 32.17, 185.00 30.80 S 188.50 24.30, 190.00 24.24 S 193.69 31.15, 195.00 30.43 S 199.19 17.44, 200.00 18.71 S 204.73 44.52, 205.00 46.00"
        fill="none">
        <animate attributeName="stroke-dashoffset"
            from="468.1419546453806" to="0" dur="2.2s"/>
        <animate attributeName="stroke-dasharray"
            from="468.1419546453806" to="468.1419546453806"/>
    </path>
    <circle r="4" cx="5" cy="46" fill="#3023AE"/>
    <circle r="4" cx="205" cy="46" fill="#C86DD7" opacity="0">
        <animate attributeName="opacity"
            from="0" to="1" dur="0.1s" begin="2.2s" fill="freeze"/>
    </circle>
</svg>