<svg width="200" height="50" viewBox="0 0 210 50" xmlns="http://www.w3.org/2000/svg">
    <!-- 64 stargazers -->
    <!-- created at Thu Mar 19 2026 22:17:54 GMT+0000 (Coordinated Universal Time) -->
    <defs>
        <linearGradient id="stroke" x1="0%" y1="0%" x2="100%" y2="0%">
            <stop stop-color="#3023AE" offset="0%"/>
            <stop stop-color="#C86DD7" offset="100%"/>
        </linearGradient>
    </defs>
    <path stroke="url(#stroke)"
        stroke-width="3"
        stroke-linejoin="round"
        stroke-linecap="round"
        d="M5.00 46.0001 C 5.80 44.73, 8.72 38.82, 10.00 38.03 S 13.52 40.04, 15.00 39.82 S 18.84 37.49, 20.00 36.55 S 23.97 32.79, 25.00 31.70 S 28.50 25.86, 30.00 25.93 S 34.02 31.00, 35.00 32.14 S 38.66 36.93, 40.00 37.61 S 43.50 37.34, 45.00 37.23 S 48.50 36.98, 50.00 36.87 S 53.89 35.51, 55.00 36.52 S 58.50 46.10, 60.00 46.00 S 64.16 37.11, 65.00 35.87 S 68.95 30.16, 70.00 31.23 S 73.62 46.60, 75.00 46.00 S 79.01 27.99, 80.00 26.87 S 83.80 33.76, 85.00 34.67 S 89.01 33.26, 90.00 34.39 S 94.02 44.86, 95.00 46.00 S 98.50 46.00, 100.00 46.00 S 104.07 47.18, 105.00 46.00 S 109.08 34.51, 110.00 33.32 S 113.71 33.84, 115.00 33.07 S 119.24 28.66, 120.00 27.37 S 123.87 16.98, 125.00 16.00 S 128.71 17.92, 130.00 18.69 S 133.51 22.08, 135.00 21.94 S 139.42 16.38, 140.00 17.76 S 144.11 44.79, 145.00 46.00 S 148.50 31.43, 150.00 31.43 S 154.01 47.13, 155.00 46.00 S 159.18 21.27, 160.00 20.01 S 163.97 29.69, 165.00 30.78 S 168.77 31.42, 170.00 30.57 S 173.50 23.95, 175.00 23.89 S 178.50 30.25, 180.00 30.16 S 183.50 23.37, 185.00 23.31 S 189.39 28.39, 190.00 29.76 S 193.50 46.06, 195.00 46.00 S 198.50 29.37, 200.00 29.37 S 204.57 44.56, 205.00 46.00"
        fill="none">
        <animate attributeName="stroke-dashoffset"
            from="417.83957072966774" to="0" dur="2.2s"/>
        <animate attributeName="stroke-dasharray"
            from="417.83957072966774" to="417.83957072966774"/>
    </path>
    <circle r="4" cx="5" cy="46" fill="#3023AE"/>
    <circle r="4" cx="205" cy="46" fill="#C86DD7" opacity="0">
        <animate attributeName="opacity"
            from="0" to="1" dur="0.1s" begin="2.2s" fill="freeze"/>
    </circle>
</svg>