<svg width="200" height="50" viewBox="0 0 210 50" xmlns="http://www.w3.org/2000/svg">
    <!-- 64 stargazers -->
    <!-- created at Thu Mar 12 2026 11:50:00 GMT+0000 (Coordinated Universal Time) -->
    <defs>
        <linearGradient id="stroke" x1="0%" y1="0%" x2="100%" y2="0%">
            <stop stop-color="#3023AE" offset="0%"/>
            <stop stop-color="#C86DD7" offset="100%"/>
        </linearGradient>
    </defs>
    <path stroke="url(#stroke)"
        stroke-width="3"
        stroke-linejoin="round"
        stroke-linecap="round"
        d="M5.00 46.0001 C 5.83 44.75, 8.71 39.19, 10.00 38.43 S 13.51 40.34, 15.00 40.13 S 18.81 37.94, 20.00 37.02 S 23.94 33.48, 25.00 32.41 S 28.50 26.86, 30.00 26.93 S 34.00 31.72, 35.00 32.83 S 39.09 36.83, 40.00 38.02 S 43.50 46.10, 45.00 46.00 S 49.07 38.50, 50.00 37.32 S 53.87 32.28, 55.00 33.27 S 58.57 45.56, 60.00 46.00 S 64.13 37.59, 65.00 36.37 S 68.92 30.92, 70.00 31.96 S 73.50 46.12, 75.00 46.00 S 78.98 32.25, 80.00 31.16 S 83.50 35.34, 85.00 35.23 S 88.98 29.29, 90.00 30.39 S 94.19 44.74, 95.00 46.00 S 98.50 46.00, 100.00 46.00 S 103.50 46.00, 105.00 46.00 S 109.25 47.30, 110.00 46.00 S 113.50 28.63, 115.00 28.63 S 118.84 46.95, 120.00 46.00 S 124.46 21.90, 125.00 20.50 S 128.55 19.67, 130.00 20.05 S 133.61 23.70, 135.00 23.14 S 138.59 15.49, 140.00 16.00 S 144.53 25.30, 145.00 26.72 S 148.67 45.31, 150.00 46.00 S 153.50 31.95, 155.00 31.95 S 158.99 47.11, 160.00 46.00 S 164.15 22.19, 165.00 20.95 S 168.95 30.27, 170.00 31.34 S 173.75 31.97, 175.00 31.14 S 178.50 24.77, 180.00 24.71 S 183.71 30.00, 185.00 30.76 S 188.76 31.41, 190.00 30.57 S 194.18 22.65, 195.00 23.91 S 198.72 45.22, 200.00 46.00 S 204.55 31.44, 205.00 30.01"
        fill="none">
        <animate attributeName="stroke-dashoffset"
            from="443.4236671546609" to="0" dur="2.2s"/>
        <animate attributeName="stroke-dasharray"
            from="443.4236671546609" to="443.4236671546609"/>
    </path>
    <circle r="4" cx="5" cy="46" fill="#3023AE"/>
    <circle r="4" cx="205" cy="30.011547706272438" fill="#C86DD7" opacity="0">
        <animate attributeName="opacity"
            from="0" to="1" dur="0.1s" begin="2.2s" fill="freeze"/>
    </circle>
</svg>