<svg width="200" height="50" viewBox="0 0 210 50" xmlns="http://www.w3.org/2000/svg">
    <!-- 71 stargazers -->
    <!-- created at Sat Apr 18 2026 08:32:51 GMT+0000 (Coordinated Universal Time) -->
    <defs>
        <linearGradient id="stroke" x1="0%" y1="0%" x2="100%" y2="0%">
            <stop stop-color="#3023AE" offset="0%"/>
            <stop stop-color="#C86DD7" offset="100%"/>
        </linearGradient>
    </defs>
    <path stroke="url(#stroke)"
        stroke-width="3"
        stroke-linejoin="round"
        stroke-linecap="round"
        d="M5.00 46.0001 C 5.83 44.75, 8.84 39.41, 10.00 38.45 S 13.51 37.54, 15.00 37.72 S 18.85 40.63, 20.00 39.67 S 24.00 30.53, 25.00 29.41 S 28.89 27.39, 30.00 28.39 S 33.92 37.38, 35.00 38.42 S 38.50 38.16, 40.00 38.05 S 43.50 37.80, 45.00 37.69 S 48.50 37.45, 50.00 37.35 S 53.50 37.12, 55.00 37.02 S 58.64 37.33, 60.00 36.71 S 63.50 32.51, 65.00 32.42 S 68.51 36.23, 70.00 36.10 S 73.65 32.26, 75.00 31.60 S 79.14 29.97, 80.00 31.20 S 84.16 44.76, 85.00 46.00 S 88.50 46.00, 90.00 46.00 S 94.02 47.13, 95.00 46.00 S 99.03 35.63, 100.00 34.48 S 103.68 34.95, 105.00 34.23 S 109.28 30.33, 110.00 29.02 S 113.64 16.63, 115.00 16.00 S 118.52 24.15, 120.00 24.38 S 123.58 17.10, 125.00 17.58 S 129.18 26.45, 130.00 27.71 S 134.28 31.53, 135.00 32.84 S 139.13 47.22, 140.00 46.00 S 143.50 18.82, 145.00 18.82 S 148.79 45.11, 150.00 46.00 S 154.33 27.53, 155.00 26.19 S 158.68 25.19, 160.00 25.90 S 163.67 32.28, 165.00 31.58 S 169.15 19.45, 170.00 20.69 S 173.96 44.92, 175.00 46.00 S 178.50 30.99, 180.00 30.99 S 183.50 46.06, 185.00 46.00 S 189.38 31.98, 190.00 30.61 S 193.50 24.03, 195.00 23.98 S 198.69 30.97, 200.00 30.24 S 204.42 19.77, 205.00 18.39"
        fill="none">
        <animate attributeName="stroke-dashoffset"
            from="421.19978754233387" to="0" dur="2.2s"/>
        <animate attributeName="stroke-dasharray"
            from="421.19978754233387" to="421.19978754233387"/>
    </path>
    <circle r="4" cx="5" cy="46" fill="#3023AE"/>
    <circle r="4" cx="205" cy="18.39081575059351" fill="#C86DD7" opacity="0">
        <animate attributeName="opacity"
            from="0" to="1" dur="0.1s" begin="2.2s" fill="freeze"/>
    </circle>
</svg>