<svg width="200" height="50" viewBox="0 0 210 50" xmlns="http://www.w3.org/2000/svg">
    <!-- 73 stargazers -->
    <!-- created at Sat May 16 2026 23:08:01 GMT+0000 (Coordinated Universal Time) -->
    <defs>
        <linearGradient id="stroke" x1="0%" y1="0%" x2="100%" y2="0%">
            <stop stop-color="#3023AE" offset="0%"/>
            <stop stop-color="#C86DD7" offset="100%"/>
        </linearGradient>
    </defs>
    <path stroke="url(#stroke)"
        stroke-width="3"
        stroke-linejoin="round"
        stroke-linecap="round"
        d="M5.00 46.0001 C 5.85 44.76, 8.93 39.77, 10.00 38.73 S 13.79 35.34, 15.00 36.23 S 18.87 46.98, 20.00 46.00 S 24.19 28.80, 25.00 27.54 S 29.00 29.39, 30.00 30.51 S 33.82 37.77, 35.00 38.70 S 38.50 38.44, 40.00 38.34 S 43.50 38.09, 45.00 37.99 S 48.83 36.73, 50.00 37.66 S 53.78 46.87, 55.00 46.00 S 58.90 31.50, 60.00 30.49 S 63.53 36.45, 65.00 36.75 S 68.64 33.14, 70.00 32.51 S 74.11 30.91, 75.00 32.12 S 79.12 44.78, 80.00 46.00 S 83.50 46.00, 85.00 46.00 S 89.18 47.26, 90.00 46.00 S 94.00 31.76, 95.00 30.65 S 99.15 36.14, 100.00 34.90 S 103.88 17.00, 105.00 16.00 S 108.59 25.45, 110.00 25.95 S 113.56 19.17, 115.00 19.61 S 119.13 27.76, 120.00 28.99 S 123.50 33.84, 125.00 33.75 S 128.70 29.11, 130.00 28.37 S 133.64 27.42, 135.00 28.07 S 138.65 33.75, 140.00 33.11 S 143.50 23.38, 145.00 23.31 S 148.50 32.80, 150.00 32.70 S 153.50 22.67, 155.00 22.62 S 159.41 30.92, 160.00 32.30 S 163.50 46.06, 165.00 46.00 S 169.33 33.26, 170.00 31.91 S 173.50 25.87, 175.00 25.81 S 178.67 32.23, 180.00 31.54 S 184.15 19.40, 185.00 20.63 S 188.96 44.92, 190.00 46.00 S 193.50 30.99, 195.00 30.99 S 198.50 46.05, 200.00 46.00 S 204.54 32.06, 205.00 30.64"
        fill="none">
        <animate attributeName="stroke-dashoffset"
            from="426.14174303374665" to="0" dur="2.2s"/>
        <animate attributeName="stroke-dasharray"
            from="426.14174303374665" to="426.14174303374665"/>
    </path>
    <circle r="4" cx="5" cy="46" fill="#3023AE"/>
    <circle r="4" cx="205" cy="30.63813167555255" fill="#C86DD7" opacity="0">
        <animate attributeName="opacity"
            from="0" to="1" dur="0.1s" begin="2.2s" fill="freeze"/>
    </circle>
</svg>