<svg width="200" height="50" viewBox="0 0 210 50" xmlns="http://www.w3.org/2000/svg">
    <!-- 335 stargazers -->
    <!-- created at Sat Apr 18 2026 22:18:31 GMT+0000 (Coordinated Universal Time) -->
    <defs>
        <linearGradient id="stroke" x1="0%" y1="0%" x2="100%" y2="0%">
            <stop stop-color="#3023AE" offset="0%"/>
            <stop stop-color="#C86DD7" offset="100%"/>
        </linearGradient>
    </defs>
    <path stroke="url(#stroke)"
        stroke-width="3"
        stroke-linejoin="round"
        stroke-linecap="round"
        d="M5.00 46.0001 C 5.51 44.59, 9.20 33.49, 10.00 32.21 S 13.87 30.99, 15.00 30.01 S 19.13 24.79, 20.00 23.57 S 23.52 16.27, 25.00 16.00 S 28.78 20.88, 30.00 21.75 S 33.59 22.71, 35.00 23.23 S 38.61 24.90, 40.00 25.46 S 43.51 27.41, 45.00 27.24 S 48.53 24.05, 50.00 24.33 S 53.67 28.44, 55.00 29.13 S 58.58 29.05, 60.00 29.53 S 63.66 33.23, 65.00 32.55 S 68.54 24.18, 70.00 24.53 S 74.16 33.70, 75.00 34.95 S 78.54 39.80, 80.00 39.44 S 83.68 33.26, 85.00 32.55 S 88.51 33.88, 90.00 34.06 S 93.54 34.14, 95.00 33.78 S 98.86 32.55, 100.00 31.57 S 103.60 24.62, 105.00 25.15 S 108.53 35.06, 110.00 35.36 S 113.76 28.06, 115.00 27.21 S 118.51 28.37, 120.00 28.52 S 123.58 27.71, 125.00 28.20 S 128.59 31.47, 130.00 31.96 S 133.50 31.80, 135.00 31.72 S 138.54 31.16, 140.00 31.49 S 143.54 33.63, 145.00 33.96 S 148.57 33.31, 150.00 33.77 S 153.58 36.75, 155.00 37.22 S 158.76 37.95, 160.00 37.10 S 164.18 31.62, 165.00 30.36 S 168.56 22.20, 170.00 21.78 S 173.68 26.73, 175.00 27.44 S 178.89 26.20, 180.00 27.20 S 183.67 35.79, 185.00 36.48 S 188.62 32.96, 190.00 32.37 S 193.50 32.25, 195.00 32.20 S 198.60 31.51, 200.00 32.04 S 203.83 35.08, 205.00 36.02"
        fill="none">
        <animate attributeName="stroke-dashoffset"
            from="281.7436588923408" to="0" dur="2.2s"/>
        <animate attributeName="stroke-dasharray"
            from="281.7436588923408" to="281.7436588923408"/>
    </path>
    <circle r="4" cx="5" cy="46" fill="#3023AE"/>
    <circle r="4" cx="205" cy="36.01531633927376" fill="#C86DD7" opacity="0">
        <animate attributeName="opacity"
            from="0" to="1" dur="0.1s" begin="2.2s" fill="freeze"/>
    </circle>
</svg>