<svg width="200" height="50" viewBox="0 0 210 50" xmlns="http://www.w3.org/2000/svg">
    <!-- 34 stargazers -->
    <!-- created at Sun Mar 08 2026 11:31:45 GMT+0000 (Coordinated Universal Time) -->
    <defs>
        <linearGradient id="stroke" x1="0%" y1="0%" x2="100%" y2="0%">
            <stop stop-color="#3023AE" offset="0%"/>
            <stop stop-color="#C86DD7" offset="100%"/>
        </linearGradient>
    </defs>
    <path stroke="url(#stroke)"
        stroke-width="3"
        stroke-linejoin="round"
        stroke-linecap="round"
        d="M5.00 46.0001 C 5.44 44.57, 8.83 30.68, 10.00 29.74 S 14.21 36.75, 15.00 38.02 S 18.66 46.68, 20.00 46.00 S 24.32 34.29, 25.00 32.95 S 28.52 26.65, 30.00 26.42 S 33.62 30.81, 35.00 31.40 S 38.51 30.89, 40.00 30.68 S 43.59 29.49, 45.00 30.00 S 49.21 32.95, 50.00 34.22 S 54.03 44.86, 55.00 46.00 S 58.50 46.00, 60.00 46.00 S 64.41 47.38, 65.00 46.00 S 68.50 22.65, 70.00 22.65 S 74.41 44.62, 75.00 46.00 S 79.15 47.24, 80.00 46.00 S 83.50 31.37, 85.00 31.37 S 88.50 46.11, 90.00 46.00 S 93.50 30.66, 95.00 30.66 S 99.18 44.74, 100.00 46.00 S 103.50 46.00, 105.00 46.00 S 109.23 47.29, 110.00 46.00 S 113.50 29.32, 115.00 29.32 S 119.23 44.71, 120.00 46.00 S 124.26 47.30, 125.00 46.00 S 128.50 28.38, 130.00 28.38 S 134.26 44.70, 135.00 46.00 S 139.29 47.32, 140.00 46.00 S 143.50 27.49, 145.00 27.49 S 148.50 46.09, 150.00 46.00 S 153.50 26.92, 155.00 26.92 S 158.50 46.08, 160.00 46.00 S 164.33 27.70, 165.00 26.36 S 168.50 26.17, 170.00 26.09 S 174.33 24.48, 175.00 25.82 S 179.33 44.66, 180.00 46.00 S 183.50 46.00, 185.00 46.00 S 189.53 47.42, 190.00 46.00 S 194.37 17.36, 195.00 16.00 S 199.53 23.11, 200.00 24.54 S 204.66 44.54, 205.00 46.00"
        fill="none">
        <animate attributeName="stroke-dashoffset"
            from="521.645487756312" to="0" dur="2.2s"/>
        <animate attributeName="stroke-dasharray"
            from="521.645487756312" to="521.645487756312"/>
    </path>
    <circle r="4" cx="5" cy="46" fill="#3023AE"/>
    <circle r="4" cx="205" cy="46" fill="#C86DD7" opacity="0">
        <animate attributeName="opacity"
            from="0" to="1" dur="0.1s" begin="2.2s" fill="freeze"/>
    </circle>
</svg>