<svg width="200" height="50" viewBox="0 0 210 50" xmlns="http://www.w3.org/2000/svg">
    <!-- 34 stargazers -->
    <!-- created at Mon Mar 09 2026 08:45:49 GMT+0000 (Coordinated Universal Time) -->
    <defs>
        <linearGradient id="stroke" x1="0%" y1="0%" x2="100%" y2="0%">
            <stop stop-color="#3023AE" offset="0%"/>
            <stop stop-color="#C86DD7" offset="100%"/>
        </linearGradient>
    </defs>
    <path stroke="url(#stroke)"
        stroke-width="3"
        stroke-linejoin="round"
        stroke-linecap="round"
        d="M5.00 46.0001 C 5.35 44.54, 8.95 26.18, 10.00 25.11 S 14.35 34.40, 15.00 35.75 S 18.74 46.82, 20.00 46.00 S 24.45 30.63, 25.00 29.24 S 28.53 21.13, 30.00 20.84 S 33.68 26.52, 35.00 27.24 S 38.52 26.58, 40.00 26.32 S 43.63 24.82, 45.00 25.44 S 49.34 29.51, 50.00 30.86 S 54.17 44.75, 55.00 46.00 S 58.50 46.00, 60.00 46.00 S 64.53 47.42, 65.00 46.00 S 68.50 16.00, 70.00 16.00 S 74.53 44.58, 75.00 46.00 S 79.30 47.32, 80.00 46.00 S 83.50 27.21, 85.00 27.21 S 88.51 46.14, 90.00 46.00 S 93.50 26.29, 95.00 26.29 S 99.32 44.66, 100.00 46.00 S 103.50 46.00, 105.00 46.00 S 109.37 47.36, 110.00 46.00 S 113.50 24.57, 115.00 24.57 S 119.37 44.64, 120.00 46.00 S 124.39 47.37, 125.00 46.00 S 128.50 23.36, 130.00 23.36 S 134.39 44.63, 135.00 46.00 S 139.42 47.38, 140.00 46.00 S 143.50 22.22, 145.00 22.22 S 148.50 46.11, 150.00 46.00 S 153.50 21.48, 155.00 21.48 S 158.50 46.11, 160.00 46.00 S 164.45 22.17, 165.00 20.77 S 168.50 20.53, 170.00 20.42 S 174.45 18.68, 175.00 20.08 S 179.46 44.60, 180.00 46.00 S 184.48 47.41, 185.00 46.00 S 189.48 20.48, 190.00 19.07 S 193.50 18.84, 195.00 18.75 S 199.48 17.01, 200.00 18.42 S 204.73 44.52, 205.00 46.00"
        fill="none">
        <animate attributeName="stroke-dashoffset"
            from="619.4113516213597" to="0" dur="2.2s"/>
        <animate attributeName="stroke-dasharray"
            from="619.4113516213597" to="619.4113516213597"/>
    </path>
    <circle r="4" cx="5" cy="46" fill="#3023AE"/>
    <circle r="4" cx="205" cy="46" fill="#C86DD7" opacity="0">
        <animate attributeName="opacity"
            from="0" to="1" dur="0.1s" begin="2.2s" fill="freeze"/>
    </circle>
</svg>