<svg width="200" height="50" viewBox="0 0 210 50" xmlns="http://www.w3.org/2000/svg">
    <!-- 34 stargazers -->
    <!-- created at Sat May 02 2026 12:32:02 GMT+0000 (Coordinated Universal Time) -->
    <defs>
        <linearGradient id="stroke" x1="0%" y1="0%" x2="100%" y2="0%">
            <stop stop-color="#3023AE" offset="0%"/>
            <stop stop-color="#C86DD7" offset="100%"/>
        </linearGradient>
    </defs>
    <path stroke="url(#stroke)"
        stroke-width="3"
        stroke-linejoin="round"
        stroke-linecap="round"
        d="M5.00 46.0001 C 5.34 44.54, 8.97 25.56, 10.00 24.47 S 14.37 34.07, 15.00 35.44 S 18.75 46.84, 20.00 46.00 S 24.51 30.14, 25.00 28.72 S 28.59 16.49, 30.00 17.00 S 33.87 31.34, 35.00 32.32 S 38.80 26.61, 40.00 25.71 S 43.64 24.17, 45.00 24.80 S 49.36 29.04, 50.00 30.40 S 54.19 44.74, 55.00 46.00 S 59.53 47.42, 60.00 46.00 S 63.50 16.00, 65.00 16.00 S 69.53 44.58, 70.00 46.00 S 73.50 46.00, 75.00 46.00 S 79.31 47.33, 80.00 46.00 S 83.50 26.63, 85.00 26.63 S 88.51 46.14, 90.00 46.00 S 93.50 25.68, 95.00 25.68 S 99.34 44.65, 100.00 46.00 S 103.50 46.00, 105.00 46.00 S 109.38 47.37, 110.00 46.00 S 113.50 23.90, 115.00 23.90 S 118.51 46.12, 120.00 46.00 S 123.50 23.07, 125.00 23.07 S 129.40 44.63, 130.00 46.00 S 134.43 47.39, 135.00 46.00 S 138.50 21.87, 140.00 21.87 S 143.50 46.11, 145.00 46.00 S 148.50 21.10, 150.00 21.10 S 153.50 46.11, 155.00 46.00 S 159.46 21.76, 160.00 20.36 S 163.50 20.10, 165.00 19.99 S 169.46 18.23, 170.00 19.63 S 174.47 44.60, 175.00 46.00 S 179.49 47.41, 180.00 46.00 S 184.49 19.99, 185.00 18.58 S 188.50 18.34, 190.00 18.24 S 194.49 16.49, 195.00 17.90 S 199.50 44.59, 200.00 46.00 S 203.50 46.00, 205.00 46.00"
        fill="none">
        <animate attributeName="stroke-dashoffset"
            from="643.4771543822577" to="0" dur="2.2s"/>
        <animate attributeName="stroke-dasharray"
            from="643.4771543822577" to="643.4771543822577"/>
    </path>
    <circle r="4" cx="5" cy="46" fill="#3023AE"/>
    <circle r="4" cx="205" cy="46" fill="#C86DD7" opacity="0">
        <animate attributeName="opacity"
            from="0" to="1" dur="0.1s" begin="2.2s" fill="freeze"/>
    </circle>
</svg>