<svg width="200" height="50" viewBox="0 0 210 50" xmlns="http://www.w3.org/2000/svg">
    <!-- 34 stargazers -->
    <!-- created at Thu Apr 30 2026 16:23:51 GMT+0000 (Coordinated Universal Time) -->
    <defs>
        <linearGradient id="stroke" x1="0%" y1="0%" x2="100%" y2="0%">
            <stop stop-color="#3023AE" offset="0%"/>
            <stop stop-color="#C86DD7" offset="100%"/>
        </linearGradient>
    </defs>
    <path stroke="url(#stroke)"
        stroke-width="3"
        stroke-linejoin="round"
        stroke-linecap="round"
        d="M5.00 46.0001 C 5.44 44.56, 8.83 30.49, 10.00 29.54 S 14.22 36.64, 15.00 37.93 S 18.67 46.68, 20.00 46.00 S 24.38 34.16, 25.00 32.79 S 28.55 23.44, 30.00 23.84 S 33.75 34.72, 35.00 35.55 S 38.70 31.24, 40.00 30.49 S 43.59 29.30, 45.00 29.80 S 49.21 32.80, 50.00 34.08 S 54.04 44.85, 55.00 46.00 S 59.40 47.37, 60.00 46.00 S 63.50 23.07, 65.00 23.07 S 69.40 44.63, 70.00 46.00 S 73.50 46.00, 75.00 46.00 S 79.16 47.24, 80.00 46.00 S 83.50 31.20, 85.00 31.20 S 88.50 46.11, 90.00 46.00 S 93.50 30.47, 95.00 30.47 S 99.19 44.74, 100.00 46.00 S 103.50 46.00, 105.00 46.00 S 109.24 47.29, 110.00 46.00 S 113.50 29.11, 115.00 29.11 S 118.50 46.10, 120.00 46.00 S 123.50 28.48, 125.00 28.48 S 129.26 44.70, 130.00 46.00 S 134.28 47.32, 135.00 46.00 S 138.50 27.56, 140.00 27.56 S 143.50 46.09, 145.00 46.00 S 148.50 26.97, 150.00 26.97 S 153.50 46.09, 155.00 46.00 S 159.33 27.74, 160.00 26.40 S 163.50 26.21, 165.00 26.12 S 169.33 24.51, 170.00 25.85 S 174.33 44.66, 175.00 46.00 S 178.50 46.00, 180.00 46.00 S 184.53 47.42, 185.00 46.00 S 189.37 17.36, 190.00 16.00 S 194.53 23.11, 195.00 24.53 S 199.37 44.64, 200.00 46.00 S 203.50 46.00, 205.00 46.00"
        fill="none">
        <animate attributeName="stroke-dashoffset"
            from="532.1057099925052" to="0" dur="2.2s"/>
        <animate attributeName="stroke-dasharray"
            from="532.1057099925052" to="532.1057099925052"/>
    </path>
    <circle r="4" cx="5" cy="46" fill="#3023AE"/>
    <circle r="4" cx="205" cy="46" fill="#C86DD7" opacity="0">
        <animate attributeName="opacity"
            from="0" to="1" dur="0.1s" begin="2.2s" fill="freeze"/>
    </circle>
</svg>