<svg width="200" height="50" viewBox="0 0 210 50" xmlns="http://www.w3.org/2000/svg">
    <!-- 329 stargazers -->
    <!-- created at Tue Apr 21 2026 04:30:30 GMT+0000 (Coordinated Universal Time) -->
    <defs>
        <linearGradient id="stroke" x1="0%" y1="0%" x2="100%" y2="0%">
            <stop stop-color="#3023AE" offset="0%"/>
            <stop stop-color="#C86DD7" offset="100%"/>
        </linearGradient>
    </defs>
    <path stroke="url(#stroke)"
        stroke-width="3"
        stroke-linejoin="round"
        stroke-linecap="round"
        d="M5.00 46.0001 C 5.69 44.67, 9.09 37.59, 10.00 36.40 S 13.61 33.43, 15.00 32.87 S 18.52 32.54, 20.00 32.32 S 23.59 31.86, 25.00 31.36 S 28.52 29.02, 30.00 28.77 S 33.51 29.80, 35.00 29.62 S 38.64 28.18, 40.00 27.54 S 43.71 25.63, 45.00 24.87 S 48.61 21.11, 50.00 21.68 S 53.51 28.78, 55.00 28.98 S 58.56 23.45, 60.00 23.03 S 63.67 25.38, 65.00 26.07 S 68.50 28.25, 70.00 28.20 S 73.50 25.74, 75.00 25.75 S 78.53 27.96, 80.00 28.26 S 83.50 27.75, 85.00 27.79 S 88.50 28.50, 90.00 28.55 S 93.50 28.06, 95.00 28.14 S 98.50 29.00, 100.00 29.09 S 103.71 29.48, 105.00 28.72 S 108.76 22.38, 110.00 23.24 S 113.52 35.38, 115.00 35.62 S 118.93 25.89, 120.00 24.84 S 123.81 24.92, 125.00 25.84 S 128.65 33.22, 130.00 32.57 S 134.22 22.34, 135.00 21.06 S 138.66 15.33, 140.00 16.00 S 144.19 24.78, 145.00 26.05 S 148.50 31.76, 150.00 31.67 S 153.84 26.38, 155.00 25.43 S 158.58 22.99, 160.00 23.46 S 164.12 27.50, 165.00 28.72 S 168.50 37.31, 170.00 37.24 S 173.61 28.79, 175.00 28.24 S 178.53 32.99, 180.00 33.28 S 183.50 30.27, 185.00 30.22 S 188.55 32.58, 190.00 32.96 S 193.59 32.29, 195.00 32.80 S 199.09 35.36, 200.00 36.55 S 204.30 44.67, 205.00 46.00"
        fill="none">
        <animate attributeName="stroke-dashoffset"
            from="289.2302175136832" to="0" dur="2.2s"/>
        <animate attributeName="stroke-dasharray"
            from="289.2302175136832" to="289.2302175136832"/>
    </path>
    <circle r="4" cx="5" cy="46" fill="#3023AE"/>
    <circle r="4" cx="205" cy="46" fill="#C86DD7" opacity="0">
        <animate attributeName="opacity"
            from="0" to="1" dur="0.1s" begin="2.2s" fill="freeze"/>
    </circle>
</svg>