<svg width="200" height="50" viewBox="0 0 210 50" xmlns="http://www.w3.org/2000/svg">
    <!-- 329 stargazers -->
    <!-- created at Mon Apr 27 2026 08:34:40 GMT+0000 (Coordinated Universal Time) -->
    <defs>
        <linearGradient id="stroke" x1="0%" y1="0%" x2="100%" y2="0%">
            <stop stop-color="#3023AE" offset="0%"/>
            <stop stop-color="#C86DD7" offset="100%"/>
        </linearGradient>
    </defs>
    <path stroke="url(#stroke)"
        stroke-width="3"
        stroke-linejoin="round"
        stroke-linecap="round"
        d="M5.00 46.0001 C 5.70 44.67, 9.08 37.76, 10.00 36.57 S 13.61 33.66, 15.00 33.10 S 18.52 32.78, 20.00 32.56 S 23.58 32.12, 25.00 31.62 S 28.52 29.33, 30.00 29.07 S 33.51 30.09, 35.00 29.91 S 38.70 28.62, 40.00 27.87 S 43.64 24.76, 45.00 24.13 S 48.56 22.82, 50.00 23.23 S 53.54 26.61, 55.00 26.94 S 58.50 25.61, 60.00 25.53 S 63.56 25.99, 65.00 26.42 S 68.50 28.57, 70.00 28.52 S 73.50 26.11, 75.00 26.11 S 78.51 28.44, 80.00 28.57 S 83.52 26.81, 85.00 27.04 S 88.51 29.92, 90.00 30.13 S 93.53 28.76, 95.00 28.46 S 98.50 27.97, 100.00 28.06 S 103.57 29.50, 105.00 29.03 S 108.55 24.42, 110.00 24.79 S 113.57 31.12, 115.00 31.58 S 118.68 28.71, 120.00 28.00 S 123.51 26.06, 125.00 26.20 S 128.95 30.04, 130.00 28.97 S 133.60 16.53, 135.00 16.00 S 138.96 24.09, 140.00 25.17 S 143.76 25.56, 145.00 26.40 S 148.54 32.25, 150.00 31.93 S 153.99 25.29, 155.00 24.18 S 159.10 19.70, 160.00 20.90 S 163.95 36.44, 165.00 37.51 S 168.60 31.64, 170.00 31.10 S 173.50 33.73, 175.00 33.67 S 178.57 31.15, 180.00 30.70 S 183.73 29.71, 185.00 30.50 S 188.55 36.57, 190.00 36.94 S 193.50 33.07, 195.00 33.03 S 199.08 35.54, 200.00 36.72 S 204.29 44.68, 205.00 46.00"
        fill="none">
        <animate attributeName="stroke-dashoffset"
            from="275.2792340661185" to="0" dur="2.2s"/>
        <animate attributeName="stroke-dasharray"
            from="275.2792340661185" to="275.2792340661185"/>
    </path>
    <circle r="4" cx="5" cy="46" fill="#3023AE"/>
    <circle r="4" cx="205" cy="46" fill="#C86DD7" opacity="0">
        <animate attributeName="opacity"
            from="0" to="1" dur="0.1s" begin="2.2s" fill="freeze"/>
    </circle>
</svg>