<svg width="200" height="50" viewBox="0 0 210 50" xmlns="http://www.w3.org/2000/svg">
    <!-- 328 stargazers -->
    <!-- created at Thu Mar 12 2026 09:45:12 GMT+0000 (Coordinated Universal Time) -->
    <defs>
        <linearGradient id="stroke" x1="0%" y1="0%" x2="100%" y2="0%">
            <stop stop-color="#3023AE" offset="0%"/>
            <stop stop-color="#C86DD7" offset="100%"/>
        </linearGradient>
    </defs>
    <path stroke="url(#stroke)"
        stroke-width="3"
        stroke-linejoin="round"
        stroke-linecap="round"
        d="M5.00 46.0001 C 5.73 44.69, 9.10 38.29, 10.00 37.09 S 13.61 33.18, 15.00 32.62 S 18.50 33.04, 20.00 33.06 S 23.69 33.47, 25.00 32.75 S 28.54 27.84, 30.00 27.52 S 33.54 30.18, 35.00 30.51 S 38.74 30.56, 40.00 29.75 S 43.75 24.90, 45.00 24.08 S 48.67 22.49, 50.00 23.18 S 53.51 29.41, 55.00 29.25 S 58.51 22.27, 60.00 22.10 S 63.63 27.47, 65.00 28.09 S 68.51 26.80, 70.00 26.63 S 73.56 26.56, 75.00 27.00 S 78.51 29.50, 80.00 29.67 S 83.50 28.02, 85.00 28.08 S 88.50 30.05, 90.00 30.10 S 93.53 28.72, 95.00 28.42 S 98.53 27.72, 100.00 28.02 S 103.50 30.59, 105.00 30.48 S 108.65 27.92, 110.00 27.26 S 113.61 25.00, 115.00 25.56 S 118.53 30.97, 120.00 31.27 S 123.68 28.35, 125.00 27.63 S 128.65 25.15, 130.00 25.81 S 133.65 33.20, 135.00 32.55 S 139.22 22.33, 140.00 21.05 S 143.76 15.16, 145.00 16.00 S 149.11 26.59, 150.00 27.79 S 153.50 29.55, 155.00 29.47 S 158.71 28.02, 160.00 27.25 S 163.52 23.27, 165.00 23.50 S 168.95 27.69, 170.00 28.75 S 173.64 33.00, 175.00 33.64 S 178.69 34.21, 180.00 33.48 S 183.58 27.58, 185.00 28.07 S 188.53 36.63, 190.00 36.92 S 193.50 30.12, 195.00 30.09 S 198.55 36.32, 200.00 36.70 S 203.83 33.64, 205.00 32.70"
        fill="none">
        <animate attributeName="stroke-dashoffset"
            from="277.1434830568748" to="0" dur="2.2s"/>
        <animate attributeName="stroke-dasharray"
            from="277.1434830568748" to="277.1434830568748"/>
    </path>
    <circle r="4" cx="5" cy="46" fill="#3023AE"/>
    <circle r="4" cx="205" cy="32.70051212280406" fill="#C86DD7" opacity="0">
        <animate attributeName="opacity"
            from="0" to="1" dur="0.1s" begin="2.2s" fill="freeze"/>
    </circle>
</svg>