<svg width="200" height="50" viewBox="0 0 210 50" xmlns="http://www.w3.org/2000/svg">
    <!-- 328 stargazers -->
    <!-- created at Mon Mar 09 2026 09:23:30 GMT+0000 (Coordinated Universal Time) -->
    <defs>
        <linearGradient id="stroke" x1="0%" y1="0%" x2="100%" y2="0%">
            <stop stop-color="#3023AE" offset="0%"/>
            <stop stop-color="#C86DD7" offset="100%"/>
        </linearGradient>
    </defs>
    <path stroke="url(#stroke)"
        stroke-width="3"
        stroke-linejoin="round"
        stroke-linecap="round"
        d="M5.00 46.0001 C 5.71 44.68, 9.12 37.97, 10.00 36.76 S 13.62 32.69, 15.00 32.11 S 18.50 32.55, 20.00 32.57 S 23.70 32.99, 25.00 32.25 S 28.54 27.16, 30.00 26.82 S 33.54 29.59, 35.00 29.92 S 38.75 29.97, 40.00 29.13 S 43.69 23.99, 45.00 23.25 S 48.63 22.92, 50.00 23.53 S 53.56 28.20, 55.00 27.77 S 58.50 20.61, 60.00 20.55 S 63.68 26.71, 65.00 27.41 S 68.50 25.92, 70.00 25.90 S 73.57 26.84, 75.00 27.29 S 78.51 29.20, 80.00 29.05 S 83.50 26.21, 85.00 26.28 S 88.52 29.28, 90.00 29.50 S 93.53 28.07, 95.00 27.76 S 98.53 27.03, 100.00 27.34 S 103.50 29.80, 105.00 29.89 S 108.74 28.80, 110.00 27.99 S 113.55 23.11, 115.00 23.50 S 118.58 30.23, 120.00 30.72 S 123.70 27.68, 125.00 26.94 S 128.81 24.13, 130.00 25.05 S 133.73 35.40, 135.00 34.61 S 139.29 20.16, 140.00 18.84 S 143.84 15.04, 145.00 16.00 S 148.98 26.00, 150.00 27.11 S 153.50 26.91, 155.00 26.82 S 158.62 27.12, 160.00 26.54 S 163.52 22.42, 165.00 22.65 S 168.97 27.02, 170.00 28.10 S 173.65 32.51, 175.00 33.18 S 178.58 33.48, 180.00 33.01 S 183.50 29.93, 185.00 29.88 S 188.50 32.74, 190.00 32.68 S 193.59 28.97, 195.00 29.49 S 198.55 35.96, 200.00 36.35 S 203.85 33.16, 205.00 32.20"
        fill="none">
        <animate attributeName="stroke-dashoffset"
            from="276.2509745256059" to="0" dur="2.2s"/>
        <animate attributeName="stroke-dasharray"
            from="276.2509745256059" to="276.2509745256059"/>
    </path>
    <circle r="4" cx="5" cy="46" fill="#3023AE"/>
    <circle r="4" cx="205" cy="32.19846917872031" fill="#C86DD7" opacity="0">
        <animate attributeName="opacity"
            from="0" to="1" dur="0.1s" begin="2.2s" fill="freeze"/>
    </circle>
</svg>