<svg width="200" height="50" viewBox="0 0 210 50" xmlns="http://www.w3.org/2000/svg">
    <!-- 329 stargazers -->
    <!-- created at Sat Apr 18 2026 04:20:53 GMT+0000 (Coordinated Universal Time) -->
    <defs>
        <linearGradient id="stroke" x1="0%" y1="0%" x2="100%" y2="0%">
            <stop stop-color="#3023AE" offset="0%"/>
            <stop stop-color="#C86DD7" offset="100%"/>
        </linearGradient>
    </defs>
    <path stroke="url(#stroke)"
        stroke-width="3"
        stroke-linejoin="round"
        stroke-linecap="round"
        d="M5.00 46.0001 C 5.69 44.67, 9.09 37.59, 10.00 36.40 S 13.61 33.43, 15.00 32.87 S 18.52 32.54, 20.00 32.32 S 23.59 31.86, 25.00 31.36 S 28.52 29.02, 30.00 28.77 S 33.50 29.71, 35.00 29.62 S 38.68 28.87, 40.00 28.16 S 43.71 25.06, 45.00 24.29 S 48.60 21.70, 50.00 22.24 S 53.50 28.03, 55.00 28.15 S 58.53 23.34, 60.00 23.03 S 63.67 25.38, 65.00 26.07 S 68.50 28.11, 70.00 28.20 S 73.51 26.85, 75.00 26.69 S 78.51 27.02, 80.00 27.18 S 83.51 27.59, 85.00 27.79 S 88.52 28.30, 90.00 28.55 S 93.50 29.58, 95.00 29.46 S 98.50 27.84, 100.00 27.73 S 103.63 29.34, 105.00 28.72 S 108.76 22.38, 110.00 23.24 S 113.52 35.38, 115.00 35.62 S 118.93 25.89, 120.00 24.84 S 123.95 24.77, 125.00 25.84 S 128.71 35.81, 130.00 35.03 S 134.30 21.17, 135.00 19.84 S 138.73 15.21, 140.00 16.00 S 144.19 24.78, 145.00 26.05 S 148.50 31.76, 150.00 31.67 S 153.84 26.38, 155.00 25.43 S 158.69 22.72, 160.00 23.46 S 163.95 29.96, 165.00 31.03 S 168.50 33.67, 170.00 33.61 S 173.57 31.08, 175.00 30.62 S 178.50 30.48, 180.00 30.42 S 183.55 29.85, 185.00 30.22 S 188.55 32.58, 190.00 32.96 S 193.59 32.29, 195.00 32.80 S 199.09 35.36, 200.00 36.55 S 204.30 44.67, 205.00 46.00"
        fill="none">
        <animate attributeName="stroke-dashoffset"
            from="281.1585313385484" to="0" dur="2.2s"/>
        <animate attributeName="stroke-dasharray"
            from="281.1585313385484" to="281.1585313385484"/>
    </path>
    <circle r="4" cx="5" cy="46" fill="#3023AE"/>
    <circle r="4" cx="205" cy="46" fill="#C86DD7" opacity="0">
        <animate attributeName="opacity"
            from="0" to="1" dur="0.1s" begin="2.2s" fill="freeze"/>
    </circle>
</svg>