<svg width="200" height="50" viewBox="0 0 210 50" xmlns="http://www.w3.org/2000/svg">
    <!-- 330 stargazers -->
    <!-- created at Sat May 09 2026 11:42:09 GMT+0000 (Coordinated Universal Time) -->
    <defs>
        <linearGradient id="stroke" x1="0%" y1="0%" x2="100%" y2="0%">
            <stop stop-color="#3023AE" offset="0%"/>
            <stop stop-color="#C86DD7" offset="100%"/>
        </linearGradient>
    </defs>
    <path stroke="url(#stroke)"
        stroke-width="3"
        stroke-linejoin="round"
        stroke-linecap="round"
        d="M5.00 46.0001 C 5.74 44.69, 9.05 38.30, 10.00 37.14 S 13.60 34.41, 15.00 33.88 S 18.51 33.58, 20.00 33.38 S 23.57 32.96, 25.00 32.50 S 28.52 30.34, 30.00 30.10 S 33.55 31.29, 35.00 30.89 S 38.65 28.00, 40.00 27.34 S 43.52 26.22, 45.00 25.97 S 48.50 25.68, 50.00 25.71 S 53.54 25.78, 55.00 26.14 S 58.50 28.09, 60.00 28.20 S 63.58 26.39, 65.00 26.86 S 68.51 31.69, 70.00 31.52 S 73.51 25.82, 75.00 25.69 S 78.58 30.19, 80.00 30.69 S 83.53 29.49, 85.00 29.21 S 88.50 28.74, 90.00 28.79 S 93.56 29.09, 95.00 29.52 S 98.53 32.04, 100.00 31.76 S 103.58 28.07, 105.00 27.60 S 108.52 28.16, 110.00 28.43 S 113.53 29.10, 115.00 29.41 S 118.53 30.86, 120.00 30.57 S 123.50 27.49, 125.00 27.40 S 129.01 31.13, 130.00 30.00 S 133.53 16.31, 135.00 16.00 S 139.17 26.63, 140.00 27.88 S 143.50 31.06, 145.00 30.97 S 148.76 28.16, 150.00 27.31 S 153.51 23.92, 155.00 24.09 S 158.97 27.33, 160.00 28.42 S 163.59 34.22, 165.00 34.73 S 168.56 32.42, 170.00 32.00 S 173.70 31.07, 175.00 31.81 S 178.50 37.76, 180.00 37.70 S 183.74 32.26, 185.00 31.44 S 188.71 30.50, 190.00 31.26 S 194.16 36.15, 195.00 37.39 S 198.50 46.03, 200.00 46.00 S 204.26 38.49, 205.00 37.19"
        fill="none">
        <animate attributeName="stroke-dashoffset"
            from="267.8516950694254" to="0" dur="2.2s"/>
        <animate attributeName="stroke-dasharray"
            from="267.8516950694254" to="267.8516950694254"/>
    </path>
    <circle r="4" cx="5" cy="46" fill="#3023AE"/>
    <circle r="4" cx="205" cy="37.18542321236325" fill="#C86DD7" opacity="0">
        <animate attributeName="opacity"
            from="0" to="1" dur="0.1s" begin="2.2s" fill="freeze"/>
    </circle>
</svg>