<svg width="200" height="50" viewBox="0 0 210 50" xmlns="http://www.w3.org/2000/svg">
    <!-- 328 stargazers -->
    <!-- created at Sun Mar 15 2026 09:52:20 GMT+0000 (Coordinated Universal Time) -->
    <defs>
        <linearGradient id="stroke" x1="0%" y1="0%" x2="100%" y2="0%">
            <stop stop-color="#3023AE" offset="0%"/>
            <stop stop-color="#C86DD7" offset="100%"/>
        </linearGradient>
    </defs>
    <path stroke="url(#stroke)"
        stroke-width="3"
        stroke-linejoin="round"
        stroke-linecap="round"
        d="M5.00 46.0001 C 5.68 44.66, 9.16 37.46, 10.00 36.22 S 13.63 31.92, 15.00 31.32 S 18.50 31.78, 20.00 31.80 S 23.72 32.24, 25.00 31.46 S 28.57 26.17, 30.00 25.71 S 33.57 27.85, 35.00 28.31 S 38.73 29.73, 40.00 28.92 S 43.83 22.88, 45.00 21.94 S 48.65 20.31, 50.00 20.96 S 53.51 26.90, 55.00 26.72 S 58.50 19.68, 60.00 19.77 S 63.66 26.68, 65.00 27.35 S 68.54 25.07, 70.00 24.75 S 73.58 24.67, 75.00 25.15 S 78.51 27.90, 80.00 28.07 S 83.50 26.26, 85.00 26.34 S 88.50 28.49, 90.00 28.55 S 93.54 27.04, 95.00 26.71 S 98.54 25.94, 100.00 26.27 S 103.54 29.30, 105.00 28.97 S 108.60 24.56, 110.00 24.01 S 113.70 24.26, 115.00 25.02 S 118.51 29.72, 120.00 29.84 S 123.71 26.61, 125.00 25.84 S 128.57 23.39, 130.00 23.84 S 133.82 29.89, 135.00 28.96 S 139.05 17.16, 140.00 16.00 S 143.84 15.87, 145.00 16.82 S 149.11 22.91, 150.00 24.11 S 153.51 30.09, 155.00 30.29 S 158.98 26.52, 160.00 25.42 S 163.62 19.02, 165.00 19.60 S 169.08 28.43, 170.00 29.61 S 173.50 32.50, 175.00 32.44 S 178.58 29.67, 180.00 29.17 S 183.76 28.11, 185.00 28.96 S 188.50 36.10, 190.00 36.04 S 193.63 29.15, 195.00 28.54 S 198.78 30.70, 200.00 31.57 S 203.84 34.73, 205.00 35.68"
        fill="none">
        <animate attributeName="stroke-dashoffset"
            from="279.5299078480641" to="0" dur="2.2s"/>
        <animate attributeName="stroke-dasharray"
            from="279.5299078480641" to="279.5299078480641"/>
    </path>
    <circle r="4" cx="5" cy="46" fill="#3023AE"/>
    <circle r="4" cx="205" cy="35.67949842245936" fill="#C86DD7" opacity="0">
        <animate attributeName="opacity"
            from="0" to="1" dur="0.1s" begin="2.2s" fill="freeze"/>
    </circle>
</svg>