<svg width="200" height="50" viewBox="0 0 210 50" xmlns="http://www.w3.org/2000/svg">
    <!-- 330 stargazers -->
    <!-- created at Sun May 03 2026 09:21:38 GMT+0000 (Coordinated Universal Time) -->
    <defs>
        <linearGradient id="stroke" x1="0%" y1="0%" x2="100%" y2="0%">
            <stop stop-color="#3023AE" offset="0%"/>
            <stop stop-color="#C86DD7" offset="100%"/>
        </linearGradient>
    </defs>
    <path stroke="url(#stroke)"
        stroke-width="3"
        stroke-linejoin="round"
        stroke-linecap="round"
        d="M5.00 46.0001 C 5.72 44.68, 9.06 38.04, 10.00 36.87 S 13.60 34.05, 15.00 33.51 S 18.52 33.20, 20.00 32.99 S 23.58 32.56, 25.00 32.08 S 28.52 29.86, 30.00 29.61 S 33.52 30.68, 35.00 30.42 S 38.66 28.55, 40.00 27.87 S 43.60 25.90, 45.00 25.36 S 48.51 23.83, 50.00 23.95 S 53.56 25.76, 55.00 26.18 S 58.52 26.65, 60.00 26.90 S 63.53 27.53, 65.00 27.85 S 68.55 29.48, 70.00 29.08 S 73.51 24.90, 75.00 25.07 S 78.59 29.71, 80.00 30.22 S 83.50 28.81, 85.00 28.69 S 88.52 29.17, 90.00 29.41 S 93.50 30.39, 95.00 30.27 S 98.53 28.93, 100.00 28.63 S 103.53 28.55, 105.00 28.26 S 108.60 26.11, 110.00 26.64 S 113.53 31.75, 115.00 32.04 S 118.67 29.27, 120.00 28.57 S 123.50 26.93, 125.00 26.83 S 128.98 29.04, 130.00 27.94 S 133.50 16.09, 135.00 16.00 S 139.07 26.15, 140.00 27.32 S 143.51 28.52, 145.00 28.68 S 148.60 28.94, 150.00 28.41 S 153.60 25.41, 155.00 24.87 S 158.91 23.53, 160.00 24.56 S 163.92 33.34, 165.00 34.38 S 168.56 34.65, 170.00 34.22 S 173.50 31.42, 175.00 31.38 S 178.50 33.96, 180.00 33.90 S 183.50 31.04, 185.00 31.00 S 188.54 33.24, 190.00 33.60 S 194.06 32.28, 195.00 33.45 S 198.58 45.51, 200.00 46.00 S 204.28 38.23, 205.00 36.91"
        fill="none">
        <animate attributeName="stroke-dashoffset"
            from="260.08785817431306" to="0" dur="2.2s"/>
        <animate attributeName="stroke-dasharray"
            from="260.08785817431306" to="260.08785817431306"/>
    </path>
    <circle r="4" cx="5" cy="46" fill="#3023AE"/>
    <circle r="4" cx="205" cy="36.914142214864654" fill="#C86DD7" opacity="0">
        <animate attributeName="opacity"
            from="0" to="1" dur="0.1s" begin="2.2s" fill="freeze"/>
    </circle>
</svg>