<svg width="200" height="50" viewBox="0 0 210 50" xmlns="http://www.w3.org/2000/svg">
    <!-- 329 stargazers -->
    <!-- created at Mon Mar 30 2026 19:29:16 GMT+0000 (Coordinated Universal Time) -->
    <defs>
        <linearGradient id="stroke" x1="0%" y1="0%" x2="100%" y2="0%">
            <stop stop-color="#3023AE" offset="0%"/>
            <stop stop-color="#C86DD7" offset="100%"/>
        </linearGradient>
    </defs>
    <path stroke="url(#stroke)"
        stroke-width="3"
        stroke-linejoin="round"
        stroke-linecap="round"
        d="M5.00 46.0001 C 5.78 44.72, 9.06 38.95, 10.00 37.79 S 13.62 34.24, 15.00 33.66 S 18.50 33.48, 20.00 33.58 S 23.64 34.98, 25.00 34.35 S 28.57 29.42, 30.00 28.96 S 33.53 30.83, 35.00 31.13 S 38.68 31.72, 40.00 31.01 S 43.75 26.61, 45.00 25.79 S 48.61 23.88, 50.00 24.44 S 53.50 29.70, 55.00 29.80 S 58.55 25.54, 60.00 25.15 S 63.69 26.44, 65.00 27.17 S 68.51 30.58, 70.00 30.77 S 73.55 28.88, 75.00 28.48 S 78.57 27.54, 80.00 28.00 S 83.51 31.53, 85.00 31.69 S 88.50 28.98, 90.00 29.07 S 93.50 32.42, 95.00 32.30 S 98.50 28.37, 100.00 28.28 S 103.50 31.80, 105.00 31.69 S 108.50 27.61, 110.00 27.52 S 113.52 30.83, 115.00 31.10 S 118.53 29.67, 120.00 29.37 S 123.51 28.93, 125.00 29.06 S 128.51 30.13, 130.00 30.26 S 134.14 31.22, 135.00 30.00 S 138.53 16.31, 140.00 16.00 S 144.17 26.64, 145.00 27.89 S 148.51 30.83, 150.00 30.98 S 153.68 29.68, 155.00 28.96 S 158.59 26.06, 160.00 25.54 S 163.90 24.24, 165.00 25.25 S 168.90 33.73, 170.00 34.76 S 173.50 34.65, 175.00 34.61 S 178.56 34.88, 180.00 34.46 S 183.56 32.11, 185.00 31.68 S 188.71 30.75, 190.00 31.50 S 193.54 37.18, 195.00 37.53 S 198.50 33.91, 200.00 33.88 S 203.77 36.48, 205.00 37.33"
        fill="none">
        <animate attributeName="stroke-dashoffset"
            from="261.4025402318777" to="0" dur="2.2s"/>
        <animate attributeName="stroke-dasharray"
            from="261.4025402318777" to="261.4025402318777"/>
    </path>
    <circle r="4" cx="5" cy="46" fill="#3023AE"/>
    <circle r="4" cx="205" cy="37.329044310274064" fill="#C86DD7" opacity="0">
        <animate attributeName="opacity"
            from="0" to="1" dur="0.1s" begin="2.2s" fill="freeze"/>
    </circle>
</svg>