<svg width="200" height="50" viewBox="0 0 210 50" xmlns="http://www.w3.org/2000/svg">
    <!-- 331 stargazers -->
    <!-- created at Tue May 12 2026 13:02:28 GMT+0000 (Coordinated Universal Time) -->
    <defs>
        <linearGradient id="stroke" x1="0%" y1="0%" x2="100%" y2="0%">
            <stop stop-color="#3023AE" offset="0%"/>
            <stop stop-color="#C86DD7" offset="100%"/>
        </linearGradient>
    </defs>
    <path stroke="url(#stroke)"
        stroke-width="3"
        stroke-linejoin="round"
        stroke-linecap="round"
        d="M5.00 46.0001 C 5.72 44.68, 9.06 38.04, 10.00 36.87 S 13.60 34.05, 15.00 33.51 S 18.52 33.20, 20.00 32.99 S 23.58 32.56, 25.00 32.08 S 28.52 29.86, 30.00 29.61 S 33.56 30.83, 35.00 30.42 S 38.66 27.45, 40.00 26.77 S 43.54 25.69, 45.00 25.36 S 48.51 24.39, 50.00 24.51 S 53.57 25.73, 55.00 26.18 S 58.50 27.64, 60.00 27.65 S 63.54 25.92, 65.00 26.27 S 68.51 30.22, 70.00 30.04 S 73.51 24.87, 75.00 25.07 S 78.59 30.88, 80.00 31.39 S 83.57 29.14, 85.00 28.69 S 88.50 28.21, 90.00 28.26 S 93.57 28.57, 95.00 29.01 S 98.53 31.61, 100.00 31.32 S 103.58 27.52, 105.00 27.03 S 108.50 27.81, 110.00 27.89 S 113.54 27.21, 115.00 27.53 S 118.50 29.98, 120.00 30.09 S 123.53 28.57, 125.00 28.25 S 129.05 29.10, 130.00 27.94 S 133.50 16.09, 135.00 16.00 S 139.07 26.15, 140.00 27.32 S 143.53 28.99, 145.00 28.68 S 148.60 25.72, 150.00 25.19 S 153.64 24.24, 155.00 24.87 S 158.91 28.76, 160.00 29.80 S 163.52 34.12, 165.00 34.38 S 168.56 32.00, 170.00 31.57 S 173.54 31.04, 175.00 31.38 S 178.54 33.56, 180.00 33.90 S 183.57 34.19, 185.00 33.75 S 188.58 30.33, 190.00 30.81 S 194.18 35.87, 195.00 37.12 S 198.61 46.55, 200.00 46.00 S 204.46 34.55, 205.00 33.15"
        fill="none">
        <animate attributeName="stroke-dashoffset"
            from="262.1385955566563" to="0" dur="2.2s"/>
        <animate attributeName="stroke-dasharray"
            from="262.1385955566563" to="262.1385955566563"/>
    </path>
    <circle r="4" cx="5" cy="46" fill="#3023AE"/>
    <circle r="4" cx="205" cy="33.15065669446847" fill="#C86DD7" opacity="0">
        <animate attributeName="opacity"
            from="0" to="1" dur="0.1s" begin="2.2s" fill="freeze"/>
    </circle>
</svg>