<svg width="200" height="50" viewBox="0 0 210 50" xmlns="http://www.w3.org/2000/svg">
    <!-- 329 stargazers -->
    <!-- created at Sat Apr 11 2026 23:56:30 GMT+0000 (Coordinated Universal Time) -->
    <defs>
        <linearGradient id="stroke" x1="0%" y1="0%" x2="100%" y2="0%">
            <stop stop-color="#3023AE" offset="0%"/>
            <stop stop-color="#C86DD7" offset="100%"/>
        </linearGradient>
    </defs>
    <path stroke="url(#stroke)"
        stroke-width="3"
        stroke-linejoin="round"
        stroke-linecap="round"
        d="M5.00 46.0001 C 5.73 44.69, 9.05 38.18, 10.00 37.02 S 13.60 34.25, 15.00 33.71 S 18.51 33.33, 20.00 33.20 S 23.60 33.38, 25.00 32.84 S 28.53 29.70, 30.00 29.38 S 33.50 30.69, 35.00 30.68 S 38.63 29.92, 40.00 29.32 S 43.69 26.96, 45.00 26.24 S 48.54 23.44, 50.00 23.78 S 53.51 28.36, 55.00 28.56 S 58.53 25.44, 60.00 25.15 S 63.62 26.01, 65.00 26.59 S 68.51 29.15, 70.00 29.35 S 73.51 28.08, 75.00 27.94 S 78.51 28.24, 80.00 28.40 S 83.54 28.61, 85.00 28.97 S 88.50 30.84, 90.00 30.89 S 93.53 29.58, 95.00 29.29 S 98.53 28.63, 100.00 28.91 S 103.67 31.95, 105.00 31.25 S 108.66 22.99, 110.00 23.67 S 113.67 35.60, 115.00 36.29 S 118.89 29.87, 120.00 28.86 S 123.64 26.52, 125.00 27.14 S 128.57 33.90, 130.00 33.44 S 134.25 25.17, 135.00 23.87 S 138.66 15.32, 140.00 16.00 S 144.07 27.78, 145.00 28.96 S 148.50 28.77, 150.00 28.70 S 153.60 28.97, 155.00 28.44 S 158.51 24.71, 160.00 24.91 S 163.91 28.80, 165.00 29.83 S 168.52 34.15, 170.00 34.41 S 173.56 32.04, 175.00 31.61 S 178.71 30.67, 180.00 31.43 S 183.50 37.53, 185.00 37.48 S 188.60 31.59, 190.00 31.06 S 193.54 33.29, 195.00 33.65 S 199.06 32.34, 200.00 33.50 S 204.44 44.61, 205.00 46.00"
        fill="none">
        <animate attributeName="stroke-dashoffset"
            from="278.0970985059268" to="0" dur="2.2s"/>
        <animate attributeName="stroke-dasharray"
            from="278.0970985059268" to="278.0970985059268"/>
    </path>
    <circle r="4" cx="5" cy="46" fill="#3023AE"/>
    <circle r="4" cx="205" cy="46" fill="#C86DD7" opacity="0">
        <animate attributeName="opacity"
            from="0" to="1" dur="0.1s" begin="2.2s" fill="freeze"/>
    </circle>
</svg>