<svg width="200" height="50" viewBox="0 0 210 50" xmlns="http://www.w3.org/2000/svg">
    <!-- 329 stargazers -->
    <!-- created at Wed Apr 08 2026 22:12:28 GMT+0000 (Coordinated Universal Time) -->
    <defs>
        <linearGradient id="stroke" x1="0%" y1="0%" x2="100%" y2="0%">
            <stop stop-color="#3023AE" offset="0%"/>
            <stop stop-color="#C86DD7" offset="100%"/>
        </linearGradient>
    </defs>
    <path stroke="url(#stroke)"
        stroke-width="3"
        stroke-linejoin="round"
        stroke-linecap="round"
        d="M5.00 46.0001 C 5.76 44.71, 9.07 38.71, 10.00 37.53 S 13.62 33.88, 15.00 33.28 S 18.50 33.27, 20.00 33.20 S 23.60 33.38, 25.00 32.84 S 28.53 29.70, 30.00 29.38 S 33.50 30.60, 35.00 30.68 S 38.66 30.59, 40.00 29.92 S 43.72 26.48, 45.00 25.69 S 48.56 23.36, 50.00 23.78 S 53.51 28.36, 55.00 28.56 S 58.53 25.44, 60.00 25.15 S 63.62 26.01, 65.00 26.59 S 68.51 29.15, 70.00 29.35 S 73.51 28.08, 75.00 27.94 S 78.51 28.24, 80.00 28.40 S 83.54 28.61, 85.00 28.97 S 88.52 30.66, 90.00 30.89 S 93.57 30.98, 95.00 30.53 S 98.54 27.40, 100.00 27.73 S 103.56 33.24, 105.00 32.81 S 108.50 24.79, 110.00 24.71 S 113.69 31.53, 115.00 32.27 S 118.66 31.03, 120.00 30.35 S 123.51 26.97, 125.00 27.14 S 128.53 31.79, 130.00 31.49 S 134.19 26.39, 135.00 25.13 S 138.69 15.26, 140.00 16.00 S 143.99 29.65, 145.00 30.76 S 148.61 27.60, 150.00 27.04 S 153.50 26.84, 155.00 26.76 S 158.51 26.30, 160.00 26.48 S 163.82 26.99, 165.00 27.93 S 168.73 33.61, 170.00 34.41 S 173.67 34.95, 175.00 34.25 S 178.57 28.71, 180.00 29.17 S 183.53 37.20, 185.00 37.48 S 188.60 31.59, 190.00 31.06 S 193.54 33.29, 195.00 33.65 S 199.06 32.34, 200.00 33.50 S 204.44 44.61, 205.00 46.00"
        fill="none">
        <animate attributeName="stroke-dashoffset"
            from="275.27789052766906" to="0" dur="2.2s"/>
        <animate attributeName="stroke-dasharray"
            from="275.27789052766906" to="275.27789052766906"/>
    </path>
    <circle r="4" cx="5" cy="46" fill="#3023AE"/>
    <circle r="4" cx="205" cy="46" fill="#C86DD7" opacity="0">
        <animate attributeName="opacity"
            from="0" to="1" dur="0.1s" begin="2.2s" fill="freeze"/>
    </circle>
</svg>