<svg width="200" height="50" viewBox="0 0 210 50" xmlns="http://www.w3.org/2000/svg">
    <!-- 329 stargazers -->
    <!-- created at Fri Mar 27 2026 18:17:38 GMT+0000 (Coordinated Universal Time) -->
    <defs>
        <linearGradient id="stroke" x1="0%" y1="0%" x2="100%" y2="0%">
            <stop stop-color="#3023AE" offset="0%"/>
            <stop stop-color="#C86DD7" offset="100%"/>
        </linearGradient>
    </defs>
    <path stroke="url(#stroke)"
        stroke-width="3"
        stroke-linejoin="round"
        stroke-linecap="round"
        d="M5.00 46.0001 C 5.78 44.72, 9.06 38.95, 10.00 37.79 S 13.62 34.24, 15.00 33.66 S 18.50 33.48, 20.00 33.58 S 23.64 34.98, 25.00 34.35 S 28.57 29.42, 30.00 28.96 S 33.53 30.83, 35.00 31.13 S 38.68 31.72, 40.00 31.01 S 43.75 26.61, 45.00 25.79 S 48.61 23.88, 50.00 24.44 S 53.50 29.70, 55.00 29.80 S 58.53 25.43, 60.00 25.15 S 63.64 27.27, 65.00 27.91 S 68.50 29.76, 70.00 29.85 S 73.53 28.75, 75.00 28.48 S 78.57 27.54, 80.00 28.00 S 83.51 31.53, 85.00 31.69 S 88.50 28.98, 90.00 29.07 S 93.50 32.25, 95.00 32.30 S 98.53 29.71, 100.00 29.42 S 103.50 30.43, 105.00 30.32 S 108.50 28.81, 110.00 28.72 S 113.50 29.58, 115.00 29.68 S 118.51 29.24, 120.00 29.37 S 123.50 30.63, 125.00 30.54 S 128.50 28.84, 130.00 28.76 S 134.07 31.18, 135.00 30.00 S 138.53 16.31, 140.00 16.00 S 144.17 26.64, 145.00 27.89 S 148.56 30.57, 150.00 30.98 S 153.60 31.31, 155.00 30.76 S 158.84 28.02, 160.00 27.06 S 163.99 21.36, 165.00 22.47 S 168.92 37.01, 170.00 38.05 S 173.59 32.55, 175.00 32.04 S 178.54 34.12, 180.00 34.46 S 183.56 34.73, 185.00 34.31 S 188.50 31.55, 190.00 31.50 S 193.54 33.67, 195.00 34.02 S 198.58 33.41, 200.00 33.88 S 203.77 36.48, 205.00 37.33"
        fill="none">
        <animate attributeName="stroke-dashoffset"
            from="263.6971482410004" to="0" dur="2.2s"/>
        <animate attributeName="stroke-dasharray"
            from="263.6971482410004" to="263.6971482410004"/>
    </path>
    <circle r="4" cx="5" cy="46" fill="#3023AE"/>
    <circle r="4" cx="205" cy="37.329044310274114" fill="#C86DD7" opacity="0">
        <animate attributeName="opacity"
            from="0" to="1" dur="0.1s" begin="2.2s" fill="freeze"/>
    </circle>
</svg>