<svg width="200" height="50" viewBox="0 0 210 50" xmlns="http://www.w3.org/2000/svg">
    <!-- 330 stargazers -->
    <!-- created at Wed May 06 2026 09:54:48 GMT+0000 (Coordinated Universal Time) -->
    <defs>
        <linearGradient id="stroke" x1="0%" y1="0%" x2="100%" y2="0%">
            <stop stop-color="#3023AE" offset="0%"/>
            <stop stop-color="#C86DD7" offset="100%"/>
        </linearGradient>
    </defs>
    <path stroke="url(#stroke)"
        stroke-width="3"
        stroke-linejoin="round"
        stroke-linecap="round"
        d="M5.00 46.0001 C 5.74 44.69, 9.05 38.30, 10.00 37.14 S 13.60 34.41, 15.00 33.88 S 18.51 33.58, 20.00 33.38 S 23.57 32.96, 25.00 32.50 S 28.52 30.34, 30.00 30.10 S 33.54 31.21, 35.00 30.89 S 38.65 28.53, 40.00 27.87 S 43.55 26.37, 45.00 25.97 S 48.50 25.13, 50.00 25.15 S 53.57 25.71, 55.00 26.14 S 58.52 27.98, 60.00 28.20 S 63.54 27.27, 65.00 27.61 S 68.53 30.80, 70.00 30.52 S 73.50 25.67, 75.00 25.69 S 78.58 30.19, 80.00 30.69 S 83.50 29.32, 85.00 29.21 S 88.52 29.67, 90.00 29.90 S 93.50 30.86, 95.00 30.74 S 98.53 29.44, 100.00 29.15 S 103.53 29.07, 105.00 28.79 S 108.53 26.91, 110.00 27.22 S 113.53 30.58, 115.00 30.86 S 118.58 29.58, 120.00 29.09 S 123.51 27.27, 125.00 27.40 S 129.01 31.13, 130.00 30.00 S 133.53 16.31, 135.00 16.00 S 139.17 26.63, 140.00 27.88 S 143.50 31.06, 145.00 30.97 S 148.60 27.86, 150.00 27.31 S 153.53 27.33, 155.00 27.02 S 158.81 24.29, 160.00 25.20 S 163.91 33.70, 165.00 34.73 S 168.66 35.25, 170.00 34.57 S 173.57 29.17, 175.00 29.62 S 178.52 37.43, 180.00 37.70 S 183.59 31.97, 185.00 31.44 S 188.54 33.62, 190.00 33.97 S 194.04 32.67, 195.00 33.82 S 198.58 45.52, 200.00 46.00 S 204.26 38.49, 205.00 37.19"
        fill="none">
        <animate attributeName="stroke-dashoffset"
            from="269.7265053486652" to="0" dur="2.2s"/>
        <animate attributeName="stroke-dasharray"
            from="269.7265053486652" to="269.7265053486652"/>
    </path>
    <circle r="4" cx="5" cy="46" fill="#3023AE"/>
    <circle r="4" cx="205" cy="37.18542321236346" fill="#C86DD7" opacity="0">
        <animate attributeName="opacity"
            from="0" to="1" dur="0.1s" begin="2.2s" fill="freeze"/>
    </circle>
</svg>