<svg width="200" height="50" viewBox="0 0 210 50" xmlns="http://www.w3.org/2000/svg">
    <!-- 329 stargazers -->
    <!-- created at Sat Mar 21 2026 16:14:04 GMT+0000 (Coordinated Universal Time) -->
    <defs>
        <linearGradient id="stroke" x1="0%" y1="0%" x2="100%" y2="0%">
            <stop stop-color="#3023AE" offset="0%"/>
            <stop stop-color="#C86DD7" offset="100%"/>
        </linearGradient>
    </defs>
    <path stroke="url(#stroke)"
        stroke-width="3"
        stroke-linejoin="round"
        stroke-linecap="round"
        d="M5.00 46.0001 C 5.73 44.69, 9.11 38.16, 10.00 36.95 S 13.64 33.04, 15.00 32.41 S 18.50 32.20, 20.00 32.32 S 23.66 33.84, 25.00 33.16 S 28.59 27.72, 30.00 27.22 S 33.54 29.29, 35.00 29.62 S 38.68 30.19, 40.00 29.49 S 43.82 25.22, 45.00 24.29 S 48.60 21.14, 50.00 21.68 S 53.51 27.95, 55.00 28.15 S 58.50 23.08, 60.00 23.03 S 63.62 27.22, 65.00 27.80 S 68.51 27.41, 70.00 27.24 S 73.50 26.70, 75.00 26.69 S 78.59 26.68, 80.00 27.18 S 83.50 30.21, 85.00 30.23 S 88.53 27.65, 90.00 27.34 S 93.52 27.88, 95.00 28.14 S 98.50 29.21, 100.00 29.09 S 103.50 27.22, 105.00 27.34 S 108.50 30.02, 110.00 29.90 S 113.54 26.90, 115.00 26.58 S 118.54 27.33, 120.00 27.67 S 123.50 29.06, 125.00 28.96 S 128.54 27.34, 130.00 27.01 S 133.99 27.79, 135.00 26.68 S 138.54 16.33, 140.00 16.00 S 143.93 23.40, 145.00 24.45 S 148.77 24.87, 150.00 25.74 S 153.50 31.55, 155.00 31.45 S 158.85 26.09, 160.00 25.13 S 163.58 22.66, 165.00 23.14 S 169.13 27.26, 170.00 28.48 S 173.53 36.84, 175.00 37.12 S 178.77 31.27, 180.00 30.42 S 183.55 29.85, 185.00 30.22 S 188.55 32.58, 190.00 32.96 S 193.58 33.27, 195.00 32.80 S 198.59 29.13, 200.00 29.64 S 204.11 35.24, 205.00 36.45"
        fill="none">
        <animate attributeName="stroke-dashoffset"
            from="262.10689631120675" to="0" dur="2.2s"/>
        <animate attributeName="stroke-dasharray"
            from="262.10689631120675" to="262.10689631120675"/>
    </path>
    <circle r="4" cx="5" cy="46" fill="#3023AE"/>
    <circle r="4" cx="205" cy="36.44507219977919" fill="#C86DD7" opacity="0">
        <animate attributeName="opacity"
            from="0" to="1" dur="0.1s" begin="2.2s" fill="freeze"/>
    </circle>
</svg>