<svg width="200" height="50" viewBox="0 0 210 50" xmlns="http://www.w3.org/2000/svg">
    <!-- 329 stargazers -->
    <!-- created at Thu Apr 30 2026 08:42:47 GMT+0000 (Coordinated Universal Time) -->
    <defs>
        <linearGradient id="stroke" x1="0%" y1="0%" x2="100%" y2="0%">
            <stop stop-color="#3023AE" offset="0%"/>
            <stop stop-color="#C86DD7" offset="100%"/>
        </linearGradient>
    </defs>
    <path stroke="url(#stroke)"
        stroke-width="3"
        stroke-linejoin="round"
        stroke-linecap="round"
        d="M5.00 46.0001 C 5.70 44.67, 9.08 37.76, 10.00 36.57 S 13.61 33.66, 15.00 33.10 S 18.52 32.78, 20.00 32.56 S 23.58 32.12, 25.00 31.62 S 28.52 29.33, 30.00 29.07 S 33.52 30.18, 35.00 29.91 S 38.67 27.97, 40.00 27.27 S 43.61 25.24, 45.00 24.68 S 48.51 23.10, 50.00 23.23 S 53.60 25.00, 55.00 25.53 S 58.51 26.91, 60.00 27.05 S 63.52 26.20, 65.00 26.42 S 68.50 28.57, 70.00 28.52 S 73.51 26.26, 75.00 26.11 S 78.53 27.22, 80.00 27.52 S 83.55 27.74, 85.00 28.12 S 88.50 30.08, 90.00 30.13 S 93.53 28.76, 95.00 28.46 S 98.50 27.97, 100.00 28.06 S 103.57 29.50, 105.00 29.03 S 108.55 24.42, 110.00 24.79 S 113.57 31.12, 115.00 31.58 S 118.68 28.71, 120.00 28.00 S 123.50 26.30, 125.00 26.20 S 128.95 28.42, 130.00 27.35 S 133.53 16.32, 135.00 16.00 S 139.04 24.01, 140.00 25.17 S 143.64 27.49, 145.00 28.11 S 148.54 30.09, 150.00 29.75 S 153.88 26.79, 155.00 25.80 S 158.84 19.95, 160.00 20.90 S 164.08 32.81, 165.00 34.00 S 168.57 34.28, 170.00 33.83 S 173.50 30.95, 175.00 30.90 S 178.50 33.57, 180.00 33.51 S 183.58 30.02, 185.00 30.50 S 188.55 36.57, 190.00 36.94 S 193.50 33.07, 195.00 33.03 S 199.08 35.54, 200.00 36.72 S 204.29 44.68, 205.00 46.00"
        fill="none">
        <animate attributeName="stroke-dashoffset"
            from="261.406791497045" to="0" dur="2.2s"/>
        <animate attributeName="stroke-dasharray"
            from="261.406791497045" to="261.406791497045"/>
    </path>
    <circle r="4" cx="5" cy="46" fill="#3023AE"/>
    <circle r="4" cx="205" cy="46" fill="#C86DD7" opacity="0">
        <animate attributeName="opacity"
            from="0" to="1" dur="0.1s" begin="2.2s" fill="freeze"/>
    </circle>
</svg>