<svg width="200" height="50" viewBox="0 0 210 50" xmlns="http://www.w3.org/2000/svg">
    <!-- 329 stargazers -->
    <!-- created at Wed Mar 18 2026 11:09:17 GMT+0000 (Coordinated Universal Time) -->
    <defs>
        <linearGradient id="stroke" x1="0%" y1="0%" x2="100%" y2="0%">
            <stop stop-color="#3023AE" offset="0%"/>
            <stop stop-color="#C86DD7" offset="100%"/>
        </linearGradient>
    </defs>
    <path stroke="url(#stroke)"
        stroke-width="3"
        stroke-linejoin="round"
        stroke-linecap="round"
        d="M5.00 46.0001 C 5.70 44.68, 9.13 37.83, 10.00 36.61 S 13.65 32.54, 15.00 31.89 S 18.50 31.68, 20.00 31.80 S 23.67 33.38, 25.00 32.68 S 28.59 27.03, 30.00 26.51 S 33.54 28.66, 35.00 29.00 S 38.69 29.59, 40.00 28.86 S 43.83 24.42, 45.00 23.47 S 48.65 20.11, 50.00 20.76 S 53.50 28.23, 55.00 28.34 S 58.50 21.51, 60.00 21.47 S 63.61 27.51, 65.00 28.08 S 68.53 25.89, 70.00 25.58 S 73.57 25.51, 75.00 25.97 S 78.51 28.61, 80.00 28.78 S 83.50 27.04, 85.00 27.11 S 88.53 29.55, 90.00 29.23 S 93.50 24.87, 95.00 24.98 S 98.52 29.73, 100.00 29.98 S 103.54 26.97, 105.00 26.64 S 108.50 27.82, 110.00 27.70 S 113.51 25.70, 115.00 25.84 S 118.54 28.28, 120.00 28.64 S 123.60 28.87, 125.00 28.32 S 128.50 24.80, 130.00 24.71 S 133.87 28.68, 135.00 27.70 S 138.77 16.87, 140.00 16.00 S 143.88 19.64, 145.00 20.64 S 148.95 23.90, 150.00 24.97 S 153.50 31.00, 155.00 30.91 S 158.86 25.32, 160.00 24.34 S 163.71 21.51, 165.00 22.27 S 168.98 29.16, 170.00 30.25 S 173.50 33.03, 175.00 32.97 S 178.58 30.31, 180.00 29.83 S 183.75 28.80, 185.00 29.63 S 188.50 36.49, 190.00 36.43 S 193.62 29.81, 195.00 29.22 S 198.55 31.74, 200.00 32.14 S 203.50 32.03, 205.00 31.98"
        fill="none">
        <animate attributeName="stroke-dashoffset"
            from="270.9984881179233" to="0" dur="2.2s"/>
        <animate attributeName="stroke-dasharray"
            from="270.9984881179233" to="270.9984881179233"/>
    </path>
    <circle r="4" cx="5" cy="46" fill="#3023AE"/>
    <circle r="4" cx="205" cy="31.977199699477463" fill="#C86DD7" opacity="0">
        <animate attributeName="opacity"
            from="0" to="1" dur="0.1s" begin="2.2s" fill="freeze"/>
    </circle>
</svg>