<svg width="200" height="50" viewBox="0 0 210 50" xmlns="http://www.w3.org/2000/svg">
    <!-- 329 stargazers -->
    <!-- created at Fri Apr 24 2026 07:36:04 GMT+0000 (Coordinated Universal Time) -->
    <defs>
        <linearGradient id="stroke" x1="0%" y1="0%" x2="100%" y2="0%">
            <stop stop-color="#3023AE" offset="0%"/>
            <stop stop-color="#C86DD7" offset="100%"/>
        </linearGradient>
    </defs>
    <path stroke="url(#stroke)"
        stroke-width="3"
        stroke-linejoin="round"
        stroke-linecap="round"
        d="M5.00 46.0001 C 5.66 44.66, 9.12 37.09, 10.00 35.87 S 13.62 32.74, 15.00 32.14 S 18.52 31.80, 20.00 31.56 S 23.60 31.08, 25.00 30.56 S 28.52 28.09, 30.00 27.82 S 33.51 28.91, 35.00 28.72 S 38.73 27.32, 40.00 26.52 S 43.66 23.17, 45.00 22.50 S 48.60 21.00, 50.00 21.54 S 53.52 26.08, 55.00 26.33 S 58.51 23.44, 60.00 23.24 S 63.61 24.41, 65.00 24.97 S 68.50 27.27, 70.00 27.22 S 73.50 24.63, 75.00 24.64 S 78.53 26.97, 80.00 27.28 S 83.50 26.75, 85.00 26.79 S 88.50 27.54, 90.00 27.59 S 93.50 27.07, 95.00 27.16 S 98.51 28.29, 100.00 28.16 S 103.66 26.98, 105.00 26.32 S 108.73 22.42, 110.00 23.22 S 113.53 32.31, 115.00 32.59 S 118.82 26.04, 120.00 25.12 S 123.75 23.90, 125.00 24.73 S 128.87 32.82, 130.00 31.83 S 134.12 17.22, 135.00 16.00 S 138.88 16.95, 140.00 17.95 S 144.08 23.76, 145.00 24.95 S 148.54 31.23, 150.00 30.88 S 153.96 23.64, 155.00 22.56 S 158.97 19.49, 160.00 20.58 S 163.91 32.08, 165.00 33.11 S 168.50 30.05, 170.00 29.99 S 173.55 32.38, 175.00 32.75 S 178.71 33.35, 180.00 32.58 S 183.59 26.26, 185.00 26.78 S 188.67 35.57, 190.00 36.27 S 193.50 32.11, 195.00 32.07 S 199.13 34.82, 200.00 36.04 S 204.33 44.66, 205.00 46.00"
        fill="none">
        <animate attributeName="stroke-dashoffset"
            from="285.40231245526326" to="0" dur="2.2s"/>
        <animate attributeName="stroke-dasharray"
            from="285.40231245526326" to="285.40231245526326"/>
    </path>
    <circle r="4" cx="5" cy="46" fill="#3023AE"/>
    <circle r="4" cx="205" cy="46" fill="#C86DD7" opacity="0">
        <animate attributeName="opacity"
            from="0" to="1" dur="0.1s" begin="2.2s" fill="freeze"/>
    </circle>
</svg>