<svg width="200" height="50" viewBox="0 0 210 50" xmlns="http://www.w3.org/2000/svg">
    <!-- 329 stargazers -->
    <!-- created at Tue Mar 24 2026 17:29:32 GMT+0000 (Coordinated Universal Time) -->
    <defs>
        <linearGradient id="stroke" x1="0%" y1="0%" x2="100%" y2="0%">
            <stop stop-color="#3023AE" offset="0%"/>
            <stop stop-color="#C86DD7" offset="100%"/>
        </linearGradient>
    </defs>
    <path stroke="url(#stroke)"
        stroke-width="3"
        stroke-linejoin="round"
        stroke-linecap="round"
        d="M5.00 46.0001 C 5.76 44.71, 9.07 38.71, 10.00 37.53 S 13.62 33.88, 15.00 33.28 S 18.50 33.09, 20.00 33.20 S 23.65 34.64, 25.00 33.99 S 28.58 28.90, 30.00 28.43 S 33.53 30.36, 35.00 30.68 S 38.66 31.22, 40.00 30.55 S 43.79 26.58, 45.00 25.69 S 48.59 22.74, 50.00 23.25 S 53.51 29.12, 55.00 29.30 S 58.51 24.69, 60.00 24.51 S 63.60 27.60, 65.00 28.15 S 68.50 28.48, 70.00 28.45 S 73.51 27.80, 75.00 27.94 S 78.53 29.09, 80.00 29.40 S 83.51 30.20, 85.00 30.07 S 88.50 28.48, 90.00 28.55 S 93.52 30.29, 95.00 30.53 S 98.53 30.47, 100.00 30.18 S 103.53 28.84, 105.00 28.55 S 108.50 28.09, 110.00 28.18 S 113.50 29.08, 115.00 29.18 S 118.55 28.48, 120.00 28.86 S 123.53 32.05, 125.00 31.75 S 128.54 27.14, 130.00 26.81 S 133.98 30.60, 135.00 29.50 S 138.53 16.32, 140.00 16.00 S 144.07 26.16, 145.00 27.33 S 148.66 28.02, 150.00 28.70 S 153.60 32.93, 155.00 32.39 S 158.90 25.93, 160.00 24.91 S 163.91 22.10, 165.00 23.14 S 169.15 33.17, 170.00 34.41 S 173.67 38.39, 175.00 37.69 S 178.60 29.70, 180.00 29.17 S 183.53 33.67, 185.00 33.95 S 188.50 31.10, 190.00 31.06 S 193.54 33.29, 195.00 33.65 S 198.58 33.02, 200.00 33.50 S 203.78 36.19, 205.00 37.06"
        fill="none">
        <animate attributeName="stroke-dashoffset"
            from="266.5985489839778" to="0" dur="2.2s"/>
        <animate attributeName="stroke-dasharray"
            from="266.5985489839778" to="266.5985489839778"/>
    </path>
    <circle r="4" cx="5" cy="46" fill="#3023AE"/>
    <circle r="4" cx="205" cy="37.062183454052445" fill="#C86DD7" opacity="0">
        <animate attributeName="opacity"
            from="0" to="1" dur="0.1s" begin="2.2s" fill="freeze"/>
    </circle>
</svg>