<svg width="200" height="50" viewBox="0 0 210 50" xmlns="http://www.w3.org/2000/svg">
    <!-- 331 stargazers -->
    <!-- created at Fri May 15 2026 13:51:56 GMT+0000 (Coordinated Universal Time) -->
    <defs>
        <linearGradient id="stroke" x1="0%" y1="0%" x2="100%" y2="0%">
            <stop stop-color="#3023AE" offset="0%"/>
            <stop stop-color="#C86DD7" offset="100%"/>
        </linearGradient>
    </defs>
    <path stroke="url(#stroke)"
        stroke-width="3"
        stroke-linejoin="round"
        stroke-linecap="round"
        d="M5.00 46.0001 C 5.72 44.68, 9.06 38.04, 10.00 36.87 S 13.60 34.05, 15.00 33.51 S 18.52 33.20, 20.00 32.99 S 23.58 32.56, 25.00 32.08 S 28.52 29.86, 30.00 29.61 S 33.56 30.83, 35.00 30.42 S 38.66 27.45, 40.00 26.77 S 43.54 25.69, 45.00 25.36 S 48.51 24.39, 50.00 24.51 S 53.57 25.73, 55.00 26.18 S 58.50 27.64, 60.00 27.65 S 63.52 26.06, 65.00 26.27 S 68.50 29.13, 70.00 29.08 S 73.51 25.72, 75.00 25.89 S 78.56 29.81, 80.00 30.22 S 83.50 28.81, 85.00 28.69 S 88.50 29.36, 90.00 29.41 S 93.50 29.13, 95.00 29.01 S 98.50 28.74, 100.00 28.63 S 103.50 28.37, 105.00 28.26 S 108.50 27.79, 110.00 27.89 S 113.50 28.80, 115.00 28.90 S 118.51 28.44, 120.00 28.57 S 123.50 29.89, 125.00 29.80 S 129.12 29.15, 130.00 27.94 S 133.50 16.09, 135.00 16.00 S 138.91 26.29, 140.00 27.32 S 143.51 25.34, 145.00 25.50 S 148.53 28.72, 150.00 28.41 S 153.59 22.91, 155.00 23.41 S 158.99 30.86, 160.00 31.97 S 163.50 34.44, 165.00 34.38 S 168.56 32.00, 170.00 31.57 S 173.50 31.43, 175.00 31.38 S 178.54 30.84, 180.00 31.19 S 183.54 33.40, 185.00 33.75 S 188.58 33.12, 190.00 33.60 S 194.06 35.96, 195.00 37.12 S 198.61 46.55, 200.00 46.00 S 204.46 34.55, 205.00 33.15"
        fill="none">
        <animate attributeName="stroke-dashoffset"
            from="256.4736055412608" to="0" dur="2.2s"/>
        <animate attributeName="stroke-dasharray"
            from="256.4736055412608" to="256.4736055412608"/>
    </path>
    <circle r="4" cx="5" cy="46" fill="#3023AE"/>
    <circle r="4" cx="205" cy="33.15065669446821" fill="#C86DD7" opacity="0">
        <animate attributeName="opacity"
            from="0" to="1" dur="0.1s" begin="2.2s" fill="freeze"/>
    </circle>
</svg>