<svg width="200" height="50" viewBox="0 0 210 50" xmlns="http://www.w3.org/2000/svg">
    <!-- 329 stargazers -->
    <!-- created at Sun Apr 05 2026 20:30:03 GMT+0000 (Coordinated Universal Time) -->
    <defs>
        <linearGradient id="stroke" x1="0%" y1="0%" x2="100%" y2="0%">
            <stop stop-color="#3023AE" offset="0%"/>
            <stop stop-color="#C86DD7" offset="100%"/>
        </linearGradient>
    </defs>
    <path stroke="url(#stroke)"
        stroke-width="3"
        stroke-linejoin="round"
        stroke-linecap="round"
        d="M5.00 46.0001 C 5.76 44.71, 9.07 38.71, 10.00 37.53 S 13.62 33.88, 15.00 33.28 S 18.50 33.18, 20.00 33.20 S 23.62 34.00, 25.00 33.40 S 28.55 29.30, 30.00 28.90 S 33.51 30.52, 35.00 30.68 S 38.66 30.59, 40.00 29.92 S 43.72 26.48, 45.00 25.69 S 48.59 23.27, 50.00 23.78 S 53.50 29.19, 55.00 29.30 S 58.55 24.91, 60.00 24.51 S 63.65 25.94, 65.00 26.59 S 68.54 29.02, 70.00 29.35 S 73.53 29.15, 75.00 28.87 S 78.50 27.43, 80.00 27.44 S 83.58 28.48, 85.00 28.97 S 88.56 30.47, 90.00 30.89 S 93.62 32.47, 95.00 31.88 S 98.51 26.49, 100.00 26.63 S 103.53 33.09, 105.00 32.81 S 108.50 24.79, 110.00 24.71 S 113.69 31.53, 115.00 32.27 S 118.59 30.87, 120.00 30.35 S 123.50 28.63, 125.00 28.54 S 128.50 29.87, 130.00 29.78 S 134.12 29.14, 135.00 27.93 S 138.50 16.09, 140.00 16.00 S 144.07 26.16, 145.00 27.33 S 148.51 28.53, 150.00 28.70 S 153.67 29.13, 155.00 28.44 S 158.50 23.53, 160.00 23.46 S 163.99 26.82, 165.00 27.93 S 168.73 33.61, 170.00 34.41 S 173.56 34.68, 175.00 34.25 S 178.50 31.47, 180.00 31.43 S 183.50 34.00, 185.00 33.95 S 188.58 30.58, 190.00 31.06 S 193.54 36.91, 195.00 37.27 S 198.50 33.54, 200.00 33.50 S 203.78 36.19, 205.00 37.06"
        fill="none">
        <animate attributeName="stroke-dashoffset"
            from="265.52685433315844" to="0" dur="2.2s"/>
        <animate attributeName="stroke-dasharray"
            from="265.52685433315844" to="265.52685433315844"/>
    </path>
    <circle r="4" cx="5" cy="46" fill="#3023AE"/>
    <circle r="4" cx="205" cy="37.06218345405258" fill="#C86DD7" opacity="0">
        <animate attributeName="opacity"
            from="0" to="1" dur="0.1s" begin="2.2s" fill="freeze"/>
    </circle>
</svg>