<svg width="200" height="50" viewBox="0 0 210 50" xmlns="http://www.w3.org/2000/svg">
    <!-- 328 stargazers -->
    <!-- created at Wed Mar 04 2026 16:21:07 GMT+0000 (Coordinated Universal Time) -->
    <defs>
        <linearGradient id="stroke" x1="0%" y1="0%" x2="100%" y2="0%">
            <stop stop-color="#3023AE" offset="0%"/>
            <stop stop-color="#C86DD7" offset="100%"/>
        </linearGradient>
    </defs>
    <path stroke="url(#stroke)"
        stroke-width="3"
        stroke-linejoin="round"
        stroke-linecap="round"
        d="M5.00 46.0001 C 5.73 44.69, 9.10 38.29, 10.00 37.09 S 13.61 33.18, 15.00 32.62 S 18.50 33.04, 20.00 33.06 S 23.69 33.47, 25.00 32.75 S 28.54 27.84, 30.00 27.52 S 33.56 30.09, 35.00 30.51 S 38.77 31.30, 40.00 30.44 S 43.72 24.32, 45.00 23.54 S 48.65 23.69, 50.00 24.35 S 53.54 28.76, 55.00 28.43 S 58.51 22.28, 60.00 22.10 S 63.63 26.60, 65.00 27.22 S 68.56 26.22, 70.00 26.63 S 73.51 29.98, 75.00 30.10 S 78.57 27.92, 80.00 27.48 S 83.55 26.61, 85.00 27.00 S 88.51 29.89, 90.00 30.10 S 93.50 28.31, 95.00 28.42 S 98.50 30.92, 100.00 30.81 S 103.53 27.95, 105.00 27.63 S 108.58 29.12, 110.00 28.65 S 113.77 23.47, 115.00 24.32 S 118.50 35.52, 120.00 35.59 S 123.93 25.84, 125.00 24.79 S 128.95 24.73, 130.00 25.81 S 133.65 35.67, 135.00 35.02 S 139.30 22.37, 140.00 21.05 S 143.98 14.90, 145.00 16.00 S 149.02 30.76, 150.00 31.90 S 153.64 28.15, 155.00 27.52 S 158.54 27.59, 160.00 27.25 S 163.61 25.73, 165.00 25.17 S 168.86 22.22, 170.00 23.19 S 173.95 32.57, 175.00 33.64 S 178.50 33.53, 180.00 33.48 S 183.57 33.78, 185.00 33.32 S 188.57 30.74, 190.00 30.28 S 193.74 29.28, 195.00 30.09 S 198.55 36.32, 200.00 36.70 S 203.83 33.64, 205.00 32.70"
        fill="none">
        <animate attributeName="stroke-dashoffset"
            from="289.2891187217296" to="0" dur="2.2s"/>
        <animate attributeName="stroke-dasharray"
            from="289.2891187217296" to="289.2891187217296"/>
    </path>
    <circle r="4" cx="5" cy="46" fill="#3023AE"/>
    <circle r="4" cx="205" cy="32.70051212280376" fill="#C86DD7" opacity="0">
        <animate attributeName="opacity"
            from="0" to="1" dur="0.1s" begin="2.2s" fill="freeze"/>
    </circle>
</svg>